<svg xmlns="http://www.w3.org/2000/svg" width="48" height="48" viewBox="0 0 48 48">
  <g id="Group_8200" data-name="Group 8200" transform="translate(-104.386 -157.6)">
    <g id="Group_7848" data-name="Group 7848" transform="translate(104.386 157.6)">
      <g id="Group_7841" data-name="Group 7841" transform="translate(0 0)">
        <rect id="Rectangle_3523" data-name="Rectangle 3523" width="48" height="48" fill="#fff"/>
      </g>
    </g>
    <g id="Group_7863" data-name="Group 7863" transform="translate(120.36 164.8)">
      <g id="Group_7860" data-name="Group 7860" transform="translate(0 0)">
        <path id="Path_16671" data-name="Path 16671" d="M272.8,113s-.012-.394-.012-.521a.333.333,0,0,0-.284-.214v-2.821c0-.614,0-.9-7.438-.9s-7.433.278-7.433.9v6.9a.918.918,0,0,0,.023.22.5.5,0,0,0-.382.469c-.035,3.389-.261,23.161-.261,23.161,0,1.807,6.146,1.952,8.029,1.952s8.023-.145,8.023-1.958ZM258.8,110.159a2.08,2.08,0,0,0,.209.023c.116.012.238.023.377.035.249.017.533.035.857.052l.4.017c1.054.041,2.491.058,4.432.058,1.831,0,3.209-.017,4.241-.052.087-.006.174-.006.261-.012s.191-.006.278-.012c.423-.017.776-.041,1.072-.07.156-.012.3-.029.429-.046v2.491c-.023.487-2.068,1.975-5.915,3.105s-6.367.973-6.639.6Zm6.251,30.825c-4.055,0-6.419-.579-6.871-.915l.255-22.147a5.982,5.982,0,0,0,1.946.261h.041a20.493,20.493,0,0,0,5.4-.9,18.334,18.334,0,0,0,5.845-2.717l.249,25.5C271.46,140.405,269.1,140.984,265.047,140.984Z" transform="translate(-257.018 -108.543)" fill="#9ea0a3"/>
      </g>
      <g id="Group_7861" data-name="Group 7861" transform="translate(1.779 1.61)">
        <path id="Path_16672" data-name="Path 16672" d="M272.642,111.323v2.491c-.023.487-2.068,1.975-5.915,3.105s-6.367.973-6.639.6v-6.193a2.087,2.087,0,0,0,.209.023c.116.012.237.023.377.035.249.017.533.035.857.052l.4.017c1.054.041,2.491.058,4.432.058,1.831,0,3.209-.017,4.241-.052.087-.006.174-.006.261-.012s.191-.006.278-.012c.423-.017.776-.041,1.072-.07C272.369,111.358,272.514,111.34,272.642,111.323Z" transform="translate(-260.088 -111.323)" fill="none"/>
      </g>
      <g id="Group_7862" data-name="Group 7862" transform="translate(1.159 6.025)">
        <path id="Path_16673" data-name="Path 16673" d="M272.753,144.444c-.452.336-2.815.915-6.865.915s-6.419-.579-6.871-.915l.255-22.147a5.982,5.982,0,0,0,1.946.261h.041a20.494,20.494,0,0,0,5.4-.9,18.335,18.335,0,0,0,5.845-2.717Z" transform="translate(-259.018 -118.943)" fill="none"/>
      </g>
    </g>
  </g>
</svg>
