<svg xmlns="http://www.w3.org/2000/svg" width="24" height="24" viewBox="0 0 24 24">
  <g id="Group_13420" data-name="Group 13420" transform="translate(-524 -687)">
    <g id="Group_6301" data-name="Group 6301" transform="translate(524 687)">
      <g id="Group_4993" data-name="Group 4993" transform="translate(0 0)">
        <circle id="Ellipse_365" data-name="Ellipse 365" cx="12" cy="12" r="12" fill="none"/>
      </g>
      <g id="Group_13396" data-name="Group 13396" transform="translate(4 6)">
        <path id="Path_92527" data-name="Path 92527" d="M-5248.351-1428.693v7.344c-.006.008-.015.016-.017.025a1.481,1.481,0,0,1-1.6,1.25h-12.764c-.052,0-.1,0-.156,0a1.472,1.472,0,0,1-1.46-1.5q0-3.5,0-7a1.17,1.17,0,0,1,.013-.119c.028.016.042.022.055.03l6.481,4.322a2.41,2.41,0,0,0,2.9,0l5.794-3.861C-5248.857-1428.367-5248.6-1428.529-5248.351-1428.693Z" transform="translate(5264.351 1432.062)" fill="#38539a"/>
        <path id="Path_92528" data-name="Path 92528" d="M-5248.332-1507.706a2.133,2.133,0,0,1-.185.473,1.877,1.877,0,0,1-.462.5q-3.258,2.191-6.532,4.359a1.4,1.4,0,0,1-1.644,0q-3.279-2.174-6.548-4.364a1.39,1.39,0,0,1-.573-1.56,1.474,1.474,0,0,1,1.358-1.082c.046,0,.093,0,.14,0h12.889a1.483,1.483,0,0,1,1.479,1.009c.029.088.052.178.078.267Z" transform="translate(5264.332 1509.387)" fill="#38539a"/>
      </g>
    </g>
  </g>
</svg>
