<svg xmlns="http://www.w3.org/2000/svg" width="24" height="24" viewBox="0 0 24 24">
  <g id="Group_13402" data-name="Group 13402" transform="translate(19716 12268)">
    <rect id="Rectangle_4462" data-name="Rectangle 4462" width="24" height="24" transform="translate(-19716 -12268)" fill="none"/>
    <g id="Group_13379" data-name="Group 13379" transform="translate(-19708.494 -12264.999)">
      <path id="Path_92525" data-name="Path 92525" d="M-2479.38-1775.984c0-.052.009-.1.009-.157q0-3.86,0-7.72v-.172h-2.6v-3.2h2.6c0-.085,0-.153,0-.22.008-.938-.017-1.877.032-2.813a3.823,3.823,0,0,1,1.317-2.852,3.672,3.672,0,0,1,2.4-.859c.842-.008,1.686.063,2.528.1a.6.6,0,0,1,.107.025v2.853h-.207c-.615.01-1.232-.008-1.844.038a1.04,1.04,0,0,0-1.084,1.056c-.052.881-.013,1.767-.013,2.67h2.883c-.134,1.077-.266,2.132-.4,3.2h-2.5c0,.07-.012.126-.012.182q0,3.861,0,7.721c0,.052.01.1.015.156Z" transform="translate(2481.972 1793.984)" fill="#38539a"/>
    </g>
  </g>
</svg>
