<svg xmlns="http://www.w3.org/2000/svg" width="24" height="24" viewBox="0 0 24 24">
  <g id="Group_13412" data-name="Group 13412" transform="translate(19653 12268)">
    <rect id="Rectangle_4464" data-name="Rectangle 4464" width="24" height="24" transform="translate(-19653 -12268)" fill="none"/>
    <path id="Path_92526" data-name="Path 92526" d="M-3859.458-1825.327a3.18,3.18,0,0,0-3.179,3.18v8.12a3.18,3.18,0,0,0,3.179,3.18h8.12a3.179,3.179,0,0,0,3.18-3.18v-8.12a3.18,3.18,0,0,0-3.18-3.18Zm-4.94,3.18a4.94,4.94,0,0,1,4.94-4.94h8.12a4.94,4.94,0,0,1,4.94,4.94v8.12a4.939,4.939,0,0,1-4.94,4.94h-8.12a4.94,4.94,0,0,1-4.94-4.94Zm9.382,1.683a2.337,2.337,0,0,0-.693,0h0a2.368,2.368,0,0,0-2,2.689,2.369,2.369,0,0,0,2.69,1.995h0a2.367,2.367,0,0,0,1.995-2.689Zm0,0h0a2.368,2.368,0,0,1,1.995,1.995Zm.259-1.741a4.112,4.112,0,0,0-1.211,0,4.129,4.129,0,0,0-3.479,4.688h0a4.13,4.13,0,0,0,4.689,3.478,4.127,4.127,0,0,0,3.478-4.689h0A4.128,4.128,0,0,0-3854.756-1822.206Zm3.825-1.228a.88.88,0,0,0-.88.88.88.88,0,0,0,.88.88h.008a.88.88,0,0,0,.88-.88.881.881,0,0,0-.88-.88Z" transform="translate(-15785.604 -10437.913)" fill="#38539a" fill-rule="evenodd"/>
  </g>
</svg>
