<svg xmlns="http://www.w3.org/2000/svg" width="24" height="24" viewBox="0 0 24 24">
  <g id="Group_13399" data-name="Group 13399" transform="translate(19787 12268)">
    <rect id="Rectangle_4463" data-name="Rectangle 4463" width="24" height="24" transform="translate(-19787 -12268)" fill="none"/>
    <g id="Group_13383" data-name="Group 13383" transform="translate(-19784.002 -12264.251)">
      <g id="Group_13381" data-name="Group 13381">
        <path id="Path_92515" data-name="Path 92515" d="M871.078,511.3c0-4.027-4.037-7.3-9-7.3s-9,3.276-9,7.3c0,3.61,3.2,6.634,7.527,7.206.293.063.692.193.793.444a1.851,1.851,0,0,1,.029.814s-.106.635-.129.77c-.039.227-.181.89.78.485a29.06,29.06,0,0,0,7.071-5.225h0A6.5,6.5,0,0,0,871.078,511.3Z" transform="translate(-853.078 -504)" fill="#38539a"/>
      </g>
      <g id="Group_13382" data-name="Group 13382" transform="translate(2.952 5.358)">
        <path id="Path_92516" data-name="Path 92516" d="M1001.822,571.856a.172.172,0,0,0,.172-.172v-.638a.172.172,0,0,0-.172-.172H1000.1v-.663h1.719a.172.172,0,0,0,.172-.172V569.4a.172.172,0,0,0-.172-.172H1000.1v-.663h1.719a.172.172,0,0,0,.172-.172v-.638a.172.172,0,0,0-.172-.172h-2.528a.172.172,0,0,0-.172.172v0h0v3.921h0v0a.172.172,0,0,0,.172.172h2.528Z" transform="translate(-989.769 -567.585)" fill="#fff"/>
        <path id="Path_92517" data-name="Path 92517" d="M890.818,571.856a.172.172,0,0,0,.172-.172v-.638a.172.172,0,0,0-.172-.172H889.1v-3.118a.172.172,0,0,0-.172-.172h-.638a.172.172,0,0,0-.172.172v3.925h0v0a.172.172,0,0,0,.172.172h2.529Z" transform="translate(-888.118 -567.585)" fill="#fff"/>
        <rect id="Rectangle_4432" data-name="Rectangle 4432" width="0.982" height="4.271" rx="0.491" transform="translate(3.412)" fill="#fff"/>
        <path id="Path_92518" data-name="Path 92518" d="M951.115,567.585h-.638a.172.172,0,0,0-.172.172v2.333l-1.8-2.427-.014-.018h0l-.01-.011,0,0-.009-.008,0,0-.009-.006-.005,0-.01-.005-.005,0-.01,0-.006,0-.01,0H948.4l-.01,0h-.666a.172.172,0,0,0-.172.172v3.928a.172.172,0,0,0,.172.172h.638a.172.172,0,0,0,.172-.172v-2.332l1.8,2.43a.173.173,0,0,0,.044.043h0l.011.007,0,0,.008,0,.008,0,.005,0,.012,0h0a.174.174,0,0,0,.045.006h.635a.172.172,0,0,0,.172-.172v-3.928A.172.172,0,0,0,951.115,567.585Z" transform="translate(-942.547 -567.585)" fill="#fff"/>
      </g>
    </g>
  </g>
</svg>
