<svg xmlns="http://www.w3.org/2000/svg" width="24" height="24" viewBox="0 0 24 24">
  <g id="Group_13418" data-name="Group 13418" transform="translate(19653 12326)">
    <rect id="Rectangle_4459" data-name="Rectangle 4459" width="24" height="24" transform="translate(-19653 -12326)" fill="none"/>
    <g id="Group_13376" data-name="Group 13376" transform="translate(-19649.25 -12323)">
      <path id="Path_92522" data-name="Path 92522" d="M-3959.108-2309.108c-.4-.059-.8-.091-1.2-.181a5.577,5.577,0,0,1-4.23-4.688,5.574,5.574,0,0,1,4.668-6.211,5.173,5.173,0,0,1,1.757,0v2.958c-.156-.029-.3-.062-.451-.083a2.656,2.656,0,0,0-3.013,2.213,2.668,2.668,0,0,0,2.294,3.049,2.683,2.683,0,0,0,3.007-2.724c-.016-2.135,0-4.271,0-6.406q0-2.843,0-5.685v-.238h2.912c.042.3.069.605.129.9a4.525,4.525,0,0,0,4.239,3.582c.179.006.224.053.222.229-.01.833,0,1.666,0,2.5v.205a7.5,7.5,0,0,1-4.56-1.54v.219q.009,3.115.019,6.23a5.4,5.4,0,0,1-.914,3.124,5.547,5.547,0,0,1-4.34,2.521c-.063.005-.126.02-.189.03Z" transform="translate(3964.578 2327.108)" fill="#38539a"/>
    </g>
  </g>
</svg>
