<svg xmlns="http://www.w3.org/2000/svg" width="24" height="24" viewBox="0 0 24 24">
  <g id="Group_13416" data-name="Group 13416" transform="translate(19716 12326)">
    <rect id="Rectangle_4460" data-name="Rectangle 4460" width="24" height="24" transform="translate(-19716 -12326)" fill="none"/>
    <g id="Group_13377" data-name="Group 13377" transform="translate(-19713 -12321.5)">
      <path id="Path_92523" data-name="Path 92523" d="M-3506.288-2313.766a7.552,7.552,0,0,0,5.423-1.533,3.746,3.746,0,0,1-2.7-1.274,3.255,3.255,0,0,1-.722-1.3,4.013,4.013,0,0,0,1.594-.073,3.726,3.726,0,0,1-2.9-3.649c.262.1.515.216.781.289a4.382,4.382,0,0,0,.812.124,3.783,3.783,0,0,1-1.545-2.619,3.534,3.534,0,0,1,.479-2.3,10.56,10.56,0,0,0,7.63,3.86,4.466,4.466,0,0,1-.038-1.427,3.716,3.716,0,0,1,2.645-2.983,3.675,3.675,0,0,1,3.616.93.3.3,0,0,0,.226.061,7.021,7.021,0,0,0,2.038-.76c.045-.025.092-.046.172-.086a3.824,3.824,0,0,1-1.521,2,6.9,6.9,0,0,0,1.979-.524l.039.045c-.3.349-.582.712-.9,1.042-.252.261-.549.477-.817.723a.355.355,0,0,0-.112.23,10.642,10.642,0,0,1-4.613,9.112,9.53,9.53,0,0,1-4.406,1.662,10.875,10.875,0,0,1-4.469-.319,10.239,10.239,0,0,1-2.611-1.169A.868.868,0,0,1-3506.288-2313.766Z" transform="translate(3506.288 2326.784)" fill="#38539a"/>
    </g>
  </g>
</svg>
