<svg xmlns="http://www.w3.org/2000/svg" width="24" height="24" viewBox="0 0 24 24">
  <g id="Group_13417" data-name="Group 13417" transform="translate(19787 12326)">
    <rect id="Rectangle_4461" data-name="Rectangle 4461" width="24" height="24" transform="translate(-19787 -12326)" fill="none"/>
    <g id="Group_13378" data-name="Group 13378" transform="translate(-19784 -12320.567)">
      <path id="Path_92524" data-name="Path 92524" d="M-3032.9-2088.914a55.876,55.876,0,0,1,6.977.348,2.288,2.288,0,0,1,1.587,1.656,24.328,24.328,0,0,1,.376,4.415,24.344,24.344,0,0,1-.376,4.348,2.288,2.288,0,0,1-1.587,1.656,50.609,50.609,0,0,1-6.957.381h-.158a50.609,50.609,0,0,1-6.957-.381,2.288,2.288,0,0,1-1.587-1.59,24.327,24.327,0,0,1-.376-4.415,24.27,24.27,0,0,1,.376-4.382,2.29,2.29,0,0,1,1.587-1.656,51.106,51.106,0,0,1,6.978-.381Zm-1.9,3.71v5.417l4.7-2.708Z" transform="translate(3041.957 2088.914)" fill="#38539a" fill-rule="evenodd"/>
    </g>
  </g>
</svg>
