<svg id="Group_6301" data-name="Group 6301" xmlns="http://www.w3.org/2000/svg" width="40" height="40" viewBox="0 0 40 40">
  <g id="Group_4993" data-name="Group 4993" transform="translate(0 0)">
    <circle id="Ellipse_365" data-name="Ellipse 365" cx="20" cy="20" r="20" fill="none"/>
  </g>
  <g id="Group_13396" data-name="Group 13396" transform="translate(6.667 10)">
    <path id="Path_92527" data-name="Path 92527" d="M-5237.685-1428.692v12.239a.15.15,0,0,0-.028.042,2.468,2.468,0,0,1-2.669,2.084h-21.273c-.087,0-.173,0-.261,0a2.452,2.452,0,0,1-2.432-2.5q-.007-5.833,0-11.665a1.784,1.784,0,0,1,.021-.2c.047.026.07.036.092.051l10.8,7.2a4.018,4.018,0,0,0,4.833,0q4.828-3.216,9.655-6.435C-5238.527-1428.15-5238.1-1428.419-5237.685-1428.692Z" transform="translate(5264.351 1434.307)" fill="#2c2c2c"/>
    <path id="Path_92528" data-name="Path 92528" d="M-5237.666-1506.584a3.548,3.548,0,0,1-.309.789,3.133,3.133,0,0,1-.77.827q-5.43,3.652-10.886,7.265a2.327,2.327,0,0,1-2.739,0q-5.465-3.623-10.914-7.272a2.318,2.318,0,0,1-.956-2.6,2.456,2.456,0,0,1,2.264-1.8c.077-.005.155-.006.233-.006h21.482a2.471,2.471,0,0,1,2.464,1.681c.049.146.086.3.13.445Z" transform="translate(5264.332 1509.387)" fill="#2c2c2c"/>
  </g>
</svg>
