<svg xmlns="http://www.w3.org/2000/svg" width="40" height="40" viewBox="0 0 40 40">
  <g id="Group_13469" data-name="Group 13469" transform="translate(19716 12268)">
    <rect id="Rectangle_4462" data-name="Rectangle 4462" width="40" height="40" transform="translate(-19716 -12268)" fill="#fff"/>
    <g id="Group_13379" data-name="Group 13379" transform="translate(-19703.49 -12262.999)">
      <path id="Path_92525" data-name="Path 92525" d="M-2477.653-1763.984c.005-.087.015-.175.015-.262q0-6.434,0-12.867v-.287h-4.335v-5.342h4.335c0-.141,0-.254,0-.367.013-1.563-.028-3.129.053-4.688a6.372,6.372,0,0,1,2.2-4.754,6.121,6.121,0,0,1,4-1.432c1.4-.013,2.809.1,4.214.166a.993.993,0,0,1,.178.042v4.754c-.118,0-.231,0-.344,0-1.025.017-2.053-.013-3.074.063a1.734,1.734,0,0,0-1.807,1.76c-.087,1.468-.021,2.944-.021,4.449h4.8c-.224,1.794-.443,3.553-.664,5.335h-4.162c-.008.116-.02.21-.02.3q0,6.434,0,12.868c0,.086.016.174.024.26Z" transform="translate(2481.972 1793.984)"/>
    </g>
  </g>
</svg>
