<svg xmlns="http://www.w3.org/2000/svg" width="40" height="40" viewBox="0 0 40 40">
  <g id="Group_13470" data-name="Group 13470" transform="translate(19653 12268)">
    <rect id="Rectangle_4464" data-name="Rectangle 4464" width="40" height="40" transform="translate(-19653 -12268)" fill="#fff"/>
    <path id="Path_92526" data-name="Path 92526" d="M-3856.164-1824.153a5.3,5.3,0,0,0-5.3,5.3v13.533a5.3,5.3,0,0,0,5.3,5.3h13.534a5.3,5.3,0,0,0,5.3-5.3v-13.533a5.3,5.3,0,0,0-5.3-5.3Zm-8.233,5.3a8.234,8.234,0,0,1,8.233-8.234h13.534a8.233,8.233,0,0,1,8.233,8.234v13.533a8.232,8.232,0,0,1-8.233,8.233h-13.534a8.234,8.234,0,0,1-8.233-8.233Zm15.636,2.8a3.9,3.9,0,0,0-1.155,0h0a3.947,3.947,0,0,0-3.326,4.482,3.947,3.947,0,0,0,4.483,3.324h0a3.945,3.945,0,0,0,3.324-4.481Zm0,0h0a3.947,3.947,0,0,1,3.325,3.325Zm.432-2.9a6.842,6.842,0,0,0-2.019,0,6.881,6.881,0,0,0-5.8,7.813h0a6.882,6.882,0,0,0,7.815,5.8,6.878,6.878,0,0,0,5.8-7.814h0A6.879,6.879,0,0,0-3848.329-1818.951Zm6.375-2.046a1.468,1.468,0,0,0-1.468,1.467,1.467,1.467,0,0,0,1.468,1.467h.014a1.467,1.467,0,0,0,1.466-1.467,1.467,1.467,0,0,0-1.466-1.467Z" transform="translate(-15783.604 -10435.913)" fill-rule="evenodd"/>
  </g>
</svg>
