<svg xmlns="http://www.w3.org/2000/svg" width="40" height="40" viewBox="0 0 40 40">
  <g id="Group_13468" data-name="Group 13468" transform="translate(19787 12268)">
    <rect id="Rectangle_4463" data-name="Rectangle 4463" width="40" height="40" transform="translate(-19787 -12268)" fill="#fff"/>
    <g id="Group_13383" data-name="Group 13383" transform="translate(-19782.002 -12261.751)">
      <g id="Group_13381" data-name="Group 13381">
        <path id="Path_92515" data-name="Path 92515" d="M883.078,516.173c0-6.712-6.729-12.173-15-12.173s-15,5.461-15,12.173c0,6.017,5.336,11.057,12.545,12.009.489.106,1.153.322,1.322.74a3.082,3.082,0,0,1,.049,1.356s-.176,1.058-.214,1.284c-.065.379-.3,1.483,1.3.809s8.638-5.086,11.785-8.709h0A10.83,10.83,0,0,0,883.078,516.173Z" transform="translate(-853.078 -504)" fill="#2c2c2c"/>
      </g>
      <g id="Group_13382" data-name="Group 13382" transform="translate(4.919 8.929)">
        <path id="Path_92516" data-name="Path 92516" d="M1003.623,574.7a.286.286,0,0,0,.286-.287v-1.064a.287.287,0,0,0-.286-.286h-2.864v-1.1h2.864a.286.286,0,0,0,.286-.286v-1.064a.287.287,0,0,0-.286-.286h-2.864v-1.1h2.864a.286.286,0,0,0,.286-.286v-1.064a.287.287,0,0,0-.286-.286h-4.214a.286.286,0,0,0-.287.286v.006h0v6.535h0v0a.286.286,0,0,0,.287.287h4.214Z" transform="translate(-983.534 -567.585)" fill="#fff"/>
        <path id="Path_92517" data-name="Path 92517" d="M892.618,574.7a.287.287,0,0,0,.286-.287v-1.064a.287.287,0,0,0-.286-.286h-2.864v-5.2a.287.287,0,0,0-.287-.286H888.4a.286.286,0,0,0-.286.286v6.541h0v0a.286.286,0,0,0,.286.287h4.214Z" transform="translate(-888.118 -567.585)" fill="#fff"/>
        <rect id="Rectangle_4432" data-name="Rectangle 4432" width="1.637" height="7.119" rx="0.818" transform="translate(5.687)" fill="#fff"/>
        <path id="Path_92518" data-name="Path 92518" d="M953.487,567.585h-1.064a.286.286,0,0,0-.286.286v3.888l-2.995-4.045a.283.283,0,0,0-.023-.03l0,0-.017-.018-.005,0-.016-.013-.008-.006-.015-.01-.009-.005-.016-.009-.009,0-.017-.007-.009,0-.017-.006-.01,0-.017,0-.012,0-.016,0h-1.083a.286.286,0,0,0-.286.286v6.546a.286.286,0,0,0,.286.287h1.064a.286.286,0,0,0,.286-.287v-3.887l3,4.05a.288.288,0,0,0,.074.072l0,0,.018.011.008,0,.014.007.014.006.009,0,.02.006h0a.293.293,0,0,0,.075.01h1.058a.286.286,0,0,0,.286-.287v-6.546A.286.286,0,0,0,953.487,567.585Z" transform="translate(-939.208 -567.585)" fill="#fff"/>
      </g>
    </g>
  </g>
</svg>
