<svg xmlns="http://www.w3.org/2000/svg" width="40" height="40" viewBox="0 0 40 40">
  <g id="Group_13475" data-name="Group 13475" transform="translate(-524 -687)">
    <g id="Group_6301" data-name="Group 6301" transform="translate(524 687)">
      <g id="Group_4993" data-name="Group 4993" transform="translate(0 0)">
        <circle id="Ellipse_365" data-name="Ellipse 365" cx="20" cy="20" r="20" fill="none"/>
      </g>
      <g id="Page-1" transform="translate(7.777 7.778)">
        <g id="_003---Call" data-name="003---Call" transform="translate(0)">
          <path id="Shape" d="M11.12,14.356a9.865,9.865,0,0,1-2.979-5.6.838.838,0,0,1,.241-.7L10.27,6.167a.843.843,0,0,0,.119-1.043L7.382.456A.843.843,0,0,0,6.29.149L1.465,2.421A.838.838,0,0,0,1,3.259,23.327,23.327,0,0,0,8.1,17.37a23.32,23.32,0,0,0,14.111,7.1.838.838,0,0,0,.837-.464l2.273-4.826a.843.843,0,0,0-.306-1.09l-4.668-3.005a.843.843,0,0,0-1.043.118l-1.887,1.888a.838.838,0,0,1-.7.241,9.865,9.865,0,0,1-5.6-2.979Z" transform="translate(-0.997 -0.034)" fill="#2c2c2c"/>
          <path id="Shape-2" data-name="Shape" d="M36.007,18.85a.843.843,0,0,1-.843-.843,6.329,6.329,0,0,0-6.321-6.321.843.843,0,0,1,0-1.686,8.016,8.016,0,0,1,8.007,8.007A.843.843,0,0,1,36.007,18.85Z" transform="translate(-16.62 -5.786)" fill="#2c2c2c"/>
          <path id="Shape-3" data-name="Shape" d="M40.222,13.064a.843.843,0,0,1-.843-.843A10.548,10.548,0,0,0,28.843,1.686a.843.843,0,0,1,0-1.686A12.235,12.235,0,0,1,41.064,12.222a.843.843,0,0,1-.843.843Z" transform="translate(-16.62)" fill="#2c2c2c"/>
        </g>
      </g>
    </g>
  </g>
</svg>
