<svg xmlns="http://www.w3.org/2000/svg" width="40" height="40" viewBox="0 0 40 40">
  <g id="Group_13473" data-name="Group 13473" transform="translate(19653 12326)">
    <rect id="Rectangle_4459" data-name="Rectangle 4459" width="40" height="40" transform="translate(-19653 -12326)" fill="#fff"/>
    <g id="Group_13376" data-name="Group 13376" transform="translate(-19646.75 -12321)">
      <path id="Path_92522" data-name="Path 92522" d="M-3955.461-2297.108c-.665-.1-1.341-.152-1.994-.3a9.3,9.3,0,0,1-7.051-7.814,9.289,9.289,0,0,1,7.78-10.351,8.622,8.622,0,0,1,2.929-.007v4.93c-.26-.048-.5-.1-.751-.139a4.427,4.427,0,0,0-5.022,3.688,4.447,4.447,0,0,0,3.825,5.082,4.471,4.471,0,0,0,5.011-4.541c-.027-3.559,0-7.118,0-10.676q0-4.737,0-9.475v-.4h4.852c.071.5.115,1.009.216,1.5a7.541,7.541,0,0,0,7.065,5.97c.3.01.373.089.37.382-.016,1.388-.007,2.776-.007,4.165v.342a12.5,12.5,0,0,1-7.6-2.567c0,.158,0,.262,0,.365q.015,5.191.03,10.383a8.987,8.987,0,0,1-1.522,5.206,9.244,9.244,0,0,1-7.234,4.2c-.106.009-.21.033-.315.05Z" transform="translate(3964.578 2327.108)" fill="#2c2c2c"/>
    </g>
  </g>
</svg>
