<svg xmlns="http://www.w3.org/2000/svg" width="40" height="40" viewBox="0 0 40 40">
  <g id="Group_13471" data-name="Group 13471" transform="translate(19716 12326)">
    <rect id="Rectangle_4460" data-name="Rectangle 4460" width="40" height="40" transform="translate(-19716 -12326)" fill="#fff"/>
    <g id="Group_13377" data-name="Group 13377" transform="translate(-19711 -12318.5)">
      <path id="Path_92523" data-name="Path 92523" d="M-3506.288-2305.088a12.585,12.585,0,0,0,9.039-2.555,6.244,6.244,0,0,1-4.5-2.124,5.429,5.429,0,0,1-1.2-2.159,6.677,6.677,0,0,0,2.658-.122,6.211,6.211,0,0,1-4.841-6.082c.437.166.859.36,1.3.483a7.276,7.276,0,0,0,1.353.206,6.3,6.3,0,0,1-2.575-4.365,5.888,5.888,0,0,1,.8-3.829,17.6,17.6,0,0,0,12.716,6.433,7.458,7.458,0,0,1-.063-2.379,6.194,6.194,0,0,1,4.408-4.971,6.124,6.124,0,0,1,6.026,1.55.5.5,0,0,0,.376.1,11.692,11.692,0,0,0,3.4-1.266c.075-.042.154-.077.288-.144a6.375,6.375,0,0,1-2.535,3.328,11.486,11.486,0,0,0,3.3-.874l.064.075c-.5.582-.969,1.187-1.5,1.736-.419.435-.915.8-1.362,1.206a.593.593,0,0,0-.186.383,17.734,17.734,0,0,1-7.688,15.187,15.885,15.885,0,0,1-7.344,2.769,18.128,18.128,0,0,1-7.448-.531,17.07,17.07,0,0,1-4.352-1.95A1.3,1.3,0,0,1-3506.288-2305.088Z" transform="translate(3506.288 2326.784)" fill="#2c2c2c"/>
    </g>
  </g>
</svg>
