<svg xmlns="http://www.w3.org/2000/svg" xmlns:xlink="http://www.w3.org/1999/xlink" width="92" height="85" viewBox="0 0 92 85">
  <defs>
    <clipPath id="clip-path">
      <path id="Union_1" data-name="Union 1" d="M-1554-3847v-45h80v45a40,40,0,0,1-40,40A40,40,0,0,1-1554-3847Z" transform="translate(1698 4079)" fill="#fff"/>
    </clipPath>
  </defs>
  <g id="Group_19270" data-name="Group 19270" transform="translate(-148 -191)">
    <g id="Group_18030" data-name="Group 18030" transform="translate(0 4)">
      <g id="Group_17411" data-name="Group 17411" transform="translate(127 42)">
        <rect id="Rectangle_5357" data-name="Rectangle 5357" width="80" height="80" rx="40" transform="translate(21 150)" fill="#ca7f7f"/>
      </g>
      <g id="Mask_Group_225" data-name="Mask Group 225" transform="translate(4)" clip-path="url(#clip-path)">
        <g id="flat" transform="translate(104 156)">
          <path id="Path_91545" data-name="Path 91545" d="M48,96h64.909v58.727H48Z" transform="translate(0 -38.727)" fill="#ea9d2d"/>
          <path id="Path_91546" data-name="Path 91546" d="M191.455,111.455l-7.727-3.091L176,111.455V96h15.455Z" transform="translate(-103.273 -38.727)" fill="#94c3c6"/>
          <rect id="Rectangle_5766" data-name="Rectangle 5766" width="24.875" height="6.219" rx="3.109" transform="translate(68.091 78.909)" fill="#c38325"/>
          <path id="Path_91547" data-name="Path 91547" d="M80,272h21.636v18.546H80Z" transform="translate(-25.818 -180.727)" fill="#ededed"/>
          <path id="Path_91548" data-name="Path 91548" d="M102.182,299.091H97.545a1.545,1.545,0,1,1,0-3.091h4.636a1.545,1.545,0,1,1,0,3.091Z" transform="translate(-38.727 -200.091)" fill="#c3c4c5"/>
          <path id="Path_91549" data-name="Path 91549" d="M106.818,331.091H97.545a1.545,1.545,0,1,1,0-3.091h9.273a1.545,1.545,0,1,1,0,3.091Z" transform="translate(-38.727 -225.909)" fill="#c3c4c5"/>
          <path id="Path_91550" data-name="Path 91550" d="M48,48h64.909v9.273H48Z" fill="#fbb540"/>
          <path id="Path_91551" data-name="Path 91551" d="M176,48h15.455v9.273H176Z" transform="translate(-103.273)" fill="#c2dfe1"/>
        </g>
      </g>
    </g>
    <g id="Component_295" data-name="Component 295" transform="translate(208 235)">
      <g id="Icon_Check_Active" data-name="Icon/Check/Active">
        <g id="Shape" fill="#ca7f7f">
          <path d="M 16 31 C 11.9933500289917 31 8.226519584655762 29.43972969055176 5.393400192260742 26.60659980773926 C 2.560270071029663 23.77347946166992 1 20.00665092468262 1 16 C 1 11.9933500289917 2.560270071029663 8.226519584655762 5.393400192260742 5.393400192260742 C 8.226519584655762 2.560270071029663 11.9933500289917 1 16 1 C 20.00665092468262 1 23.77347946166992 2.560270071029663 26.60659980773926 5.393400192260742 C 29.43972969055176 8.226519584655762 31 11.9933500289917 31 16 C 31 20.00665092468262 29.43972969055176 23.77347946166992 26.60659980773926 26.60659980773926 C 23.77347946166992 29.43972969055176 20.00665092468262 31 16 31 Z" stroke="none"/>
          <path d="M 16 2 C 12.26045989990234 2 8.744749069213867 3.456249237060547 6.100500106811523 6.100500106811523 C 3.456249237060547 8.744749069213867 2 12.26045989990234 2 16 C 2 19.73954010009766 3.456249237060547 23.2552490234375 6.100500106811523 25.89949989318848 C 8.744749069213867 28.54375076293945 12.26045989990234 30 16 30 C 19.73954010009766 30 23.2552490234375 28.54375076293945 25.89949989318848 25.89949989318848 C 28.54375076293945 23.2552490234375 30 19.73954010009766 30 16 C 30 12.26045989990234 28.54375076293945 8.744749069213867 25.89949989318848 6.100500106811523 C 23.2552490234375 3.456249237060547 19.73954010009766 2 16 2 M 16 0 C 24.8365592956543 0 32 7.163440704345703 32 16 C 32 24.8365592956543 24.8365592956543 32 16 32 C 7.163440704345703 32 0 24.8365592956543 0 16 C 0 7.163440704345703 7.163440704345703 0 16 0 Z" stroke="none" fill="#faf2f1"/>
        </g>
      </g>
      <path id="Close" d="M6.584,4.916A1.543,1.543,0,0,0,4.4,7.1l4.365,4.365L4.4,15.83a1.543,1.543,0,1,0,2.183,2.183l4.365-4.365,4.365,4.365A1.543,1.543,0,1,0,17.5,15.83l-4.365-4.365L17.5,7.1a1.543,1.543,0,1,0-2.183-2.183L10.95,9.282Z" transform="translate(5.05 4.536)" fill="#faf2f1" fill-rule="evenodd"/>
    </g>
  </g>
</svg>
