<svg xmlns="http://www.w3.org/2000/svg" xmlns:xlink="http://www.w3.org/1999/xlink" width="83" height="85" viewBox="0 0 83 85">
  <defs>
    <clipPath id="clip-path">
      <path id="Union_1" data-name="Union 1" d="M-1554-3847v-45h80v45a40,40,0,0,1-40,40A40,40,0,0,1-1554-3847Z" transform="translate(1698 4079)" fill="#fff"/>
    </clipPath>
    <filter id="Union_3" x="-1.001" y="9.687" width="82.001" height="91.195" filterUnits="userSpaceOnUse">
      <feOffset dy="3" input="SourceAlpha"/>
      <feGaussianBlur stdDeviation="3" result="blur"/>
      <feFlood flood-opacity="0.161"/>
      <feComposite operator="in" in2="blur"/>
      <feComposite in="SourceGraphic"/>
    </filter>
  </defs>
  <g id="Group_17977" data-name="Group 17977" transform="translate(-148 -187)">
    <g id="Group_17411" data-name="Group 17411" transform="translate(127 42)">
      <rect id="Rectangle_5357" data-name="Rectangle 5357" width="80" height="80" rx="40" transform="translate(21 150)" fill="#62625a"/>
    </g>
    <g id="Mask_Group_225" data-name="Mask Group 225" transform="translate(4)" clip-path="url(#clip-path)">
      <g id="XMLID_296_" transform="translate(106.999 198.167)">
        <g transform="matrix(1, 0, 0, 1, 37, -11.17)" filter="url(#Union_3)">
          <path id="Union_3-2" data-name="Union 3" d="M32,73.195H0V0H64v73.2Z" transform="translate(8 15.69)" fill="#fff"/>
        </g>
        <path id="XMLID_304_" d="M285,120h18.286v4.571H285Z" transform="translate(-203.428 -101.714)" fill="#fff1e8"/>
        <path id="XMLID_305_" d="M285,180h18.286v4.571H285Z" transform="translate(-203.428 -152.571)" fill="#e3a780"/>
        <path id="XMLID_306_" d="M285,240h18.286v4.571H285Z" transform="translate(-203.428 -203.428)" fill="#fff1e8"/>
        <path id="XMLID_307_" d="M105,300h45.715v4.571H105Z" transform="translate(-50.857 -254.285)" fill="#fff1e8"/>
        <path id="XMLID_308_" d="M105,360h45.715v4.571H105Z" transform="translate(-50.857 -305.143)" fill="#e3a780"/>
        <path id="Union_4" data-name="Union 4" d="M22.961,4.52H0V0H45.922V4.52Z" transform="translate(54.039 64.156)" fill="#fff1e8"/>
        <path id="Union_2" data-name="Union 2" d="M18.442,9.04H0V0H36.882V9.04Z" transform="translate(58.559)" fill="#ededed"/>
        <path id="XMLID_315_" d="M105,120v22.857h11.429l1.524-8.381-1.524-7.619L114.143,120Z" transform="translate(-50.857 -101.714)" fill="#a76c47"/>
        <path id="XMLID_318_" d="M191.429,120h-9.143L180,126.857v16h11.429Z" transform="translate(-114.428 -101.714)" fill="#a76c47"/>
        <path id="XMLID_319_" d="M165,120v6.857h2.286l1.524-3.429L167.286,120Z" transform="translate(-101.714 -101.714)" fill="#e3a780"/>
        <path id="XMLID_322_" d="M180,120h2.286v6.857H180Z" transform="translate(-114.428 -101.714)" fill="#e3a780"/>
      </g>
    </g>
    <g id="_x34_3_search" transform="translate(191 230)">
      <path id="Path_91303" data-name="Path 91303" d="M0,11.714H4.075V0H0Z" transform="translate(32.135 29.251) rotate(135)" fill="#464646"/>
      <path id="Path_91304" data-name="Path 91304" d="M14.546,327.374a3.464,3.464,0,0,0,0-4.9l-9.269-9.269a1.29,1.29,0,0,0-1.825,0L.378,316.279a1.29,1.29,0,0,0,0,1.825l9.269,9.269A3.464,3.464,0,0,0,14.546,327.374Z" transform="translate(24.44 -288.388)" fill="#a76c47"/>
      <ellipse id="Ellipse_1667" data-name="Ellipse 1667" cx="13.925" cy="13.925" rx="13.925" ry="13.925" transform="translate(0 0)" fill="#9ea0a3"/>
      <ellipse id="Ellipse_1668" data-name="Ellipse 1668" cx="9.972" cy="9.972" rx="9.972" ry="9.972" transform="translate(3.953 3.953)" fill="#ededed"/>
    </g>
  </g>
</svg>
