<svg xmlns="http://www.w3.org/2000/svg" xmlns:xlink="http://www.w3.org/1999/xlink" width="80" height="72" viewBox="0 0 80 72">
  <defs>
    <clipPath id="clip-path">
      <rect id="Rectangle_5319" data-name="Rectangle 5319" width="80" height="72" transform="translate(-1611 1615)" fill="#fff" stroke="#707070" stroke-width="1"/>
    </clipPath>
    <clipPath id="clip-path-2">
      <rect id="Rectangle_4311" data-name="Rectangle 4311" width="328" height="64" rx="10" transform="translate(576 661)" fill="#f1f2ff"/>
    </clipPath>
    <clipPath id="clip-path-3">
      <rect id="Rectangle_4318" data-name="Rectangle 4318" width="580" height="86" rx="10" transform="translate(430 416)" fill="#f1f2ff"/>
    </clipPath>
  </defs>
  <g id="Mask_Group_204" data-name="Mask Group 204" transform="translate(1611 -1615)" clip-path="url(#clip-path)">
    <g id="banner-dis15-phy-d" transform="translate(-2077 1290)">
      <g id="Mask_Group_151" data-name="Mask Group 151" transform="translate(0 -105)" clip-path="url(#clip-path-3)">
        <g id="Group_12413" data-name="Group 12413" transform="translate(-2192.92 141.127)">
          <path id="Path_88977" data-name="Path 88977" d="M2778.419,402.826a5.589,5.589,0,0,1,5.439-4.372,9,9,0,0,1,5.562,1.9,5.6,5.6,0,0,1,1.72,2.538,14.3,14.3,0,0,0,1.131,3.565,14.639,14.639,0,0,0,2.483,2.584,5.274,5.274,0,0,1,1.408,2.931c.458,1.713,2.309,2.455,2.736,4.114a14.139,14.139,0,0,1,.149,3.079,6.708,6.708,0,0,0,.341,1.846l.005.016a.644.644,0,0,1-.72.811,10.787,10.787,0,0,0-1.553-.348,2.012,2.012,0,0,0-1.062.6,1.743,1.743,0,0,1-1.072.524.968.968,0,0,1-.237-.062c-1.411-.518-2.493-1.863-4.06-1.972a4.921,4.921,0,0,0-2.061.51,4.176,4.176,0,0,1-2.779.132,7.346,7.346,0,0,1-1.6-.689,7.362,7.362,0,0,0-.8-1.116,9.684,9.684,0,0,1-1.925-2.428,7.442,7.442,0,0,1-.34-2.9,10.98,10.98,0,0,0-1.684-4.439A9.686,9.686,0,0,1,2778.419,402.826Z" transform="translate(-87.466 -84.812)" fill="#914a4a"/>
          <path id="Path_88978" data-name="Path 88978" d="M2857.309,323.724c-.132-.609-1.064-.768-1.652-.926-.04-.069-.152-.093-.183,0q-.788,2.287-1.408,4.625a.076.076,0,0,0,.067.1,12.322,12.322,0,0,0,1.494,2.883c.07.1.22-.017.15-.118l-.047-.071Z" transform="translate(-147.323 -25.075)" fill="#ff9775"/>
          <path id="Path_88979" data-name="Path 88979" d="M2863.854,304.91a7.874,7.874,0,0,0-1.155-.818c-.389-.217-.171-.51-.573-.7a.085.085,0,0,0-.087,0,.1.1,0,0,0-.118,0,7.038,7.038,0,0,0-2.166,1.858,2.552,2.552,0,0,0-.245,1.232c-.025.481-.213,1.948-.213,1.948a5.845,5.845,0,0,1,1.6.925.093.093,0,0,0,.05.021c.04.039.235.083.259.015.438-1.245,1.731-2.027,2.583-3.4C2863.964,305.718,2864.127,305.2,2863.854,304.91Z" transform="translate(-151.453 -9.798)" fill="#ff9775"/>
          <path id="Path_88980" data-name="Path 88980" d="M2861.44,295.921c-.181.045-.2.308-.231.446-.122.518-.256,1.033-.408,1.543a7.431,7.431,0,0,0-.563,2.684,2.457,2.457,0,0,0,1.157-.705,1.915,1.915,0,0,0-.051-1.118,7.441,7.441,0,0,0,.482-1.834C2861.849,296.711,2861.925,295.8,2861.44,295.921Z" transform="translate(-152.181 -3.91)" fill="#ff9775"/>
          <path id="Path_88981" data-name="Path 88981" d="M2874.514,291.311c-.6-.486-1.487.348-1.944.705-.68.531-2.391,2.291-2.289,2,.109-.157.533-.63.615-.735.281-.36.561-.723.873-1.056.17-.183.359-.347.541-.519a3.164,3.164,0,0,0,.345-.309.358.358,0,0,0,.086-.21c0-.064-.026-.214-.1-.226-.682-.107-1.395.677-1.833,1.108a18.8,18.8,0,0,0-1.665,1.965,20.061,20.061,0,0,0,1.678,2.868,30.9,30.9,0,0,1,2.336-2.216,8.366,8.366,0,0,0,1.169-.788c-.1-.359-.753-.157-1.045-.053-.216.077-1.756,1.135-1.57.8.5-.306.924-.661,1.408-.986.255-.171.571-.3.831-.466.105-.067.746-.448.5-.619-.483-.338-1.069.127-1.505.4a18.9,18.9,0,0,1-1.8,1.329c.072-.066,1.315-1.24,1.39-1.3.656-.555,1.31-.992,1.982-1.527A.1.1,0,0,0,2874.514,291.311Z" transform="translate(-159.215)" fill="#ff9775"/>
          <path id="Path_88982" data-name="Path 88982" d="M2734.036,692.3l-.043.01c-.383.093-.219.683.163.59l.106-.023a.291.291,0,0,0,.226-.049,20.93,20.93,0,0,1,7.015-.368,3.763,3.763,0,0,0,2.464-.276,6.562,6.562,0,0,0,1.814-1.758,9.4,9.4,0,0,0,1.4-8.783c-.914-2.515-3.516-5.8-6.5-5.689-1.547.055-2.762,1.246-3.837,2.222a14.409,14.409,0,0,0-3.468,4.135,6.507,6.507,0,0,0-.469,4.646C2733.37,688.714,2734.374,690.436,2734.036,692.3Z" transform="translate(-51.554 -303.745)" fill="#4f2f2f"/>
          <path id="Path_88983" data-name="Path 88983" d="M2815.953,358.561c.4-1.548,2.952-9.538,3.545-12.06.441-1.875.7-3.793,1.168-5.661s2.19-5.48,3.48-10.085a.268.268,0,0,1,.483-.075c.544.841,1.6,2.5,1.935,2.912.425.518.85,1.02,1.225,1.541a1.081,1.081,0,0,1,.205.719,12.921,12.921,0,0,1-.843,3.78,18.773,18.773,0,0,0-.782,4.115,52.189,52.189,0,0,0-.335,5.342,16.549,16.549,0,0,1-.638,4.085c-.423,1.35-1.227,2.5-1.644,3.859-.867,2.822-.69,5.832-1.36,8.7a.271.271,0,0,1-.248.208c-.189.011-.43-.014-.421-.049a13.4,13.4,0,0,0-2.55-3.494q-1.519-1.765-3.088-3.484a.255.255,0,0,1-.135-.209A.287.287,0,0,1,2815.953,358.561Z" transform="translate(-117.248 -31.246)" fill="#f0a35e"/>
          <path id="Path_88984" data-name="Path 88984" d="M2822.1,625.935a23.859,23.859,0,0,0,1.49,7.228.31.31,0,0,0,.295.224,5.478,5.478,0,0,1,4.727,2.011c.812.982,1.4,2.116,2.176,3.123-.011.1-.019.207-.03.31-.031.286.286.36.476.229.011.012.021.026.033.038.266.291.7-.142.432-.432-.1-.106-.189-.215-.28-.326a108.169,108.169,0,0,0,.305-17,139.649,139.649,0,0,0-1.563-15.1c-.227-1.358-.693-4-2.129-4.675s-2.61,1.77-2.981,2.76c-1.68,4.484-2.093,9.529-2.506,14.262A69.724,69.724,0,0,0,2822.1,625.935Z" transform="translate(-122.099 -244.973)" fill="#f0a35e"/>
          <path id="Path_88985" data-name="Path 88985" d="M2795.853,849.984c1.742.366,3.316.275,4.906,1.1.3.156.631-.3.345-.5a4.582,4.582,0,0,1-1.341-1.488,7.425,7.425,0,0,1,.024-3.657c.324-1.5.656-3,.984-4.5a.274.274,0,0,0-.194-.431l-2.144-.23a.313.313,0,0,0-.363.24c-.221,1.641-.381,3.3-.744,4.913a12.017,12.017,0,0,1-.636,2.186c-.246.558-.276,1.118-.7,1.51C2795.818,849.286,2795.641,849.939,2795.853,849.984Z" transform="translate(-101.321 -433.39)" fill="#ff9775"/>
          <path id="Path_88986" data-name="Path 88986" d="M2728.1,803.7a19.528,19.528,0,0,1,4.006,3.48c.215.263.7-.025.516-.327a4.578,4.578,0,0,1-.645-1.9,7.413,7.413,0,0,1,1.465-3.35c.89-1.252,1.787-2.5,2.68-3.749a.274.274,0,0,0-.009-.472l-1.879-1.057a.313.313,0,0,0-.427.077c-.851,1.42-1.65,2.877-2.623,4.221a12.434,12.434,0,0,1-1.392,1.845,5.114,5.114,0,0,1-1.619,1C2727.944,803.56,2727.92,803.581,2728.1,803.7Z" transform="translate(-47.849 -398.685)" fill="#ff9775"/>
          <path id="Path_88987" data-name="Path 88987" d="M2785.432,644.026a.2.2,0,0,0,.11.176c1.411.692,2.792,1.433,4.2,2.129.515.255,3.618,2.018,4.048,1.642a.538.538,0,0,0,.141-.343c.6-3.912,1.934-7.674,2.663-11.562.616-3.281,2.056-9.809,2.125-13.14.073-3.546.394-13.77.164-17.075-.189-2.717-.388-8.157-.406-8.324a8.319,8.319,0,0,0-2.8-5.837,5.866,5.866,0,0,0-5.516-.986c-3.955,1.522-3.381,6.871-2.938,9.962.733,5.121,2.65,10.093,2.685,15.3a18.81,18.81,0,0,1-1.6,7.429,12.453,12.453,0,0,0-1.231,6.731,20.691,20.691,0,0,1,.39,3.729,15.843,15.843,0,0,1-.7,3.678A23.151,23.151,0,0,0,2785.432,644.026Z" transform="translate(-93.176 -236.243)" fill="#606060"/>
          <path id="Path_88988" data-name="Path 88988" d="M2740.1,629.348a.2.2,0,0,1,.038.087,19.677,19.677,0,0,1-2.213-3.117c-.493-1.122-2.221-3.177-2.829-4.253a1.1,1.1,0,0,1-.1-.847,15.616,15.616,0,0,1,.617-1.609,17.476,17.476,0,0,1,4.593-6.8c2.17-1.837,3.672-11.614,3.087-15.8-.627-4.489-.952-14.648,1.5-16.914l6.379-4.532a.955.955,0,0,0,.26-.244.191.191,0,0,1,.062-.06.209.209,0,0,1,.279.073,2.187,2.187,0,0,1,.336.654.2.2,0,0,1,.01.086,1.481,1.481,0,0,0,.007.568c1.856,6.991,1.078,14.267.562,21.394-.138,1.912-.258,3.827-.3,5.744-.044,1.856.066,3.716-.015,5.57a11.567,11.567,0,0,1-.962,4.473,27.879,27.879,0,0,1-3.093,4.541l-8.125,10.913A.211.211,0,0,1,2740.1,629.348Z" transform="translate(-53.354 -224.287)" fill="#606060"/>
          <path id="Path_88989" data-name="Path 88989" d="M2818.951,647.908c-.93-.5-1.591-1.4-2.51-1.934-1-.578-2.266-.718-3.125-1.532a5.048,5.048,0,0,1-1.034-3.136c1.525-.745,3.137-.176,4.736.03.937.121,1.88.164,2.823.2.068,1.487.148,3.072.226,4.193.044.645.068,1.556.078,2.627A5.243,5.243,0,0,1,2818.951,647.908Z" transform="translate(-114.36 -276.12)" fill="#4f2f2f"/>
          <path id="Path_88990" data-name="Path 88990" d="M2802.561,600.561a.28.28,0,0,0,0-.088,7.32,7.32,0,0,0-1.209-2.394c-.568-.9-.452-1.847-.843-2.793a5.442,5.442,0,0,0-1.3-1.7,3.4,3.4,0,0,1-.906-1.36,4.442,4.442,0,0,1,2.015-1.515,5.867,5.867,0,0,1,5.517.986,8.321,8.321,0,0,1,2.8,5.837c.01.089.072,1.706.157,3.6a29.6,29.6,0,0,1-3.814-.361A9.732,9.732,0,0,0,2802.561,600.561Z" transform="translate(-103.324 -236.243)" fill="#4f2f2f"/>
          <path id="Path_88991" data-name="Path 88991" d="M2812.282,641.3a3.991,3.991,0,0,1,1.986-.368c-.044,1.341-.12,2.682-.21,4.022a3.264,3.264,0,0,1-.742-.518A5.048,5.048,0,0,1,2812.282,641.3Z" transform="translate(-114.36 -276.113)" fill="#4f2f2f"/>
          <path id="Path_88992" data-name="Path 88992" d="M2767.661,483.7c.063,2.728-.073,5.455-.218,8.179-.057,1.036-.241,2.971.6,3.78.74.708,2.542.71,3.513.777.057,0,.112.008.169.008s.141.01.21.01a12.146,12.146,0,0,0,2.022-.078c.072-.006.143-.016.212-.024q.48-.067.936-.171a.4.4,0,0,1,.488.461c-.078.434-.169.869-.265,1.3a14.378,14.378,0,0,0-.559,5.907,7.124,7.124,0,0,0,1.38,1.535c.057.055.115.108.173.161a6.717,6.717,0,0,0,1.976,1.35,4.86,4.86,0,0,0,1.109.222c.067.006.134.01.2.014,1.285.092,2.653-.069,3.7.618a.2.2,0,0,0,.3-.153.153.153,0,0,0,.1-.134,77.974,77.974,0,0,0,.546-16.3c0-.006,0-.008,0-.014-.082-1.619-.347-3.224-.483-4.839-.157-1.882-.11-3.768-.153-5.654a18.03,18.03,0,0,0-.634-5.1,15.6,15.6,0,0,0-2.282-3.988c-1.322-1.9-2.93-5.452-5.72-5.167a.221.221,0,0,1-.051,0,60.059,60.059,0,0,0-7.367-.088c-1.511.114-2.088,1.2-2.135,2.612a26.157,26.157,0,0,0,.973,6.866c.318,1.3.8,2.555.995,3.886A33.964,33.964,0,0,1,2767.661,483.7Z" transform="translate(-77.393 -138.288)" fill="#f0dddd"/>
          <path id="Path_88993" data-name="Path 88993" d="M2842.072,554.7c.022-.346.033-.693.027-1.043,0-.224-.012-.448-.023-.672a35.279,35.279,0,0,1,1.43-10.685c.011,1.342.02,2.683.133,4.021.136,1.616.4,3.22.482,4.84,0,0,0,.008,0,.013a77.906,77.906,0,0,1-.546,16.306.155.155,0,0,1-.1.134.192.192,0,0,1-.3.152,3.875,3.875,0,0,0-1.878-.54A116.863,116.863,0,0,0,2842.072,554.7Z" transform="translate(-137.255 -198.304)" fill="#4f2f2f"/>
          <path id="Path_88994" data-name="Path 88994" d="M2810.622,458.456c.925-.817,2.235-.965,3.358-1.48a.328.328,0,0,1,.444.4,39.466,39.466,0,0,1,5.214,11.782,43.579,43.579,0,0,1,1.051,9.063c.067,3.876.892,6.148,1.369,9.968.844,6.756,1.553,13.531,2.268,20.3q.465,4.413.916,8.827a25.258,25.258,0,0,1,.268,2.672,14.254,14.254,0,0,1-1.219,4.626c-.267.658-2.433,3.035-2.655,1.192-.181-1.5-.371-3-.482-4.492-.406-5.436.849-10.835.248-16.268-.571-5.168-2.218-10.17-2.509-15.376-.152-2.72.1-5.439.07-8.16a30.516,30.516,0,0,0-1.028-7.576,49.258,49.258,0,0,0-7.348-14.973.261.261,0,0,1-.045-.218A.255.255,0,0,1,2810.622,458.456Z" transform="translate(-112.973 -130.961)" fill="#f0a35e"/>
          <path id="Path_88995" data-name="Path 88995" d="M2794.315,413.542a6,6,0,0,0,2.246,3.49c1.289.958,2.92,1.111,4.3,1.877a4.227,4.227,0,0,1,1.933,2.1,22.733,22.733,0,0,0,1.073,2.295,12.079,12.079,0,0,0,2.992,3.532c.845.588,2.162-1.238,2.411-1.9a2.834,2.834,0,0,0-.087-1.788,5.868,5.868,0,0,1-.51-3c.469-2.952-2.087-4.524-3.274-6.908-.72-1.446-.7-2.993-1.2-4.492a6.1,6.1,0,0,0-2.217-2.752c-1.694-1.377-4.183-3.072-5.88-.82a5.722,5.722,0,0,0-1.127,3.358,15.509,15.509,0,0,1,.032,2.693,4.806,4.806,0,0,1-.943,2.031C2793.936,413.431,2794.147,413.6,2794.315,413.542Z" transform="translate(-99.956 -89.254)" fill="#914a4a"/>
          <path id="Path_88996" data-name="Path 88996" d="M2797.332,434.707c-1.441.852-3.159-.159-4.242-1.206a22.308,22.308,0,0,0,.983-9.251.186.186,0,0,1,.008-.073c-.009-.01-.018-.019-.026-.029-.169-.2.118-.489.288-.288a11.7,11.7,0,0,0,2.245,2.043c.8.556,1.393,1.32,2.178,1.873a.22.22,0,0,1-.048.38.2.2,0,0,1-.011.053C2797.813,430.276,2796.945,432.427,2797.332,434.707Z" transform="translate(-99.218 -104.804)" fill="#ff9775"/>
          <path id="Path_88997" data-name="Path 88997" d="M2807.319,432.472a.2.2,0,0,1-.011.053,17.858,17.858,0,0,0-1.353,4.041,3.267,3.267,0,0,1-1.182-.969,4.49,4.49,0,0,1-.573-2.04,37.1,37.1,0,0,1-.207-4.293,11.591,11.591,0,0,0,1.2.956c.8.556,1.393,1.32,2.178,1.873A.219.219,0,0,1,2807.319,432.472Z" transform="translate(-107.819 -109.12)" fill="#cf6c5a"/>
          <path id="Path_88998" data-name="Path 88998" d="M2821.575,487.544a19.439,19.439,0,0,1,.3,4.007c-.045,2.61-.2,5.222-.31,7.83a127.428,127.428,0,0,1-1.136,15.248c.067.006.135.01.2.014a79.111,79.111,0,0,0,.83-8.278c.147-2.693.243-5.391.353-8.087.112-2.667.338-5.361.259-8.032a25.317,25.317,0,0,0-1.644-7.459,70.6,70.6,0,0,0-2.828-6.986c-.055-.118-.23-.014-.175.1a70.066,70.066,0,0,1,3.173,8.032A29.825,29.825,0,0,1,2821.575,487.544Z" transform="translate(-118.408 -145.796)" fill="#fff"/>
          <path id="Path_88999" data-name="Path 88999" d="M2814.772,483.577a19.679,19.679,0,0,1,1.142,7.094c-.077,2.518-.442,5.018-.561,7.534a66.775,66.775,0,0,1-.752,7.761c-.4,2.451-.932,4.877-1.46,7.3.057.055.114.108.173.161.62-2.83,1.238-5.666,1.662-8.537.367-2.5.485-5,.624-7.522.143-2.575.558-5.138.528-7.724a20.469,20.469,0,0,0-1.376-6.739,58.544,58.544,0,0,1-2.243-6.608c-.033-.135-.229-.077-.2.057A73.613,73.613,0,0,0,2814.772,483.577Z" transform="translate(-114.38 -146.169)" fill="#fff"/>
          <path id="Path_89000" data-name="Path 89000" d="M2807.534,493.88a24.866,24.866,0,0,1-.763,5.587c-.581,3.077-.716,6.221-1.311,9.294.071-.006.143-.016.212-.025.3-1.541.481-3.1.661-4.659a54.93,54.93,0,0,1,.851-5.6,17.963,17.963,0,0,0,.5-5.5A69.543,69.543,0,0,0,2805.552,482a.1.1,0,0,0-.2.055c.51,2.043,1.009,4.09,1.415,6.156A36.508,36.508,0,0,1,2807.534,493.88Z" transform="translate(-108.891 -150.668)" fill="#fff"/>
          <path id="Path_89001" data-name="Path 89001" d="M2795.288,505.775c.07.006.141.01.21.01a28.64,28.64,0,0,0,1-4.721c.243-1.817.387-3.648.553-5.473.179-1.992.418-3.988.424-5.991a34.317,34.317,0,0,0-.6-5.591q-.48-2.943-.958-5.883c-.02-.128-.218-.073-.2.055q.535,3.282,1.07,6.566a28.921,28.921,0,0,1,.463,5.766c-.071,1.921-.292,3.84-.465,5.756A45.107,45.107,0,0,1,2795.288,505.775Z" transform="translate(-100.952 -147.615)" fill="#fff"/>
          <path id="Path_89002" data-name="Path 89002" d="M2787.837,407.867c.771,1.395,1.658,2.726,2.506,4.075a7.176,7.176,0,0,0,2.856,2.258,2.58,2.58,0,0,0,2.025.234c1.1-.4,1.666-2.5,1.782-3.738.281-2.991.7-6.436-3.269-7.969-2.019-.78-6.093-.626-6.63,1.947A4.726,4.726,0,0,0,2787.837,407.867Z" transform="translate(-94.447 -87.858)" fill="#ff9775"/>
          <path id="Path_89003" data-name="Path 89003" d="M2786.4,463.409a.257.257,0,0,0,.038.272,8.168,8.168,0,0,0,2.96,3.157,2.944,2.944,0,0,0,.967.359c.059.009.356.061.381-.038.123-.476.334-.957.415-1.442a.029.029,0,0,1,.045-.019,4.421,4.421,0,0,1,1.225,1.541c.062.112.712.064.572-2a5.981,5.981,0,0,0-.712-2.266c-.043-.086-.1-.09-.252.049-.109-.009.277,1.988-1.011,2.119a1.936,1.936,0,0,1-1.094-.507,5.736,5.736,0,0,1-1.482-1.671c-.182-.3-.256-.57-.663-.462a3.493,3.493,0,0,0-.734.358c-.261.141-.532.256-.647.531Z" transform="translate(-93.923 -135.323)" fill="#4f2f2f"/>
          <path id="Path_89004" data-name="Path 89004" d="M2752.125,767.549c2.746-1.378,5.541-2.8,7.654-5.091.089-.1.233.048.144.144-2.125,2.3-4.934,3.736-7.7,5.123C2752.111,767.784,2752.008,767.608,2752.125,767.549Z" transform="translate(-66.858 -371.973)" fill="#4f2f2f"/>
          <path id="Path_89005" data-name="Path 89005" d="M2813.337,492.4c-.046-.123.151-.176.2-.054a35.841,35.841,0,0,1,1.758,5.6,21.131,21.131,0,0,1,.245,5.7,93.535,93.535,0,0,1-1.83,11.816c-.027.128-.224.074-.2-.054a93.146,93.146,0,0,0,1.823-11.762,20.789,20.789,0,0,0-.275-5.834A37.076,37.076,0,0,0,2813.337,492.4Z" transform="translate(-115.186 -158.838)" fill="#4f2f2f"/>
          <path id="Path_89006" data-name="Path 89006" d="M2704.735,520.907c3.454-16.176,7.79-20.884,8.964-26.517,1.143-5.48.6-8.458.4-14.062-.157-4.413-.7-16.814,1.844-17.794.39-.07.79-.1,1.168-.149,1.111-.138,4.3.369,5.352.259a.442.442,0,0,1,.459.275c4.418,11.163.516,34.543-.432,38.733-.5,2.221-6.479,21.924-7.613,26.745a39.256,39.256,0,0,0-4.572-.821,10.363,10.363,0,0,1-3.911-1.238c-1.306-.724-1.66-1.045-1.657-2.516A14.135,14.135,0,0,1,2704.735,520.907Z" transform="translate(-29.439 -135.233)" fill="#f0a35e"/>
          <path id="Path_89007" data-name="Path 89007" d="M2699.617,328.551l-.038.077c-.056.109.109.2.165.1a12.345,12.345,0,0,0,1.086-3.06.076.076,0,0,0,.052-.107q-.935-2.23-2.028-4.389a.093.093,0,0,0-.172.027c-.57.238-1.471.524-1.518,1.145Z" transform="translate(-23.537 -23.799)" fill="#ff9775"/>
          <path id="Path_89008" data-name="Path 89008" d="M2794.5,689.6q1.343-2.115,2.686-4.23a10.611,10.611,0,0,0,1.836-4.544c.183-1.656.148-3.35.2-5.014q.079-2.587.159-5.174.093-2.993.185-5.986c0-.131.208-.132.2,0q-.166,5.377-.332,10.754c-.054,1.74-.034,3.5-.194,5.235a9.6,9.6,0,0,1-1.462,4.156c-1,1.656-2.069,3.273-3.106,4.906C2794.6,689.818,2794.426,689.716,2794.5,689.6Z" transform="translate(-100.314 -294.76)" fill="#4f2f2f"/>
          <path id="Path_89009" data-name="Path 89009" d="M2698.3,334.365a8.349,8.349,0,0,1,1.109-2.241.335.335,0,0,1,.564,0,18.245,18.245,0,0,1,1.467,2.805c.79,1.9,10.454,24.129,13.821,24.852,2.638.566-.716,1.867-.7,4.719a.28.28,0,0,1,.1.4,74.7,74.7,0,0,1-4.809,7.182c-1.257,1.588-2.311,1.077-2.322.974-.239-2.141-1.312-5.233-1.457-6.645a15.868,15.868,0,0,0-1.164-4.871c-.854-1.954-1.918-3.812-2.7-5.79a26.773,26.773,0,0,1-1.9-6.346,15.915,15.915,0,0,0-1.755-6.4,23.185,23.185,0,0,1-2.048-5.389.338.338,0,0,1,.08-.329A6.176,6.176,0,0,0,2698.3,334.365Z" transform="translate(-23.002 -32.359)" fill="#f0a35e"/>
          <path id="Path_89010" data-name="Path 89010" d="M2824.51,600.443a48.478,48.478,0,0,0,.749,7.2c.023.128-.174.183-.2.054a48.871,48.871,0,0,1-.756-7.256A.1.1,0,0,1,2824.51,600.443Z" transform="translate(-123.846 -244.097)" fill="#4f2f2f"/>
          <path id="Path_89011" data-name="Path 89011" d="M2830.011,606.825c.173.6.549,1.954,1.306,2.047.129.016.131.22,0,.2-.913-.111-1.289-1.456-1.5-2.2A.1.1,0,0,1,2830.011,606.825Z" transform="translate(-128.189 -249.153)" fill="#4f2f2f"/>
          <path id="Path_89012" data-name="Path 89012" d="M2745.33,454.279c1.344,2.246,1.545,4.893,1.709,7.446.008.131-.2.131-.2,0-.161-2.517-.355-5.127-1.681-7.343A.1.1,0,0,1,2745.33,454.279Z" transform="translate(-61.386 -128.819)" fill="#4f2f2f"/>
          <path id="Path_89013" data-name="Path 89013" d="M2747.837,603.193a17.875,17.875,0,0,0,1.621-4.252c.031-.128.227-.074.2.054a18.084,18.084,0,0,1-1.642,4.3C2747.951,603.412,2747.775,603.309,2747.837,603.193Z" transform="translate(-63.505 -242.933)" fill="#4f2f2f"/>
          <path id="Path_89014" data-name="Path 89014" d="M2739.033,647.35a2.321,2.321,0,0,0,1.1,1.393.862.862,0,0,0,1.065-.278,7.043,7.043,0,0,0,1.661-1.469,6.145,6.145,0,0,0,.9-2.147,57.539,57.539,0,0,0,1.271-5.869.111.111,0,0,0-.129-.125.089.089,0,0,0-.114-.01l-5.3,3.273a.1.1,0,0,0-.047.066.081.081,0,0,0-.042.064c-.144.948-.29,1.895-.431,2.843A4.57,4.57,0,0,0,2739.033,647.35Zm.029-1.458c.09-1.2.346-2.4.526-3.59,0,0,0-.008,0-.012l5.215-3.22c-.289,1.736-.65,3.459-1.1,5.162a7.937,7.937,0,0,1-.915,2.509,6.1,6.1,0,0,1-1.6,1.482.086.086,0,0,0-.107.046c-.01.019-.021.033-.032.051l-.148.1a.1.1,0,0,0-.039.118c-.5.368-1.235-.419-1.467-.874A3.3,3.3,0,0,1,2739.062,645.892Z" transform="translate(-56.428 -274.46)" fill="#4f2f2f"/>
          <path id="Path_89015" data-name="Path 89015" d="M2864.786,641.876a5.188,5.188,0,0,1,.9,1.675c.041.125-.156.179-.2.054a4.9,4.9,0,0,0-.85-1.584C2864.561,641.919,2864.7,641.774,2864.786,641.876Z" transform="translate(-155.65 -276.837)" fill="#4f2f2f"/>
          <path id="Path_89016" data-name="Path 89016" d="M2855.6,650.067q.352,2.925.9,5.821c.358,1.877.859,3.726,1.2,5.606a29.324,29.324,0,0,1,.284,5.545q-.032,2.931-.064,5.861a.1.1,0,0,1-.2,0q.033-2.93.065-5.861a28.478,28.478,0,0,0-.351-5.88c-.371-1.875-.848-3.725-1.2-5.6q-.506-2.729-.833-5.487C2855.383,649.937,2855.587,649.939,2855.6,650.067Z" transform="translate(-148.377 -283.25)" fill="#4f2f2f"/>
          <path id="Path_89017" data-name="Path 89017" d="M2683.388,306.273c1.032,1.241,2.42,1.838,3.024,3.012.033.064.22-.005.254-.05a.092.092,0,0,0,.047-.027,5.85,5.85,0,0,1,1.461-1.135s-.386-1.429-.477-1.9a2.545,2.545,0,0,0-.412-1.187,7.033,7.033,0,0,0-2.4-1.544.1.1,0,0,0-.116.017.085.085,0,0,0-.087.008c-.371.246-.115.507-.47.775a7.849,7.849,0,0,0-1.032.969C2682.948,305.535,2683.181,306.024,2683.388,306.273Z" transform="translate(-12.427 -9.842)" fill="#ff9775"/>
          <path id="Path_89018" data-name="Path 89018" d="M2694.8,296.32a7.433,7.433,0,0,0,.729,1.751,1.912,1.912,0,0,0,.1,1.114,2.456,2.456,0,0,0,1.243.54,7.427,7.427,0,0,0-.925-2.582c-.221-.484-.425-.976-.616-1.473-.051-.132-.1-.39-.29-.41C2694.548,295.208,2694.747,296.1,2694.8,296.32Z" transform="translate(-21.605 -3.396)" fill="#ff9775"/>
          <path id="Path_89019" data-name="Path 89019" d="M2667.382,293.68c.739.439,1.447.782,2.173,1.242.082.052,1.475,1.045,1.555,1.1a18.837,18.837,0,0,1-1.962-1.071c-.469-.206-1.113-.586-1.545-.185-.219.2.467.493.581.544.281.127.611.214.888.348.523.255,1,.549,1.529.784.229.306-1.441-.531-1.665-.578-.3-.063-.974-.175-1.029.2a8.442,8.442,0,0,0,1.266.62,30.7,30.7,0,0,1,2.617,1.875,20.013,20.013,0,0,0,1.27-3.07,18.738,18.738,0,0,0-1.918-1.719c-.493-.367-1.306-1.046-1.967-.847-.076.023-.083.175-.073.238a.36.36,0,0,0,.114.2,3.185,3.185,0,0,0,.385.259c.2.145.413.282.606.439.355.288.681.609,1.009.927.1.093.581.5.71.644a27.912,27.912,0,0,1-2.542-1.671c-.5-.291-1.489-1-2.022-.432A.1.1,0,0,0,2667.382,293.68Z" transform="translate(0 -1.522)" fill="#ff9775"/>
          <path id="Path_89020" data-name="Path 89020" d="M2865.542,314.082a3.994,3.994,0,0,1,2.255-2.348.1.1,0,0,1,.1.176,3.806,3.806,0,0,0-2.161,2.226C2865.709,314.264,2865.512,314.21,2865.542,314.082Z" transform="translate(-156.377 -16.384)" fill="#cf6c5a"/>
          <path id="Path_89021" data-name="Path 89021" d="M2686.329,311.719a16.48,16.48,0,0,1,1.668.875,1.088,1.088,0,0,1,.553.923.1.1,0,0,1-.2,0c0-.571-.543-.812-.979-1.036l-1.14-.586C2686.109,311.835,2686.212,311.659,2686.329,311.719Z" transform="translate(-14.866 -16.373)" fill="#cf6c5a"/>
          <path id="Path_89022" data-name="Path 89022" d="M2824.694,428.784a1.644,1.644,0,0,0,.557-1.557c-.114-.46-.3-.911-.448-1.361-.042-.125.155-.178.2-.054a5.167,5.167,0,0,1,.509,1.907,2.263,2.263,0,0,1-.67,1.209C2824.752,429.028,2824.609,428.883,2824.694,428.784Z" transform="translate(-124.132 -106.342)" fill="#cf6c5a"/>
          <path id="Path_89023" data-name="Path 89023" d="M2819.6,437.311a2.238,2.238,0,0,1,.809-.28c.128-.018.184.178.054.2a2.085,2.085,0,0,0-.76.26A.1.1,0,0,1,2819.6,437.311Z" transform="translate(-120.098 -115.248)" fill="#cf6c5a"/>
          <path id="Path_89024" data-name="Path 89024" d="M2809.3,428.688a1.2,1.2,0,0,1,1.629.136c.177.175-.216.137-.247.132a4.734,4.734,0,0,0-1.34-.077C2809.258,428.89,2809.236,428.737,2809.3,428.688Z" transform="translate(-111.978 -108.464)" fill="#543333"/>
          <path id="Path_89025" data-name="Path 89025" d="M2828.7,428.692a.849.849,0,0,1,.542-.423c.2-.04.813.185.57.395-.094.081-.332-.019-.447-.015a.907.907,0,0,0-.5.188A.111.111,0,0,1,2828.7,428.692Z" transform="translate(-127.298 -108.333)" fill="#543333"/>
          <path id="Path_89026" data-name="Path 89026" d="M2817.315,444.537c.34.643,1.706,1.168,2.186.4.006-.01.078-.078.062-.128-.079-.245-.366-.164-.58-.164a5.8,5.8,0,0,1-1.568-.234A.088.088,0,0,0,2817.315,444.537Z" transform="translate(-118.322 -121.068)" fill="#fff"/>
          <path id="Path_89027" data-name="Path 89027" d="M2821.488,451.338a1.345,1.345,0,0,0,.508.046c.13-.012.129.192,0,.2a1.5,1.5,0,0,1-.562-.054A.1.1,0,0,1,2821.488,451.338Z" transform="translate(-121.523 -126.533)" fill="#cf6c5a"/>
          <path id="Path_89028" data-name="Path 89028" d="M2806.055,421.441a3.884,3.884,0,0,1,.934-.031,2.919,2.919,0,0,0,.747.014c.226-.035.494-.217.378-.48a.563.563,0,0,0-.306-.267,2.045,2.045,0,0,0-.84-.209,1.225,1.225,0,0,0-1.164.723C2805.747,421.353,2805.915,421.463,2806.055,421.441Z" transform="translate(-109.24 -102.181)" fill="#914a4a"/>
          <path id="Path_89029" data-name="Path 89029" d="M2826.662,421.738a1.462,1.462,0,0,0,.731.122c.225,0,.518.124.681-.084.2-.248-.4-.664-.58-.766a.673.673,0,0,0-.911.093A.414.414,0,0,0,2826.662,421.738Z" transform="translate(-125.555 -102.505)" fill="#914a4a"/>
          <path id="Path_89030" data-name="Path 89030" d="M2783.331,402.681c.75-1.888,2.893-3.954,5.023-3.081a.218.218,0,0,1,.286-.012,1.886,1.886,0,0,1,.669,1.962,9.826,9.826,0,0,1-1.256,2.71,3.857,3.857,0,0,0-.106,2.128A4.906,4.906,0,0,1,2787.8,408c-.148.537-1.028,6.53-2.7,4.729-1.043-.106-1.443-5.41-1.887-6.691A4.808,4.808,0,0,1,2783.331,402.681Z" transform="translate(-91.228 -85.554)" fill="#914a4a"/>
          <path id="Path_89031" data-name="Path 89031" d="M2803.446,398.271c-.2.531.481.363.515.426.208.39.4.786.594,1.185-.1.064.614,1.49.7,1.363.25-.39.645-.249,1.451.005a7.453,7.453,0,0,1,3.095,1.653,3.539,3.539,0,0,1,.7,1,8.131,8.131,0,0,0,.92,4.55c.477.882,1.275,1.612,1.276,2.679a20.823,20.823,0,0,0-.088,2.46c.107.934.519,3.056,1.467,3.556.463.245.736.11.9-.185a.171.171,0,0,0,.125-.136c.539-2.444,1.465-5.344-.088-7.625a30.589,30.589,0,0,1-1.875-2.729c-.619-1.094-.952-2.352-1.5-3.49a8.555,8.555,0,0,0-2.3-3.081A8.9,8.9,0,0,0,2803.446,398.271Z" transform="translate(-107.359 -84.628)" fill="#914a4a"/>
          <path id="Path_89032" data-name="Path 89032" d="M2835,422.212a15.917,15.917,0,0,1,.622,2.158,2.087,2.087,0,0,0,.9,1.183,3.411,3.411,0,0,1,.9.652c.475.588.283,1.384.332,2.077a3.748,3.748,0,0,0,1.389,2.616c.1.083-.044.227-.144.144a3.979,3.979,0,0,1-1.309-1.965,4.093,4.093,0,0,1-.148-1.184,2.174,2.174,0,0,0-.359-1.65,8.938,8.938,0,0,0-1.023-.693,2.046,2.046,0,0,1-.6-.79c-.351-.782-.351-1.67-.729-2.445C2834.762,422.2,2834.938,422.094,2835,422.212Z" transform="translate(-132.132 -103.517)" fill="#4f2f2f"/>
          <path id="Path_89033" data-name="Path 89033" d="M2843.716,450.855a.1.1,0,0,1,.2,0,6.927,6.927,0,0,0,.222,2.878,13.072,13.072,0,0,0,1.364,1.793,8.694,8.694,0,0,1,1.164,4.535c.009.131-.195.13-.2,0a7.979,7.979,0,0,0-1.6-5,4.347,4.347,0,0,1-1.068-1.664A10.431,10.431,0,0,1,2843.716,450.855Z" transform="translate(-139.132 -126.078)" fill="#4f2f2f"/>
          <path id="Path_89034" data-name="Path 89034" d="M2794.3,411.649a4.8,4.8,0,0,1,.176-1.112,4.563,4.563,0,0,1,1.462-1.623c.1-.084.245.059.144.144a4.006,4.006,0,0,0-1.459,1.7,15.5,15.5,0,0,0-.276,2.307c-.014.129-.218.13-.2,0Z" transform="translate(-100.053 -93.046)" fill="#4f2f2f"/>
          <path id="Path_89035" data-name="Path 89035" d="M2788.776,416.6c.03-.128.227-.073.2.054a3.868,3.868,0,0,0,.227,2.034.1.1,0,0,1-.2.054A4.051,4.051,0,0,1,2788.776,416.6Z" transform="translate(-95.76 -99.074)" fill="#4f2f2f"/>
          <path id="Path_89036" data-name="Path 89036" d="M2791.279,441.75c.2-.639-.049-1.268.1-1.906.029-.128.226-.074.2.054-.133.585.093,1.169-.054,1.757a9.16,9.16,0,0,0-.5,1.686c-.007.131-.211.131-.2,0A6.707,6.707,0,0,1,2791.279,441.75Z" transform="translate(-97.422 -117.411)" fill="#4f2f2f"/>
          <path id="Path_89037" data-name="Path 89037" d="M2787.993,447.539a3.139,3.139,0,0,1,.5-.828c.084-.1.229.044.144.144a2.811,2.811,0,0,0-.448.738C2788.14,447.713,2787.943,447.661,2787.993,447.539Z" transform="translate(-95.19 -122.86)" fill="#4f2f2f"/>
          <path id="Path_89038" data-name="Path 89038" d="M2789.444,428.476a.732.732,0,0,1,.41-.028.273.273,0,0,1,.165.106,3.385,3.385,0,0,1,.573,1.766,5.809,5.809,0,0,0,.126.7.259.259,0,0,1-.014.166,1.928,1.928,0,0,1-.209.365.261.261,0,0,1-.36.062,3.286,3.286,0,0,1-.821-1.222C2789.091,429.887,2788.671,428.754,2789.444,428.476Z" transform="translate(-95.99 -108.464)" fill="#ff9775"/>
          <path id="Path_89039" data-name="Path 89039" d="M2790.971,430.837a3.351,3.351,0,0,1,.731,1.493c.046.123-.151.176-.2.054-.166-.438-.295-1.1-.679-1.4C2790.724,430.9,2790.869,430.757,2790.971,430.837Z" transform="translate(-97.405 -110.344)" fill="#cf6c5a"/>
          <path id="Path_89040" data-name="Path 89040" d="M2791.47,434.522c.084-.1.227.044.144.144a.1.1,0,0,0-.021.081c.006.131-.2.131-.2,0A.315.315,0,0,1,2791.47,434.522Z" transform="translate(-97.876 -113.243)" fill="#cf6c5a"/>
          <path id="Path_89041" data-name="Path 89041" d="M2790.349,881.908a.073.073,0,0,0,.044.065.093.093,0,0,0,.075.08,11.841,11.841,0,0,0,3.128.448c.011-.067.036-.2.067-.367a.075.075,0,0,1,.1-.056,7.793,7.793,0,0,1,2.094.883.075.075,0,0,0,.021.009c1.534.414,3.772.593,5.578.868a.086.086,0,0,0,.1-.109.052.052,0,0,0,.01-.013.9.9,0,0,0,.083-.51c-.019-.091-.1-.134-.2-.159a.072.072,0,0,1-.048-.04c-.266-.6-1.323-1.131-1.926-1.443a8.908,8.908,0,0,1-1.378-.727,18.554,18.554,0,0,1-1.441-1.262c-.187-.179-.814-.9-.949-.859a3.551,3.551,0,0,0-.943.4,2.57,2.57,0,0,0-.26.19.072.072,0,0,1-.086,0,10.94,10.94,0,0,0-2.266-1.177.1.1,0,0,0-.115.027.1.1,0,0,0-.033.011c-.728.424-1.052,1.815-1.347,2.538-.009.022-.02.012-.043.018C2790.38,880.788,2790.347,881.873,2790.349,881.908Z" transform="translate(-97.055 -463.257)" fill="#914a4a"/>
          <path id="Path_89042" data-name="Path 89042" d="M2792.937,890.818a9,9,0,0,0,2.52.573,10.691,10.691,0,0,1,2.112.565,19.461,19.461,0,0,0,5.015,1.127c.124.011.1.2-.028.191a19.174,19.174,0,0,1-4.9-1.083,11.961,11.961,0,0,0-2.485-.647,7.976,7.976,0,0,1-2.308-.551A.1.1,0,0,1,2792.937,890.818Z" transform="translate(-98.992 -473.262)" fill="#4f2f2f"/>
          <path id="Path_89043" data-name="Path 89043" d="M2810.874,882.426c.28.027.576.035.853.083a1.074,1.074,0,0,1,.6.327,1.639,1.639,0,0,0-.3.4c-.059.11.119.186.178.078a1.363,1.363,0,0,1,.263-.338l.063.064a9.161,9.161,0,0,0,.951.816,1.011,1.011,0,0,0-.113.354.1.1,0,0,0,.192.028.828.828,0,0,1,.082-.263c.107.077.215.153.324.226s.224-.082.121-.151-.227-.159-.335-.242c.017-.02.036-.039.055-.058a.2.2,0,0,0,.143-.042.1.1,0,0,0,.031-.114c0-.005-.005-.011-.008-.016a.1.1,0,0,0-.041-.083,3.085,3.085,0,0,0-.575-.622c-.113-.105-.231-.2-.353-.3a.11.11,0,0,0-.022-.054c.581.126,1.325.2,1.311-.308-.021-.728-1.568-.179-1.893-.053a.081.081,0,0,0-.012.008c-.118-.033-.138.134-.055.184.12.071.236.147.349.226-.027.015-.052.032-.079.048-.215-.212-.425-.428-.637-.627-.091-.086-.211.067-.121.151.11.1.218.208.327.314a3.194,3.194,0,0,0-1.267-.229C2810.778,882.222,2810.75,882.414,2810.874,882.426Zm2.156-.105c-.109-.019-.216-.042-.323-.068a4.142,4.142,0,0,1,.448-.133,2.744,2.744,0,0,1,.327-.058q.519-.152.211.336C2813.593,882.465,2813.148,882.341,2813.03,882.32Zm.459,1.058a5.321,5.321,0,0,1-.745-.613c.037-.021.074-.04.113-.058a4.806,4.806,0,0,1,.374.314,2.32,2.32,0,0,1,.381.4C2813.68,883.525,2813.885,883.637,2813.49,883.378Z" transform="translate(-113.186 -466.188)" fill="#4f2f2f"/>
          <path id="Path_89044" data-name="Path 89044" d="M2717.363,829.158a.073.073,0,0,0,0,.078.093.093,0,0,0,.021.107,11.826,11.826,0,0,0,2.405,2.049c.044-.05.136-.147.253-.275a.075.075,0,0,1,.113.006,7.8,7.8,0,0,1,1.3,1.865.064.064,0,0,0,.013.019c1.076,1.17,2.872,2.516,4.252,3.713a.086.086,0,0,0,.146-.037.059.059,0,0,0,.015-.006.9.9,0,0,0,.343-.388.238.238,0,0,0-.085-.242.071.071,0,0,1-.019-.059,4.511,4.511,0,0,0-.858-2.249,8.919,8.919,0,0,1-.776-1.351,18.593,18.593,0,0,1-.544-1.836c-.063-.251-.21-1.193-.344-1.233a3.564,3.564,0,0,0-1.013-.162,2.6,2.6,0,0,0-.321.022.071.071,0,0,1-.075-.042,10.944,10.944,0,0,0-1.287-2.206.1.1,0,0,0-.112-.038.1.1,0,0,0-.034-.008c-.842-.03-1.859.972-2.494,1.426-.02.014-.023,0-.046-.008C2717.988,828.228,2717.381,829.127,2717.363,829.158Z" transform="translate(-39.464 -422.829)" fill="#914a4a"/>
          <path id="Path_89045" data-name="Path 89045" d="M2722.122,834.757a9,9,0,0,0,1.824,1.831,10.691,10.691,0,0,1,1.484,1.606,19.468,19.468,0,0,0,3.637,3.631c.1.075-.027.222-.126.147a19.178,19.178,0,0,1-3.567-3.534,11.947,11.947,0,0,0-1.756-1.874,7.967,7.967,0,0,1-1.657-1.7C2721.894,834.761,2722.053,834.652,2722.122,834.757Z" transform="translate(-43.087 -429.006)" fill="#4f2f2f"/>
          <path id="Path_89046" data-name="Path 89046" d="M2740.984,838.478c.223.173.468.337.677.526a1.074,1.074,0,0,1,.329.594,1.643,1.643,0,0,0-.468.175c-.109.061,0,.221.109.161a1.366,1.366,0,0,1,.4-.145l.02.088a9.157,9.157,0,0,0,.368,1.2,1.023,1.023,0,0,0-.284.239c-.079.1.068.222.147.126a.823.823,0,0,1,.21-.178c.049.122.1.244.153.364s.233.05.183-.063-.107-.255-.154-.383c.025-.008.051-.013.077-.019a.2.2,0,0,0,.144.04.1.1,0,0,0,.087-.079c0-.006,0-.012,0-.017a.1.1,0,0,0,.01-.091,3.067,3.067,0,0,0-.154-.833c-.039-.149-.087-.294-.14-.438a.108.108,0,0,0,.01-.057c.424.417,1.015.874,1.273.439.371-.627-1.23-.989-1.572-1.056a.091.091,0,0,0-.014,0c-.082-.091-.189.04-.145.126.063.124.12.25.174.378-.031,0-.061,0-.092,0-.068-.294-.131-.589-.2-.871-.031-.121-.214-.056-.183.064.038.146.073.293.109.44a3.193,3.193,0,0,0-.948-.87C2741.012,838.255,2740.886,838.4,2740.984,838.478Zm1.879,1.063c-.082-.074-.16-.151-.237-.23a4.152,4.152,0,0,1,.449.127,2.754,2.754,0,0,1,.308.126q.52.149,0,.4C2743.261,839.964,2742.952,839.621,2742.863,839.541Zm-.177,1.14a5.334,5.334,0,0,1-.3-.916c.042,0,.084.006.127.012.056.152.107.307.149.465a2.3,2.3,0,0,1,.108.541C2742.769,840.906,2742.883,841.111,2742.687,840.681Z" transform="translate(-58.08 -431.843)" fill="#4f2f2f"/>
        </g>
        <g id="Group_12414" data-name="Group 12414" transform="translate(-2475.32 90.845)">
          <path id="Path_89047" data-name="Path 89047" d="M3493.368,841.673a13.489,13.489,0,0,0,1.909-1.117.284.284,0,0,1,.413.084.261.261,0,0,1,.253.266q.084,2.754.44,5.492c.13,1,.25,2.007.471,2.993.087.386,1.024,2.55.327,2.461a8.081,8.081,0,0,0-3.729.4c-.227.079-.526-.184-.375-.418a5.838,5.838,0,0,0,.961-3.247.328.328,0,0,1,.019-.11c-.066-2.112-.618-4.332-.855-6.3a.792.792,0,0,1,.168-.5Z" transform="translate(-62.076 -399.96)" fill="#ffaa8f"/>
          <path id="Path_89048" data-name="Path 89048" d="M3467.852,893.5c1.163-.64,1.208-.578,2.4-1.236.3-.164,2.121-1.234,2.723-1.451a.234.234,0,0,1,.247.057c.314.321.524.735,1.005.627a5.717,5.717,0,0,0,1.093-.457l1.509-.706a.233.233,0,0,1,.318.123c.433,1.052.8,2.781-.9,2.812a16.46,16.46,0,0,0-2.784.3c-1.1.209-2.2.4-3.3.544q-.616.079-1.235.134a1.262,1.262,0,0,1-1.01-.143C3467.718,893.937,3467.544,893.671,3467.852,893.5Z" transform="translate(-41.827 -439.75)" fill="#4f2f2f"/>
          <path id="Path_89049" data-name="Path 89049" d="M3570.548,798.32a13.459,13.459,0,0,0,.369-2.181.283.283,0,0,1,.329-.263.262.262,0,0,1,.367-.023q2.166,1.7,4.494,3.187c.852.543,1.7,1.1,2.6,1.56.352.181,2.613.851,2.1,1.329a8.079,8.079,0,0,0-2.089,3.115c-.084.224-.479.285-.561.02a5.838,5.838,0,0,0-1.874-2.82.315.315,0,0,1-.073-.086c-1.662-1.3-3.72-2.306-5.381-3.389a.3.3,0,0,1-.073-.067A.321.321,0,0,1,3570.548,798.32Z" transform="translate(-123.981 -364.246)" fill="#ffaa8f"/>
          <path id="Path_89050" data-name="Path 89050" d="M3600.222,831.053a9.231,9.231,0,0,0,2.167-2.526q.477-.9.945-1.808c.5-.959,1.02-1.915,1.451-2.906.679-1.559-.433-1.819-1.5-2.158a.305.305,0,0,0-.355.276c0,.045-.007.089-.01.134a6.212,6.212,0,0,1-.608,2.029.57.57,0,0,1-.2.243c-.483.292-1.325-.384-1.713.235a.366.366,0,0,0-.041.132,10.821,10.821,0,0,0-.1,1.84,12.376,12.376,0,0,1-.322,2.222c-.122.645-.16,1.325-.288,1.974C3599.571,831.111,3599.961,831.129,3600.222,831.053Z" transform="translate(-147.223 -384.901)" fill="#4f2f2f"/>
          <path id="Path_89051" data-name="Path 89051" d="M3494.291,618.095c-1.805-2.162-4.063-4.546-4.48-7.448a9.439,9.439,0,0,1,.756-4.383c.553-1.668,2.7-6.582,3.2-8.268,3.321-11.274-1.769-14.244-4.049-19.4a.323.323,0,0,0-.154-.318.23.23,0,0,0-.224-.082,3.378,3.378,0,0,0-2,.155c-.989.288-1.973.592-2.956.9q-3.042.949-6.054,1.991c-.289.1.791.242,1,.338.148,1.836,1.425,3.561,1.376,5.41a2.671,2.671,0,0,1-.151.678c-.695,2.34-2.316,4.571-3.542,6.652a63.6,63.6,0,0,0-3.722,7.371,56.452,56.452,0,0,0-2.084,7.613,28.46,28.46,0,0,0-.5,4.885,47.391,47.391,0,0,0,.35,4.888c.473,5.075.708,10.256,1.955,15.21a.593.593,0,0,0,.569.445,11.7,11.7,0,0,0,4.892-.891c2.5-1.079,4.377-3.376,7.042-4.092,2.847-.765,5.917-.331,8.687-1.448a8.452,8.452,0,0,0,4.308-4.014.882.882,0,0,0-.05-.912C3497.19,621.529,3495.728,619.815,3494.291,618.095Z" transform="translate(-44.243 -190.366)" fill="#f0dddd"/>
          <path id="Path_89052" data-name="Path 89052" d="M3536.765,580.669c.63,1.2,1.195,2.429,1.723,3.679s1.038,2.508,1.618,3.735a12.356,12.356,0,0,0,.96,1.707,7.339,7.339,0,0,1,.746,1.275.1.1,0,0,1,.062-.009c.883.156,1.426,4.785,1.786,3.911.7-1.7.921-1.383,1.36-.874a2.273,2.273,0,0,0,1.3.874c.579-7.539-2.528-12.225-4.361-16.371a.323.323,0,0,0-.153-.318.23.23,0,0,0-.224-.082,3.377,3.377,0,0,0-2,.155c-.989.288-1.973.592-2.957.9l-.517.164C3536.325,579.834,3536.546,580.251,3536.765,580.669Z" transform="translate(-96.48 -190.366)" fill="#4f2f2f"/>
          <path id="Path_89053" data-name="Path 89053" d="M3493.506,594.32c-.718,1.218-1.451,2.427-2.152,3.652.7-.049,1.406-.147,2.122-.242a5.854,5.854,0,0,1,3.088.12,31.966,31.966,0,0,0,3.723,1.653,14.65,14.65,0,0,0,4.277.407,2.6,2.6,0,0,0,2.6-2.068c.356-1.013.506-2.089.813-3.118a64.009,64.009,0,0,0,1.9-6.256,60.927,60.927,0,0,0-3.671-9.871.323.323,0,0,0-.154-.318.23.23,0,0,0-.224-.082,3.378,3.378,0,0,0-2,.155c-.989.288-1.973.592-2.956.9q-3.042.949-6.054,1.991c-.289.1.791.242,1,.338.148,1.836,1.425,3.561,1.375,5.41a2.65,2.65,0,0,1-.151.678C3496.354,590.008,3494.732,592.239,3493.506,594.32Z" transform="translate(-60.733 -190.366)" fill="#4f2f2f"/>
          <path id="Path_89054" data-name="Path 89054" d="M3516.521,618.94c-.041.653-.42.9-.979,1.1a9.144,9.144,0,0,1-2.2.433c-.943.088-1.892.067-2.837.1-1.051.037-2.066.241-3.109.324-1.57.125-3.031-.472-4.553-.736.922-1.565,1.8-3.082,2.45-4.331a10.316,10.316,0,0,0,2.543-1.385,20.91,20.91,0,0,1,3.967-2.812c1.141-.517,3.048-1.341,4.177-.423a.133.133,0,0,0,.022.012,51.254,51.254,0,0,1,.434,6.6C3516.449,618.193,3516.544,618.57,3516.521,618.94Z" transform="translate(-69.914 -216.483)" fill="#4f2f2f"/>
          <path id="Path_89055" data-name="Path 89055" d="M3479.313,473.164a.279.279,0,0,0,.035.087l2.011,3.231a4.672,4.672,0,0,1,1.024,3.524.225.225,0,0,0,.1.242.3.3,0,0,0,.268.118c.868-.08,1.778.518,2.552.144.537-.26,2.491-1.517,2.182-1.71l-.02-.014a.315.315,0,0,0-.336-.351c-.049,0-3.26-4.729-3.586-7.568a.226.226,0,0,0-.106-.323c-1.529-.771-3.42,1.135-4.292,2.207A.254.254,0,0,0,3479.313,473.164Z" transform="translate(-50.933 -104.311)" fill="#ffaa8f"/>
          <path id="Path_89056" data-name="Path 89056" d="M3479.147,472.921a6.572,6.572,0,0,1,3.128-2.344c.8.549.778,2.014.7,2.891a4.2,4.2,0,0,1-1.564,3.268l-.053-.085-2.01-3.232a.278.278,0,0,1-.035-.087A.254.254,0,0,1,3479.147,472.921Z" transform="translate(-50.933 -104.48)" fill="#cf6c5a"/>
          <path id="Path_89057" data-name="Path 89057" d="M3464.992,441.762a12.452,12.452,0,0,0,.089,3.861,5.5,5.5,0,0,0,1.33,3.3c.738.711,3.216.731,4.392-.577.32-.356.659-.695.986-1.044a7.321,7.321,0,0,0,1.571-2.235,6.345,6.345,0,0,0,.184-4.373,4.957,4.957,0,0,0-3.823-3.211,3.434,3.434,0,0,0-2.93.892A6.378,6.378,0,0,0,3464.992,441.762Z" transform="translate(-39.576 -78.011)" fill="#ffaa8f"/>
          <path id="Path_89058" data-name="Path 89058" d="M3445.918,550.949c1.111,2.068,5.479.222,8.347-3.559.848-1.119,2.446-2.3,2.947-3.614.041-.108-2.543-1.412-2.6-1.475a6.766,6.766,0,0,0-.457-3.7,6.028,6.028,0,0,0-1.125-1.709,6.153,6.153,0,0,1-1.664-2.007.306.306,0,0,0-.339-.2c-.049-.188.013-.537-.158-.335-2.188,2.592-1.812,5.381-2.751,7.926C3447.158,544.874,3444.359,548.045,3445.918,550.949Z" transform="translate(-24.071 -155.364)" fill="#2c2f33"/>
          <path id="Path_89059" data-name="Path 89059" d="M3532.873,343.512a1.186,1.186,0,0,0,.318.531.92.92,0,0,0,.11.591,2.6,2.6,0,0,0,.462.616c.211.232.337.49.524.728a.336.336,0,0,0,.36.154,4.306,4.306,0,0,0,1.407-.174c.131-.064.264.329.342.443.211.307.64,1.291.969,1.494.307.189.589-.569.977-.6a2.1,2.1,0,0,0,.893-.5.225.225,0,0,0,.068-.314c0-.007,0-.014,0-.022a14.574,14.574,0,0,0-1.932-5.1,7.983,7.983,0,0,0-2.011-1.588c-.472-.027-.775.507-.956,1a1.231,1.231,0,0,0-.135-.021c-.772-.07-.948.714-1.059,1.294-.042.222-.138.428-.165.661A1.346,1.346,0,0,0,3532.873,343.512Z" transform="translate(-93.883 0)" fill="#ffaa8f"/>
          <path id="Path_89060" data-name="Path 89060" d="M3415.335,519.239c.165.869,1.252,1.394,1.7,2.109.015.059.028.115.037.164q.2,1.045.391,2.089a.211.211,0,0,0,.042.207c.048.182.289.145.352,0a3.8,3.8,0,0,1,1.245-.044.2.2,0,0,0,.324-.193c-.138-.825-.246-1.653-.33-2.485a.166.166,0,0,0,.022-.015,12.47,12.47,0,0,1,1.12-.962.8.8,0,0,0,.186-.189c.138-.222-.01-.5-.1-.712-.2-.484-.538-.906-.7-1.406-.085-.266-.044-.524-.276-.7a.2.2,0,0,0-.194,0,.858.858,0,0,0-.271.187,4.448,4.448,0,0,0-1.864-2.11c-.617-.265-.638.665-.6,1.439-.291.586-.582,1.168-.866,1.751A1.33,1.33,0,0,0,3415.335,519.239Z" transform="translate(0 -140.066)" fill="#ffaa8f"/>
          <path id="Path_89063" data-name="Path 89063" d="M3423.025,549.919c-.236.292-.134,1.238-.095,1.778a10.4,10.4,0,0,0,1.059,3.064,33.942,33.942,0,0,0,2.59,5.678c.718,1.1,1.938,2.483,3.324,1.546a3.956,3.956,0,0,0,1.354-4.052.172.172,0,0,0-.123-.133c-.478-1.8-2.394-2.74-2.875-4.562-.225-.853-.256-1.415-.971-2-.969-.788-1.693-1.492-1.66-2.842a.178.178,0,0,0-.156-.188.192.192,0,0,0-.109-.037,4.417,4.417,0,0,1-2.265-.677.2.2,0,0,0-.295.221A21.573,21.573,0,0,1,3423.025,549.919Z" transform="translate(-5.976 -165.895)" fill="#2c2f33"/>
          <g id="Group_12415" data-name="Group 12415" transform="translate(2821.356 -56.469)">
            <g id="Group_12415-2" data-name="Group 12415" transform="translate(580.531 447.787)">
              <path id="Path_89095" data-name="Path 89095" d="M837.483,632.642l3.557-.107V653.4l-4.3.319Z" transform="translate(-823.537 -625.084)" fill="#f4de96" fill-rule="evenodd"/>
              <path id="Path_89096" data-name="Path 89096" d="M744.762,580.3l-13.414-7.559-.532,17.415,13.2,11.222Z" transform="translate(-730.816 -572.741)" fill="#fad765" fill-rule="evenodd"/>
              <path id="Path_89097" data-name="Path 89097" d="M735.087,572.741h4.791l12.18,7.452-3.557.106Z" transform="translate(-734.555 -572.741)" fill="#f2795c" fill-rule="evenodd"/>
            </g>
            <g id="Group_12416" data-name="Group 12416" transform="translate(560.426 436.194)">
              <path id="Path_89098" data-name="Path 89098" d="M586.26,479.721a20.842,20.842,0,0,0,6.758,5.3l-18.9,26.02-4.618-3.355S580.457,492.76,586.26,479.721Z" transform="translate(-569.495 -479.721)" fill="#4d86f2" fill-rule="evenodd"/>
              <path id="Path_89099" data-name="Path 89099" d="M586.26,479.721s11.074,5.481,18.983,7.945c0,0-11.012,20.724-14.463,27.009l-21.285-6.994A284.592,284.592,0,0,0,586.26,479.721Z" transform="translate(-569.495 -479.721)" fill="#df6062" fill-rule="evenodd"/>
              <path id="Path_89100" data-name="Path 89100" d="M754.749,543.47l3.7,4.374s-5.054,8.394-7.275,15.189c-2.793,8.546-4.308,13.548-4.308,13.548l-6.583-6.1S747.292,553.905,754.749,543.47Z" transform="translate(-719.001 -535.525)" fill="#bc4648" fill-rule="evenodd"/>
              <path id="Path_89101" data-name="Path 89101" d="M569.495,704.068l7.256,6.7,20.612,6.4-6.583-6.1Z" transform="translate(-569.495 -676.108)" fill="#e28182" fill-rule="evenodd"/>
            </g>
            <g id="Group_12417" data-name="Group 12417" transform="translate(559.135 429.997)">
              <path id="Path_89102" data-name="Path 89102" d="M577.717,430l-18.581,16.92,19.509,12.8L595.15,439Z" transform="translate(-559.135 -429.997)" fill="#fad765" fill-rule="evenodd"/>
              <path id="Path_89103" data-name="Path 89103" d="M715.671,522.959l16.506-20.711L733.2,507.9l-17.221,20.923Z" transform="translate(-696.163 -493.243)" fill="#ebbf2f" fill-rule="evenodd"/>
              <path id="Path_89104" data-name="Path 89104" d="M559.135,565.763l.832,5.059,18.98,13.6-.3-5.864Z" transform="translate(-559.135 -548.843)" fill="#ffe282" fill-rule="evenodd"/>
            </g>
          </g>
          <g id="Group_12418" data-name="Group 12418" transform="translate(3406.991 375.606)">
            <path id="Path_89105" data-name="Path 89105" d="M781.343,447.323c-2.24-.311-7.363,1.062-9.385,1.713l-.2-.608c.288-.092,5.856-1.865,9.572-1.738A3.97,3.97,0,0,1,781.343,447.323Z" transform="translate(-771.762 -446.669)" fill="#3d1d1d"/>
          </g>
          <path id="Path_89061" data-name="Path 89061" d="M3495.132,510.318a37.141,37.141,0,0,0-1.027-6.248c-.6-2.135-1.448-4.215-2.2-6.3l-2.456-6.852a14.416,14.416,0,0,1-.572,1.4c-.044-.109-.082-.214-.119-.319-.043-.121-.238-.069-.194.054l.032.09a13.54,13.54,0,0,0-4.852-1.823,4.107,4.107,0,0,1-.622-.408c-1.037-.881-2.963.026-4.052.489-.043.018-.084.038-.126.056-.419-.76-.893-1.489-1.379-2.215a.323.323,0,0,0-.05-.058.33.33,0,0,0-.573.176c-.21,1.647-1.925,2.173-3.285,2.553a.306.306,0,0,0-.212.373q.4,1.017.822,2.025a25.71,25.71,0,0,0-4.848,4.772.325.325,0,0,0-.047.085c-.179.46.312.846.334,1.512.017.515-.405.361-.3.866.229,1.065,1,3.926,1.239,4.99a8.045,8.045,0,0,0,1.544,3.69c1.535,1.768,5.053,3.4,4.381,6.324a9.577,9.577,0,0,1-.863,2.008c-.312.634-.631,1.265-.939,1.9a27.608,27.608,0,0,0-1.56,3.753c-.169.539-.546,1.658-.068,2.142.99,1,3.11-1.121,4.044-1.395,1.958-.574,3.765,1.265,5.727,1.565a22.956,22.956,0,0,0,2.9.273,3.787,3.787,0,0,0,2.15-.23,1.672,1.672,0,0,0,.5-.81c.181-.475.339-.961.491-1.446.3-.971.81-3.349,1.023-4.345.179-.832.327-1.673.44-2.517a.324.324,0,0,1,.57-.162,5.069,5.069,0,0,1,.945,1.646,46.2,46.2,0,0,1,1.315,6.979c.07.884.186,2.661,1.5,2.407a.109.109,0,0,0,.168-.078A103.019,103.019,0,0,0,3495.132,510.318Z" transform="translate(-43.147 -118.455)" fill="#2c2f33"/>
          <g id="Group_12419" data-name="Group 12419" transform="translate(3410.758 377.341)">
            <path id="Path_89106" data-name="Path 89106" d="M806.832,461.416a20.445,20.445,0,0,0-4.543,1.758l-.294-.567a22.29,22.29,0,0,1,5.245-1.925C807.294,460.683,806.929,461.431,806.832,461.416Z" transform="translate(-801.994 -460.593)" fill="#3d1d1d"/>
          </g>
          <path id="Path_89062" data-name="Path 89062" d="M3515.932,398.787c.645,2.108,1.607,5.258,3.98,5.852.379.095,8.479-1.09,9.137-2.1-1.326-3.7-.317-9.777.313-12.426.7-2.959.315-3.881.009-6.89-.243-2.393-.754-4.732-.987-7.131a7.931,7.931,0,0,0-1.084-3.125,14.491,14.491,0,0,1-1.53-4.085.274.274,0,0,0-.417-.179c-.131-.076-1.479,1.513-2.348,1.774a.3.3,0,0,0-.2.38.142.142,0,0,0,0,.014c.173.73.711,1.376.621,2.141-.072.613-.331,1.2-.407,1.819a11.624,11.624,0,0,0,.171,3.391c.307,1.779.845,3.566.976,5.365q-1.772,3.683-3.208,7.514a6.616,6.616,0,0,1-1.274,2.466c-.505.514-1.793.539-2.36.976-1.174.9-1.281,2.453-1.553,3.906A.307.307,0,0,0,3515.932,398.787Z" transform="translate(-80.233 -23.08)" fill="#2c2f33"/>
          <path id="Path_89064" data-name="Path 89064" d="M3498.891,504.071c.664-.074,1.29-.01,1.8-.519a4.3,4.3,0,0,0,.791-1.3c.054-.118.228-.015.174.1a3.8,3.8,0,0,1-1.026,1.516,3.179,3.179,0,0,1-1.743.4C3498.763,504.287,3498.763,504.085,3498.891,504.071Z" transform="translate(-66.677 -129.741)" fill="#4e4654"/>
          <path id="Path_89065" data-name="Path 89065" d="M3534.1,496.941a.1.1,0,0,1,.195.054,21.178,21.178,0,0,0-.793,4.418c-.009.129-.211.13-.2,0A21.431,21.431,0,0,1,3534.1,496.941Z" transform="translate(-94.238 -125.482)" fill="#4e4654"/>
          <path id="Path_89066" data-name="Path 89066" d="M3504.054,590.182q2.041,1.938,4.08,3.876a19.39,19.39,0,0,1,3.206,3.622c.069.11-.105.212-.174.1a19.97,19.97,0,0,0-3.319-3.72l-3.935-3.738C3503.816,590.235,3503.959,590.093,3504.054,590.182Z" transform="translate(-70.738 -199.993)" fill="#4e4654"/>
          <path id="Path_89067" data-name="Path 89067" d="M3519.734,614.077c.011-.129.213-.13.2,0a10.748,10.748,0,0,0,.084,2.528c.02.127-.175.182-.2.054A10.968,10.968,0,0,1,3519.734,614.077Z" transform="translate(-83.372 -219.024)" fill="#4f2f2f"/>
          <path id="Path_89068" data-name="Path 89068" d="M3455.325,589.649a5.28,5.28,0,0,1,.9,3.082c-.015.128-.217.129-.2,0a5.086,5.086,0,0,0-.869-2.98C3455.089,589.636,3455.263,589.534,3455.325,589.649Z" transform="translate(-31.804 -199.55)" fill="#4e4654"/>
          <path id="Path_89069" data-name="Path 89069" d="M3559.134,380.289a1.4,1.4,0,0,0,1.305-.9c.046-.12.241-.068.195.054a1.607,1.607,0,0,1-1.5,1.047A.1.1,0,0,1,3559.134,380.289Z" transform="translate(-114.795 -31.589)" fill="#4e4654"/>
          <path id="Path_89070" data-name="Path 89070" d="M3425.644,556.821a2.706,2.706,0,0,0,1.951.193.1.1,0,0,1,.054.195,2.929,2.929,0,0,1-2.107-.214C3425.426,556.937,3425.528,556.763,3425.644,556.821Z" transform="translate(-8.124 -173.359)" fill="#4e4654"/>
          <path id="Path_89071" data-name="Path 89071" d="M3418.971,525.056a1.639,1.639,0,0,1,.883,1,.1.1,0,0,1,.072-.012.244.244,0,0,0,.276-.266.081.081,0,0,1,.062-.092c.23-.589-.767-1.234-1.144-1.524-.1-.078,0-.254.1-.174.363.28,1.037.722,1.23,1.236a.1.1,0,0,1,.033-.035c.842-.53-.558-1.633-.973-1.92-.106-.073-.005-.248.1-.174a3.767,3.767,0,0,1,1.274,1.39.1.1,0,0,1,.047,0c.378.111.48-.366.434-.635-.022-.127.173-.182.195-.054a.862.862,0,0,1-.118.688.536.536,0,0,1-.5.208.655.655,0,0,1-.355.669.087.087,0,0,1-.1,0,.705.705,0,0,1-.082.49.087.087,0,0,1-.01.012.451.451,0,0,1-.511.374.1.1,0,0,1-.025.039.361.361,0,0,1-.065.231.265.265,0,0,1-.267.1c-.128-.022-.074-.217.054-.195.106.018.076-.2.07-.255a.086.086,0,0,1,.005-.044,1.453,1.453,0,0,0-.793-.892C3418.751,525.176,3418.854,525,3418.971,525.056Z" transform="translate(-2.793 -146.416)" fill="#cf6c5a"/>
          <path id="Path_89072" data-name="Path 89072" d="M3430.591,529.887a2,2,0,0,1,.344-.468,2.926,2.926,0,0,0,.269-.226.8.8,0,0,0,.032-.722,1.888,1.888,0,0,1-.2-1.087c.019-.128.214-.074.2.054a1.741,1.741,0,0,0,.26,1.072.72.72,0,0,1,.092.5.677.677,0,0,1-.233.327,2.432,2.432,0,0,0-.581.653C3430.7,530.1,3430.528,530,3430.591,529.887Z" transform="translate(-12.187 -149.797)" fill="#cf6c5a"/>
          <path id="Path_89073" data-name="Path 89073" d="M3537.06,345.556c-.043-.123.152-.176.2-.054a1.326,1.326,0,0,1-.018.894c.135-.138.271-.275.413-.407a1.721,1.721,0,0,1,.442-.375c.357-.136.892.211,1.184.392.11.068.009.243-.1.174-.369-.228-.841-.537-1.221-.2-.27.243-.527.5-.775.763a.087.087,0,0,1-.1.025,2.98,2.98,0,0,0-.4,1.191.951.951,0,0,1,.15-.171.091.091,0,0,1,.027-.082,3.269,3.269,0,0,1,1.057-.787,1.458,1.458,0,0,1,1.141.168c.118.054.016.228-.1.174a1.186,1.186,0,0,0-1.186-.036,3.638,3.638,0,0,0-.717.575.1.1,0,0,1-.042.1.673.673,0,0,0-.278.433.083.083,0,0,1-.006.047.689.689,0,0,0,.41.687c.118.055.015.229-.1.174a.855.855,0,0,1-.5-.888C3536.231,347.334,3537.411,346.552,3537.06,345.556Z" transform="translate(-96.78 -4.519)" fill="#cf6c5a"/>
          <path id="Path_89074" data-name="Path 89074" d="M3465.153,464.1a.068.068,0,0,0,.049.071.356.356,0,0,0,.17,0,1.8,1.8,0,0,1,.353,0,1.564,1.564,0,0,1,.664.235.09.09,0,0,0,.165-.048c0-.05-.152-.191-.186-.228a.858.858,0,0,0-.511-.32C3465.67,463.793,3465.167,463.9,3465.153,464.1Z" transform="translate(-39.804 -99.078)" fill="#4f2f2f"/>
          <path id="Path_89075" data-name="Path 89075" d="M3483.083,465.507a1.345,1.345,0,0,1,1.014-.358.946.946,0,0,1,.493.158c.184.135.181.337-.075.288a2.509,2.509,0,0,0-1.355.069C3483.088,465.692,3483.021,465.568,3483.083,465.507Z" transform="translate(-54.107 -100.142)" fill="#4f2f2f"/>
          <path id="Path_89076" data-name="Path 89076" d="M3537.98,361.2c.4-.312.533-.865.985-1.12a1.227,1.227,0,0,1,1.19.008c.115.061.013.235-.1.174a1.021,1.021,0,0,0-1.354.35,3.175,3.175,0,0,1-.577.73C3538.021,361.418,3537.878,361.276,3537.98,361.2Z" transform="translate(-97.948 -16.096)" fill="#cf6c5a"/>
          <path id="Path_89077" data-name="Path 89077" d="M3464.4,456.274a.927.927,0,0,1,.873-.411,1.05,1.05,0,0,1,.678.391.509.509,0,0,1,.124.25c.057.4-.506.308-.7.258-.288-.077-.583-.021-.867-.118A.249.249,0,0,1,3464.4,456.274Z" transform="translate(-39.168 -92.722)" fill="#a3662e"/>
          <path id="Path_89078" data-name="Path 89078" d="M3482.505,457.975a3.42,3.42,0,0,0,.569.068,5.065,5.065,0,0,1,.919.216.321.321,0,0,0,.11.02.189.189,0,0,0,.127-.284.176.176,0,0,0-.028-.086c-.366-.577-1.338-1.091-1.912-.483C3482.056,457.675,3482.218,457.893,3482.505,457.975Z" transform="translate(-53.403 -93.757)" fill="#a3662e"/>
          <path id="Path_89079" data-name="Path 89079" d="M3542.794,365.072a3.416,3.416,0,0,1,1.063-.648c.122-.047.174.149.054.195-.091.035-.181.074-.268.118a.707.707,0,0,1,.376.206.51.51,0,0,1,.079.6.1.1,0,0,1-.174-.1.323.323,0,0,0-.113-.413.8.8,0,0,0-.458-.121,3.143,3.143,0,0,0-.414.312C3542.84,365.3,3542.7,365.159,3542.794,365.072Z" transform="translate(-101.795 -19.683)" fill="#cf6c5a"/>
          <path id="Path_89080" data-name="Path 89080" d="M3466.993,441.682a4.421,4.421,0,0,1-.529-1.334,7.419,7.419,0,0,1,.187-1.331,2.458,2.458,0,0,0-.289-1.177c-.148-.389-.223-.8-.357-1.2a6.52,6.52,0,0,0-2.9-3.467c-2.833-1.635-7.836-1.684-9.81,1.338a3.609,3.609,0,0,0-.448,1.624c-.107.658-.695,1.109-1.019,1.664-.381.653,0,1.435.235,2.156.3.919,1.012.956,1.766,1.343l.013.007a.669.669,0,0,0,1-.574v-.014a3.219,3.219,0,0,0-.163-.529,1.658,1.658,0,0,1,.005-.726,3.166,3.166,0,0,0,.16-1.328,4.068,4.068,0,0,1-.158-.906,2.641,2.641,0,0,1,.774-1.573c.286-.33.623-.831,1.073-.946a.229.229,0,0,1,.344.127c.062.2.147.417.173.483a4.476,4.476,0,0,0,1.091,1.559,2.749,2.749,0,0,0,.818.558,1.549,1.549,0,0,0,.623.079c.218-.023.368-.034.484.272.216.569.138,1.245.457,1.77.258.423.753.593.739,1.148-.027,1.063.484,2.047.494,3.109.007.688.157,1.677,1.132,1.361.483-.157.693-.618.978-.993a.745.745,0,0,1,.767,0,2.007,2.007,0,0,0,1.714-.03,1.44,1.44,0,0,0,.6-.677.088.088,0,0,0,.038-.028A1.668,1.668,0,0,0,3466.993,441.682Z" transform="translate(-29.029 -73.718)" fill="#a3662e"/>
          <path id="Path_89081" data-name="Path 89081" d="M3473.643,463.888c.027-.118.213-.086.186.033-.147.644-.812,2.262.063,2.592.114.043.034.214-.079.171C3472.757,466.286,3473.474,464.62,3473.643,463.888Z" transform="translate(-46.27 -99.077)" fill="#cf6c5a"/>
          <path id="Path_89082" data-name="Path 89082" d="M3477.38,475.032a2.175,2.175,0,0,1,.615.263c.1.064.024.236-.079.172a2.019,2.019,0,0,0-.568-.248C3477.231,475.187,3477.262,475,3477.38,475.032Z" transform="translate(-49.487 -108.035)" fill="#cf6c5a"/>
          <path id="Path_89083" data-name="Path 89083" d="M3472.68,482.494a3.16,3.16,0,0,1,1,.059c.2.022.41.016.612.039.088.01.606-.12.467.132-.084.152-.457.279-.624.312a4.464,4.464,0,0,1-.706.087.846.846,0,0,1-.818-.4.2.2,0,0,1-.009-.163A.13.13,0,0,1,3472.68,482.494Z" transform="translate(-45.743 -113.975)" fill="#bf5858"/>
          <path id="Path_89084" data-name="Path 89084" d="M3475.191,490.9a1.174,1.174,0,0,0,.621.042c.126-.026.181.169.053.195a1.38,1.38,0,0,1-.728-.043C3475.016,491.055,3475.068,490.86,3475.191,490.9Z" transform="translate(-47.725 -120.71)" fill="#cf6c5a"/>
          <path id="Path_89085" data-name="Path 89085" d="M3487.674,440.149a6.775,6.775,0,0,1,2.173,1.735,2.949,2.949,0,0,1,.52,1.217,4.537,4.537,0,0,1-.16,1.362c-.072.673.563.893,1.008,1.251a3.855,3.855,0,0,1,.877.986,2.994,2.994,0,0,1,.271,2.636c-.043.112-.226.064-.182-.05a2.906,2.906,0,0,0-.577-2.937,5.519,5.519,0,0,0-1.062-.881,1.21,1.21,0,0,1-.52-.615c-.1-.359.1-.695.161-1.041a2.36,2.36,0,0,0-.337-1.586,5.986,5.986,0,0,0-2.265-1.913A.094.094,0,0,1,3487.674,440.149Z" transform="translate(-57.681 -80.163)" fill="#4f2f2f"/>
          <path id="Path_89086" data-name="Path 89086" d="M3503.857,442.882a2.536,2.536,0,0,1,1.124,2.151,1.991,1.991,0,0,1-.141.489,2.44,2.44,0,0,0-.159.354.9.9,0,0,0,.152.65,4.712,4.712,0,0,1,.466,1.451c.017.119-.165.17-.182.05a4.8,4.8,0,0,0-.48-1.468.979.979,0,0,1-.088-.861,1.88,1.88,0,0,0,.133-1.516,3.492,3.492,0,0,0-.958-1.167C3503.634,442.933,3503.767,442.8,3503.857,442.882Z" transform="translate(-70.589 -82.337)" fill="#4f2f2f"/>
          <path id="Path_89087" data-name="Path 89087" d="M3454.691,455.96a1.391,1.391,0,0,1,.341-.685c.088-.094.208-.157.271-.27a1.316,1.316,0,0,0,.027-.6c0-.13.2-.13.2,0,.008.222.094.562-.052.751-.1.125-.25.2-.353.323a1.212,1.212,0,0,0-.24.535C3454.86,456.141,3454.665,456.087,3454.691,455.96Z" transform="translate(-31.446 -91.484)" fill="#4f2f2f"/>
          <path id="Path_89088" data-name="Path 89088" d="M3497.769,722.861c.019-.128.213-.074.2.054a16.305,16.305,0,0,0-.173,5.137,8.554,8.554,0,0,0,2.256,4.248c1.02,1.132,2.154,2.153,3.146,3.312a26.815,26.815,0,0,1,2.776,3.908.1.1,0,0,1-.174.1,26.53,26.53,0,0,0-3.16-4.34c-1.06-1.179-2.265-2.225-3.264-3.459a8.131,8.131,0,0,1-1.829-4.066A17.642,17.642,0,0,1,3497.769,722.861Z" transform="translate(-65.602 -305.936)" fill="#4f2f2f"/>
          <path id="Path_89089" data-name="Path 89089" d="M3534.644,780.531l5.56,3.932c.1.074,0,.25-.1.174l-5.56-3.932C3534.437,780.631,3534.538,780.456,3534.644,780.531Z" transform="translate(-95.194 -352.045)" fill="#4f2f2f"/>
          <path id="Path_89090" data-name="Path 89090" d="M3475.463,569.66a7.107,7.107,0,0,1-1.1-3.585c0-.129-.206-.13-.2,0a7.321,7.321,0,0,0,1.127,3.686C3475.358,569.871,3475.532,569.77,3475.463,569.66Z" transform="translate(-47.001 -180.683)" fill="#4f2f2f"/>
          <path id="Path_89091" data-name="Path 89091" d="M3576.251,526.056c-.023-.127-.218-.073-.194.054a15.486,15.486,0,0,1,.223,1.831c.008.129.209.13.2,0A16.025,16.025,0,0,0,3576.251,526.056Z" transform="translate(-128.389 -148.736)" fill="#4e4654"/>
          <g id="Group_12422" data-name="Group 12422" transform="translate(-3 2)">
            <g id="Group_12420" data-name="Group 12420" transform="translate(3409.991 373.606)">
              <path id="Path_89105-2" data-name="Path 89105" d="M780.493,453.32l-.423-.479c.895-.79,3.187-3.136,3.052-4.484-.031-.308-.188-1.841.636-.063C783.949,450.209,780.847,453.008,780.493,453.32Z" transform="translate(-771.762 -446.669)" fill="#3d1d1d"/>
            </g>
            <g id="Group_12421" data-name="Group 12421" transform="translate(3413.758 375.341)">
              <path id="Path_89106-2" data-name="Path 89106" d="M807.255,466.044l-.372-.52c.7-.5,2.556-2.065,2.688-3.232a.881.881,0,0,0-.221-.719c.948-1.446-.4-3.123.754-1.316a6.6,6.6,0,0,1,.1,2.108C810.014,464.052,807.368,465.963,807.255,466.044Z" transform="translate(-801.994 -460.593)" fill="#3d1d1d"/>
            </g>
          </g>
        </g>
      </g>
    </g>
  </g>
</svg>
