<svg xmlns="http://www.w3.org/2000/svg" xmlns:xlink="http://www.w3.org/1999/xlink" width="87" height="64" viewBox="0 0 87 64">
  <defs>
    <clipPath id="clip-path">
      <rect id="Rectangle_5327" data-name="Rectangle 5327" width="87" height="64" transform="translate(-1519 1364)" fill="#fff" stroke="#707070" stroke-width="1"/>
    </clipPath>
    <clipPath id="clip-path-2">
      <rect id="Rectangle_5308" data-name="Rectangle 5308" width="129" height="64" transform="translate(-3993 422)" fill="#fff" stroke="#707070" stroke-width="1"/>
    </clipPath>
    <clipPath id="clip-path-3">
      <rect id="Rectangle_4318" data-name="Rectangle 4318" width="580" height="64" rx="10" transform="translate(430 416)" fill="#38539a"/>
    </clipPath>
  </defs>
  <g id="Mask_Group_210" data-name="Mask Group 210" transform="translate(1519 -1364)" clip-path="url(#clip-path)">
    <g id="Mask_Group_198" data-name="Mask Group 198" transform="translate(2455 942)" clip-path="url(#clip-path-2)">
      <g id="ABO-300-d" transform="translate(-4429 111)">
        <rect id="Rectangle_4310" data-name="Rectangle 4310" width="580" height="64" rx="10" transform="translate(430 311)" fill="none"/>
        <g id="Group_151" data-name="Group 151" transform="translate(0 -105)" clip-path="url(#clip-path-3)">
          <g id="Group_12173" data-name="Group 12173" transform="translate(-20.995 258.658)">
            <g id="Group_12099" data-name="Group 12099" transform="translate(415.486 153.665)">
              <path id="Path_88695" data-name="Path 88695" d="M549.01,209.913l.709,3.081-1.341.439-.8-3.071Z" transform="translate(-547.583 -209.913)" fill="#e04c4c"/>
            </g>
            <g id="Group_12100" data-name="Group 12100" transform="translate(392.727 237.334)">
              <path id="Path_88696" data-name="Path 88696" d="M438.736,614.022l2.013,2.437-1,.994-2.086-2.389Z" transform="translate(-437.66 -614.022)" fill="#438acc"/>
            </g>
            <g id="Group_12101" data-name="Group 12101" transform="translate(388.801 159.696)">
              <path id="Path_88697" data-name="Path 88697" d="M422.061,240.521l-3.156.181-.208-1.4,3.161-.268Z" transform="translate(-418.698 -239.038)" fill="#e04c4c"/>
            </g>
            <g id="Group_12102" data-name="Group 12102" transform="translate(448.907 141.11)">
              <path id="Path_88698" data-name="Path 88698" d="M709.684,151.834l2.884-1.446-.627-1.115L709,150.658Z" transform="translate(-709.002 -149.273)" fill="#ffd769"/>
            </g>
            <g id="Group_12103" data-name="Group 12103" transform="translate(507.142 154.677)">
              <path id="Path_88699" data-name="Path 88699" d="M990.269,216.614l2.8-1.816.92,1.171-2.756,1.9Z" transform="translate(-990.269 -214.798)" fill="#438acc"/>
            </g>
            <g id="Group_12104" data-name="Group 12104" transform="translate(830.771 143.642)">
              <path id="Path_88700" data-name="Path 88700" d="M2555.04,165.247l-1.681-2.881,1.213-.864,1.765,2.843Z" transform="translate(-2553.361 -161.503)" fill="#438acc"/>
            </g>
            <g id="Group_12105" data-name="Group 12105" transform="translate(394.217 275.189)">
              <path id="Path_88701" data-name="Path 88701" d="M448.491,798.4l-3.3.448-.333-1.452,3.3-.54Z" transform="translate(-444.853 -796.861)" fill="#73bf98"/>
            </g>
            <g id="Group_12106" data-name="Group 12106" transform="translate(477.73 212.413)">
              <path id="Path_88702" data-name="Path 88702" d="M851.431,497.176l-3.217-2.007.763-1.512,3.282,1.925Z" transform="translate(-848.214 -493.657)" fill="#73bf98"/>
            </g>
            <g id="Group_12107" data-name="Group 12107" transform="translate(439.326 152.556)">
              <path id="Path_88703" data-name="Path 88703" d="M662.727,205.778l3.691-1.225.694,1.592-3.668,1.33Z" transform="translate(-662.727 -204.553)" fill="#438acc"/>
            </g>
            <g id="Group_12108" data-name="Group 12108" transform="translate(380.995 182.444)">
              <path id="Path_88704" data-name="Path 88704" d="M381,350.138l3.691-1.225.694,1.592-3.668,1.33Z" transform="translate(-380.995 -348.913)" fill="#73bf98"/>
            </g>
            <g id="Group_12109" data-name="Group 12109" transform="translate(405.7 138.979)">
              <path id="Path_88705" data-name="Path 88705" d="M500.315,142.685l1.117-3.706,1.693.347-1.019,3.748Z" transform="translate(-500.315 -138.979)" fill="#73bf98"/>
            </g>
            <g id="Group_12110" data-name="Group 12110" transform="translate(484.618 243.396)">
              <path id="Path_88706" data-name="Path 88706" d="M884.578,643.849l-1.442,3.592-1.656-.5,1.348-3.643Z" transform="translate(-881.48 -643.302)" fill="#73bf98"/>
            </g>
            <g id="Group_12111" data-name="Group 12111" transform="translate(481.884 188.794)">
              <path id="Path_88707" data-name="Path 88707" d="M870.4,379.579l-2.121,3.261,1.364,1.075,2.217-3.213Z" transform="translate(-868.275 -379.579)" fill="#438acc"/>
            </g>
            <g id="Group_12112" data-name="Group 12112" transform="translate(499.231 175.29)">
              <path id="Path_88708" data-name="Path 88708" d="M952.06,314.6l.793,3.685,1.67-.2-.694-3.718Z" transform="translate(-952.06 -314.359)" fill="#73bf98"/>
            </g>
            <g id="Group_12113" data-name="Group 12113" transform="translate(438.224 205.637)">
              <path id="Path_88709" data-name="Path 88709" d="M657.4,462.244l2.927,1.849.94-1.227-2.885-1.935Z" transform="translate(-657.402 -460.931)" fill="#438acc"/>
            </g>
            <g id="Group_12114" data-name="Group 12114" transform="translate(524.223 164.37)">
              <path id="Path_88710" data-name="Path 88710" d="M1076.12,263.1l-3.157.163-.2-1.4,3.162-.25Z" transform="translate(-1072.767 -261.616)" fill="#ffd769"/>
            </g>
            <g id="Group_12115" data-name="Group 12115" transform="translate(554.771 192.173)">
              <path id="Path_88711" data-name="Path 88711" d="M1223.55,396.8l-2.1,2.367-1.137-.836,2.037-2.431Z" transform="translate(-1220.315 -395.898)" fill="#438acc"/>
            </g>
            <g id="Group_12116" data-name="Group 12116" transform="translate(539.776 155.275)">
              <path id="Path_88712" data-name="Path 88712" d="M1149.42,217.685l1.846,3.4-1.438.958-1.945-3.362Z" transform="translate(-1147.886 -217.685)" fill="#438acc"/>
            </g>
            <g id="Group_12117" data-name="Group 12117" transform="translate(603.089 275.508)">
              <path id="Path_88713" data-name="Path 88713" d="M1455.22,798.4l1.846,3.4-1.438.958-1.945-3.362Z" transform="translate(-1453.681 -798.399)" fill="#438acc"/>
            </g>
            <g id="Group_12118" data-name="Group 12118" transform="translate(521.823 143.167)">
              <path id="Path_88714" data-name="Path 88714" d="M1061.18,160.978l3.794.492.372-1.667-3.792-.6Z" transform="translate(-1061.179 -159.205)" fill="#e04c4c"/>
            </g>
            <g id="Group_12119" data-name="Group 12119" transform="translate(540.301 217.473)">
              <path id="Path_88715" data-name="Path 88715" d="M1154.35,520.942l-2.558-2.845-1.368,1.023,2.488,2.924Z" transform="translate(-1150.425 -518.097)" fill="#e04c4c"/>
            </g>
            <g id="Group_12120" data-name="Group 12120" transform="translate(467.219 153.767)">
              <path id="Path_88716" data-name="Path 88716" d="M801.326,211.789l-3.14-1.384-.742,1.34,3.111,1.474Z" transform="translate(-797.444 -210.405)" fill="#e04c4c"/>
            </g>
            <g id="Group_12121" data-name="Group 12121" transform="translate(609.303 144.24)">
              <path id="Path_88717" data-name="Path 88717" d="M1484.5,167.415l3.407-1.709-.741-1.318-3.472,1.637Z" transform="translate(-1483.698 -164.388)" fill="#ffd769"/>
            </g>
            <g id="Group_12122" data-name="Group 12122" transform="translate(614.559 254.182)">
              <path id="Path_88718" data-name="Path 88718" d="M1512.84,695.4l-3.756.649.328,1.476,3.8-.562Z" transform="translate(-1509.083 -695.398)" fill="#ffd769"/>
            </g>
            <g id="Group_12123" data-name="Group 12123" transform="translate(686.946 192.054)">
              <path id="Path_88719" data-name="Path 88719" d="M1858.75,395.4l-.048,3.812,1.511-.053.141-3.836Z" transform="translate(-1858.704 -395.326)" fill="#ffd769"/>
            </g>
            <g id="Group_12124" data-name="Group 12124" transform="translate(593.601 203.648)">
              <path id="Path_88720" data-name="Path 88720" d="M1407.86,452.817l3.458,1.6.57-1.4-3.442-1.7Z" transform="translate(-1407.859 -451.322)" fill="#ffd769"/>
            </g>
            <g id="Group_12125" data-name="Group 12125" transform="translate(671.825 278.702)">
              <path id="Path_88721" data-name="Path 88721" d="M1788.93,816.176l-3.259-.865.253-1.484,3.293.778Z" transform="translate(-1785.673 -813.828)" fill="#e04c4c"/>
            </g>
            <g id="Group_12126" data-name="Group 12126" transform="translate(918.495 267.999)">
              <path id="Path_88722" data-name="Path 88722" d="M2977.06,765.217l1.36-3.086,1.427.48-1.28,3.132Z" transform="translate(-2977.057 -762.131)" fill="#73bf98"/>
            </g>
            <g id="Group_12127" data-name="Group 12127" transform="translate(677.876 249.569)">
              <path id="Path_88723" data-name="Path 88723" d="M1814.9,676.2l1.36-3.086,1.427.48-1.28,3.132Z" transform="translate(-1814.895 -673.117)" fill="#73bf98"/>
            </g>
            <g id="Group_12128" data-name="Group 12128" transform="translate(635.18 147.838)">
              <path id="Path_88724" data-name="Path 88724" d="M1608.68,182.25l1.274,3.17,1.461-.439-1.191-3.215Z" transform="translate(-1608.681 -181.767)" fill="#73bf98"/>
            </g>
            <g id="Group_12129" data-name="Group 12129" transform="translate(609.752 189.429)">
              <path id="Path_88725" data-name="Path 88725" d="M1489.24,382.647l-3.376.527.1,1.522,3.4-.436Z" transform="translate(-1485.867 -382.647)" fill="#73bf98"/>
            </g>
            <g id="Group_12130" data-name="Group 12130" transform="translate(653.052 151.286)">
              <path id="Path_88726" data-name="Path 88726" d="M1698.88,199.8l-3.14-1.383-.742,1.34,3.111,1.474Z" transform="translate(-1694.998 -198.419)" fill="#438acc"/>
            </g>
            <g id="Group_12131" data-name="Group 12131" transform="translate(722.833 176.174)">
              <path id="Path_88727" data-name="Path 88727" d="M2032.66,321.618l3.051-1.57-.575-1.42-3.1,1.491Z" transform="translate(-2032.032 -318.628)" fill="#438acc"/>
            </g>
            <g id="Group_12132" data-name="Group 12132" transform="translate(488.407 223.218)">
              <path id="Path_88728" data-name="Path 88728" d="M903.664,547.227l-3.14-1.384-.742,1.34,3.111,1.474Z" transform="translate(-899.782 -545.844)" fill="#e04c4c"/>
            </g>
            <g id="Group_12133" data-name="Group 12133" transform="translate(478.741 219.446)">
              <path id="Path_88729" data-name="Path 88729" d="M853.529,527.627l-.432,3.4,1.5.329.527-3.4Z" transform="translate(-853.098 -527.627)" fill="#e04c4c"/>
            </g>
            <g id="Group_12134" data-name="Group 12134" transform="translate(497.712 140.011)">
              <path id="Path_88730" data-name="Path 88730" d="M944.725,144.838l1.984,2.394,1.046-.809-1.93-2.457Z" transform="translate(-944.725 -143.966)" fill="#ffd769"/>
            </g>
            <g id="Group_12135" data-name="Group 12135" transform="translate(533.153 253.691)">
              <path id="Path_88731" data-name="Path 88731" d="M1118.19,693.024l-2.288,2.106.862,1,2.354-2.055Z" transform="translate(-1115.9 -693.024)" fill="#ffd769"/>
            </g>
            <g id="Group_12136" data-name="Group 12136" transform="translate(441.346 239.856)">
              <path id="Path_88732" data-name="Path 88732" d="M675.59,626.206l-3.1.157.022,1.322,3.124-.076Z" transform="translate(-672.485 -626.206)" fill="#e04c4c"/>
            </g>
            <g id="Group_12137" data-name="Group 12137" transform="translate(822.053 156.281)">
              <path id="Path_88733" data-name="Path 88733" d="M2511.51,224.8l3.219-.8-.224-1.463-3.251.71Z" transform="translate(-2511.254 -222.546)" fill="#ffd769"/>
            </g>
            <g id="Group_12138" data-name="Group 12138" transform="translate(918.911 233.657)">
              <path id="Path_88734" data-name="Path 88734" d="M2979.07,596.384l.511,3.276,1.477-.1-.423-3.3Z" transform="translate(-2979.067 -596.265)" fill="#ffd769"/>
            </g>
            <g id="Group_12139" data-name="Group 12139" transform="translate(846.684 162.237)">
              <path id="Path_88735" data-name="Path 88735" d="M2633.74,251.49l-3.311-.178-.213,1.465,3.316.269Z" transform="translate(-2630.219 -251.312)" fill="#e04c4c"/>
            </g>
            <g id="Group_12140" data-name="Group 12140" transform="translate(874.59 176.707)">
              <path id="Path_88736" data-name="Path 88736" d="M2765,321.44l.758,3.228,1.466-.207-.672-3.259Z" transform="translate(-2765.004 -321.202)" fill="#e04c4c"/>
            </g>
            <g id="Group_12141" data-name="Group 12141" transform="translate(1030.987 221.395)">
              <path id="Path_88737" data-name="Path 88737" d="M3523.91,537.217l-3.311-.178-.213,1.465,3.316.27Z" transform="translate(-3520.383 -537.039)" fill="#e04c4c"/>
            </g>
            <g id="Group_12142" data-name="Group 12142" transform="translate(904.652 205.65)">
              <path id="Path_88738" data-name="Path 88738" d="M2910.46,460.992l-.254,3.306,1.46.246.345-3.309Z" transform="translate(-2910.201 -460.992)" fill="#e04c4c"/>
            </g>
            <g id="Group_12143" data-name="Group 12143" transform="translate(789.932 253.07)">
              <path id="Path_88739" data-name="Path 88739" d="M2356.37,690.025l-.254,3.306,1.46.246.345-3.309Z" transform="translate(-2356.115 -690.025)" fill="#e04c4c"/>
            </g>
            <g id="Group_12144" data-name="Group 12144" transform="translate(980.708 219.014)">
              <path id="Path_88740" data-name="Path 88740" d="M3277.79,525.541l-.254,3.306,1.46.246.345-3.309Z" transform="translate(-3277.54 -525.541)" fill="#e04c4c"/>
            </g>
            <g id="Group_12145" data-name="Group 12145" transform="translate(783.064 281.817)">
              <path id="Path_88741" data-name="Path 88741" d="M2326.47,829.051l-3.311-.178-.213,1.465,3.317.269Z" transform="translate(-2322.943 -828.873)" fill="#73bf98"/>
            </g>
            <g id="Group_12146" data-name="Group 12146" transform="translate(860.587 141.101)">
              <path id="Path_88742" data-name="Path 88742" d="M2700.22,149.229l-2.851,1.693.638,1.336,2.906-1.62Z" transform="translate(-2697.369 -149.229)" fill="#73bf98"/>
            </g>
            <g id="Group_12147" data-name="Group 12147" transform="translate(903.783 185.341)">
              <path id="Path_88743" data-name="Path 88743" d="M2908.85,362.9l-2.85,1.7.638,1.336,2.906-1.62Z" transform="translate(-2906.001 -362.902)" fill="#73bf98"/>
            </g>
            <g id="Group_12148" data-name="Group 12148" transform="translate(839.672 199.225)">
              <path id="Path_88744" data-name="Path 88744" d="M2599.21,432.929l-1.475-2.97-1.38.536,1.4,3.019Z" transform="translate(-2596.351 -429.959)" fill="#73bf98"/>
            </g>
            <g id="Group_12149" data-name="Group 12149" transform="translate(890.367 149.654)">
              <path id="Path_88745" data-name="Path 88745" d="M2841.2,191.647l2.521,2.154,1.06-1.034-2.469-2.23Z" transform="translate(-2841.203 -190.537)" fill="#438acc"/>
            </g>
            <g id="Group_12150" data-name="Group 12150" transform="translate(919.491 207.054)">
              <path id="Path_88746" data-name="Path 88746" d="M2981.87,468.882l2.521,2.154,1.06-1.034-2.469-2.23Z" transform="translate(-2981.872 -467.772)" fill="#438acc"/>
            </g>
            <g id="Group_12151" data-name="Group 12151" transform="translate(851.398 204.37)">
              <path id="Path_88747" data-name="Path 88747" d="M2656.07,454.813l-3.082,1.225.42,1.42,3.124-1.144Z" transform="translate(-2652.987 -454.813)" fill="#438acc"/>
            </g>
            <g id="Group_12152" data-name="Group 12152" transform="translate(927.589 147.692)">
              <path id="Path_88748" data-name="Path 88748" d="M3022.54,184.579l.156-3.312-1.467-.2-.248,3.318Z" transform="translate(-3020.985 -181.064)" fill="#ffd769"/>
            </g>
            <g id="Group_12153" data-name="Group 12153" transform="translate(802.739 166.733)">
              <path id="Path_88749" data-name="Path 88749" d="M2418.93,273.03l2.359,2.221-.892,1.139-2.427-2.163Z" transform="translate(-2417.972 -273.03)" fill="#73bf98"/>
            </g>
            <g id="Group_12154" data-name="Group 12154" transform="translate(785.896 229.757)">
              <path id="Path_88750" data-name="Path 88750" d="M2340.22,578.627l-2.681,1.819-.917-1.119,2.639-1.9Z" transform="translate(-2336.62 -577.429)" fill="#ffd769"/>
            </g>
            <g id="Group_12155" data-name="Group 12155" transform="translate(800.695 201.437)">
              <path id="Path_88751" data-name="Path 88751" d="M2408.3,440.644l3.171.665-.168,1.437-3.2-.58Z" transform="translate(-2408.1 -440.644)" fill="#438acc"/>
            </g>
            <g id="Group_12156" data-name="Group 12156" transform="translate(701.013 168.404)">
              <path id="Path_88752" data-name="Path 88752" d="M1926.89,281.1l3.146.773-.217,1.43-3.177-.689Z" transform="translate(-1926.644 -281.098)" fill="#e04c4c"/>
            </g>
            <g id="Group_12157" data-name="Group 12157" transform="translate(767.398 164.732)">
              <path id="Path_88753" data-name="Path 88753" d="M2247.36,263.362l3.212.427-.061,1.445-3.233-.341Z" transform="translate(-2247.276 -263.362)" fill="#ffd769"/>
            </g>
            <g id="Group_12158" data-name="Group 12158" transform="translate(707.386 147.5)">
              <path id="Path_88754" data-name="Path 88754" d="M1958.95,180.137l.1,3.238-1.436.176-.192-3.245Z" transform="translate(-1957.425 -180.137)" fill="#ffd769"/>
            </g>
            <g id="Group_12159" data-name="Group 12159" transform="translate(788.824 145.353)">
              <path id="Path_88755" data-name="Path 88755" d="M2350.76,171.07l2.965-1.306.7,1.266-2.938,1.392Z" transform="translate(-2350.764 -169.763)" fill="#438acc"/>
            </g>
            <g id="Group_12160" data-name="Group 12160" transform="translate(749.999 147.485)">
              <path id="Path_88756" data-name="Path 88756" d="M2164.23,180.06l2.317,2.265-.914,1.122-2.386-2.208Z" transform="translate(-2163.242 -180.06)" fill="#e04c4c"/>
            </g>
            <g id="Group_12161" data-name="Group 12161" transform="translate(1002.124 159.38)">
              <path id="Path_88757" data-name="Path 88757" d="M3380.98,239.329l2.8-1.816.92,1.171-2.756,1.9Z" transform="translate(-3380.98 -237.512)" fill="#438acc"/>
            </g>
            <g id="Group_12162" data-name="Group 12162" transform="translate(972.633 209.491)">
              <path id="Path_88758" data-name="Path 88758" d="M3238.54,480.754l3.109-1.208.662,1.334-3.085,1.3Z" transform="translate(-3238.54 -479.546)" fill="#438acc"/>
            </g>
            <g id="Group_12163" data-name="Group 12163" transform="translate(1053.885 233.821)">
              <path id="Path_88759" data-name="Path 88759" d="M3630.98,598.87l2.8-1.816.92,1.171-2.756,1.9Z" transform="translate(-3630.98 -597.054)" fill="#438acc"/>
            </g>
            <g id="Group_12164" data-name="Group 12164" transform="translate(977.561 256.745)">
              <path id="Path_88760" data-name="Path 88760" d="M3262.34,709.594l2.8-1.816.92,1.171-2.756,1.9Z" transform="translate(-3262.341 -707.778)" fill="#73bf98"/>
            </g>
            <g id="Group_12165" data-name="Group 12165" transform="translate(1023.631 164.753)">
              <path id="Path_88761" data-name="Path 88761" d="M3488.21,264.948l-3.157.163-.2-1.4,3.162-.25Z" transform="translate(-3484.856 -263.463)" fill="#ffd769"/>
            </g>
            <g id="Group_12166" data-name="Group 12166" transform="translate(1089.039 147.984)">
              <path id="Path_88762" data-name="Path 88762" d="M3800.94,185.834l-.17-3.157,1.4-.2.257,3.162Z" transform="translate(-3800.769 -182.475)" fill="#ffd769"/>
            </g>
            <g id="Group_12167" data-name="Group 12167" transform="translate(1055.744 154.74)">
              <path id="Path_88763" data-name="Path 88763" d="M3641.5,215.106l1.846,3.4-1.439.958-1.945-3.362Z" transform="translate(-3639.958 -215.106)" fill="#73bf98"/>
            </g>
            <g id="Group_12168" data-name="Group 12168" transform="translate(1027.205 146.352)">
              <path id="Path_88764" data-name="Path 88764" d="M3502.12,176.364l3.794.492.372-1.667-3.792-.6Z" transform="translate(-3502.117 -174.591)" fill="#e04c4c"/>
            </g>
            <g id="Group_12169" data-name="Group 12169" transform="translate(984.471 145.048)">
              <path id="Path_88765" data-name="Path 88765" d="M3295.72,169.165l1.984,2.394,1.046-.809-1.93-2.457Z" transform="translate(-3295.716 -168.293)" fill="#73bf98"/>
            </g>
            <g id="Group_12170" data-name="Group 12170" transform="translate(1097.966 240.095)">
              <path id="Path_88766" data-name="Path 88766" d="M3843.88,628.229l1.984,2.394,1.046-.809-1.93-2.457Z" transform="translate(-3843.882 -627.357)" fill="#ffd769"/>
            </g>
            <g id="Group_12171" data-name="Group 12171" transform="translate(1026.347 237.406)">
              <path id="Path_88767" data-name="Path 88767" d="M3499.62,614.369l-1.646,2.638,1.1.737,1.723-2.607Z" transform="translate(-3497.973 -614.369)" fill="#ffd769"/>
            </g>
            <g id="Group_12172" data-name="Group 12172" transform="translate(969.268 173.408)">
              <path id="Path_88768" data-name="Path 88768" d="M3223.93,305.269l-1.646,2.638,1.1.737,1.723-2.607Z" transform="translate(-3222.287 -305.269)" fill="#ffd769"/>
            </g>
          </g>
          <g id="Group_12400" data-name="Group 12400" transform="translate(501.943 371)" opacity="0.151">
            <g id="Ellipse_1611" data-name="Ellipse 1611" transform="translate(360.057 -8)" fill="none" stroke="#e3e5ff" stroke-width="16">
              <circle cx="39" cy="39" r="39" stroke="none"/>
              <circle cx="39" cy="39" r="31" fill="none"/>
            </g>
          </g>
          <g id="Group_12401" data-name="Group 12401" transform="translate(466.122 424.513)">
            <g id="Group_12240" data-name="Group 12240" transform="translate(36.046 15.413)">
              <path id="Path_88830" data-name="Path 88830" d="M544.738,353.355a4.364,4.364,0,0,0-2.57-1.555,7.183,7.183,0,0,0-5.846,1.555,5.891,5.891,0,0,0-2.006,5.677,6.984,6.984,0,0,0,1.291,2.943c.6.751,2.235,1.9,2.846,2.977.079.14.811-.2.5-.633-.017-.025-.042-.043-.06-.066a10.6,10.6,0,0,0,1.514-1.344c.88-.784,1.7-1.6,2.5-2.462a11.559,11.559,0,0,0,1.9-2.05,11.3,11.3,0,0,0,.887-2.083v.082c-.008.242.368.242.376,0a4.471,4.471,0,0,0-1.332-3.041Z" transform="translate(-534.208 -351.705)" fill="#f2e1cb"/>
            </g>
            <g id="Group_12241" data-name="Group 12241" transform="translate(34.668 13.99)">
              <path id="Path_88831" data-name="Path 88831" d="M532.283,348.432c.424-.874.779-2.138-.233-2.648a7.3,7.3,0,0,0-2.221-.569,1.681,1.681,0,0,0-1.62.562,3.609,3.609,0,0,0-.3,1.9,2.37,2.37,0,0,0,.576,1.817,1.719,1.719,0,0,0,1.991.35c.475-.083.826-.486,1.3-.8a1.47,1.47,0,0,0,.209-.172.17.17,0,0,0,.118-.089c.033-.059.067-.122.1-.187a1.291,1.291,0,0,0,.08-.159Z" transform="translate(-527.905 -345.199)" fill="#f2e1cb"/>
            </g>
            <g id="Group_12254" data-name="Group 12254" transform="translate(37.659 0.6)">
              <g id="Group_12242" data-name="Group 12242">
                <path id="Path_88832" data-name="Path 88832" d="M559.377,288.2a31.273,31.273,0,0,0-4.3,2.422,10.3,10.3,0,0,1-2.716,1.275c-.124.041-.248.079-.376.117a17.643,17.643,0,0,1-5.732.688,6.694,6.694,0,0,1-4.668-1.854,11.479,11.479,0,0,0,1.832-.192q.192-.034.4-.079c.218-.041.448-.1.681-.162,1.591-.432,3.863-2.388,5.262-4.269a5.788,5.788,0,0,1,3.543-2.17l4.784,3.325.316.218Z" transform="translate(-541.583 -283.976)" fill="#73bf98"/>
              </g>
              <g id="Group_12243" data-name="Group 12243" transform="translate(10.688 0.798)">
                <path id="Path_88833" data-name="Path 88833" d="M590.451,287.8v1.066a.188.188,0,0,0,.376,0V287.8a.188.188,0,1,0-.376,0Z" transform="translate(-590.451 -287.623)" fill="#ffd769"/>
              </g>
              <g id="Group_12244" data-name="Group 12244" transform="translate(10.4 7.233)">
                <path id="Path_88834" data-name="Path 88834" d="M589.509,317.226v.508c-.124.041-.248.079-.376.117v-.624a.188.188,0,0,1,.376,0Z" transform="translate(-589.133 -317.046)" fill="#ffd769"/>
              </g>
              <g id="Group_12245" data-name="Group 12245" transform="translate(13.847 4.615)">
                <path id="Path_88835" data-name="Path 88835" d="M604.894,305.256v1.066a.188.188,0,1,0,.376,0v-1.066a.188.188,0,0,0-.376,0Z" transform="translate(-604.894 -305.075)" fill="#ffd769"/>
              </g>
              <g id="Group_12246" data-name="Group 12246" transform="translate(5.259 5.066)">
                <path id="Path_88836" data-name="Path 88836" d="M565.63,307.322v1.066a.188.188,0,0,0,.376,0v-1.066a.188.188,0,1,0-.376,0Z" transform="translate(-565.63 -307.141)" fill="#ffd769"/>
              </g>
              <g id="Group_12247" data-name="Group 12247" transform="translate(10.59 4.263)">
                <path id="Path_88837" data-name="Path 88837" d="M590.031,303.756l.57.9a.188.188,0,0,0,.318-.2l-.57-.9a.188.188,0,0,0-.318.2Z" transform="translate(-590.001 -303.469)" fill="#ffd769"/>
              </g>
              <g id="Group_12248" data-name="Group 12248" transform="translate(1.832 6.601)">
                <path id="Path_88838" data-name="Path 88838" d="M550.537,315.15l-.572-.9a.028.028,0,0,1-.007-.015q.192-.034.4-.079l.5.793a.187.187,0,0,1-.316.2Z" transform="translate(-549.958 -314.157)" fill="#ffd769"/>
              </g>
              <g id="Group_12249" data-name="Group 12249" transform="translate(8.107 5.329)">
                <path id="Path_88839" data-name="Path 88839" d="M578.928,309.219l.927-.525a.188.188,0,0,0-.185-.327l-.928.525a.188.188,0,1,0,.186.327Z" transform="translate(-578.65 -308.341)" fill="#ffd769"/>
              </g>
              <g id="Group_12250" data-name="Group 12250" transform="translate(12.419 2.729)">
                <path id="Path_88840" data-name="Path 88840" d="M599.619,296.5l-1.065-.048a.188.188,0,0,0-.017.376l1.065.048a.188.188,0,0,0,.017-.376Z" transform="translate(-598.365 -296.453)" fill="#ffd769"/>
              </g>
              <g id="Group_12251" data-name="Group 12251" transform="translate(5.83 7.735)">
                <path id="Path_88841" data-name="Path 88841" d="M569.494,319.388l-1.064-.048a.188.188,0,1,0-.017.376l1.065.048a.188.188,0,0,0,.016-.376Z" transform="translate(-568.239 -319.34)" fill="#ffd769"/>
              </g>
              <g id="Group_12252" data-name="Group 12252" transform="translate(7.611 2.596)">
                <path id="Path_88842" data-name="Path 88842" d="M576.7,296.906l.769-.738a.188.188,0,0,0-.26-.271l-.769.738a.188.188,0,0,0,.26.271Z" transform="translate(-576.384 -295.844)" fill="#ffd769"/>
              </g>
              <g id="Group_12253" data-name="Group 12253" transform="translate(16.015 3.325)">
                <path id="Path_88843" data-name="Path 88843" d="M615.6,299.4l-.481.459c-.173.169-.433-.1-.26-.271l.425-.406Z" transform="translate(-614.804 -299.178)" fill="#ffd769"/>
              </g>
            </g>
            <g id="Group_12255" data-name="Group 12255" transform="translate(14.131 6.658)">
              <path id="Path_88844" data-name="Path 88844" d="M437.156,311.674l.222.379c.132.226.323.547.555.944,1.722,2.936,5.846,9.976,7.438,12.846,2.558,4.614-1.382,8.852-4.64,3.62-1.4-2.247-4.641-10.876-6.049-14.707-.149-.4-.276-.745-.377-1.028l-.3-.82Z" transform="translate(-434.008 -311.674)" fill="#ffa38a"/>
            </g>
            <g id="Group_12256" data-name="Group 12256" transform="translate(58.375 9.609)">
              <path id="Path_88845" data-name="Path 88845" d="M636.3,326.712l.138.417c.082.249.2.6.341,1.041,1.064,3.233,3.62,10.982,4.721,14.074,1.771,4.969,7.555,4.815,5.784-1.088-.759-2.537-5.092-10.673-7.035-14.261-.2-.375-.377-.7-.522-.963l-.419-.766Z" transform="translate(-636.302 -325.166)" fill="#ffa38a"/>
            </g>
            <g id="Group_12257" data-name="Group 12257" transform="translate(38.337 17.064)">
              <path id="Path_88846" data-name="Path 88846" d="M554.7,362.7l-.1-.237q-.124-.288-.271-.564c-.9-1.708-2.279-2.979-4.419-2.569-2.528.481-4.017,2.516-5.206,4.615a.15.15,0,0,0,.019.192,49.946,49.946,0,0,0,1.3,4.841,10.618,10.618,0,0,0,2.321,3.254c2.351.391,6.341.673,7.511-1.821C556.788,368.422,555.475,364.567,554.7,362.7Z" transform="translate(-544.681 -359.254)" fill="#ffa38a"/>
            </g>
            <g id="Group_12258" data-name="Group 12258" transform="translate(39.939 27.052)">
              <path id="Path_88847" data-name="Path 88847" d="M558.824,409.894l-.037-.5-.1-1.365-.068-.839-6.405-2.264s.038,5.014-.147,7.064c-.068.756-.218,1.512.606,2a4.6,4.6,0,0,0,2.941.068c1.053-.18,2.1-.526,3.163-.643a.238.238,0,0,0,.162-.019l.162-.056Z" transform="translate(-552.005 -404.922)" fill="#ffa38a"/>
            </g>
            <g id="Group_12259" data-name="Group 12259" transform="translate(43.394 22.74)">
              <path id="Path_88848" data-name="Path 88848" d="M568.557,385.815a1.054,1.054,0,0,0-.177-.434c-.193-.272-.492-.225-.565.1a.838.838,0,0,0,.126.562.328.328,0,0,0,.5.133.372.372,0,0,0,.116-.361Z" transform="translate(-567.803 -385.204)" fill="#2c2f33"/>
            </g>
            <g id="Group_12260" data-name="Group 12260" transform="translate(47.225 21.564)">
              <path id="Path_88849" data-name="Path 88849" d="M586.076,380.441a1.056,1.056,0,0,0-.177-.434c-.193-.272-.492-.225-.565.1a.838.838,0,0,0,.126.562.328.328,0,0,0,.5.133.372.372,0,0,0,.116-.361Z" transform="translate(-585.322 -379.83)" fill="#2c2f33"/>
            </g>
            <g id="Group_12261" data-name="Group 12261" transform="translate(46.603 23.366)">
              <path id="Path_88850" data-name="Path 88850" d="M583.212,389.7a.131.131,0,0,1-.095-.222,1.326,1.326,0,0,0,.342-.5,8.4,8.4,0,0,0-.921-.664.132.132,0,0,1,.143-.221c1.015.659,1.032.8,1.039.853.028.227-.28.575-.414.714A.131.131,0,0,1,583.212,389.7Z" transform="translate(-582.478 -388.067)" fill="#f27957"/>
            </g>
            <g id="Group_12262" data-name="Group 12262" transform="translate(45.827 25.523)">
              <path id="Path_88851" data-name="Path 88851" d="M581.7,397.954c-.081-.114-.573.2-1.129.364a10.408,10.408,0,0,1-1.185.245c-.1.018-.465.082-.458.217s.29.227.385.262a2.093,2.093,0,0,0,1.757-.128,1.436,1.436,0,0,0,.558-.569C581.726,398.155,581.75,398.02,581.7,397.954Z" transform="translate(-578.93 -397.929)" fill="#fff"/>
            </g>
            <g id="Group_12263" data-name="Group 12263" transform="translate(43.325 29.546)">
              <path id="Path_88852" data-name="Path 88852" d="M570.884,418.3a2.371,2.371,0,0,1-1.963-.433,4.361,4.361,0,0,0-.879-.555c-.25-.157-.66-.527-.526-.872.1-.248.481-.027.634.035a6.54,6.54,0,0,0,1.117.358,5.436,5.436,0,0,0,1.512.1Z" transform="translate(-567.49 -416.322)" fill="#f27957"/>
            </g>
            <g id="Group_12264" data-name="Group 12264" transform="translate(42.01 21.074)">
              <path id="Path_88853" data-name="Path 88853" d="M563.231,377.593a2.212,2.212,0,0,0-1.162.447,1.311,1.311,0,0,0-.591.806.578.578,0,0,0,0,.065c0,.1.121.078.184.061a4.427,4.427,0,0,0,.943-.485,5.964,5.964,0,0,1,.653-.255c.2-.079.437-.194.41-.443-.021-.2-.22-.206-.375-.2Z" transform="translate(-561.476 -377.589)" fill="#f2e1cb"/>
            </g>
            <g id="Group_12265" data-name="Group 12265" transform="translate(46.257 19.704)">
              <path id="Path_88854" data-name="Path 88854" d="M582.894,371.9c-.229.056-.47.075-.7.12a5.288,5.288,0,0,0-.666.218c-.2.064-.459.128-.6-.079-.109-.166.038-.3.162-.4l.049-.034a2.245,2.245,0,0,1,1.181-.4,2.7,2.7,0,0,1,.3,0Q582.77,371.608,582.894,371.9Z" transform="translate(-580.893 -371.325)" fill="#f2e1cb"/>
            </g>
            <g id="Group_12266" data-name="Group 12266" transform="translate(21.217 21.799)">
              <path id="Path_88855" data-name="Path 88855" d="M474.133,384.374l-3.209-3.469s-4.444.4-4.518,2.37c-.054,1.436,3.641,6.619,3.641,6.619l3.057-1.271Z" transform="translate(-466.406 -380.905)" fill="#ffa38a"/>
            </g>
            <g id="Group_12267" data-name="Group 12267" transform="translate(60.48 25.528)">
              <path id="Path_88856" data-name="Path 88856" d="M646.625,399.9l4.3-1.954s4.483,1.936,3.785,3.785c-.507,1.344-6.461,4.842-6.461,4.842l-2.326-2.357Z" transform="translate(-645.926 -397.951)" fill="#ffa38a"/>
            </g>
            <g id="Group_12268" data-name="Group 12268" transform="translate(9.752)">
              <path id="Path_88857" data-name="Path 88857" d="M419.116,283.4c-.024.256.215.61.28.788.083.226.278.668.2.9-.018.051-.479-.432-.5-.46-.214-.246-.421-.5-.627-.75-.4-.486-.783-.98-1.186-1.461-.161-.192-1.139-1.4-1.447-1.143-.217.18.329,1.1.494,1.347a14.187,14.187,0,0,1,1.1,1.916s-1.1-1.258-1.633-1.856c-.311-.346-.932-1.047-1.179-.791-.218.226.43,1.1.64,1.369.457.587,1.4,1.884,1.4,1.884l-1.214-1.151c-.234-.222-.47-.442-.723-.641-.167-.132-.516-.464-.685-.176-.1.174.036.367.127.515a4.619,4.619,0,0,0,.343.471,10.523,10.523,0,0,0,.73.8c.063.063.127.126.192.187a4,4,0,0,0-1.013-.617.218.218,0,0,0-.223.32c.113.23,3.162,3.309,3.521,3.689s.575.662.9.751a.154.154,0,0,0,.07.01,1.16,1.16,0,0,0,.634-.088c.6-.229,2.234-1.185,2.234-1.185a9.253,9.253,0,0,0-.447-2.421c-.238-.527-.564-1-.819-1.518-.137-.276-.565-1.163-1.008-.914a.274.274,0,0,0-.156.225Z" transform="translate(-413.987 -281.234)" fill="#ffa38a"/>
            </g>
            <g id="Group_12269" data-name="Group 12269" transform="translate(14.871 4.092)">
              <path id="Path_88858" data-name="Path 88858" d="M437.715,302.631a.132.132,0,0,1-.121-.079,3.143,3.143,0,0,1-.2-1.143,4.884,4.884,0,0,1,.237-1.376.132.132,0,0,1,.249.084,4.712,4.712,0,0,0-.223,1.291,2.939,2.939,0,0,0,.179,1.04.132.132,0,0,1-.069.173A.127.127,0,0,1,437.715,302.631Z" transform="translate(-437.393 -299.943)" fill="#f27957"/>
            </g>
            <g id="Group_12270" data-name="Group 12270" transform="translate(57.985 6.381)">
              <path id="Path_88859" data-name="Path 88859" d="M635.043,315.166a13.642,13.642,0,0,1-.475-2.529,4.65,4.65,0,0,1,.044-1.752c.133-.3.632-.158.992-.163s.7-.465,1.118-.263a14.722,14.722,0,0,0,1.488.267c.429.152.7.236.864.813.309,1.09-.714,3.251-.714,3.251l-1.3.591Z" transform="translate(-634.518 -310.407)" fill="#ffa38a"/>
            </g>
            <g id="Group_12271" data-name="Group 12271" transform="translate(48.988 0.274)">
              <path id="Path_88860" data-name="Path 88860" d="M608.066,292.937a.187.187,0,0,1-.107-.034l-14.5-10.075a.188.188,0,0,1,.215-.309l14.5,10.075a.188.188,0,0,1-.108.342Z" transform="translate(-593.38 -282.487)" fill="#2c2f33"/>
            </g>
            <g id="Group_12272" data-name="Group 12272" transform="translate(57.7 6.728)">
              <path id="Path_88861" data-name="Path 88861" d="M633.713,311.994s-.249.012-.37.548-.248,1.608.066,1.937c.436.459.953-.048.953-.048l1.046.3a1.918,1.918,0,0,0,1.11-.35,6.393,6.393,0,0,0,.993-1.821,14.764,14.764,0,0,0-1.6-.523C635.853,312.086,633.713,311.994,633.713,311.994Z" transform="translate(-633.213 -311.994)" fill="#ffa38a"/>
            </g>
            <g id="Group_12273" data-name="Group 12273" transform="translate(57.304 5.778)">
              <path id="Path_88862" data-name="Path 88862" d="M632.607,313.188a7.167,7.167,0,0,1-1.036-1.534,5.717,5.717,0,0,1,.011-2.8c.207-.87.176-1.047.477-1.187s.558.6.592,1.117-.019,1.841-.019,1.841Z" transform="translate(-631.401 -307.65)" fill="#ffa38a"/>
            </g>
            <g id="Group_12274" data-name="Group 12274" transform="translate(58.08 6.908)">
              <path id="Path_88863" data-name="Path 88863" d="M637.34,315.787a3.026,3.026,0,0,1-.97-.2,3.728,3.728,0,0,0-.707-.17,1.085,1.085,0,0,1-.6-.217c-.268-.239.008-1.53.2-2.278a.132.132,0,1,1,.255.065,5.789,5.789,0,0,0-.273,2.02.89.89,0,0,0,.466.151,3.99,3.99,0,0,1,.753.182c.707.252,1.1.2,1.18.117.109-.119.635-1.04.941-1.593a.132.132,0,1,1,.23.128c-.083.149-.812,1.463-.977,1.643A.654.654,0,0,1,637.34,315.787Z" transform="translate(-634.95 -312.819)" fill="#f27957"/>
            </g>
            <g id="Group_12275" data-name="Group 12275" transform="translate(60.075 7.117)">
              <path id="Path_88864" data-name="Path 88864" d="M644.2,316.115a.129.129,0,0,1-.047-.009.132.132,0,0,1-.076-.17l.8-2.079a.132.132,0,0,1,.246.1l-.8,2.079a.132.132,0,0,1-.123.084Z" transform="translate(-644.073 -313.773)" fill="#f27957"/>
            </g>
            <g id="Group_12276" data-name="Group 12276" transform="translate(59.275 7.115)">
              <path id="Path_88865" data-name="Path 88865" d="M640.548,315.837a.128.128,0,0,1-.042-.007.131.131,0,0,1-.082-.167l.612-1.807a.132.132,0,0,1,.249.084l-.612,1.808a.132.132,0,0,1-.125.089Z" transform="translate(-640.416 -313.766)" fill="#f27957"/>
            </g>
            <g id="Group_12277" data-name="Group 12277" transform="translate(58.606 6.877)">
              <path id="Path_88866" data-name="Path 88866" d="M637.488,314.8a.125.125,0,0,1-.036-.005.131.131,0,0,1-.091-.161c.014-.054.325-1.354.444-1.851a.135.135,0,0,1,.158-.1.132.132,0,0,1,.1.159c-.1.428-.436,1.827-.446,1.861A.132.132,0,0,1,637.488,314.8Z" transform="translate(-637.356 -312.677)" fill="#f27957"/>
            </g>
            <g id="Group_12285" data-name="Group 12285" transform="translate(56.195 129.015)">
              <g id="Group_12278" data-name="Group 12278">
                <path id="Path_88867" data-name="Path 88867" d="M629.9,871.665l-.084,3.791-1.686,1.522-1.306-1.855-.487-4.008Z" transform="translate(-626.331 -871.114)" fill="#ffa38a"/>
              </g>
              <g id="Group_12279" data-name="Group 12279" transform="translate(0.487 3.869)">
                <path id="Path_88868" data-name="Path 88868" d="M628.559,888.943s.065,3.927.23,4.374c.075.2,1.867-.347,3.338.4.62.314,1.06,1.06,1.622,1.144a11.024,11.024,0,0,0,2.781-.068c.022-.065.416-.59-1.418-1.851a48.911,48.911,0,0,1-3.562-3.665s-1.714-.473-1.7-.473S628.559,888.943,628.559,888.943Z" transform="translate(-628.559 -888.804)" fill="#ffa38a"/>
              </g>
              <g id="Group_12280" data-name="Group 12280" transform="translate(0.717 8.382)">
                <path id="Path_88869" data-name="Path 88869" d="M629.61,909.44s2.26.311,2.279.312,0,1.53,0,1.53H629.61Z" transform="translate(-629.61 -909.44)" fill="#2c2f33"/>
              </g>
              <g id="Group_12281" data-name="Group 12281" transform="translate(0.659 8.06)">
                <path id="Path_88870" data-name="Path 88870" d="M630.979,908.5a8.9,8.9,0,0,1,1.511.348c.39.178,1.34,1.2,1.842,1.277a5.778,5.778,0,0,0,.873.035c.394,0,.787-.005,1.181-.014a2.794,2.794,0,0,0,.786-.048c.072-.072.061-.354-.067-.365a18.3,18.3,0,0,1-2.773-.125,8.941,8.941,0,0,0-1.661-1.207c-.439-.133-3.326-.44-3.326-.44l.058,2.023,1.685-.924Z" transform="translate(-629.345 -907.965)" fill="#2c2f33"/>
              </g>
              <g id="Group_12282" data-name="Group 12282" transform="translate(0.516 5.749)">
                <path id="Path_88871" data-name="Path 88871" d="M631.18,900.1a6.33,6.33,0,0,0-.889-1.662,3.811,3.811,0,0,0-1.585-1.035s-.033,1.235,0,1.764a6.549,6.549,0,0,0,.21,1.152Z" transform="translate(-628.691 -897.4)" fill="#2c2f33"/>
              </g>
              <g id="Group_12283" data-name="Group 12283" transform="translate(0.531 4.342)">
                <path id="Path_88872" data-name="Path 88872" d="M628.759,892.373l2.948-1.407.458.507-2.785,1.407Z" transform="translate(-628.759 -890.966)" fill="#2c2f33"/>
              </g>
              <g id="Group_12284" data-name="Group 12284" transform="translate(5.877 8.175)">
                <path id="Path_88873" data-name="Path 88873" d="M653.2,910.24l1.4-1.747.455.358L654,910.24Z" transform="translate(-653.202 -908.493)" fill="#2c2f33"/>
              </g>
            </g>
            <g id="Group_12293" data-name="Group 12293" transform="translate(0 89.22)">
              <g id="Group_12286" data-name="Group 12286" transform="translate(6.607 2.216)">
                <path id="Path_88874" data-name="Path 88874" d="M403.806,703.474l-3.457-1.558-.743-2.146,2.218-.478,3.88,1.117Z" transform="translate(-399.606 -699.292)" fill="#ffa38a"/>
              </g>
              <g id="Group_12287" data-name="Group 12287" transform="translate(0.322 0.719)">
                <path id="Path_88875" data-name="Path 88875" d="M379.374,693.946s-3.641-1.473-4.117-1.5c-.216-.01-.41,1.854-1.671,2.917-.532.448-1.389.562-1.686,1.047a11.021,11.021,0,0,0-1.024,2.59c.051.046.381.613,2.258-.582a48.894,48.894,0,0,1,4.764-1.848s1.1-1.393,1.1-1.378S379.374,693.946,379.374,693.946Z" transform="translate(-370.871 -692.45)" fill="#ffa38a"/>
              </g>
              <g id="Group_12288" data-name="Group 12288" transform="translate(2.123)">
                <path id="Path_88876" data-name="Path 88876" d="M381.69,689.881s-1.169,1.959-1.177,1.977-1.408-.6-1.408-.6l.89-2.1Z" transform="translate(-379.105 -689.162)" fill="#2c2f33"/>
              </g>
              <g id="Group_12289" data-name="Group 12289" transform="translate(0 0.055)">
                <path id="Path_88877" data-name="Path 88877" d="M373.293,691.445a8.937,8.937,0,0,1-.91,1.255c-.316.289-1.627.765-1.895,1.2a5.813,5.813,0,0,0-.373.79c-.155.362-.3.727-.448,1.092a2.8,2.8,0,0,0-.263.743c.038.1.3.194.362.081a18.38,18.38,0,0,1,1.2-2.5,8.932,8.932,0,0,0,1.76-1.058c.294-.352,1.7-2.889,1.7-2.889l-1.885-.737.192,1.912Z" transform="translate(-369.399 -689.414)" fill="#2c2f33"/>
              </g>
              <g id="Group_12290" data-name="Group 12290" transform="translate(3.756 0.631)">
                <path id="Path_88878" data-name="Path 88878" d="M386.571,694.215a6.328,6.328,0,0,0,1.878-.169,3.809,3.809,0,0,0,1.571-1.055s-1.124-.513-1.624-.689a6.555,6.555,0,0,0-1.142-.257Z" transform="translate(-386.571 -692.045)" fill="#2c2f33"/>
              </g>
              <g id="Group_12291" data-name="Group 12291" transform="translate(6.497 1.576)">
                <path id="Path_88879" data-name="Path 88879" d="M399.812,696.368l.144,3.264-.645.223-.207-3.113Z" transform="translate(-399.103 -696.368)" fill="#2c2f33"/>
              </g>
              <g id="Group_12292" data-name="Group 12292" transform="translate(0.963 4.868)">
                <path id="Path_88880" data-name="Path 88880" d="M374.116,711.42l1.061,1.973-.508.279-.865-1.516Z" transform="translate(-373.804 -711.42)" fill="#2c2f33"/>
              </g>
            </g>
            <g id="Group_12294" data-name="Group 12294" transform="translate(37.929 16.549)">
              <path id="Path_88881" data-name="Path 88881" d="M551.481,357.749c-.076-.024-.151-.041-.227-.062a.143.143,0,0,0-.134-.157c-.145-.02-.469-.339-.6-.407a2.036,2.036,0,0,0-.6-.2,5.32,5.32,0,0,0-1.987.252,7.92,7.92,0,0,0-4.152,2.254,5.521,5.521,0,0,0-.877,4.192,9.331,9.331,0,0,0,.7,2.277c.329.756,1.439,2.878,1.439,2.878a13,13,0,0,0,.274-2.029,2.939,2.939,0,0,1-1.21-2.288,1.548,1.548,0,0,1,.552-1.176c.155-.112.485-.1.552-.223a1.281,1.281,0,0,0,0-.526c-.012-.176-.033-.351-.048-.526a4.211,4.211,0,0,1,2.407-3.638,5.4,5.4,0,0,1,3.822-.26C551.613,358.185,551.712,357.823,551.481,357.749Z" transform="translate(-542.815 -356.9)" fill="#f2e1cb"/>
            </g>
            <g id="Group_12295" data-name="Group 12295" transform="translate(40.091 25.666)">
              <path id="Path_88882" data-name="Path 88882" d="M553.421,398.656a.471.471,0,1,0,.2.615.471.471,0,0,0-.2-.615Z" transform="translate(-552.703 -398.585)" fill="#fff"/>
            </g>
            <g id="Group_12296" data-name="Group 12296" transform="translate(39.645 26.558)">
              <path id="Path_88883" data-name="Path 88883" d="M552.385,402.814c-.154-.143-1.471-.252-1.6,0a11.252,11.252,0,0,0,0,3.276,1.8,1.8,0,0,0,1.6,0,11.111,11.111,0,0,0,0-3.276Zm-.455,2.716c-.068.154-.617.173-.692,0a11.047,11.047,0,0,1,0-2.144c.056-.162.628-.09.692,0A11.008,11.008,0,0,1,551.93,405.53Z" transform="translate(-550.662 -402.664)" fill="#e04c4c"/>
            </g>
            <g id="Group_12297" data-name="Group 12297" transform="translate(31.399 31.552)">
              <path id="Path_88884" data-name="Path 88884" d="M537.629,449.417a3.319,3.319,0,0,1,.072.989,1.171,1.171,0,0,1-1.369,1.083l-15.523.933h0l-.978.056-2.234.135s-1.738-.937-1.14-3.81a9.995,9.995,0,0,0-.64-3.453c-.158-.538-.331-1.106-.519-1.7-.222-.7-.459-1.437-.7-2.166-.918-2.855-1.79-5.683-1.61-6.819.2-1.294,1.55-3.46,2.738-5.164.241-.342.47-.67.688-.963.685-.94,1.2-1.583,1.2-1.583s1.858-.162,4.047-.323c.91-.071,1.881-.139,2.8-.2.162-.007.32-.019.478-.026.594-.034,1.155-.064,1.655-.083s1.113-.049,1.756-.083c1.275-.072,2.731-.169,4.051-.271.369-.026.726-.056,1.068-.083h0a17.133,17.133,0,0,0,3.031-.387c.248-.237.688,3.968,1.377,8.85a40.5,40.5,0,0,1,.429,5.8,16.406,16.406,0,0,1-.929,6.082,4.186,4.186,0,0,0,.056,2.133C537.5,448.732,537.573,449.09,537.629,449.417Z" transform="translate(-512.962 -425.497)" fill="#6b4b3a"/>
            </g>
            <g id="Group_12298" data-name="Group 12298" transform="translate(46.78 26.56)">
              <path id="Path_88885" data-name="Path 88885" d="M603.267,412.092s-4.5,1.3-4.812,3.241-2,2.129-3.2,4.261c-.049.087-.094.169-.139.248-.327.583-.579,1.023-.809,1.365h0a3.319,3.319,0,0,1-1.068,1.106,5.883,5.883,0,0,1-.677.35,10.12,10.12,0,0,1-2.885.688l-3.754-8.771-.6-1.4h0l-2.042-4.766h0s1.993-.515,4.194-1.136l1.189-.338c.609-.177,1.207-.357,1.764-.53,1.147-.357,2.806-1,4.408-1.655l.948-.395c.651-.271,1.271-.538,1.817-.767.207-.09.4-.177.587-.256.918-.4,1.52-.666,1.52-.666Z" transform="translate(-583.286 -402.669)" fill="#6b4b3a"/>
            </g>
            <g id="Group_12299" data-name="Group 12299" transform="translate(21.91 23.261)">
              <path id="Path_88886" data-name="Path 88886" d="M489.642,403.675l-6.981,9.467a16.167,16.167,0,0,1-1.963-1.267,8.73,8.73,0,0,1-1.362-1.241c-1.185-1.38-.5-3.009-1.753-4.325-.357-.376-.816-.9-1.3-1.512-.105-.128-.207-.256-.309-.387-1.162-1.486-2.972-2.543-3.51-3.942a13.048,13.048,0,0,0-1.482-2.652c-.353-.5-.692-.94-.944-1.256-.278-.338-.459-.542-.459-.542l5.188-8.428q1.247,1.241,2.58,2.388a18.192,18.192,0,0,0,2.02,1.58.6.6,0,0,0,.068.041c.474.3.929.489,1.35.779a2.934,2.934,0,0,1,.591.527c.587.688,3.005,1.4,3.7,1.978a31.843,31.843,0,0,0,2.685,2.14l1.08,3.818.519,1.824Z" transform="translate(-469.575 -387.588)" fill="#6b4b3a"/>
            </g>
            <g id="Group_12300" data-name="Group 12300" transform="translate(28.305 33.914)">
              <path id="Path_88887" data-name="Path 88887" d="M505.359,436.982a.621.621,0,0,0-.045-.173.823.823,0,0,0-1.335-.3c-.388.271-.673.666-1.061.948a10.511,10.511,0,0,0-1.256.929,4.535,4.535,0,0,0-.978,2.039c-.151.5-.237,1.064-.715,1.365-.414.26-.782.421-1.155.669.1.132.2.26.309.387,1-.82,2.4-1.091,3.25-2.151a9.9,9.9,0,0,0,.82-1.52,3.065,3.065,0,0,1,1.4-1.192.731.731,0,0,1,.075-.041C505.039,437.727,505.426,437.422,505.359,436.982Z" transform="translate(-498.814 -436.295)" fill="#d38f4e"/>
            </g>
            <g id="Group_12301" data-name="Group 12301" transform="translate(27.915 27.27)">
              <path id="Path_88888" data-name="Path 88888" d="M500.884,405.919a2.653,2.653,0,0,1-1,1.14c-.73.564-1.313,1.3-1.99,1.93-.35.323-1.034.88-.813,1.448.15.376.515.387.854.274a2.09,2.09,0,0,0,1.159-1.267,2.207,2.207,0,0,1,1.452-1.256,2.654,2.654,0,0,0,.85-.47,3.563,3.563,0,0,0,.842-1.019C501.813,406.408,501.357,406.216,500.884,405.919Z" transform="translate(-497.034 -405.919)" fill="#d38f4e"/>
            </g>
            <g id="Group_12302" data-name="Group 12302" transform="translate(22.369 28.026)">
              <path id="Path_88889" data-name="Path 88889" d="M475.924,409.7c-.493-1.049-1.561.79-1.786,1.121a26,26,0,0,1-2.326,2.6,1.883,1.883,0,0,0-.139.162c.252.316.591.752.944,1.256a16.084,16.084,0,0,0,1.3-1.545,15.054,15.054,0,0,0,1.553-2.2C475.68,410.737,476.135,410.146,475.924,409.7Z" transform="translate(-471.673 -409.375)" fill="#d38f4e"/>
            </g>
            <g id="Group_12303" data-name="Group 12303" transform="translate(36.554 35.129)">
              <path id="Path_88890" data-name="Path 88890" d="M542.659,442.173a3.011,3.011,0,0,1-.538-.321c-.048.1-.093.2-.147.3a5.573,5.573,0,0,1-.827,1.087c-.229.252-.474.489-.715.733a10.942,10.942,0,0,1-1.621,1.5,5.342,5.342,0,0,0-2.189,2.016c-.169.4-.143.884.361.948.553.068,1.207-.587,1.583-.929.447-.41.775-.94,1.237-1.332.534-.459,1.237-.669,1.809-1.076a.306.306,0,0,0,.052-.041,3.148,3.148,0,0,0,.955-1.1,8.174,8.174,0,0,1-2.565,5.375c-.274.259-1.7,1.832-.425,1.817.5,0,1-.6,1.3-.929a4.312,4.312,0,0,0,.436-.542c.357-.542.824-.925,1.211-1.433a3.579,3.579,0,0,0,.624-2.11c.059-1.054.044-2.112.031-3.169A3.352,3.352,0,0,1,542.659,442.173Z" transform="translate(-536.528 -441.852)" fill="#d38f4e"/>
            </g>
            <g id="Group_12304" data-name="Group 12304" transform="translate(33.729 47.106)">
              <path id="Path_88891" data-name="Path 88891" d="M529.927,496.744c-.308-.3-.7-.019-.967.2a7.983,7.983,0,0,1-2.806,1.768c-.82.252-1.711.286-2.543.5.188.591.361,1.159.519,1.7,1.057-.056,1.963-.831,2.9-1.249C527.573,499.422,531.116,497.914,529.927,496.744Z" transform="translate(-523.612 -496.612)" fill="#d38f4e"/>
            </g>
            <g id="Group_12305" data-name="Group 12305" transform="translate(38.261 48.558)">
              <path id="Path_88892" data-name="Path 88892" d="M553.621,503.4c-.312-.361-.888.007-1.162.222-.478.361-.831.858-1.3,1.226A8.412,8.412,0,0,0,549.8,506a29.555,29.555,0,0,0-1.648,2.591c-.752,1.1-1.986,1.651-2.791,2.723a6.734,6.734,0,0,0-1.023,1.918l.978-.056h0c.339-.353.572-.793.9-1.166.948-1.083,2.054-2.024,2.983-3.137.451-.538.876-1.113,1.373-1.61a6.777,6.777,0,0,1,1.568-1.012,3.024,3.024,0,0,0,1.3-1.512C553.584,504.408,553.915,503.738,553.621,503.4Z" transform="translate(-544.335 -503.248)" fill="#d38f4e"/>
            </g>
            <g id="Group_12306" data-name="Group 12306" transform="translate(48.255 30.829)">
              <path id="Path_88893" data-name="Path 88893" d="M592.748,422.526a3.461,3.461,0,0,1-.056.519,3.363,3.363,0,0,1-.086.35,15.342,15.342,0,0,1-.993,2.065,17.3,17.3,0,0,0-.752,2.287c-.075.233-.165.459-.263.685h0a6.782,6.782,0,0,0-.564,1.617.188.188,0,0,0,.132.229,1.07,1.07,0,0,0,1.031-.448,4.888,4.888,0,0,0,.481-.685,15.785,15.785,0,0,0,1.17-3.3,19.94,19.94,0,0,0,.816-2.482.35.35,0,0,1,.011-.057h0c.075-.338.2-.737.263-1.121Z" transform="translate(-590.029 -422.188)" fill="#d38f4e"/>
            </g>
            <g id="Group_12307" data-name="Group 12307" transform="translate(59.576 27.225)">
              <path id="Path_88894" data-name="Path 88894" d="M643.968,406.443a5.037,5.037,0,0,1-.068-.73c-.184.079-.38.166-.587.256-.165.3-.35.587-.519.888a3.2,3.2,0,0,0-.4,1.016c-.053.3.019.587-.007.88a4.381,4.381,0,0,1-.312,1.076c-.214.681-.594,3.122.2,3.656.993.673,1.019-1.79,1.023-2.23a5.293,5.293,0,0,1,.391-2.178,4.7,4.7,0,0,0,.38-1.2,5.1,5.1,0,0,0-.1-1.434Z" transform="translate(-641.791 -405.713)" fill="#d38f4e"/>
            </g>
            <g id="Group_12308" data-name="Group 12308" transform="translate(56.744 28.248)">
              <path id="Path_88895" data-name="Path 88895" d="M630.434,410.786c-.056.135-.117.271-.184.4-.335.658-.8,1.234-1.091,1.918-.166.391-.669,1.553.1,1.64.918.1,1.14-1.369,1.211-1.96.109-.876.763-1.4.9-2.264.008-.045.011-.086.015-.131Q630.914,410.588,630.434,410.786Z" transform="translate(-628.844 -410.391)" fill="#d38f4e"/>
            </g>
            <g id="Group_12309" data-name="Group 12309" transform="translate(56.023 35.983)">
              <path id="Path_88896" data-name="Path 88896" d="M627.629,451.709a20.265,20.265,0,0,1-.184-2.524c-.045-.466-.489-4.111-1.6-3.321-.463.331-.267,1.35-.2,1.8s.188.918.267,1.38c.139.786-.011,1.591.131,2.362a5.018,5.018,0,0,0,.719,1.32,11.38,11.38,0,0,1,.568,2.136c.229-.342.481-.782.809-1.365C627.975,452.9,627.76,452.319,627.629,451.709Z" transform="translate(-625.547 -445.753)" fill="#d38f4e"/>
            </g>
            <g id="Group_12310" data-name="Group 12310" transform="translate(45.695 40.72)">
              <path id="Path_88897" data-name="Path 88897" d="M583.664,470.662a11.244,11.244,0,0,1-1.234-.636c-.44-.3-.839-.669-1.279-.978a9.015,9.015,0,0,0-1.215-.722c-.158-.079-.512-.192-.8-.338a2.285,2.285,0,0,1-.056-.3.193.193,0,0,0-.365-.075l-.011-.023c-.026-.237-.406-.237-.376,0a.962.962,0,0,0,.512.707,2.112,2.112,0,0,0,.715.933c.274.214.587.361.88.557.421.278.7.7,1.087,1.008a5.413,5.413,0,0,0,.835.447,3.075,3.075,0,0,1,.914.888,1.133,1.133,0,0,0,1.207.478C585.417,472.268,584.149,470.91,583.664,470.662Z" transform="translate(-578.325 -467.411)" fill="#d38f4e"/>
            </g>
            <g id="Group_12311" data-name="Group 12311" transform="translate(48.968 52.808)">
              <path id="Path_88898" data-name="Path 88898" d="M600.185,524.3a6.918,6.918,0,0,0-1.734-.3,9.35,9.35,0,0,1-3.471-.824c-.365-.207-.974-.711-1.437-.38-1.053.756,1.5,1.29,1.8,1.328,1.136.143,2.163.658,3.276.91.519.117,1.155.184,1.764.316C600.332,525.02,600.257,524.663,600.185,524.3Z" transform="translate(-593.29 -522.684)" fill="#d38f4e"/>
            </g>
            <g id="Group_12312" data-name="Group 12312" transform="translate(40.089 31.728)">
              <path id="Path_88899" data-name="Path 88899" d="M559.958,430.386c0,.685-.045,1.5-.094,2.309-.087,1.456-1,7.383-1,7.383a19.946,19.946,0,0,1-2.174-4.75,20.063,20.063,0,0,0-1.7-3.889c-.177-.342-.357-.685-.534-1.019-.914-1.7-1.76-3.156-1.76-3.156l2.5-.967,4.186.575a20.664,20.664,0,0,0,.444,2.2,2.113,2.113,0,0,1,.075.369,6.9,6.9,0,0,1,.057.945Z" transform="translate(-552.695 -426.298)" fill="#ffa38a"/>
            </g>
            <g id="Group_12313" data-name="Group 12313" transform="translate(34.68 57.544)">
              <path id="Path_88900" data-name="Path 88900" d="M553.163,617.726h-11.4s-.3-12.664-1.1-17.177-.3-10.75-1.557-16.422c-.515-2.324-1.17-5.443-1.843-8.677-1.452-6.988-2.994-14.548-3.419-15.963-.621-2.065-5.886-9.839-5.886-9.839l.384-1.2.6-1.862.361-1.125,18.742-1.128s.2.451.5,1.264c.181.478.4,1.076.647,1.787a62.4,62.4,0,0,1,3.46,18.057c.177,7.786.252,23.068.5,27.581S553.163,617.726,553.163,617.726Z" transform="translate(-527.963 -544.337)" fill="#f2e1cb"/>
            </g>
            <g id="Group_12314" data-name="Group 12314" transform="translate(24.777 58.673)">
              <path id="Path_88901" data-name="Path 88901" d="M504.627,561.013l-.891,14.951s-.734,1.429-1.843,3.517c-2.983,5.6-8.692,15.921-10.249,15.854-2.133-.094-8.959-5.454-8.959-5.454A21.8,21.8,0,0,1,484,585.589a9.232,9.232,0,0,0,.88-2.543c.489-1.647.929-3.31,1.343-4.98,1.207-4.852.8-9.858,2.148-14.68a78.425,78.425,0,0,1,4.228-10.911c.282-.624.56-1.241.835-1.858.169-.376.335-.748.5-1.121l1.076,1.159,1.749,1.884Z" transform="translate(-482.684 -549.496)" fill="#f2e1cb"/>
            </g>
            <g id="Group_12315" data-name="Group 12315" transform="translate(8.353 88.557)">
              <path id="Path_88902" data-name="Path 88902" d="M433.851,701.546a7.89,7.89,0,0,1-5.134,2.137c-3.134.063-21.125-6.77-21.125-6.77l3.322-10.782a26.713,26.713,0,0,0,5.516,2.006c1.881.251,2.131-.251,4.639,1.066s5.642.878,7.083,1.191a5.174,5.174,0,0,1,2.821,2.257C431.224,693.089,433.851,701.546,433.851,701.546Z" transform="translate(-407.591 -686.131)" fill="#f2e1cb"/>
            </g>
            <g id="Group_12316" data-name="Group 12316" transform="translate(34.692 58.808)">
              <path id="Path_88903" data-name="Path 88903" d="M549.243,551.9c-.888.128-1.775.26-2.667.357-2.167.244-4.344.229-6.522.267-2.087.034-4.137.256-6.213.421-.557.045-1.109.068-1.666.075-1.26.026-2.524-.023-3.788-.056-.124,0-.248,0-.372-.008.282-.624.56-1.241.835-1.858h.139c.478.011.959.026,1.437.034,1.14.019,2.279.019,3.415-.072,2.076-.166,4.126-.387,6.213-.421,2.178-.038,4.355-.023,6.522-.267.677-.075,1.35-.169,2.02-.263C548.777,550.593,549,551.191,549.243,551.9Z" transform="translate(-528.015 -550.115)" fill="#b46f4d"/>
            </g>
            <g id="Group_12317" data-name="Group 12317" transform="translate(45.319 59.039)">
              <path id="Path_88904" data-name="Path 88904" d="M578.214,553.623a2.07,2.07,0,0,1-1-.243,1.078,1.078,0,0,1-.6-.829c-.061-.671.661-1.286,1.609-1.372a2.149,2.149,0,0,1,1.228.233,1.077,1.077,0,0,1,.6.829h0a1.077,1.077,0,0,1-.443.923,2.141,2.141,0,0,1-1.166.449C578.362,553.619,578.287,553.623,578.214,553.623Zm.228-2.192a1.5,1.5,0,0,0-.2.009c-.8.073-1.418.56-1.371,1.087a.824.824,0,0,0,.467.623,2.021,2.021,0,0,0,2.1-.189.824.824,0,0,0,.348-.7h0a.824.824,0,0,0-.467-.623,1.809,1.809,0,0,0-.877-.207Z" transform="translate(-576.605 -551.168)" fill="#fff"/>
            </g>
            <g id="Group_12318" data-name="Group 12318" transform="translate(53.116 58.497)">
              <rect id="Rectangle_4319" data-name="Rectangle 4319" width="0.376" height="3.392" transform="translate(0 0.08) rotate(-12.243)" fill="#f5e4df"/>
            </g>
            <g id="Group_12319" data-name="Group 12319" transform="translate(38.073 59.193)">
              <rect id="Rectangle_4320" data-name="Rectangle 4320" width="3.231" height="0.376" transform="translate(0 3.197) rotate(-81.689)" fill="#f5e4df"/>
            </g>
            <g id="Group_12320" data-name="Group 12320" transform="translate(44.116 61.591)">
              <path id="Path_88905" data-name="Path 88905" d="M571.236,589.543a.128.128,0,0,1-.037,0,.131.131,0,0,1-.09-.163c.019-.066,1.917-6.65,2.472-8.694q.165-.6.306-1.1a19.267,19.267,0,0,0,.785-3.736c.281-2.81-.146-12.767-.15-12.867a.132.132,0,1,1,.263-.011c0,.1.432,10.076.149,12.905a19.474,19.474,0,0,1-.794,3.781c-.094.334-.2.7-.3,1.1-.556,2.046-2.454,8.631-2.473,8.7A.132.132,0,0,1,571.236,589.543Z" transform="translate(-571.104 -562.839)" fill="#fff"/>
            </g>
            <g id="Group_12321" data-name="Group 12321" transform="translate(47.779 61.408)">
              <path id="Path_88906" data-name="Path 88906" d="M587.987,575.082a.132.132,0,0,1-.046-.255c.015-.005,1.525-.585,1.7-1.776.184-1.258-.341-10.816-.346-10.912a.131.131,0,0,1,.124-.139.137.137,0,0,1,.139.124c.022.4.531,9.682.343,10.965-.2,1.347-1.8,1.96-1.868,1.985A.139.139,0,0,1,587.987,575.082Z" transform="translate(-587.855 -562)" fill="#fff"/>
            </g>
            <g id="Group_12322" data-name="Group 12322" transform="translate(25.746 92.763)">
              <path id="Path_88907" data-name="Path 88907" d="M487.274,712.647a.131.131,0,0,1-.131-.126c0-.015-.062-1.479,0-2.971a20.39,20.39,0,0,1,.9-4.1.132.132,0,0,1,.25.081,20.586,20.586,0,0,0-.883,4.028c-.062,1.482,0,2.934,0,2.949a.132.132,0,0,1-.126.137Z" transform="translate(-487.114 -705.361)" fill="#fff"/>
            </g>
            <g id="Group_12323" data-name="Group 12323" transform="translate(36.811 16.203)">
              <path id="Path_88908" data-name="Path 88908" d="M537.835,357.729a.131.131,0,0,1-.12-.185,4.7,4.7,0,0,1,.961-1.372,6.791,6.791,0,0,1,1.2-.841.132.132,0,0,1,.123.233,6.63,6.63,0,0,0-1.149.8,4.513,4.513,0,0,0-.9,1.284.131.131,0,0,1-.115.081Z" transform="translate(-537.703 -355.315)" fill="#fff"/>
            </g>
            <g id="Group_12324" data-name="Group 12324" transform="translate(36.458 19.728)">
              <path id="Path_88909" data-name="Path 88909" d="M538.679,374.66h-.01a2.5,2.5,0,0,1-1.657-.932,5.911,5.911,0,0,1-.919-2.135.132.132,0,1,1,.258-.053,5.758,5.758,0,0,0,.868,2.026,2.268,2.268,0,0,0,1.47.832.132.132,0,0,1-.01.263Z" transform="translate(-536.091 -371.435)" fill="#fff"/>
            </g>
            <g id="Group_12325" data-name="Group 12325" transform="translate(37.633 21.033)">
              <path id="Path_88910" data-name="Path 88910" d="M543.56,378.8a.137.137,0,0,1-.03,0,6.109,6.109,0,0,1-.928-.336,3.391,3.391,0,0,1-1.107-.848.132.132,0,1,1,.2-.168,3.17,3.17,0,0,0,1.009.774,6.027,6.027,0,0,0,.883.322.132.132,0,0,1-.03.26Z" transform="translate(-541.465 -377.402)" fill="#fff"/>
            </g>
            <g id="Group_12326" data-name="Group 12326" transform="translate(40.572 15.654)">
              <path id="Path_88911" data-name="Path 88911" d="M558.1,354.489a.131.131,0,0,1-.109-.057,3.635,3.635,0,0,0-1.111-1.059,3.149,3.149,0,0,0-1.821-.263.132.132,0,0,1-.06-.256,3.36,3.36,0,0,1,1.988.278,3.827,3.827,0,0,1,1.221,1.151.132.132,0,0,1-.034.183A.13.13,0,0,1,558.1,354.489Z" transform="translate(-554.901 -352.808)" fill="#fff"/>
            </g>
            <g id="Group_12327" data-name="Group 12327" transform="translate(34.939 14.78)">
              <path id="Path_88912" data-name="Path 88912" d="M530.538,351.958a1.3,1.3,0,0,1-1.2-.894,3.357,3.357,0,0,1,0-2.165.132.132,0,0,1,.248.087,3.145,3.145,0,0,0,0,1.973,1.009,1.009,0,0,0,1.012.733.132.132,0,0,1,.04.26A.648.648,0,0,1,530.538,351.958Z" transform="translate(-529.148 -348.811)" fill="#fff"/>
            </g>
            <g id="Group_12328" data-name="Group 12328" transform="translate(35.589 14.545)">
              <path id="Path_88913" data-name="Path 88913" d="M532.574,349.914a.129.129,0,0,1-.1-.043,1.791,1.791,0,0,1-.273-.69,4.906,4.906,0,0,1-.069-1.324.132.132,0,1,1,.262.021,4.761,4.761,0,0,0,.062,1.238,1.814,1.814,0,0,0,.217.583.132.132,0,0,1-.1.215Z" transform="translate(-532.118 -347.735)" fill="#fff"/>
            </g>
            <g id="Group_12329" data-name="Group 12329" transform="translate(63.444 26.554)">
              <path id="Path_88914" data-name="Path 88914" d="M661.2,405.909a.133.133,0,0,1-.117-.07l-1.587-3a.132.132,0,1,1,.233-.123l1.587,3a.131.131,0,0,1-.116.193Z" transform="translate(-659.477 -402.645)" fill="#f27957"/>
            </g>
            <g id="Group_12331" data-name="Group 12331" transform="translate(41.85 34.872)">
              <g id="Group_12330" data-name="Group 12330">
                <path id="Path_88915" data-name="Path 88915" d="M566.246,441.618c-.478,1.17-1.264,2.527-2.328,2.527a5.025,5.025,0,0,1-2.641-1.474c-.177-.342-.357-.685-.534-1.019,1.091,1.072,2.374,2.117,3.175,2.117,1.031,0,1.854-1.82,2.276-3.1a6.907,6.907,0,0,1,.052.949Z" transform="translate(-560.743 -440.674)" fill="#fff"/>
              </g>
            </g>
            <g id="Group_12332" data-name="Group 12332" transform="translate(44.907 38.251)">
              <path id="Path_88916" data-name="Path 88916" d="M575.454,456.73c0,.335-.164.607-.367.607s-.367-.272-.367-.607.164-.607.367-.607S575.454,456.395,575.454,456.73Z" transform="translate(-574.72 -456.123)" fill="#fff"/>
            </g>
          </g>
          <g id="Group_12402" data-name="Group 12402" transform="translate(888.203 405.879)">
            <g id="Group_12334" data-name="Group 12334" transform="translate(80.354 31.712)">
              <path id="Path_88917" data-name="Path 88917" d="M1002.33,329.739c.448-1.318.681-2.973,2.29-3.23a8.964,8.964,0,0,1,2.775-.109,3.033,3.033,0,0,1,1.566.789,3.645,3.645,0,0,1,.709.017,2.283,2.283,0,0,1,.907.367,2.415,2.415,0,0,1,.553.551,4.718,4.718,0,0,0,.443.671,3.744,3.744,0,0,0,.642.339,3.8,3.8,0,0,1,1.448,1.744,1.9,1.9,0,0,1-.287,1.724,5.093,5.093,0,0,1-.743,1.918c-.412.662-.82,1.322-1.237,1.982a9.281,9.281,0,0,1-.859,1.461c-.157.168-.408-.084-.252-.252a5.27,5.27,0,0,0,.693-1.174,9.682,9.682,0,0,1-6.806-1.739,27.581,27.581,0,0,1-2.416-2.5,11.632,11.632,0,0,1,.574-2.559Z" transform="translate(-1001.755 -326.331)" fill="#d67545"/>
            </g>
            <g id="Group_12335" data-name="Group 12335" transform="translate(52.884 47.593)">
              <path id="Path_88918" data-name="Path 88918" d="M1165.63,403.049a12.916,12.916,0,0,0-1.239-2.1c-.586-.714-.785-1.063-1.125-1.221-.28-.13-.71-.337-.969-.116a3.6,3.6,0,0,0-.8,1.129c-.169.4-.69.754-.8,1.172a1.263,1.263,0,0,0,.23,1.258,5.98,5.98,0,0,0,2.1,1.678l1.3-.39Z" transform="translate(-1160.622 -399.518)" fill="#ffa38a"/>
            </g>
            <g id="Group_12336" data-name="Group 12336" transform="translate(53.907 38.948)">
              <path id="Path_88919" data-name="Path 88919" d="M1168.55,379.48a.186.186,0,0,0,.179-.132,2.3,2.3,0,0,0-.25-1.787c-.385-.6-.3-.891-.08-1.589.032-.1.066-.215.1-.336a2.74,2.74,0,0,0,.047-1.334,3.615,3.615,0,0,1-.04-1.082,15.8,15.8,0,0,1,1.719-3.582l.033-.053-.878-9.737a.189.189,0,0,0-.2-.169.187.187,0,0,0-.169.2l.866,9.613a14.991,14.991,0,0,0-1.739,3.68,3.985,3.985,0,0,0,.041,1.183,2.4,2.4,0,0,1-.036,1.173c-.035.119-.069.228-.1.331a1.865,1.865,0,0,0,.122,1.9,1.939,1.939,0,0,1,.208,1.477.186.186,0,0,0,.124.233.175.175,0,0,0,.053.011Z" transform="translate(-1167.838 -359.679)" fill="#2c2f33"/>
            </g>
            <g id="Group_12337" data-name="Group 12337" transform="translate(53.008 47.753)">
              <path id="Path_88920" data-name="Path 88920" d="M1166.49,400.291s.185-.147.606.16,1.18.991,1.162,1.421c-.025.6-.709.56-.709.56l-.558.865a1,1,0,0,1-.793.593,7.27,7.27,0,0,1-2.06-.828,14.012,14.012,0,0,1,.814-1.371C1165.02,401.692,1166.49,400.291,1166.49,400.291Z" transform="translate(-1164.139 -400.256)" fill="#ffa38a"/>
            </g>
            <g id="Group_12338" data-name="Group 12338" transform="translate(54.82 46.95)">
              <path id="Path_88921" data-name="Path 88921" d="M1163.29,400.853a6.8,6.8,0,0,0-.219-1.739,5.417,5.417,0,0,0-1.754-1.988c-.69-.491-.779-.636-1.08-.548s-.022.777.275,1.165,1.162,1.3,1.162,1.3Z" transform="translate(-1160.109 -396.554)" fill="#ffa38a"/>
            </g>
            <g id="Group_12339" data-name="Group 12339" transform="translate(53.449 48.076)">
              <path id="Path_88922" data-name="Path 88922" d="M1166.71,405.32c.284,0,.648-.351.982-.951a3.492,3.492,0,0,1,.4-.561,1.032,1.032,0,0,0,.295-.534c.042-.34-.962-1.089-1.563-1.505a.131.131,0,0,0-.149.215,5.546,5.546,0,0,1,1.453,1.264.846.846,0,0,1-.236.393,3.739,3.739,0,0,0-.424.6c-.345.618-.648.83-.762.817-.151-.017-1.1-.345-1.663-.548a.131.131,0,1,0-.089.246c.152.055,1.491.536,1.723.562Z" transform="translate(-1164.869 -401.745)" fill="#f27957"/>
            </g>
            <g id="Group_12340" data-name="Group 12340" transform="translate(53.554 49.78)">
              <path id="Path_88923" data-name="Path 88923" d="M1172.8,410.84a.13.13,0,0,0,.061-.246l-1.868-.981a.13.13,0,1,0-.121.231l1.868.981a.13.13,0,0,0,.06.015Z" transform="translate(-1170.797 -409.598)" fill="#f27957"/>
            </g>
            <g id="Group_12341" data-name="Group 12341" transform="translate(54.258 49.162)">
              <path id="Path_88924" data-name="Path 88924" d="M1170.65,407.917a.13.13,0,0,0,.066-.243l-1.563-.906a.131.131,0,1,0-.131.226l1.563.906a.127.127,0,0,0,.065.017Z" transform="translate(-1168.955 -406.75)" fill="#f27957"/>
            </g>
            <g id="Group_12342" data-name="Group 12342" transform="translate(54.76 48.494)">
              <path id="Path_88925" data-name="Path 88925" d="M1168.86,404.953a.13.13,0,0,0,.072-.239c-.053-.036-1.471-1.042-1.471-1.042l-.151.213c.34.241,1.45,1.029,1.479,1.048A.129.129,0,0,0,1168.86,404.953Z" transform="translate(-1167.307 -403.672)" fill="#f27957"/>
            </g>
            <g id="Group_12343" data-name="Group 12343" transform="translate(49.874 28.576)">
              <path id="Path_88926" data-name="Path 88926" d="M1169.68,313.278l2.678,7.273a2.066,2.066,0,0,1-1.187,2.639h0a2.066,2.066,0,0,1-2.677-1.175l-2.814-7.222a2.138,2.138,0,0,1,1.246-2.78h0a2.139,2.139,0,0,1,2.754,1.265Z" transform="translate(-1165.531 -311.878)" fill="#e04c4c"/>
            </g>
            <g id="Group_12344" data-name="Group 12344" transform="translate(78.85 34.759)">
              <path id="Path_88927" data-name="Path 88927" d="M1015.25,344.392c.054-.164.1-.317.15-.456.021-.075.05-.157.075-.232V343.7q.053-.16.118-.32c.029-.075.061-.15.093-.224.043-.1.086-.2.132-.292.734-1.535,1.923-2.674,3.85-2.46,2.422.271,3.981,2.081,5.256,3.976a.139.139,0,0,1-.007.182,45.708,45.708,0,0,1-.87,4.666,20.986,20.986,0,0,0-.424,3.188c-2.191.544-7.077.9-8.847-1.309C1013.35,349.325,1014.61,346.333,1015.25,344.392Z" transform="translate(-1014.124 -340.375)" fill="#ffa38a"/>
            </g>
            <g id="Group_12345" data-name="Group 12345" transform="translate(82.621 43.494)">
              <path id="Path_88928" data-name="Path 88928" d="M1020.25,380.629s.412,5.154.8,7.063c.139.7.36,1.4-.367,1.952a4.363,4.363,0,0,1-2.76.363c-1.011-.061-2.027-.282-3.042-.282a.224.224,0,0,1-.153,0l-.413-.068c-.018-.527-.071-2.333-.113-3.8-.025-.7-.043-1.322-.053-1.688-.007-.217-.01-.346-.01-.346Z" transform="translate(-1014.138 -380.629)" fill="#ffa38a"/>
            </g>
            <g id="Group_12346" data-name="Group 12346" transform="translate(84.408 39.563)">
              <path id="Path_88929" data-name="Path 88929" d="M1035.23,363.13a1,1,0,0,1,.126-.425c.157-.274.443-.257.542.043a.792.792,0,0,1-.066.541.311.311,0,0,1-.459.171.352.352,0,0,1-.143-.33Z" transform="translate(-1035.228 -362.51)" fill="#2c2f33"/>
            </g>
            <g id="Group_12347" data-name="Group 12347" transform="translate(80.591 38.652)">
              <path id="Path_88930" data-name="Path 88930" d="M1052.91,358.918a.969.969,0,0,1,.123-.414c.152-.267.431-.25.527.042a.774.774,0,0,1-.064.527.3.3,0,0,1-.446.167.344.344,0,0,1-.14-.322Z" transform="translate(-1052.907 -358.315)" fill="#2c2f33"/>
            </g>
            <g id="Group_12348" data-name="Group 12348" transform="translate(80.893 40.17)">
              <path id="Path_88931" data-name="Path 88931" d="M1049.76,366.95a.13.13,0,0,0,.091-.224,1.274,1.274,0,0,1-.339-.457,8.962,8.962,0,0,1,.853-.728.131.131,0,0,0-.161-.206c-.936.729-.947.857-.952.912-.019.218.285.539.417.666A.129.129,0,0,0,1049.76,366.95Z" transform="translate(-1049.254 -365.307)" fill="#f27957"/>
            </g>
            <g id="Group_12349" data-name="Group 12349" transform="translate(82.632 46.446)">
              <path id="Path_88932" data-name="Path 88932" d="M1032.51,394.82c.01.367.028.986.053,1.688a1.124,1.124,0,0,1,.157-.007,2.113,2.113,0,0,0,1.514-.623,3.955,3.955,0,0,0,1.314-1.335c.1-.3-.115-.469-1.144-.092a5.683,5.683,0,0,1-1.894.369Z" transform="translate(-1032.508 -394.233)" fill="#f27957"/>
            </g>
            <g id="Group_12352" data-name="Group 12352" transform="translate(80.656 42.269)">
              <g id="Group_12350" data-name="Group 12350">
                <path id="Path_88933" data-name="Path 88933" d="M1048.56,376.963c.52.014.99-.723,1.168-1.186a.638.638,0,0,0,.068-.339,2.476,2.476,0,0,0-1.418-.435,1.534,1.534,0,0,0-.107.338C1048.14,375.9,1048.03,376.945,1048.56,376.963Z" transform="translate(-1048.161 -374.98)" fill="#e04c4c"/>
              </g>
              <g id="Group_12351" data-name="Group 12351" transform="translate(0.108)">
                <path id="Path_88934" data-name="Path 88934" d="M1048.16,375.343a3.248,3.248,0,0,0,1.118.378c.075.014.2.039.338.057a.637.637,0,0,0,.068-.339,2.475,2.475,0,0,0-1.418-.435A1.542,1.542,0,0,0,1048.16,375.343Z" transform="translate(-1048.161 -374.98)" fill="#fff"/>
              </g>
            </g>
            <g id="Group_12353" data-name="Group 12353" transform="translate(84.001 38.239)">
              <path id="Path_88935" data-name="Path 88935" d="M1030.56,356.413a2.1,2.1,0,0,1,.509.046,2.074,2.074,0,0,1,1.259.77c.1.166-.037.27-.224.2a6.4,6.4,0,0,0-1.309-.322c-.236-.031-.652-.077-.632-.4C1030.17,356.5,1030.35,356.427,1030.56,356.413Z" transform="translate(-1030.158 -356.41)" fill="#d67545"/>
            </g>
            <g id="Group_12354" data-name="Group 12354" transform="translate(80.319 37.244)">
              <path id="Path_88936" data-name="Path 88936" d="M1049.37,352.343a5.7,5.7,0,0,1,.933.3c.221.089.6.257.748-.035.093-.185-.025-.338-.2-.452a2.163,2.163,0,0,0-.463-.214,2.252,2.252,0,0,0-.8-.114c-.046.1-.089.192-.132.292C1049.43,352.193,1049.4,352.268,1049.37,352.343Z" transform="translate(-1049.369 -351.825)" fill="#d67545"/>
            </g>
            <g id="Group_12355" data-name="Group 12355" transform="translate(57.97 37.431)">
              <path id="Path_88937" data-name="Path 88937" d="M1079.13,352.687l.356.216c.212.129.516.31.887.537,2.756,1.671,9.36,5.682,11.978,7.357,4.207,2.694,2.832,8-2.237,5.1-2.179-1.241-8.761-6.974-11.657-9.532l-.777-.687c-.393-.35-.968-.824-.968-.824Z" transform="translate(-1076.713 -352.687)" fill="#ffa38a"/>
            </g>
            <g id="Group_12356" data-name="Group 12356" transform="translate(54.772 51.035)">
              <path id="Path_88938" data-name="Path 88938" d="M1121.64,415.381l.223.352c.133.21.324.507.557.875,1.728,2.721,5.866,9.246,7.469,11.909,2.575,4.281-1.012,8.423-4.27,3.581-1.4-2.079-4.756-10.138-6.216-13.715-.154-.372-.286-.7-.392-.961-.2-.488-.5-1.168-.5-1.168Z" transform="translate(-1118.506 -415.381)" fill="#ffa38a"/>
            </g>
            <g id="Group_12357" data-name="Group 12357" transform="translate(52.898 33.052)">
              <path id="Path_88939" data-name="Path 88939" d="M1146.76,334.267a3.16,3.16,0,0,1,1.277.2s-.539-.385-.793-.564c-.16-.113-.71-.454-.4-.649a6.007,6.007,0,0,1,1.912.516c.439.179,1.338.516,1.338.516a20.207,20.207,0,0,1-2.388-1.471.179.179,0,0,1,.126-.3,4.22,4.22,0,0,1,1.472.527,18.531,18.531,0,0,1,2.255,1.364c.6.448,3.1,3.027,3.1,3.027s-1.573,1.358-2.3,2.037a26.173,26.173,0,0,1-3.065-2.208c-.59-.5-1.925-1.445-2.079-1.652a.227.227,0,0,1,.07-.282c.112-.073.279-.025.406-.011,0,0-.878-.44-1.043-.781a.18.18,0,0,1,.112-.269Z" transform="translate(-1146.631 -332.508)" fill="#ffa38a"/>
            </g>
            <g id="Group_12358" data-name="Group 12358" transform="translate(50.13 28.842)">
              <path id="Path_88940" data-name="Path 88940" d="M1181.98,315.247a1.49,1.49,0,0,0,2.029.241c.813-.438,1.221-1.256.913-1.828a1.525,1.525,0,0,0-2.053-.312,1.553,1.553,0,0,0-.889,1.9Z" transform="translate(-1181.87 -313.103)" fill="#2c2f33"/>
            </g>
            <g id="Group_12359" data-name="Group 12359" transform="translate(54.339 34.866)">
              <path id="Path_88941" data-name="Path 88941" d="M1171.1,341.736a.13.13,0,0,0,.054-.249l-1.336-.609a.131.131,0,0,0-.108.238l1.336.609A.13.13,0,0,0,1171.1,341.736Z" transform="translate(-1169.631 -340.867)" fill="#f27957"/>
            </g>
            <g id="Group_12360" data-name="Group 12360" transform="translate(54.042 35.786)">
              <path id="Path_88942" data-name="Path 88942" d="M1172.9,345.842a.131.131,0,0,0,.048-.252l-1.217-.475a.131.131,0,0,0-.095.243l1.217.475a.125.125,0,0,0,.047.009Z" transform="translate(-1171.548 -345.105)" fill="#f27957"/>
            </g>
            <g id="Group_12365" data-name="Group 12365" transform="translate(72.678 149.399)">
              <g id="Group_12361" data-name="Group 12361" transform="translate(3.42)">
                <path id="Path_88943" data-name="Path 88943" d="M1060.65,869.961l.65,3.174,2.036,1.4.8-2.208-.126-3.64Z" transform="translate(-1060.652 -868.685)" fill="#ffa38a"/>
              </g>
              <g id="Group_12362" data-name="Group 12362" transform="translate(0 3.639)">
                <path id="Path_88944" data-name="Path 88944" d="M1059.54,889.835a4.405,4.405,0,0,0,.039.491l7.1-.654-.241-4.217-2.8.694s-.366.217-.876.527c-.046.032-.093.061-.142.089s-.118.075-.178.114l-.114.071c-.121.078-.249.157-.377.242h0l-.068.043c-.082.05-.164.1-.249.16-.014.011-.028.018-.043.029a9.338,9.338,0,0,0-1.884,1.407,1.685,1.685,0,0,0-.164.648,2.391,2.391,0,0,0-.008.356Z" transform="translate(-1059.536 -885.455)" fill="#6b4b3a"/>
              </g>
              <g id="Group_12363" data-name="Group 12363" transform="translate(2.8 4.949)">
                <path id="Path_88945" data-name="Path 88945" d="M1076.24,891.677a6.389,6.389,0,0,0,.427.609c.149.178.4-.075.253-.249a6.029,6.029,0,0,1-.388-.545c-.057.039-.118.075-.178.114Z" transform="translate(-1076.236 -891.492)" fill="#f2e1cb"/>
              </g>
              <g id="Group_12364" data-name="Group 12364" transform="translate(2.059 5.419)">
                <path id="Path_88946" data-name="Path 88946" d="M1079.67,893.847a5.913,5.913,0,0,0,.424.6c.146.178.4-.075.253-.249a5.735,5.735,0,0,1-.384-.541c-.082.05-.164.1-.249.16C1079.7,893.829,1079.68,893.836,1079.67,893.847Z" transform="translate(-1079.669 -893.658)" fill="#f2e1cb"/>
              </g>
            </g>
            <g id="Group_12370" data-name="Group 12370" transform="translate(86.212 149.283)">
              <g id="Group_12366" data-name="Group 12366" transform="translate(3.42)">
                <path id="Path_88947" data-name="Path 88947" d="M998.28,869.426l.65,3.174,2.035,1.4.8-2.208-.126-3.64Z" transform="translate(-998.28 -868.15)" fill="#ffa38a"/>
              </g>
              <g id="Group_12367" data-name="Group 12367" transform="translate(0 3.639)">
                <path id="Path_88948" data-name="Path 88948" d="M997.168,889.3a4.44,4.44,0,0,0,.039.492l7.106-.654-.241-4.217-2.8.694s-.367.217-.876.527c-.046.032-.093.06-.142.089s-.118.075-.178.114l-.114.071c-.121.078-.249.157-.377.242h0l-.068.043c-.082.05-.164.1-.249.16-.014.011-.028.018-.043.028a9.337,9.337,0,0,0-1.884,1.406,1.694,1.694,0,0,0-.164.648A2.428,2.428,0,0,0,997.168,889.3Z" transform="translate(-997.164 -884.92)" fill="#6b4b3a"/>
              </g>
              <g id="Group_12368" data-name="Group 12368" transform="translate(2.8 4.949)">
                <path id="Path_88949" data-name="Path 88949" d="M1013.86,891.142a6.457,6.457,0,0,0,.427.609c.15.178.4-.075.253-.249a6.017,6.017,0,0,1-.388-.545c-.057.039-.118.075-.178.114Z" transform="translate(-1013.864 -890.957)" fill="#f2e1cb"/>
              </g>
              <g id="Group_12369" data-name="Group 12369" transform="translate(2.059 5.419)">
                <path id="Path_88950" data-name="Path 88950" d="M1017.3,893.312a5.919,5.919,0,0,0,.424.6c.146.178.4-.075.253-.249a5.805,5.805,0,0,1-.385-.541c-.082.05-.164.1-.249.16C1017.33,893.294,1017.31,893.3,1017.3,893.312Z" transform="translate(-1017.297 -893.123)" fill="#f2e1cb"/>
              </g>
            </g>
            <g id="Group_12371" data-name="Group 12371" transform="translate(80.291 90.138)">
              <path id="Path_88951" data-name="Path 88951" d="M968.9,611.318c-1.184,2.646-1.365,13.87-.742,18.468s5.674,27,5.674,27l9.547-.379s.239-6.091-.473-8.062-.118-4.226-.592-8.263-2.61-9.454-2.135-11.435,1.783-10.766,2.377-14.327,1.9-6.312,2.02-10.16,0-6.549,0-6.623-10.922-2.149-11.634-1.944-4.208-.3-5.131.782a28.132,28.132,0,0,0-3.332,7.781C964.153,606.009,968.9,611.318,968.9,611.318Z" transform="translate(-964.461 -595.581)" fill="#d38f4e"/>
            </g>
            <g id="Group_12372" data-name="Group 12372" transform="translate(70.272 92.375)">
              <path id="Path_88952" data-name="Path 88952" d="M1027.07,606.544s-3.255,17.312-3.257,27.84c0,6.067,5.784,30.479,5.784,30.479l8.332-.522s-1.141-9.535-.94-11.672a24.138,24.138,0,0,0-1.113-7.48c-.585-2.019.131-7.949-.424-9.811s1.37-7.759,2.238-10.846S1039,618,1039.89,614.2a63.886,63.886,0,0,0,1.23-8.31Z" transform="translate(-1023.818 -605.894)" fill="#d38f4e"/>
            </g>
            <g id="Group_12373" data-name="Group 12373" transform="translate(81.229 34.052)">
              <path id="Path_88953" data-name="Path 88953" d="M1010.24,337.828a2.225,2.225,0,0,1,1.021-.423,2.052,2.052,0,0,1,1.39-.262,10.756,10.756,0,0,1,2.045.682,5.324,5.324,0,0,1,1.8.755,12.242,12.242,0,0,1,1.4,1.589c.864.969,1.419,1.763.984,3.123-.445,1.389-1.663,4.539-1.663,4.539a6.449,6.449,0,0,1-1.281-1.5,1.864,1.864,0,0,0,.5-.867,1.417,1.417,0,0,0-.047-.876c-.222-.48-.839-.638-1.075-1.131-.224-.468-.022-.9-.29-1.4a3.6,3.6,0,0,1-.4-.7c-.023-.078-.039-.159-.057-.239a3.264,3.264,0,0,1-.381-.256c-.426-.34-.354-.826-.732-1.177s-.91-.384-1.31-.737a4.273,4.273,0,0,1-.722-.915,8.674,8.674,0,0,0-1.553.824.18.18,0,0,1-.268-.154C1009.62,338.325,1009.96,338.043,1010.24,337.828Z" transform="translate(-1009.601 -337.115)" fill="#d67545"/>
            </g>
            <g id="Group_12378" data-name="Group 12378" transform="translate(85.399 26.371)">
              <g id="Group_12374" data-name="Group 12374">
                <path id="Path_88954" data-name="Path 88954" d="M1001.74,307.872a4.241,4.241,0,0,0,2.407,2.7,3.661,3.661,0,0,0,3.6.239l.107-1,.043-.385.157-1.453v-.028l.028-.274.018-.2.264-2.436.043-.4.007-.053.075-.709.211-1.959a.179.179,0,0,0-.3-.149l-.392.356-.306.281-1.222,1.118-.346.313-.15.139-.278.257-1.428,1.307-.278.257-.032.028-.278.256-1.058.969-.3.274Z" transform="translate(-1001.742 -301.72)" fill="#ffd769"/>
              </g>
              <g id="Group_12375" data-name="Group 12375" transform="translate(4.403 1.804)">
                <path id="Path_88955" data-name="Path 88955" d="M1003.09,310.348a1.366,1.366,0,0,1,.688.31c.409.378.47.8,1.058.88a2.455,2.455,0,0,0,.484.007l.043-.4a1.616,1.616,0,0,1-1.175-.559,2.469,2.469,0,0,0-.552-.485.9.9,0,0,0-.2-.071Z" transform="translate(-1003.094 -310.035)" fill="#fff"/>
              </g>
              <g id="Group_12376" data-name="Group 12376" transform="translate(2.269 3.82)">
                <path id="Path_88956" data-name="Path 88956" d="M1004.59,319.579a1.391,1.391,0,0,0,.766.374c.755.164,1.236.146,1.717.884.4.6.5.862,1.31.9.089,0,.171.011.256.011v-.028l.028-.274a1.333,1.333,0,0,1-.413-.068,2.253,2.253,0,0,1-.933-.9c-.178-.246-.039-.2-.271-.413a1.992,1.992,0,0,0-1.054-.378c-.435-.075-.808-.05-1.133-.367Z" transform="translate(-1004.59 -319.323)" fill="#fff"/>
              </g>
              <g id="Group_12377" data-name="Group 12377" transform="translate(0.598 5.33)">
                <path id="Path_88957" data-name="Path 88957" d="M1005.46,326.555a1.7,1.7,0,0,0,.52.751,3.03,3.03,0,0,0,1.186.335,2.865,2.865,0,0,1,1.492,1c.481.5,1.022.424,1.681.4a6.38,6.38,0,0,1,.641,0l.043-.385c-.335,0-.677.028-1.015.039a2.02,2.02,0,0,1-1.482-.727,2.727,2.727,0,0,0-1.022-.609c-.7-.214-1.361-.16-1.7-.973a.973.973,0,0,0-.046-.1Z" transform="translate(-1005.461 -326.281)" fill="#fff"/>
              </g>
            </g>
            <g id="Group_12379" data-name="Group 12379" transform="translate(71.759 48.434)">
              <path id="Path_88958" data-name="Path 88958" d="M971.64,403.433c-2.062-.258-5.489.914-8.666.693s-10.479,2.471-11.37,2.9c-.622.3-.5,2.868-.535,3.4-.145,2.319-.2,4.645-.255,6.967-.058,2.268,0,4.585-.156,6.841-.243,3.459.013,7.887-.033,11.35-.034,2.562-.352,5.105-.311,7.669.03,1.874-.572,4.839-.188,5.115s7.346-.841,11.442.317,8.281-.622,12.911.092,7.354-.208,7.354-.921-.814-10.659-1.919-17.846c-.739-4.81-3.023-21.355-3.913-23.51S973.659,403.685,971.64,403.433Z" transform="translate(-949.999 -403.395)" fill="#2c2f33"/>
            </g>
            <g id="Group_12380" data-name="Group 12380" transform="translate(76.918 60.246)">
              <path id="Path_88959" data-name="Path 88959" d="M1030.96,457.829a75.4,75.4,0,0,1-7.761.666,17.99,17.99,0,0,0-2.983.015l.4,6.975a16.384,16.384,0,0,1,4.6-.4c1.629.268,2.534-.178,4.018-.177h2.419Z" transform="translate(-1020.213 -457.829)" fill="#f2e1cb"/>
            </g>
            <g id="Group_12381" data-name="Group 12381" transform="translate(71.055 45.915)">
              <path id="Path_88960" data-name="Path 88960" d="M1067.98,392.412l-4.43-.625s-3.024,2.95-1.9,4.443c.82,1.086,6.633,2.678,6.633,2.678l1.483-2.763Z" transform="translate(-1061.397 -391.787)" fill="#ffa38a"/>
            </g>
            <g id="Group_12382" data-name="Group 12382" transform="translate(63.06 62.076)">
              <path id="Path_88961" data-name="Path 88961" d="M1100.21,466.261l-2.7,3.568s.47,4.479,2.323,4.219c1.347-.189,6.2-4.9,6.2-4.9l-1.694-2.638Z" transform="translate(-1097.51 -466.261)" fill="#ffa38a"/>
            </g>
            <g id="Group_12383" data-name="Group 12383" transform="translate(76.074 46.445)">
              <path id="Path_88962" data-name="Path 88962" d="M1014.31,396.253l-16.435-2.027-.892,7.533s9.883.509,10.685.606S1014.31,396.253,1014.31,396.253Z" transform="translate(-996.979 -394.226)" fill="#2c2f33"/>
            </g>
            <g id="Group_12384" data-name="Group 12384" transform="translate(65.328 52.07)">
              <path id="Path_88963" data-name="Path 88963" d="M1090.05,436.007c-.5.392-1.017.774-1.529,1.156a26.733,26.733,0,0,0-2.194,2.034c-.807-1.764-5.647-8.487-5.647-8.487s3.606-4.845,5.726-8.05a9.667,9.667,0,0,1,2.312-2.512s1.935,10.089,1.871,10.563C1090.56,430.935,1090.31,433.428,1090.05,436.007Z" transform="translate(-1080.682 -420.148)" fill="#2c2f33"/>
            </g>
            <g id="Group_12385" data-name="Group 12385" transform="translate(82.796 32.26)">
              <path id="Path_88964" data-name="Path 88964" d="M1038.61,331.2h.015a.131.131,0,0,0,.115-.145,2.119,2.119,0,0,1,.363-1.329c.424-.6.825-.612.842-.613a.131.131,0,0,0,0-.261h0a1.435,1.435,0,0,0-1.053.722,2.346,2.346,0,0,0-.41,1.511.131.131,0,0,0,.13.115Z" transform="translate(-1038.474 -328.857)" fill="#c25e2d"/>
            </g>
            <g id="Group_12386" data-name="Group 12386" transform="translate(83.526 33.195)">
              <path id="Path_88965" data-name="Path 88965" d="M1039.57,335.044h.025a.131.131,0,0,0,.1-.153,1.969,1.969,0,0,1,.072-.83,2.24,2.24,0,0,1,.289-.682.131.131,0,0,0-.206-.161,2.4,2.4,0,0,0-.335.771,2.2,2.2,0,0,0-.077.953.131.131,0,0,0,.132.1Z" transform="translate(-1039.417 -333.166)" fill="#c25e2d"/>
            </g>
            <g id="Group_12387" data-name="Group 12387" transform="translate(87.403 37.101)">
              <path id="Path_88966" data-name="Path 88966" d="M1005.7,352.759a.129.129,0,0,0,.089-.035c.008-.008.8-.739,1.375-.707a2.631,2.631,0,0,0,1.39-.392l.158-.081a1.681,1.681,0,0,1,.843-.1.133.133,0,0,0,.148-.111.131.131,0,0,0-.111-.148,1.941,1.941,0,0,0-1,.129l-.163.084a2.334,2.334,0,0,1-1.257.363,2.787,2.787,0,0,0-1.564.776.13.13,0,0,0,.089.226Z" transform="translate(-1005.565 -351.164)" fill="#c25e2d"/>
            </g>
            <g id="Group_12388" data-name="Group 12388" transform="translate(76.009 52.906)">
              <path id="Path_88967" data-name="Path 88967" d="M1011.88,432.631a.131.131,0,0,0,.053-.25,16.351,16.351,0,0,0-4.169-1.169,8.885,8.885,0,0,1-4.071-1.391l-.513-.273a8.642,8.642,0,0,0-2.812-.89,4.921,4.921,0,0,1-1.927-.62,17.377,17.377,0,0,0-4.214-1.507l.042-2.4a.13.13,0,0,0-.128-.133h0a.131.131,0,0,0-.131.128l-.046,2.609.1.024a18.227,18.227,0,0,1,4.236,1.5,5.118,5.118,0,0,0,2.022.656,8.434,8.434,0,0,1,2.734.864l.512.272a9.071,9.071,0,0,0,4.166,1.42,16.048,16.048,0,0,1,4.09,1.148A.133.133,0,0,0,1011.88,432.631Z" transform="translate(-993.959 -424.001)" fill="#4e4654"/>
            </g>
            <g id="Group_12389" data-name="Group 12389" transform="translate(72.29 52.791)">
              <path id="Path_88968" data-name="Path 88968" d="M1082.92,439.471a.131.131,0,0,0,.13-.116c.01-.09.983-9.021,1.071-11.448a10.108,10.108,0,0,1,1.141-4.236.131.131,0,0,0-.226-.131,10.2,10.2,0,0,0-1.176,4.357c-.089,2.418-1.06,11.34-1.07,11.43a.131.131,0,0,0,.116.144Z" transform="translate(-1082.791 -423.475)" fill="#4e4654"/>
            </g>
            <g id="Group_12390" data-name="Group 12390" transform="translate(81.763 102.154)">
              <path id="Path_88969" data-name="Path 88969" d="M1042.59,660.44h.013a.131.131,0,0,0,.118-.142c-.014-.149-.339-3.656-.575-4.779s-1.312-4.334-1.357-4.47a.133.133,0,0,0-.166-.082.131.131,0,0,0-.082.166c.011.033,1.116,3.334,1.349,4.441s.567,4.713.57,4.749a.13.13,0,0,0,.13.117Z" transform="translate(-1040.533 -650.959)" fill="#b36a47"/>
            </g>
            <g id="Group_12398" data-name="Group 12398">
              <g id="Group_12391" data-name="Group 12391" transform="translate(29.888 2.974)">
                <path id="Path_88970" data-name="Path 88970" d="M1191.64,193.926c2.54-.222,5.868.789,7.466,2.877a11.961,11.961,0,0,1,1.332,3.341,3.136,3.136,0,0,0,2.027,2.255,5.9,5.9,0,0,1,1.808.495,3.934,3.934,0,0,1,1.465,2.934c.224,2.048.223,3.853,2.356,4.813,1.308.588,2.706.76,3.676,1.908a3.611,3.611,0,0,1,.9,3.008c-.058.31-.531.183-.473-.125.346-1.85-1.166-3.2-2.726-3.76a7.847,7.847,0,0,1-2.934-1.444c-2.051-1.985-.149-6.576-3.509-7.248a3.273,3.273,0,0,1-2.508-1.489,19.706,19.706,0,0,1-1.272-3.416c-1.064-2.7-4.947-3.892-7.613-3.659C1191.32,194.443,1191.33,193.953,1191.64,193.926Z" transform="translate(-1191.404 -193.896)" fill="#ffd769"/>
              </g>
              <g id="Group_12392" data-name="Group 12392" transform="translate(8.314 9.422)">
                <path id="Path_88971" data-name="Path 88971" d="M1250.2,227.187c2.468-1.834,4.924-3.027,8.033-2.488a9.4,9.4,0,0,0,2.247.3,6,6,0,0,0,2.346-1,3.671,3.671,0,0,1,3.308.022c1.405.581,2.17,1.707,3.377,2.544,1.478,1.024,3.362.815,5.064,1.04a7.464,7.464,0,0,1,5.658,3.838c.131.283-.291.532-.423.246-1.249-2.7-4.2-3.539-6.9-3.737a7.772,7.772,0,0,1-3.349-.752c-1.173-.676-1.894-1.881-3.124-2.5a4.256,4.256,0,0,0-2.5-.583,8.528,8.528,0,0,0-2.138,1.029,4.13,4.13,0,0,1-2.453.263,10.942,10.942,0,0,0-4.411-.222,13.128,13.128,0,0,0-4.494,2.428C1250.19,227.8,1249.95,227.374,1250.2,227.187Z" transform="translate(-1250.095 -223.609)" fill="#ffd769"/>
              </g>
              <g id="Group_12393" data-name="Group 12393" transform="translate(18.233 24.245)">
                <path id="Path_88972" data-name="Path 88972" d="M1222.76,299.486c1.342-.935,3.374-1.171,4.4-2.461.767-.965,1.084-1.827,2.283-2.373a9.5,9.5,0,0,1,3.555-.567,14.557,14.557,0,0,0,5.155-1.567c2.73-1.151,5.729-.428,8.459.391.3.091.177.564-.125.473a23.718,23.718,0,0,0-4.272-.922,8.156,8.156,0,0,0-4.576.829,11.575,11.575,0,0,1-3.336,1.181c-1.121.151-2.264.064-3.38.254a4.333,4.333,0,0,0-3.15,2.287,4.082,4.082,0,0,1-2.041,1.568,8.495,8.495,0,0,0-4.112,2.741c-.586.834-1.394,2.061-1,3.1.112.294-.362.417-.474.125C1219.47,302.79,1221.44,300.407,1222.76,299.486Z" transform="translate(-1220.011 -291.921)" fill="#ffd769"/>
              </g>
              <g id="Group_12394" data-name="Group 12394" transform="translate(6.693 5.917)">
                <path id="Path_88973" data-name="Path 88973" d="M1381.63,207.61l3.051-.15.19,1.35-3.056.235Z" transform="translate(-1381.63 -207.46)" fill="#e04c4c"/>
              </g>
              <g id="Group_12395" data-name="Group 12395" transform="translate(21.829)">
                <path id="Path_88974" data-name="Path 88974" d="M1310.23,180.189l2.843,2.266-.893,1.355-2.913-2.2Z" transform="translate(-1309.269 -180.189)" fill="#73bf98"/>
              </g>
              <g id="Group_12396" data-name="Group 12396" transform="translate(26.154 20.674)">
                <path id="Path_88975" data-name="Path 88975" d="M1289.98,275.552l3.487-.09.18,1.547-3.5.186Z" transform="translate(-1289.977 -275.462)" fill="#e04c4c"/>
              </g>
              <g id="Group_12397" data-name="Group 12397" transform="translate(0 24.912)">
                <path id="Path_88976" data-name="Path 88976" d="M1408.19,294.992l3.755,1.419-.479,1.727-3.8-1.32Z" transform="translate(-1407.664 -294.992)" fill="#438acc"/>
              </g>
            </g>
          </g>
        </g>
      </g>
    </g>
  </g>
</svg>
