<svg xmlns="http://www.w3.org/2000/svg" width="77.026" height="78.766" viewBox="0 0 77.026 78.766">
  <path id="Exclusion_10" data-name="Exclusion 10" d="M-778.487-1079.235a37.543,37.543,0,0,1-14.991-3.095,38.346,38.346,0,0,1-12.242-8.44,39.312,39.312,0,0,1-8.254-12.518A39.9,39.9,0,0,1-817-1118.617a39.9,39.9,0,0,1,3.027-15.329,39.313,39.313,0,0,1,8.254-12.518,38.35,38.35,0,0,1,12.242-8.44,37.541,37.541,0,0,1,14.991-3.1,37.538,37.538,0,0,1,14.991,3.1,38.349,38.349,0,0,1,12.242,8.44A39.312,39.312,0,0,1-743-1133.947a39.9,39.9,0,0,1,3.026,15.329A39.9,39.9,0,0,1-743-1103.288a39.313,39.313,0,0,1-8.254,12.518,38.345,38.345,0,0,1-12.242,8.44A37.541,37.541,0,0,1-778.487-1079.235Zm-.094-58.273a18.772,18.772,0,0,0-7.353,1.484,18.826,18.826,0,0,0-6,4.048,18.826,18.826,0,0,0-4.049,6,18.773,18.773,0,0,0-1.485,7.354,18.772,18.772,0,0,0,1.485,7.353,18.829,18.829,0,0,0,4.049,6,18.829,18.829,0,0,0,6,4.049,18.771,18.771,0,0,0,7.353,1.485,18.77,18.77,0,0,0,7.353-1.485,18.827,18.827,0,0,0,6-4.049,18.825,18.825,0,0,0,4.049-6,18.772,18.772,0,0,0,1.485-7.353,18.773,18.773,0,0,0-1.485-7.354,18.825,18.825,0,0,0-4.049-6,18.825,18.825,0,0,0-6-4.048A18.771,18.771,0,0,0-778.581-1137.508Z" transform="translate(817 1158)" fill="#d8f3f5"/>
</svg>
