<svg xmlns="http://www.w3.org/2000/svg" xmlns:xlink="http://www.w3.org/1999/xlink" width="76" height="64" viewBox="0 0 76 64">
  <defs>
    <clipPath id="clip-path">
      <rect id="Rectangle_5319" data-name="Rectangle 5319" width="76" height="64" transform="translate(-1762 2513)" fill="#fff" stroke="#707070" stroke-width="1"/>
    </clipPath>
    <clipPath id="clip-path-2">
      <rect id="Rectangle_4318" data-name="Rectangle 4318" width="580" height="64" rx="10" transform="translate(430 416)" fill="#38539a"/>
    </clipPath>
  </defs>
  <g id="Mask_Group_204" data-name="Mask Group 204" transform="translate(1762 -2513)" clip-path="url(#clip-path)">
    <g id="_300-d" data-name="300-d" transform="translate(-2294 2202)">
      <g id="Group_151" data-name="Group 151" transform="translate(0 -105)" clip-path="url(#clip-path-2)">
        <g id="Group_12400" data-name="Group 12400" transform="translate(501.943 371)" opacity="0.151">
          <g id="Ellipse_1611" data-name="Ellipse 1611" transform="translate(360.057 -8)" fill="none" stroke="#e3e5ff" stroke-width="16">
            <circle cx="39" cy="39" r="39" stroke="none"/>
            <circle cx="39" cy="39" r="31" fill="none"/>
          </g>
        </g>
        <g id="Group_12783" data-name="Group 12783" transform="translate(545.614 380.292)">
          <path id="Path_87097" data-name="Path 87097" d="M2779.95,863.954s-.937-.936-1.812-1.852c-.577-.608-1.117-1.209-1.351-1.512-2.267-2.948-1.93-4.384-1.93-4.384a12.442,12.442,0,0,1,2.5-.388c.157.143,1.975-1.358,1.975-1.358l4.923,4.347Z" transform="translate(-2774.328 -798.93)" fill="#f28057"/>
          <path id="Path_87098" data-name="Path 87098" d="M2793.06,870.853c0,.069-.119.632-.295,1.427-.077.358-.167.76-.264,1.184-.247,1.125-.538,2.406-.763,3.4-.1.455-.2.847-.261,1.135-.076.33-.122.524-.122.524s-.052-.024-.142-.076a6.683,6.683,0,0,1-2.175-1.948c-.894-1.33-.926-1.389-2.1-1.709s-1.08-1.33-1.427-2.691-1.677-2.17-2.285-2.952,3.385-10.153,3.385-10.153l.958.781.5.414,3.49,2.854S2793.06,870.592,2793.06,870.853Z" transform="translate(-2779.938 -801.985)" fill="#f5e3dc"/>
          <path id="Path_87099" data-name="Path 87099" d="M2896.72,863.954s.936-.936,1.812-1.852c.577-.608,1.118-1.209,1.35-1.512,2.268-2.948,1.931-4.384,1.931-4.384a12.448,12.448,0,0,0-2.5-.388c-.157.143-1.975-1.358-1.975-1.358l-4.921,4.347Z" transform="translate(-2853.578 -798.93)" fill="#f28057"/>
          <path id="Path_87100" data-name="Path 87100" d="M2888.75,869.089c-.08.149-.164.3-.242.444-.143.254-.285.5-.42.747h0a9.283,9.283,0,0,0-1.307,2.913c-.113,1.042-2.2.983-2.833,2.372a7.79,7.79,0,0,1-1.653,2,8,8,0,0,1-2.687,1.882c-.388,0-.3-4.493-.177-7.99.01-.32.024-.629.035-.927h0c.073-1.782.142-3.118.142-3.118l1.327-3.351h0l3.861-3.309.518-.448,1.524-1.306S2889.62,867.467,2888.75,869.089Z" transform="translate(-2844.754 -801.985)" fill="#f5e3dc"/>
          <path id="Path_87101" data-name="Path 87101" d="M2890.83,832.488c-1.48-3.657-5.932-11.5-5.932-11.5l1.5-.877s8.328,7.835,9.761,10.91C2898.6,836.264,2892.91,837.628,2890.83,832.488Z" transform="translate(-2848.51 -775.778)" fill="#ffa880"/>
          <path id="Path_87102" data-name="Path 87102" d="M2882.16,808.038a4.2,4.2,0,0,0,.35.783c.059.12.119.236.174.34.1.2.191.351.215.4-.033-.043-.162-.216-.294-.394-.079-.11-.158-.216-.217-.3-.007-.013-.019-.026-.028-.042a7.353,7.353,0,0,0-.571-.681c-.092-.1-.169-.165-.213-.164-.223,0-.052.355-.009.464l.02.043c.042.1.1.245.143.351.03.078.056.136.059.152-.013-.018-.06-.077-.126-.149-.049-.053-.114-.117-.182-.178a.922.922,0,0,0-.283-.189.11.11,0,0,0-.139.1.677.677,0,0,0,.053.282c.035.085.076.173.109.247.019.032.037.065.052.093.03.056.053.1.063.113a.478.478,0,0,0-.162-.114h-.007a.122.122,0,0,0-.038-.005.2.2,0,0,0-.042.009h0a.126.126,0,0,0-.083.11.7.7,0,0,0,.026.12c.083.274.324.869.461,1.269.014.049.032.1.044.141.164.526.544,1.486.739,1.916.014.031.027.059.04.083a.418.418,0,0,0,.077.134l.236-.041c.64-.113,1.612-.254,1.612-.254a.3.3,0,0,0-.016-.078v-.015c-.031-.138-.09-.421-.159-.745-.146-.65-.336-1.483-.431-1.731a8.2,8.2,0,0,0-.452-.961l-.187-.339c-.026-.045-.051-.093-.076-.138a2.639,2.639,0,0,0-.587-.752.11.11,0,0,0-.171.12Z" transform="translate(-2845.881 -767.552)" fill="#ffa880"/>
          <g id="Group_7864" data-name="Group 7864" transform="translate(2.813 159.526)">
            <path id="Path_87103" data-name="Path 87103" d="M2793.08,1173.68l-.125,2.871,1.238,1.307,1.147-1.385.59-3.008Z" transform="translate(-2789.353 -1173.466)" fill="#ffa880"/>
            <path id="Path_87104" data-name="Path 87104" d="M2781.92,1186.08l5.966-.222.008-.439v-.049a9.2,9.2,0,0,0,.1-.982,8.553,8.553,0,0,0-.108-1.692l-2.384.079s-.248.13-.613.326c-.047.022-.094.05-.146.077l-.119.067c-.05.026-.106.055-.158.085-.091.053-.184.1-.28.158-.048.026-.1.051-.145.08h0l-.116.064c-.05.031-.1.061-.157.094-.158.091-.319.183-.471.273a5.356,5.356,0,0,0-1.2.837,1.365,1.365,0,0,0-.166.536,1.9,1.9,0,0,0-.027.3A3.615,3.615,0,0,0,2781.92,1186.08Z" transform="translate(-2781.907 -1179.685)" fill="#342e38"/>
            <path id="Path_87105" data-name="Path 87105" d="M2781.92,1188.77l5.966-.222.008-.438-4.272.186s-.051-.333-.124-.789a6.481,6.481,0,0,0-.2-.817,5.368,5.368,0,0,0-1.2.837,1.366,1.366,0,0,0-.166.536,1.961,1.961,0,0,0-.027.3,3.591,3.591,0,0,0,.015.407Z" transform="translate(-2781.907 -1182.378)" fill="#f5e3dc"/>
          </g>
          <g id="Group_7865" data-name="Group 7865" transform="translate(37.764 159.526)">
            <path id="Path_87106" data-name="Path 87106" d="M2891.97,1173.68l.127,2.871-1.238,1.307-1.146-1.385-.59-3.008Z" transform="translate(-2889.124 -1173.466)" fill="#ffa880"/>
            <path id="Path_87107" data-name="Path 87107" d="M2896.66,1186.08l-5.966-.222-.007-.439v-.049a9.076,9.076,0,0,1-.106-.982,8.5,8.5,0,0,1,.109-1.692l2.382.079s.249.13.613.326c.047.022.094.05.145.077s.077.042.119.067.106.055.159.085c.09.053.182.1.28.158l.144.08h0l.116.064c.05.031.1.061.158.094.157.091.318.183.47.273a5.351,5.351,0,0,1,1.2.837,1.356,1.356,0,0,1,.166.536,2.13,2.13,0,0,1,.027.3A3.671,3.671,0,0,1,2896.66,1186.08Z" transform="translate(-2890.096 -1179.685)" fill="#342e38"/>
            <path id="Path_87108" data-name="Path 87108" d="M2896.9,1188.77l-5.966-.222-.006-.438,4.27.186s.053-.333.124-.789a7.007,7.007,0,0,1,.2-.817,5.311,5.311,0,0,1,1.2.837,1.322,1.322,0,0,1,.166.536,1.847,1.847,0,0,1,.027.3A3.593,3.593,0,0,1,2896.9,1188.77Z" transform="translate(-2890.341 -1182.378)" fill="#f5e3dc"/>
          </g>
          <g id="Group_7866" data-name="Group 7866" transform="translate(19.456 50.087)">
            <path id="Path_87109" data-name="Path 87109" d="M2835.22,838.537c-.263-.281-.6-.794-1.046-.771a1.665,1.665,0,0,0-1,.7,2.007,2.007,0,0,0-.191,1.319,1.931,1.931,0,0,0,.476,1.113c.459.452,1.04.17,1.658-.19-.03.21.292.3.334.081.09-.447.61-.658.553-1.162C2835.96,839.194,2835.5,838.831,2835.22,838.537Z" transform="translate(-2832.96 -837.765)" fill="#71433d"/>
            <path id="Path_87110" data-name="Path 87110" d="M2860.63,839.481a.618.618,0,0,0-.229-.452c-.009-.019-.014-.039-.024-.058l-.007-.014c-.426-.713-1.577.18-1.955.476a1.081,1.081,0,0,0-.2,1.65v.019a1.323,1.323,0,0,0,1.258.635,1.36,1.36,0,0,0,1.192-.975,3.346,3.346,0,0,0-.035-1.281Z" transform="translate(-2849.785 -838.386)" fill="#71433d"/>
            <path id="Path_87111" data-name="Path 87111" d="M2843.89,847.708h0a4.246,4.246,0,0,0-.042-.452c-.021-.177-.048-.354-.086-.528a3.7,3.7,0,0,0-1.348-2.274,3.248,3.248,0,0,0-1.878-.6,11.877,11.877,0,0,0-1.423.111s-1.146-.027-1.688-.052a3.344,3.344,0,0,0-2.527,1.236,3.687,3.687,0,0,0-.708,1.136,3.36,3.36,0,0,0-.226,1.4,7.519,7.519,0,0,0,.917,3.292c.21.386.442.757.684,1.123a.161.161,0,0,1,.1.023.8.8,0,0,1,.468.676.161.161,0,0,1-.033.1c.094.141.189.281.281.423.15.226.292.455.43.688a.173.173,0,0,0,.319-.08,9.143,9.143,0,0,0,1.056.076,14.336,14.336,0,0,0,1.445-.121.137.137,0,0,0,.152.035,6.683,6.683,0,0,0,3.063-2.386,5.181,5.181,0,0,0,.333-.486,5.8,5.8,0,0,0,.711-3.34Z" transform="translate(-2833.634 -841.868)" fill="#71433d"/>
            <path id="Path_87112" data-name="Path 87112" d="M2843.89,852.736h0a4.313,4.313,0,0,0-.042-.452c-.021-.177-.048-.354-.086-.528a3.17,3.17,0,0,1-1.622,1.421,5.972,5.972,0,0,1-1.257-.067,5.441,5.441,0,0,0-1.657-.1,8.942,8.942,0,0,1-2.392.334,2.763,2.763,0,0,1-2.278-1.445c-.132-.216-.25-.413-.367-.587a3.36,3.36,0,0,0-.226,1.4,7.515,7.515,0,0,0,.917,3.292c.21.386.442.757.684,1.123a.161.161,0,0,1,.1.023.8.8,0,0,1,.468.676.164.164,0,0,1-.033.1c.094.141.189.281.281.423.108.007.219.014.327.017a9.745,9.745,0,0,0,3.014-.159,8.026,8.026,0,0,0,2.628-1.382,7.059,7.059,0,0,0,.831-.75,5.8,5.8,0,0,0,.71-3.339Z" transform="translate(-2833.634 -846.896)" fill="#5c2f29"/>
            <path id="Path_87113" data-name="Path 87113" d="M2845.42,850.1a14.1,14.1,0,0,0-.21-2.175s-4.122-1.61-4.986-1.134c-.428.236-1,1.3-1.381,1.6-.29.235-.614.1-.753.469a2.968,2.968,0,0,0,.02,1.067c.053.608.162,1.539.217,2.144.187,2.066.2,3.858,2.426,5.4a2.446,2.446,0,0,0,3.054-.514C2845.5,855.272,2845.41,850.689,2845.42,850.1Z" transform="translate(-2836.386 -843.787)" fill="#ffa880"/>
            <path id="Path_87114" data-name="Path 87114" d="M2846.94,875.247q-.056-.941-.1-1.889l-.037-.914-4.618-1.964s.008.817.008,1.876v.634c0,.465-.009.951-.021,1.418-.006.142-.01.281-.013.417-.016.614-.039,1.171-.08,1.563-.054.593-.172,1.187.412,1.588a2.991,2.991,0,0,0,2.093.089c.757-.126,1.5-.386,2.26-.465a.153.153,0,0,0,.117-.013l.116-.04Q2847.01,876.4,2846.94,875.247Z" transform="translate(-2839.071 -859.815)" fill="#ffa880"/>
            <path id="Path_87115" data-name="Path 87115" d="M2845.63,878.127c-.691.306-1.053.036-1.677.2a1.474,1.474,0,0,1-.982.013,4.779,4.779,0,0,0-.507-.052c.01-.467.016-.954.021-1.418v-.634a4.9,4.9,0,0,0,1.241.882,3.225,3.225,0,0,0,2.031.13C2846.23,877.124,2846.32,877.821,2845.63,878.127Z" transform="translate(-2839.363 -863.694)" fill="#f28057"/>
            <path id="Path_87116" data-name="Path 87116" d="M2848.59,871.787c-.039-.1-.457.044-.894.065a7.69,7.69,0,0,1-.917-.033c-.073,0-.355-.023-.374.078s.172.219.235.262a1.585,1.585,0,0,0,1.314.222,1.1,1.1,0,0,0,.512-.318C2848.57,871.94,2848.61,871.844,2848.59,871.787Z" transform="translate(-2842.019 -860.673)" fill="#fff"/>
            <path id="Path_87117" data-name="Path 87117" d="M2858.24,862.38a.564.564,0,0,1,.833-.012c.4.4.128,1.8-.4,2.188s-.888.272-.9.166S2858.24,862.38,2858.24,862.38Z" transform="translate(-2849.686 -854.225)" fill="#ffa880"/>
            <path id="Path_87118" data-name="Path 87118" d="M2837.9,862.648a.565.565,0,0,0-.834.011c-.388.408-.081,1.8.457,2.177s.9.25.905.143S2837.9,862.648,2837.9,862.648Z" transform="translate(-2835.61 -854.413)" fill="#ffa880"/>
            <path id="Path_87119" data-name="Path 87119" d="M2844.85,846.587a2.467,2.467,0,0,0-.8-1.688,4.852,4.852,0,0,0-2.18-.785,3.517,3.517,0,0,0-1.65.045,3.762,3.762,0,0,0-3.357,1.122,3.323,3.323,0,0,0-.743,1.892,3.09,3.09,0,0,0,.018.646,7.4,7.4,0,0,0,.412,1.461,4.494,4.494,0,0,0,.448.768,4.939,4.939,0,0,1,.265-1.135,2.356,2.356,0,0,1,.36-.6,5.174,5.174,0,0,1,1.492-1.1,2.784,2.784,0,0,0,1.489-1.7,3.151,3.151,0,0,0,.737,1.448,4.433,4.433,0,0,0,.885.583,5.83,5.83,0,0,1,.976.732,2.131,2.131,0,0,1,.512.705c.117.288.357.969.357.969a8.25,8.25,0,0,0,.416-.99,9.64,9.64,0,0,0,.364-1.59A3.528,3.528,0,0,0,2844.85,846.587Z" transform="translate(-2835.086 -841.993)" fill="#71433d"/>
            <path id="Path_87120" data-name="Path 87120" d="M2843.59,854.753c-.129.007-.257.011-.386.011a2.126,2.126,0,0,1,.512.7c.117.289.357.969.357.969a8.209,8.209,0,0,0,.416-.99,9.613,9.613,0,0,0,.364-1.59,3.463,3.463,0,0,1-1.263.9Zm-7.469-1.1a3.089,3.089,0,0,0,.018.646,7.38,7.38,0,0,0,.412,1.462,4.485,4.485,0,0,0,.448.767,4.966,4.966,0,0,1,.265-1.135,2.335,2.335,0,0,1,.36-.6,2.663,2.663,0,0,1-1.5-1.138Z" transform="translate(-2835.086 -848.475)" fill="#5c2f29"/>
          </g>
          <path id="Path_87121" data-name="Path 87121" d="M2832.57,897.731a15.78,15.78,0,0,0-.289,5.1l-22.715-.083a42.573,42.573,0,0,0-.781-5.469c-.317-1.583-.549-3.3-.723-5.07-.018-.2-.038-.4-.056-.6-.139-1.58-.232-3.2-.287-4.8-.015-.473-.029-.944-.039-1.41-.01-.41-.018-.816-.02-1.219h0c-.083-6.893.4-12.771.4-12.771s2.6,1.215,4.341,2.01a10.962,10.962,0,0,0,1.052.4c.454.156.969.316,1.493.469,1.92.559,4,1.041,4,1.041a6.064,6.064,0,0,0,4.848,0,20.943,20.943,0,0,0,3.25-.343,10.8,10.8,0,0,0,1.511-.407c.146-.052.288-.108.423-.17.189-.084.368-.17.549-.257.2-.094.4-.2.591-.292a28.01,28.01,0,0,0,2.5-1.438h0s.024.292.07.782c.006.069.014.142.02.219.219,2.441.789,8.57.993,9.226a18.067,18.067,0,0,1,.274,3.285,41.112,41.112,0,0,1-1.4,11.8Z" transform="translate(-2796.446 -810.355)" fill="#f5e3dc"/>
          <g id="Group_7867" data-name="Group 7867" transform="translate(4.195 57.787)">
            <path id="Path_87122" data-name="Path 87122" d="M2797.64,872.567a1.656,1.656,0,0,0-.833.389,3.637,3.637,0,0,0-.348.523,1.746,1.746,0,0,0-.644.51.173.173,0,0,0,0,.176.3.3,0,0,0,.374.126,1.167,1.167,0,0,0,.272-.178,1.765,1.765,0,0,1,.353-.142.419.419,0,0,0,.277-.38c.023-.205.049-.247.253-.328a2.567,2.567,0,0,0,.448-.178C2798.09,872.894,2798.03,872.506,2797.64,872.567Z" transform="translate(-2792.647 -868.918)" fill="#fff"/>
            <path id="Path_87123" data-name="Path 87123" d="M2820.4,888.73a1.658,1.658,0,0,0-.916-.1,3.526,3.526,0,0,0-.568.266,1.751,1.751,0,0,0-.816.1.172.172,0,0,0-.091.15.3.3,0,0,0,.252.3,1.112,1.112,0,0,0,.326-.011,1.817,1.817,0,0,1,.376.063.416.416,0,0,0,.433-.181c.128-.163.172-.185.387-.148a2.651,2.651,0,0,0,.475.081C2820.61,889.242,2820.76,888.88,2820.4,888.73Z" transform="translate(-2807.623 -879.729)" fill="#fff"/>
            <path id="Path_87124" data-name="Path 87124" d="M2796.04,861.8l-.028.011a1.994,1.994,0,0,0-.354.142,1.05,1.05,0,0,1-.271.181.3.3,0,0,1-.375-.128.175.175,0,0,1,0-.174,1.511,1.511,0,0,1,.527-.445Z" transform="translate(-2792.104 -861.387)" fill="#fff"/>
            <path id="Path_87125" data-name="Path 87125" d="M2813.05,876.9a1.654,1.654,0,0,0-.834.39,3.739,3.739,0,0,0-.347.523,1.758,1.758,0,0,0-.644.51.168.168,0,0,0,0,.175.3.3,0,0,0,.372.127,1.111,1.111,0,0,0,.273-.178,1.735,1.735,0,0,1,.354-.142.416.416,0,0,0,.275-.38c.024-.206.051-.248.254-.328a2.482,2.482,0,0,0,.448-.179C2813.5,877.227,2813.44,876.839,2813.05,876.9Z" transform="translate(-2803.034 -871.839)" fill="#fff"/>
            <path id="Path_87126" data-name="Path 87126" d="M2810.84,898.952a1.65,1.65,0,0,0-.834.39,3.355,3.355,0,0,0-.346.523,1.725,1.725,0,0,0-.645.51.169.169,0,0,0,0,.175.3.3,0,0,0,.374.127,1.126,1.126,0,0,0,.273-.178,1.811,1.811,0,0,1,.353-.142.415.415,0,0,0,.276-.38c.023-.2.05-.248.253-.329a2.579,2.579,0,0,0,.449-.178C2811.29,899.278,2811.23,898.891,2810.84,898.952Z" transform="translate(-2801.546 -886.701)" fill="#fff"/>
            <path id="Path_87127" data-name="Path 87127" d="M2828.33,914.243a1.656,1.656,0,0,0-.834.391,3.6,3.6,0,0,0-.347.523,1.734,1.734,0,0,0-.644.51.173.173,0,0,0,0,.175.3.3,0,0,0,.372.126,1.112,1.112,0,0,0,.274-.179,1.763,1.763,0,0,1,.353-.142.417.417,0,0,0,.276-.38c.024-.205.051-.247.253-.328a2.582,2.582,0,0,0,.448-.178C2828.78,914.57,2828.72,914.182,2828.33,914.243Z" transform="translate(-2813.331 -897.008)" fill="#fff"/>
            <path id="Path_87128" data-name="Path 87128" d="M2810.12,931.008a2.4,2.4,0,0,1-.448.177c-.2.081-.229.125-.253.33a.417.417,0,0,1-.275.379,2.046,2.046,0,0,0-.34.135c-.018-.2-.038-.4-.056-.6l.042-.021a3.254,3.254,0,0,1,.347-.525,1.633,1.633,0,0,1,.834-.389C2810.35,930.428,2810.41,930.817,2810.12,931.008Z" transform="translate(-2801.377 -907.958)" fill="#fff"/>
            <path id="Path_87129" data-name="Path 87129" d="M2852.2,901.638a1.667,1.667,0,0,0-.834.39,3.739,3.739,0,0,0-.347.523,1.748,1.748,0,0,0-.644.51.175.175,0,0,0,0,.175.3.3,0,0,0,.371.127,1.1,1.1,0,0,0,.274-.179,1.832,1.832,0,0,1,.354-.142.416.416,0,0,0,.276-.38c.024-.2.05-.247.253-.327a2.564,2.564,0,0,0,.449-.179C2852.65,901.964,2852.59,901.576,2852.2,901.638Z" transform="translate(-2829.42 -888.511)" fill="#fff"/>
            <path id="Path_87130" data-name="Path 87130" d="M2878.83,892.742a1.669,1.669,0,0,0-.834.39,3.693,3.693,0,0,0-.347.524,1.749,1.749,0,0,0-.644.51.168.168,0,0,0,0,.174.3.3,0,0,0,.372.127,1.118,1.118,0,0,0,.274-.179,1.727,1.727,0,0,1,.353-.142.417.417,0,0,0,.276-.38c.024-.2.05-.247.253-.328a2.531,2.531,0,0,0,.448-.179C2879.28,893.068,2879.22,892.681,2878.83,892.742Z" transform="translate(-2847.367 -882.516)" fill="#fff"/>
            <path id="Path_87131" data-name="Path 87131" d="M2899.95,876.9a1.641,1.641,0,0,0-.833.39,3.53,3.53,0,0,0-.348.523,1.753,1.753,0,0,0-.646.51.179.179,0,0,0,0,.175.3.3,0,0,0,.375.127,1.15,1.15,0,0,0,.272-.178,1.731,1.731,0,0,1,.354-.142.416.416,0,0,0,.276-.38c.023-.206.051-.248.253-.328a2.533,2.533,0,0,0,.448-.179C2900.4,877.227,2900.34,876.839,2899.95,876.9Z" transform="translate(-2861.605 -871.839)" fill="#fff"/>
            <path id="Path_87132" data-name="Path 87132" d="M2882.18,926.649a1.658,1.658,0,0,0-.834.39,3.4,3.4,0,0,0-.346.524,1.733,1.733,0,0,0-.645.51.17.17,0,0,0,0,.175.3.3,0,0,0,.373.126,1.1,1.1,0,0,0,.272-.178,1.809,1.809,0,0,1,.355-.142.417.417,0,0,0,.275-.38c.023-.2.05-.248.254-.328a2.649,2.649,0,0,0,.448-.178C2882.63,926.975,2882.57,926.588,2882.18,926.649Z" transform="translate(-2849.629 -905.369)" fill="#fff"/>
            <path id="Path_87133" data-name="Path 87133" d="M2894.18,898.952a1.644,1.644,0,0,0-.834.39,3.514,3.514,0,0,0-.348.523,1.732,1.732,0,0,0-.644.51.17.17,0,0,0,0,.175.3.3,0,0,0,.373.127,1.119,1.119,0,0,0,.273-.178,1.806,1.806,0,0,1,.354-.142.415.415,0,0,0,.275-.38c.024-.205.051-.248.254-.329a2.6,2.6,0,0,0,.448-.178C2894.63,899.278,2894.56,898.891,2894.18,898.952Z" transform="translate(-2857.711 -886.701)" fill="#fff"/>
            <path id="Path_87134" data-name="Path 87134" d="M2872.74,913.126a1.664,1.664,0,0,0-.834.39,3.623,3.623,0,0,0-.346.523,1.755,1.755,0,0,0-.646.51.179.179,0,0,0,0,.175.3.3,0,0,0,.375.127,1.137,1.137,0,0,0,.272-.179,1.792,1.792,0,0,1,.353-.142.417.417,0,0,0,.277-.38c.023-.2.049-.247.253-.328a2.56,2.56,0,0,0,.448-.178C2873.19,913.453,2873.13,913.065,2872.74,913.126Z" transform="translate(-2843.262 -896.255)" fill="#fff"/>
            <path id="Path_87135" data-name="Path 87135" d="M2839.5,895.587a1.647,1.647,0,0,0-.834.39,3.351,3.351,0,0,0-.347.523,1.728,1.728,0,0,0-.645.51.175.175,0,0,0,0,.175.3.3,0,0,0,.373.126,1.107,1.107,0,0,0,.272-.178,1.8,1.8,0,0,1,.354-.142.416.416,0,0,0,.276-.38c.023-.2.05-.247.253-.328a2.543,2.543,0,0,0,.449-.178C2839.94,895.913,2839.88,895.525,2839.5,895.587Z" transform="translate(-2820.857 -884.433)" fill="#fff"/>
            <path id="Path_87136" data-name="Path 87136" d="M2861.49,885.818a1.65,1.65,0,0,0-.834.391,3.5,3.5,0,0,0-.347.523,1.73,1.73,0,0,0-.644.51.169.169,0,0,0,0,.174.3.3,0,0,0,.372.127,1.125,1.125,0,0,0,.273-.178,1.755,1.755,0,0,1,.353-.142.418.418,0,0,0,.276-.38c.024-.205.051-.248.253-.328a2.513,2.513,0,0,0,.448-.178C2861.94,886.146,2861.88,885.758,2861.49,885.818Z" transform="translate(-2835.68 -877.849)" fill="#fff"/>
            <path id="Path_87137" data-name="Path 87137" d="M2886.24,872.567a1.648,1.648,0,0,0-.834.389,3.414,3.414,0,0,0-.347.523,1.715,1.715,0,0,0-.644.51.169.169,0,0,0,0,.176.3.3,0,0,0,.372.126,1.15,1.15,0,0,0,.273-.178,1.815,1.815,0,0,1,.353-.142.416.416,0,0,0,.276-.38c.024-.2.051-.247.253-.328a2.556,2.556,0,0,0,.448-.178C2886.69,872.894,2886.63,872.506,2886.24,872.567Z" transform="translate(-2852.365 -868.918)" fill="#fff"/>
            <path id="Path_87138" data-name="Path 87138" d="M2845.49,919.858a1.652,1.652,0,0,0-.834.39,3.468,3.468,0,0,0-.347.524,1.745,1.745,0,0,0-.646.51.175.175,0,0,0,0,.175.3.3,0,0,0,.374.127,1.139,1.139,0,0,0,.273-.178,1.741,1.741,0,0,1,.353-.142.416.416,0,0,0,.277-.38c.024-.205.051-.247.253-.328a2.513,2.513,0,0,0,.448-.178C2845.94,920.184,2845.88,919.8,2845.49,919.858Z" transform="translate(-2824.897 -900.792)" fill="#fff"/>
            <path id="Path_87139" data-name="Path 87139" d="M2794.88,896.89a1.66,1.66,0,0,0-.834.39,3.555,3.555,0,0,0-.346.524,1.742,1.742,0,0,0-.645.51.173.173,0,0,0,0,.175.3.3,0,0,0,.372.126,1.089,1.089,0,0,0,.274-.178,1.761,1.761,0,0,1,.353-.142.417.417,0,0,0,.276-.38c.024-.2.051-.247.253-.328a2.541,2.541,0,0,0,.448-.178C2795.32,897.216,2795.26,896.829,2794.88,896.89Z" transform="translate(-2790.784 -885.312)" fill="#fff"/>
            <path id="Path_87140" data-name="Path 87140" d="M2787.4,885.785a1.651,1.651,0,0,0-.142-.91,3.526,3.526,0,0,0-.405-.479,1.743,1.743,0,0,0-.309-.762.171.171,0,0,0-.168-.049.3.3,0,0,0-.225.323,1.091,1.091,0,0,0,.095.312,1.864,1.864,0,0,1,.036.379.419.419,0,0,0,.288.372c.189.08.224.117.244.335a2.638,2.638,0,0,0,.045.48C2786.96,886.125,2787.35,886.174,2787.4,885.785Z" transform="translate(-2786.148 -876.344)" fill="#fff"/>
            <path id="Path_87141" data-name="Path 87141" d="M2804,887.354a1.649,1.649,0,0,0-.141-.91,3.587,3.587,0,0,0-.4-.48,1.742,1.742,0,0,0-.309-.761.173.173,0,0,0-.168-.049.3.3,0,0,0-.225.322,1.14,1.14,0,0,0,.093.313,1.75,1.75,0,0,1,.039.379.414.414,0,0,0,.288.371c.19.081.222.118.244.335a2.585,2.585,0,0,0,.044.481C2803.55,887.693,2803.95,887.743,2804,887.354Z" transform="translate(-2797.335 -877.402)" fill="#fff"/>
            <path id="Path_87142" data-name="Path 87142" d="M2842.25,909.7a1.656,1.656,0,0,0-.142-.91,3.49,3.49,0,0,0-.4-.479,1.726,1.726,0,0,0-.309-.762.17.17,0,0,0-.168-.049.3.3,0,0,0-.225.322,1.079,1.079,0,0,0,.094.313,1.771,1.771,0,0,1,.036.378.419.419,0,0,0,.288.372c.191.08.224.118.244.335a2.575,2.575,0,0,0,.045.48C2841.81,910.036,2842.2,910.086,2842.25,909.7Z" transform="translate(-2823.12 -892.461)" fill="#fff"/>
            <path id="Path_87143" data-name="Path 87143" d="M2866.66,901.151a1.667,1.667,0,0,0-.141-.91,3.554,3.554,0,0,0-.405-.479,1.73,1.73,0,0,0-.31-.762.173.173,0,0,0-.168-.049.3.3,0,0,0-.225.323,1.1,1.1,0,0,0,.1.312,1.781,1.781,0,0,1,.038.379.416.416,0,0,0,.287.372c.19.08.223.117.244.335a2.467,2.467,0,0,0,.046.481C2866.22,901.49,2866.61,901.54,2866.66,901.151Z" transform="translate(-2839.572 -886.701)" fill="#fff"/>
            <path id="Path_87144" data-name="Path 87144" d="M2889.71,886.9a1.644,1.644,0,0,0-.14-.91,3.65,3.65,0,0,0-.405-.48,1.77,1.77,0,0,0-.309-.762.172.172,0,0,0-.168-.048.3.3,0,0,0-.227.322,1.151,1.151,0,0,0,.1.312,1.735,1.735,0,0,1,.038.379.417.417,0,0,0,.287.372c.19.08.224.118.245.335a2.534,2.534,0,0,0,.045.48C2889.27,887.241,2889.66,887.29,2889.71,886.9Z" transform="translate(-2855.104 -877.097)" fill="#fff"/>
            <path id="Path_87145" data-name="Path 87145" d="M2897.23,864.565c-.048.393-.441.341-.538,0a2.432,2.432,0,0,1-.05-.483c-.02-.215-.051-.254-.243-.333a.421.421,0,0,1-.277-.309l.518-.448c.018.059.03.122.044.181a3.716,3.716,0,0,1,.4.479,1.632,1.632,0,0,1,.146.913Z" transform="translate(-2860.267 -862.471)" fill="#fff"/>
            <path id="Path_87146" data-name="Path 87146" d="M2905.22,888.667c-.143.254-.285.5-.42.747-.012-.1-.008-.208-.018-.31-.02-.215-.052-.253-.243-.333a.421.421,0,0,1-.289-.372,1.719,1.719,0,0,0-.038-.379,1.081,1.081,0,0,1-.093-.312.3.3,0,0,1,.225-.323.167.167,0,0,1,.167.048,1.741,1.741,0,0,1,.309.764,3.544,3.544,0,0,1,.4.47Z" transform="translate(-2865.658 -878.906)" fill="#fff"/>
            <path id="Path_87147" data-name="Path 87147" d="M2884.21,909.209a1.658,1.658,0,0,0-.141-.91,3.584,3.584,0,0,0-.4-.479,1.741,1.741,0,0,0-.31-.762.172.172,0,0,0-.168-.049.3.3,0,0,0-.226.322,1.107,1.107,0,0,0,.094.313,1.8,1.8,0,0,1,.037.379.418.418,0,0,0,.287.372c.191.08.224.118.244.335a2.639,2.639,0,0,0,.047.48C2883.77,909.548,2884.16,909.6,2884.21,909.209Z" transform="translate(-2851.399 -892.132)" fill="#fff"/>
            <path id="Path_87148" data-name="Path 87148" d="M2875.85,880.264c-.048.389-.437.341-.538,0a2.409,2.409,0,0,1-.046-.479c-.02-.219-.055-.257-.247-.337a.421.421,0,0,1-.245-.215c.2-.094.4-.2.59-.292a2.625,2.625,0,0,1,.346.413,1.653,1.653,0,0,1,.14.91Z" transform="translate(-2845.881 -873.219)" fill="#fff"/>
            <path id="Path_87149" data-name="Path 87149" d="M2859.98,914.209a1.65,1.65,0,0,0-.14-.91,3.75,3.75,0,0,0-.406-.48,1.757,1.757,0,0,0-.31-.762.17.17,0,0,0-.167-.049.3.3,0,0,0-.227.322,1.2,1.2,0,0,0,.1.313,1.735,1.735,0,0,1,.038.379.416.416,0,0,0,.287.371c.19.08.224.118.245.335a2.534,2.534,0,0,0,.044.48C2859.54,914.548,2859.93,914.6,2859.98,914.209Z" transform="translate(-2835.07 -895.502)" fill="#fff"/>
            <path id="Path_87150" data-name="Path 87150" d="M2833.72,886.045a1.669,1.669,0,0,0-.14-.91,3.542,3.542,0,0,0-.407-.479,1.724,1.724,0,0,0-.308-.762.173.173,0,0,0-.169-.049.3.3,0,0,0-.225.323,1.12,1.12,0,0,0,.1.313,1.782,1.782,0,0,1,.038.379.413.413,0,0,0,.287.372c.19.08.224.117.244.335a2.382,2.382,0,0,0,.046.48C2833.28,886.385,2833.67,886.435,2833.72,886.045Z" transform="translate(-2817.367 -876.52)" fill="#fff"/>
            <path id="Path_87151" data-name="Path 87151" d="M2830,903.344a1.673,1.673,0,0,0-.14-.91,3.581,3.581,0,0,0-.407-.479,1.725,1.725,0,0,0-.308-.762.174.174,0,0,0-.169-.049.3.3,0,0,0-.225.323,1.14,1.14,0,0,0,.1.312,1.814,1.814,0,0,1,.038.379.416.416,0,0,0,.287.372c.19.08.223.117.244.335a2.545,2.545,0,0,0,.045.481C2829.56,903.684,2829.95,903.733,2830,903.344Z" transform="translate(-2814.863 -888.179)" fill="#fff"/>
            <path id="Path_87152" data-name="Path 87152" d="M2849.08,889.588a1.667,1.667,0,0,0-.14-.91,3.482,3.482,0,0,0-.407-.479,1.712,1.712,0,0,0-.31-.762.169.169,0,0,0-.168-.049.3.3,0,0,0-.225.322,1.106,1.106,0,0,0,.1.313,1.782,1.782,0,0,1,.038.379.416.416,0,0,0,.287.371c.19.08.224.117.245.336a2.6,2.6,0,0,0,.046.48C2848.64,889.927,2849.03,889.977,2849.08,889.588Z" transform="translate(-2827.721 -878.908)" fill="#fff"/>
            <path id="Path_87153" data-name="Path 87153" d="M2817.23,917.3a1.674,1.674,0,0,0-.141-.91,3.706,3.706,0,0,0-.405-.48,1.756,1.756,0,0,0-.309-.761.176.176,0,0,0-.169-.05.3.3,0,0,0-.226.323,1.125,1.125,0,0,0,.1.312,1.735,1.735,0,0,1,.038.379.415.415,0,0,0,.287.371c.19.081.224.118.244.335a2.546,2.546,0,0,0,.046.481C2816.79,917.641,2817.18,917.69,2817.23,917.3Z" transform="translate(-2806.254 -897.586)" fill="#fff"/>
            <path id="Path_87154" data-name="Path 87154" d="M2807.37,912.114a1.676,1.676,0,0,0-.14-.91,3.58,3.58,0,0,0-.406-.48,1.736,1.736,0,0,0-.309-.762.171.171,0,0,0-.169-.049.3.3,0,0,0-.225.322,1.064,1.064,0,0,0,.1.313,1.733,1.733,0,0,1,.037.379.418.418,0,0,0,.288.372c.19.08.223.118.243.335a2.73,2.73,0,0,0,.047.48C2806.93,912.453,2807.32,912.5,2807.37,912.114Z" transform="translate(-2799.608 -894.09)" fill="#fff"/>
          </g>
          <path id="Path_87155" data-name="Path 87155" d="M2825.97,1001.11a25.381,25.381,0,0,1-6.05-.618c-2.683-.7-4.767.428-4.767-2.336s-.813-3.577-1.275-7.514-1.358-4.07-2.028-8.011c-.813-4.746-2.779-11.261-3.819-16.164a50.312,50.312,0,0,0-1.937-6.775c-.112,1.011-.237,1.99-.379,2.914-.673,4.343-1.28,8.2-2.017,11.8a76.807,76.807,0,0,1-2.383,9.149c-1.8,5.421-1.423,6.254-2.692,9.251-.19.458-.422.969-.707,1.552a15.03,15.03,0,0,0-.858,2.143c-.746,2.4-.4,3.615-1.2,3.945-1.01.413-8.823.948-8.823.948s1.663-20.963,2.473-28.488c.912-8.462,1.052-16.907,2.083-25.349.514-4.2,1.208-7.788,1.707-11.99,0-.018,2.633-16.022,3.213-15.963s7.781,1.26,11.5,1.173c2.483-.063,9.2-1.3,9.723-.784.652.653.59,3.021.707,3.858.362,2.587,1.341,6.059,1.657,8.65.757,6.188,1.181,10.334,1.819,16.532.85,8.264,1.25,17.011,2.313,25.262.639,4.955,1.059,11.025,1.323,16.139.169,3.3.281,6.2.341,8.14C2825.95,1000.16,2825.97,1001.11,2825.97,1001.11Z" transform="translate(-2782.552 -842.84)" fill="#df6062"/>
          <path id="Path_87156" data-name="Path 87156" d="M2822.08,879.282l-2.345,14.366-1.5-.841s1.591-8.594,1.823-10.563c.181-1.524.432-2.892.532-3.43C2821.04,878.969,2821.56,879.129,2822.08,879.282Z" transform="translate(-2803.579 -815.345)" fill="#df6062"/>
          <path id="Path_87157" data-name="Path 87157" d="M2870.95,894.727l-1.5.84-2.285-14.015a10.9,10.9,0,0,0,1.511-.406c.125.673.312,1.795.454,3.018C2869.35,886.132,2870.95,894.727,2870.95,894.727Z" transform="translate(-2836.552 -816.917)" fill="#df6062"/>
          <path id="Path_87158" data-name="Path 87158" d="M2786.47,1166.83c.044-.578,4.513-.057,6.393-.318s2.924-.984,3.125-.694-.2,1.852-.144,2.315-5.209.868-6.858.984-2.468.207-2.473-.217C2786.51,1168.22,2786.43,1167.41,2786.47,1166.83Z" transform="translate(-2782.162 -1008.739)" fill="#f5e3dc"/>
          <path id="Path_87159" data-name="Path 87159" d="M2884,1165.51c-.364-.239-3.619-.065-5.2-.413s-5.021-1.088-5.419-1.032-.2.642-.094,1.054,0,1.042.109,1.368,3.428.825,5.641,1.106,5.014.694,5.23.348-.043-.456,0-1.259S2884.37,1165.75,2884,1165.51Z" transform="translate(-2840.588 -1007.605)" fill="#f5e3dc"/>
          <path id="Path_87160" data-name="Path 87160" d="M2780.77,832.488c1.479-3.657,5.926-11.538,5.926-11.538l-1.493-.842s-8.328,7.835-9.76,10.91C2773,836.264,2778.69,837.628,2780.77,832.488Z" transform="translate(-2774.338 -775.778)" fill="#ffa880"/>
          <path id="Path_87161" data-name="Path 87161" d="M2805.5,807.484a2.592,2.592,0,0,0-.333.894c-.011.05-.02.1-.031.154-.024.126-.051.253-.076.379a8.447,8.447,0,0,0-.142,1.053c-.015.265.056,1.117.111,1.781.032.33.061.617.074.758v.016l.009.078s.969-.158,1.613-.242c.085-.013.167-.024.238-.032a.412.412,0,0,0,.033-.151c0-.027.009-.056.013-.091.057-.468.13-1.5.128-2.049v-.148c.01-.422.059-1.063.057-1.349a1.134,1.134,0,0,0-.011-.122.129.129,0,0,0-.113-.079,0,0,0,0,1-.006,0,.19.19,0,0,0-.041,0,.165.165,0,0,0-.035.016h-.006a.487.487,0,0,0-.121.158c0-.019.015-.065.026-.128.007-.032.014-.068.021-.1.01-.081.022-.177.03-.269a.68.68,0,0,0-.034-.284.111.111,0,0,0-.164-.055.964.964,0,0,0-.212.266,2.367,2.367,0,0,0-.119.224c-.042.088-.07.16-.077.18,0-.015.006-.079.011-.162.01-.114.022-.269.032-.378v-.047c.009-.117.064-.509-.148-.44-.041.011-.095.1-.155.22a8.094,8.094,0,0,0-.338.821c-.005.019-.011.035-.015.049-.03.093-.075.219-.118.347-.072.209-.143.414-.162.465.011-.053.047-.226.086-.445.022-.116.044-.245.065-.377a4.284,4.284,0,0,0,.1-.851.109.109,0,0,0-.19-.06Z" transform="translate(-2794.606 -767.151)" fill="#ffa880"/>
          <circle id="Ellipse_1569" data-name="Ellipse 1569" cx="0.781" cy="0.781" r="0.781" transform="translate(14.452 77.722)" fill="#ffcb87"/>
          <circle id="Ellipse_1570" data-name="Ellipse 1570" cx="0.781" cy="0.781" r="0.781" transform="translate(32.915 77.722)" fill="#ffcb87"/>
          <path id="Path_87162" data-name="Path 87162" d="M2836.49,1024.96c-.112,1.011-.237,1.989-.38,2.913-.673,4.344-1.28,8.206-2.017,11.8a15.266,15.266,0,0,1-1.219-6.022c.237-2.177.633-3.726-.4-5.983s.594-3.82.4-6.955.024-4.5.633-4.243S2836.49,1024.96,2836.49,1024.96Z" transform="translate(-2812.948 -908.105)" fill="#cc4e50"/>
          <path id="Path_87163" data-name="Path 87163" d="M2892.11,1124.46a16.762,16.762,0,0,1-1.534-.677,4.06,4.06,0,0,1-1.442-1.663,10.3,10.3,0,0,0-2.4-3.493c-.664-.493-1.018.167-.944.847.145,1.337,1.663,2.042,2.117,3.268.49,1.326.127,2.934.982,4.108a18.889,18.889,0,0,1,2.431,3.774,6.01,6.01,0,0,0,1.129,1.976C2892.39,1130.66,2892.28,1127.76,2892.11,1124.46Z" transform="translate(-2849.105 -976.863)" fill="#cc4e50"/>
          <path id="Path_87164" data-name="Path 87164" d="M2803.75,1146.47a10.027,10.027,0,0,1-1.985,1.147,6.418,6.418,0,0,0-1.456.51c-.42.277-.93.951-.44,1.4.528.486,1.756.135,2.3-.083,1.185-.466,2.176-1.2,3.4-1.59a14.979,14.979,0,0,1,.858-2.142c.285-.584.518-1.094.708-1.552a32.12,32.12,0,0,1-3.385,2.31Z" transform="translate(-2791.069 -994.182)" fill="#cc4e50"/>
          <path id="Path_87165" data-name="Path 87165" d="M2832.8,933.127s-.422,4.493,0,4.753a43.025,43.025,0,0,0,8.191,0c.346-.261.444-5.027.444-5.027a4.146,4.146,0,0,1,.924,3.219c-.118,1.445-.11,2.112-.587,2.72s-1.738.955-3.56.738a15.146,15.146,0,0,0-3.624.065c-1.454.065-2.38-.2-2.742-.716s0-1.259-.075-3.082a2.824,2.824,0,0,1,1.029-2.67Z" transform="translate(-2812.641 -851.768)" fill="#cc4e50"/>
          <g id="Group_7868" data-name="Group 7868" transform="translate(21.656 57.061)">
            <path id="Path_87166" data-name="Path 87166" d="M2841.14,861.919a1.381,1.381,0,1,1,1.426-1.38,1.406,1.406,0,0,1-1.426,1.38Zm0-2.512a1.134,1.134,0,1,0,1.179,1.133,1.158,1.158,0,0,0-1.179-1.134Z" transform="translate(-2839.71 -859.159)" fill="#fff"/>
          </g>
          <g id="Group_7869" data-name="Group 7869" transform="translate(25.239 57.061)">
            <path id="Path_87167" data-name="Path 87167" d="M2852.13,861.919a1.381,1.381,0,1,1,1.427-1.38,1.406,1.406,0,0,1-1.427,1.38Zm0-2.512a1.134,1.134,0,1,0,1.179,1.133,1.158,1.158,0,0,0-1.179-1.134Z" transform="translate(-2850.7 -859.159)" fill="#fff"/>
          </g>
          <g id="Group_7870" data-name="Group 7870" transform="translate(24.385 58.317)">
            <rect id="Rectangle_4115" data-name="Rectangle 4115" width="0.976" height="0.247" fill="#fff"/>
          </g>
          <g id="Group_7871" data-name="Group 7871" transform="translate(27.89 57.712)">
            <path id="Path_87168" data-name="Path 87168" d="M2858.96,861.81a.124.124,0,0,1-.123-.133.122.122,0,0,1,.044-.084l.474-.406a.126.126,0,0,1,.176.013.124.124,0,0,1-.014.174l-.475.406A.127.127,0,0,1,2858.96,861.81Z" transform="translate(-2858.832 -861.157)" fill="#fff"/>
          </g>
          <g id="Group_7872" data-name="Group 7872" transform="translate(21.089 57.785)">
            <path id="Path_87169" data-name="Path 87169" d="M2838.66,861.961a.132.132,0,0,1-.063-.017l-.566-.334a.124.124,0,0,1,.126-.213l.566.334a.123.123,0,0,1-.063.23Z" transform="translate(-2837.972 -861.381)" fill="#fff"/>
          </g>
        </g>
        <g id="Group_12784" data-name="Group 12784" transform="translate(7)">
          <path id="Path_89528" data-name="Path 89528" d="M2813.52,720.91c.481,3.953.855,7.762.236,8.062a3.389,3.389,0,0,1-1.712-.354,12.867,12.867,0,0,1-3.833-1.629c-.028-.018-.06-.035-.089-.053-4.183-1.968-9.315-4.727-10.46-5.433a12.4,12.4,0,0,0-2.018,1.137q-1.7.917-3.405,1.8c-1.667.858-3.31,1.759-4.992,2.582-.283.138-.565.273-.851.4-.773.36-1.562.7-2.364,1.007-.625.237-1.787.869-2.462.541-1.184-.579,1.264-14.092,1.161-16.752-.2-.385-.534-.915-.946-1.54-2.5-2.8-9.2-9.249-8.451-11.11a.867.867,0,0,1,.231-.3,1.7,1.7,0,0,1,.179-.13c.012-.025.064-.053.152-.085a1.291,1.291,0,0,1,.194-.089,18.266,18.266,0,0,1,5.375-.692c4.2-.446,9.262-.873,9.754-.94s2.78-4.628,4.942-8.365c1.269-2.668,2.511-4.893,3.306-4.836a.363.363,0,0,0,.389,0c.8-.056,2.042,2.169,3.31,4.836,2.158,3.738,4.437,8.295,4.94,8.365s5.553.494,9.754.94c2.412.078,4.564.268,5.571.781a.312.312,0,0,1,.148.085.994.994,0,0,1,.41.434c.724,1.8-5.483,7.85-8.165,10.8l-.282.315c-.416.625-.748,1.155-.95,1.54a27.876,27.876,0,0,0,.269,3.338C2813.04,717.141,2813.3,719.041,2813.52,720.91Z" transform="translate(-1927.666 -256.835)" fill="#ffcb87"/>
          <path id="Path_89529" data-name="Path 89529" d="M2814.42,710.365c1.769-2.828,3.8-8.187,2.189-8.775-1.943-.707-7.766-.839-11.246-1.119s-4.907-7.654-6.654-7.713c-2.122-.072-4.3,5.829-6.755,7.479s-17.794-.972-17.794-.972a1.864,1.864,0,0,1,.18-.13c.01-.025.064-.053.152-.085a1.251,1.251,0,0,1,.2-.089,18.252,18.252,0,0,1,5.372-.692c4.2-.446,9.264-.873,9.755-.94s2.781-4.628,4.942-8.365c1.269-2.668,2.512-4.893,3.307-4.836a.363.363,0,0,0,.389,0c.8-.056,2.042,2.169,3.31,4.836,2.159,3.738,4.437,8.295,4.94,8.365s5.553.494,9.752.94c2.414.078,4.565.268,5.571.781a.3.3,0,0,1,.148.085.983.983,0,0,1,.41.434C2823.31,701.364,2817.1,707.419,2814.42,710.365Z" transform="translate(-1928.262 -256.835)" fill="#ffe0a1"/>
          <path id="Path_89530" data-name="Path 89530" d="M2835.34,795.751l-.088-.053c-4.183-1.968-9.316-4.727-10.46-5.433a12.306,12.306,0,0,0-2.018,1.137q-1.7.917-3.406,1.8c-1.668.858-3.31,1.759-4.992,2.582-.282.138-.564.273-.85.4,0,0,9.426-10.467,11.41-10.026S2835.34,795.751,2835.34,795.751Z" transform="translate(-1954.79 -325.596)" fill="#faaf6e"/>
        </g>
      </g>
    </g>
  </g>
</svg>
