<svg xmlns="http://www.w3.org/2000/svg" xmlns:xlink="http://www.w3.org/1999/xlink" width="235.389" height="165.556" viewBox="0 0 235.389 165.556">
  <defs>
    <clipPath id="clip-path">
      <path id="Path_87603" data-name="Path 87603" d="M425.283,378.21c-32.83-9.482-42.914-31.953-43.627-55.739-.767-26.691,11.51-55.027,40.119-66.865,19.84-8.221,28.281-8.714,47.354-14.579s32.939-17.045,55.411-18.58c27.184-1.864,47.792,9.482,57.767,24.5,9.262,13.976,10.3,25.047,16.168,37.763,6.906,14.908,14.579,21.43,17.319,35.351,4.659,23.567-3.727,46.148-30.857,55.356-31.076,10.523-56.178,12.441-79.361,12.387C486.613,387.692,456.743,387.308,425.283,378.21Z" transform="translate(-381.623 -222.246)" fill="none"/>
    </clipPath>
  </defs>
  <g id="grp-emptyState" transform="translate(-278.272 -222.246)">
    <g id="Group_8333" data-name="Group 8333" transform="translate(264.22 222.246)">
      <g id="Group_8048" data-name="Group 8048" transform="translate(14.052 0)">
        <path id="Path_87300" data-name="Path 87300" d="M425.283,378.21c-32.83-9.482-42.914-31.953-43.627-55.739-.767-26.691,11.51-55.027,40.119-66.865,19.84-8.221,28.281-8.714,47.354-14.579s32.939-17.045,55.411-18.58c27.184-1.864,47.792,9.482,57.767,24.5,9.262,13.976,10.3,25.047,16.168,37.763,6.906,14.908,14.579,21.43,17.319,35.351,4.659,23.567-3.727,46.148-30.857,55.356-31.076,10.523-56.178,12.441-79.361,12.387C486.613,387.692,456.743,387.308,425.283,378.21Z" transform="translate(-381.623 -222.246)" fill="#eeeef7"/>
      </g>
      <g id="Group_8050" data-name="Group 8050" transform="translate(90.894 3.982)">
        <g id="Group_8049" data-name="Group 8049">
          <path id="Path_87301" data-name="Path 87301" d="M1171.746,266.806c-2.466-.877.987-5.207,5.7-6.139s7.18,1.041,7.18,1.041,2.74-6.193,10.962-6.193a11.16,11.16,0,0,1,10.359,6.632,14.966,14.966,0,0,1,7.4-1.535c5.81.658,9.92,5.591,7.289,6.413-1.973.658-13.866.712-25.485.6C1184.078,267.464,1173.225,267.3,1171.746,266.806Z" transform="translate(-1153.299 -255.515)" fill="#fafafa"/>
          <path id="Path_87302" data-name="Path 87302" d="M1024.172,473.561c-1.589-.548.658-3.4,3.727-4s4.658.658,4.658.658a7.7,7.7,0,0,1,7.125-4.056,7.27,7.27,0,0,1,6.687,4.33,9.406,9.406,0,0,1,4.823-.987c3.782.439,6.412,3.617,4.768,4.165-1.261.439-9.043.439-16.552.384C1032.174,474,1025.158,473.89,1024.172,473.561Z" transform="translate(-1023.647 -440.95)" fill="#fafafa"/>
          <path id="Path_87303" data-name="Path 87303" d="M1795.708,368.764c-1.808-.658.767-3.891,4.22-4.549,3.508-.712,5.371.767,5.371.767a8.7,8.7,0,0,1,8.111-4.6,8.287,8.287,0,0,1,7.673,4.933,11.014,11.014,0,0,1,5.481-1.151c4.33.493,7.344,4.111,5.426,4.768-1.48.493-10.3.493-18.909.439C1804.861,369.258,1796.8,369.148,1795.708,368.764Z" transform="translate(-1702.778 -347.827)" fill="#fafafa"/>
        </g>
      </g>
    </g>
    <g id="Group_8350" data-name="Group 8350" transform="translate(278.272 222.246)">
      <g id="Group_8349" data-name="Group 8349" transform="translate(0 0)" clip-path="url(#clip-path)">
        <g id="Group_8628" data-name="Group 8628" transform="translate(-265.826 -558.432)">
          <g id="_ÎÓÈ_3" data-name="—ÎÓÈ_3" transform="translate(290.862 610.775)">
            <path id="Path_87766" data-name="Path 87766" d="M1277.92,1113.916c-.073-.466,1.146-1.612,1.438-2.008,1.313-1.78,2.619-3.271,4.922-3.741,2.618-.534,5.611-.661,8.248-1.336,2.557-.655,4.5-2.621,7.212-2.779,3.365-.2,17.094,1.377,21.148,1.032,3.723-.317,8.277-1.344,11.989-1.6,1.367-.093,3.559-.678,4.761.1.547.354.623,1.667.7,2.208.206,1.51.259,3.057.46,4.575a31.57,31.57,0,0,1,.148,5.253c-.079,3.643.162,7.405.356,11.047.112,2.109.688,4.235-.453,6-.248.384-.318.781-.761.984-1.4.645-3.2.057-4.7.38-5.882,1.266-8.215,3.716-14.358,3.07-3.835-.4-8.584-1.515-13.274-2.539-3.989-.871-7.959-1.631-11.036-2.347a40.309,40.309,0,0,0-5.673-1.2c-1.6-.132-4.229.369-5.143,1.885a12.86,12.86,0,0,0-.779,1.83,5.127,5.127,0,0,1-2.541,2.732c-.421.133-1.068.715-1.8.338s.168-2.2.181-2.518c.042-1.068-.823-2.755-.585-3.755.26-1.088,1.233-1.757,1.882-2.63s1.426-1.685,2.023-2.611c.2-.31.612-.829.2-.987a7.759,7.759,0,0,0-2.759-.141c-2.119.456-2.245,2.255-3.439,4.012-.358.528-.777.814-.948,1.441-.238.873.78,1.526.861,2.45a6.313,6.313,0,0,1-.135,1.669c-.646,2.962-1.884,1.75-3.884.456-.816-.528-.884-1.458-1.79-1.8-1.225-.461-2.739-2.587-3.283-3.462-1.474-2.373.734-6.478,2.743-10.083.785-1.409.962-2.718,1.957-4.027C1272.939,1114.332,1277.93,1113.982,1277.92,1113.916Z" transform="translate(-1181.601 -1049.34)" fill="#feede5" fill-rule="evenodd"/>
            <path id="Path_87767" data-name="Path 87767" d="M495.515,613.526l34.634,5.75c1.123,0,32.982,68.36,32.982,68.36,0,.91-13.009,20.2-18.054,27.015-1.179,1.591-2.219,1.341-2.219,1.341-1.123,0-49.376-100.432-49.376-100.432A2.033,2.033,0,0,1,495.515,613.526Z" transform="translate(-493.482 -613.526)" fill="#d2d5db" fill-rule="evenodd"/>
            <path id="Path_87768" data-name="Path 87768" d="M985.28,1285.744l76.12.879s21.585,25.857,21.585,26.8h0a1.743,1.743,0,0,1-1.776,1.709h-111.9a1.744,1.744,0,0,1-1.776-1.709h0C967.532,1312.48,985.28,1285.744,985.28,1285.744Z" transform="translate(-915.4 -1211.819)" fill="#d2d5db" fill-rule="evenodd"/>
            <path id="Path_87769" data-name="Path 87769" d="M1109.263,1301.376l-12.206,21.885,47.074-.325.3-20.889Z" transform="translate(-1030.681 -1225.732)" fill="#949ba4" fill-rule="evenodd"/>
            <path id="Path_87770" data-name="Path 87770" d="M520.707,645.625l35.137,4.417,30.175,63.465-19.26,24.153Z" transform="translate(-517.713 -642.095)" fill="#fff" fill-rule="evenodd"/>
            <path id="Path_87771" data-name="Path 87771" d="M1277.92,1113.916c-.073-.466,1.146-1.612,1.438-2.008,1.313-1.78,2.619-3.271,4.922-3.741,2.618-.534,5.611-.661,8.248-1.336,2.557-.655,4.5-2.621,7.212-2.779a51.559,51.559,0,0,1,9.734.5,50.2,50.2,0,0,0,11.414.531c3.723-.317,8.277-1.344,11.989-1.6,1.367-.093,3.559-.678,4.761.1.547.354.623,1.667.7,2.208.206,1.51.259,3.057.46,4.575a31.57,31.57,0,0,1,.148,5.253c-.079,3.643.162,7.405.356,11.047.112,2.109.688,4.235-.453,6-.248.384-.318.781-.761.984-1.4.645-3.2.057-4.7.38-5.882,1.266-8.215,3.716-14.358,3.07-3.835-.4-8.584-1.515-13.274-2.539-3.989-.871-7.959-1.631-11.036-2.347a40.309,40.309,0,0,0-5.673-1.2c-1.6-.132-4.229.369-5.143,1.885a12.86,12.86,0,0,0-.779,1.83,5.127,5.127,0,0,1-2.541,2.732c-.421.133-1.068.715-1.8.338s.168-2.2.181-2.518c.042-1.068-.823-2.755-.585-3.755.26-1.088,1.233-1.757,1.882-2.63s1.426-1.685,2.023-2.611c.2-.31.612-.829.2-.987a7.759,7.759,0,0,0-2.759-.141c-2.119.456-2.245,2.255-3.439,4.012-.358.528-.777.814-.948,1.441-.238.873.78,1.526.861,2.45a6.313,6.313,0,0,1-.135,1.669c-.646,2.962-1.884,1.75-3.884.456-.816-.528-.884-1.458-1.79-1.8-1.225-.461-2.739-2.587-3.283-3.462-1.474-2.373.734-6.478,2.743-10.083.785-1.409.962-2.718,1.957-4.027C1272.939,1114.332,1277.93,1113.982,1277.92,1113.916Z" transform="translate(-1181.601 -1049.34)" fill="#ffddcd" fill-rule="evenodd"/>
            <path id="Path_87772" data-name="Path 87772" d="M1899.993,1127.151a48.933,48.933,0,0,1-2-10.651,73.905,73.905,0,0,1,.459-12.268,28.608,28.608,0,0,1-.288-4.479,11.115,11.115,0,0,1,.632-3.312l6.958-.856a19.547,19.547,0,0,0-.3,3.739c.005,1.5.43,3.071.526,5.206.189,4.237-.47,8.676-.311,13.13a81.618,81.618,0,0,0,1.2,10.911Z" transform="translate(-1743.45 -1042.571)" fill="#fff" fill-rule="evenodd"/>
            <path id="Path_87773" data-name="Path 87773" d="M2021.348,1007.837c-2.218.277-10.615,1.352-15.229,2.339-4.9,1.049-11.545,2.048-14.611,2.648-3.957.775-8.085,1.653-12.188,2.57a93.062,93.062,0,0,1-12.7,2.1,14.478,14.478,0,0,0-.5,4.344,34.959,34.959,0,0,0,.63,4.516,130.155,130.155,0,0,0-.423,13.194c.227,8.146,1.74,12.593,1.74,12.593s1.544.487,9.22,1.281c7.28.754,40.636,2.377,44.061,2.543Z" transform="translate(-1804.154 -964.474)" fill="#2c2c2c" fill-rule="evenodd"/>
            <g id="Group_8523" data-name="Group 8523" transform="translate(13.094 18.121)">
              <path id="Path_87774" data-name="Path 87774" d="M612.956,779.284a.408.408,0,0,1-.011-.816l6.06-.163a.417.417,0,0,1,.419.4.408.408,0,0,1-.4.419l-6.06.163Z" transform="translate(-612.549 -778.306)" fill="#d8d6d7"/>
            </g>
            <g id="Group_8524" data-name="Group 8524" transform="translate(25.921 17.776)">
              <path id="Path_87775" data-name="Path 87775" d="M729.59,776.143a.408.408,0,0,1-.011-.815l6.094-.163a.408.408,0,0,1,.021.815l-6.093.163Z" transform="translate(-729.183 -775.164)" fill="#d8d6d7"/>
            </g>
            <g id="Group_8525" data-name="Group 8525" transform="translate(35.084 17.528)">
              <path id="Path_87776" data-name="Path 87776" d="M812.918,773.891a.408.408,0,0,1-.011-.816l6.127-.165a.408.408,0,1,1,.024.815l-6.128.165Z" transform="translate(-812.511 -772.91)" fill="#d8d6d7"/>
            </g>
            <g id="Group_8552" data-name="Group 8552" transform="translate(19.227 29.694)">
              <path id="Path_87803" data-name="Path 87803" d="M668.725,884.756a.408.408,0,0,1-.034-.814l4.756-.4a.426.426,0,0,1,.46.369.392.392,0,0,1-.35.44l-4.8.406Z" transform="translate(-668.318 -883.538)" fill="#d8d6d7"/>
            </g>
            <g id="Group_8553" data-name="Group 8553" transform="translate(27.128 28.804)">
              <path id="Path_87804" data-name="Path 87804" d="M740.566,876.884a.408.408,0,0,1-.034-.814l7.37-.624a.408.408,0,1,1,.069.813l-7.37.624Z" transform="translate(-740.159 -875.445)" fill="#d8d6d7"/>
            </g>
            <g id="Group_8554" data-name="Group 8554" transform="translate(38.159 27.835)">
              <path id="Path_87805" data-name="Path 87805" d="M840.873,868.112a.408.408,0,0,1-.034-.814l7.767-.658a.408.408,0,1,1,.07.812l-7.769.658Z" transform="translate(-840.466 -866.638)" fill="#d8d6d7"/>
            </g>
            <g id="Group_8555" data-name="Group 8555" transform="translate(16.066 23.939)">
              <path id="Path_87806" data-name="Path 87806" d="M639.979,832.309a.408.408,0,0,1-.026-.815l4.264-.283a.408.408,0,0,1,.054.814l-4.264.283Z" transform="translate(-639.572 -831.211)" fill="#d8d6d7"/>
            </g>
            <g id="Group_8556" data-name="Group 8556" transform="translate(21.327 23.577)">
              <path id="Path_87807" data-name="Path 87807" d="M687.82,829.032a.408.408,0,0,1-.026-.814l4.456-.3a.408.408,0,1,1,.054.814l-4.456.3Z" transform="translate(-687.413 -827.92)" fill="#d8d6d7"/>
            </g>
            <g id="Group_8557" data-name="Group 8557" transform="translate(28.371 22.953)">
              <path id="Path_87808" data-name="Path 87808" d="M751.873,823.508a.408.408,0,0,1-.027-.815l6.826-.453a.408.408,0,1,1,.054.814l-6.826.453Z" transform="translate(-751.466 -822.239)" fill="#d8d6d7"/>
            </g>
            <g id="Group_8558" data-name="Group 8558" transform="translate(38.802 22.405)">
              <path id="Path_87809" data-name="Path 87809" d="M846.72,818.382a.408.408,0,0,1-.026-.815l4.669-.31a.408.408,0,0,1,.054.814l-4.668.31Z" transform="translate(-846.313 -817.256)" fill="#d8d6d7"/>
            </g>
          </g>
          <g id="_ÎÓÈ_2_1_" data-name="—ÎÓÈ_2_1_" transform="translate(265.826 610.435)">
            <g id="Group_8559" data-name="Group 8559" transform="translate(24.696 0)">
              <path id="Path_87810" data-name="Path 87810" d="M540.266,713.592a1.272,1.272,0,0,1-.194-.014l-.028,0-.015,0h0c-.474-.169-2.3-3-25.335-50.4-12.064-24.821-24.147-49.966-24.267-50.217a.338.338,0,0,1-.034-.147,2.376,2.376,0,0,1,2.372-2.373.344.344,0,0,1,.056,0l34.611,5.746c.4.025,1.328.935,17.187,34.374,8.013,16.9,15.991,34.011,16.071,34.182a.336.336,0,0,1,.032.143c0,1.13-13.519,21-18.121,27.217A3.012,3.012,0,0,1,540.266,713.592Zm-.014-.677c.216.01.944-.061,1.8-1.219,5.359-7.234,17.329-25.086,17.968-26.778-8.6-18.456-30.968-66.045-32.757-68.072l-34.527-5.732a1.7,1.7,0,0,0-1.665,1.619C507.289,646.485,538.2,710.354,540.252,712.916Zm-.14-.016Zm0,0h0Zm0,0h0ZM527.4,616.864h0Zm0,0h0Zm-.168-.055Z" transform="translate(-490.392 -610.435)" fill="#463b39"/>
            </g>
            <g id="Group_8560" data-name="Group 8560" transform="translate(26.137 0.464)">
              <path id="Path_87811" data-name="Path 87811" d="M553.964,715.505a.34.34,0,0,1-.3-.188L503.531,615.146a.34.34,0,1,1,.608-.3l50.128,100.171a.34.34,0,0,1-.3.492Z" transform="translate(-503.496 -614.654)" fill="#463b39"/>
            </g>
            <g id="Group_8561" data-name="Group 8561" transform="translate(27.821 3.338)">
              <path id="Path_87812" data-name="Path 87812" d="M553.787,646.053a.345.345,0,0,1-.045,0L519.1,641.466a.34.34,0,0,1,.089-.674l34.638,4.584a.34.34,0,0,1-.044.677Z" transform="translate(-518.809 -640.79)" fill="#463b39"/>
            </g>
            <g id="Group_8562" data-name="Group 8562" transform="translate(73.989 71.599)">
              <path id="Path_87813" data-name="Path 87813" d="M938.96,1285.89a.34.34,0,0,1-.265-.552l18.924-23.714a.34.34,0,0,1,.532.424l-18.924,23.714A.339.339,0,0,1,938.96,1285.89Z" transform="translate(-938.621 -1261.497)" fill="#463b39"/>
            </g>
            <g id="Group_8563" data-name="Group 8563" transform="translate(76.828 99.896)">
              <path id="Path_87814" data-name="Path 87814" d="M1078.458,1522.91h-111.9a2.05,2.05,0,1,1,0-4.1h111.9a2.05,2.05,0,1,1,0,4.1Zm-111.9-3.419a1.371,1.371,0,1,0,0,2.74h111.9a1.371,1.371,0,1,0,0-2.74Z" transform="translate(-964.442 -1518.811)" fill="#463b39"/>
            </g>
            <g id="Group_8564" data-name="Group 8564" transform="translate(178.803 84.749)">
              <path id="Path_87815" data-name="Path 87815" d="M1904.5,1396.8a.338.338,0,0,1-.262-.123l-12.444-15.047a.34.34,0,1,1,.524-.433l12.444,15.047a.34.34,0,0,1-.262.556Z" transform="translate(-1891.717 -1381.077)" fill="#463b39"/>
            </g>
            <g id="Group_8565" data-name="Group 8565" transform="translate(94.508 74.018)">
              <path id="Path_87816" data-name="Path 87816" d="M1142.009,1284.192h0l-16.464-.013a.34.34,0,0,1,0-.68h0l16.464.013a.34.34,0,0,1,0,.68Z" transform="translate(-1125.205 -1283.499)" fill="#463b39"/>
            </g>
            <g id="Group_8566" data-name="Group 8566" transform="translate(91.072 75.645)">
              <path id="Path_87817" data-name="Path 87817" d="M1094.307,1320.853a.34.34,0,0,1-.3-.505l12.206-21.884a.34.34,0,1,1,.594.331l-11.922,21.375,46.157-.318.158-13.354a.331.331,0,0,1,.344-.336.34.34,0,0,1,.336.344l-.162,13.687a.34.34,0,0,1-.338.336l-47.074.325Z" transform="translate(-1093.967 -1298.289)" fill="#463b39"/>
            </g>
            <g id="Group_8567" data-name="Group 8567" transform="translate(99.723 75.972)">
              <path id="Path_87818" data-name="Path 87818" d="M1172.972,1323.254a.34.34,0,0,1-.31-.479l9.542-21.314a.34.34,0,0,1,.62.278l-9.542,21.314A.34.34,0,0,1,1172.972,1323.254Z" transform="translate(-1172.632 -1301.26)" fill="#463b39"/>
            </g>
            <g id="Group_8568" data-name="Group 8568" transform="translate(100.78 78.927)">
              <path id="Path_87819" data-name="Path 87819" d="M1182.576,1347.176a.34.34,0,0,1-.311-.477l8.082-18.358a.34.34,0,1,1,.622.273l-8.082,18.359A.34.34,0,0,1,1182.576,1347.176Z" transform="translate(-1182.236 -1328.138)" fill="#463b39"/>
            </g>
            <g id="Group_8569" data-name="Group 8569" transform="translate(109.181 84.252)">
              <path id="Path_87820" data-name="Path 87820" d="M1258.971,1390.224a.336.336,0,0,1-.093-.013.34.34,0,0,1-.234-.42l3.693-12.988a.34.34,0,1,1,.654.186l-3.693,12.988A.34.34,0,0,1,1258.971,1390.224Z" transform="translate(-1258.63 -1376.556)" fill="#463b39"/>
            </g>
            <g id="Group_8570" data-name="Group 8570" transform="translate(110.522 84.845)">
              <path id="Path_87821" data-name="Path 87821" d="M1271.165,1394.962a.332.332,0,0,1-.1-.014.339.339,0,0,1-.229-.422l3.655-12.331a.34.34,0,0,1,.652.193l-3.655,12.331A.34.34,0,0,1,1271.165,1394.962Z" transform="translate(-1270.825 -1381.952)" fill="#463b39"/>
            </g>
            <g id="Group_8571" data-name="Group 8571" transform="translate(118.982 84.417)">
              <path id="Path_87822" data-name="Path 87822" d="M1348.1,1391.307a.326.326,0,0,1-.065-.006.34.34,0,0,1-.269-.4l2.436-12.566a.34.34,0,1,1,.667.129l-2.436,12.567A.34.34,0,0,1,1348.1,1391.307Z" transform="translate(-1347.755 -1378.06)" fill="#463b39"/>
            </g>
            <g id="Group_8572" data-name="Group 8572" transform="translate(120.195 88.299)">
              <path id="Path_87823" data-name="Path 87823" d="M1359.124,1422.911a.334.334,0,0,1-.056,0,.34.34,0,0,1-.28-.391l1.48-8.88a.34.34,0,0,1,.67.115l-.074.445-1.406,8.432A.34.34,0,0,1,1359.124,1422.911Z" transform="translate(-1358.783 -1413.354)" fill="#463b39"/>
            </g>
            <g id="Group_8573" data-name="Group 8573" transform="translate(128.687 82.303)">
              <path id="Path_87824" data-name="Path 87824" d="M1436.345,1374.1h-.032a.34.34,0,0,1-.307-.37l1.379-14.586a.344.344,0,0,1,.37-.307.34.34,0,0,1,.307.37l-1.379,14.586A.34.34,0,0,1,1436.345,1374.1Z" transform="translate(-1436.005 -1358.832)" fill="#463b39"/>
            </g>
            <g id="Group_8574" data-name="Group 8574" transform="translate(129.836 82.198)">
              <path id="Path_87825" data-name="Path 87825" d="M1446.794,1373.125h-.028a.341.341,0,0,1-.312-.366l1.172-14.563a.349.349,0,0,1,.366-.312.34.34,0,0,1,.312.366l-1.172,14.563A.34.34,0,0,1,1446.794,1373.125Z" transform="translate(-1446.454 -1357.882)" fill="#463b39"/>
            </g>
            <g id="Group_8575" data-name="Group 8575" transform="translate(130.508 94.872)">
              <path id="Path_87826" data-name="Path 87826" d="M1460.5,1473.894h0l-7.6-.09a.34.34,0,0,1-.336-.344.332.332,0,0,1,.344-.336l7.6.09a.34.34,0,0,1,0,.68Z" transform="translate(-1452.567 -1473.125)" fill="#463b39"/>
            </g>
            <g id="Group_8576" data-name="Group 8576" transform="translate(121.074 94.76)">
              <path id="Path_87827" data-name="Path 87827" d="M1374.459,1472.876h0l-7.344-.086a.34.34,0,0,1-.336-.344.332.332,0,0,1,.344-.336l7.344.086a.34.34,0,0,1,0,.68Z" transform="translate(-1366.775 -1472.109)" fill="#463b39"/>
            </g>
            <g id="Group_8577" data-name="Group 8577" transform="translate(111.81 94.651)">
              <path id="Path_87828" data-name="Path 87828" d="M1289.97,1471.88h0l-7.09-.084a.34.34,0,0,1,0-.68h0l7.09.084a.34.34,0,0,1,0,.68Z" transform="translate(-1282.54 -1471.117)" fill="#463b39"/>
            </g>
            <g id="Group_8578" data-name="Group 8578" transform="translate(102.489 94.541)">
              <path id="Path_87829" data-name="Path 87829" d="M1205.185,1470.878h0l-7.061-.083a.34.34,0,0,1,0-.68h0l7.061.083a.34.34,0,0,1,0,.68Z" transform="translate(-1197.784 -1470.115)" fill="#463b39"/>
            </g>
            <g id="Group_8579" data-name="Group 8579" transform="translate(93.123 94.43)">
              <path id="Path_87830" data-name="Path 87830" d="M1120.28,1469.875h0l-7.331-.087a.34.34,0,0,1-.336-.344.345.345,0,0,1,.344-.336l7.331.087a.34.34,0,0,1,0,.68Z" transform="translate(-1112.61 -1469.109)" fill="#463b39"/>
            </g>
            <g id="Group_8580" data-name="Group 8580" transform="translate(130.658 92.76)">
              <path id="Path_87831" data-name="Path 87831" d="M1461.663,1454.736h-.007l-7.393-.14a.34.34,0,0,1-.333-.346.354.354,0,0,1,.346-.333l7.393.14a.34.34,0,0,1-.007.68Z" transform="translate(-1453.93 -1453.917)" fill="#463b39"/>
            </g>
            <g id="Group_8581" data-name="Group 8581" transform="translate(121.456 92.584)">
              <path id="Path_87832" data-name="Path 87832" d="M1377.642,1453.136h-.007l-7.051-.134a.34.34,0,0,1,.013-.68l7.051.134a.34.34,0,0,1-.007.68Z" transform="translate(-1370.251 -1452.323)" fill="#463b39"/>
            </g>
            <g id="Group_8582" data-name="Group 8582" transform="translate(112.304 92.415)">
              <path id="Path_87833" data-name="Path 87833" d="M1294.4,1451.6h-.006l-7.028-.129a.34.34,0,0,1,.006-.68h.006l7.028.129a.34.34,0,0,1-.006.68Z" transform="translate(-1287.03 -1450.787)" fill="#463b39"/>
            </g>
            <g id="Group_8583" data-name="Group 8583" transform="translate(103.467 92.242)">
              <path id="Path_87834" data-name="Path 87834" d="M1213.827,1450.019h-.007l-6.813-.129a.341.341,0,0,1-.333-.347.332.332,0,0,1,.346-.333l6.813.129a.34.34,0,0,1-.006.68Z" transform="translate(-1206.673 -1449.21)" fill="#463b39"/>
            </g>
            <g id="Group_8584" data-name="Group 8584" transform="translate(94.272 92.068)">
              <path id="Path_87835" data-name="Path 87835" d="M1130.578,1448.444h-.007l-7.177-.136a.34.34,0,0,1-.333-.346.354.354,0,0,1,.346-.333l7.177.136a.34.34,0,0,1-.006.68Z" transform="translate(-1123.061 -1447.628)" fill="#463b39"/>
            </g>
            <g id="Group_8585" data-name="Group 8585" transform="translate(130.973 90.245)">
              <path id="Path_87836" data-name="Path 87836" d="M1464.233,1431.815h0l-7.105-.084a.34.34,0,0,1,.008-.68l7.105.084a.34.34,0,0,1,0,.68Z" transform="translate(-1456.788 -1431.052)" fill="#463b39"/>
            </g>
            <g id="Group_8586" data-name="Group 8586" transform="translate(121.818 90.138)">
              <path id="Path_87837" data-name="Path 87837" d="M1380.955,1430.843h0l-7.072-.082a.34.34,0,0,1,.008-.68l7.072.082a.34.34,0,0,1,0,.68Z" transform="translate(-1373.543 -1430.08)" fill="#463b39"/>
            </g>
            <g id="Group_8587" data-name="Group 8587" transform="translate(112.887 90.041)">
              <path id="Path_87838" data-name="Path 87838" d="M1299.547,1429.946h0l-6.878-.073a.34.34,0,0,1,0-.68h0l6.878.073a.34.34,0,0,1,0,.68Z" transform="translate(-1292.329 -1429.193)" fill="#463b39"/>
            </g>
            <g id="Group_8588" data-name="Group 8588" transform="translate(104.382 89.934)">
              <path id="Path_87839" data-name="Path 87839" d="M1222.028,1428.981h0l-6.7-.078a.34.34,0,0,1-.336-.344.349.349,0,0,1,.344-.336l6.7.078a.34.34,0,0,1,0,.68Z" transform="translate(-1214.992 -1428.223)" fill="#463b39"/>
            </g>
            <g id="Group_8589" data-name="Group 8589" transform="translate(95.773 89.833)">
              <path id="Path_87840" data-name="Path 87840" d="M1143.756,1428.062h0l-6.709-.078a.34.34,0,0,1-.336-.344.333.333,0,0,1,.344-.336l6.709.078a.34.34,0,0,1,0,.68Z" transform="translate(-1136.708 -1427.303)" fill="#463b39"/>
            </g>
            <g id="Group_8590" data-name="Group 8590" transform="translate(131.053 88.279)">
              <path id="Path_87841" data-name="Path 87841" d="M1464.884,1413.918h0l-7.025-.068a.34.34,0,0,1-.337-.343.346.346,0,0,1,.343-.337l7.025.068a.34.34,0,0,1,0,.68Z" transform="translate(-1457.52 -1413.171)" fill="#463b39"/>
            </g>
            <g id="Group_8591" data-name="Group 8591" transform="translate(124.44 88.215)">
              <path id="Path_87842" data-name="Path 87842" d="M1402.322,1413.319h0l-4.6-.044a.34.34,0,0,1,0-.68h0l4.6.044a.34.34,0,0,1,0,.68Z" transform="translate(-1397.382 -1412.596)" fill="#463b39"/>
            </g>
            <g id="Group_8592" data-name="Group 8592" transform="translate(113.506 88.113)">
              <path id="Path_87843" data-name="Path 87843" d="M1304.992,1412.408h0l-6.692-.061a.34.34,0,0,1,0-.68h0l6.692.061a.34.34,0,0,1,0,.68Z" transform="translate(-1297.96 -1411.667)" fill="#463b39"/>
            </g>
            <g id="Group_8593" data-name="Group 8593" transform="translate(105.255 88.031)">
              <path id="Path_87844" data-name="Path 87844" d="M1229.806,1411.66h0l-6.532-.062a.34.34,0,0,1,0-.68h0l6.532.062a.34.34,0,0,1,0,.68Z" transform="translate(-1222.935 -1410.918)" fill="#463b39"/>
            </g>
            <g id="Group_8594" data-name="Group 8594" transform="translate(96.826 87.95)">
              <path id="Path_87845" data-name="Path 87845" d="M1153.108,1410.923h0l-6.482-.062a.34.34,0,0,1,0-.679h0l6.482.062a.34.34,0,0,1,0,.68Z" transform="translate(-1146.286 -1410.182)" fill="#463b39"/>
            </g>
            <g id="Group_8595" data-name="Group 8595" transform="translate(130.754 86.46)">
              <path id="Path_87846" data-name="Path 87846" d="M1462.411,1397.323h0l-7.271-.012a.34.34,0,0,1,0-.68h0l7.271.012a.34.34,0,0,1,0,.68Z" transform="translate(-1454.801 -1396.631)" fill="#463b39"/>
            </g>
            <g id="Group_8596" data-name="Group 8596" transform="translate(126.164 86.453)">
              <path id="Path_87847" data-name="Path 87847" d="M1416.849,1397.255h0l-3.444-.006a.34.34,0,0,1,0-.68h0l3.444.006a.34.34,0,0,1,0,.68Z" transform="translate(-1413.065 -1396.57)" fill="#463b39"/>
            </g>
            <g id="Group_8597" data-name="Group 8597" transform="translate(118.943 86.442)">
              <path id="Path_87848" data-name="Path 87848" d="M1349.809,1397.149h0l-2.067,0a.34.34,0,0,1,0-.68h0l2.067,0a.34.34,0,0,1,0,.68Z" transform="translate(-1347.402 -1396.466)" fill="#463b39"/>
            </g>
            <g id="Group_8598" data-name="Group 8598" transform="translate(106.064 86.328)">
              <path id="Path_87849" data-name="Path 87849" d="M1236.787,1396.139h0l-6.162-.027a.34.34,0,0,1,0-.68h0l6.161.027a.34.34,0,0,1,0,.68Z" transform="translate(-1230.286 -1395.432)" fill="#463b39"/>
            </g>
            <g id="Group_8599" data-name="Group 8599" transform="translate(97.529 86.29)">
              <path id="Path_87850" data-name="Path 87850" d="M1159.747,1395.8h0l-6.735-.03a.34.34,0,0,1,0-.679h0l6.734.03a.34.34,0,0,1,0,.68Z" transform="translate(-1152.673 -1395.086)" fill="#463b39"/>
            </g>
            <g id="Group_8600" data-name="Group 8600" transform="translate(106.809 84.444)">
              <path id="Path_87851" data-name="Path 87851" d="M1243.036,1379.054h0l-5.633-.071a.34.34,0,0,1,0-.68h0l5.633.071a.34.34,0,0,1,0,.68Z" transform="translate(-1237.063 -1378.304)" fill="#463b39"/>
            </g>
            <g id="Group_8601" data-name="Group 8601" transform="translate(98.678 84.341)">
              <path id="Path_87852" data-name="Path 87852" d="M1169.747,1378.129h0l-6.281-.079a.34.34,0,0,1-.336-.344.331.331,0,0,1,.344-.335l6.281.079a.34.34,0,0,1,0,.68Z" transform="translate(-1163.126 -1377.369)" fill="#463b39"/>
            </g>
            <g id="Group_8602" data-name="Group 8602" transform="translate(127.765 83.127)">
              <path id="Path_87853" data-name="Path 87853" d="M1430.066,1367.01h-2.1a.34.34,0,0,1,0-.68h2.1a.34.34,0,0,1,0,.68Z" transform="translate(-1427.622 -1366.33)" fill="#463b39"/>
            </g>
            <g id="Group_8603" data-name="Group 8603" transform="translate(119.529 83.123)">
              <path id="Path_87854" data-name="Path 87854" d="M1354.725,1366.97h-1.656a.34.34,0,0,1,0-.68h1.656a.34.34,0,0,1,0,.68Z" transform="translate(-1352.729 -1366.29)" fill="#463b39"/>
            </g>
            <g id="Group_8604" data-name="Group 8604" transform="translate(107.452 83.117)">
              <path id="Path_87855" data-name="Path 87855" d="M1247.24,1366.916h0l-3.991,0a.34.34,0,0,1,0-.68h0l3.991,0a.34.34,0,0,1,0,.68Z" transform="translate(-1242.909 -1366.234)" fill="#463b39"/>
            </g>
            <g id="Group_8605" data-name="Group 8605" transform="translate(99.478 82.981)">
              <path id="Path_87856" data-name="Path 87856" d="M1176.843,1365.784h-.006l-6.1-.1a.34.34,0,0,1-.334-.345.331.331,0,0,1,.346-.334l6.1.1a.34.34,0,0,1-.005.68Z" transform="translate(-1170.4 -1365.001)" fill="#463b39"/>
            </g>
            <g id="Group_8606" data-name="Group 8606" transform="translate(118.754 81.755)">
              <path id="Path_87857" data-name="Path 87857" d="M1348.674,1354.551h0l-2.65-.024a.34.34,0,0,1-.337-.343.324.324,0,0,1,.343-.337l2.65.024a.34.34,0,0,1,0,.68Z" transform="translate(-1345.684 -1353.846)" fill="#463b39"/>
            </g>
            <g id="Group_8607" data-name="Group 8607" transform="translate(108.196 81.662)">
              <path id="Path_87858" data-name="Path 87858" d="M1252.23,1353.7h0l-2.215-.02a.34.34,0,0,1,0-.68h0l2.215.02a.34.34,0,0,1,0,.68Z" transform="translate(-1249.675 -1353.004)" fill="#463b39"/>
            </g>
            <g id="Group_8608" data-name="Group 8608" transform="translate(100.442 81.508)">
              <path id="Path_87859" data-name="Path 87859" d="M1185.382,1352.4h-.007l-5.875-.117a.34.34,0,0,1-.333-.347.354.354,0,0,1,.347-.333l5.875.117a.34.34,0,0,1-.007.68Z" transform="translate(-1179.167 -1351.6)" fill="#463b39"/>
            </g>
            <g id="Group_8609" data-name="Group 8609" transform="translate(119.4 80.228)">
              <path id="Path_87860" data-name="Path 87860" d="M1354.778,1340.648h0l-2.885,0a.34.34,0,0,1,0-.679h0l2.884,0a.34.34,0,0,1,0,.679Z" transform="translate(-1351.554 -1339.965)" fill="#463b39"/>
            </g>
            <g id="Group_8610" data-name="Group 8610" transform="translate(108.544 80.216)">
              <path id="Path_87861" data-name="Path 87861" d="M1254.264,1340.536h-1.082a.34.34,0,0,1,0-.68h1.082a.34.34,0,0,1,0,.68Z" transform="translate(-1252.843 -1339.856)" fill="#463b39"/>
            </g>
            <g id="Group_8611" data-name="Group 8611" transform="translate(101.142 80.127)">
              <path id="Path_87862" data-name="Path 87862" d="M1191.667,1339.8h0l-5.8-.069a.34.34,0,0,1,0-.68h0l5.8.07a.34.34,0,0,1,0,.68Z" transform="translate(-1185.531 -1339.047)" fill="#463b39"/>
            </g>
            <g id="Group_8612" data-name="Group 8612" transform="translate(102.219 78.464)">
              <path id="Path_87863" data-name="Path 87863" d="M1195.667,1324.678a.34.34,0,0,1,0-.68l5.406-.076a.34.34,0,1,1,.009.68l-5.406.076Z" transform="translate(-1195.328 -1323.923)" fill="#463b39"/>
            </g>
            <g id="Group_8613" data-name="Group 8613" transform="translate(102.786 77.103)">
              <path id="Path_87864" data-name="Path 87864" d="M1206.266,1312.284h0l-5.444-.057a.34.34,0,0,1,0-.68h0l5.444.057a.34.34,0,0,1,0,.68Z" transform="translate(-1200.482 -1311.547)" fill="#463b39"/>
            </g>
            <g id="Group_8614" data-name="Group 8614" transform="translate(103.542 75.704)">
              <path id="Path_87865" data-name="Path 87865" d="M1213.161,1299.679h-.011l-5.463-.17a.34.34,0,0,1-.329-.35.347.347,0,0,1,.35-.329l5.463.17a.34.34,0,0,1-.01.68Z" transform="translate(-1207.358 -1298.829)" fill="#463b39"/>
            </g>
            <g id="Group_8615" data-name="Group 8615" transform="translate(125.615 59.258)">
              <path id="Path_87866" data-name="Path 87866" d="M1524.686,1152.708c-5.081.455-18.578.673-53.922-.8-4.611-.193-9.3-.126-13.835-.059-4.955.072-10.082.145-15.113-.121a87.037,87.037,0,0,1-9.366-1.19,63.943,63.943,0,0,0-12.91-1.226c-3.6.151-9.824,3.125-11.357,4.522a.34.34,0,0,0,.457.5c1.435-1.307,7.528-4.2,10.928-4.346a63.541,63.541,0,0,1,12.771,1.219,87.553,87.553,0,0,0,9.439,1.2c5.056.267,10.192.194,15.159.121,4.526-.065,9.2-.133,13.8.059,28.441,1.188,46.583,1.457,53.951.8Z" transform="translate(-1408.072 -1149.281)" fill="#463b39"/>
            </g>
            <g id="Group_8616" data-name="Group 8616" transform="translate(109.709 61.402)">
              <path id="Path_87867" data-name="Path 87867" d="M1267.712,1192.118l-.04,0a4.176,4.176,0,0,1-2.485-1.791c-1.143-1.505-1.9-3.537-1.734-4.625a15.435,15.435,0,0,1,1.849-4.779l.221-.426c.73-1.413,1.3-2.611,1.8-3.77.1-.224.183-.462.271-.7a4.385,4.385,0,0,1,1.668-2.5,15.6,15.6,0,0,1,6.329-1.65c.647-.074,1.315-.151,1.958-.251a59.776,59.776,0,0,0,10.861-2.82.34.34,0,0,1,.228.641,60.492,60.492,0,0,1-10.984,2.851c-.655.1-1.331.179-1.984.254a15.092,15.092,0,0,0-6.061,1.56,3.818,3.818,0,0,0-1.376,2.152c-.093.253-.184.5-.285.737-.5,1.175-1.083,2.387-1.82,3.814l-.222.428a14.917,14.917,0,0,0-1.781,4.571c-.141.9.594,2.778,1.6,4.108a3.466,3.466,0,0,0,2.023,1.526.34.34,0,0,1-.039.677Z" transform="translate(-1263.429 -1168.778)" fill="#463b39"/>
            </g>
            <g id="Group_8617" data-name="Group 8617" transform="translate(112.269 66.899)">
              <path id="Path_87868" data-name="Path 87868" d="M1292.706,1239.844h-.008a2.49,2.49,0,0,1-1.082-.548c-.141-.1-.265-.183-.343-.223-.171-.088-.328-.167-.474-.24a4.192,4.192,0,0,1-2.445-2.4c-.161-.333-.337-.654-.51-.971a6.865,6.865,0,0,1-1.136-3.467,6.556,6.556,0,0,1,1.228-3.246c.09-.151.179-.3.266-.45.311-.534.6-1.079.916-1.657a19.233,19.233,0,0,1,3.5-5.1c1.5-1.4,3.774-1.385,5.776-1.385.478,0,.927,0,1.347-.015a78.932,78.932,0,0,0,12.37-1.377.34.34,0,0,1,.134.667,79.587,79.587,0,0,1-12.476,1.389c-.435.019-.893.017-1.377.016-1.883,0-4.01-.011-5.31,1.2a18.713,18.713,0,0,0-3.366,4.926c-.3.557-.611,1.133-.927,1.676-.088.152-.18.3-.271.457a6.061,6.061,0,0,0-1.132,2.906,6.247,6.247,0,0,0,1.052,3.132c.179.328.36.658.526,1a3.554,3.554,0,0,0,2.138,2.085c.149.075.308.155.481.244.093.048.244.149.414.265a4.034,4.034,0,0,0,.723.431,2.249,2.249,0,0,0,.516-.722l.05-.086a3.075,3.075,0,0,0,.366-2.67,3.519,3.519,0,0,0-.443-.8,3.266,3.266,0,0,1-.585-1.2c-.084-.506.427-1.112,1.1-1.851.163-.178.318-.346.38-.437.125-.183.3-.494.5-.854.8-1.43,1.516-2.633,2.29-2.88a14.952,14.952,0,0,1,3.727-.055.34.34,0,1,1-.066.676,14.371,14.371,0,0,0-3.456.027c-.58.185-1.408,1.673-1.9,2.563-.209.375-.389.7-.533.908a5.578,5.578,0,0,1-.439.512c-.261.285-.956,1.042-.935,1.28a2.837,2.837,0,0,0,.48.937,4.052,4.052,0,0,1,.525.966,3.76,3.76,0,0,1-.43,3.225l-.041.072C1293.517,1239.332,1293.165,1239.844,1292.706,1239.844Z" transform="translate(-1286.708 -1218.761)" fill="#463b39"/>
            </g>
            <g id="Group_8618" data-name="Group 8618" transform="translate(121.431 73.506)">
              <path id="Path_87869" data-name="Path 87869" d="M1371.387,1294.761a1.273,1.273,0,0,1-.962-.386c-.343-.362-.218-1.153.012-2.318a6.321,6.321,0,0,0,.134-.83,6.767,6.767,0,0,0-.241-1.3,4.727,4.727,0,0,1-.2-2.477,6.276,6.276,0,0,1,1.739-2.316,10.5,10.5,0,0,0,1.1-1.181c.212-.281.414-.563.615-.843,1.21-1.687,2.354-3.281,4.741-3.631a26.17,26.17,0,0,1,4.206-.153,18.278,18.278,0,0,0,5.586-.47.34.34,0,0,1,.2.65,18.809,18.809,0,0,1-5.8.5,25.688,25.688,0,0,0-4.1.146c-2.1.308-3.115,1.72-4.287,3.354-.2.284-.409.57-.624.855a10.984,10.984,0,0,1-1.17,1.26,5.678,5.678,0,0,0-1.573,2.058,4.5,4.5,0,0,0,.22,2.085,7.157,7.157,0,0,1,.26,1.45,5.84,5.84,0,0,1-.147.972,5.25,5.25,0,0,0-.177,1.729c.467.489,1.716-.217,2.127-.449a4.68,4.68,0,0,0,1.75-2.555,5.285,5.285,0,0,1,2.148-2.98c2.936-1.6,6.687-.594,10,.3.817.219,1.589.427,2.306.582,1.515.329,3.065.636,4.564.932,2.257.447,4.592.909,6.865,1.457l.228.055c3.726.9,7.583,1.825,11.4,1.723a26.258,26.258,0,0,0,6.948-1.077c.651-.2,1.285-.414,1.912-.626a17.945,17.945,0,0,1,7.2-1.369,73.348,73.348,0,0,1,8.6,1.259.34.34,0,0,1-.125.668,74.194,74.194,0,0,0-8.521-1.25,17.4,17.4,0,0,0-6.94,1.334c-.626.211-1.272.43-1.932.632a26.953,26.953,0,0,1-7.128,1.106c-3.907.1-7.8-.833-11.575-1.742l-.228-.055c-2.26-.545-4.587-1.005-6.838-1.451-1.5-.3-3.056-.6-4.576-.934-.733-.159-1.513-.369-2.338-.591-3.186-.856-6.8-1.826-9.494-.356a4.706,4.706,0,0,0-1.845,2.641,5.251,5.251,0,0,1-2.045,2.889A4.525,4.525,0,0,1,1371.387,1294.761Z" transform="translate(-1370.026 -1278.844)" fill="#463b39"/>
            </g>
            <g id="Group_8619" data-name="Group 8619" transform="translate(121.364 43.382)">
              <path id="Path_87870" data-name="Path 87870" d="M1369.75,1026.16a.34.34,0,0,1-.234-.586,13.757,13.757,0,0,0,1.471-1.77,7.679,7.679,0,0,1,3.469-3.1,23.5,23.5,0,0,1,4.947-.905,23.63,23.63,0,0,0,4.706-.839,19.419,19.419,0,0,0,2.526-1.1,14.407,14.407,0,0,1,3.653-1.4,16.172,16.172,0,0,1,2.873-.143c.214,0,.425.005.615,0h.054a65.153,65.153,0,0,1,7.658.6,47.435,47.435,0,0,0,10.389.464c2.277-.231,4.583-.561,6.814-.88,2.354-.336,4.789-.684,7.2-.918a184.575,184.575,0,0,0,20.181-2.739c5.95-1.258,40.238-7.929,43.763-7.929.038,0,.073,0,.1,0a.34.34,0,0,1-.035.679c-2.776-.13-37.883,6.685-43.691,7.913a185.021,185.021,0,0,1-20.256,2.751c-2.4.233-4.822.58-7.169.915-2.237.32-4.55.65-6.841.883a47.887,47.887,0,0,1-10.538-.465,64.638,64.638,0,0,0-7.631-.6c-.2,0-.406,0-.622,0a15.584,15.584,0,0,0-2.743.132,13.926,13.926,0,0,0-3.475,1.347,20.006,20.006,0,0,1-2.617,1.137,24.171,24.171,0,0,1-4.841.868,22.988,22.988,0,0,0-4.8.874,7.188,7.188,0,0,0-3.139,2.859,14.479,14.479,0,0,1-1.548,1.857A.338.338,0,0,1,1369.75,1026.16Z" transform="translate(-1369.41 -1004.919)" fill="#463b39"/>
            </g>
            <g id="Group_8620" data-name="Group 8620" transform="translate(92.565 68.055)">
              <path id="Path_87871" data-name="Path 87871" d="M1127.857,1229.951h-19.975a.34.34,0,0,1,0-.68h19.975a.34.34,0,0,1,0,.68Z" transform="translate(-1107.542 -1229.271)" fill="#463b39"/>
            </g>
            <g id="Group_8621" data-name="Group 8621" transform="translate(0 68.055)">
              <path id="Path_87872" data-name="Path 87872" d="M322.017,1229.951H266.166a.34.34,0,0,1,0-.68h55.851a.34.34,0,0,1,0,.68Z" transform="translate(-265.826 -1229.271)" fill="#463b39"/>
            </g>
            <g id="Group_8622" data-name="Group 8622" transform="translate(179.218 62.094)">
              <path id="Path_87873" data-name="Path 87873" d="M1897.729,1198.031a.34.34,0,0,1-.323-.232c-2.441-7.324-2.066-15.83-1.467-22.422a.335.335,0,0,1,.369-.307.34.34,0,0,1,.308.37c-.594,6.526-.967,14.941,1.435,22.146a.341.341,0,0,1-.215.43A.362.362,0,0,1,1897.729,1198.031Z" transform="translate(-1895.494 -1175.067)" fill="#463b39"/>
            </g>
            <g id="Group_8623" data-name="Group 8623" transform="translate(186.913 62.118)">
              <path id="Path_87874" data-name="Path 87874" d="M2020.777,1204.79a.31.31,0,0,0-.06-.014c-3.088-.081-49.873-3.229-52.925-3.841-2.215-7.7-1.664-17.78-1.367-23.213.043-.792.082-1.493.106-2.084a.339.339,0,0,0-.325-.354.332.332,0,0,0-.353.325c-.025.589-.063,1.287-.106,2.075-.3,5.513-.863,15.774,1.443,23.61.091.308.118.4,8.4,1.063,4.337.347,10.5.8,17.82,1.311,13.112.914,26.285,1.76,27.294,1.787h.009a.327.327,0,0,0,.069-.014Z" transform="translate(-1965.46 -1175.283)" fill="#463b39"/>
              <path id="Path_87875" data-name="Path 87875" d="M1987.112,1410.077h0Z" transform="translate(-1984.731 -1384.256)" fill="#463b39"/>
            </g>
            <g id="Group_8624" data-name="Group 8624" transform="translate(179.501 54.156)">
              <path id="Path_87876" data-name="Path 87876" d="M1898.6,1110.942a.339.339,0,0,1-.339-.323c-.036-.737-.076-1.313-.11-1.806a18.405,18.405,0,0,1,.348-5.643.34.34,0,0,1,.671.112,17.712,17.712,0,0,0-.341,5.484c.035.5.076,1.078.111,1.821a.34.34,0,0,1-.323.356Z" transform="translate(-1898.066 -1102.884)" fill="#463b39"/>
            </g>
            <g id="Group_8625" data-name="Group 8625" transform="translate(186.679 53.454)">
              <path id="Path_87877" data-name="Path 87877" d="M1964.184,1105.319a.34.34,0,0,1-.335-.284c-.345-2.067-.835-6.462-.222-8.3a.34.34,0,0,1,.645.215c-.53,1.589-.142,5.64.247,7.975a.34.34,0,0,1-.28.391A.347.347,0,0,1,1964.184,1105.319Z" transform="translate(-1963.335 -1096.501)" fill="#463b39"/>
            </g>
            <g id="Group_8626" data-name="Group 8626" transform="translate(127.085 84.422)">
              <path id="Path_87878" data-name="Path 87878" d="M1421.778,1378.81a.34.34,0,0,1,0-.68l2.6-.028h0a.34.34,0,0,1,0,.68l-2.6.028Z" transform="translate(-1421.438 -1378.103)" fill="#463b39"/>
            </g>
            <g id="Group_8627" data-name="Group 8627" transform="translate(119.727 84.511)">
              <path id="Path_87879" data-name="Path 87879" d="M1354.868,1379.61a.34.34,0,0,1,0-.68l1.515-.019a.35.35,0,0,1,.344.335.34.34,0,0,1-.335.344l-1.515.019Z" transform="translate(-1354.528 -1378.911)" fill="#463b39"/>
            </g>
          </g>
        </g>
      </g>
    </g>
  </g>
</svg>
