<svg xmlns="http://www.w3.org/2000/svg" width="110.806" height="83.442" viewBox="0 0 110.806 83.442">
  <g id="Group_8389" data-name="Group 8389" transform="translate(-664.597 -329.251)">
    <path id="Mask" d="M110.4,48.726c-.1.779-2.439,25.515-30.064,22.2-21.887-2.627-35.013-.8-46.409,1.046C21.182,74.03,6.4,73.057,2.737,65.872-2.42,55.767-.514,17.04,10.377,12.22,19.563,8.155,31.548-.589,44.753,1.036s40.906-7.662,50.7,9.842S112.66,30.218,110.4,48.726" transform="translate(664.597 333.56)" fill="#fcf5f3"/>
    <g id="Group_8380" data-name="Group 8380" transform="translate(-1291.706 90.435)">
      <path id="Path_87656" data-name="Path 87656" d="M2098.08,286.078a24.447,24.447,0,0,1,4.328,2.575c1.719,1.383,9.139,6.75,9.139,6.75l-.5,6.121-10.816-3.1Z" transform="translate(-95.154 -36.291)" fill="#1e1721"/>
      <path id="Path_87657" data-name="Path 87657" d="M2062.122,241.992a4.672,4.672,0,0,0-1.222.916,12.749,12.749,0,0,1-1.346,1.285c-.05.05-.1.1-.146.153a16.153,16.153,0,0,1-1.248,1.311c-.2.169-.337.266-.561.081a1.19,1.19,0,0,1-.156-.164,2.187,2.187,0,0,1-.219-.337,12.577,12.577,0,0,1-.5-1.248,4.118,4.118,0,0,0-.586-1.127,3.146,3.146,0,0,1-.383-.523,1.681,1.681,0,0,1,.169-1.783.892.892,0,0,1,.287-.853,1.175,1.175,0,0,1,.352-.219,8.124,8.124,0,0,1,1.087-.219,4.043,4.043,0,0,1,1.559-.37,2.108,2.108,0,0,1,.521.128c.08.033.284-.113.367-.143a1.042,1.042,0,0,1,1.064.211,2.806,2.806,0,0,1,.808,1.315A10.133,10.133,0,0,1,2062.122,241.992Z" transform="translate(-62.513)" fill="#342e38"/>
      <path id="Path_87658" data-name="Path 87658" d="M2059.778,244.242c-.179-.443-.538-.415-.911-.352l-.184.03a1.763,1.763,0,0,1-1.1-.239c-.052-.023-.14.01-.193,0a1.166,1.166,0,0,1-.619-.405,2.512,2.512,0,0,1-.2-.941c-.015-.189,0-.42-.015-.641a1.175,1.175,0,0,0-.352.219.892.892,0,0,0-.287.853,1.681,1.681,0,0,0-.169,1.783,3.148,3.148,0,0,0,.383.523,4.118,4.118,0,0,1,.586,1.127,12.583,12.583,0,0,0,.5,1.248.009.009,0,0,1,0,.008c.058.287.106.5.106.5s0,0,0,0c.01-.017.053-.078.109-.166a1.19,1.19,0,0,0,.156.164c.224.186.363.088.561-.081a16.158,16.158,0,0,0,1.248-1.311c.023-.06.045-.121.065-.184A3.485,3.485,0,0,0,2059.778,244.242Z" transform="translate(-62.513 -2.207)" fill="#1e1721"/>
      <g id="Group_8375" data-name="Group 8375" transform="translate(1993.058 239.484)">
        <g id="Group_8374" data-name="Group 8374" transform="translate(0 0)">
          <path id="Path_87659" data-name="Path 87659" d="M2062.1,247.565c.025.858.055,1.723.166,2.576a2.464,2.464,0,0,0,.138.531c.015.048.035.1.053.143.063.153.133.3.206.445a5.656,5.656,0,0,0,.443.757,9.163,9.163,0,0,0,1.167.365,5.3,5.3,0,0,0,1.132.159h.018a1.921,1.921,0,0,0,1.66-.679c.672-.908.4-2.988.2-4.01a4.277,4.277,0,0,0-.294-.951l0,0a1.89,1.89,0,0,0-1.781-1.235,3.541,3.541,0,0,0-2.533,1.2v0c-.2.191-.385.395-.563.6A.077.077,0,0,0,2062.1,247.565Z" transform="translate(-2060.574 -244.741)" fill="#ffa880"/>
          <path id="Path_87660" data-name="Path 87660" d="M2060.013,270.348a2.38,2.38,0,0,0,1.476.332c.551.015,1.114-.053,1.663-.005a.12.12,0,0,0,.083.008l.088-.013.214-1.766.116-.958v0l.053-.428-2.362-1.409-.44-.264-.2-.121s-.025.134-.068.352c-.021.093-.042.2-.065.324a0,0,0,0,0,0,0c-.028.141-.06.3-.093.463-.168.808-.4,1.844-.563,2.41C2059.8,269.649,2059.645,270.013,2060.013,270.348Z" transform="translate(-2058.804 -260.144)" fill="#ffa880"/>
          <path id="Path_87661" data-name="Path 87661" d="M2072.223,273.334l-.117.959-.077-.02c-.167-.044-.081-.151-.325-.344s-.171-.137-.261-.339-.352-.316-.463-.564.055-.294.1-.285.31.24.555.378A2.433,2.433,0,0,0,2072.223,273.334Z" transform="translate(-2067.374 -265.532)" fill="#f28057"/>
          <path id="Path_87662" data-name="Path 87662" d="M2066.265,246.071l0,0a2.314,2.314,0,0,0-.412-.483c-.211-.128-.443-.013-.659.02-.251.04-.511.018-.76.07a8.862,8.862,0,0,0-1.162.362.431.431,0,0,0-.124.07,1.2,1.2,0,0,0-.38.564.954.954,0,0,0-.02.173c0,.1.007.194,0,.294,0,.164-.013.4-.184.45-.264-.257-.676.055-.686.428a2.815,2.815,0,0,0,.282.978,1.661,1.661,0,0,1-.214.614c-.068.133-.144.259-.2.357-.005.005-.008.013-.012.018s-.008.01-.01.015c-.055.088-.1.149-.108.166a0,0,0,0,0,0,0s-.048-.211-.106-.5a.01.01,0,0,0,0-.008c-.1-.465-.234-1.127-.276-1.436a4.535,4.535,0,0,1-.03-1.512,1.427,1.427,0,0,1,.226-.526,1.813,1.813,0,0,1,.247-.292,3.014,3.014,0,0,1,.307-.252,4.99,4.99,0,0,1,.863-.48,4.778,4.778,0,0,1,2.941-.491C2066.129,244.793,2066.265,246.071,2066.265,246.071Z" transform="translate(-2059.85 -243.91)" fill="#342e38"/>
          <path id="Path_87663" data-name="Path 87663" d="M2058.684,243.92a1.763,1.763,0,0,1-1.1-.239c-.052-.023-.14.01-.193,0a1.166,1.166,0,0,1-.619-.405,2.512,2.512,0,0,1-.2-.941c-.015-.189,0-.42-.015-.641a1.175,1.175,0,0,0-.352.219.892.892,0,0,0-.287.853,1.681,1.681,0,0,0-.169,1.783,3.148,3.148,0,0,0,.383.523,4.118,4.118,0,0,1,.586,1.127,12.583,12.583,0,0,0,.5,1.248.009.009,0,0,1,0,.008c.058.287.106.5.106.5s0,0,0,0c.01-.017.053-.078.109-.166,0,0,.007-.01.01-.015s.007-.013.012-.018c.06-.1.136-.224.2-.357a1.657,1.657,0,0,0,.214-.614,2.816,2.816,0,0,1-.282-.978c.01-.372.423-.684.687-.428.171-.053.181-.287.184-.45,0-.1-.008-.2-.005-.294a1,1,0,0,1,.021-.173,1.194,1.194,0,0,1,.38-.564Z" transform="translate(-2055.572 -241.691)" fill="#1e1721"/>
        </g>
        <path id="Path_87664" data-name="Path 87664" d="M2078.005,266.032c-.022-.071-.323.006-.633,0a5.6,5.6,0,0,1-.642-.072c-.051-.007-.249-.036-.268.034s.109.163.151.2a1.118,1.118,0,0,0,.912.226.765.765,0,0,0,.377-.2C2077.984,266.138,2078.018,266.074,2078.005,266.032Z" transform="translate(-2071.612 -260.315)" fill="#fff"/>
      </g>
      <path id="Path_87665" data-name="Path 87665" d="M2086.226,282.515a15.216,15.216,0,0,1,3.265,1.067c1.258.658,1.687,6.272,2.122,8.433s2.532,23.291,2.448,23.627-4.109,0-4.109,0Z" transform="translate(-86.052 -33.555)" fill="#342e38"/>
      <path id="Path_87666" data-name="Path 87666" d="M2096.7,580.081l-.09,1.974-.778.852-.784-1.013-.177-1.917Z" transform="translate(-92.69 -261.967)" fill="#ffa880"/>
      <g id="Group_8376" data-name="Group 8376" transform="translate(2002.358 319.927)">
        <path id="Path_87667" data-name="Path 87667" d="M2099.536,590.475l-3.83-.072-.011-.313-.006-.187-.055-1.658v-.008l1.562.161s.2.1.488.248c.057.031.119.061.181.094.089.048.179.1.275.148h0c.059.032.118.064.177.1a5.105,5.105,0,0,1,1.088.694.894.894,0,0,1,.113.339c0,.008,0,.013,0,.021a1.125,1.125,0,0,1,.016.171A2.523,2.523,0,0,1,2099.536,590.475Z" transform="translate(-2095.634 -588.237)" fill="#71433d"/>
      </g>
      <path id="Path_87668" data-name="Path 87668" d="M2099.539,590.239a1.158,1.158,0,0,0-.016-.171,2.853,2.853,0,0,0-.643-.231c-.408-.083-.83-.091-1.234-.189-.614-.15-.806-.507-1.241-.9a2.229,2.229,0,0,0-.769-.479l.055,1.658.006.187.011.313,3.83.072S2099.545,590.386,2099.539,590.239Z" transform="translate(-93.278 -268.336)" fill="#5c2f29"/>
      <path id="Path_87669" data-name="Path 87669" d="M2022.233,580.8l-.025,2.016.71.861.847-.96.3-1.9Z" transform="translate(-36.894 -262.595)" fill="#ffa880"/>
      <g id="Group_8377" data-name="Group 8377" transform="translate(1982.942 320.076)">
        <path id="Path_87670" data-name="Path 87670" d="M2011.994,591.061l3.83-.017.015-.313.009-.187.079-1.657v-.008l-1.564.139s-.206.1-.491.241c-.057.03-.12.059-.182.091-.089.047-.18.1-.277.144h0c-.06.031-.119.062-.178.1a5.12,5.12,0,0,0-1.1.679.908.908,0,0,0-.118.337c0,.008,0,.014,0,.021a1.168,1.168,0,0,0-.018.171A2.543,2.543,0,0,0,2011.994,591.061Z" transform="translate(-2011.992 -588.879)" fill="#71433d"/>
      </g>
      <path id="Path_87671" data-name="Path 87671" d="M2011.994,591.087l3.83-.017.015-.313.009-.187.079-1.657a2.228,2.228,0,0,0-.776.468c-.441.384-.638.739-1.253.88-.405.091-.828.094-1.237.171a2.856,2.856,0,0,0-.647.222,1.168,1.168,0,0,0-.018.171A2.543,2.543,0,0,0,2011.994,591.087Z" transform="translate(-29.05 -268.829)" fill="#5c2f29"/>
      <path id="Path_87672" data-name="Path 87672" d="M2043.22,298.925a.358.358,0,0,1-.292.133h-15.812a1.8,1.8,0,0,1-.413-.264,2.583,2.583,0,0,1-.886-2.266c.1-1.69-.807-10.733-.795-12.784.01-2.02.377-3.111,1.949-4.118s6.435-1.7,6.435-1.7a5.815,5.815,0,0,0,1.426.533,3.519,3.519,0,0,0,1.98,0l2.417.531S2043.963,298.044,2043.22,298.925Z" transform="translate(-39.056 -30.033)" fill="#fff"/>
      <path id="Path_87673" data-name="Path 87673" d="M2070.359,334.619a7.438,7.438,0,0,1-.221-3.132c.186-1.036.332-2.722-.45-3.59-.3-.332-.624-.352-.878.068a3.242,3.242,0,0,0-.171,1.492,6.453,6.453,0,0,1-.385,2.92c-.294.573-.81,1-1.139,1.555-.453.757-.523,1.6-1.283,2.173a6.727,6.727,0,0,0-1.341,1.132h5.305a2.133,2.133,0,0,0,.707-1.109A3.5,3.5,0,0,0,2070.359,334.619Z" transform="translate(-69.362 -68.212)" fill="#faf1ee"/>
      <path id="Path_87674" data-name="Path 87674" d="M2072.534,380.249c0,3.1-1.212,37.732-1.222,37.9s-4.551,1.006-5.157,0a2.736,2.736,0,0,1-.166-.319,5.358,5.358,0,0,1-.377-1.977c-.025-.488-.035-1.031-.06-1.645a3.452,3.452,0,0,0-.506-1.655,3.725,3.725,0,0,1-.282-.755,6.916,6.916,0,0,1-.108-2.035c.193-3.039.271-3.6-.478-5.786s-.83-2.515-.47-5.617c.018-.143.028-.292.035-.448a29.663,29.663,0,0,0-.551-5.509c-.284-1.753-.616-3.62-.84-5.393-.125-.991-.216-1.952-.247-2.85-.113-3.366-.44-9.79-.614-13.108-.017-.36-.035-.682-.05-.961,0-.065-.008-.126-.01-.186-.033-.6-.051-.951-.051-.951h9.466s.056.146.146.422c.058.181.131.423.217.715.047.169.1.355.153.559A38.513,38.513,0,0,1,2072.534,380.249Z" transform="translate(-66.973 -99.93)" fill="#6b737e"/>
      <path id="Path_87675" data-name="Path 87675" d="M2018.93,368.951s-.1.249-.272.707c-.045.126-.1.272-.151.43-.093.269-.2.584-.31.936a38.84,38.84,0,0,0-1.663,8.384c-.453,5.785-2.174,38.831-2.174,38.834-.018.383,4.34.56,4.85.442a1.966,1.966,0,0,0,1.515-1.334,4.616,4.616,0,0,0,.384-2.3,4.406,4.406,0,0,1,.548-2.211c.833-1.626.313-3.336.649-5.051.188-.961.9-1.661,1-2.672.094-.9.36-2.918.433-3.822a54.134,54.134,0,0,1,1.157-7.6q.609-3.091,1.241-6.177.052-.257.106-.514c.614-2.9,1.057-6.316,1.079-6.845.02-.483.309-6.075.47-9.174.02-.332.035-.636.048-.9,0-.081.01-.159.012-.231.03-.564.048-.906.048-.906Z" transform="translate(-30.87 -99.927)" fill="#6b737e"/>
      <path id="Path_87676" data-name="Path 87676" d="M2032.223,370.088h16.6c-.086-.292-.159-.533-.216-.714-.091-.277-.146-.422-.146-.422h-15.812s-.1.249-.271.707C2032.329,369.784,2032.278,369.929,2032.223,370.088Z" transform="translate(-44.585 -99.927)" fill="#342e38"/>
      <g id="Group_8378" data-name="Group 8378" transform="translate(1995.447 268.926)">
        <path id="Path_87677" data-name="Path 87677" d="M2068.952,369.849h-3a.088.088,0,0,1-.088-.088v-1.148a.088.088,0,0,1,.088-.088h3a.088.088,0,0,1,.088.088v1.148A.088.088,0,0,1,2068.952,369.849Zm-2.915-.176h2.827V368.7h-2.827Z" transform="translate(-2065.861 -368.525)" fill="#fff"/>
      </g>
      <path id="Path_87678" data-name="Path 87678" d="M1993.207,282.605l-.689,9.926s-2.158.921-4.52,1.887c-.425.174-.855.35-1.283.521-.35.143-.7.282-1.034.417l-.438.174c-.317.126-.624.244-.913.355a8.871,8.871,0,0,1-2.324.727c-.292-.277-4.339-3.864-4.108-4.48a.009.009,0,0,1,0-.008s0-.007.007-.013c.448-1.054,6.935-6.273,9.956-8.185C1990.9,282,1993.207,282.605,1993.207,282.605Z" transform="translate(-2.862 -33.555)" fill="#342e38"/>
      <path id="Path_87679" data-name="Path 87679" d="M2021.251,278.828s-2.09,16.584-2.3,19.014-1.047,7.8-1.215,9.6-.546,4.822-.8,4.988-5.914-1.424-6.08-1.927,2.475-13.292,2.558-15.681c0-.028,0-.055,0-.086.02-.636.035-1.811.055-3.22.063-4.246.178-10.635.667-10.927C2016.308,279.291,2021.251,278.828,2021.251,278.828Z" transform="translate(-28.173 -30.724)" fill="#342e38"/>
      <g id="Group_8379" data-name="Group 8379" transform="translate(1976.604 257.189)">
        <path id="Path_87680" data-name="Path 87680" d="M1994.677,330.562l-1.064.669c0-.005-.007-.008-.01-.013l-.437-.493c-.023-.023-.043-.048-.065-.073-.086-.093-.176-.2-.277-.309-.02-.025-.043-.048-.065-.073-.405-.455-.923-1.041-1.5-1.69s-1.185-1.336-1.809-2.04c-1.469-1.658-2.946-3.333-3.713-4.231-2.611-3.051.164-6.256,2.724-2.935a71.858,71.858,0,0,1,3.932,6.817c.121.229.244.455.362.679l.35.667c.05.1.1.189.148.279.334.631.626,1.2.86,1.65.012.025.025.048.035.07.073.141.138.264.194.377.012.025.025.048.038.073s.035.068.052.1Z" transform="translate(-1984.687 -317.966)" fill="#ffa880"/>
        <path id="Path_87681" data-name="Path 87681" d="M2022.711,370.874a.316.316,0,0,0,.06.1c.008.012.019.024.03.039s.008.007.01.012c.212.27.7.836.984,1.115.024.022.05.051.077.077.212.219.515.573.663.719a.848.848,0,0,0,.068.057.1.1,0,0,0,.1-.017,0,0,0,0,1,0,0,.209.209,0,0,0,.021-.024c0-.008.007-.015.009-.026v-.005a.386.386,0,0,0-.017-.143.839.839,0,0,0,.052.078c.014.02.027.042.043.064.035.046.078.1.121.153a.5.5,0,0,0,.165.128.078.078,0,0,0,.111-.055.7.7,0,0,0-.026-.246c-.016-.065-.036-.127-.053-.176-.023-.065-.048-.116-.054-.131.008.007.037.044.077.09.053.063.128.148.179.208.008.01.016.022.021.027.056.065.228.294.3.15a.347.347,0,0,0-.034-.19,5.424,5.424,0,0,0-.25-.6.173.173,0,0,0-.017-.032c-.031-.064-.073-.15-.117-.239-.07-.145-.139-.286-.156-.32.021.032.092.139.184.271.049.071.1.149.162.227a3.012,3.012,0,0,0,.385.486.08.08,0,0,0,.13-.066,1.828,1.828,0,0,0-.289-.629c-.019-.032-.041-.064-.062-.1-.052-.078-.1-.156-.154-.232a5.672,5.672,0,0,0-.469-.613c-.128-.145-.6-.543-.969-.853-.147-.122-.278-.229-.364-.3a.693.693,0,0,1-.06-.048s-.008,0-.01-.01l-.044-.036s-.414.578-.7.952Z" transform="translate(-2013.884 -357.756)" fill="#ffa880"/>
      </g>
      <path id="Path_87682" data-name="Path 87682" d="M1986.257,325.607s-3.831,2.827-4.462,2.747c-1.238-.164-2.584-2.36-3.906-3.693a18.528,18.528,0,0,1-3.373-4.528,2.947,2.947,0,0,1,.523-3.373s0-.007.007-.013a1.509,1.509,0,0,1,.153-.214l3.074-1.934,2.694,2.37.556.906.614,1,.682,1.117.377.611.561.918Z" transform="translate(0 -58.191)" fill="#342e38"/>
      <path id="Path_87683" data-name="Path 87683" d="M2061.145,274.76l.219-.957,1.972,1.622a2.754,2.754,0,0,1-.409.4A13.151,13.151,0,0,1,2061.145,274.76Z" transform="translate(-66.793 -26.865)" fill="#fff"/>
      <path id="Path_87684" data-name="Path 87684" d="M2070.58,277.952l1.314-.858v.748s-.758.768-.79.758S2070.58,277.952,2070.58,277.952Z" transform="translate(-74.038 -29.392)" fill="#fff"/>
      <path id="Path_87685" data-name="Path 87685" d="M2067.921,281.448a3.5,3.5,0,0,1,1.222.039,4.125,4.125,0,0,1-.321,1.081,1.183,1.183,0,0,1-.6,0A2.377,2.377,0,0,1,2067.921,281.448Z" transform="translate(-71.983 -32.704)" fill="#a03b3b"/>
      <path id="Path_87686" data-name="Path 87686" d="M2067.911,296.407c0,.6-.881,2.106-1.165,2.1-.214,0-.533-.709-.823-1.406-.04-.1-.078-.194-.118-.289-.053-.128-.1-.257-.154-.372a15.927,15.927,0,0,1,.04-3.273q.015-.23.03-.468c.081-1.135.184-2.39.287-3.572.012-.128.025-.257.035-.385.111-1.238.219-2.365.294-3.137v0c.012-.118.023-.229.033-.33.045-.455.073-.725.073-.725l.3-.561.3.561s.008.1.023.282c.005.078.013.169.02.277.043.563.116,1.509.2,2.624.008.093.015.191.023.289.065.89.141,1.874.214,2.842.007.1.015.2.023.307.08,1.089.158,2.146.221,3.024.01.121.018.236.025.347C2067.863,295.555,2067.911,296.269,2067.911,296.407Z" transform="translate(-70.205 -34.684)" fill="#a03b3b"/>
      <path id="Path_87687" data-name="Path 87687" d="M2068.846,433.858c-.546,2.264.083,2.433-.337,4.739a6.2,6.2,0,0,1-1.554,2.983,29.666,29.666,0,0,0-.551-5.509c-.284-1.753-.616-3.62-.84-5.393,0,0,1.668-5.116,2.329-4.845s-.745,3.381,0,4.845S2069.389,431.594,2068.846,433.858Z" transform="translate(-70.186 -143.597)" fill="#525252"/>
      <path id="Path_87688" data-name="Path 87688" d="M2079.788,538.125c-.219.071-.448.734-.541.911a9.224,9.224,0,0,0-.573,1.13c-.209.573-.124,1.155-.594,1.622a8.69,8.69,0,0,1-.911.652,3.452,3.452,0,0,1,.506,1.655c.025.614.035,1.157.06,1.645a5.358,5.358,0,0,0,.377,1.977,3.4,3.4,0,0,0,.181-.342,6.987,6.987,0,0,0,.443-2.533,5.717,5.717,0,0,1,.45-1.63,3.822,3.822,0,0,0,.168-1.331,4.2,4.2,0,0,1,.5-1.756,3.562,3.562,0,0,0,.294-1.039C2080.18,538.864,2080.291,537.964,2079.788,538.125Z" transform="translate(-79.097 -229.815)" fill="#525252"/>
      <path id="Path_87689" data-name="Path 87689" d="M2178.442,349.6c0,6.965-.206,16.207-.241,17.8a.255.255,0,0,1-.247.249c-.576.013-1.836.04-3.527.071-3.564.07-9.033.161-14,.163-7.32,0-15.732-.224-17.523-.259a.249.249,0,0,1-.246-.244c-.038-1.617-.249-11.1-.252-17.809,0-4.08.008-19.636.022-31.557.013-7.677.026-13.845.041-14.474a.248.248,0,0,1,.239-.244c1.212-.033,3.889-.173,10.424-.251,2.317-.028,4.739-.045,7.106-.048,1.406,0,2.835.007,4.249.015,7.667.06,11.893.269,13.279.307a.249.249,0,0,1,.244.247C2178.047,305.16,2178.439,342.633,2178.442,349.6Z" transform="translate(-129.191 -49.288)" fill="#585976"/>
      <path id="Path_87690" data-name="Path 87690" d="M2167.429,414.939c-4-.211-9.572-.519-9.813-.6-.265-.088-6.6-22.569-10.324-35.875q-.54-1.177-1.074-2.357c-1.048-2.325-2.034-4.676-3.062-7.01-.2-.446-.4-.888-.6-1.332l-.125-.068c-.015,11.921-.022,27.477-.022,31.557,0,6.708.214,16.192.251,17.809a.25.25,0,0,0,.247.244c1.791.035,10.2.262,17.523.259,3.094,0,6.382-.037,9.283-.081Q2168.51,416.268,2167.429,414.939Z" transform="translate(-129.191 -98.964)" fill="#2e3054"/>
      <path id="Path_87691" data-name="Path 87691" d="M2170.641,372.46c-1,.007-2,.01-2.971.01-.916,0-1.851,0-2.79-.01-6.938-.035-11.222-.224-12.57-.257a.253.253,0,0,1-.231-.254c-.012-.433-.035-1.4-.065-2.709-.073-3.139-.168-8.208-.171-12.308,0-3.585.008-19.123.02-30.845.01-7.275.02-13.078.035-13.639a.25.25,0,0,1,.231-.252c1.219-.045,4.553-.239,15.359-.241s14.145.224,15.362.267a.249.249,0,0,1,.231.251c.04,1.452.407,38.542.41,44.484,0,2.3-.027,4.837-.063,7.182-.061,3.725-.141,6.943-.166,7.836a.251.251,0,0,1-.231.254c-.692.018-2.143.065-4.339.116Z" transform="translate(-136.437 -56.161)" fill="#faf9fa"/>
      <path id="Path_87692" data-name="Path 87692" d="M2174.355,430.272c-1.555-1.994-2.9-4.143-4.47-6.126a68.309,68.309,0,0,1-3.819-5.893c-1.231-1.984-2.182-3.338-3.256-5.417-1.12-2.168-2.029-4.42-2.947-6.679-1.975-4.857-4.245-9.543-6.4-14.318-.547-1.213-1.077-2.433-1.6-3.654-.01,11.106-.017,24.05-.017,27.281,0,4.1.1,9.169.171,12.308.03,1.306.053,2.277.065,2.709a.254.254,0,0,0,.231.254c1.348.033,5.632.221,12.57.257.938.007,1.874.01,2.79.01.973,0,1.972,0,2.971-.01q2.34-.016,4.26-.046C2174.716,430.726,2174.533,430.5,2174.355,430.272Z" transform="translate(-136.437 -114.697)" fill="#f2f0f2"/>
      <path id="Path_87693" data-name="Path 87693" d="M2187.925,301.465c.085.3-.3.14-.413.083a1.312,1.312,0,0,1,.139.189.125.125,0,0,1-.039.149c-.122.093-.309.01-.493-.079a.367.367,0,0,1,.012.052c.008.312-.493.035-.593-.025a.52.52,0,0,1-.124-.079s.081.1.068.149c-.017.066-.026.165-.244.076a10.1,10.1,0,0,1-.933-.513.559.559,0,0,1,.257-.332,2.107,2.107,0,0,1,1.258-.187,2.6,2.6,0,0,1,.619.164c.165.066.418.163.483.345Z" transform="translate(-162.131 -47.69)" fill="#ffa880"/>
      <path id="Path_87694" data-name="Path 87694" d="M2021.293,368.256q-.6.381-1.215.74c-.023-.023-.043-.048-.065-.073-.085-.093-.176-.2-.277-.309.448-.262.888-.531,1.326-.808.073.141.138.264.194.377C2021.268,368.209,2021.281,368.231,2021.293,368.256Z" transform="translate(-34.996 -99.047)" fill="#342e38"/>
      <path id="Path_87695" data-name="Path 87695" d="M2022.4,368.724a.413.413,0,1,0-.413.413A.413.413,0,0,0,2022.4,368.724Z" transform="translate(-36.406 -99.435)" fill="#fff"/>
      <path id="Path_87696" data-name="Path 87696" d="M2000.92,332.328c.337-.136.684-.274,1.034-.417a1.77,1.77,0,0,0-.913-.677,2.195,2.195,0,0,0-.654-.013.972.972,0,0,1-.148-.01,4.179,4.179,0,0,1-.906-.342c-.395-.143-1.157-.392-1.474.028a.946.946,0,0,0,.121,1.082c.405.518,1.132.309,1.522.79l.068.088c.317.415.478.8,1.014,1.054.281.133.813.329,1.114.121a.561.561,0,0,0,.161-.174l-.561-.918Z" transform="translate(-18.102 -70.527)" fill="#1e1721"/>
      <path id="Path_87697" data-name="Path 87697" d="M2025.665,323.656c-.252.911-1.122.6-1.708,1.874s-1.084,2.025-1.856,2.151a.506.506,0,0,1-.186,0c.02-.636.035-1.811.055-3.22,0,0,3.225-1.557,3.7-2.468S2025.916,322.745,2025.665,323.656Z" transform="translate(-36.669 -63.664)" fill="#1e1721"/>
      <path id="Path_87700" data-name="Path 87700" d="M2168.168,401.246a.348.348,0,0,1-.15.05,18.569,18.569,0,0,1-2.166,0c-.542,0-1.083.006-1.624,0-.174,0-.579.07-.7-.06-.1-.106-.052-.35-.057-.481-.013-.328-.021-.656-.021-.985,0-.267-.044-.821.089-.961.1-.107.657-.069.923-.069h1.139l2.277,0c.388,0,.415.258.415.58q0,.753,0,1.506C2168.3,401.007,2168.291,401.166,2168.168,401.246Z" transform="translate(-145.348 -122.796)" fill="#95a0bf"/>
      <path id="Path_87701" data-name="Path 87701" d="M2178.863,421.548l-.02,0q-.333.033-.668.052c-.532.029-1.07.031-1.6.031-1.269.031-2.539.079-3.809.059-2.942-.048-5.879-.043-8.822-.029-.325,0-.443-.094-.525-.409a3.559,3.559,0,0,1-.05-1.665c.163-.563.629-.49,1-.49l8.106.007c1.79,0,3.573-.009,5.364-.037.339-.005,1.492-.1,1.618.079a2.61,2.61,0,0,1,.126.935,4.686,4.686,0,0,1-.014.652,1.919,1.919,0,0,1-.108.623C2179.35,421.586,2179.068,421.53,2178.863,421.548Z" transform="translate(-145.227 -138.387)" fill="#f8888a"/>
      <path id="Path_87702" data-name="Path 87702" d="M2184.09,461.959a2.253,2.253,0,0,1-.293.014q-9.834-.008-19.667,0a.569.569,0,0,1-.357-.081.711.711,0,0,1-.207-.459,3.323,3.323,0,0,1,.059-1.762c.212-.332.808-.255,1.135-.254l17.988,0h1.172c.493,0,.642.274.64.754a8.764,8.764,0,0,1-.021,1.354A.459.459,0,0,1,2184.09,461.959Z" transform="translate(-145.37 -169.386)" fill="#95a0bf"/>
      <path id="Path_87703" data-name="Path 87703" d="M2186.2,482.372c-.176-.007-7.306,0-10.354-.058-.967-.02-4.322.045-6.9.021-1.379-.013-4.884-.022-5.213-.126-.186-.058-.172-.712-.185-.866a3.027,3.027,0,0,1,.122-1.335c.121-.184.863-.1,1.394-.1l11.653.007c2.573,0,9.242-.067,9.65.05.2.058.2.715.158,1.439C2186.491,482,2186.582,482.388,2186.2,482.372Z" transform="translate(-145.414 -185.114)" fill="#f8888a"/>
      <path id="Path_87704" data-name="Path 87704" d="M2174.736,522.652a.367.367,0,0,1-.052,0l-10.851,0a.208.208,0,0,1-.195-.08,1.053,1.053,0,0,1-.113-.46,5.99,5.99,0,0,1,.032-1.762c.115-.332.441-.254.62-.254l9.825,0h.64a.273.273,0,0,1,.3.2,1.463,1.463,0,0,1,.043.443c0,.458.035,1.014,0,1.461C2174.952,522.536,2174.864,522.634,2174.736,522.652Z" transform="translate(-145.371 -215.984)" fill="#95a0bf"/>
      <path id="Path_87705" data-name="Path 87705" d="M2169.038,543.079c-.077.063-.394.016-.485.018-.386.007-.773.009-1.159.012q-1.437.01-2.874.012h-.616c-.13,0-.452.055-.517-.077a1.031,1.031,0,0,1-.053-.329c-.031-.322-.046-.645-.047-.968a3.533,3.533,0,0,1,.075-.968.28.28,0,0,1,.321-.219c.995,0,4.3,0,4.959-.03a.434.434,0,0,1,.44.178,2.712,2.712,0,0,1,.137,1.435C2169.186,542.723,2169.2,542.946,2169.038,543.079Z" transform="translate(-145.224 -231.677)" fill="#f8888a"/>
      <path id="Path_87706" data-name="Path 87706" d="M2068.515,328.3a16.731,16.731,0,0,0-1.869,2.561c-.041-.1-.078-.194-.118-.289a16.822,16.822,0,0,1,1.962-2.618C2068.5,328.071,2068.508,328.186,2068.515,328.3Z" transform="translate(-70.927 -68.443)" fill="#7b2424"/>
      <path id="Path_87707" data-name="Path 87707" d="M2067.894,313.909a10.337,10.337,0,0,0-1.854,2q.015-.23.03-.468a10.733,10.733,0,0,1,1.8-1.836C2067.879,313.705,2067.886,313.806,2067.894,313.909Z" transform="translate(-70.552 -57.426)" fill="#7b2424"/>
      <path id="Path_87708" data-name="Path 87708" d="M2068.707,300.4a9.716,9.716,0,0,0-1.3,1.107c.012-.128.025-.257.035-.385a10.233,10.233,0,0,1,1.243-1.011C2068.691,300.2,2068.7,300.3,2068.707,300.4Z" transform="translate(-71.601 -47.066)" fill="#7b2424"/>
      <path id="Path_87709" data-name="Path 87709" d="M2069.572,287.893c-.254.156-.506.319-.747.5.013-.118.023-.229.033-.33.226-.156.458-.3.694-.443C2069.557,287.694,2069.564,287.785,2069.572,287.893Z" transform="translate(-72.69 -37.472)" fill="#7b2424"/>
    </g>
  </g>
</svg>
