<svg xmlns="http://www.w3.org/2000/svg" width="110.806" height="96.7" viewBox="0 0 110.806 96.7">
  <g id="Group_8373" data-name="Group 8373" transform="translate(-664.597 -315.993)">
    <path id="Mask" d="M110.4,48.726c-.1.779-2.439,25.515-30.064,22.2-21.887-2.627-35.013-.8-46.409,1.046C21.182,74.03,6.4,73.057,2.737,65.872-2.42,55.767-.514,17.04,10.377,12.22,19.563,8.155,31.548-.589,44.753,1.036s40.906-7.662,50.7,9.842S112.66,30.218,110.4,48.726" transform="translate(664.597 333.56)" fill="#fcf5f3"/>
    <g id="Group_8372" data-name="Group 8372" transform="translate(433.571 175.531)">
      <path id="Path_87612" data-name="Path 87612" d="M407.773,606.983l.381,1.612-.545.829-.756-.641-.646-1.641Z" transform="translate(-115.602 -373.443)" fill="#ffa880"/>
      <g id="Group_8367" data-name="Group 8367" transform="translate(291.205 235.153)">
        <path id="Path_87613" data-name="Path 87613" d="M412.833,616.514l-3.26.456-.052-.264-.03-.158-.251-1.3-.02-.1v-.006l1.347-.074s.188.056.448.145l.166.054c.08.028.164.061.253.089h0c.054.02.108.039.162.061a4.539,4.539,0,0,1,1.018.441.448.448,0,0,1,.06.091.8.8,0,0,1,.08.182.156.156,0,0,1,.006.019.869.869,0,0,1,.035.143A2.058,2.058,0,0,1,412.833,616.514Z" transform="translate(-409.22 -615.068)" fill="#f5e3dc"/>
      </g>
      <path id="Path_87614" data-name="Path 87614" d="M385.941,550.632l-.739-.391-1.209-1.062-4.517-10.853-.945-2.275-.076-.179,5.537-1.3.169,1.395Z" transform="translate(-93.389 -315.481)" fill="#ffa880"/>
      <path id="Path_87615" data-name="Path 87615" d="M384.465,538.573a2.9,2.9,0,0,1-1.963,1.632c-.9.287-1.959.549-2.722.724l-.945-2.275a11.517,11.517,0,0,1,2.873-.8A4.484,4.484,0,0,1,384.465,538.573Z" transform="translate(-93.693 -318.085)" fill="#f28057"/>
      <path id="Path_87616" data-name="Path 87616" d="M268.154,601.2l-.772,1.465-.956.266-.149-.98.591-1.662Z" transform="translate(-3.592 -368.085)" fill="#ffa880"/>
      <g id="Group_8368" data-name="Group 8368" transform="translate(261.79 233.75)">
        <path id="Path_87617" data-name="Path 87617" d="M264.815,610.809a.811.811,0,0,1-.071.3c0,.006,0,.011-.009.015a.676.676,0,0,1-.056.112.093.093,0,0,1-.011.02,2.1,2.1,0,0,1-.121.192l-2.757-1.8.134-.233.082-.138.716-1.234,0-.007.141.11.923.72s.1.166.242.4c.026.047.058.1.089.149.043.076.084.153.132.233l0,0,.084.151A4.433,4.433,0,0,1,264.815,610.809Z" transform="translate(-261.79 -608.035)" fill="#f5e3dc"/>
      </g>
      <path id="Path_87618" data-name="Path 87618" d="M278.93,534.278a1.7,1.7,0,0,1-.086.16c-1.594,2.661-9.085,13.385-9.085,13.385l-.3-.781-.212-1.6,3.526-10.54,1.046-3.128a12.279,12.279,0,0,1,4.428.787C278.947,532.936,279.325,533.48,278.93,534.278Z" transform="translate(-5.968 -313.243)" fill="#ffa880"/>
      <path id="Path_87619" data-name="Path 87619" d="M293.077,534.278a16.092,16.092,0,0,1-4.268.681c-.67-.02-1.328-.028-1.89-.052l1.046-3.128a12.279,12.279,0,0,1,4.428.787A9.315,9.315,0,0,1,293.077,534.278Z" transform="translate(-20.116 -313.243)" fill="#f28057"/>
      <path id="Path_87620" data-name="Path 87620" d="M293.325,418.139s-3.408,15.312-4.519,18.287c-1.444-.149-2.893-.279-4.322-.54a11.271,11.271,0,0,1-4.5-1.673A1.2,1.2,0,0,1,280,434a4.7,4.7,0,0,1,.136-.5c.316-1,1-2.659,1.128-3.36a2.993,2.993,0,0,0,.022-.811c-.022-.292-.065-.584-.078-.874a4.658,4.658,0,0,1,.134-1.319,7.936,7.936,0,0,0,.409-2.9,2.732,2.732,0,0,1,.047-1.366,6.359,6.359,0,0,1,.569-.884c.547-.917.361-2.041.463-3.055a8.228,8.228,0,0,1,.272-1.416,14.75,14.75,0,0,1,.342-4.346c.376-1.676.376-3.206.646-3.252s6.378-.424,8.432-.424,2.865-.45,3.027.424S293.325,418.139,293.325,418.139Z" transform="translate(-14.565 -215.26)" fill="#342e38"/>
      <path id="Path_87621" data-name="Path 87621" d="M312.917,419.3s-1.663,1.189-1.771,2a3.43,3.43,0,0,1-.865,2.026c-.623.785-.242,1.027-.4,1.918a2.484,2.484,0,0,1-.173.579,1.774,1.774,0,0,1-.512.692l-1.431-.216a4.6,4.6,0,0,1,.473-.677c.089-.108.193-.227.309-.35.54-.569-.108-1.189.54-2.108s.947-.919.921-2.054,1.511-1.812,1.511-1.812Z" transform="translate(-36.805 -223.202)" fill="#f5e3dc"/>
      <path id="Path_87622" data-name="Path 87622" d="M348.012,438.61a8.288,8.288,0,0,1-3.568,1.081c-2.216.162-3.892.7-4.27,0s.27-.649-.865-2.378-.324-1.892-1.189-4.108c-.058-.151-.119-.3-.182-.452-.852-2.082-1.974-4.242-1.872-5.6.091-1.232-.318-1.732-1.034-3.321a.017.017,0,0,1,0-.007c-.132-.292-.272-.621-.424-1-.973-2.432-1.784-9.621-1.784-9.621l10.81,1.676s2.177,9.513,2.826,12.594C346.943,429.776,347.743,436.275,348.012,438.61Z" transform="translate(-56.861 -218.327)" fill="#342e38"/>
      <path id="Path_87623" data-name="Path 87623" d="M416.282,356.311h0l-1.511-.2.164-1.838a4.272,4.272,0,0,1,.467.033,3.071,3.071,0,0,1,.726.171C416.635,354.684,416.282,356.311,416.282,356.311Z" transform="translate(-122.457 -171.156)" fill="#ffa880"/>
      <path id="Path_87624" data-name="Path 87624" d="M427.428,315.379s-4.916,5.982-6.493,7.866a3.37,3.37,0,0,1-1.926,1.237,1.953,1.953,0,0,1-.811-.013h0a1.356,1.356,0,0,1-.88-2,3.7,3.7,0,0,1,.744-1.114c.175-.188.435-.435.759-.72,2.32-2.043,7.844-6.136,7.844-6.136Z" transform="translate(-124.373 -139.312)" fill="#ffa880"/>
      <path id="Path_87625" data-name="Path 87625" d="M417.093,349.1a1.954,1.954,0,0,1-.811-.013h0l-1.511-.2.164-1.838a4.276,4.276,0,0,1,.467.033,3.7,3.7,0,0,1,.744-1.113c.175-.188.435-.435.759-.72a9.838,9.838,0,0,0,0,3.423C416.966,348.831,417.031,348.971,417.093,349.1Z" transform="translate(-122.457 -163.93)" fill="#f28057"/>
      <path id="Path_87626" data-name="Path 87626" d="M373.268,297.424c4.79,1.655,5.006,4.035,6.817,6.114s2.784,3.378,2.784,3.378-1.751,4.779-2.375,5.2-.108-.419-1.387-.457a21.488,21.488,0,0,0-2.578.1s-2.274-2.646-2.31-2.8S370.525,296.476,373.268,297.424Z" transform="translate(-88.42 -125.604)" fill="#a03b3b"/>
      <g id="Group_8370" data-name="Group 8370" transform="translate(281.003 140.462)">
        <rect id="Rectangle_5057" data-name="Rectangle 5057" width="1.646" height="4.811" transform="translate(14.368 23.67) rotate(-30.981)" fill="#debbab"/>
        <g id="Group_8369" data-name="Group 8369" transform="translate(0)">
          <path id="Path_87627" data-name="Path 87627" d="M370.429,151.619c1.124,1.872,2.082,3.7,2.879,5.375a64.5,64.5,0,0,1,2.8,6.8,1.31,1.31,0,0,1-.565,1.55l-1.993,1.2a1.309,1.309,0,0,1-1.568-.163,41.7,41.7,0,0,1-5.553-6.62c-.844-1.2-1.741-2.576-2.677-4.135a49.645,49.645,0,0,1-5.624-12.319,1.311,1.311,0,0,1,.593-1.461l1.993-1.2a1.31,1.31,0,0,1,1.633.23A66.475,66.475,0,0,1,370.429,151.619Z" transform="translate(-358.088 -140.462)" fill="#6e7ca6"/>
          <path id="Path_87628" data-name="Path 87628" d="M409.59,233a63.91,63.91,0,0,0-2.467-6.087,3.941,3.941,0,0,1-.864.752,3.168,3.168,0,0,1-2.1.4.53.53,0,0,1-.483.049,5.268,5.268,0,0,1-.763-.414,1.449,1.449,0,0,0-1.475.139,4.756,4.756,0,0,0-1.529,1.125,41.705,41.705,0,0,0,5.553,6.62,1.309,1.309,0,0,0,1.568.163l1.993-1.2A1.31,1.31,0,0,0,409.59,233Z" transform="translate(-391.567 -209.662)" fill="#576899"/>
          <path id="Path_87629" data-name="Path 87629" d="M369.751,160.172c1.163,1.937,2.22,3.794,3.105,5.466,2.151,4.057,3.307,7.033,2.6,7.46-.782.47-3.413-2.362-6.418-6.758-.864-1.267-1.759-2.661-2.65-4.146a67.66,67.66,0,0,1-4.577-8.887c-.949-2.345-1.283-3.943-.784-4.243.91-.546,4.054,3.553,7.6,9.253C368.992,158.917,369.37,159.538,369.751,160.172Z" transform="translate(-360.252 -147.309)" fill="#fff"/>
          <path id="Path_87630" data-name="Path 87630" d="M405.662,234.172c-.037,1.523-2.137-.359-2.572-.65a2.526,2.526,0,0,0-.989-.488c3.005,4.4,5.636,7.228,6.418,6.758.712-.427-.444-3.4-2.6-7.46C405.536,232.689,405.678,233.547,405.662,234.172Z" transform="translate(-393.32 -214.002)" fill="#faf1ee"/>
          <path id="Path_87631" data-name="Path 87631" d="M361.021,149.064c-.5.3-.165,1.9.784,4.243.562-.282,1.62.338,2.01.576a13.794,13.794,0,0,1,3,2.949c.348.4,1.1,1.5,1.807,1.485C365.076,152.617,361.931,148.518,361.021,149.064Z" transform="translate(-360.252 -147.309)" fill="#faf1ee"/>
        </g>
        <path id="Path_87632" data-name="Path 87632" d="M442.1,273.054l10.35,17.239a1.3,1.3,0,0,1-.445,1.78l-1.049.63a1.3,1.3,0,0,1-1.78-.445l-10.35-17.239a1.3,1.3,0,0,1,.444-1.78l1.049-.63A1.3,1.3,0,0,1,442.1,273.054Z" transform="translate(-422.568 -246.096)" fill="#ebccbe"/>
        <path id="Path_87633" data-name="Path 87633" d="M474.971,336.982l-.173-.032a14.965,14.965,0,0,1-2.874-.713c-.969-.4-1.822-1.017-2.751-1.494l4.443,7.4a1.3,1.3,0,0,0,1.78.444l1.049-.63a1.3,1.3,0,0,0,.445-1.78Z" transform="translate(-447.01 -295.98)" fill="#debbab"/>
      </g>
      <g id="Group_8371" data-name="Group 8371" transform="translate(278.458 164.401)">
        <path id="Path_87634" data-name="Path 87634" d="M347.644,260.483a3.581,3.581,0,0,0-2.3,2.047.066.066,0,0,0,.009.084,21.936,21.936,0,0,0,.578,2.142,4.676,4.676,0,0,0,1.029,1.438c1.04.173,2.808.295,3.323-.81.411-.88-.172-2.586-.515-3.412C349.382,261.048,348.733,260.273,347.644,260.483Z" transform="translate(-345.331 -260.448)" fill="#ffa880"/>
        <path id="Path_87635" data-name="Path 87635" d="M347.677,280.367s-.477,2.167-.757,3.034c-.1.319-.244.63.063.925a2.041,2.041,0,0,0,1.263.318c.472.025.958-.021,1.429.033a.106.106,0,0,0,.071.008l.074-.009.222-1.513.122-.821.054-.369Z" transform="translate(-346.504 -276.393)" fill="#ffa880"/>
        <path id="Path_87636" data-name="Path 87636" d="M359.3,287.689l-.122.821-.066-.019c-.142-.041-.066-.131-.271-.3s-.144-.122-.217-.3-.321-.228-.411-.443.026-.212.066-.2a2.358,2.358,0,0,0,.461.306A2.382,2.382,0,0,0,359.3,287.689Z" transform="translate(-355.615 -281.896)" fill="#f28057"/>
      </g>
      <path id="Path_87637" data-name="Path 87637" d="M316.06,318.486c.011,1.029.273,1.611-.595,1.589s-7.051-.618-9.15-.385c-.478.054-1.671-.365-2.478-.313a.6.6,0,0,1-.063,0,26.227,26.227,0,0,1-4.471-.311c-.547-.067-1.02-.121-1.371-.13-.37-.011-.588-.035-.588-.073,0-.679.415-4.642.757-6.81.5-3.167.681-5.758.971-8.363.443-3.991.9-6.581,1.948-7.528a7.8,7.8,0,0,1,4.449-1.909,38.623,38.623,0,0,1,5.751.182c1.957.42,3.8.5,5.31,3.148S316.051,317.456,316.06,318.486Z" transform="translate(-28.461 -123.081)" fill="#b85555"/>
      <path id="Path_87638" data-name="Path 87638" d="M345.735,257.072c-.093.075-.421.189-.5.042-.157-.307-.5-.227-.675-.334a.829.829,0,0,1-.289-.4.753.753,0,0,0-.621-.476.627.627,0,0,1,.02.3c-.074.393-.567.476-.616.892a.68.68,0,0,0,.105.4.6.6,0,0,1,.1.4.653.653,0,0,1-.3.407,1.264,1.264,0,0,1-.575.221,3.35,3.35,0,0,1-.662-.133s.053.157.077.247a1.328,1.328,0,0,0,.192.344c-.155.682-.408,1.589-.408,1.589s-.993-1.874-1-1.878c-.71.176-1.244-1.262-.964-1.882a1.171,1.171,0,0,1,.129-.217,4.971,4.971,0,0,0,.464-.615c.121-.233.2-.492.343-.715a1.517,1.517,0,0,1,1.2-.593,1.213,1.213,0,0,1,1.187-.585,1.444,1.444,0,0,1,.66.306,1.944,1.944,0,0,0,.822.277,1.881,1.881,0,0,1,.375.055,1.332,1.332,0,0,1,.6.588c.1.184.111.391.19.582a1.1,1.1,0,0,0,.2.3.758.758,0,0,1,.113.164A.585.585,0,0,1,345.735,257.072Z" transform="translate(-62.244 -90.936)" fill="#342e38"/>
      <path id="Path_87639" data-name="Path 87639" d="M343.162,264.786a1.144,1.144,0,0,1-.665-.02,2.173,2.173,0,0,0-.312-.154c-.076-.016-.26.027-.318.006-.33-.124-.3-.475-.186-.741s.3-.755-.2-.687c-.242.033-.458.307-.6.479-.115.141-.147.35-.341.4-.109.031-.234.113-.341.131-.143.025-.139-.035-.244-.1a1.053,1.053,0,0,1-.2-.221,1.173,1.173,0,0,0-.129.217c-.28.62.254,2.058.964,1.882.007,0,1,1.878,1,1.878s.253-.906.408-1.589a1.329,1.329,0,0,1-.192-.344c-.025-.091-.077-.247-.077-.247a3.352,3.352,0,0,0,.662.134,1.264,1.264,0,0,0,.575-.221.653.653,0,0,0,.3-.407A.6.6,0,0,0,343.162,264.786Z" transform="translate(-62.244 -98.236)" fill="#1e1721"/>
      <path id="Path_87640" data-name="Path 87640" d="M347.824,290.8l.214-.856,2.238.943s-.553,1.147-.715,1.183A12.361,12.361,0,0,1,347.824,290.8Z" transform="translate(-68.869 -119.656)" fill="#fff"/>
      <path id="Path_87641" data-name="Path 87641" d="M360.114,293.591l.621-.268.212.331s-.2,1.049-.342,1.049S360.114,293.591,360.114,293.591Z" transform="translate(-78.707 -122.363)" fill="#fff"/>
      <path id="Path_87642" data-name="Path 87642" d="M439.886,288.23c-.075-.135-.326.022-.553.15a3.568,3.568,0,0,0-.531.333,1.989,1.989,0,0,0-.432.659,4.541,4.541,0,0,0,.344.772.285.285,0,0,0,.159.108.041.041,0,0,0,.022.005.891.891,0,0,0,.394-.125c.173-.076,1.613-.67,1.689-.729s.046-.12,0-.13a1.816,1.816,0,0,0-.459.088c.03-.011.118-.042.148-.055.12-.049.24-.1.357-.162a2.021,2.021,0,0,0,.186-.107c.054-.035.129-.08.134-.148.009-.113-.152-.051-.224-.031-.109.031-.217.072-.325.113l-.474.18s.427-.261.667-.39c.11-.059.458-.255.441-.355s-.327.032-.48.1c-.265.122-.811.384-.811.384a6.549,6.549,0,0,1,.673-.471c.093-.057.422-.281.4-.366-.037-.12-.541.14-.622.181-.2.1-.407.21-.611.315-.106.054-.212.108-.319.159a1.143,1.143,0,0,1-.228.083c.022-.084.161-.2.227-.261s.187-.131.229-.215A.091.091,0,0,0,439.886,288.23Z" transform="translate(-141.349 -118.124)" fill="#ffa880"/>
      <path id="Path_87643" data-name="Path 87643" d="M396.033,295.073s-.045.039-.128.112l-.326.29c-1.4,1.237-5.66,5-7.2,6.337-2.607,2.264-5.458-.206-2.54-2.322,1.613-1.17,7.232-4.179,9.042-5.129l.385-.2.153-.08Z" transform="translate(-98.314 -122.97)" fill="#ffa880"/>
      <path id="Path_87644" data-name="Path 87644" d="M380.342,321.192a5.912,5.912,0,0,1-2.5.995,10.335,10.335,0,0,1-1.756-.052c-.545-.056-.934-.13-.934-.13l.383-4.16,2.735.668a17.125,17.125,0,0,0,1.613,1.061A7.452,7.452,0,0,1,380.342,321.192Z" transform="translate(-90.744 -141.992)" fill="#ffa880"/>
      <path id="Path_87645" data-name="Path 87645" d="M436.48,294.482c.208.346.419.688.64,1.025l-.326.29c-.24-.365-.471-.737-.7-1.114Z" transform="translate(-139.528 -123.291)" fill="#71433d"/>
      <circle id="Ellipse_1466" data-name="Ellipse 1466" cx="0.345" cy="0.345" r="0.345" transform="translate(296.803 171.591)" fill="#fff"/>
      <path id="Path_87646" data-name="Path 87646" d="M344.8,306.225l-8.045-2.811a3.565,3.565,0,0,1,2.209.216c.683.514,1.25.27,2.223.649a22.219,22.219,0,0,0,2.542.946A1.291,1.291,0,0,1,344.8,306.225Z" transform="translate(-60.005 -130.372)" fill="#a03b3b"/>
      <path id="Path_87647" data-name="Path 87647" d="M324.353,338.7a6.507,6.507,0,0,1-.337,1.65c-.216.351-.7.054-2.135,0s-1.432.568-2.513,0-.784-.865-2.378-.513a6.469,6.469,0,0,1-3.351-.191,3.458,3.458,0,0,0-1.946.362,7.255,7.255,0,0,1,2.946.583c.838.57,1.688,0,3.385.381s1.724.865,2.926.649a6.681,6.681,0,0,1,2.546-.3c1.034.135,1.25-.622,1.44-1.027a8.105,8.105,0,0,0,.352-1.466Z" transform="translate(-39.946 -158.686)" fill="#a03b3b"/>
      <path id="Path_87648" data-name="Path 87648" d="M311.579,389.355c.087-.458.143-.9-.316-.692a3.141,3.141,0,0,0-1.221,1.537,6.692,6.692,0,0,1-1.3,2.034,2.238,2.238,0,0,0-.614.893c-.169.5-.035,1.064-.586,1.349a2.088,2.088,0,0,1-.376.147,26.223,26.223,0,0,0,4.471.311,1.905,1.905,0,0,0-.1-.361c-.158-.391-.571-.642-.7-1.036a3.168,3.168,0,0,1-.047-.59,3.433,3.433,0,0,1-.117-1.04C310.816,390.957,311.4,390.3,311.579,389.355Z" transform="translate(-36.32 -198.638)" fill="#a03b3b"/>
      <path id="Path_87649" data-name="Path 87649" d="M309.713,451.194a1.774,1.774,0,0,1-.512.692l-1.431-.216a4.6,4.6,0,0,1,.473-.677Z" transform="translate(-36.805 -248.575)" fill="#fff"/>
      <path id="Path_87650" data-name="Path 87650" d="M346.795,459.209c-.852-2.082-1.974-4.242-1.872-5.6.091-1.232-.318-1.732-1.033-3.321a.017.017,0,0,1,0-.007s1.576-4.06,2.009-4.024,0,2.571.145,4.024,1.477.869,1.044,2.8.145,2.761.361,4.24A2.619,2.619,0,0,1,346.795,459.209Z" transform="translate(-65.717 -244.783)" fill="#1e1721"/>
      <path id="Path_87651" data-name="Path 87651" d="M286.974,500.442c-.3-.056-.608.214-.835.372-.424.294-.845.592-1.273.882a2.01,2.01,0,0,1-1.557.4,2.76,2.76,0,0,0-.923-.033,2,2,0,0,0-.471.151,2.991,2.991,0,0,1-.022.811c-.127.7-.813,2.359-1.128,3.36a5.312,5.312,0,0,0,1.332-.383,2.314,2.314,0,0,0,.791-.458.991.991,0,0,0,.2-.627c.143-1.1,1.626-1.49,2.443-2a4.34,4.34,0,0,0,1.7-1.5C287.385,501.108,287.437,500.526,286.974,500.442Z" transform="translate(-15.189 -288.152)" fill="#1e1721"/>
      <path id="Path_87652" data-name="Path 87652" d="M263.926,610.5a3.118,3.118,0,0,1-.783-.694c-.3-.435-.149-.845-.2-1.321a1.276,1.276,0,0,0-.08-.342l-.141-.11,0,.007-.716,1.234-.082.138-.134.233,2.757,1.8a2.1,2.1,0,0,0,.121-.192.093.093,0,0,0,.011-.02A2.733,2.733,0,0,0,263.926,610.5Z" transform="translate(0 -374.285)" fill="#ebccbe"/>
      <path id="Path_87653" data-name="Path 87653" d="M412.877,617.029a.862.862,0,0,0-.035-.143.163.163,0,0,0-.006-.019.8.8,0,0,0-.08-.181c-.134.021-.255.043-.35.056a8.724,8.724,0,0,1-1.174.195c-.508,0-.724-.309-1.085-.6a1.628,1.628,0,0,0-.828-.35l.251,1.3.03.158.052.264,3.26-.456A2.06,2.06,0,0,0,412.877,617.029Z" transform="translate(-118.094 -380.652)" fill="#ebccbe"/>
      <path id="Path_87654" data-name="Path 87654" d="M376.085,322.135c-.545-.056-.934-.13-.934-.13l.383-4.16Z" transform="translate(-90.744 -141.992)" fill="#f28057"/>
      <path id="Path_87655" data-name="Path 87655" d="M364.249,280.023c-.039-.051-.26.1-.513.179a4.768,4.768,0,0,1-.54.125c-.044.009-.212.043-.207.1s.135.1.179.116a.96.96,0,0,0,.8-.078.658.658,0,0,0,.249-.267C364.262,280.115,364.271,280.053,364.249,280.023Z" transform="translate(-81.007 -111.708)" fill="#f28057"/>
    </g>
  </g>
</svg>
