<svg xmlns="http://www.w3.org/2000/svg" width="96" height="96" viewBox="0 0 96 96">
  <g id="Group_14726" data-name="Group 14726" transform="translate(-695 -392)">
    <circle id="Ellipse_1579" data-name="Ellipse 1579" cx="48" cy="48" r="48" transform="translate(695 392)" fill="#ededed"/>
    <g id="checklist" transform="translate(667.24 413)">
      <path id="Path_90028" data-name="Path 90028" d="M95.627,30h-6.1v3.691a4.752,4.752,0,0,1-4.746,4.746H67.189a4.752,4.752,0,0,1-4.746-4.746V30h-6.1a1.583,1.583,0,0,0-1.582,1.582V79.254a1.583,1.583,0,0,0,1.582,1.582H95.627a1.583,1.583,0,0,0,1.582-1.582V31.582A1.583,1.583,0,0,0,95.627,30ZM78.995,71.78H62.67a1.582,1.582,0,1,1,0-3.164H78.995a1.582,1.582,0,0,1,0,3.164Zm0-11.18H62.67a1.582,1.582,0,1,1,0-3.164H78.995a1.582,1.582,0,0,1,0,3.164Zm0-11.285H62.67a1.582,1.582,0,1,1,0-3.164H78.995a1.582,1.582,0,0,1,0,3.164Zm11.423,22.2a1.582,1.582,0,1,1-2.237,2.237l-1.321-1.321-1.321,1.321A1.582,1.582,0,0,1,83.3,71.519L84.622,70.2,83.3,68.877a1.582,1.582,0,0,1,2.237-2.237l1.321,1.321,1.321-1.321a1.582,1.582,0,0,1,2.237,2.237L89.1,70.2Zm0-11.18a1.582,1.582,0,1,1-2.237,2.237l-1.321-1.321-1.321,1.321A1.582,1.582,0,0,1,83.3,60.34l1.321-1.321L83.3,57.7a1.582,1.582,0,0,1,2.237-2.237l1.321,1.321,1.321-1.321A1.582,1.582,0,0,1,90.418,57.7L89.1,59.018Zm0-11.285a1.582,1.582,0,0,1-2.237,2.237L86.859,49.97l-1.321,1.321A1.582,1.582,0,0,1,83.3,49.055l1.321-1.321L83.3,46.412a1.582,1.582,0,0,1,2.237-2.237L86.859,45.5l1.321-1.321a1.582,1.582,0,0,1,2.237,2.237L89.1,47.733Z" transform="translate(0 -26.836)" fill="#9ea0a3"/>
      <g id="Group_14692" data-name="Group 14692" transform="translate(65.607)">
        <path id="Path_90029" data-name="Path 90029" d="M178.364,1.582V6.855a1.583,1.583,0,0,1-1.582,1.582h-17.59a1.583,1.583,0,0,1-1.582-1.582V1.582A1.583,1.583,0,0,1,159.192,0h17.59A1.583,1.583,0,0,1,178.364,1.582Z" transform="translate(-157.61)" fill="#9ea0a3"/>
      </g>
    </g>
  </g>
</svg>
