<svg id="Illus" xmlns="http://www.w3.org/2000/svg" xmlns:xlink="http://www.w3.org/1999/xlink" width="124.472" height="96.032" viewBox="0 0 124.472 96.032">
  <defs>
    <clipPath id="clip-path">
      <path id="Clip_48" data-name="Clip 48" d="M0,0H10.206V26.567H0Z" fill="none"/>
    </clipPath>
    <clipPath id="clip-path-2">
      <path id="Mask" d="M110.4,48.726c-.1.779-2.439,25.515-30.064,22.2-21.887-2.627-35.013-.8-46.409,1.046C21.182,74.03,6.4,73.057,2.737,65.872-2.42,55.767-.514,17.04,10.377,12.22,19.563,8.155,31.548-.589,44.753,1.036s40.906-7.662,50.7,9.842S112.66,30.218,110.4,48.726" transform="translate(0 0)" fill="none"/>
    </clipPath>
  </defs>
  <path id="Mask-2" data-name="Mask" d="M110.4,48.726c-.1.779-2.439,25.515-30.064,22.2-21.887-2.627-35.013-.8-46.409,1.046C21.182,74.03,6.4,73.057,2.737,65.872-2.42,55.767-.514,17.04,10.377,12.22,19.563,8.155,31.548-.589,44.753,1.036s40.906-7.662,50.7,9.842S112.66,30.218,110.4,48.726" transform="translate(0.369 19.576)" fill="#fcf5f3"/>
  <g id="Illus-2" data-name="Illus" transform="translate(0 0)">
    <g id="Group_123" data-name="Group 123" transform="translate(5.91 38.782)">
      <path id="Fill_1" data-name="Fill 1" d="M0,1.651C0,2.563,25.8,3.3,57.619,3.3s57.619-.74,57.619-1.651S89.441,0,57.619,0,0,.74,0,1.651" transform="translate(0 44.692)" fill="#e1e1fe"/>
      <g id="Group_7" data-name="Group 7" transform="translate(64.178 55.558)">
        <path id="Fill_5" data-name="Fill 5" d="M18.969.846c0,.467-4.246.846-9.485.846S0,1.313,0,.846,4.246,0,9.484,0s9.485.379,9.485.846" transform="translate(0 0)" fill="#b0affd"/>
      </g>
      <path id="Fill_8" data-name="Fill 8" d="M.011,0,0,9.164l9.223.01L9.234.011Z" transform="translate(33.611 27.157)" fill="#af835b"/>
      <path id="Fill_10" data-name="Fill 10" d="M0,0,0,1.823l9.232.012,0-1.823Z" transform="translate(33.611 27.157)" fill="#af835b"/>
      <path id="Fill_12" data-name="Fill 12" d="M0,1.823l9.6.012L9.6.012,0,0Z" transform="translate(33.242 26.79)" fill="#af835b"/>
      <path id="Fill_14" data-name="Fill 14" d="M0,0,0,2.568l.184-.247.185.247.184-.247.183.247.184-.247.185.247.184-.247.184.247L1.477,0Z" transform="translate(37.305 27.157)" fill="#af835b"/>
      <path id="Fill_16" data-name="Fill 16" d="M.011,0,0,9.164l9.223.01L9.234.011Z" transform="translate(32.873 27.157)" fill="#e9a056"/>
      <path id="Fill_18" data-name="Fill 18" d="M0,0,0,1.823l9.232.012,0-1.823Z" transform="translate(32.873 27.157)" fill="#af835b"/>
      <path id="Fill_20" data-name="Fill 20" d="M0,1.823l9.6.012L9.6.012,0,0Z" transform="translate(32.873 26.79)" fill="#e9a056"/>
      <path id="Fill_22" data-name="Fill 22" d="M0,0,0,2.934l.184-.282.185.282.184-.282.183.282.184-.281.185.282.184-.282.184.282L1.477,0Z" transform="translate(36.566 26.79)" fill="#ea8237"/>
      <path id="Fill_24" data-name="Fill 24" d="M.01,0,0,9.164l9.223.01L9.234.011Z" transform="translate(38.413 17.615)" fill="#af835b"/>
      <path id="Fill_26" data-name="Fill 26" d="M0,0,0,1.823l9.232.012,0-1.823Z" transform="translate(38.413 17.615)" fill="#af835b"/>
      <path id="Fill_28" data-name="Fill 28" d="M0,1.823l9.6.012L9.6.012,0,0Z" transform="translate(38.413 17.615)" fill="#af835b"/>
      <path id="Fill_30" data-name="Fill 30" d="M0,0,0,2.934l.184-.282.185.282.184-.282.183.282.184-.282.185.282.184-.282.184.282L1.477,0Z" transform="translate(42.476 17.615)" fill="#af835b"/>
      <path id="Fill_32" data-name="Fill 32" d="M.01,0,0,9.164l9.223.01L9.234.011Z" transform="translate(38.044 17.615)" fill="#d38c4c"/>
      <path id="Fill_34" data-name="Fill 34" d="M0,0,0,1.823l9.232.012,0-1.823Z" transform="translate(38.044 17.615)" fill="#af835b"/>
      <path id="Fill_36" data-name="Fill 36" d="M0,1.823l9.6.012L9.6.012,0,0Z" transform="translate(37.674 17.615)" fill="#d38c4c"/>
      <path id="Fill_38" data-name="Fill 38" d="M0,0,0,2.568l.184-.247.185.247.184-.247.183.247.184-.247.185.247.184-.247.183.247L1.477,0Z" transform="translate(41.737 17.615)" fill="#ea8237"/>
      <path id="Fill_42" data-name="Fill 42" d="M0,36.7H42.476V0H0Z" transform="translate(37.305)" fill="#c7caf0"/>
      <path id="Fill_44" data-name="Fill 44" d="M.324,1.6A2.927,2.927,0,0,0,1.61,5.549,2.963,2.963,0,0,0,5.586,4.271,2.926,2.926,0,0,0,4.3.322,2.964,2.964,0,0,0,.324,1.6" transform="translate(112.284 26.423)" fill="#7f85d2"/>
      <path id="Fill_45" data-name="Fill 45" d="M0,1.3l.006.412L.011,2.3.129,15.6v.064l15.924.07,9.8.043-.032-.043-.048-.075-.049-.059L16.058,2.184a1.5,1.5,0,0,0-1.04-.614L1.617.01A1.446,1.446,0,0,0,0,1.3" transform="translate(83.105 4.037)" fill="#c7caf0"/>
      <path id="Fill_47" data-name="Fill 47" d="M0,1.2V13.579l5.1-.014,1.912,0,2.77-.008,3.025-.008,5.481-.013.917,0V12.044a2.21,2.21,0,0,0-.375-1.233L12.98,2.119a2.049,2.049,0,0,0-1.46-.893L9.554.991,3.565.275,1.333.008A1.179,1.179,0,0,0,.5.225,1.186,1.186,0,0,0,0,1.2" transform="translate(84.213 5.872)" fill="rgba(241,242,255,0.7)"/>
      <path id="Fill_48" data-name="Fill 48" d="M0,0V19.817H24.3c2.366,0,9.306-.156,9.306-.156V9.64A9.517,9.517,0,0,0,26.26.135h-.005c-.135-.027-.265-.049-.4-.07a.031.031,0,0,1-.022-.006A9.605,9.605,0,0,0,24.592,0Z" transform="translate(81.997 19.45)" fill="#c7caf0"/>
      <path id="Fill_49" data-name="Fill 49" d="M.76,1.468H3.673a.747.747,0,0,0,.76-.734A.747.747,0,0,0,3.673,0H.76A.747.747,0,0,0,0,.734a.747.747,0,0,0,.76.734" transform="translate(84.582 20.918)" fill="#7f85d2"/>
      <path id="Fill_51" data-name="Fill 51" d="M0,0,9.274,13.212l5.5-.013L6.01.713Z" transform="translate(87.537 6.239)" fill="rgba(255,255,255,0.7)"/>
      <path id="Fill_52" data-name="Fill 52" d="M0,.961V3.236l6.884,9.976L9.6,13.2.489,0A1.179,1.179,0,0,0,0,.961" transform="translate(84.213 6.239)" fill="rgba(255,255,255,0.7)"/>
      <path id="Fill_53" data-name="Fill 53" d="M0,0V7.34l5.171-.014Z" transform="translate(84.213 12.111)" fill="rgba(255,255,255,0.7)"/>
      <path id="Fill_54" data-name="Fill 54" d="M2.236,4.4H3.674A2.219,2.219,0,0,0,5.91,2.2,2.219,2.219,0,0,0,3.674,0H2.236A2.219,2.219,0,0,0,0,2.2,2.219,2.219,0,0,0,2.236,4.4" transform="translate(112.653 34.13)" fill="#a4a4f7"/>
      <path id="Fill_55" data-name="Fill 55" d="M14.035,4.771,12.788,3.006A7.013,7.013,0,0,0,1.321,2.944L0,4.771" transform="translate(43.953 31.561)" fill="#0a0a0a"/>
      <path id="Fill_56" data-name="Fill 56" d="M1.456,2.936H79.8a1.428,1.428,0,0,0,1.456-1.4V1.4A1.428,1.428,0,0,0,79.8,0H1.456A1.428,1.428,0,0,0,0,1.4v.139a1.428,1.428,0,0,0,1.456,1.4" transform="translate(35.458 36.332)" fill="#7f85d2"/>
      <path id="Fill_57" data-name="Fill 57" d="M14.035,4.771,12.788,3.006A7.013,7.013,0,0,0,1.321,2.944L0,4.771" transform="translate(89.384 31.561)" fill="#7f85d2"/>
      <path id="Fill_58" data-name="Fill 58" d="M0,6.606A6.649,6.649,0,1,0,6.648,0,6.627,6.627,0,0,0,0,6.606" transform="translate(89.753 33.029)" fill="#6e73ba"/>
      <path id="Fill_59" data-name="Fill 59" d="M0,4.954A4.986,4.986,0,1,0,4.987,0,4.971,4.971,0,0,0,0,4.954" transform="translate(91.231 34.497)" fill="#fefefe"/>
      <path id="Fill_60" data-name="Fill 60" d="M0,3.67A3.694,3.694,0,1,0,3.694,0,3.682,3.682,0,0,0,0,3.67" transform="translate(92.708 35.965)" fill="#6e73ba"/>
      <path id="Fill_63" data-name="Fill 63" d="M0,.734A.739.739,0,1,0,.739,0,.737.737,0,0,0,0,.734" transform="translate(95.663 38.901)" fill="#fff"/>
      <path id="Fill_65" data-name="Fill 65" d="M0,6.606A6.649,6.649,0,1,0,6.649,0,6.627,6.627,0,0,0,0,6.606" transform="translate(44.323 33.029)" fill="#173a2c"/>
      <path id="Fill_66" data-name="Fill 66" d="M0,4.954A4.986,4.986,0,1,0,4.987,0,4.971,4.971,0,0,0,0,4.954" transform="translate(45.8 34.497)" fill="#fefefe"/>
      <path id="Fill_67" data-name="Fill 67" d="M0,3.67A3.694,3.694,0,1,0,3.694,0,3.682,3.682,0,0,0,0,3.67" transform="translate(47.277 35.965)" fill="#0a0a0a"/>
      <path id="Stroke_68" data-name="Stroke 68" d="M0,3.3A3.324,3.324,0,1,0,3.324,0,3.314,3.314,0,0,0,0,3.3Z" transform="translate(47.647 36.332)" fill="none" stroke="#fefefe" stroke-miterlimit="10" stroke-width="0.254"/>
      <path id="Fill_69" data-name="Fill 69" d="M0,2.018A2.031,2.031,0,1,0,2.032,0,2.025,2.025,0,0,0,0,2.018" transform="translate(48.755 37.433)" fill="#81172b"/>
      <path id="Stroke_70" data-name="Stroke 70" d="M.439,1.1A2.856,2.856,0,0,0,.473.659,2.76,2.76,0,0,0,.395,0" transform="translate(51.83 38.901)" fill="none" stroke="#0a0a0a" stroke-linecap="round" stroke-miterlimit="10" stroke-width="0.254"/>
      <path id="Stroke_71" data-name="Stroke 71" d="M0,.734A1.339,1.339,0,0,0,.739,0" transform="translate(51.34 40.369)" fill="none" stroke="#0a0a0a" stroke-linecap="round" stroke-miterlimit="10" stroke-width="0.254"/>
      <path id="Stroke_72" data-name="Stroke 72" d="M0,.158a1.97,1.97,0,0,0,.739.25" transform="translate(49.863 40.636)" fill="none" stroke="#0a0a0a" stroke-linecap="round" stroke-miterlimit="10" stroke-width="0.254"/>
      <path id="Stroke_73" data-name="Stroke 73" d="M.3,0A1.846,1.846,0,0,0,.448.734" transform="translate(48.935 39.635)" fill="none" stroke="#0a0a0a" stroke-linecap="round" stroke-miterlimit="10" stroke-width="0.254"/>
      <path id="Fill_74" data-name="Fill 74" d="M0,.734A.739.739,0,1,0,.739,0,.737.737,0,0,0,0,.734" transform="translate(50.232 38.901)" fill="#0a0a0a"/>
      <path id="Stroke_75" data-name="Stroke 75" d="M0,.917A.923.923,0,1,0,.923,0,.92.92,0,0,0,0,.917Z" transform="translate(49.863 38.534)" fill="none" stroke="#fefefe" stroke-miterlimit="10" stroke-width="0.127"/>
      <g id="Group_97" data-name="Group 97" transform="translate(43.064 5.088)">
        <path id="Fill_92" data-name="Fill 92" d="M.919,26.724H2.573a.918.918,0,0,0,.919-.917V.917A.918.918,0,0,0,2.573,0H.919A.918.918,0,0,0,0,.917v24.89a.918.918,0,0,0,.919.917" transform="translate(26.921 0)" fill="#bcbfe7"/>
        <path id="Fill_93" data-name="Fill 93" d="M.919,26.724H2.574a.918.918,0,0,0,.919-.917V.917A.919.919,0,0,0,2.573,0H.919A.918.918,0,0,0,0,.917v24.89a.918.918,0,0,0,.919.917" transform="translate(20.191 0)" fill="#bcbfe7"/>
        <path id="Fill_94" data-name="Fill 94" d="M.919,26.724H2.573a.918.918,0,0,0,.919-.917V.917A.918.918,0,0,0,2.573,0H.919A.918.918,0,0,0,0,.917v24.89a.918.918,0,0,0,.919.917" transform="translate(13.461 0)" fill="#bcbfe7"/>
        <path id="Fill_95" data-name="Fill 95" d="M.919,26.724H2.573a.918.918,0,0,0,.919-.917V.917A.918.918,0,0,0,2.573,0H.919A.918.918,0,0,0,0,.917v24.89a.918.918,0,0,0,.919.917" transform="translate(6.731 0)" fill="#bcbfe7"/>
        <path id="Fill_96" data-name="Fill 96" d="M.919,26.724H2.573a.919.919,0,0,0,.92-.917V.917A.919.919,0,0,0,2.573,0H.919A.918.918,0,0,0,0,.917v24.89a.918.918,0,0,0,.919.917" transform="translate(0 0)" fill="#bcbfe7"/>
      </g>
      <path id="Fill_118" data-name="Fill 118" d="M2.182,2.2l.4-.672L.4,0,0,.672Z" transform="translate(100.834 17.982)" fill="#5858c4"/>
      <path id="Fill_119" data-name="Fill 119" d="M0,.431v3.21a.365.365,0,0,0,.679.212l.514-.87A2.092,2.092,0,0,0,1.123.763L.723.176A.4.4,0,0,0,0,.431" transform="translate(100.834 16.881)" fill="#7f85d2"/>
      <path id="Fill_120" data-name="Fill 120" d="M0,3.73a.363.363,0,0,0,.674.122l.516-.871A2.079,2.079,0,0,0,1.12.761L.718.173A.4.4,0,0,0,.453,0L.762.454a2.079,2.079,0,0,1,.07,2.221l-.516.871A.356.356,0,0,1,0,3.73" transform="translate(100.834 16.881)" fill="#7f85d2"/>
      <path id="Fill_121" data-name="Fill 121" d="M.814,1.468H2.141A.777.777,0,0,0,2.955.734.777.777,0,0,0,2.141,0H.814A.778.778,0,0,0,0,.734a.777.777,0,0,0,.814.734" transform="translate(102.681 19.45)" fill="#7f85d2"/>
      <path id="Fill_122" data-name="Fill 122" d="M0,.915a.759.759,0,0,0,.2.32.839.839,0,0,0,.584.233H2.129a.81.81,0,0,0,.826-.8.776.776,0,0,0-.242-.56A.714.714,0,0,0,2.568,0a.751.751,0,0,1,.04.241.811.811,0,0,1-.826.8H.439A.829.829,0,0,1,0,.915" transform="translate(102.681 19.45)" fill="#7f85d2"/>
    </g>
    <g id="Group" transform="translate(20.314)">
      <g id="Fill_1-2" data-name="Fill 1" transform="translate(5.54 48.755)">
        <g id="Fill_1-3" data-name="Fill 1" transform="translate(0 0)">
          <path id="Fill_1-4" data-name="Fill 1" d="M29.446,42.367c-.182-1.847-.107-3.7-.246-5.551-.124-1.648-.172-3.3-.284-4.95s-.589-12.578-.821-14.238c-.2-1.434-1.038-7.272-1.128-8.787A17.582,17.582,0,0,0,25.972,4.2c-.273-.809-.543-1.619-.736-2.444-.048-.139-.1-.278-.143-.419a.124.124,0,0,0-.111-.091A10.374,10.374,0,0,1,22.11.521a4.6,4.6,0,0,0-2.2-.512c-.955.072-1.9.244-2.858.3-.937.056-1.875.072-2.812.075C12.36.391,10.481.343,8.608.467a24.962,24.962,0,0,0-2.6.3A18.206,18.206,0,0,1,3.587,1.1C3.65.985,3.71.87,3.774.759c.077-.134-.123-.26-.2-.126-.09.155-.175.313-.261.47-.085,0-.17-.005-.255-.009L3,1.334l.183.006c-.117.216-.23.434-.341.653-.687,2.864-1.3,5.747-1.725,8.662-.437,3-.494,6.008-.786,9.017C.186,21.137.02,22.6,0,24.076-.018,25.572.292,42.37.324,43.1c0,.1.01.2.015.294l12.751.25c.2-.948.48-1.884.736-2.823.481-1.767.209-3.5.215-5.332.009-2.837.381-6.464.381-6.464a90.192,90.192,0,0,0,.729,9.94c.2,1.023-.214,1.969-.187,3.024.014.566-.007,1.134.008,1.7l14.55.267c.01-.232.018-.463.028-.695-.036-.3-.073-.594-.1-.891" transform="translate(0 0)" fill="#b85555"/>
        </g>
      </g>
      <g id="Group_136" data-name="Group 136" transform="translate(0)">
        <path id="Fill_3" data-name="Fill 3" d="M1.692,10.711A1.729,1.729,0,0,1,.319,9.943C-.229,9.179.087,1.04.125.115A.125.125,0,0,1,.262,0,.125.125,0,0,1,.389.124c-.147,3.6-.228,9.16.152,9.691a1.456,1.456,0,0,0,1.165.659.13.13,0,0,1,.14.111.124.124,0,0,1-.124.126H1.692" transform="translate(16.99 53.926)" fill="#7f3e3e"/>
        <path id="Fill_5-2" data-name="Fill 5" d="M2.585,2.585,1.322,0,.037.9S-.01,2.172,0,2.232s2.584.353,2.584.353" transform="translate(21.792 15.144)" fill="#4d3932"/>
        <path id="Fill_7" data-name="Fill 7" d="M21.3,12.883c-.426-1.076-1.735-1.338-2.723-1.51-3.064-.531-5.108-1.673-6.2-4.791-.67-1.92-.316-3.756.076-5.7a.122.122,0,0,0-.133-.138q-3,.347-6.019.442Q6.292.645,6.286.1c0-.156-.238-.125-.237.03q0,.532.011,1.063l-.241.009c-.06-.077-.2-.074-.21.049-.072,1.3-.036,2.614-.145,3.917A6.054,6.054,0,0,1,5.1,7.187,4.2,4.2,0,0,1,3.524,8.834C3.009,9.18,0,10.427,0,10.427s3.16,3.019,3.718,3.131c1.648.333,3.33.563,5,.793a18.231,18.231,0,0,0,4.541-.034,3.091,3.091,0,0,0,1.121,1.219,7.637,7.637,0,0,0,2.733.834q1.815.313,3.631.619a.123.123,0,0,0,.149-.082,11.732,11.732,0,0,0,.453-2.192,4.1,4.1,0,0,0-.044-1.831" transform="translate(10.711 13.297)" fill="#ffa18a"/>
        <path id="Fill_116" data-name="Fill 116" d="M3.2,1.192c-.232.341-.316.407-.832.482s-.392.508-1.009.382S.914,1.773.328,1.7A1.38,1.38,0,0,1,0,1.619a2.092,2.092,0,0,0,.121-.5A9.476,9.476,0,0,0,.165.017S.165,0,.165,0,1.518,1.088,2.118,1.048A6.463,6.463,0,0,0,3.647.44c.127,0-.214.411-.446.752" transform="translate(16.252 16.252)" fill="#f2815c"/>
        <path id="Fill_9" data-name="Fill 9" d="M8.385,18.468l1.305-.443s.356-14.911.268-15.033S.28,0,.28,0L0,1.636Z" transform="translate(8.126 56.511)" fill="#ffd191"/>
        <path id="Fill_11" data-name="Fill 11" d="M1.255,0l9.087,3.021-.056,13.841-1.453.5L0,.921Z" transform="translate(7.387 57.25)" fill="#fff"/>
        <path id="Fill_13" data-name="Fill 13" d="M.06,0,16.621,5.4l-.059,14.179L0,14.481Z" transform="translate(0 55.773)" fill="#ffd191"/>
        <path id="Fill_15" data-name="Fill 15" d="M14.8,6.289a8.921,8.921,0,0,0-3.589-5.018A6.5,6.5,0,0,0,8.095.012,5.04,5.04,0,0,0,5.419.574a5.163,5.163,0,0,0-1.979.475A7.514,7.514,0,0,0,1.659,2.481,5.266,5.266,0,0,0,.16,6.847,7.627,7.627,0,0,1,.218,8.166,12.377,12.377,0,0,0,0,9.539,2.751,2.751,0,0,0,.5,10.93a12.566,12.566,0,0,0,2.075,2.736c.452.4,1.084.7,1.517,1.15-.01.069-.022.138-.028.208-.013.142.187.155.232.038a1.555,1.555,0,0,1,.192.367c.052.145.287.087.235-.06a1.86,1.86,0,0,0-.378-.625c.013-.077.03-.152.047-.228a5.965,5.965,0,0,0,.882.527,3.959,3.959,0,0,0,1.326.385,17.807,17.807,0,0,0,1.865-.155,13.769,13.769,0,0,0,1.678.063,2.788,2.788,0,0,0,1.267-.566A6.437,6.437,0,0,0,12.625,13.7c.4-.492.569-1.13.961-1.636A6.032,6.032,0,0,0,15.031,9.52,6.439,6.439,0,0,0,14.8,6.289" transform="translate(11.819 0)" fill="#4d3932"/>
        <path id="Fill_17" data-name="Fill 17" d="M11.71,8.04a10.744,10.744,0,0,0,.1-1.1c.028-1.762.1-3.112-1-4.656A5.842,5.842,0,0,0,7.485.269,5.629,5.629,0,0,0,2.474.977,5.756,5.756,0,0,0,.131,5.227a14.313,14.313,0,0,0,.38,5.708A10.176,10.176,0,0,0,1.76,14.04a5.733,5.733,0,0,0,2.564,2.229A4.764,4.764,0,0,0,8.7,15.863a5.906,5.906,0,0,0,2.184-3.342A23.066,23.066,0,0,0,11.71,8.04" transform="translate(13.297 1.477)" fill="#ffa18a"/>
        <path id="Fill_19" data-name="Fill 19" d="M.426.013c-.549-.172-.54,1.42-.131,1.463A.315.315,0,0,0,.56,1.343C.8,1.052.843.144.426.013" transform="translate(15.513 8.865)" fill="#382823"/>
        <path id="Fill_21" data-name="Fill 21" d="M.426.013c-.549-.172-.54,1.42-.131,1.463A.315.315,0,0,0,.56,1.343C.8,1.052.843.144.426.013" transform="translate(21.053 8.865)" fill="#382823"/>
        <path id="Fill_23" data-name="Fill 23" d="M.945,2.585a.229.229,0,0,1-.094-.019C-.017,2.168,0,2.033,0,1.989a1.131,1.131,0,0,1,.172-.35,4.646,4.646,0,0,0,.3-.561A2.5,2.5,0,0,0,.6.11C.6.052.665,0,.754,0S.92.042.924.1A2.6,2.6,0,0,1,.786,1.133a4.8,4.8,0,0,1-.31.581A1.4,1.4,0,0,0,.325,2,3.949,3.949,0,0,0,1.04,2.4c.073.033.09.1.038.146a.2.2,0,0,1-.133.044" transform="translate(18.098 9.973)" fill="#f2795c"/>
        <path id="Fill_25" data-name="Fill 25" d="M0,0A11.961,11.961,0,0,0,1.841.185,14.718,14.718,0,0,0,3.694.139S3.061,1.651,1.706,1.461A2.125,2.125,0,0,1,0,0" transform="translate(16.99 13.666)" fill="#fff"/>
        <path id="Fill_29" data-name="Fill 29" d="M2.554.333A.52.52,0,0,0,2.272.114,1.867,1.867,0,0,0,.036.879.212.212,0,0,0,0,.973a.134.134,0,0,0,.116.134A.327.327,0,0,0,.291,1.06,2.694,2.694,0,0,1,1.768.724a1.421,1.421,0,0,0,.568.031A.328.328,0,0,0,2.585.474.271.271,0,0,0,2.554.333" transform="translate(14.405 7.756)" fill="#4d3932"/>
        <path id="Fill_31" data-name="Fill 31" d="M.035.286a.515.515,0,0,1,.289-.2A1.943,1.943,0,0,1,2.552.894a.2.2,0,0,1,.033.09.129.129,0,0,1-.12.124.346.346,0,0,1-.175-.051A2.848,2.848,0,0,0,.815.685,1.509,1.509,0,0,1,.243.695.321.321,0,0,1,0,.419.246.246,0,0,1,.035.286" transform="translate(20.314 7.756)" fill="#4d3932"/>
        <path id="Fill_33" data-name="Fill 33" d="M1.408.058s1.15-.441,1.177,1.116S1.9,3.723.991,3.693,0,2.445,0,2.445Z" transform="translate(22.531 9.234)" fill="#ffa18a"/>
        <path id="Fill_35" data-name="Fill 35" d="M1.464.1S.322-.456.061,1.06s.337,2.561,1.3,2.63S2.585,2.581,2.585,2.581Z" transform="translate(12.189 9.234)" fill="#ffa18a"/>
        <path id="Fill_37" data-name="Fill 37" d="M11.752,2.692C10.412,1.166,7.674-.582,5.5.188a.641.641,0,0,0-.392-.08A4.122,4.122,0,0,0,3.894.6a10.73,10.73,0,0,0-1.537.539,2.864,2.864,0,0,0-.73.939A11.23,11.23,0,0,0,.063,6.428a.1.1,0,0,0-.063.1c0,.1.007.2.013.293,0,.009,0,.018,0,.027A.108.108,0,0,0,.02,6.9a5.217,5.217,0,0,0,.167.946c.018.067.332.128.4.121A1.49,1.49,0,0,0,1.494,7.6c.423-.318.306-.639.474-1.087a6.111,6.111,0,0,1,.481-.854,1.157,1.157,0,0,0,.332.492.294.294,0,0,0,.252.042c.369-.1.831-.115,1.078-.43a5.821,5.821,0,0,1,.4-.865c.2-.262.483-.459.709-.7a1.942,1.942,0,0,0,.468-1.47,1.859,1.859,0,0,0,.434.609,2.809,2.809,0,0,0,.835.5c.466.193,1.168.2,1.478.612.23.3.226.691.526.962a5.93,5.93,0,0,0,1,.571,3.9,3.9,0,0,1,1.162.971,2.25,2.25,0,0,1,.433,1.2c.02.267-.143.731.068.953.332.348.876-.134.958-.456a10.945,10.945,0,0,0,.332-2.146,5.549,5.549,0,0,0-1.17-3.818" transform="translate(12.558 1.108)" fill="#4d3932"/>
        <path id="Fill_39" data-name="Fill 39" d="M25.852,4.462a3.083,3.083,0,0,0-.007-.376,1.106,1.106,0,0,0-.048-.243c-.086-.257-.283-.408-.683-.6a7.11,7.11,0,0,0-3.08-.57h-.029c-.4,0-.809.007-1.207.015A11.351,11.351,0,0,1,17.245,2.4c-1.26-.381-6.665-.958-8.119-1.223C7.563.9,4.919.292,3.606.064a3.4,3.4,0,0,0-1.315,0A2.3,2.3,0,0,0,1.027.842,3.779,3.779,0,0,0,.318,3.23c0,.083,0,.165,0,.248-.007.437.01.866.014,1.257a24.671,24.671,0,0,0-.2,5.233q.007.12.014.24c.093,1.657.273,3.316.4,4.969a8.282,8.282,0,0,1,.017,1.313c0,.058-.01.116-.017.175a.7.7,0,0,1-.01.07c-.2,1.514-.874,2.627-.314,4.141.026.073.055.146.091.221a.516.516,0,0,0,.031.075,6.483,6.483,0,0,1,.05,2.475,5.737,5.737,0,0,0,.117,2,2.358,2.358,0,0,0,.074.262,2.907,2.907,0,0,0,.525.992c.225.922,1,1.133,1.8,1.211.2.022.4.034.6.046l.029,0a8.945,8.945,0,0,0,2.879.2c.666-.16,1.334-.325,2-.492h0c.29-.07.582-.143.872-.216.565-.138,1.976-.684,2.5-.473a21.24,21.24,0,0,0,2.486.451,20.206,20.206,0,0,0,2.007.621,5.883,5.883,0,0,0,1.775-.075h0c.168-.027.333-.053.5-.078a20.975,20.975,0,0,1,2.7-.194c.644-.01,2.158-.194,3.058-.138a2.329,2.329,0,0,1,.421.058c.242.061.517-.325.733-.9a6.54,6.54,0,0,0,.386-2.244c0-.044,0-.085,0-.126s0-.073,0-.107c-.01-.228-.014-.451-.012-.677a27.378,27.378,0,0,0-.659-2.887c-.043-.354-.077-.674-.1-.968-.007-.085-.012-.17-.017-.25a17.016,17.016,0,0,1,.445-4.449c.012-.078.022-.16.036-.245.038-.281.077-.59.113-.929a40.3,40.3,0,0,0,.132-4.9c0-.083,0-.163,0-.245,0-.6-.01-1.208,0-1.812.014-.873.041-1.744.069-2.618" transform="translate(6.279 23.639)" fill="#f1f2ff"/>
        <path id="Fill_41" data-name="Fill 41" d="M6.97,15.713a14.062,14.062,0,0,1-.306-2.149,2.3,2.3,0,0,0-.323-1.232,9.721,9.721,0,0,0-.938-.957s.105-3.855.135-4.762q.09-2.719.212-5.438a.13.13,0,0,0,.006-.14c0-.093.008-.187.012-.28C5.775.6,5.528.6,5.52.752c0,.073-.006.145-.009.218a26.331,26.331,0,0,0-4.439.492C1.05,1.014,1.025.567,1,.119,1-.036.75-.042.757.115.779.573.8,1.03.827,1.488c-.235.023-.47.039-.706.046-.158,0-.164.247,0,.243C.359,1.77.6,1.753.84,1.729c.174,3.392.848,10.215.848,10.215a21.324,21.324,0,0,0-.328,3.846c.065.766.007,1.5,1.018,1.528.209.005.275.226.425.324.122.08.457.078.518.178.347.572.972.1,1.469.39.394.231.758.906,1.307.5.455-.336.253-1.033.206-1.492-.016-.16-.027-.32-.039-.48a.639.639,0,0,0,.2.263c.743.507.538-1.048.509-1.288" transform="translate(1.847 55.034)" fill="#ffa18a"/>
        <path id="Fill_43" data-name="Fill 43" d="M9.8,17.9c0-.53-.016-1.057-.04-1.582,0-.08-.007-.16-.012-.239a48.624,48.624,0,0,0-.62-5.774c-.012-.08-.026-.162-.042-.242-.059-.351-.122-.7-.19-1.057-.315-1.63-.651-3.261-.831-4.916-.012-.109-.024-.22-.033-.329-.007-.082-.014-.162-.021-.244-.054-.66-.075-1.319-.08-1.984A2.247,2.247,0,0,0,7.711.4c.131-.058.268-.114.411-.162A.131.131,0,0,0,8.138.006a.114.114,0,0,0-.075,0,5.3,5.3,0,0,0-2.9,2.6c-.059.114-.115.227-.169.343-.035.075-.068.15-.1.227q-.092.21-.169.428C4,5.621,3.014,7.757,2.92,9.867c0,.08-.007.157-.007.235v0a17.543,17.543,0,0,1-.481,4A16.288,16.288,0,0,0,2.1,15.934c-.012.08-.021.16-.03.242-.056.44-.106.886-.16,1.335A22.447,22.447,0,0,0,1.8,20.537c0,.07,0,.143,0,.213,0,.181,0,.36,0,.542.007.595.016,1.192-.012,1.79-.038.735.2,1.309-.124,1.955a3.379,3.379,0,0,0-.341,1.151c-.012.077-.019.155-.026.235-.1,1.231.221,2.557-.085,3.747-.007,0-.014,0-.024,0a1.351,1.351,0,0,0-.733-.036.657.657,0,0,0-.263.186.671.671,0,0,0-.132.225,2.438,2.438,0,0,0,.019,1.185,3.016,3.016,0,0,1-.024,1.628c-.449,1.437,2,1.754,2.769,1.8l1.625.1,3.365.206a.121.121,0,0,0,.12-.119q.169-1.292.251-2.591c.007-.08.012-.16.014-.242.012-.16.021-.322.028-.481.073-.215.146-.433.216-.651a.1.1,0,0,0,.024-.068c.019-.061.04-.121.061-.181a24.1,24.1,0,0,0,.789-3.111q.1-.515.155-1.038c.073-.622.225-1.5.383-2.431.014-.085.028-.172.042-.256.169-1,.333-2.02.4-2.806.007-.077.014-.155.016-.227s.012-.169.014-.247c.052-1.524-.526-1.582-.54-3.106" transform="translate(0 23.639)" fill="#f1f2ff"/>
        <path id="Fill_45-2" data-name="Fill 45" d="M0,1.412S7.518,6.756,7.923,6.986s2.619-.818,2.055-2.417c-.531-1.508.363-3.837.363-3.837L4.3,0Z" transform="translate(24.377 49.863)" fill="#f1f2ff"/>
        <g id="Group_49" data-name="Group 49" transform="translate(27.782 26.225)">
          <path id="Clip_48-2" data-name="Clip 48" d="M0,0H10.206V26.567H0Z" transform="translate(0 0)" fill="none"/>
          <g id="Group_49-2" data-name="Group 49" transform="translate(0 0)" clip-path="url(#clip-path)">
            <path id="Fill_47-2" data-name="Fill 47" d="M9.716,18.5l-.1-.4c-.021-.084-.044-.171-.067-.258-.23-.866-.471-1.737-.641-2.617-.216-1.127-.133-2.176-.266-3.247-.007-.075-.018-.147-.03-.222a5.786,5.786,0,0,0-.356-1.324,30.8,30.8,0,0,1-1.536-3.65c-.023-.085-.044-.169-.062-.256s-.041-.2-.06-.3a23.778,23.778,0,0,0-.911-3.614,5.737,5.737,0,0,0-.567-1.279,1.627,1.627,0,0,0-.161-.217A1.406,1.406,0,0,0,4.615.807a6.354,6.354,0,0,0-3.547-.8H1.04C.894.011.827.8.974.8A14.066,14.066,0,0,1,2.691.834a3.859,3.859,0,0,1-.379.782c-.057.092-.119.181-.181.27C1.4,2.913.361,3.7.127,5.087a8.981,8.981,0,0,0-.11,1.052c0,.08-.007.159-.009.241-.016.543,0,1.085,0,1.623.018,1.141.037,2.28.062,3.421,0,.251.012.5.018.75,0,.08,0,.159.007.241.037,1.464.092,2.929.177,4.39,0,.082.011.164.016.246.025.441.057.883.09,1.325.078,1,.165,2.007.287,3.008.007.065.014.128.023.193a.222.222,0,0,0,.007.038c.124.876.781,1.078,1.492,1.464a1.634,1.634,0,0,1,.652.854c.142.333.259.7.409,1.023a1.364,1.364,0,0,0,.657.753,13.918,13.918,0,0,0,2.681.794,2.376,2.376,0,0,0,1.249-.031c.677-.318,1.522-1.766,2-2.342a1.766,1.766,0,0,0,.287-.96c.007-.084.011-.169.014-.256.023-.574-.021-1.194.037-1.6A7.729,7.729,0,0,0,9.716,18.5" transform="translate(0 0)" fill="#f1f2ff"/>
          </g>
        </g>
        <path id="Fill_50" data-name="Fill 50" d="M.476,7c.845.627,1.732,1.189,2.625,1.738.287.177.586.34.889.5.46-1.243.876-2.5,1.236-3.781a.115.115,0,0,0-.012-.1c.408-.558.817-1.116,1.216-1.68q.431-.609.856-1.222a9.014,9.014,0,0,0,.778-1.135C8.541.32,6.079.031,5.55,0c-1.4-.076-2.194,1.552-2.982,2.544A20.368,20.368,0,0,0,.4,5.911c-.115.224-.265.475-.4.732.161.124.322.243.476.357" transform="translate(27.332 49.124)" fill="#ffa18a"/>
        <path id="Fill_52-2" data-name="Fill 52" d="M6.648.755.654,4.063s-.9-1.184-.588-1.374S.928.186,1.666.02A30.873,30.873,0,0,1,6.648.755" transform="translate(8.126 50.602)" fill="#f1f2ff"/>
        <path id="Fill_54-2" data-name="Fill 54" d="M1.477,2.955a12.224,12.224,0,0,0-.187-1.488C1.249,1.249,1.25-.15.707.013.386.11.338.907.28,1.126A8.248,8.248,0,0,0,.008,2.6a2.2,2.2,0,0,0,0,.35Z" transform="translate(12.558 13.297)" fill="#e35f4b"/>
        <path id="Fill_56-2" data-name="Fill 56" d="M.333.018C-.385.2.174,1.569.912.947c.423-.356.116-1-.493-.943A.576.576,0,0,0,.333.018" transform="translate(12.558 12.189)" fill="#ffe8db"/>
        <path id="Fill_58-2" data-name="Fill 58" d="M1.477,2.955a12.224,12.224,0,0,0-.187-1.488C1.25,1.249,1.25-.15.707.013.386.11.338.907.28,1.126A8.248,8.248,0,0,0,.008,2.6a2.18,2.18,0,0,0,0,.35Z" transform="translate(23.639 13.297)" fill="#e35f4b"/>
        <path id="Fill_60-2" data-name="Fill 60" d="M.333.018C-.385.2.174,1.569.912.947c.423-.356.116-1-.493-.943A.572.572,0,0,0,.333.018" transform="translate(24.008 12.558)" fill="#ffe8db"/>
        <path id="Fill_62" data-name="Fill 62" d="M.267,1.477a.111.111,0,0,1-.1-.106L0,.148A.126.126,0,0,1,.085,0,.107.107,0,0,1,.2.105L.368,1.33a.126.126,0,0,1-.083.146l-.017,0" transform="translate(5.91 71.285)" fill="#f2795c"/>
        <path id="Fill_64" data-name="Fill 64" d="M.6,2.585a.132.132,0,0,1-.134-.1L0,.135A.119.119,0,0,1,.114,0,.134.134,0,0,1,.271.1L.737,2.451a.119.119,0,0,1-.112.133l-.023,0" transform="translate(7.387 68.7)" fill="#f2795c"/>
        <path id="Fill_66-2" data-name="Fill 66" d="M11.7.369H.121C.054.369,0,.287,0,.185S.054,0,.121,0H11.7c.067,0,.12.083.12.185s-.054.185-.12.185" transform="translate(13.297 52.079)" fill="#7f3e3e"/>
        <path id="Fill_68" data-name="Fill 68" d="M.589,17.36a.14.14,0,0,1-.149-.113c-.095-1.1-.359-5.192-.41-6.6C-.02,9.291.007.212.007.121A.138.138,0,0,1,.157,0h0A.138.138,0,0,1,.307.122c0,.091-.027,9.166.022,10.523.051,1.4.315,5.491.409,6.586a.132.132,0,0,1-.139.129H.589" transform="translate(19.206 53.187)" fill="#7f3e3e"/>
        <path id="Fill_70" data-name="Fill 70" d="M1.477.739a.739.739,0,1,0-.739.739A.739.739,0,0,0,1.477.739" transform="translate(18.468 50.971)" fill="#382823"/>
        <path id="Fill_72" data-name="Fill 72" d="M2.435,1.847a.15.15,0,0,1-.084-.026L.066.274A.15.15,0,1,1,.234.026L2.52,1.573a.15.15,0,0,1-.084.274" transform="translate(24.377 54.295)" fill="#7f3e3e"/>
        <path id="Fill_74-2" data-name="Fill 74" d="M27.7,1.157c-.141.034-.282.065-.421.094-.912.2-1.827.392-2.743.557-1.294.236-2.6.429-3.908.554a49.433,49.433,0,0,1-9.619-.023A66.24,66.24,0,0,1,3.249.952Q2.465.782,1.678.605C1.569.583,1.462.557,1.352.537.9.441.452.35,0,.267.034.176.068.088.1,0Q.732.115,1.357.247c.28.06.559.122.839.185L3.227.665a63.781,63.781,0,0,0,8.6,1.464,49.194,49.194,0,0,0,9.852-.165C22.7,1.842,23.72,1.68,24.73,1.49c.837-.156,1.671-.336,2.5-.523.1-.02.2-.043.3-.065a1.907,1.907,0,0,1,.17.256" transform="translate(5.171 26.224)" fill="#fff"/>
        <path id="Fill_76" data-name="Fill 76" d="M31.4,1.075C30.672.9,29.948.724,29.222.589A14.132,14.132,0,0,0,26.9.336,16.459,16.459,0,0,0,24.3.511c-.738.1-1.474.246-2.207.4A61.528,61.528,0,0,1,13.034,2.53a45.018,45.018,0,0,1-6.609-.192c-.872-.074-1.743-.152-2.617-.219-.194-.017-.391-.03-.585-.04A25.024,25.024,0,0,0,0,2.057V2.05c0-.108,0-.216.007-.327a24.1,24.1,0,0,1,3.2.02c.461.024.923.061,1.382.1.6.054,1.195.1,1.792.155a43.5,43.5,0,0,0,7.588.118C17.084,1.834,20.121.923,23.21.353c.364-.067.731-.128,1.1-.179a15.351,15.351,0,0,1,3.752-.1c.388.044.774.1,1.161.175.7.128,1.408.294,2.11.469.019.121.041.24.066.358" transform="translate(2.955 31.395)" fill="#fff"/>
        <path id="Fill_78" data-name="Fill 78" d="M34.35.256a29.428,29.428,0,0,1-4.018.549c-.16.008-.319.017-.479.022C28.336.883,26.818.833,25.3.761,22.995.649,20.689.488,18.381.574c-3.524.131-6.946,1.1-10.424,1.65-.421.07-.844.128-1.267.181-.73.089-1.464.153-2.2.173a15.635,15.635,0,0,1-3.3-.234c-.4-.075-.8-.173-1.189-.287.01-.095.019-.187.032-.279a12.176,12.176,0,0,0,1.333.315,15.761,15.761,0,0,0,3.154.2,25.13,25.13,0,0,0,2.96-.276c.156-.022.311-.047.467-.072C11.9,1.324,15.762.268,19.787.27c1.834,0,3.672.123,5.509.212,1.532.075,3.064.125,4.594.064C30.7.516,31.5.454,32.312.348,32.976.262,33.645.136,34.318,0c.012.086.024.17.032.256" transform="translate(1.847 38.044)" fill="#fff"/>
        <path id="Fill_80" data-name="Fill 80" d="M35.458,1.51c-.336-.079-.67-.153-1-.23A43.374,43.374,0,0,0,29.529.427,23.692,23.692,0,0,0,25.641.32c-.493.025-.984.071-1.477.14-3.286.448-6.463,1.6-9.754,2.007a23.461,23.461,0,0,1-5.65-.131c-1.41-.17-2.827-.4-4.236-.571A27.4,27.4,0,0,0,0,1.507c0-.079,0-.161,0-.241a27.648,27.648,0,0,1,4.432.249l.5.065c1.286.172,2.565.361,3.842.5a24.03,24.03,0,0,0,6.714-.047c3.281-.555,6.475-1.7,9.792-1.968.114-.008.227-.017.341-.022a22.532,22.532,0,0,1,3.888.1,47.967,47.967,0,0,1,5.875,1.072c.024.1.048.2.07.293" transform="translate(1.847 42.845)" fill="#fff"/>
        <path id="Fill_82" data-name="Fill 82" d="M36.2,1.595c0,.09-.007.177-.014.265A24.966,24.966,0,0,0,30.545.529c-.108-.015-.218-.028-.326-.04C28.93.344,27.633.274,26.339.252,24.279.214,22.216.3,20.158.371c-1.775.065-3.548.125-5.324.1-1.668-.02-3.345-.212-5.013-.1A7.338,7.338,0,0,0,8.734.529,18.425,18.425,0,0,0,5.262,1.794l-.1.042a9.038,9.038,0,0,1-4.476.709C.458,2.526.228,2.5,0,2.466c.007-.082.014-.162.026-.242a10.868,10.868,0,0,0,1.979.112,9.085,9.085,0,0,0,3.182-.811c.541-.225,1.081-.472,1.641-.7A8.914,8.914,0,0,1,8.777.264,13.563,13.563,0,0,1,11.391.1c1.78.045,3.553.145,5.336.12C18.461.194,20.2.117,21.933.059,23.376.012,24.84-.018,26.308.012A41.3,41.3,0,0,1,30.54.289,25.261,25.261,0,0,1,36.2,1.595" transform="translate(1.847 47.647)" fill="#fff"/>
        <path id="Fill_84" data-name="Fill 84" d="M8.126,2.328c0,.087-.007.172-.014.257-.366,0-.731,0-1.1,0A9.08,9.08,0,0,1,2.9,1.655C1.929,1.185.968.694,0,.239A.724.724,0,0,1,.131,0C.844.337,1.552.691,2.253,1.051a12.81,12.81,0,0,0,2.4,1.033,9.517,9.517,0,0,0,2.471.241l1.006,0" transform="translate(0.369 53.926)" fill="#bdc0eb"/>
        <path id="Fill_86" data-name="Fill 86" d="M4.277,21.053a.121.121,0,0,1-.046-.009A2.333,2.333,0,0,1,3.067,19.7c-.379-1.026-.169-2.4.772-5.05a7.1,7.1,0,0,0-.22-4.9,6.362,6.362,0,0,1-.211-.7,23.453,23.453,0,0,1,.252-3.78,20.713,20.713,0,0,0,.208-2.707A37.142,37.142,0,0,0,.062.227.121.121,0,0,1,.016.062.12.12,0,0,1,.18.016a35.179,35.179,0,0,1,3.9,2.424A11.189,11.189,0,0,1,3.9,5.29,24.665,24.665,0,0,0,3.644,9a6.324,6.324,0,0,0,.2.668,7.318,7.318,0,0,1,.219,5.063c-.908,2.562-1.125,3.931-.773,4.885a2.116,2.116,0,0,0,1.03,1.208.121.121,0,0,1-.046.233" transform="translate(4.432 30.287)" fill="#b9bce9"/>
        <path id="Fill_88" data-name="Fill 88" d="M5.793,2.585a.127.127,0,0,1-.032,0A36.866,36.866,0,0,1,1.508,1.15,4.949,4.949,0,0,1,.026.185.111.111,0,0,1,.043.026.119.119,0,0,1,.207.042,4.931,4.931,0,0,0,1.614.948,37.518,37.518,0,0,0,5.825,2.364a.113.113,0,0,1,.08.14.116.116,0,0,1-.112.082" transform="translate(10.711 47.647)" fill="#b9bce9"/>
        <path id="Fill_90" data-name="Fill 90" d="M2.846,2.585a.1.1,0,0,1-.064-.024L.045.229A.141.141,0,0,1,.021.052.1.1,0,0,1,.172.024L2.91,2.357a.141.141,0,0,1,.024.177.1.1,0,0,1-.088.052" transform="translate(14.405 47.647)" fill="#b9bce9"/>
        <path id="Fill_92-2" data-name="Fill 92" d="M.119,3.694a.119.119,0,0,1-.114-.082.116.116,0,0,1,.079-.145c.025-.008,2.555-.768,3.847-1.3A7.742,7.742,0,0,0,6.434.047.121.121,0,0,1,6.6.023a.114.114,0,0,1,.024.163,7.832,7.832,0,0,1-2.6,2.2C2.72,2.917.18,3.681.154,3.688a.119.119,0,0,1-.035.005" transform="translate(22.161 47.277)" fill="#b9bce9"/>
        <path id="Fill_94-2" data-name="Fill 94" d="M.106,2.585a.1.1,0,0,1-.085-.054A.164.164,0,0,1,.042,2.34L2.416.028a.091.091,0,0,1,.148.027.164.164,0,0,1-.021.191L.17,2.558a.091.091,0,0,1-.064.028" transform="translate(31.395 33.981)" fill="#b9bce9"/>
        <path id="Fill_96-2" data-name="Fill 96" d="M5.794,1.477l-.02,0C5.211,1.359.276.335.082.266A.141.141,0,0,1,0,.1.115.115,0,0,1,.149.005C.3.057,3.618.753,5.814,1.208a.135.135,0,0,1,.094.157.123.123,0,0,1-.114.112" transform="translate(2.216 53.556)" fill="#b9bce9"/>
        <path id="Fill_98" data-name="Fill 98" d="M2.479.369H2.472L.1.215A.108.108,0,0,1,.113,0L2.486.154a.108.108,0,0,1-.007.215" transform="translate(0.739 56.142)" fill="#bdc0eb"/>
        <path id="Fill_100" data-name="Fill 100" d="M5.051.369h0L.12.34C.053.34,0,.263,0,.17S.054,0,.12,0h0L5.051.029c.066,0,.12.077.12.171s-.054.169-.12.169" transform="translate(2.585 56.511)" fill="#b9bce9"/>
        <path id="Fill_102" data-name="Fill 102" d="M.122,1.847A.112.112,0,0,1,.034,1.8a.177.177,0,0,1,0-.213A4.826,4.826,0,0,1,3.491,0h.022A5.8,5.8,0,0,1,6.963,1.1.174.174,0,0,1,7,1.31a.109.109,0,0,1-.17.043A5.693,5.693,0,0,0,3.513.3,4.712,4.712,0,0,0,.207,1.8a.111.111,0,0,1-.085.042" transform="translate(30.287 46.169)" fill="#b9bce9"/>
        <path id="Fill_104" data-name="Fill 104" d="M.123,2.585A.115.115,0,0,1,.087,2.58a.137.137,0,0,1-.082-.168C.025,2.341.248,1.7,2.091.854A8.558,8.558,0,0,1,4.31,0h0a.129.129,0,0,1,.122.135.129.129,0,0,1-.123.134h0A9.525,9.525,0,0,0,2.186,1.1C.445,1.9.242,2.484.241,2.49a.125.125,0,0,1-.118.1" transform="translate(30.287 44.323)" fill="#b9bce9"/>
        <path id="Fill_106" data-name="Fill 106" d="M.663,17.729a.117.117,0,0,1-.1-.063,4.356,4.356,0,0,1-.55-1.8,22.932,22.932,0,0,0,.045-3.937,9.111,9.111,0,0,1,.494-4.07c.339-.8.011-4.1.008-4.137l0-.046L3.112.05A.115.115,0,0,1,3.276.023.122.122,0,0,1,3.3.19L.795,3.74c.041.423.313,3.4-.031,4.211a8.872,8.872,0,0,0-.476,3.96A23.166,23.166,0,0,1,.241,15.9a4.047,4.047,0,0,0,.526,1.649.121.121,0,0,1-.048.162.116.116,0,0,1-.055.014" transform="translate(29.918 32.873)" fill="#b9bce9"/>
        <path id="Fill_108" data-name="Fill 108" d="M.126,2.585a.143.143,0,0,1-.052-.01A.1.1,0,0,1,.01,2.44c.017-.033.2-.336,1.374-.93A37.244,37.244,0,0,1,6.488,0a.131.131,0,0,1,.156.073.1.1,0,0,1-.088.129,38.092,38.092,0,0,0-5.04,1.483c-1.1.554-1.273.834-1.274.837a.134.134,0,0,1-.115.059" transform="translate(7.756 50.232)" fill="#b9bce9"/>
        <path id="Fill_110" data-name="Fill 110" d="M5.045.739a.138.138,0,0,1-.03,0s-.787-.18-1.825-.4A13.785,13.785,0,0,0,.14.325.124.124,0,0,1,0,.221.12.12,0,0,1,.113.09,13.715,13.715,0,0,1,3.245.1c1.041.221,1.83.4,1.83.4a.118.118,0,0,1,.093.143.125.125,0,0,1-.122.09" transform="translate(24.747 50.602)" fill="#b9bce9"/>
        <path id="Fill_112" data-name="Fill 112" d="M5.8,4.7q-.027-.136-.061-.27c-.185-.747-.574-1.415-.759-2.154A6.58,6.58,0,0,0,4.307.384C4.043-.121,3.165.017,3.165.017a30.206,30.206,0,0,1-.564,3.3,10.227,10.227,0,0,1-.772,1.943,4.611,4.611,0,0,0-.435,1.834,5.285,5.285,0,0,1-.054,1.19,2.223,2.223,0,0,1-.676.975,1.634,1.634,0,0,0-.579,1.083c-.053.426-.2,1.018.093,1.382A.935.935,0,0,0,1.064,12c.049-.055.1-.113.147-.177.378-.84.748-1.684,1.2-2.483.1-.168.011.914-.1,1.164-.155.352-.43.671-.607,1.026s-.314.67.141.654a3.645,3.645,0,0,0,1.612-.537A5.647,5.647,0,0,0,5.17,9.885c.28-.462.052-.78,0-1.279a1.791,1.791,0,0,1,.092-1c.148-.293.412-.494.507-.823A4.458,4.458,0,0,0,5.8,4.7" transform="translate(18.837 16.99)" fill="#4d3932"/>
        <path id="Fill_114" data-name="Fill 114" d="M2.474,1.477a.085.085,0,0,1-.038-.009L.073.294A.171.171,0,0,1,.007.1C.028.021.092-.02.149.009L2.512,1.184a.171.171,0,0,1,.066.194.119.119,0,0,1-.1.1" transform="translate(0 69.439)" fill="#382823"/>
        <path id="Fill_116-2" data-name="Fill 116" d="M7.634,2.585A.115.115,0,0,1,7.6,2.58L.087.244A.125.125,0,0,1,.005.088.122.122,0,0,1,.158.006L7.67,2.342a.125.125,0,0,1,.081.156.123.123,0,0,1-.117.088" transform="translate(8.495 72.393)" fill="#382823"/>
        <path id="Fill_118-2" data-name="Fill 118" d="M1.319,2.585A.172.172,0,0,1,1.2,2.541a3.111,3.111,0,0,1-.776-1.3A4.588,4.588,0,0,0,.018.2.126.126,0,0,1,.084.016.173.173,0,0,1,.3.071,4.7,4.7,0,0,1,.734,1.182a2.893,2.893,0,0,0,.7,1.178.121.121,0,0,1-.011.19.174.174,0,0,1-.106.035" transform="translate(16.621 1.108)" fill="#382823"/>
        <path id="Fill_120-2" data-name="Fill 120" d="M.126,2.955H.106A.111.111,0,0,1,0,2.83,4.3,4.3,0,0,1,.807,1.14,3.756,3.756,0,0,1,2.414.007a.134.134,0,0,1,.163.061A.1.1,0,0,1,2.5.208,3.569,3.569,0,0,0,1.016,1.26a4.172,4.172,0,0,0-.766,1.6.122.122,0,0,1-.124.09" transform="translate(14.405 2.585)" fill="#382823"/>
        <path id="Fill_122-2" data-name="Fill 122" d="M.118,5.91a.119.119,0,0,1-.11-.078.127.127,0,0,1,.065-.163A2.274,2.274,0,0,0,1.243,4.456c.265-.867.36-1.191.679-2.389A4.059,4.059,0,0,1,3.513.018.115.115,0,0,1,3.676.06a.129.129,0,0,1-.039.172,3.879,3.879,0,0,0-1.487,1.9c-.32,1.2-.415,1.527-.682,2.4A2.478,2.478,0,0,1,.163,5.9a.111.111,0,0,1-.045.009" transform="translate(12.189 2.585)" fill="#382823"/>
        <path id="Fill_124" data-name="Fill 124" d="M5.792,5.91a.122.122,0,0,1-.117-.125,7.377,7.377,0,0,0-.094-1.164A2.185,2.185,0,0,0,4.294,3.175,4.091,4.091,0,0,1,2.926,1.8a6.848,6.848,0,0,0-.779-.95A3.006,3.006,0,0,0,.126.257.118.118,0,0,1,0,.141.123.123,0,0,1,.109.006,3.179,3.179,0,0,1,2.3.665a7.036,7.036,0,0,1,.808.984,3.856,3.856,0,0,0,1.282,1.3A2.424,2.424,0,0,1,5.81,4.564a7.476,7.476,0,0,1,.1,1.22.133.133,0,0,1-.117.126" transform="translate(18.837 2.955)" fill="#382823"/>
        <path id="Fill_126" data-name="Fill 126" d="M2.3,3.694a.188.188,0,0,1-.037,0,.121.121,0,0,1-.109-.145,2.834,2.834,0,0,0-.117-1.978A4.23,4.23,0,0,0,.091.23.112.112,0,0,1,.012.072.168.168,0,0,1,.211.01a4.433,4.433,0,0,1,2.1,1.457A2.978,2.978,0,0,1,2.444,3.6a.149.149,0,0,1-.146.09" transform="translate(23.269 5.171)" fill="#382823"/>
        <path id="Fill_128" data-name="Fill 128" d="M.135,7.387l-.022,0A.126.126,0,0,1,0,7.243,10.037,10.037,0,0,1,.892,4.5a6.173,6.173,0,0,0,.684-2.667A8.419,8.419,0,0,0,1.33.151.124.124,0,0,1,1.432,0,.135.135,0,0,1,1.593.1,8.487,8.487,0,0,1,1.846,1.84a6.421,6.421,0,0,1-.718,2.78,10.012,10.012,0,0,0-.86,2.663.132.132,0,0,1-.133.1" transform="translate(21.423 18.098)" fill="#382823"/>
        <path id="Fill_130" data-name="Fill 130" d="M.519,3.324a.117.117,0,0,1-.027,0A.114.114,0,0,1,.4,3.184a5.867,5.867,0,0,0,.1-1.2A5.473,5.473,0,0,0,.01.161.112.112,0,0,1,.071.01.121.121,0,0,1,.229.068,5.591,5.591,0,0,1,.739,1.987a5.929,5.929,0,0,1-.1,1.248.119.119,0,0,1-.117.089" transform="translate(23.269 17.729)" fill="#382823"/>
        <path id="Fill_132" data-name="Fill 132" d="M.1,1.477a.081.081,0,0,1-.049-.017.156.156,0,0,1-.038-.179A2.082,2.082,0,0,0,.17.582a1.749,1.749,0,0,0-.037-.4A.154.154,0,0,1,.183.012a.089.089,0,0,1,.13.059,1.727,1.727,0,0,1,.056.5,2.386,2.386,0,0,1-.183.837A.1.1,0,0,1,.1,1.477" transform="translate(24.377 10.342)" fill="#f2795c"/>
        <path id="Fill_134" data-name="Fill 134" d="M.27,1.477A.1.1,0,0,1,.183,1.41,2.382,2.382,0,0,1,0,.575a1.724,1.724,0,0,1,.056-.5C.081.008.14-.018.19.014A.154.154,0,0,1,.234.19h0A1.865,1.865,0,0,0,.2.583a2.083,2.083,0,0,0,.157.7.155.155,0,0,1-.038.179.081.081,0,0,1-.049.017" transform="translate(13.297 9.973)" fill="#f2795c"/>
      </g>
    </g>
    <path id="Mask-3" data-name="Mask" d="M110.4,48.726c-.1.779-2.439,25.515-30.064,22.2-21.887-2.627-35.013-.8-46.409,1.046C21.182,74.03,6.4,73.057,2.737,65.872-2.42,55.767-.514,17.04,10.377,12.22,19.563,8.155,31.548-.589,44.753,1.036s40.906-7.662,50.7,9.842S112.66,30.218,110.4,48.726" transform="translate(0 19.945)" fill="none"/>
  </g>
  <g id="Group_14" data-name="Group 14" transform="translate(48.385 66.484)">
    <path id="Fill_1-5" data-name="Fill 1" d="M0,7.753l.368-.745.369.746.369-.746.366.746.369-.745.369.746.369-.745.367.746L2.955,0,.008,0Z" transform="translate(10.342)" fill="#af835b"/>
    <path id="Fill_2" data-name="Fill 2" d="M0,25.092l20.536.024h.489L21.053.024.029,0Z" transform="translate(0 0.739)" fill="#dfa178"/>
    <path id="Fill_3-2" data-name="Fill 3" d="M0,4.409l20.678.023L20.684.023.006,0Z" transform="translate(0.369 0.739)" fill="#d38f62"/>
    <path id="Fill_4" data-name="Fill 4" d="M0,0,0,4.408l21.418.024,0-4.408Z" fill="#dfa178"/>
    <path id="Fill_5-3" data-name="Fill 5" d="M0,7.753l.369-.746.369.746.368-.745.367.746.368-.746.369.746.368-.745.367.746L2.955,0,.008,0Z" transform="translate(8.865)" fill="#fff1e8"/>
    <path id="Fill_6" data-name="Fill 6" d="M0,.017.016,14.774l15.127-.017L15.127,0Z" transform="translate(17.729 10.711)" fill="#d38f62"/>
    <path id="Fill_7-2" data-name="Fill 7" d="M15.14,0l0,2.569L0,2.585,0,.016Z" transform="translate(17.729 10.711)" fill="#d38f62"/>
    <path id="Fill_8-2" data-name="Fill 8" d="M15.513,2.569,0,2.585,0,.017,15.51,0Z" transform="translate(17.36 10.342)" fill="#d38f62"/>
    <path id="Fill_9-2" data-name="Fill 9" d="M2.211,0l.005,4.43L1.939,4l-.277.427L1.385,4l-.275.426L.834,4.005l-.277.426L.28,4.006,0,4.432,0,0Z" transform="translate(24.377 10.342)" fill="#af835b"/>
    <path id="Fill_10-2" data-name="Fill 10" d="M0,.017.017,14.774l15.127-.017L15.127,0Z" transform="translate(18.468 10.711)" fill="#f0b188"/>
    <path id="Fill_11-2" data-name="Fill 11" d="M0,.017,0,2.585l15.14-.017,0-2.569Z" transform="translate(18.468 10.711)" fill="#d38f62"/>
    <path id="Fill_12-2" data-name="Fill 12" d="M0,.017,0,2.585l15.51-.017L15.51,0Z" transform="translate(18.098 10.342)" fill="#f0b188"/>
    <path id="Fill_13-2" data-name="Fill 13" d="M2.211,0l0,4.429L1.94,4l-.277.427L1.386,4l-.275.427L.834,4l-.277.427L.281,4.005l-.275.427L0,0Z" transform="translate(25.116 10.342)" fill="#fff1e8"/>
  </g>
</svg>
