<svg xmlns="http://www.w3.org/2000/svg" width="110.806" height="108.677" viewBox="0 0 110.806 108.677">
  <g id="Group_8390" data-name="Group 8390" transform="translate(-664.597 -304.947)">
    <path id="Mask" d="M110.4,48.726c-.1.779-2.439,25.515-30.064,22.2-21.887-2.627-35.013-.8-46.409,1.046C21.182,74.03,6.4,73.057,2.737,65.872-2.42,55.767-.514,17.04,10.377,12.22,19.563,8.155,31.548-.589,44.753,1.036s40.906-7.662,50.7,9.842S112.66,30.218,110.4,48.726" transform="translate(664.597 333.56)" fill="#fcf5f3"/>
    <g id="Group_8387" data-name="Group 8387" transform="translate(461.968 -400.077)">
      <path id="Path_87725" data-name="Path 87725" d="M435.436,863.76c-.16-.05-.218.346-.237.47-.035.232-.163.452-.192.686a3.062,3.062,0,0,0,.091.879,4.918,4.918,0,0,0,.849.35.31.31,0,0,0,.206-.034.046.046,0,0,0,.021-.012.969.969,0,0,0,.217-.394c.08-.189.768-1.735.784-1.838.012-.083-.053-.129-.1-.1a1.559,1.559,0,0,0-.264.354c.015-.031.029-.063.044-.095.058-.129.112-.26.159-.4a2.231,2.231,0,0,0,.067-.223c.016-.068.042-.159,0-.217-.078-.1-.158.074-.2.144-.062.106-.117.219-.171.332l-.281.586s.183-.614.275-.9c.042-.129.17-.544.082-.609s-.233.27-.3.44c-.117.295-.351.91-.351.91a7.051,7.051,0,0,1,.177-.875c.03-.115.122-.537.038-.585-.119-.067-.321.515-.354.609-.085.233-.163.47-.245.705-.043.122-.086.244-.132.364a1.229,1.229,0,0,1-.118.236.9.9,0,0,1-.017-.376,1.091,1.091,0,0,0,.02-.341A.1.1,0,0,0,435.436,863.76Z" transform="translate(-158.194 -123.448)" fill="#ffa880"/>
      <g id="Group_8383" data-name="Group 8383" transform="translate(233.032 807.549)">
        <path id="Path_87726" data-name="Path 87726" d="M241.111,1179.633l-1.288,1.316-1.4.041.246-1.234,1.293-1.684Z" transform="translate(-237.253 -1178.072)" fill="#ffa880"/>
        <g id="Group_8382" data-name="Group 8382" transform="translate(0 1.685)">
          <path id="Path_87727" data-name="Path 87727" d="M236.385,1189.936a1.59,1.59,0,0,1-.116.168,2.364,2.364,0,0,1-.18.211l-.133-.115-2.9-2.527-.024-.021.033-.042.171-.218.123-.155,1.088-1.39.125.126,1.032,1.064s.1.223.227.536c.024.064.053.129.082.2.039.1.08.2.12.306h0c.029.065.052.131.08.2a5.486,5.486,0,0,1,.408,1.3A.915.915,0,0,1,236.385,1189.936Z" transform="translate(-233.032 -1185.848)" fill="#f5e3dc"/>
        </g>
        <path id="Path_87728" data-name="Path 87728" d="M234.626,1188.352c-.46-.648.3-1.153.139-1.833a2.313,2.313,0,0,0-.195-.544l-.125-.126-1.088,1.39-.123.155-.171.218-.033.042.024.021,2.9,2.527C236.123,1189.625,234.849,1188.667,234.626,1188.352Z" transform="translate(-233.032 -1184.163)" fill="#ebccbe"/>
      </g>
      <g id="Group_8384" data-name="Group 8384" transform="translate(256.979 739.434)">
        <path id="Path_87729" data-name="Path 87729" d="M349.462,866.239a2.746,2.746,0,0,0,.074-.733,1.148,1.148,0,0,0-.285-.57,2.4,2.4,0,0,0-.237-.2,1.835,1.835,0,0,1-.317-.489.614.614,0,0,0-.289-.257.871.871,0,0,0-.842.017,1.429,1.429,0,0,0-.764-.215c-.442.015-.657.364-1.074.456a2.115,2.115,0,0,0-1.01.3,1.094,1.094,0,0,0-.184.206,1.222,1.222,0,0,0-.825.572,1.088,1.088,0,0,0-.17.762c.018.109.064.185.091.288a2.8,2.8,0,0,1,.01.663,1.857,1.857,0,0,0,.245.79,8.558,8.558,0,0,1,.495,1.044,6.156,6.156,0,0,0,.223.687.791.791,0,0,0,.183.248.273.273,0,0,0,.039.029,2.455,2.455,0,0,0,.391-.906,2.655,2.655,0,0,1-.264-.915c.01-.347.394-.637.641-.4.159-.05.168-.267.172-.421a2.076,2.076,0,0,1,.014-.437.923.923,0,0,1,.267-.417,7.605,7.605,0,0,1-.116.907c-.035.4.011.818-.054,1.219a2.325,2.325,0,0,1-1.01,1.4.872.872,0,0,0,.606.062,5.345,5.345,0,0,0,1.449-.657l.018-.009a5.075,5.075,0,0,0,1.545-.855,1.852,1.852,0,0,0,.17-.27,2.262,2.262,0,0,1,.365-.386c.027-.026.053-.054.078-.079a.085.085,0,0,0,.14,0,1.521,1.521,0,0,0,.3-.562C349.616,866.776,349.442,866.565,349.462,866.239Z" transform="translate(-343.524 -863.791)" fill="#71433d"/>
        <path id="Path_87730" data-name="Path 87730" d="M350.795,869.559a3.89,3.89,0,0,0-2.892,1.683.072.072,0,0,0-.008.091,23.786,23.786,0,0,0,.155,2.406,5.076,5.076,0,0,0,.785,1.753c1.071.408,2.926.919,3.713-.147.627-.849.374-2.791.186-3.743C352.524,870.535,352,869.57,350.795,869.559Z" transform="translate(-346.937 -868.309)" fill="#ffa880"/>
        <path id="Path_87731" data-name="Path 87731" d="M346.433,889.614s-.458,2.367-.738,3.316c-.1.35-.247.691.094,1a2.218,2.218,0,0,0,1.38.31c.514.014,1.04-.049,1.553,0a.114.114,0,0,0,.078.007l.081-.012.2-1.649.109-.9.049-.4Z" transform="translate(-345.13 -884.017)" fill="#ffa880"/>
        <path id="Path_87732" data-name="Path 87732" d="M357.933,897.188l-.109.9c-.023-.006-.047-.011-.072-.019-.156-.041-.075-.14-.3-.321s-.16-.128-.244-.317-.329-.3-.432-.527.051-.274.094-.266.289.224.518.353A2.272,2.272,0,0,0,357.933,897.188Z" transform="translate(-353.873 -889.516)" fill="#f28057"/>
        <path id="Path_87733" data-name="Path 87733" d="M351.723,869.862s-.348-.419-.529-.591a1.5,1.5,0,0,1-.73.193,2.017,2.017,0,0,0-.6.038c-.185.064-.345.18-.53.246a.754.754,0,0,1-.2.048.842.842,0,0,0-.192,0,.108.108,0,0,0-.035.029c-.059.059-.12.116-.178.175a.922.922,0,0,0-.267.417,2.075,2.075,0,0,0-.014.437c0,.154-.013.372-.172.421-.247-.239-.631.051-.641.4a2.657,2.657,0,0,0,.264.915,2.454,2.454,0,0,1-.391.906c-.071.113-.123.189-.123.189s-.044-.2-.1-.466c-.092-.433-.221-1.057-.259-1.346a4.2,4.2,0,0,1-.029-1.413,1.326,1.326,0,0,1,.212-.49,3.111,3.111,0,0,1,1.322-.956,4.454,4.454,0,0,1,2.744-.459C351.6,868.669,351.723,869.862,351.723,869.862Z" transform="translate(-346.2 -867.456)" fill="#71433d"/>
        <path id="Path_87734" data-name="Path 87734" d="M345.331,871.364c-.3.157-.43.571-.805.473a.7.7,0,0,1-.2-.087c-.182-.109-.072-.118-.3-.185-.093-.023-.186-.047-.279-.068a1.134,1.134,0,0,1-.053-.537c0-.038.007-.073.012-.109a1.088,1.088,0,0,0-.17.762c.018.109.064.185.091.288a2.8,2.8,0,0,1,.01.663,1.857,1.857,0,0,0,.245.79,8.562,8.562,0,0,1,.495,1.044,6.157,6.157,0,0,0,.223.687c.055.27.1.466.1.466s.052-.076.123-.189a2.455,2.455,0,0,0,.391-.906,2.655,2.655,0,0,1-.264-.915c.01-.347.394-.637.641-.4.159-.05.168-.267.172-.421a2.076,2.076,0,0,1,.014-.437.923.923,0,0,1,.267-.417.8.8,0,0,0-.01-.125C345.977,871.337,345.7,871.165,345.331,871.364Z" transform="translate(-343.524 -869.321)" fill="#5c2f29"/>
      </g>
      <path id="Path_87735" data-name="Path 87735" d="M406.371,1185.88l.6,1.7-.491.959-.892-.6-.892-1.7Z" transform="translate(-134.46 -376.639)" fill="#ffa880"/>
      <path id="Path_87736" data-name="Path 87736" d="M255.352,1000.016a.156.156,0,0,0,0-.033c-.195-1.4-2.107-1.6-3.154-2.046-.864-.371-1.647-.947-2.49-1.369a11.865,11.865,0,0,0-2.621-.982.139.139,0,0,0-.068.27c.045.012.087.026.129.038,1.118-1.055-2.083,4.27-2.147,4.533-1.259,5.228-1.055,10.433-1.954,15.736-.108.637-.143,1.3-.305,1.921-.188.716-.552,1.376-.669,2.111a4.878,4.878,0,0,1-.388,2.022c-.272.42-.775.6-1.1.972a1.679,1.679,0,0,0-.355.916,2.037,2.037,0,0,1-.3.935c-.176.254-.437.434-.636.669a3.4,3.4,0,0,0-.568,1,3.177,3.177,0,0,0-.59,1.212,3.71,3.71,0,0,1-.9,1.273c-.277.282-.566.538-.806.749-.77.688-.749,1.6-1.4,2.337a2.511,2.511,0,0,1-.34.31c-.308.228-.648.392-.949.6a50.762,50.762,0,0,0,3.262,4.1s6.635-6.207,7.891-7.506c2.99-3.1,4.512-4.7,6.2-7.91.782-1.489,2.013-7.058,2.661-9.944.148-.66.275-1.327.373-2.006.237-1.611.869-7.215,1.017-8.1.061-.35.146-.723.188-1.092A2.891,2.891,0,0,0,255.352,1000.016Z" transform="translate(-0.562 -227.585)" fill="#342e38"/>
      <path id="Path_87737" data-name="Path 87737" d="M337.787,1048.281a29.54,29.54,0,0,1-3.758,1.592c-.613.157-.616.259-1.221.451a4.127,4.127,0,0,1-.881-1.745,42.155,42.155,0,0,0-2.241-4.655,15.963,15.963,0,0,1-1.672-3.246c-.355-1.123-1.32-2.29-1.665-3.415a20.516,20.516,0,0,0-1.6-3.551,22.927,22.927,0,0,1-1.663-4.007,4.088,4.088,0,0,0-.4-.813c-.113-.19-.225-.38-.336-.571q-.581-.979-1.148-1.963c-.726-1.264-1.437-2.532-2.121-3.821-.174-.329-.352-.655-.533-.979-.411-.738-.829-1.473-1.212-2.227-.759-1.489-.533-3.49-.693-5.183-.049-.535-.1-1.069-.174-1.592-.077-.564-.157-1.123-.242-1.686a1.8,1.8,0,0,1-.019-.911c.235-.5,1.165-.176,1.578-.141.138.012.277.024.416.038,2.118.19,4.225.467,6.341.674.113.012.223.023.336.033a.124.124,0,0,1,.19.017c.075.01.15.019.225.026a.14.14,0,0,1-.024.28l-.021,0a.342.342,0,0,1,.019.04c.192.378.326.8.512,1.174.315.627.564,1.28.829,1.926.493,1.193,1.01,2.377,1.5,3.57.056.136.113.272.169.411.885,2.18,3.687,11.567,4.408,14.012.726,2.461,1.367,4.942,2.109,7.4C335.547,1041.9,337.787,1048.281,337.787,1048.281Z" transform="translate(-65.103 -238.629)" fill="#342e38"/>
      <path id="Path_87738" data-name="Path 87738" d="M289.786,881.719a2,2,0,0,0-.352-.4c-.606-.542-1.444-.716-2.095-1.219a8.239,8.239,0,0,0-.9-.7,3.68,3.68,0,0,0-.9-.315c-.531-.139-.977-.465-1.5-.606a6.255,6.255,0,0,1-1.062-.218,10.471,10.471,0,0,1-1.235-.768c-.162-.1-.507-.275-.857-.444-.51-.244-1.036-.484-1.036-.484s-.385.594-.737,1.113c-.171.254-.334.491-.439.632-.549.733-1.059,1.48-1.543,2.255-.275.437-.59.846-.841,1.3-.021.035-.049.087-.087.145-.186.3-.549.853-.58.9l0,0a9.927,9.927,0,0,1,.928.82,2.247,2.247,0,0,0,.639.5,17.856,17.856,0,0,1,1.947,1.571c.646.482,1.412.749,2.069,1.217.143.1.284.2.427.3.529.369,1.059.719,1.621,1.047a.051.051,0,0,0,.014.009c.373.221.775.411,1.139.648a6.486,6.486,0,0,1,.782.723c.268.249.7.573,1.064.315a1.135,1.135,0,0,0,.305-.566c.167-.432.341-.859.5-1.3.279-.759.561-1.524.8-2.3C288.13,885,289.872,881.851,289.786,881.719Z" transform="translate(-33.359 -134.362)" fill="#6e7ca6"/>
      <path id="Path_87739" data-name="Path 87739" d="M422.722,887.792c.254-2.656.979-11.036.979-11.036l-1.228-.321s-3.153,9.161-3.489,11.431C418.412,891.739,422.364,891.526,422.722,887.792Z" transform="translate(-145.606 -134.261)" fill="#ffa880"/>
      <path id="Path_87740" data-name="Path 87740" d="M281.029,828.95s-.02.072-.06.2-.105.359-.184.628c-.6,2.037-2.152,7.224-2.746,8.667-1.2,2.907-4.635,2.649-3.411-.814.419-1.188,3.391-6.439,4.577-8.515.132-.231.242-.421.323-.565l.164-.282Z" transform="translate(-32.377 -96.537)" fill="#ffa880"/>
      <g id="Group_8385" data-name="Group 8385" transform="translate(271.067 810.937)">
        <path id="Path_87741" data-name="Path 87741" d="M412.59,1195l-3.467.878-.087-.28-.052-.167-.458-1.48,0-.007,1.447-.24s.209.04.5.1c.059.014.122.026.186.04.092.021.186.045.284.066h0c.061.014.122.028.183.045a4.77,4.77,0,0,1,1.151.357.845.845,0,0,1,.186.277c0,.007,0,.012.007.019a1.085,1.085,0,0,1,.056.15A2.434,2.434,0,0,1,412.59,1195Z" transform="translate(-408.525 -1193.706)" fill="#f5e3dc"/>
      </g>
      <path id="Path_87742" data-name="Path 87742" d="M301.035,816.891c-.091.052-.153.215-.2.279-.056.081-.158.25-.255.277a1.165,1.165,0,0,1,.035-.276c.032-.129.067-.258.1-.386.069-.247.143-.493.209-.741.026-.1.2-.71.042-.753-.111-.03-.291.369-.334.482a5.8,5.8,0,0,1-.383.817s.163-.662.236-.983c.043-.186.131-.558-.013-.58-.127-.02-.267.4-.307.536-.089.291-.3.912-.3.912l.1-.677c.019-.13.037-.261.044-.393,0-.087.033-.282-.1-.271-.082.007-.115.1-.142.164a1.9,1.9,0,0,0-.077.226,4.344,4.344,0,0,0-.1.432c-.006.036-.012.072-.017.108a1.635,1.635,0,0,0-.032-.484.089.089,0,0,0-.159,0c-.05.092-.362,1.836-.405,2.046a.941.941,0,0,0-.039.477.059.059,0,0,0,.013.026.477.477,0,0,0,.179.191,5.58,5.58,0,0,0,.981.355,2.469,2.469,0,0,0,.646-.607c.12-.2.2-.424.315-.631.06-.111.256-.463.068-.552A.111.111,0,0,0,301.035,816.891Z" transform="translate(-51.611 -86.161)" fill="#ffa880"/>
      <path id="Path_87743" data-name="Path 87743" d="M298.446,830.174c-.043.143-.105.359-.184.628-.527-.211-1.1-.444-1.58-.661.132-.231.242-.421.323-.565C297.426,829.771,297.951,829.982,298.446,830.174Z" transform="translate(-49.855 -97.557)" fill="#342e38"/>
      <path id="Path_87744" data-name="Path 87744" d="M412.536,1195.654a1.083,1.083,0,0,0-.056-.15,2.662,2.662,0,0,0-.637-.049c-.388.026-.77.122-1.158.134-.59.016-.85-.258-1.339-.5a2.075,2.075,0,0,0-.81-.242l.458,1.48.052.167.087.28,3.467-.878A2.424,2.424,0,0,0,412.536,1195.654Z" transform="translate(-137.467 -383.66)" fill="#ebccbe"/>
      <path id="Path_87745" data-name="Path 87745" d="M269.963,860.275c.146,1.146.4,3.131.39,3.227-.014.134-4.577,2.252-4.721,2.318l0,0a10.433,10.433,0,0,0-1.174-.871,3.9,3.9,0,0,1-1.35-4.4c.434-1.151,1.722-2.407,1.9-3.431s.664-.425.744-1.111-.1-.665.665-1.115,3.941.336,3.941.336l-.909,3.15-.183.637.6.467S269.9,859.807,269.963,860.275Z" transform="translate(-23.367 -117.276)" fill="#6e7ca6"/>
      <path id="Path_87746" data-name="Path 87746" d="M310.594,894.311a6.643,6.643,0,0,1-1.163.078c-.19,0-.381,0-.568.021-.394.028-1.224.1-1.43.507-.134.258-.1.554-.284.824-.07.105-.176.131-.237.258a2.041,2.041,0,0,0-.08.573,2.733,2.733,0,0,1-.242.6l-.021.056a1.923,1.923,0,0,0-.108.6c-.1.148-.209.334-.331.566-.138-.061-.277-.124-.409-.185-.021-.012-.042-.021-.063-.031-.331-.157-.681-.077-1-.256-.263-.151-.338-.39-.54-.587a1.748,1.748,0,0,0-1.033-.359,2.483,2.483,0,0,1-.986-.263c-.254-.148-.46-.371-.726-.5a1.959,1.959,0,0,0-.916-.172c-1.787-.724-4.765-1.851-5.958-2.25-.735-.247-1.071-.583-2.769-1.214-2.285-.855-5.937-2.008-5.937-2.008a29.61,29.61,0,0,0-2.457,4.831,10.648,10.648,0,0,0-1.992,2.532,7.033,7.033,0,0,0-.575,1.433c-.066.24-.127.481-.183.723a22.6,22.6,0,0,1-.632,2.4c-.385,1.076-1.16,1.942-1.524,3.013a8.906,8.906,0,0,0-.336,1.686,8.292,8.292,0,0,1-.319,1.55,15.739,15.739,0,0,0-.676,2.767,25.938,25.938,0,0,0-.268,3.645,3.922,3.922,0,0,0,.174,1.585c.212.51,1.076,2.161,1.076,2.161a5.622,5.622,0,0,1,.254,1.2c.446-.165,1.832-.421,2.3-.524a13.692,13.692,0,0,1,5.289-.207,29.8,29.8,0,0,1,3.483.594c.993.221,1.977.474,2.983.731,1.174.3,3.723.773,3.723.773s.641-1.047.716-1.2a3.237,3.237,0,0,0,.531-1.355,5.106,5.106,0,0,0-.035-.756c-.01-.12-.021-.24-.026-.359a6.009,6.009,0,0,1,.129-1.4c.024-.125.054-.28.094-.46.373-1.769,1.4-6,1.839-8.136a11.08,11.08,0,0,0,.207-1.186,2.4,2.4,0,0,1,.766-1.106.188.188,0,0,1,.155-.045,3.521,3.521,0,0,0,1.6.056c.632-.059,1.264-.146,1.9-.15a8.873,8.873,0,0,0,1.672.071,5.261,5.261,0,0,1,.869-.188c.3-.007.592.1.89.091a2.062,2.062,0,0,0,1.1-.472l.153-.1a3.333,3.333,0,0,0,2.271-2.56,82.624,82.624,0,0,0,.921-8.3S310.723,894.285,310.594,894.311Z" transform="translate(-34.3 -145.328)" fill="#6e7ca6"/>
      <path id="Path_87747" data-name="Path 87747" d="M340.981,895.737s.535-.851.723-1.088c.279-.353.41-.176,1.027.25s.822.249,1.556.514a11.076,11.076,0,0,1,1.218.541c.543.237.69.061.778.428s-.512,1.174-.462,1.233-2.518-.573-2.665-.6S340.981,895.737,340.981,895.737Z" transform="translate(-84.553 -148.379)" fill="#6e7ca6"/>
      <g id="Group_8386" data-name="Group 8386" transform="translate(242.103 705.025)">
        <path id="Path_87748" data-name="Path 87748" d="M327.282,720.622,319.9,742.928a1.048,1.048,0,0,1-1.281.679c-3.066-.871-12.9-3.7-21.666-6.721-8.753-3.012-18.358-6.455-21.375-7.54a1.048,1.048,0,0,1-.641-1.315l7.375-22.288a1.046,1.046,0,0,1,1.269-.681c2.244.606,8.661,2.435,21.672,6.74s19.253,6.665,21.417,7.517A1.046,1.046,0,0,1,327.282,720.622Z" transform="translate(-274.885 -705.025)" fill="#ebccbe"/>
        <path id="Path_87702" data-name="Path 87702" d="M2198.433,461.959c-.153.012-.32.014-.5.014q-16.676-.008-33.351,0a1.533,1.533,0,0,1-.606-.081.646.646,0,0,1-.351-.459c-.122-.428-.314-1.38.1-1.762.36-.332,1.37-.255,1.924-.254l30.5,0h1.987c.837,0,1.088.274,1.085.754a5.175,5.175,0,0,1-.036,1.354C2199.109,461.831,2198.821,461.928,2198.433,461.959Z" transform="matrix(0.951, 0.309, -0.309, 0.951, -1906.803, -1089.346)" fill="#f5e3dc"/>
        <path id="Path_87763" data-name="Path 87763" d="M2171.306,467.018a.139.139,0,0,1-.111.042c-2.49-.017-4.98,0-7.47,0-.047,0-.1-.007-.136-.24a12.111,12.111,0,0,1-.079-1.371c-.027-1.277-.07-4.116.022-5.256.081-.991.307-.76.431-.759l6.833.014h.445c.188,0,.244.817.243,2.25,0,1.337.019,2.711-.008,4.04C2171.458,466.636,2171.393,466.926,2171.306,467.018Z" transform="matrix(0.951, 0.309, -0.309, 0.951, -1902.803, -1100.346)" fill="#f5e3dc"/>
        <path id="Path_87703" data-name="Path 87703" d="M2186.2,482.372c-.176-.007-7.306,0-10.354-.058-.967-.02-4.322.045-6.9.021-1.379-.013-4.884-.022-5.213-.126-.186-.058-.172-.712-.185-.866a3.027,3.027,0,0,1,.122-1.335c.121-.184.863-.1,1.394-.1l11.653.007c2.573,0,9.242-.067,9.65.05.2.058.2.715.158,1.439C2186.491,482,2186.582,482.388,2186.2,482.372Z" transform="matrix(0.951, 0.309, -0.309, 0.951, -1901.984, -1104.317)" fill="#f5e3dc"/>
        <ellipse id="Ellipse_1467" data-name="Ellipse 1467" cx="3.582" cy="3.582" rx="3.582" ry="3.582" transform="translate(34.69 11.592) rotate(19)" fill="#f8888a"/>
        <ellipse id="Ellipse_1468" data-name="Ellipse 1468" cx="3.582" cy="3.582" rx="3.582" ry="3.582" transform="translate(39.295 13.178) rotate(19)" fill="#f5e3dc"/>
      </g>
      <path id="Path_87753" data-name="Path 87753" d="M301.146,823.567a.111.111,0,0,0-.11,0c-.091.052-.153.215-.2.279-.056.081-.158.25-.255.277a7.4,7.4,0,0,1-1.606.208.868.868,0,0,0-.034.45.059.059,0,0,0,.013.026.475.475,0,0,0,.179.191,5.578,5.578,0,0,0,.981.355,2.468,2.468,0,0,0,.646-.607c.12-.2.2-.424.315-.631C301.138,824.009,301.333,823.657,301.146,823.567Z" transform="translate(-51.611 -92.841)" fill="#ffa880"/>
      <path id="Path_87754" data-name="Path 87754" d="M435.5,868.612s0,.005-.006,0a.9.9,0,0,1-.017-.376,1.092,1.092,0,0,0,.02-.341.1.1,0,0,0-.065-.072c-.16-.05-.285.344-.3.468-.035.231-.1.454-.125.688a3.062,3.062,0,0,0,.091.879,4.909,4.909,0,0,0,.849.35.309.309,0,0,0,.206-.034.046.046,0,0,0,.021-.012.969.969,0,0,0,.217-.394l.046-.105C435.952,869.434,435.5,869.1,435.5,868.612Z" transform="translate(-158.194 -127.514)" fill="#ffa880"/>
      <path id="Path_87755" data-name="Path 87755" d="M309.869,930.3c-.914-.421-2.617-.819-3.529-1.277a16.709,16.709,0,0,1-2.266-1.578,15.124,15.124,0,0,0-4.6-2.271,15.4,15.4,0,0,0-4.528-.634,7.031,7.031,0,0,0-.575,1.433c-.066.24-.127.481-.183.723a22.384,22.384,0,0,1,5.082,1.249,13.373,13.373,0,0,1,2.962,1.9,14.659,14.659,0,0,0,2.663,1.473c.956.406,1.961.653,2.931,1.019,1.045.394,1.938,1.092,3,1.442.709.235,1.426.428,2.133.622a11.064,11.064,0,0,0,.207-1.186,2.4,2.4,0,0,1,.766-1.106C312.463,931.132,311.96,931.259,309.869,930.3Z" transform="translate(-47.898 -171.935)" fill="#fff"/>
      <path id="Path_87756" data-name="Path 87756" d="M331.005,1057.272q-.581-.98-1.148-1.964c-.726-1.264-1.437-2.532-2.121-3.821-.174-.329-.352-.655-.533-.979,0,0,2.149-3.981,2.715-3.863s-.449,2.193-.489,3.523.782,1.137,1.134,2.466-.43,2.036.2,2.858A2.747,2.747,0,0,1,331.005,1057.272Z" transform="translate(-73.761 -267.578)" fill="#1e1721"/>
      <path id="Path_87757" data-name="Path 87757" d="M243.811,1151.085c-.486-.423-1.5-.056-2.069-.056a1.651,1.651,0,0,1-1.071-.367c-.277.282-.566.538-.806.749-.771.688-.749,1.6-1.4,2.337a2.509,2.509,0,0,1-.34.31c.526.117,1.411.256,1.846-.146a.907.907,0,0,0,.239-.528c.129-.625.291-1.057.961-1.28.768-.256,1.766.167,2.475-.211A.487.487,0,0,0,243.811,1151.085Z" transform="translate(-3.991 -349.054)" fill="#1e1721"/>
      <path id="Path_87758" data-name="Path 87758" d="M280.533,872.575l-.6-.467.183-.637a8.563,8.563,0,0,1-1.348.4c-.239.059-1.078.127-1.151.472-.1.493.888.254.122.937-.336.3-1.078.521-1.224,1-.286.958,1.992-.038,2.231-.146.345-.157.7-.308,1.047-.446.277-.113.559-.218.841-.317q.222-.081.444-.155c.162-.054.324-.106.489-.157C281.059,872.815,280.533,872.575,280.533,872.575Z" transform="translate(-34.041 -130.372)" fill="#576899"/>
      <path id="Path_87759" data-name="Path 87759" d="M411.645,923.987a4.692,4.692,0,0,1-.289-.446c-.181-.34-.077-.55.066-.885a1.352,1.352,0,0,0,.188-.526,1.39,1.39,0,0,0-.585-1.092l-.021.056a1.925,1.925,0,0,0-.108.6c-.1.148-.209.334-.331.566-.138-.061-.277-.124-.409-.185a3.864,3.864,0,0,1,.186.93,6.372,6.372,0,0,0,.324,2.041,1.675,1.675,0,0,0,1.041,1.01.505.505,0,0,0,.681-.42C412.453,925.049,411.948,924.436,411.645,923.987Z" transform="translate(-138.736 -169.196)" fill="#576899"/>
      <path id="Path_87760" data-name="Path 87760" d="M289.137,979.674a14.656,14.656,0,0,0-4.669-2.346,19.359,19.359,0,0,0-2.558-.7c-.6-.125-1.212-.183-1.806-.35a.934.934,0,0,1-.293-.124,1.183,1.183,0,0,1-.153-1.569,1.272,1.272,0,0,0,.27-1.388c-.4-.843-1.534-.773-1.9-1.721-.308-.813.134-2.111.134-2.969a11.582,11.582,0,0,0-.073-1.28,8.293,8.293,0,0,1-.319,1.55,15.738,15.738,0,0,0-.676,2.767,25.937,25.937,0,0,0-.268,3.645,3.923,3.923,0,0,0,.174,1.585c.212.51,1.076,2.161,1.076,2.161a5.622,5.622,0,0,1,.254,1.2c.446-.164,1.832-.42,2.3-.524a13.692,13.692,0,0,1,5.289-.207,29.777,29.777,0,0,1,3.483.594A1.18,1.18,0,0,0,289.137,979.674Z" transform="translate(-34.3 -205.371)" fill="#576899"/>
      <path id="Path_87761" data-name="Path 87761" d="M344.317,901.244a6.777,6.777,0,0,0-.98.013,3.4,3.4,0,0,1-1.87-.653,3.7,3.7,0,0,1-.729-.707,5.542,5.542,0,0,0-.586-.863.346.346,0,0,0-.554.127.5.5,0,0,0,.047.382,1.9,1.9,0,0,0,.178.241,1.641,1.641,0,0,1,.283.857c.06.47.115,1,.581,1.243a1.76,1.76,0,0,0,.858.117,13.1,13.1,0,0,1,1.482.166c.456.053,1.193.09,1.539-.3C344.817,901.576,344.649,901.308,344.317,901.244Z" transform="translate(-83.453 -151.892)" fill="#576899"/>
      <path id="Path_87762" data-name="Path 87762" d="M363.619,890.269c-.023-.066-.3.018-.59.021a5.2,5.2,0,0,1-.6-.043c-.048,0-.234-.024-.249.042s.108.148.149.178a1.041,1.041,0,0,0,.859.177.715.715,0,0,0,.344-.2C363.6,890.369,363.633,890.307,363.619,890.269Z" transform="translate(-101.156 -145.074)" fill="#f28057"/>
    </g>
  </g>
</svg>
