<svg xmlns="http://www.w3.org/2000/svg" xmlns:xlink="http://www.w3.org/1999/xlink" width="136" height="124" viewBox="0 0 136 124">
  <defs>
    <clipPath id="clip-path">
      <rect id="Rectangle_5327" data-name="Rectangle 5327" width="136" height="124" transform="translate(-12 733)" fill="#fff" stroke="#707070" stroke-width="1"/>
    </clipPath>
    <clipPath id="clip-path-2">
      <rect id="Rectangle_4227" data-name="Rectangle 4227" width="415" height="136" transform="translate(-43)" fill="#38539a"/>
    </clipPath>
    <clipPath id="clip-path-3">
      <path id="Clip_215" data-name="Clip 215" d="M0,0H29.589V6.436H0Z" fill="none"/>
    </clipPath>
    <clipPath id="clip-path-4">
      <path id="Clip_2" data-name="Clip 2" d="M0,0H93.435V93.693H0Z" fill="none"/>
    </clipPath>
  </defs>
  <g id="Mask_Group_210" data-name="Mask Group 210" transform="translate(12 -733)" clip-path="url(#clip-path)">
    <g id="Mask_Group_135" data-name="Mask Group 135" transform="translate(24 728)" clip-path="url(#clip-path-2)">
      <g id="Group_2" data-name="Group 2" transform="translate(8.077 11.878)" opacity="0.996" style="mix-blend-mode: multiply;isolation: isolate">
        <path id="Fill_4" data-name="Fill 4" d="M19.933,3.287a1.616,1.616,0,0,0-1.2.522,2.98,2.98,0,0,0-2.8-1.844,3.128,3.128,0,0,0-.887.127A3.2,3.2,0,0,0,11.984,0,3.243,3.243,0,0,0,9.113,1.663,3.485,3.485,0,0,0,7.62,1.332a3.44,3.44,0,0,0-2.209.79A2.947,2.947,0,0,0,2.91.782,2.828,2.828,0,0,0,0,3.519,2.589,2.589,0,0,0,.287,4.7H21.508a1.538,1.538,0,0,0-1.575-1.418" transform="translate(63.853 32.26)" fill="#ededed"/>
        <g id="bud2_3" data-name="bud2+3" transform="translate(11.731 12.926)">
          <g id="Group_3" data-name="Group 3" transform="translate(0 30.632)">
            <path id="Fill_1" data-name="Fill 1" d="M0,62.563H22.459V0H0Z" transform="translate(0.083)" fill="#ededed"/>
            <path id="Fill_2" data-name="Fill 2" d="M0,62.563H7.08V0H0Z" transform="translate(0.083)" fill="#fafafa"/>
            <g id="Group_31" data-name="Group 31" transform="translate(0 3.4)">
              <path id="Fill_3" data-name="Fill 3" d="M0,1.358H22.567V.838H0Z" transform="translate(0 -0.838)" fill="#fff"/>
              <path id="Fill_5" data-name="Fill 5" d="M0,1.359H22.567V.837H0Z" transform="translate(0 3.283)" fill="#fff"/>
              <path id="Fill_7" data-name="Fill 7" d="M0,1.359H22.567V.837H0Z" transform="translate(0 7.402)" fill="#fff"/>
              <path id="Fill_9" data-name="Fill 9" d="M0,1.358H22.567V.838H0Z" transform="translate(0 11.523)" fill="#fff"/>
              <path id="Fill_11" data-name="Fill 11" d="M0,1.359H22.567V.837H0Z" transform="translate(0 15.644)" fill="#fff"/>
              <path id="Fill_13" data-name="Fill 13" d="M0,1.359H22.567V.837H0Z" transform="translate(0 19.764)" fill="#fff"/>
              <path id="Fill_15" data-name="Fill 15" d="M0,1.359H22.567V.837H0Z" transform="translate(0 23.885)" fill="#fff"/>
              <path id="Fill_17" data-name="Fill 17" d="M0,1.359H22.567V.837H0Z" transform="translate(0 28.005)" fill="#fff"/>
              <path id="Fill_19" data-name="Fill 19" d="M0,1.359H22.567V.837H0Z" transform="translate(0 32.125)" fill="#fff"/>
              <path id="Fill_21" data-name="Fill 21" d="M0,1.358H22.567V.838H0Z" transform="translate(0 36.246)" fill="#fff"/>
              <path id="Fill_23" data-name="Fill 23" d="M0,1.359H22.567V.837H0Z" transform="translate(0 40.367)" fill="#fff"/>
              <path id="Fill_25" data-name="Fill 25" d="M0,1.359H22.567V.837H0Z" transform="translate(0 44.487)" fill="#fff"/>
              <path id="Fill_27" data-name="Fill 27" d="M0,1.359H22.567V.837H0Z" transform="translate(0 48.607)" fill="#fff"/>
              <path id="Fill_29" data-name="Fill 29" d="M0,1.359H22.567V.837H0Z" transform="translate(0 52.728)" fill="#fff"/>
            </g>
          </g>
          <path id="Fill_32" data-name="Fill 32" d="M0,86.7H41.257V0H0Z" transform="translate(16.21 6.493)" fill="#ededed"/>
          <path id="Fill_33" data-name="Fill 33" d="M0,86.7H12.938V0H0Z" transform="translate(16.21 6.493)" fill="#fafafa"/>
          <g id="Group_219" data-name="Group 219" transform="translate(18.924 0)">
            <g id="Group_45" data-name="Group 45" transform="translate(0 10.562)">
              <path id="Fill_34" data-name="Fill 34" d="M0,2.485H1.894V0H0Z" transform="translate(33.966 0)" fill="#fff"/>
              <path id="Fill_36" data-name="Fill 36" d="M0,2.485H1.894V0H0Z" transform="translate(30.512 0)" fill="#fff"/>
              <path id="Fill_37" data-name="Fill 37" d="M0,2.485H1.894V0H0Z" transform="translate(27.057 0)" fill="#fff"/>
              <path id="Fill_38" data-name="Fill 38" d="M0,2.485H1.894V0H0Z" transform="translate(23.603 0)" fill="#fff"/>
              <path id="Fill_39" data-name="Fill 39" d="M0,2.485H1.894V0H0Z" transform="translate(20.149 0)" fill="#fff"/>
              <path id="Fill_40" data-name="Fill 40" d="M0,2.485H1.894V0H0Z" transform="translate(16.695 0)" fill="#fff"/>
              <path id="Fill_41" data-name="Fill 41" d="M0,2.485H1.9V0H0Z" transform="translate(13.24 0)" fill="#fff"/>
              <path id="Fill_42" data-name="Fill 42" d="M0,2.485H1.894V0H0Z" transform="translate(6.908 0)" fill="#fff"/>
              <path id="Fill_43" data-name="Fill 43" d="M0,2.485H1.894V0H0Z" transform="translate(3.454 0)" fill="#fff"/>
              <path id="Fill_44" data-name="Fill 44" d="M0,2.485H1.894V0H0Z" transform="translate(0 0)" fill="#fff"/>
            </g>
            <g id="Group_57" data-name="Group 57" transform="translate(0 15.789)">
              <path id="Fill_46" data-name="Fill 46" d="M0,2.485H1.894V0H0Z" transform="translate(33.966 0)" fill="#fff"/>
              <path id="Fill_48" data-name="Fill 48" d="M0,2.485H1.894V0H0Z" transform="translate(30.512 0)" fill="#fff"/>
              <path id="Fill_49" data-name="Fill 49" d="M0,2.485H1.894V0H0Z" transform="translate(27.057 0)" fill="#fff"/>
              <path id="Fill_50" data-name="Fill 50" d="M0,2.485H1.894V0H0Z" transform="translate(23.603 0)" fill="#fff"/>
              <path id="Fill_51" data-name="Fill 51" d="M0,2.485H1.894V0H0Z" transform="translate(20.149 0)" fill="#fff"/>
              <path id="Fill_52" data-name="Fill 52" d="M0,2.485H1.894V0H0Z" transform="translate(16.695 0)" fill="#fff"/>
              <path id="Fill_53" data-name="Fill 53" d="M0,2.485H1.9V0H0Z" transform="translate(13.24 0)" fill="#fff"/>
              <path id="Fill_54" data-name="Fill 54" d="M0,2.485H1.894V0H0Z" transform="translate(6.908 0)" fill="#fff"/>
              <path id="Fill_55" data-name="Fill 55" d="M0,2.485H1.894V0H0Z" transform="translate(3.454 0)" fill="#fff"/>
              <path id="Fill_56" data-name="Fill 56" d="M0,2.485H1.894V0H0Z" transform="translate(0 0)" fill="#fff"/>
            </g>
            <g id="Group_69" data-name="Group 69" transform="translate(0 21.017)">
              <path id="Fill_58" data-name="Fill 58" d="M0,2.485H1.894V0H0Z" transform="translate(33.966 0)" fill="#fff"/>
              <path id="Fill_60" data-name="Fill 60" d="M0,2.485H1.894V0H0Z" transform="translate(30.512 0)" fill="#fff"/>
              <path id="Fill_61" data-name="Fill 61" d="M0,2.485H1.894V0H0Z" transform="translate(27.057 0)" fill="#fff"/>
              <path id="Fill_62" data-name="Fill 62" d="M0,2.485H1.894V0H0Z" transform="translate(23.603 0)" fill="#fff"/>
              <path id="Fill_63" data-name="Fill 63" d="M0,2.485H1.894V0H0Z" transform="translate(20.149 0)" fill="#fff"/>
              <path id="Fill_64" data-name="Fill 64" d="M0,2.485H1.894V0H0Z" transform="translate(16.695 0)" fill="#fff"/>
              <path id="Fill_65" data-name="Fill 65" d="M0,2.485H1.9V0H0Z" transform="translate(13.24 0)" fill="#fff"/>
              <path id="Fill_66" data-name="Fill 66" d="M0,2.485H1.894V0H0Z" transform="translate(6.908 0)" fill="#fff"/>
              <path id="Fill_67" data-name="Fill 67" d="M0,2.485H1.894V0H0Z" transform="translate(3.454 0)" fill="#fff"/>
              <path id="Fill_68" data-name="Fill 68" d="M0,2.485H1.894V0H0Z" transform="translate(0 0)" fill="#fff"/>
            </g>
            <g id="Group_81" data-name="Group 81" transform="translate(0 26.247)">
              <path id="Fill_70" data-name="Fill 70" d="M0,2.483H1.894V0H0Z" transform="translate(33.966 0)" fill="#fff"/>
              <path id="Fill_72" data-name="Fill 72" d="M0,2.483H1.894V0H0Z" transform="translate(30.512 0)" fill="#fff"/>
              <path id="Fill_73" data-name="Fill 73" d="M0,2.483H1.894V0H0Z" transform="translate(27.057 0)" fill="#fff"/>
              <path id="Fill_74" data-name="Fill 74" d="M0,2.483H1.894V0H0Z" transform="translate(23.603 0)" fill="#fff"/>
              <path id="Fill_75" data-name="Fill 75" d="M0,2.483H1.894V0H0Z" transform="translate(20.149 0)" fill="#fff"/>
              <path id="Fill_76" data-name="Fill 76" d="M0,2.483H1.894V0H0Z" transform="translate(16.695 0)" fill="#fff"/>
              <path id="Fill_77" data-name="Fill 77" d="M0,2.483H1.9V0H0Z" transform="translate(13.24 0)" fill="#fff"/>
              <path id="Fill_78" data-name="Fill 78" d="M0,2.483H1.894V0H0Z" transform="translate(6.908 0)" fill="#fff"/>
              <path id="Fill_79" data-name="Fill 79" d="M0,2.483H1.894V0H0Z" transform="translate(3.454 0)" fill="#fff"/>
              <path id="Fill_80" data-name="Fill 80" d="M0,2.483H1.894V0H0Z" transform="translate(0 0)" fill="#fff"/>
            </g>
            <g id="Group_93" data-name="Group 93" transform="translate(0 31.474)">
              <path id="Fill_82" data-name="Fill 82" d="M0,2.485H1.894V0H0Z" transform="translate(33.966 0)" fill="#fff"/>
              <path id="Fill_84" data-name="Fill 84" d="M0,2.485H1.894V0H0Z" transform="translate(30.512 0)" fill="#fff"/>
              <path id="Fill_85" data-name="Fill 85" d="M0,2.485H1.894V0H0Z" transform="translate(27.057 0)" fill="#fff"/>
              <path id="Fill_86" data-name="Fill 86" d="M0,2.485H1.894V0H0Z" transform="translate(23.603 0)" fill="#fff"/>
              <path id="Fill_87" data-name="Fill 87" d="M0,2.485H1.894V0H0Z" transform="translate(20.149 0)" fill="#fff"/>
              <path id="Fill_88" data-name="Fill 88" d="M0,2.485H1.894V0H0Z" transform="translate(16.695 0)" fill="#fff"/>
              <path id="Fill_89" data-name="Fill 89" d="M0,2.485H1.9V0H0Z" transform="translate(13.24 0)" fill="#fff"/>
              <path id="Fill_90" data-name="Fill 90" d="M0,2.485H1.894V0H0Z" transform="translate(6.908 0)" fill="#fff"/>
              <path id="Fill_91" data-name="Fill 91" d="M0,2.485H1.894V0H0Z" transform="translate(3.454 0)" fill="#fff"/>
              <path id="Fill_92" data-name="Fill 92" d="M0,2.485H1.894V0H0Z" transform="translate(0 0)" fill="#fff"/>
            </g>
            <g id="Group_105" data-name="Group 105" transform="translate(0 36.702)">
              <path id="Fill_94" data-name="Fill 94" d="M0,2.485H1.894V0H0Z" transform="translate(33.966 0)" fill="#fff"/>
              <path id="Fill_96" data-name="Fill 96" d="M0,2.485H1.894V0H0Z" transform="translate(30.512 0)" fill="#fff"/>
              <path id="Fill_97" data-name="Fill 97" d="M0,2.485H1.894V0H0Z" transform="translate(27.057 0)" fill="#fff"/>
              <path id="Fill_98" data-name="Fill 98" d="M0,2.485H1.894V0H0Z" transform="translate(23.603 0)" fill="#fff"/>
              <path id="Fill_99" data-name="Fill 99" d="M0,2.485H1.894V0H0Z" transform="translate(20.149 0)" fill="#fff"/>
              <path id="Fill_100" data-name="Fill 100" d="M0,2.485H1.894V0H0Z" transform="translate(16.695 0)" fill="#fff"/>
              <path id="Fill_101" data-name="Fill 101" d="M0,2.485H1.9V0H0Z" transform="translate(13.24 0)" fill="#fff"/>
              <path id="Fill_102" data-name="Fill 102" d="M0,2.485H1.894V0H0Z" transform="translate(6.908 0)" fill="#fff"/>
              <path id="Fill_103" data-name="Fill 103" d="M0,2.485H1.894V0H0Z" transform="translate(3.454 0)" fill="#fff"/>
              <path id="Fill_104" data-name="Fill 104" d="M0,2.485H1.894V0H0Z" transform="translate(0 0)" fill="#fff"/>
            </g>
            <g id="Group_117" data-name="Group 117" transform="translate(0 41.929)">
              <path id="Fill_106" data-name="Fill 106" d="M0,2.485H1.894V0H0Z" transform="translate(33.966 0)" fill="#fff"/>
              <path id="Fill_108" data-name="Fill 108" d="M0,2.485H1.894V0H0Z" transform="translate(30.512 0)" fill="#fff"/>
              <path id="Fill_109" data-name="Fill 109" d="M0,2.485H1.894V0H0Z" transform="translate(27.057 0)" fill="#fff"/>
              <path id="Fill_110" data-name="Fill 110" d="M0,2.485H1.894V0H0Z" transform="translate(23.603 0)" fill="#fff"/>
              <path id="Fill_111" data-name="Fill 111" d="M0,2.485H1.894V0H0Z" transform="translate(20.149 0)" fill="#fff"/>
              <path id="Fill_112" data-name="Fill 112" d="M0,2.485H1.894V0H0Z" transform="translate(16.695 0)" fill="#fff"/>
              <path id="Fill_113" data-name="Fill 113" d="M0,2.485H1.9V0H0Z" transform="translate(13.24 0)" fill="#fff"/>
              <path id="Fill_114" data-name="Fill 114" d="M0,2.485H1.894V0H0Z" transform="translate(6.908 0)" fill="#fff"/>
              <path id="Fill_115" data-name="Fill 115" d="M0,2.485H1.894V0H0Z" transform="translate(3.454 0)" fill="#fff"/>
              <path id="Fill_116" data-name="Fill 116" d="M0,2.485H1.894V0H0Z" transform="translate(0 0)" fill="#fff"/>
            </g>
            <g id="Group_129" data-name="Group 129" transform="translate(0 47.157)">
              <path id="Fill_118" data-name="Fill 118" d="M0,2.485H1.894V0H0Z" transform="translate(33.966 0)" fill="#fff"/>
              <path id="Fill_120" data-name="Fill 120" d="M0,2.485H1.894V0H0Z" transform="translate(30.512 0)" fill="#fff"/>
              <path id="Fill_121" data-name="Fill 121" d="M0,2.485H1.894V0H0Z" transform="translate(27.057 0)" fill="#fff"/>
              <path id="Fill_122" data-name="Fill 122" d="M0,2.485H1.894V0H0Z" transform="translate(23.603 0)" fill="#fff"/>
              <path id="Fill_123" data-name="Fill 123" d="M0,2.485H1.894V0H0Z" transform="translate(20.149 0)" fill="#fff"/>
              <path id="Fill_124" data-name="Fill 124" d="M0,2.485H1.894V0H0Z" transform="translate(16.695 0)" fill="#fff"/>
              <path id="Fill_125" data-name="Fill 125" d="M0,2.485H1.9V0H0Z" transform="translate(13.24 0)" fill="#fff"/>
              <path id="Fill_126" data-name="Fill 126" d="M0,2.485H1.894V0H0Z" transform="translate(6.908 0)" fill="#fff"/>
              <path id="Fill_127" data-name="Fill 127" d="M0,2.485H1.894V0H0Z" transform="translate(3.454 0)" fill="#fff"/>
              <path id="Fill_128" data-name="Fill 128" d="M0,2.485H1.894V0H0Z" transform="translate(0 0)" fill="#fff"/>
            </g>
            <g id="Group_141" data-name="Group 141" transform="translate(0 52.383)">
              <path id="Fill_130" data-name="Fill 130" d="M0,2.485H1.894V0H0Z" transform="translate(33.966 0)" fill="#fff"/>
              <path id="Fill_132" data-name="Fill 132" d="M0,2.485H1.894V0H0Z" transform="translate(30.512 0)" fill="#fff"/>
              <path id="Fill_133" data-name="Fill 133" d="M0,2.485H1.894V0H0Z" transform="translate(27.057 0)" fill="#fff"/>
              <path id="Fill_134" data-name="Fill 134" d="M0,2.485H1.894V0H0Z" transform="translate(23.603 0)" fill="#fff"/>
              <path id="Fill_135" data-name="Fill 135" d="M0,2.485H1.894V0H0Z" transform="translate(20.149 0)" fill="#fff"/>
              <path id="Fill_136" data-name="Fill 136" d="M0,2.485H1.894V0H0Z" transform="translate(16.695 0)" fill="#fff"/>
              <path id="Fill_137" data-name="Fill 137" d="M0,2.485H1.9V0H0Z" transform="translate(13.24 0)" fill="#fff"/>
              <path id="Fill_138" data-name="Fill 138" d="M0,2.485H1.894V0H0Z" transform="translate(6.908 0)" fill="#fff"/>
              <path id="Fill_139" data-name="Fill 139" d="M0,2.485H1.894V0H0Z" transform="translate(3.454 0)" fill="#fff"/>
              <path id="Fill_140" data-name="Fill 140" d="M0,2.485H1.894V0H0Z" transform="translate(0 0)" fill="#fff"/>
            </g>
            <g id="Group_153" data-name="Group 153" transform="translate(0 57.612)">
              <path id="Fill_142" data-name="Fill 142" d="M0,2.485H1.894V0H0Z" transform="translate(33.966 0)" fill="#fff"/>
              <path id="Fill_144" data-name="Fill 144" d="M0,2.485H1.894V0H0Z" transform="translate(30.512 0)" fill="#fff"/>
              <path id="Fill_145" data-name="Fill 145" d="M0,2.485H1.894V0H0Z" transform="translate(27.057 0)" fill="#fff"/>
              <path id="Fill_146" data-name="Fill 146" d="M0,2.485H1.894V0H0Z" transform="translate(23.603 0)" fill="#fff"/>
              <path id="Fill_147" data-name="Fill 147" d="M0,2.485H1.894V0H0Z" transform="translate(20.149 0)" fill="#fff"/>
              <path id="Fill_148" data-name="Fill 148" d="M0,2.485H1.894V0H0Z" transform="translate(16.695 0)" fill="#fff"/>
              <path id="Fill_149" data-name="Fill 149" d="M0,2.485H1.9V0H0Z" transform="translate(13.24 0)" fill="#fff"/>
              <path id="Fill_150" data-name="Fill 150" d="M0,2.485H1.894V0H0Z" transform="translate(6.908 0)" fill="#fff"/>
              <path id="Fill_151" data-name="Fill 151" d="M0,2.485H1.894V0H0Z" transform="translate(3.454 0)" fill="#fff"/>
              <path id="Fill_152" data-name="Fill 152" d="M0,2.485H1.894V0H0Z" transform="translate(0 0)" fill="#fff"/>
            </g>
            <g id="Group_165" data-name="Group 165" transform="translate(0 62.84)">
              <path id="Fill_154" data-name="Fill 154" d="M0,2.485H1.894V0H0Z" transform="translate(33.966 0)" fill="#fff"/>
              <path id="Fill_156" data-name="Fill 156" d="M0,2.485H1.894V0H0Z" transform="translate(30.512 0)" fill="#fff"/>
              <path id="Fill_157" data-name="Fill 157" d="M0,2.485H1.894V0H0Z" transform="translate(27.057 0)" fill="#fff"/>
              <path id="Fill_158" data-name="Fill 158" d="M0,2.485H1.894V0H0Z" transform="translate(23.603 0)" fill="#fff"/>
              <path id="Fill_159" data-name="Fill 159" d="M0,2.485H1.894V0H0Z" transform="translate(20.149 0)" fill="#fff"/>
              <path id="Fill_160" data-name="Fill 160" d="M0,2.485H1.894V0H0Z" transform="translate(16.695 0)" fill="#fff"/>
              <path id="Fill_161" data-name="Fill 161" d="M0,2.485H1.9V0H0Z" transform="translate(13.24 0)" fill="#fff"/>
              <path id="Fill_162" data-name="Fill 162" d="M0,2.485H1.894V0H0Z" transform="translate(6.908 0)" fill="#fff"/>
              <path id="Fill_163" data-name="Fill 163" d="M0,2.485H1.894V0H0Z" transform="translate(3.454 0)" fill="#fff"/>
              <path id="Fill_164" data-name="Fill 164" d="M0,2.485H1.894V0H0Z" transform="translate(0 0)" fill="#fff"/>
            </g>
            <g id="Group_177" data-name="Group 177" transform="translate(0 68.068)">
              <path id="Fill_166" data-name="Fill 166" d="M0,2.485H1.894V0H0Z" transform="translate(33.966 0)" fill="#fff"/>
              <path id="Fill_168" data-name="Fill 168" d="M0,2.485H1.894V0H0Z" transform="translate(30.512 0)" fill="#fff"/>
              <path id="Fill_169" data-name="Fill 169" d="M0,2.485H1.894V0H0Z" transform="translate(27.057 0)" fill="#fff"/>
              <path id="Fill_170" data-name="Fill 170" d="M0,2.485H1.894V0H0Z" transform="translate(23.603 0)" fill="#fff"/>
              <path id="Fill_171" data-name="Fill 171" d="M0,2.485H1.894V0H0Z" transform="translate(20.149 0)" fill="#fff"/>
              <path id="Fill_172" data-name="Fill 172" d="M0,2.485H1.894V0H0Z" transform="translate(16.695 0)" fill="#fff"/>
              <path id="Fill_173" data-name="Fill 173" d="M0,2.485H1.9V0H0Z" transform="translate(13.24 0)" fill="#fff"/>
              <path id="Fill_174" data-name="Fill 174" d="M0,2.485H1.894V0H0Z" transform="translate(6.908 0)" fill="#fff"/>
              <path id="Fill_175" data-name="Fill 175" d="M0,2.485H1.894V0H0Z" transform="translate(3.454 0)" fill="#fff"/>
              <path id="Fill_176" data-name="Fill 176" d="M0,2.485H1.894V0H0Z" transform="translate(0 0)" fill="#fff"/>
            </g>
            <g id="Group_189" data-name="Group 189" transform="translate(0 73.297)">
              <path id="Fill_178" data-name="Fill 178" d="M0,2.485H1.894V0H0Z" transform="translate(33.966 0)" fill="#fff"/>
              <path id="Fill_180" data-name="Fill 180" d="M0,2.485H1.894V0H0Z" transform="translate(30.512 0)" fill="#fff"/>
              <path id="Fill_181" data-name="Fill 181" d="M0,2.485H1.894V0H0Z" transform="translate(27.057 0)" fill="#fff"/>
              <path id="Fill_182" data-name="Fill 182" d="M0,2.485H1.894V0H0Z" transform="translate(23.603 0)" fill="#fff"/>
              <path id="Fill_183" data-name="Fill 183" d="M0,2.485H1.894V0H0Z" transform="translate(20.149 0)" fill="#fff"/>
              <path id="Fill_184" data-name="Fill 184" d="M0,2.485H1.894V0H0Z" transform="translate(16.695 0)" fill="#fff"/>
              <path id="Fill_185" data-name="Fill 185" d="M0,2.485H1.9V0H0Z" transform="translate(13.24 0)" fill="#fff"/>
              <path id="Fill_186" data-name="Fill 186" d="M0,2.485H1.894V0H0Z" transform="translate(6.908 0)" fill="#fff"/>
              <path id="Fill_187" data-name="Fill 187" d="M0,2.485H1.894V0H0Z" transform="translate(3.454 0)" fill="#fff"/>
              <path id="Fill_188" data-name="Fill 188" d="M0,2.485H1.894V0H0Z" transform="translate(0 0)" fill="#fff"/>
            </g>
            <g id="Group_201" data-name="Group 201" transform="translate(0 78.525)">
              <path id="Fill_190" data-name="Fill 190" d="M0,2.483H1.894V0H0Z" transform="translate(33.966 0)" fill="#fff"/>
              <path id="Fill_192" data-name="Fill 192" d="M0,2.483H1.894V0H0Z" transform="translate(30.512 0)" fill="#fff"/>
              <path id="Fill_193" data-name="Fill 193" d="M0,2.483H1.894V0H0Z" transform="translate(27.057 0)" fill="#fff"/>
              <path id="Fill_194" data-name="Fill 194" d="M0,2.483H1.894V0H0Z" transform="translate(23.603 0)" fill="#fff"/>
              <path id="Fill_195" data-name="Fill 195" d="M0,2.483H1.894V0H0Z" transform="translate(20.149 0)" fill="#fff"/>
              <path id="Fill_196" data-name="Fill 196" d="M0,2.483H1.894V0H0Z" transform="translate(16.695 0)" fill="#fff"/>
              <path id="Fill_197" data-name="Fill 197" d="M0,2.483H1.9V0H0Z" transform="translate(13.24 0)" fill="#fff"/>
              <path id="Fill_198" data-name="Fill 198" d="M0,2.483H1.894V0H0Z" transform="translate(6.908 0)" fill="#fff"/>
              <path id="Fill_199" data-name="Fill 199" d="M0,2.483H1.894V0H0Z" transform="translate(3.454 0)" fill="#fff"/>
              <path id="Fill_200" data-name="Fill 200" d="M0,2.483H1.894V0H0Z" transform="translate(0 0)" fill="#fff"/>
            </g>
            <g id="Group_213" data-name="Group 213" transform="translate(0 83.752)">
              <path id="Fill_202" data-name="Fill 202" d="M0,2.485H1.894V0H0Z" transform="translate(33.966 0)" fill="#fff"/>
              <path id="Fill_204" data-name="Fill 204" d="M0,2.485H1.894V0H0Z" transform="translate(30.512 0)" fill="#fff"/>
              <path id="Fill_205" data-name="Fill 205" d="M0,2.485H1.894V0H0Z" transform="translate(27.057 0)" fill="#fff"/>
              <path id="Fill_206" data-name="Fill 206" d="M0,2.485H1.894V0H0Z" transform="translate(23.603 0)" fill="#fff"/>
              <path id="Fill_207" data-name="Fill 207" d="M0,2.485H1.894V0H0Z" transform="translate(20.149 0)" fill="#fff"/>
              <path id="Fill_208" data-name="Fill 208" d="M0,2.485H1.894V0H0Z" transform="translate(16.695 0)" fill="#fff"/>
              <path id="Fill_209" data-name="Fill 209" d="M0,2.485H1.9V0H0Z" transform="translate(13.24 0)" fill="#fff"/>
              <path id="Fill_210" data-name="Fill 210" d="M0,2.485H1.894V0H0Z" transform="translate(6.908 0)" fill="#fff"/>
              <path id="Fill_211" data-name="Fill 211" d="M0,2.485H1.894V0H0Z" transform="translate(3.454 0)" fill="#fff"/>
              <path id="Fill_212" data-name="Fill 212" d="M0,2.485H1.894V0H0Z" transform="translate(0 0)" fill="#fff"/>
            </g>
            <g id="Group_216" data-name="Group 216" transform="translate(3.135)">
              <path id="Clip_215-2" data-name="Clip 215" d="M0,0H29.589V6.436H0Z" transform="translate(0)" fill="none"/>
              <g id="Group_216-2" data-name="Group 216" transform="translate(0)" clip-path="url(#clip-path-3)">
                <path id="Fill_214" data-name="Fill 214" d="M29.589,6.436H0V2.759A2.746,2.746,0,0,1,2.733,0H26.856a2.745,2.745,0,0,1,2.733,2.759Z" transform="translate(0 0)" fill="#ededed"/>
              </g>
            </g>
            <path id="Fill_217" data-name="Fill 217" d="M13.608,0H2.532A2.57,2.57,0,0,0,0,2.607V6.436H13.608Z" transform="translate(3.136 0)" fill="#fafafa"/>
          </g>
        </g>
        <path id="Fill_1-2" data-name="Fill 1" d="M2.612,5.633a2.631,2.631,0,0,1,1.987.9,4.935,4.935,0,0,1,4.639-3.16,5.022,5.022,0,0,1,1.468.217A5.383,5.383,0,0,1,20.53,2.85a5.636,5.636,0,0,1,6.132.786A4.838,4.838,0,0,1,30.8,1.34a4.757,4.757,0,0,1,4.818,4.694,4.589,4.589,0,0,1-.473,2.031H0A2.585,2.585,0,0,1,2.612,5.633" transform="translate(20.836)" fill="#fafafa"/>
        <path id="Fill_1-3" data-name="Fill 1" d="M17.809,2.745A3.143,3.143,0,0,0,15.414,3.81a2.411,2.411,0,0,0-2.041-1.065,2.533,2.533,0,0,0-1.268.336A4.375,4.375,0,0,0,7.783,0,4.324,4.324,0,0,0,3.389,3.419,2.111,2.111,0,0,0,1.535,4.678,1.515,1.515,0,0,0,0,6.049H20.769a2.479,2.479,0,0,0,.067-.572,2.891,2.891,0,0,0-3.027-2.732" transform="translate(0 22.179)" fill="#ededed"/>
      </g>
    </g>
    <g id="Illustration_SMS_EMAIL_Verification" data-name="Illustration / SMS+EMAIL Verification" transform="translate(-11.968 754.5)">
      <path id="Fill_19-2" data-name="Fill 19" d="M3.213,0H17.407a3.217,3.217,0,0,1,3.213,3.222v7.341a3.217,3.217,0,0,1-3.213,3.222H8.125L4.787,16.738V13.784H3.213A3.217,3.217,0,0,1,0,10.562V3.222A3.217,3.217,0,0,1,3.213,0" transform="translate(74.726 -10.089)" fill="#ffb73a"/>
      <path id="Combined_Shape" data-name="Combined Shape" d="M7.111,6.189a.4.4,0,0,1,0-.808h3.356a.4.4,0,0,1,0,.808Zm-3.353,0a.4.4,0,0,1,0-.808H5.233a.4.4,0,0,1,0,.808ZM.4,6.189a.4.4,0,0,1,0-.808H1.878a.4.4,0,0,1,0,.808ZM.4,3.5a.4.4,0,0,1,0-.807H10.467a.4.4,0,0,1,0,.807ZM.4.807A.4.4,0,0,1,.4,0H10.467a.4.4,0,0,1,0,.807Z" transform="translate(79.601 -6.353)" fill="#fff"/>
      <g id="Group_80" data-name="Group 80" transform="translate(16.609 -4.5)">
        <g id="Group_3-2" data-name="Group 3" transform="translate(-7.509 8.348)">
          <path id="Clip_2-2" data-name="Clip 2" d="M0,0H93.435V93.693H0Z" transform="translate(0 0)" fill="none"/>
          <g id="Group_3-3" data-name="Group 3" transform="translate(0 0)" clip-path="url(#clip-path-4)">
            <path id="Fill_1-4" data-name="Fill 1" d="M93.435,46.846A46.718,46.718,0,1,1,46.718,0,46.783,46.783,0,0,1,93.435,46.846" transform="translate(0)" fill="#57abff" opacity="0.151"/>
          </g>
        </g>
        <g id="Group_2-2" data-name="Group 2" transform="translate(1.94 0)">
          <path id="Fill_6" data-name="Fill 6" d="M22.686.145C18.538-.3,11.471-.372,9.047,9.8S8.974,19.882,6.326,22.814a11.917,11.917,0,0,0-3.008,9.864c.544,3.617-5.97,8.138-2.062,13.337C5.177,51.234,39.238,55.27,35.7,35.289c-.989-5.589-6.285-6.467-5.486-10.484,2.734-13.751.26-23.83-7.533-24.66" transform="translate(18.107 0)" fill="#5b300d"/>
          <path id="Fill_8" data-name="Fill 8" d="M4.731.736a22.275,22.275,0,0,1,.26,5.134C4.731,7.9,0,9.893,0,9.893L9.053,20.552,11.418,28.3l8.139-18.41s-5.538-2.466-6-3.79C12.9,4.218,13.384,0,13.384,0L9.254,2.524Z" transform="translate(30.145 21.356)" fill="#efc2b9"/>
          <path id="Fill_10" data-name="Fill 10" d="M13.6,2.7c.821,2.686.029,9.938-.572,11.667-.765,2.2-2.722,4.562-4.815,4.787-1.784.191-5.695-2.79-6.547-5.21C1.2,12.631-.989,5.72.527,2.636S12.372-1.31,13.6,2.7" transform="translate(31.775 6.247)" fill="#fcd5c8"/>
          <path id="Fill_12" data-name="Fill 12" d="M.519.209S1.2-.507,1.64.711,2.1,3.872,1.484,4.549A1.905,1.905,0,0,1,0,5.141Z" transform="translate(44.447 13.057)" fill="#fcd5c8"/>
          <path id="Fill_14" data-name="Fill 14" d="M1.229.168S.488-.481.162.773,0,3.965.679,4.58a1.9,1.9,0,0,0,1.533.449Z" transform="translate(31.226 13.105)" fill="#fcd5c8"/>
          <path id="Fill_16" data-name="Fill 16" d="M1.253,6.085h0A1.151,1.151,0,0,1,.078,5.318a5.422,5.422,0,0,1,.039-1.97c.037-.268.071-.521.089-.759.012-.158.017-.33.022-.512A3.51,3.51,0,0,1,.549.37a.714.714,0,0,1,.6-.37.739.739,0,0,1,.323.079,1.174,1.174,0,0,1,.528,1c.008.059.014.117.021.174.011.092.021.179.033.261.1.673.185,1.368.254,2.067.015.152.047.321.082.5a2.094,2.094,0,0,1-.05,1.479A1.29,1.29,0,0,1,1.253,6.085ZM1.107.67A.441.441,0,0,0,.958.7c-.418.15-.418.812-.418,1.3,0,.108,0,.21-.005.29-.054.8-.079,1.45-.081,2.051A1.415,1.415,0,0,0,.6,5.091a.738.738,0,0,0,.565.341l.045,0a.731.731,0,0,0,.56-.264c.018-.023.033-.043.046-.062a1.49,1.49,0,0,0,.167-.867c-.018-.689-.1-1.381-.182-2.031a7.529,7.529,0,0,0-.181-1.028A.814.814,0,0,0,1.426.8.459.459,0,0,0,1.107.67Z" transform="translate(31.08 17.051)" fill="#f9ba55"/>
          <path id="Fill_18" data-name="Fill 18" d="M1.253,6.085h0A1.151,1.151,0,0,1,.078,5.318,5.4,5.4,0,0,1,.117,3.351c.037-.269.072-.523.089-.762.012-.157.017-.327.022-.508A3.523,3.523,0,0,1,.549.37a.713.713,0,0,1,.6-.37.742.742,0,0,1,.324.079,1.174,1.174,0,0,1,.527,1c.009.068.017.136.025.2v0c.009.081.018.157.029.23.1.688.187,1.383.254,2.068.015.151.047.32.082.5a2.1,2.1,0,0,1-.049,1.48A1.29,1.29,0,0,1,1.253,6.085ZM1.108.669A.434.434,0,0,0,.959.7C.542.845.541,1.5.541,1.987c0,.11,0,.213-.006.294C.5,2.84.456,3.58.454,4.331A1.417,1.417,0,0,0,.6,5.091a.739.739,0,0,0,.565.341h.044a.734.734,0,0,0,.562-.264.643.643,0,0,0,.04-.053l.006-.009a1.5,1.5,0,0,0,.166-.867A20.371,20.371,0,0,0,1.8,2.209a7.528,7.528,0,0,0-.181-1.028A.821.821,0,0,0,1.427.8.459.459,0,0,0,1.108.669Z" transform="translate(44.726 16.764)" fill="#f9ba55"/>
          <path id="Fill_20" data-name="Fill 20" d="M1.069,2.145a1.073,1.073,0,1,1,1.07-1.073A1.072,1.072,0,0,1,1.069,2.145Zm0-1.806a.734.734,0,1,0,.732.734A.733.733,0,0,0,1.069.339Z" transform="translate(35.018 62.479)" fill="#f5ebeb"/>
          <path id="Fill_22" data-name="Fill 22" d="M0,3.232s2.783-2,3.571-2.564S4.658-.471,4.783.611,3.063,3.764,2.726,5.425,0,7.9,0,7.9Z" transform="translate(30.473 26.488)" fill="#ce7060"/>
          <path id="Fill_24" data-name="Fill 24" d="M6.6,3.833a21.218,21.218,0,0,1-4.11-1.961C1.262.948.1-.517.008.184A3.757,3.757,0,0,0,1.1,2.529,10.743,10.743,0,0,1,2.982,5.873l.426,1.908A17.92,17.92,0,0,0,5.45,6.256C5.619,5.98,6.6,3.833,6.6,3.833" transform="translate(43.491 26.412)" fill="#ce7060"/>
          <path id="Fill_26" data-name="Fill 26" d="M.382,5.449h0a.169.169,0,0,1-.167-.171c0-.042.035-4.2.063-5.115A.171.171,0,0,1,.45,0,.169.169,0,0,1,.614.175C.586,1.08.551,5.239.551,5.281a.169.169,0,0,1-.169.167" transform="translate(19.598 74.23)" fill="#fcd5c8"/>
          <path id="Fill_28" data-name="Fill 28" d="M15.468,4.577a6.139,6.139,0,0,1-3.43,2.029c-1.73.355-3.527-.032-5.3-.065a4.516,4.516,0,0,0-2.252.413c-1.062.577-1.593,1.788-2.552,2.518a1.328,1.328,0,0,1-1.6.181,1.412,1.412,0,0,1-.326-1.21,8.634,8.634,0,0,1,4.235-6.7A15.307,15.307,0,0,1,7.7.39,7.419,7.419,0,0,1,9.939,0c1.788.048,3.309,1.261,4.674,2.41a2.751,2.751,0,0,1,.749.831" transform="translate(30.16 3.635)" fill="#5b300d"/>
          <path id="Fill_30" data-name="Fill 30" d="M.476,0h0A.479.479,0,0,1,.953.478V1.1A.476.476,0,1,1,0,1.1V.477A.479.479,0,0,1,.476,0" transform="translate(35.391 14.394)" fill="#01020d"/>
          <path id="Fill_32-2" data-name="Fill 32" d="M.46,0h0a.478.478,0,0,1,.492.46l.022.622a.476.476,0,1,1-.951.034L0,.494A.478.478,0,0,1,.46,0" transform="translate(42.073 14.253)" fill="#01020d"/>
          <path id="Fill_34-2" data-name="Fill 34" d="M0,.346A1.628,1.628,0,1,0,3.255.276h0A.283.283,0,0,0,2.965,0L.277.058A.281.281,0,0,0,0,.346Z" transform="translate(37.894 19.413)" fill="#01020d"/>
          <path id="Fill_36-2" data-name="Fill 36" d="M0,.507a1.617,1.617,0,0,0,1.029.34A1.608,1.608,0,0,0,1.884.582,1.012,1.012,0,0,0,.941,0,1.025,1.025,0,0,0,0,.507" transform="translate(38.528 20.509)" fill="#c54e47"/>
          <path id="Fill_38-2" data-name="Fill 38" d="M1.029,0S3.405,1.746,3.49,1.775,5.352.513,5.352.513l.3,9.075L2.145,9.5,0,9.363.524,4.02.688,2.349Z" transform="translate(66.159 23.988)" fill="#fcd5c8"/>
          <path id="Fill_40-2" data-name="Fill 40" d="M8.726,0a22.456,22.456,0,0,1,1.4,2.469c.7,1.578,2.046,2.979,2.768,4.53a64.333,64.333,0,0,1,2.552,7.341,26.824,26.824,0,0,1,1.563-5.2c.846-1.675,1.815-2.654,2.708-4.348A23.829,23.829,0,0,0,21.27.357l5.139,2.112s.45,10.4,1.013,12.55-1.352,5.534-.9,9.374a38.077,38.077,0,0,1,.45,6.437,15.942,15.942,0,0,1-.845,3.614l-9.372,3.445L4.164,35.631S1.855,24.449.954,19.2-.567,4.2.786,2.679,8.726,0,8.726,0" transform="translate(24.758 29.163)" fill="#e9f3ff"/>
          <path id="Fill_42-2" data-name="Fill 42" d="M2.872,15.53s.957-5.365,1.182-7.172S5.238,0,5.238,0L13.91,3.163S12.728,15.5,13.122,17.746s-.563,9.572-2.422,10.193-9.1-2.1-9.1-2.1S0,20.725,0,20.556,2.872,15.53,2.872,15.53" transform="translate(60.459 30.798)" fill="#004aa3"/>
          <path id="Fill_44-2" data-name="Fill 44" d="M4.482,2.521c-.419,1.762-.38,3.323-.853,5.065-.257.941-.571,3.91-.828,4.851-.206.749-.44,1.3-.974,1.1a.417.417,0,0,1-.287-.41s-.442,1.088-.993.535C.125,13.24.463,8.235.416,5.464A26.6,26.6,0,0,0,.158,2.323C.074,1.71,0,1.338,0,1.338A12.382,12.382,0,0,1,.993.52c.419-.308.858-.573,1.071-.512A17.3,17.3,0,0,1,4.859,1.277l0,0c.355.386-.255.709-.38,1.241" transform="translate(18.441 66.847)" fill="#fcd5c8"/>
          <path id="Fill_46-2" data-name="Fill 46" d="M0,0A4.233,4.233,0,0,1,3.1,4.471a25.466,25.466,0,0,0,.144,3.48c.1.861.162,1.444-.294,1.517-.615.1-1.041-1-1.193-1.433a14.4,14.4,0,0,1-.488-3.3C1.3,4.42,0,0,0,0" transform="translate(21.265 65.765)" fill="#fcd5c8"/>
          <path id="Fill_48-2" data-name="Fill 48" d="M9.59,7.949s-2.94.13-3.024.16a6.933,6.933,0,0,1-.838-.03c-.487-.031-1-.071-1-.071l-.166-.163L3.109,6.421l-.423-.413L0,3.372,2.791,1.24,4.548,0,7.475,4.5,8.39,5.9l1.2,2.044Z" transform="translate(13.713 60.177)" fill="#fcd5c8"/>
          <path id="Fill_50-2" data-name="Fill 50" d="M12.35,3.723a36.28,36.28,0,0,1,3.808,5.658,58.72,58.72,0,0,0,3.383,5.28l-6.6,5.049s-3.378-3.239-5.969-5.328S-.519,7.154.045,5.064,4.127,0,4.127,0,9.743.151,9.99.434,12.35,3.723,12.35,3.723" transform="translate(0 45.103)" fill="#004aa3"/>
          <path id="Fill_52-2" data-name="Fill 52" d="M5.282,1.407A10.28,10.28,0,0,1,1.45,3.349L0,1.924A9.12,9.12,0,0,0,4.365,0Z" transform="translate(16.823 64.675)" fill="#cc0a3e"/>
          <path id="Fill_54-2" data-name="Fill 54" d="M.08,4.6q.046.522.106,1.043A13.182,13.182,0,0,0,.948,9.027a5.862,5.862,0,0,0,2.076,2.723,2.325,2.325,0,0,0,1.888.44c.229-.067.442-.186.674-.242a.782.782,0,0,0,.327-.116.6.6,0,0,0,.154-.257c1.167-2.979,3.2-5.752,3.5-8.94C9.811-.03,5.011-1.046,4.787,1.355,4.6,3.316,2.99,4.269,2.127,6.04A8.274,8.274,0,0,1,.853,3.468a1.1,1.1,0,0,0-.326-.615c-.6-.44-.532.533-.516.805.02.314.042.628.069.941" transform="translate(64.964 15.183)" fill="#fcd5c8"/>
          <path id="Fill_56-2" data-name="Fill 56" d="M23.055,0a22.569,22.569,0,0,0-4.847,1.572C16.772,2.419.627,14.532.036,16.565S6.4,23.031,6.991,23.031s18.441-7.165,18.441-7.165Z" transform="translate(1.419 31.202)" fill="#004aa3"/>
          <path id="Fill_58-2" data-name="Fill 58" d="M3.042,2.491a1.338,1.338,0,0,1-.341.6,2.39,2.39,0,0,1-.5.315L0,.42.017.4A1.751,1.751,0,0,1,2.471.634a2.128,2.128,0,0,1,.564.969,1.653,1.653,0,0,1,.007.888" transform="translate(16.399 65.765)" fill="#cc0a3e"/>
          <path id="Fill_60-2" data-name="Fill 60" d="M0,17.96l8.788,1.577,9.372-3.445a15.953,15.953,0,0,0,.845-3.614c0-.1.008-.2.01-.3L15.753,0S14.476,4.725,9.508,11.7C6.025,16.586,0,17.96,0,17.96" transform="translate(32.725 47.515)" fill="#deefff"/>
          <path id="Fill_62-2" data-name="Fill 62" d="M30.758,2.836c-.152-.495-.294-.943-.412-1.318-.237-.755-.389-1.23-.389-1.23a12.715,12.715,0,0,0-4.673,0c-2.139.508-7.735.2-10.154.254S6.345,0,6.345,0A15.516,15.516,0,0,0,5.67,1.426c-.149.36-.325.786-.511,1.284A57.926,57.926,0,0,0,2.8,11.042C1.314,18.018-.011,35.4,0,38.828a54.581,54.581,0,0,0,14.541,2.35c1.677-.036,3.049-.111,3.049-.111l.484-10.412,1.067,10.374.971.01a54.376,54.376,0,0,0,15.073-3.327c-.328-5.532-1.473-24.247-2.048-26.7-.426-1.82-1.584-5.624-2.378-8.179" transform="translate(21.944 60.443)" fill="#9fc5fc"/>
          <path id="Fill_64-2" data-name="Fill 64" d="M3.887,0A4.768,4.768,0,0,1,5.858,2.153c.9,1.687.732,1.913,2.084,3.325s5.012,7.586,5.012,7.586-.844,11.727-.844,11.953S2.7,22.024,2.7,22.024L0,4.066Z" transform="translate(51.561 32.04)" fill="#004aa3"/>
          <path id="Fill_66-2" data-name="Fill 66" d="M9.739,2.22a17.967,17.967,0,0,1,.47,5.459c-.115,1.1-.51,2.134-.71,3.219a30.348,30.348,0,0,0-.382,3.568c-.291,4.547.491,9.057.277,13.586-.437.211-.878.472-1.332.638a.244.244,0,0,1-.04-.19c.277-4.473-.527-8.928-.291-13.411a30.917,30.917,0,0,1,.838-6.1A14.682,14.682,0,0,0,8.35,2.182,56.531,56.531,0,0,1,0,1.284C.186.786.362.36.511,0,8.684,1.507,16.953.816,25.187.092c.118.376.261.823.412,1.318A151.907,151.907,0,0,1,9.739,2.22" transform="translate(27.102 61.869)" fill="#e9f3ff"/>
          <path id="Fill_68-2" data-name="Fill 68" d="M15.415,0S13.57,9.795,12.76,11.743s-.718,9.562-.936,14.052S4.337,58.939,4.337,58.939.343,57.425.053,56.4c-.425-1.5,1.853-8.118,1.853-8.118S4.2,37.916,4.2,37.186c0-1.13.293-32.446.687-34.083S15.415,0,15.415,0" transform="translate(18.32 29.163)" fill="#004aa3"/>
          <path id="Fill_70-2" data-name="Fill 70" d="M9.694.015C9.316-.112,9.225.538,6.4,2.345A35.878,35.878,0,0,0,1.73,6.27c-.912.764-1.075,1.239.433,2.1,1.284.734,1.167.6,1.167.6L.152,10.041s-.571,1.831.5,6.182S3.436,26.7,3.555,28.463a13.58,13.58,0,0,0,.616,3.871c.165.374,1.616-11.349,1.991-16.111.276-3.492,1.026-9.465,2.2-11.92s2.2-4,1.331-4.287" transform="translate(25.121 26.495)" fill="#004284"/>
          <path id="Fill_72-2" data-name="Fill 72" d="M0,0S1.647,25.159,3.421,30.923s6.767,27.2,6.767,27.2a4,4,0,0,0,2.778-3.787c.085-3.049-2.619-26.3-2.365-31.632S9.644,3.48,9.419,2.52,0,0,0,0" transform="translate(46.029 29.52)" fill="#004aa3"/>
          <path id="Fill_74-2" data-name="Fill 74" d="M.165.011C.494-.166,2.614,1.837,4.117,2.594c1.871.94,2.189.877,2.768,1.394a39.846,39.846,0,0,1,3.309,3.777L7.184,9.69l2.839,2.072s.964,1.763-.231,5.855-2.954,10.5-2.949,13.7.075,5.433,0,5.164a85.981,85.981,0,0,1-2.056-8.418C4.2,23.981,3.176,17.688,3.036,13.81A43.657,43.657,0,0,0,.185,1.28C-.1.489-.019.111.165.011" transform="translate(43.283 26.338)" fill="#004284"/>
          <path id="Fill_76-2" data-name="Fill 76" d="M.246,12.057S.2,3.253.131,1.626L.058,0H.676Z" transform="translate(39.771 79.041)" fill="#9fc5fc"/>
        </g>
        <g id="Group" transform="translate(44.172 49.343)">
          <path id="Fill_4-2" data-name="Fill 4" d="M8.01,0s7.253,7.432,8.626,7.432h22.9a7.284,7.284,0,0,1,7.3,7.272V31.273a7.284,7.284,0,0,1-7.3,7.272H7.3A7.285,7.285,0,0,1,0,31.273V14.7A7.285,7.285,0,0,1,7.3,7.432Z" transform="translate(0)" fill="#de0b39"/>
          <path id="Fill_53-2" data-name="Fill 53" d="M.976.932a3.242,3.242,0,0,1,4.6.049l.829.848L7.255.986a3.255,3.255,0,1,1,4.561,4.646L8.653,8.756l-.018.02a3.239,3.239,0,0,1-4.6-.049L.929,5.541A3.266,3.266,0,0,1,.976.932" transform="translate(17.367 18.624)" fill="#fff"/>
        </g>
      </g>
    </g>
  </g>
</svg>
