<svg xmlns="http://www.w3.org/2000/svg" xmlns:xlink="http://www.w3.org/1999/xlink" width="59" height="60" viewBox="0 0 59 60">
  <defs>
    <clipPath id="clip-path">
      <rect id="Rectangle_5326" data-name="Rectangle 5326" width="59" height="60" transform="translate(-1759 2657)" fill="#fff" stroke="#707070" stroke-width="1"/>
    </clipPath>
    <clipPath id="clip-path-2">
      <rect id="Rectangle_5325" data-name="Rectangle 5325" width="330" height="64" rx="10" transform="translate(-2534 -677)" fill="#f1f2ff"/>
    </clipPath>
    <clipPath id="clip-path-3">
      <rect id="Rectangle_5323" data-name="Rectangle 5323" width="49" height="61" transform="translate(29.609 208.377)" fill="#fff" stroke="#707070" stroke-width="1"/>
    </clipPath>
  </defs>
  <g id="Mask_Group_209" data-name="Mask Group 209" transform="translate(1759 -2657)" clip-path="url(#clip-path)">
    <g id="Mask_Group_208" data-name="Mask Group 208" transform="translate(771 3330)" clip-path="url(#clip-path-2)">
      <g id="Group_13959" data-name="Group 13959" transform="translate(-2731.195 -677)">
        <g id="Group_13960" data-name="Group 13960" transform="translate(0)">
          <g id="Mask_Group_206" data-name="Mask Group 206" transform="translate(177.586 -205.377)" clip-path="url(#clip-path-3)">
            <g id="Group_13956" data-name="Group 13956" transform="translate(36.9 209.124)">
              <path id="Path_90997" data-name="Path 90997" d="M2802.161,710.524c.345,2.837.614,5.57.169,5.786a2.433,2.433,0,0,1-1.229-.254,9.239,9.239,0,0,1-2.75-1.169l-.064-.038c-3-1.412-6.685-3.392-7.506-3.9a8.879,8.879,0,0,0-1.448.816q-1.217.658-2.444,1.291c-1.2.616-2.375,1.262-3.583,1.853-.2.1-.406.2-.611.289-.555.259-1.122.5-1.7.723-.449.17-1.283.624-1.767.388-.849-.416.907-10.113.833-12.022-.147-.277-.384-.657-.679-1.105-1.792-2.013-6.6-6.637-6.065-7.974a.613.613,0,0,1,.166-.218,1.209,1.209,0,0,1,.128-.094c.009-.018.046-.038.109-.061a.923.923,0,0,1,.139-.064,13.112,13.112,0,0,1,3.857-.5c3.017-.32,6.647-.626,7-.674s2-3.321,3.546-6c.911-1.914,1.8-3.511,2.373-3.471a.26.26,0,0,0,.279,0c.573-.04,1.465,1.556,2.375,3.471,1.549,2.682,3.184,5.953,3.545,6s3.985.355,7,.674a11.8,11.8,0,0,1,4,.56.22.22,0,0,1,.106.061.714.714,0,0,1,.295.312c.52,1.288-3.935,5.633-5.86,7.748l-.2.226c-.3.449-.537.829-.682,1.105a20.077,20.077,0,0,0,.193,2.4C2801.816,707.819,2802,709.183,2802.161,710.524Z" transform="translate(-2773.28 -684.127)" fill="#ffcb87"/>
              <path id="Path_90998" data-name="Path 90998" d="M2803.056,702.957c1.27-2.03,2.731-5.876,1.571-6.3-1.395-.507-5.573-.6-8.07-.8s-3.522-5.493-4.775-5.535c-1.522-.051-3.086,4.183-4.848,5.367s-12.77-.7-12.77-.7a1.357,1.357,0,0,1,.129-.094c.007-.018.046-.038.109-.061a.9.9,0,0,1,.14-.064,13.1,13.1,0,0,1,3.855-.5c3.017-.32,6.648-.626,7-.674s2-3.321,3.547-6c.91-1.914,1.8-3.511,2.373-3.471a.379.379,0,0,1,.14.041.386.386,0,0,1,.139-.041c.573-.04,1.465,1.556,2.375,3.471,1.549,2.682,3.184,5.953,3.545,6s3.985.355,7,.674a11.8,11.8,0,0,1,4,.56.219.219,0,0,1,.106.061.707.707,0,0,1,.294.312C2809.434,696.5,2804.98,700.842,2803.056,702.957Z" transform="translate(-2773.958 -684.127)" fill="#ffe0a1"/>
              <path id="Path_90999" data-name="Path 90999" d="M2829.178,793.039c-.019-.013-.042-.025-.063-.038-3-1.412-6.686-3.392-7.507-3.9a8.839,8.839,0,0,0-1.448.816q-1.218.658-2.444,1.291c-1.2.616-2.375,1.262-3.583,1.853-.2.1-.4.2-.61.289,0,0,6.764-7.512,8.188-7.195S2829.178,793.039,2829.178,793.039Z" transform="translate(-2804.109 -762.278)" fill="#faaf6e"/>
              <path id="Path_91000" data-name="Path 91000" d="M2778.5,861.273s-.672-.671-1.3-1.329c-.414-.436-.8-.868-.969-1.085-1.627-2.116-1.385-3.146-1.385-3.146a8.925,8.925,0,0,1,1.791-.279c.113.1,1.417-.975,1.417-.975l3.533,3.12Z" transform="translate(-2774.471 -814.609)" fill="#f28057"/>
              <path id="Path_91001" data-name="Path 91001" d="M2790.263,867.5c0,.05-.085.454-.211,1.024-.055.257-.12.546-.19.85-.177.808-.386,1.727-.548,2.437l-.187.815c-.054.237-.087.376-.087.376s-.037-.017-.1-.055a4.8,4.8,0,0,1-1.561-1.4c-.642-.955-.665-1-1.51-1.226s-.775-.954-1.023-1.931-1.2-1.558-1.64-2.118,2.429-7.286,2.429-7.286l.687.561.359.3,2.5,2.048S2790.263,867.317,2790.263,867.5Z" transform="translate(-2780.848 -818.081)" fill="#f5e3dc"/>
              <path id="Path_91002" data-name="Path 91002" d="M2895.5,861.273s.671-.671,1.3-1.329c.414-.436.8-.868.969-1.085,1.627-2.116,1.386-3.146,1.386-3.146a8.93,8.93,0,0,0-1.791-.279c-.113.1-1.418-.975-1.418-.975l-3.531,3.12Z" transform="translate(-2864.544 -814.609)" fill="#f28057"/>
              <path id="Path_91003" data-name="Path 91003" d="M2886.09,866.238c-.057.107-.117.214-.174.319-.1.182-.2.362-.3.536v0a6.672,6.672,0,0,0-.938,2.091c-.081.748-1.577.705-2.033,1.7a5.594,5.594,0,0,1-1.187,1.433,5.741,5.741,0,0,1-1.929,1.351c-.279,0-.217-3.225-.127-5.734.007-.229.017-.451.025-.665v0c.052-1.279.1-2.238.1-2.238l.952-2.4,0,0,2.771-2.375.372-.321,1.094-.937S2886.713,865.074,2886.09,866.238Z" transform="translate(-2854.516 -818.081)" fill="#f5e3dc"/>
              <path id="Path_91004" data-name="Path 91004" d="M2889.154,828.992c-1.062-2.625-4.257-8.255-4.257-8.255l1.075-.629s5.977,5.623,7.005,7.83C2894.729,831.7,2890.646,832.681,2889.154,828.992Z" transform="translate(-2858.783 -788.294)" fill="#ffa880"/>
              <path id="Path_91005" data-name="Path 91005" d="M2881.829,808a2.991,2.991,0,0,0,.251.562c.042.086.085.169.125.244.074.141.137.252.155.286-.024-.031-.116-.155-.211-.283-.057-.079-.114-.155-.156-.212-.005-.009-.013-.018-.02-.03a5.321,5.321,0,0,0-.41-.489c-.066-.071-.122-.119-.153-.118-.16,0-.037.255-.006.333l.014.031c.03.073.071.176.1.252.021.056.04.1.042.109a1.373,1.373,0,0,0-.09-.107c-.035-.038-.082-.084-.131-.127a.67.67,0,0,0-.2-.136.079.079,0,0,0-.1.073.488.488,0,0,0,.038.2c.025.061.054.124.078.177.014.023.027.046.037.067.022.04.038.069.045.081a.341.341,0,0,0-.117-.082h0a.09.09,0,0,0-.027,0,.145.145,0,0,0-.03.006s0,0,0,0a.09.09,0,0,0-.06.079.5.5,0,0,0,.019.086c.06.2.233.624.331.91.01.035.023.071.032.1.118.377.39,1.066.531,1.375.01.023.019.042.029.059a.287.287,0,0,0,.055.1l.169-.03c.459-.081,1.157-.182,1.157-.182s0-.019-.011-.056c0,0,0-.008,0-.011-.022-.1-.065-.3-.114-.535-.1-.466-.241-1.064-.31-1.242a5.888,5.888,0,0,0-.324-.69l-.134-.243c-.019-.032-.037-.067-.055-.1a1.887,1.887,0,0,0-.421-.54A.079.079,0,0,0,2881.829,808Z" transform="translate(-2855.796 -778.945)" fill="#ffa880"/>
              <g id="Group_13947" data-name="Group 13947" transform="translate(2.019 114.484)">
                <path id="Path_91006" data-name="Path 91006" d="M2793.044,1173.62l-.09,2.061.888.938.823-.994.423-2.159Z" transform="translate(-2790.37 -1173.466)" fill="#ffa880"/>
                <path id="Path_91007" data-name="Path 91007" d="M2781.917,1185.122l4.281-.159.006-.315v-.035a6.561,6.561,0,0,0,.076-.7,6.156,6.156,0,0,0-.077-1.214l-1.711.057s-.178.093-.439.234c-.034.016-.068.036-.1.055l-.085.048c-.036.018-.076.04-.113.061-.065.038-.132.074-.2.114l-.1.057h0l-.083.046c-.036.023-.075.044-.113.067-.113.065-.229.131-.338.2a3.853,3.853,0,0,0-.863.6.982.982,0,0,0-.119.384,1.4,1.4,0,0,0-.02.213A2.628,2.628,0,0,0,2781.917,1185.122Z" transform="translate(-2781.907 -1180.534)" fill="#342e38"/>
                <path id="Path_91008" data-name="Path 91008" d="M2781.917,1188.181l4.281-.16.006-.314-3.066.134s-.036-.239-.089-.567a4.6,4.6,0,0,0-.141-.586,3.863,3.863,0,0,0-.863.6.982.982,0,0,0-.119.385,1.4,1.4,0,0,0-.02.213A2.618,2.618,0,0,0,2781.917,1188.181Z" transform="translate(-2781.907 -1183.595)" fill="#f5e3dc"/>
              </g>
              <g id="Group_13948" data-name="Group 13948" transform="translate(27.102 114.484)">
                <path id="Path_91009" data-name="Path 91009" d="M2891.167,1173.62l.091,2.061-.889.938-.823-.994-.423-2.159Z" transform="translate(-2889.124 -1173.466)" fill="#ffa880"/>
                <path id="Path_91010" data-name="Path 91010" d="M2894.939,1185.122l-4.282-.159,0-.315v-.035a6.409,6.409,0,0,1-.076-.7,6.089,6.089,0,0,1,.078-1.214l1.71.057s.179.093.44.234c.034.016.068.036.1.055l.085.048c.036.018.076.04.114.061.065.038.131.074.2.114l.1.057h0l.083.046c.036.023.075.044.113.067.113.065.228.131.337.2a3.847,3.847,0,0,1,.863.6.97.97,0,0,1,.119.384,1.536,1.536,0,0,1,.02.213A2.659,2.659,0,0,1,2894.939,1185.122Z" transform="translate(-2890.229 -1180.534)" fill="#342e38"/>
                <path id="Path_91011" data-name="Path 91011" d="M2895.216,1188.181l-4.281-.16,0-.314,3.064.134s.038-.239.089-.567a4.911,4.911,0,0,1,.141-.586,3.824,3.824,0,0,1,.863.6.955.955,0,0,1,.119.385,1.366,1.366,0,0,1,.02.213A2.649,2.649,0,0,1,2895.216,1188.181Z" transform="translate(-2890.507 -1183.595)" fill="#f5e3dc"/>
              </g>
              <g id="Group_13949" data-name="Group 13949" transform="translate(13.963 35.945)">
                <path id="Path_91012" data-name="Path 91012" d="M2834.584,838.319c-.188-.2-.429-.57-.751-.553a1.2,1.2,0,0,0-.72.5,1.44,1.44,0,0,0-.137.946,1.39,1.39,0,0,0,.342.8c.33.324.746.122,1.19-.137-.021.15.21.212.24.058.064-.321.438-.472.4-.834C2835.109,838.79,2834.781,838.53,2834.584,838.319Z" transform="translate(-2832.96 -837.765)" fill="#71433d"/>
                <path id="Path_91013" data-name="Path 91013" d="M2859.866,839.257a.444.444,0,0,0-.165-.324c-.006-.014-.01-.028-.017-.042a.051.051,0,0,1-.005-.01c-.306-.512-1.132.129-1.4.341a.776.776,0,0,0-.144,1.184s0,.009,0,.014a.949.949,0,0,0,.9.456.976.976,0,0,0,.855-.7A2.4,2.4,0,0,0,2859.866,839.257Z" transform="translate(-2852.083 -838.471)" fill="#71433d"/>
                <path id="Path_91014" data-name="Path 91014" d="M2841.086,846.619v0a3.035,3.035,0,0,0-.03-.324c-.015-.127-.035-.254-.062-.379a2.653,2.653,0,0,0-.968-1.632,2.33,2.33,0,0,0-1.348-.429,8.51,8.51,0,0,0-1.022.08s-.822-.02-1.212-.037a2.4,2.4,0,0,0-1.814.887,2.646,2.646,0,0,0-.508.815,2.416,2.416,0,0,0-.162,1,5.4,5.4,0,0,0,.658,2.362c.151.277.317.543.491.806a.116.116,0,0,1,.069.017.574.574,0,0,1,.336.485.12.12,0,0,1-.023.071c.067.1.135.2.2.3.107.162.209.327.309.494a.124.124,0,0,0,.229-.057,6.547,6.547,0,0,0,.758.055c.35.025.688-.077,1.037-.087a.1.1,0,0,0,.109.025,4.8,4.8,0,0,0,2.2-1.712,3.75,3.75,0,0,0,.239-.349A4.161,4.161,0,0,0,2841.086,846.619Z" transform="translate(-2833.726 -842.428)" fill="#71433d"/>
                <path id="Path_91015" data-name="Path 91015" d="M2841.086,852.334v0a3.035,3.035,0,0,0-.03-.324c-.015-.127-.035-.254-.062-.379a2.273,2.273,0,0,1-1.163,1.02,4.286,4.286,0,0,1-.9-.048,3.907,3.907,0,0,0-1.189-.07,6.411,6.411,0,0,1-1.716.239,1.984,1.984,0,0,1-1.635-1.037c-.094-.155-.179-.3-.263-.421a2.416,2.416,0,0,0-.162,1,5.4,5.4,0,0,0,.658,2.362c.151.277.317.543.491.806a.117.117,0,0,1,.069.016.574.574,0,0,1,.336.485.12.12,0,0,1-.023.071c.067.1.135.2.2.3.078.005.157.01.235.013a6.992,6.992,0,0,0,2.163-.114,5.76,5.76,0,0,0,1.886-.992,5.04,5.04,0,0,0,.6-.538A4.16,4.16,0,0,0,2841.086,852.334Z" transform="translate(-2833.726 -848.143)" fill="#5c2f29"/>
                <path id="Path_91016" data-name="Path 91016" d="M2843.336,849.137a10.149,10.149,0,0,0-.151-1.561s-2.958-1.155-3.578-.814c-.308.169-.717.931-.991,1.152-.208.169-.441.068-.541.337a2.123,2.123,0,0,0,.014.766c.038.436.116,1.1.156,1.539.134,1.483.142,2.769,1.741,3.872a1.755,1.755,0,0,0,2.192-.369C2843.4,852.852,2843.333,849.563,2843.336,849.137Z" transform="translate(-2836.854 -844.609)" fill="#ffa880"/>
                <path id="Path_91017" data-name="Path 91017" d="M2845.553,873.9q-.041-.676-.075-1.355l-.027-.656-3.314-1.41s.006.586.006,1.346c0,0,0,.016,0,.046,0,.132,0,.269,0,.409,0,.333-.007.682-.015,1.017,0,.1-.007.2-.01.3-.011.441-.028.84-.057,1.122-.039.426-.123.852.3,1.14a2.148,2.148,0,0,0,1.5.064c.543-.09,1.076-.277,1.622-.334a.11.11,0,0,0,.084-.009l.083-.029Q2845.6,874.727,2845.553,873.9Z" transform="translate(-2839.905 -862.826)" fill="#ffa880"/>
                <path id="Path_91018" data-name="Path 91018" d="M2844.732,877.593c-.5.22-.756.026-1.2.143a1.058,1.058,0,0,1-.7.009,3.424,3.424,0,0,0-.364-.037c.008-.335.011-.684.015-1.018,0-.14,0-.277,0-.409a.435.435,0,0,0,0-.046,3.514,3.514,0,0,0,.891.633,2.314,2.314,0,0,0,1.457.093C2845.164,876.873,2845.229,877.373,2844.732,877.593Z" transform="translate(-2840.237 -867.235)" fill="#f28057"/>
                <path id="Path_91019" data-name="Path 91019" d="M2847.97,871.778c-.029-.071-.328.031-.642.047a5.511,5.511,0,0,1-.658-.024c-.052,0-.254-.016-.269.056s.124.157.169.188a1.139,1.139,0,0,0,.943.159.784.784,0,0,0,.367-.228C2847.958,871.887,2847.986,871.818,2847.97,871.778Z" transform="translate(-2843.256 -863.801)" fill="#fff"/>
                <path id="Path_91020" data-name="Path 91020" d="M2858.111,862.326a.4.4,0,0,1,.6-.008c.286.286.092,1.293-.287,1.571s-.637.2-.646.119S2858.111,862.326,2858.111,862.326Z" transform="translate(-2851.97 -856.473)" fill="#ffa880"/>
                <path id="Path_91021" data-name="Path 91021" d="M2837.616,862.6a.4.4,0,0,0-.6.008c-.279.292-.058,1.295.328,1.562s.643.179.649.1S2837.616,862.6,2837.616,862.6Z" transform="translate(-2835.972 -856.687)" fill="#ffa880"/>
                <path id="Path_91022" data-name="Path 91022" d="M2842.385,845.868a1.769,1.769,0,0,0-.573-1.211,3.484,3.484,0,0,0-1.565-.563,2.522,2.522,0,0,0-1.184.032,2.7,2.7,0,0,0-2.41.8,2.384,2.384,0,0,0-.533,1.358,2.216,2.216,0,0,0,.013.464,5.3,5.3,0,0,0,.3,1.049,3.217,3.217,0,0,0,.321.551,3.564,3.564,0,0,1,.19-.815,1.7,1.7,0,0,1,.258-.429,3.715,3.715,0,0,1,1.072-.79,2,2,0,0,0,1.069-1.218,2.262,2.262,0,0,0,.529,1.039,3.171,3.171,0,0,0,.635.419,4.193,4.193,0,0,1,.7.526,1.528,1.528,0,0,1,.368.506c.084.207.256.7.256.7a5.921,5.921,0,0,0,.3-.71,6.9,6.9,0,0,0,.261-1.141A2.522,2.522,0,0,0,2842.385,845.868Z" transform="translate(-2835.376 -842.571)" fill="#71433d"/>
                <path id="Path_91023" data-name="Path 91023" d="M2841.48,854.443c-.093.005-.185.008-.277.008a1.523,1.523,0,0,1,.368.506c.084.207.256.7.256.7a5.927,5.927,0,0,0,.3-.711,6.883,6.883,0,0,0,.261-1.141A2.487,2.487,0,0,1,2841.48,854.443Zm-5.36-.788a2.214,2.214,0,0,0,.013.464,5.309,5.309,0,0,0,.3,1.049,3.227,3.227,0,0,0,.321.55,3.564,3.564,0,0,1,.19-.815,1.683,1.683,0,0,1,.258-.428A1.91,1.91,0,0,1,2836.12,853.655Z" transform="translate(-2835.376 -849.938)" fill="#5c2f29"/>
              </g>
              <path id="Path_91024" data-name="Path 91024" d="M2825.534,890.3a11.333,11.333,0,0,0-.207,3.663l-16.3-.06a30.6,30.6,0,0,0-.561-3.925c-.228-1.136-.394-2.368-.519-3.638-.013-.144-.027-.289-.04-.433-.1-1.134-.167-2.295-.206-3.441-.011-.339-.021-.678-.028-1.012-.007-.294-.013-.586-.015-.875v0c-.06-4.947.289-9.165.289-9.165s1.869.872,3.115,1.443c.2.092.461.19.755.289.326.112.7.227,1.072.337,1.378.4,2.872.747,2.872.747a4.351,4.351,0,0,0,3.479,0,15.021,15.021,0,0,0,2.332-.246,7.773,7.773,0,0,0,1.085-.292c.1-.037.207-.078.3-.122.135-.06.264-.122.394-.184.146-.068.287-.14.424-.209.985-.5,1.74-.994,1.8-1.032l0,0s.018.209.05.561c0,.049.01.1.014.157.157,1.752.566,6.15.713,6.621a12.955,12.955,0,0,1,.2,2.357A29.5,29.5,0,0,1,2825.534,890.3Z" transform="translate(-2799.61 -827.594)" fill="#f5e3dc"/>
              <g id="Group_13950" data-name="Group 13950" transform="translate(3.011 41.471)">
                <path id="Path_91025" data-name="Path 91025" d="M2797.118,872.565a1.186,1.186,0,0,0-.6.279,2.627,2.627,0,0,0-.25.375,1.253,1.253,0,0,0-.462.366.124.124,0,0,0,0,.126.216.216,0,0,0,.268.091.83.83,0,0,0,.2-.128,1.275,1.275,0,0,1,.254-.1.3.3,0,0,0,.2-.273c.017-.147.035-.177.182-.236a1.823,1.823,0,0,0,.322-.128C2797.44,872.8,2797.4,872.521,2797.118,872.565Z" transform="translate(-2793.535 -869.947)" fill="#fff"/>
                <path id="Path_91026" data-name="Path 91026" d="M2819.725,888.694a1.19,1.19,0,0,0-.657-.073,2.522,2.522,0,0,0-.408.191,1.256,1.256,0,0,0-.586.071.123.123,0,0,0-.065.107.215.215,0,0,0,.181.217.8.8,0,0,0,.234-.008,1.3,1.3,0,0,1,.27.045.3.3,0,0,0,.311-.13c.092-.117.123-.133.278-.106a1.89,1.89,0,0,0,.341.058C2819.877,889.061,2819.984,888.8,2819.725,888.694Z" transform="translate(-2810.555 -882.234)" fill="#fff"/>
                <path id="Path_91027" data-name="Path 91027" d="M2795.739,861.684l-.02.008a1.4,1.4,0,0,0-.254.1.762.762,0,0,1-.195.13.218.218,0,0,1-.269-.092.124.124,0,0,1,0-.125,1.079,1.079,0,0,1,.378-.319Z" transform="translate(-2792.917 -861.387)" fill="#fff"/>
                <path id="Path_91028" data-name="Path 91028" d="M2812.528,876.9a1.189,1.189,0,0,0-.6.28,2.659,2.659,0,0,0-.249.375,1.265,1.265,0,0,0-.462.366.123.123,0,0,0,0,.126.214.214,0,0,0,.267.091.8.8,0,0,0,.2-.128,1.251,1.251,0,0,1,.254-.1.3.3,0,0,0,.2-.273c.017-.148.036-.178.182-.235a1.8,1.8,0,0,0,.322-.128C2812.851,877.133,2812.806,876.855,2812.528,876.9Z" transform="translate(-2805.34 -873.267)" fill="#fff"/>
                <path id="Path_91029" data-name="Path 91029" d="M2810.321,898.95a1.187,1.187,0,0,0-.6.28,2.393,2.393,0,0,0-.248.376,1.236,1.236,0,0,0-.463.366.122.122,0,0,0,0,.125.215.215,0,0,0,.268.091.813.813,0,0,0,.2-.128,1.3,1.3,0,0,1,.253-.1.3.3,0,0,0,.2-.272c.016-.147.036-.178.182-.236a1.864,1.864,0,0,0,.322-.128C2810.643,899.184,2810.6,898.906,2810.321,898.95Z" transform="translate(-2803.649 -890.158)" fill="#fff"/>
                <path id="Path_91030" data-name="Path 91030" d="M2827.807,914.241a1.187,1.187,0,0,0-.6.28,2.6,2.6,0,0,0-.249.375,1.245,1.245,0,0,0-.462.366.123.123,0,0,0,0,.126.215.215,0,0,0,.267.091.8.8,0,0,0,.2-.128,1.247,1.247,0,0,1,.253-.1.3.3,0,0,0,.2-.273c.017-.147.036-.178.182-.235a1.854,1.854,0,0,0,.322-.128C2828.128,914.476,2828.086,914.2,2827.807,914.241Z" transform="translate(-2817.044 -901.872)" fill="#fff"/>
                <path id="Path_91031" data-name="Path 91031" d="M2809.729,930.86a1.728,1.728,0,0,1-.322.127c-.144.058-.164.09-.181.237a.3.3,0,0,1-.2.272,1.482,1.482,0,0,0-.244.1c-.013-.145-.027-.289-.04-.434l.03-.015a2.327,2.327,0,0,1,.249-.376,1.172,1.172,0,0,1,.6-.279C2809.9,930.444,2809.942,930.723,2809.729,930.86Z" transform="translate(-2803.457 -914.318)" fill="#fff"/>
                <path id="Path_91032" data-name="Path 91032" d="M2851.677,901.636a1.2,1.2,0,0,0-.6.28,2.678,2.678,0,0,0-.249.376,1.249,1.249,0,0,0-.462.366.125.125,0,0,0,0,.126.213.213,0,0,0,.266.091.79.79,0,0,0,.2-.128,1.315,1.315,0,0,1,.253-.1.3.3,0,0,0,.2-.273c.017-.147.036-.177.181-.235a1.833,1.833,0,0,0,.322-.128C2852,901.87,2851.955,901.592,2851.677,901.636Z" transform="translate(-2835.33 -892.216)" fill="#fff"/>
                <path id="Path_91033" data-name="Path 91033" d="M2878.305,892.74a1.2,1.2,0,0,0-.6.28,2.676,2.676,0,0,0-.249.376,1.258,1.258,0,0,0-.462.366.121.121,0,0,0,0,.125.216.216,0,0,0,.267.091.8.8,0,0,0,.2-.128,1.253,1.253,0,0,1,.253-.1.3.3,0,0,0,.2-.273c.017-.147.036-.178.182-.235a1.822,1.822,0,0,0,.322-.128C2878.628,892.974,2878.583,892.7,2878.305,892.74Z" transform="translate(-2855.728 -885.401)" fill="#fff"/>
                <path id="Path_91034" data-name="Path 91034" d="M2899.431,876.9a1.177,1.177,0,0,0-.6.28,2.524,2.524,0,0,0-.25.375,1.261,1.261,0,0,0-.464.366.129.129,0,0,0,0,.126.217.217,0,0,0,.269.091.822.822,0,0,0,.2-.128,1.253,1.253,0,0,1,.254-.1.3.3,0,0,0,.2-.273c.017-.148.037-.178.182-.235a1.825,1.825,0,0,0,.322-.128C2899.753,877.133,2899.709,876.855,2899.431,876.9Z" transform="translate(-2871.91 -873.267)" fill="#fff"/>
                <path id="Path_91035" data-name="Path 91035" d="M2881.662,926.647a1.189,1.189,0,0,0-.6.28,2.433,2.433,0,0,0-.248.376,1.243,1.243,0,0,0-.463.366.122.122,0,0,0,0,.126.215.215,0,0,0,.268.091.8.8,0,0,0,.2-.128,1.293,1.293,0,0,1,.254-.1.3.3,0,0,0,.2-.272c.016-.147.036-.178.182-.236a1.911,1.911,0,0,0,.322-.128C2881.984,926.881,2881.94,926.6,2881.662,926.647Z" transform="translate(-2858.299 -911.376)" fill="#fff"/>
                <path id="Path_91036" data-name="Path 91036" d="M2893.654,898.95a1.179,1.179,0,0,0-.6.28,2.531,2.531,0,0,0-.25.376,1.243,1.243,0,0,0-.462.366.122.122,0,0,0,0,.125.215.215,0,0,0,.267.091.8.8,0,0,0,.2-.128,1.287,1.287,0,0,1,.254-.1.3.3,0,0,0,.2-.272c.017-.147.037-.178.182-.236a1.867,1.867,0,0,0,.322-.128C2893.976,899.184,2893.931,898.906,2893.654,898.95Z" transform="translate(-2867.485 -890.158)" fill="#fff"/>
                <path id="Path_91037" data-name="Path 91037" d="M2872.215,913.124a1.2,1.2,0,0,0-.6.28,2.625,2.625,0,0,0-.248.375,1.256,1.256,0,0,0-.463.366.127.127,0,0,0,0,.126.217.217,0,0,0,.269.091.821.821,0,0,0,.2-.128,1.272,1.272,0,0,1,.253-.1.3.3,0,0,0,.2-.273c.017-.147.035-.178.182-.235a1.842,1.842,0,0,0,.322-.128C2872.539,913.359,2872.494,913.08,2872.215,913.124Z" transform="translate(-2851.063 -901.016)" fill="#fff"/>
                <path id="Path_91038" data-name="Path 91038" d="M2838.974,895.585a1.18,1.18,0,0,0-.6.28,2.379,2.379,0,0,0-.249.375,1.24,1.24,0,0,0-.463.366.126.126,0,0,0,0,.126.215.215,0,0,0,.268.09.785.785,0,0,0,.2-.128,1.279,1.279,0,0,1,.254-.1.3.3,0,0,0,.2-.273c.016-.147.036-.177.182-.236a1.826,1.826,0,0,0,.322-.128C2839.3,895.819,2839.25,895.541,2838.974,895.585Z" transform="translate(-2825.597 -887.581)" fill="#fff"/>
                <path id="Path_91039" data-name="Path 91039" d="M2860.965,885.817a1.184,1.184,0,0,0-.6.28,2.532,2.532,0,0,0-.249.375,1.24,1.24,0,0,0-.462.366.119.119,0,0,0,0,.125.213.213,0,0,0,.267.091.809.809,0,0,0,.2-.128,1.254,1.254,0,0,1,.253-.1.3.3,0,0,0,.2-.273c.017-.147.037-.178.182-.235a1.81,1.81,0,0,0,.322-.128C2861.287,886.051,2861.243,885.773,2860.965,885.817Z" transform="translate(-2842.444 -880.098)" fill="#fff"/>
                <path id="Path_91040" data-name="Path 91040" d="M2885.721,872.565a1.183,1.183,0,0,0-.6.279,2.483,2.483,0,0,0-.249.375,1.232,1.232,0,0,0-.462.366.121.121,0,0,0,0,.126.214.214,0,0,0,.267.091.824.824,0,0,0,.2-.128,1.294,1.294,0,0,1,.253-.1.3.3,0,0,0,.2-.273c.017-.147.037-.177.182-.236a1.83,1.83,0,0,0,.322-.128C2886.042,872.8,2886,872.521,2885.721,872.565Z" transform="translate(-2861.408 -869.947)" fill="#fff"/>
                <path id="Path_91041" data-name="Path 91041" d="M2844.966,919.856a1.187,1.187,0,0,0-.6.28,2.493,2.493,0,0,0-.249.376,1.251,1.251,0,0,0-.463.366.125.125,0,0,0,0,.125.216.216,0,0,0,.268.091.818.818,0,0,0,.2-.128,1.244,1.244,0,0,1,.253-.1.3.3,0,0,0,.2-.273c.017-.147.037-.178.181-.236a1.8,1.8,0,0,0,.322-.128C2845.288,920.09,2845.244,919.812,2844.966,919.856Z" transform="translate(-2830.188 -906.173)" fill="#fff"/>
                <path id="Path_91042" data-name="Path 91042" d="M2794.353,896.888a1.19,1.19,0,0,0-.6.28,2.569,2.569,0,0,0-.248.376,1.248,1.248,0,0,0-.463.366.125.125,0,0,0,0,.126.214.214,0,0,0,.267.091.779.779,0,0,0,.2-.128,1.254,1.254,0,0,1,.253-.1.3.3,0,0,0,.2-.273c.017-.147.037-.177.181-.235a1.814,1.814,0,0,0,.322-.128C2794.676,897.122,2794.632,896.844,2794.353,896.888Z" transform="translate(-2791.417 -888.579)" fill="#fff"/>
                <path id="Path_91043" data-name="Path 91043" d="M2787.044,885.162a1.188,1.188,0,0,0-.1-.653,2.558,2.558,0,0,0-.291-.344,1.252,1.252,0,0,0-.222-.547.123.123,0,0,0-.121-.035.213.213,0,0,0-.162.232.788.788,0,0,0,.068.224,1.329,1.329,0,0,1,.026.272.3.3,0,0,0,.207.267c.136.057.161.084.176.24a1.884,1.884,0,0,0,.032.345C2786.729,885.406,2787.008,885.441,2787.044,885.162Z" transform="translate(-2786.148 -878.387)" fill="#fff"/>
                <path id="Path_91044" data-name="Path 91044" d="M2803.643,886.731a1.186,1.186,0,0,0-.1-.653,2.576,2.576,0,0,0-.291-.344,1.253,1.253,0,0,0-.222-.546.124.124,0,0,0-.12-.035.212.212,0,0,0-.162.231.809.809,0,0,0,.067.224,1.261,1.261,0,0,1,.027.272.3.3,0,0,0,.207.266c.137.058.159.084.175.24a1.871,1.871,0,0,0,.032.345C2803.327,886.975,2803.607,887.01,2803.643,886.731Z" transform="translate(-2798.863 -879.589)" fill="#fff"/>
                <path id="Path_91045" data-name="Path 91045" d="M2841.9,909.074a1.186,1.186,0,0,0-.1-.653,2.489,2.489,0,0,0-.29-.344,1.246,1.246,0,0,0-.222-.547.122.122,0,0,0-.12-.035.213.213,0,0,0-.161.231.768.768,0,0,0,.067.224,1.256,1.256,0,0,1,.026.272.3.3,0,0,0,.207.267c.137.057.16.084.175.24a1.849,1.849,0,0,0,.034.345C2841.584,909.318,2841.862,909.353,2841.9,909.074Z" transform="translate(-2828.169 -896.705)" fill="#fff"/>
                <path id="Path_91046" data-name="Path 91046" d="M2866.308,900.528a1.2,1.2,0,0,0-.1-.653,2.515,2.515,0,0,0-.291-.344,1.243,1.243,0,0,0-.222-.547.124.124,0,0,0-.121-.036.214.214,0,0,0-.161.231.786.786,0,0,0,.068.224,1.3,1.3,0,0,1,.027.272.3.3,0,0,0,.206.267c.136.057.16.084.175.24a1.769,1.769,0,0,0,.033.345C2865.993,900.772,2866.273,900.807,2866.308,900.528Z" transform="translate(-2846.868 -890.158)" fill="#fff"/>
                <path id="Path_91047" data-name="Path 91047" d="M2889.354,886.279a1.181,1.181,0,0,0-.1-.653,2.614,2.614,0,0,0-.291-.344,1.269,1.269,0,0,0-.221-.547.124.124,0,0,0-.121-.035.214.214,0,0,0-.163.231.828.828,0,0,0,.068.224,1.249,1.249,0,0,1,.027.272.3.3,0,0,0,.206.267c.136.057.161.085.176.241a1.826,1.826,0,0,0,.032.344C2889.04,886.522,2889.319,886.558,2889.354,886.279Z" transform="translate(-2864.521 -879.243)" fill="#fff"/>
                <path id="Path_91048" data-name="Path 91048" d="M2896.914,864.122c-.034.282-.316.244-.386,0a1.751,1.751,0,0,1-.036-.346c-.015-.154-.037-.182-.175-.239a.3.3,0,0,1-.2-.222l.372-.322c.013.042.021.087.032.13a2.725,2.725,0,0,1,.289.344A1.173,1.173,0,0,1,2896.914,864.122Z" transform="translate(-2870.389 -862.62)" fill="#fff"/>
                <path id="Path_91049" data-name="Path 91049" d="M2904.907,888.3c-.1.182-.2.361-.3.536-.009-.075-.006-.15-.013-.222-.014-.154-.038-.181-.175-.239a.3.3,0,0,1-.208-.267,1.24,1.24,0,0,0-.027-.272.77.77,0,0,1-.067-.224.213.213,0,0,1,.162-.232.12.12,0,0,1,.12.035,1.249,1.249,0,0,1,.222.548A2.536,2.536,0,0,1,2904.907,888.3Z" transform="translate(-2876.517 -881.298)" fill="#fff"/>
                <path id="Path_91050" data-name="Path 91050" d="M2883.858,908.586a1.191,1.191,0,0,0-.1-.653,2.585,2.585,0,0,0-.291-.344,1.251,1.251,0,0,0-.222-.547.124.124,0,0,0-.12-.035.215.215,0,0,0-.162.231.8.8,0,0,0,.068.224,1.274,1.274,0,0,1,.027.272.3.3,0,0,0,.206.267c.137.057.161.084.175.24a1.913,1.913,0,0,0,.034.345C2883.543,908.829,2883.823,908.865,2883.858,908.586Z" transform="translate(-2860.311 -896.331)" fill="#fff"/>
                <path id="Path_91051" data-name="Path 91051" d="M2875.545,879.891c-.034.279-.314.244-.386,0a1.728,1.728,0,0,1-.033-.344c-.014-.157-.04-.184-.177-.242a.3.3,0,0,1-.176-.154c.145-.067.287-.14.424-.209a1.88,1.88,0,0,1,.248.3A1.188,1.188,0,0,1,2875.545,879.891Z" transform="translate(-2854.038 -874.834)" fill="#fff"/>
                <path id="Path_91052" data-name="Path 91052" d="M2859.63,913.586a1.183,1.183,0,0,0-.1-.653,2.72,2.72,0,0,0-.291-.344,1.268,1.268,0,0,0-.222-.547.122.122,0,0,0-.12-.035.215.215,0,0,0-.163.231.857.857,0,0,0,.068.224,1.217,1.217,0,0,1,.028.272.3.3,0,0,0,.206.266c.137.057.161.085.177.24a1.848,1.848,0,0,0,.032.345C2859.315,913.829,2859.595,913.865,2859.63,913.586Z" transform="translate(-2841.751 -900.161)" fill="#fff"/>
                <path id="Path_91053" data-name="Path 91053" d="M2833.364,885.422a1.2,1.2,0,0,0-.1-.653,2.521,2.521,0,0,0-.292-.344,1.236,1.236,0,0,0-.221-.547.124.124,0,0,0-.121-.035.215.215,0,0,0-.162.231.8.8,0,0,0,.068.224,1.259,1.259,0,0,1,.027.272.3.3,0,0,0,.206.267c.136.057.161.084.175.24a1.717,1.717,0,0,0,.033.345C2833.05,885.666,2833.329,885.7,2833.364,885.422Z" transform="translate(-2821.631 -878.587)" fill="#fff"/>
                <path id="Path_91054" data-name="Path 91054" d="M2829.65,902.721a1.2,1.2,0,0,0-.1-.653,2.606,2.606,0,0,0-.292-.344,1.239,1.239,0,0,0-.221-.547.125.125,0,0,0-.121-.035.215.215,0,0,0-.162.231.811.811,0,0,0,.068.224,1.315,1.315,0,0,1,.028.272.3.3,0,0,0,.206.267c.136.057.16.084.176.24a1.871,1.871,0,0,0,.033.345C2829.335,902.965,2829.614,903,2829.65,902.721Z" transform="translate(-2818.785 -891.838)" fill="#fff"/>
                <path id="Path_91055" data-name="Path 91055" d="M2848.726,888.965a1.2,1.2,0,0,0-.1-.653,2.518,2.518,0,0,0-.292-.344,1.226,1.226,0,0,0-.222-.547.122.122,0,0,0-.12-.035.214.214,0,0,0-.161.231.786.786,0,0,0,.068.224,1.28,1.28,0,0,1,.027.272.3.3,0,0,0,.206.266c.137.058.16.084.176.241a1.853,1.853,0,0,0,.033.344C2848.412,889.209,2848.691,889.244,2848.726,888.965Z" transform="translate(-2833.398 -881.301)" fill="#fff"/>
                <path id="Path_91056" data-name="Path 91056" d="M2816.877,916.678a1.2,1.2,0,0,0-.1-.653,2.673,2.673,0,0,0-.291-.344,1.262,1.262,0,0,0-.222-.546.126.126,0,0,0-.121-.036.215.215,0,0,0-.162.232.8.8,0,0,0,.068.224,1.25,1.25,0,0,1,.027.272.3.3,0,0,0,.206.266c.136.058.16.084.175.24a1.813,1.813,0,0,0,.033.345C2816.561,916.922,2816.842,916.957,2816.877,916.678Z" transform="translate(-2809 -902.53)" fill="#fff"/>
                <path id="Path_91057" data-name="Path 91057" d="M2807.016,911.491a1.2,1.2,0,0,0-.1-.653,2.554,2.554,0,0,0-.292-.344,1.249,1.249,0,0,0-.222-.547.124.124,0,0,0-.121-.035.215.215,0,0,0-.161.231.772.772,0,0,0,.068.224,1.231,1.231,0,0,1,.026.272.3.3,0,0,0,.207.267c.136.057.16.084.175.241a1.935,1.935,0,0,0,.033.344C2806.7,911.734,2806.98,911.77,2807.016,911.491Z" transform="translate(-2801.446 -898.556)" fill="#fff"/>
              </g>
              <path id="Path_91058" data-name="Path 91058" d="M2814.977,978.1a18.216,18.216,0,0,1-4.342-.443c-1.925-.506-3.42.307-3.42-1.677s-.584-2.567-.916-5.393-.975-2.921-1.455-5.749c-.583-3.406-1.994-8.081-2.741-11.6a36.212,36.212,0,0,0-1.39-4.862c-.081.725-.17,1.428-.272,2.091-.483,3.117-.918,5.888-1.448,8.47a55.019,55.019,0,0,1-1.71,6.566c-1.3,3.89-1.021,4.488-1.931,6.639-.137.329-.3.7-.508,1.114a10.765,10.765,0,0,0-.616,1.538c-.536,1.719-.284,2.594-.86,2.831a61.851,61.851,0,0,1-6.332.68s1.193-15.044,1.774-20.444c.655-6.073.755-12.133,1.5-18.191.369-3.013.866-5.589,1.225-8.6,0-.013,1.889-11.5,2.306-11.456a66.163,66.163,0,0,0,8.253.842c1.781-.045,6.6-.934,6.978-.563.468.468.423,2.168.507,2.768.26,1.857.962,4.348,1.189,6.207.543,4.441.848,7.416,1.306,11.865.61,5.931.9,12.208,1.659,18.129.458,3.556.76,7.912.95,11.582.122,2.368.2,4.448.244,5.841C2814.96,977.419,2814.977,978.1,2814.977,978.1Z" transform="translate(-2783.818 -864.516)" fill="#df6062"/>
              <path id="Path_91059" data-name="Path 91059" d="M2821,879.149l-1.683,10.31-1.079-.6s1.142-6.168,1.309-7.58c.13-1.094.31-2.076.382-2.462C2820.25,878.925,2820.619,879.04,2821,879.149Z" transform="translate(-2807.717 -833.265)" fill="#df6062"/>
              <path id="Path_91060" data-name="Path 91060" d="M2869.875,890.892l-1.079.6-1.639-10.057a7.846,7.846,0,0,0,1.084-.291c.09.483.224,1.288.326,2.166C2868.734,884.724,2869.875,890.892,2869.875,890.892Z" transform="translate(-2845.193 -835.052)" fill="#df6062"/>
              <path id="Path_91061" data-name="Path 91061" d="M2786.468,1166.523c.031-.415,3.239-.041,4.588-.228s2.1-.706,2.243-.5-.145,1.329-.1,1.661-3.738.623-4.921.706-1.771.149-1.775-.156C2786.492,1167.521,2786.435,1166.94,2786.468,1166.523Z" transform="translate(-2783.375 -1053.07)" fill="#f5e3dc"/>
              <path id="Path_91062" data-name="Path 91062" d="M2880.939,1165.105c-.261-.172-2.6-.047-3.734-.3s-3.6-.781-3.889-.741-.146.461-.068.756,0,.748.078.982,2.46.592,4.049.794,3.6.5,3.753.25-.031-.327,0-.9S2881.2,1165.277,2880.939,1165.105Z" transform="translate(-2849.78 -1051.781)" fill="#f5e3dc"/>
              <path id="Path_91063" data-name="Path 91063" d="M2779.1,828.992c1.062-2.625,4.253-8.28,4.253-8.28l-1.071-.6s-5.976,5.623-7,7.83C2773.525,831.7,2777.609,832.681,2779.1,828.992Z" transform="translate(-2774.482 -788.294)" fill="#ffa880"/>
              <path id="Path_91064" data-name="Path 91064" d="M2805.34,807.434a1.864,1.864,0,0,0-.239.642c-.008.036-.014.074-.022.111-.017.09-.037.182-.055.272a6.089,6.089,0,0,0-.1.756c-.01.19.041.8.08,1.278.023.237.044.443.053.544,0,0,0,.008,0,.011l.006.056s.7-.113,1.157-.174l.171-.023a.3.3,0,0,0,.023-.109c0-.019.007-.04.01-.065.041-.336.093-1.076.092-1.471,0-.031,0-.069,0-.106.007-.3.042-.763.041-.968a.767.767,0,0,0-.008-.088.093.093,0,0,0-.081-.057,0,0,0,0,1,0,0,.134.134,0,0,0-.029,0,.114.114,0,0,0-.025.012l0,0a.347.347,0,0,0-.087.113c0-.014.01-.047.019-.091,0-.023.01-.048.015-.075.007-.058.016-.127.021-.193a.486.486,0,0,0-.024-.2.08.08,0,0,0-.118-.039.687.687,0,0,0-.152.191,1.666,1.666,0,0,0-.086.161c-.03.063-.05.114-.055.129,0-.011,0-.057.008-.116.008-.082.016-.193.023-.271,0-.013,0-.025,0-.034.007-.084.046-.365-.106-.315-.03.008-.068.071-.111.158a5.714,5.714,0,0,0-.242.589c0,.014-.008.025-.011.035-.022.067-.054.157-.085.249-.052.15-.1.3-.116.334.008-.038.034-.162.062-.319.016-.083.031-.176.047-.271a3.083,3.083,0,0,0,.069-.611A.079.079,0,0,0,2805.34,807.434Z" transform="translate(-2797.518 -778.49)" fill="#ffa880"/>
              <circle id="Ellipse_1659" data-name="Ellipse 1659" cx="0.561" cy="0.561" r="0.561" transform="translate(10.372 55.778)" fill="#ffcb87"/>
              <circle id="Ellipse_1660" data-name="Ellipse 1660" cx="0.561" cy="0.561" r="0.561" transform="translate(23.621 55.778)" fill="#ffcb87"/>
              <path id="Path_91065" data-name="Path 91065" d="M2835.259,1022.553c-.081.725-.17,1.428-.272,2.091-.483,3.117-.919,5.889-1.447,8.471a10.959,10.959,0,0,1-.875-4.321c.17-1.562.454-2.674-.284-4.293s.427-2.741.284-4.991.017-3.232.454-3.045S2835.259,1022.553,2835.259,1022.553Z" transform="translate(-2818.365 -938.693)" fill="#cc4e50"/>
              <path id="Path_91066" data-name="Path 91066" d="M2890.322,1122.765c-.364-.172-.755-.279-1.1-.486a2.912,2.912,0,0,1-1.035-1.194,7.392,7.392,0,0,0-1.721-2.507c-.476-.354-.731.12-.678.608.1.959,1.194,1.465,1.52,2.345.352.952.092,2.106.7,2.948a13.553,13.553,0,0,1,1.745,2.708,4.307,4.307,0,0,0,.811,1.418C2890.523,1127.213,2890.445,1125.132,2890.322,1122.765Z" transform="translate(-2859.461 -1016.842)" fill="#cc4e50"/>
              <path id="Path_91067" data-name="Path 91067" d="M2802.6,1145.813a7.187,7.187,0,0,1-1.425.823,4.6,4.6,0,0,0-1.045.366c-.3.2-.668.682-.316,1,.379.349,1.26.1,1.654-.06.851-.334,1.562-.86,2.438-1.141a10.745,10.745,0,0,1,.616-1.537c.2-.419.372-.785.508-1.114A23.036,23.036,0,0,1,2802.6,1145.813Z" transform="translate(-2793.498 -1036.526)" fill="#cc4e50"/>
              <path id="Path_91068" data-name="Path 91068" d="M2832.481,933.05s-.3,3.224,0,3.411a30.885,30.885,0,0,0,5.878,0c.248-.187.319-3.608.319-3.608a2.976,2.976,0,0,1,.664,2.31c-.085,1.037-.079,1.516-.421,1.952s-1.247.685-2.554.529a10.873,10.873,0,0,0-2.6.047c-1.044.047-1.708-.14-1.968-.514s0-.9-.054-2.211A2.026,2.026,0,0,1,2832.481,933.05Z" transform="translate(-2818.017 -874.662)" fill="#cc4e50"/>
              <g id="Group_13951" data-name="Group 13951" transform="translate(15.542 40.95)">
                <path id="Path_91069" data-name="Path 91069" d="M2840.734,861.14a.991.991,0,1,1,1.024-.99A1.009,1.009,0,0,1,2840.734,861.14Zm0-1.8a.814.814,0,1,0,.846.813A.831.831,0,0,0,2840.734,859.337Z" transform="translate(-2839.71 -859.159)" fill="#fff"/>
              </g>
              <g id="Group_13952" data-name="Group 13952" transform="translate(18.112 40.95)">
                <path id="Path_91070" data-name="Path 91070" d="M2851.724,861.14a.991.991,0,1,1,1.024-.99A1.009,1.009,0,0,1,2851.724,861.14Zm0-1.8a.814.814,0,1,0,.846.813A.831.831,0,0,0,2851.724,859.337Z" transform="translate(-2850.7 -859.159)" fill="#fff"/>
              </g>
              <g id="Group_13953" data-name="Group 13953" transform="translate(17.5 41.852)">
                <rect id="Rectangle_5322" data-name="Rectangle 5322" width="0.701" height="0.177" transform="translate(0 0)" fill="#fff"/>
              </g>
              <g id="Group_13954" data-name="Group 13954" transform="translate(20.016 41.417)">
                <path id="Path_91071" data-name="Path 91071" d="M2858.92,861.625a.086.086,0,0,1-.067-.031.088.088,0,0,1,.01-.125l.34-.291a.091.091,0,0,1,.126.01.089.089,0,0,1-.01.125l-.341.291A.092.092,0,0,1,2858.92,861.625Z" transform="translate(-2858.832 -861.157)" fill="#fff"/>
              </g>
              <g id="Group_13955" data-name="Group 13955" transform="translate(15.135 41.47)">
                <path id="Path_91072" data-name="Path 91072" d="M2838.467,861.8a.1.1,0,0,1-.045-.012l-.406-.24a.089.089,0,0,1,.09-.153l.407.239a.088.088,0,0,1,.031.121A.089.089,0,0,1,2838.467,861.8Z" transform="translate(-2837.972 -861.381)" fill="#fff"/>
              </g>
            </g>
          </g>
        </g>
      </g>
    </g>
  </g>
</svg>
