<svg xmlns="http://www.w3.org/2000/svg" width="60.478" height="60" viewBox="0 0 60.478 60">
  <g id="Group_11954" data-name="Group 11954" transform="translate(-592 -609.5)">
    <rect id="Rectangle_4316" data-name="Rectangle 4316" width="60" height="60" transform="translate(592.478 609.5)" fill="#fff" opacity="0"/>
    <g id="coupon" transform="translate(592 621.849)">
      <path id="Path_88382" data-name="Path 88382" d="M58.527,107.355H13.656v.96a.976.976,0,0,1-1.951,0v-.96H1.951A1.936,1.936,0,0,0,0,109.275v8.451a1.4,1.4,0,0,0,.66,1.2,6.682,6.682,0,0,1,3.242,5.71,6.682,6.682,0,0,1-3.242,5.71,1.4,1.4,0,0,0-.66,1.2v8.451a1.936,1.936,0,0,0,1.951,1.92h9.755v-.96a.976.976,0,0,1,1.951,0v.96H58.527a1.936,1.936,0,0,0,1.951-1.92V109.275A1.936,1.936,0,0,0,58.527,107.355ZM13.656,137.114a.976.976,0,0,1-1.951,0v-1.92a.976.976,0,0,1,1.951,0Zm0-5.76a.976.976,0,0,1-1.951,0v-1.92a.976.976,0,0,1,1.951,0Zm0-5.76a.976.976,0,0,1-1.951,0v-1.92a.976.976,0,0,1,1.951,0Zm0-5.76a.976.976,0,0,1-1.951,0v-1.92a.976.976,0,0,1,1.951,0Zm0-5.76a.976.976,0,0,1-1.951,0v-1.92a.976.976,0,0,1,1.951,0Z" transform="translate(0 -107.355)" fill="#cc4e50"/>
      <path id="Path_88383" data-name="Path 88383" d="M173.408,154.59H133.089a.96.96,0,0,1-.96-.96v-28.8a.96.96,0,0,1,.96-.96h40.319a.96.96,0,0,1,.96.96v28.8A.96.96,0,0,1,173.408,154.59Z" transform="translate(-115.69 -121.951)" fill="#df6062"/>
      <rect id="Rectangle_5240" data-name="Rectangle 5240" width="24.741" height="4.124" rx="2.062" transform="translate(27.354 25.256) rotate(-45)" fill="#fff"/>
      <path id="Path_89092" data-name="Path 89092" d="M1.81,1.393l21.293-.3c1.139,0,1.638-1.864,1.638-.726A2.062,2.062,0,0,1,22.679,2.43H2.062A2.062,2.062,0,0,1,0,.368C0-.77.671,1.393,1.81,1.393Z" transform="translate(28.551 26.453) rotate(-45)" fill="#fdd"/>
      <path id="Exclusion_3" data-name="Exclusion 3" d="M4.123,8.247A4.124,4.124,0,1,1,8.247,4.123,4.128,4.128,0,0,1,4.123,8.247Zm0-5.5A1.374,1.374,0,1,0,5.5,4.123,1.376,1.376,0,0,0,4.123,2.749Z" transform="translate(27.937 7.658)" fill="#fff"/>
      <path id="Exclusion_4" data-name="Exclusion 4" d="M4.123,8.247A4.124,4.124,0,1,1,8.247,4.123,4.128,4.128,0,0,1,4.123,8.247Zm0-5.5A1.374,1.374,0,1,0,5.5,4.123,1.376,1.376,0,0,0,4.123,2.749Z" transform="translate(38.933 20.028)" fill="#fff"/>
      <path id="Exclusion_5" data-name="Exclusion 5" d="M5.19,1.858c.037-.047-.208-3.013.682-1.355A3.62,3.62,0,0,1,6.2,2.108,4.124,4.124,0,0,1,2.072,6.231,4.632,4.632,0,0,1,.285,5.826c-1.2-.4,1.754-.879,1.786-.834C3.638,4.731,4.349,3.919,5.19,1.858Z" transform="translate(29.989 9.673)" fill="#fdd"/>
      <path id="Exclusion_7" data-name="Exclusion 7" d="M5.19,1.858c.037-.047-.208-3.013.682-1.355A3.62,3.62,0,0,1,6.2,2.108,4.124,4.124,0,0,1,2.072,6.231,4.632,4.632,0,0,1,.285,5.826c-1.2-.4,1.754-.879,1.786-.834C3.638,4.731,4.349,3.919,5.19,1.858Z" transform="translate(40.986 21.94)" fill="#fdd"/>
    </g>
  </g>
</svg>
