<svg xmlns="http://www.w3.org/2000/svg" xmlns:xlink="http://www.w3.org/1999/xlink" width="375" height="96" viewBox="0 0 375 96">
  <defs>
    <clipPath id="clip-path">
      <rect id="Rectangle_5325" data-name="Rectangle 5325" width="375" height="96" transform="translate(-2534 -677)" fill="#f1f2ff"/>
    </clipPath>
    <clipPath id="clip-path-2">
      <rect id="Rectangle_5321" data-name="Rectangle 5321" width="823.171" height="96" rx="10" fill="#f1f2ff"/>
    </clipPath>
  </defs>
  <g id="Mask_Group_208" data-name="Mask Group 208" transform="translate(2534 677)" clip-path="url(#clip-path)">
    <g id="Group_13959" data-name="Group 13959" transform="translate(-2758.085 -677)">
      <rect id="Rectangle_5319" data-name="Rectangle 5319" width="823.171" height="96" rx="10" fill="#38539a"/>
      <g id="Mask_Group_207" data-name="Mask Group 207" clip-path="url(#clip-path-2)">
        <g id="Group_13945" data-name="Group 13945" transform="translate(0.005 -27.545)">
          <g id="Group_13871" data-name="Group 13871" transform="translate(39.428 22.029)">
            <path id="Path_90923" data-name="Path 90923" d="M549.215,209.913l.81,4.621-1.533.659-.909-4.607Z" transform="translate(-547.583 -209.913)" fill="#e04c4c"/>
          </g>
          <g id="Group_13872" data-name="Group 13872" transform="translate(13.407 147.533)">
            <path id="Path_90924" data-name="Path 90924" d="M438.89,614.022l2.3,3.656-1.146,1.491-2.385-3.583Z" transform="translate(-437.659 -614.022)" fill="#438acc"/>
          </g>
          <g id="Group_13873" data-name="Group 13873" transform="translate(8.92 31.07)">
            <path id="Path_90925" data-name="Path 90925" d="M422.543,241.264l-3.608.271-.237-2.1,3.614-.4Z" transform="translate(-418.698 -239.034)" fill="#e04c4c"/>
          </g>
          <g id="Group_13874" data-name="Group 13874" transform="translate(77.636 3.197)">
            <path id="Path_90926" data-name="Path 90926" d="M709.782,153.115l3.3-2.169-.717-1.673L709,151.35Z" transform="translate(-709 -149.273)" fill="#ffd769"/>
          </g>
          <g id="Group_13875" data-name="Group 13875" transform="translate(144.217 23.547)">
            <path id="Path_90927" data-name="Path 90927" d="M990.269,217.522l3.2-2.724,1.052,1.757-3.151,2.85Z" transform="translate(-990.269 -214.798)" fill="#438acc"/>
          </g>
          <g id="Group_13876" data-name="Group 13876" transform="translate(514.217 6.993)">
            <path id="Path_90928" data-name="Path 90928" d="M2555.28,167.119l-1.922-4.321,1.387-1.3,2.018,4.265Z" transform="translate(-2553.358 -161.502)" fill="#438acc"/>
          </g>
          <g id="Group_13877" data-name="Group 13877" transform="translate(15.111 204.309)">
            <path id="Path_90929" data-name="Path 90929" d="M449.012,799.172l-3.779.672-.38-2.178,3.776-.81Z" transform="translate(-444.853 -796.856)" fill="#73bf98"/>
          </g>
          <g id="Group_13878" data-name="Group 13878" transform="translate(110.591 110.151)">
            <path id="Path_90930" data-name="Path 90930" d="M851.892,498.935l-3.678-3.01.872-2.268,3.753,2.887Z" transform="translate(-848.214 -493.657)" fill="#73bf98"/>
          </g>
          <g id="Group_13879" data-name="Group 13879" transform="translate(66.684 20.365)">
            <path id="Path_90931" data-name="Path 90931" d="M662.727,206.391l4.22-1.837.793,2.388-4.194,2Z" transform="translate(-662.727 -204.553)" fill="#438acc"/>
          </g>
          <g id="Group_13880" data-name="Group 13880" transform="translate(0 65.199)">
            <path id="Path_90932" data-name="Path 90932" d="M381,350.751l4.22-1.838.793,2.388-4.194,1.995Z" transform="translate(-381 -348.913)" fill="#73bf98"/>
          </g>
          <g id="Group_13881" data-name="Group 13881" transform="translate(28.239)">
            <path id="Path_90933" data-name="Path 90933" d="M500.315,144.538l1.277-5.559,1.936.521-1.165,5.622Z" transform="translate(-500.315 -138.979)" fill="#73bf98"/>
          </g>
          <g id="Group_13882" data-name="Group 13882" transform="translate(118.466 156.619)">
            <path id="Path_90934" data-name="Path 90934" d="M885.022,644.125l-1.649,5.388-1.893-.75,1.541-5.465Z" transform="translate(-881.48 -643.298)" fill="#73bf98"/>
          </g>
          <g id="Group_13883" data-name="Group 13883" transform="translate(115.34 74.722)">
            <path id="Path_90935" data-name="Path 90935" d="M870.7,379.579l-2.425,4.891,1.56,1.612,2.535-4.82Z" transform="translate(-868.275 -379.579)" fill="#438acc"/>
          </g>
          <g id="Group_13884" data-name="Group 13884" transform="translate(135.173 54.478)">
            <path id="Path_90936" data-name="Path 90936" d="M952.06,314.717l.907,5.527,1.91-.3-.794-5.577Z" transform="translate(-952.06 -314.367)" fill="#73bf98"/>
          </g>
          <g id="Group_13885" data-name="Group 13885" transform="translate(65.422 99.987)">
            <path id="Path_90937" data-name="Path 90937" d="M657.4,462.9l3.347,2.773,1.075-1.84-3.3-2.9Z" transform="translate(-657.4 -460.931)" fill="#438acc"/>
          </g>
          <g id="Group_13886" data-name="Group 13886" transform="translate(163.742 38.082)">
            <path id="Path_90938" data-name="Path 90938" d="M1076.6,263.844l-3.609.245-.228-2.1,3.615-.375Z" transform="translate(-1072.763 -261.613)" fill="#ffd769"/>
          </g>
          <g id="Group_13887" data-name="Group 13887" transform="translate(198.667 79.794)">
            <path id="Path_90939" data-name="Path 90939" d="M1224.01,397.25l-2.4,3.551-1.3-1.254,2.329-3.646Z" transform="translate(-1220.31 -395.9)" fill="#438acc"/>
          </g>
          <g id="Group_13888" data-name="Group 13888" transform="translate(181.522 24.444)">
            <path id="Path_90940" data-name="Path 90940" d="M1149.64,217.685l2.11,5.1-1.645,1.437-2.224-5.043Z" transform="translate(-1147.881 -217.685)" fill="#438acc"/>
          </g>
          <g id="Group_13889" data-name="Group 13889" transform="translate(253.913 204.795)">
            <path id="Path_90941" data-name="Path 90941" d="M1455.44,798.4l2.11,5.1-1.645,1.437-2.224-5.043Z" transform="translate(-1453.681 -798.4)" fill="#438acc"/>
          </g>
          <g id="Group_13890" data-name="Group 13890" transform="translate(161.004 6.279)">
            <path id="Path_90942" data-name="Path 90942" d="M1061.18,161.866l4.338.738.425-2.5-4.335-.9Z" transform="translate(-1061.18 -159.203)" fill="#e04c4c"/>
          </g>
          <g id="Group_13891" data-name="Group 13891" transform="translate(182.124 117.741)">
            <path id="Path_90943" data-name="Path 90943" d="M1154.91,522.365l-2.925-4.267-1.564,1.534,2.844,4.386Z" transform="translate(-1150.421 -518.097)" fill="#e04c4c"/>
          </g>
          <g id="Group_13892" data-name="Group 13892" transform="translate(98.573 22.182)">
            <path id="Path_90944" data-name="Path 90944" d="M801.882,212.481l-3.59-2.076-.848,2.01L801,214.628Z" transform="translate(-797.444 -210.405)" fill="#e04c4c"/>
          </g>
          <g id="Group_13893" data-name="Group 13893" transform="translate(261.023 7.892)">
            <path id="Path_90945" data-name="Path 90945" d="M1484.62,168.928l3.9-2.564-.848-1.977-3.969,2.455Z" transform="translate(-1483.703 -164.388)" fill="#ffd769"/>
          </g>
          <g id="Group_13894" data-name="Group 13894" transform="translate(267.03 172.808)">
            <path id="Path_90946" data-name="Path 90946" d="M1513.38,695.4l-4.294.973.375,2.214,4.342-.843Z" transform="translate(-1509.086 -695.4)" fill="#ffd769"/>
          </g>
          <g id="Group_13895" data-name="Group 13895" transform="translate(349.787 79.608)">
            <path id="Path_90947" data-name="Path 90947" d="M1858.76,395.438l-.055,5.718,1.728-.079.161-5.754Z" transform="translate(-1858.705 -395.323)" fill="#ffd769"/>
          </g>
          <g id="Group_13896" data-name="Group 13896" transform="translate(243.067 96.996)">
            <path id="Path_90948" data-name="Path 90948" d="M1407.86,453.567l3.953,2.4.652-2.1-3.935-2.55Z" transform="translate(-1407.86 -451.317)" fill="#ffd769"/>
          </g>
          <g id="Group_13897" data-name="Group 13897" transform="translate(332.5 209.583)">
            <path id="Path_90949" data-name="Path 90949" d="M1789.4,817.351l-3.726-1.3.289-2.226,3.765,1.167Z" transform="translate(-1785.674 -813.827)" fill="#e04c4c"/>
          </g>
          <g id="Group_13898" data-name="Group 13898" transform="translate(614.517 193.53)">
            <path id="Path_90950" data-name="Path 90950" d="M2977.06,766.76l1.555-4.629,1.631.72-1.463,4.7Z" transform="translate(-2977.06 -762.131)" fill="#73bf98"/>
          </g>
          <g id="Group_13899" data-name="Group 13899" transform="translate(339.421 165.881)">
            <path id="Path_90951" data-name="Path 90951" d="M1814.9,677.743l1.555-4.629,1.631.72-1.463,4.7Z" transform="translate(-1814.9 -673.114)" fill="#73bf98"/>
          </g>
          <g id="Group_13900" data-name="Group 13900" transform="translate(290.603 13.287)">
            <path id="Path_90952" data-name="Path 90952" d="M1608.68,182.492l1.457,4.755,1.67-.659-1.362-4.822Z" transform="translate(-1608.68 -181.766)" fill="#73bf98"/>
          </g>
          <g id="Group_13901" data-name="Group 13901" transform="translate(261.535 75.675)">
            <path id="Path_90953" data-name="Path 90953" d="M1489.73,382.647l-3.859.79.112,2.283,3.888-.654Z" transform="translate(-1485.871 -382.647)" fill="#73bf98"/>
          </g>
          <g id="Group_13902" data-name="Group 13902" transform="translate(311.039 18.458)">
            <path id="Path_90954" data-name="Path 90954" d="M1699.44,200.492l-3.59-2.074-.848,2.01,3.557,2.211Z" transform="translate(-1695.002 -198.417)" fill="#438acc"/>
          </g>
          <g id="Group_13903" data-name="Group 13903" transform="translate(390.816 55.792)">
            <path id="Path_90955" data-name="Path 90955" d="M2032.75,323.113l3.488-2.355-.657-2.13-3.548,2.236Z" transform="translate(-2032.033 -318.628)" fill="#438acc"/>
          </g>
          <g id="Group_13904" data-name="Group 13904" transform="translate(122.798 126.357)">
            <path id="Path_90956" data-name="Path 90956" d="M904.22,547.919l-3.59-2.076-.848,2.01,3.557,2.211Z" transform="translate(-899.782 -545.843)" fill="#e04c4c"/>
          </g>
          <g id="Group_13905" data-name="Group 13905" transform="translate(111.746 120.701)">
            <path id="Path_90957" data-name="Path 90957" d="M853.591,527.627l-.494,5.1,1.71.494.6-5.1Z" transform="translate(-853.097 -527.627)" fill="#e04c4c"/>
          </g>
          <g id="Group_13906" data-name="Group 13906" transform="translate(133.437 1.549)">
            <path id="Path_90958" data-name="Path 90958" d="M944.725,145.274l2.268,3.591,1.2-1.214-2.207-3.686Z" transform="translate(-944.725 -143.966)" fill="#ffd769"/>
          </g>
          <g id="Group_13907" data-name="Group 13907" transform="translate(173.961 172.068)">
            <path id="Path_90959" data-name="Path 90959" d="M1118.52,693.024l-2.615,3.159.986,1.5,2.691-3.083Z" transform="translate(-1115.905 -693.024)" fill="#ffd769"/>
          </g>
          <g id="Group_13908" data-name="Group 13908" transform="translate(68.994 151.315)">
            <path id="Path_90960" data-name="Path 90960" d="M676.035,626.206l-3.55.235.025,1.983,3.571-.114Z" transform="translate(-672.485 -626.206)" fill="#e04c4c"/>
          </g>
          <g id="Group_13909" data-name="Group 13909" transform="translate(504.256 25.947)">
            <path id="Path_90961" data-name="Path 90961" d="M2511.55,225.936l3.68-1.2-.256-2.194-3.717,1.065Z" transform="translate(-2511.257 -222.542)" fill="#ffd769"/>
          </g>
          <g id="Group_13910" data-name="Group 13910" transform="translate(614.993 142.009)">
            <path id="Path_90962" data-name="Path 90962" d="M2979.07,596.446l.584,4.914,1.689-.15-.484-4.95Z" transform="translate(-2979.07 -596.26)" fill="#ffd769"/>
          </g>
          <g id="Group_13911" data-name="Group 13911" transform="translate(532.416 34.887)">
            <path id="Path_90963" data-name="Path 90963" d="M2634.25,251.579l-3.785-.267-.243,2.2,3.792.4Z" transform="translate(-2630.222 -251.312)" fill="#e04c4c"/>
          </g>
          <g id="Group_13912" data-name="Group 13912" transform="translate(564.315 56.592)">
            <path id="Path_90964" data-name="Path 90964" d="M2765,321.559l.867,4.842,1.676-.31-.768-4.889Z" transform="translate(-2765 -321.202)" fill="#e04c4c"/>
          </g>
          <g id="Group_13913" data-name="Group 13913" transform="translate(743.124 123.624)">
            <path id="Path_90965" data-name="Path 90965" d="M3524.41,537.306l-3.786-.267-.243,2.2,3.791.405Z" transform="translate(-3520.381 -537.039)" fill="#e04c4c"/>
          </g>
          <g id="Group_13914" data-name="Group 13914" transform="translate(598.687 100.007)">
            <path id="Path_90966" data-name="Path 90966" d="M2910.49,460.992l-.29,4.959,1.669.369.4-4.964Z" transform="translate(-2910.2 -460.992)" fill="#e04c4c"/>
          </g>
          <g id="Group_13915" data-name="Group 13915" transform="translate(467.535 171.137)">
            <path id="Path_90967" data-name="Path 90967" d="M2356.41,690.025l-.29,4.959,1.669.369.394-4.964Z" transform="translate(-2356.12 -690.025)" fill="#e04c4c"/>
          </g>
          <g id="Group_13916" data-name="Group 13916" transform="translate(685.642 120.053)">
            <path id="Path_90968" data-name="Path 90968" d="M3277.83,525.541l-.29,4.959,1.669.369.4-4.964Z" transform="translate(-3277.54 -525.541)" fill="#e04c4c"/>
          </g>
          <g id="Group_13917" data-name="Group 13917" transform="translate(459.675 214.259)">
            <path id="Path_90969" data-name="Path 90969" d="M2326.97,829.14l-3.786-.267-.243,2.2,3.792.4Z" transform="translate(-2322.941 -828.873)" fill="#73bf98"/>
          </g>
          <g id="Group_13918" data-name="Group 13918" transform="translate(548.31 3.183)">
            <path id="Path_90970" data-name="Path 90970" d="M2700.63,149.229l-3.26,2.539.729,2,3.323-2.43Z" transform="translate(-2697.37 -149.229)" fill="#73bf98"/>
          </g>
          <g id="Group_13919" data-name="Group 13919" transform="translate(597.693 69.54)">
            <path id="Path_90971" data-name="Path 90971" d="M2909.26,362.9l-3.26,2.55.729,2,3.323-2.43Z" transform="translate(-2906 -362.9)" fill="#73bf98"/>
          </g>
          <g id="Group_13920" data-name="Group 13920" transform="translate(524.4 90.369)">
            <path id="Path_90972" data-name="Path 90972" d="M2599.62,434.414l-1.687-4.455-1.578.8,1.6,4.529Z" transform="translate(-2596.355 -429.959)" fill="#73bf98"/>
          </g>
          <g id="Group_13921" data-name="Group 13921" transform="translate(582.353 16.013)">
            <path id="Path_90973" data-name="Path 90973" d="M2841.2,192.2l2.882,3.231,1.211-1.551-2.823-3.345Z" transform="translate(-2841.2 -190.537)" fill="#438acc"/>
          </g>
          <g id="Group_13922" data-name="Group 13922" transform="translate(615.652 102.112)">
            <path id="Path_90974" data-name="Path 90974" d="M2981.87,469.437l2.882,3.231,1.211-1.551-2.823-3.345Z" transform="translate(-2981.87 -467.772)" fill="#438acc"/>
          </g>
          <g id="Group_13923" data-name="Group 13923" transform="translate(537.803 98.088)">
            <path id="Path_90975" data-name="Path 90975" d="M2656.51,454.813l-3.523,1.838.48,2.13,3.572-1.716Z" transform="translate(-2652.987 -454.813)" fill="#438acc"/>
          </g>
          <g id="Group_13924" data-name="Group 13924" transform="translate(624.915 13.074)">
            <path id="Path_90976" data-name="Path 90976" d="M3022.77,186.335l.178-4.968-1.677-.3-.283,4.977Z" transform="translate(-3020.988 -181.067)" fill="#ffd769"/>
          </g>
          <g id="Group_13925" data-name="Group 13925" transform="translate(482.175 41.632)">
            <path id="Path_90977" data-name="Path 90977" d="M2419.07,273.03l2.7,3.332-1.02,1.708-2.775-3.245Z" transform="translate(-2417.975 -273.03)" fill="#73bf98"/>
          </g>
          <g id="Group_13926" data-name="Group 13926" transform="translate(462.911 136.165)">
            <path id="Path_90978" data-name="Path 90978" d="M2340.73,579.227l-3.066,2.728-1.048-1.678,3.017-2.85Z" transform="translate(-2336.616 -577.427)" fill="#ffd769"/>
          </g>
          <g id="Group_13927" data-name="Group 13927" transform="translate(479.831 93.687)">
            <path id="Path_90979" data-name="Path 90979" d="M2408.32,440.644l3.625,1-.192,2.156-3.657-.87Z" transform="translate(-2408.096 -440.644)" fill="#438acc"/>
          </g>
          <g id="Group_13928" data-name="Group 13928" transform="translate(365.874 44.141)">
            <path id="Path_90980" data-name="Path 90980" d="M1926.93,281.1l3.6,1.159-.248,2.145-3.633-1.034Z" transform="translate(-1926.649 -281.1)" fill="#e04c4c"/>
          </g>
          <g id="Group_13929" data-name="Group 13929" transform="translate(441.763 38.63)">
            <path id="Path_90981" data-name="Path 90981" d="M2247.37,263.362l3.672.641-.069,2.168-3.7-.512Z" transform="translate(-2247.273 -263.362)" fill="#ffd769"/>
          </g>
          <g id="Group_13930" data-name="Group 13930" transform="translate(373.156 12.781)">
            <path id="Path_90982" data-name="Path 90982" d="M1959.17,180.137l.117,4.857-1.642.264-.219-4.867Z" transform="translate(-1957.426 -180.137)" fill="#ffd769"/>
          </g>
          <g id="Group_13931" data-name="Group 13931" transform="translate(466.259 9.563)">
            <path id="Path_90983" data-name="Path 90983" d="M2350.76,171.723l3.39-1.959.8,1.9-3.359,2.088Z" transform="translate(-2350.76 -169.764)" fill="#438acc"/>
          </g>
          <g id="Group_13932" data-name="Group 13932" transform="translate(421.879 12.759)">
            <path id="Path_90984" data-name="Path 90984" d="M2164.37,180.06l2.649,3.4-1.044,1.683-2.728-3.312Z" transform="translate(-2163.247 -180.06)" fill="#e04c4c"/>
          </g>
          <g id="Group_13933" data-name="Group 13933" transform="translate(710.127 30.603)">
            <path id="Path_90985" data-name="Path 90985" d="M3380.98,240.237l3.2-2.724,1.052,1.757-3.151,2.85Z" transform="translate(-3380.98 -237.513)" fill="#438acc"/>
          </g>
          <g id="Group_13934" data-name="Group 13934" transform="translate(676.41 105.768)">
            <path id="Path_90986" data-name="Path 90986" d="M3238.54,481.358l3.554-1.812.758,2-3.527,1.95Z" transform="translate(-3238.54 -479.546)" fill="#438acc"/>
          </g>
          <g id="Group_13935" data-name="Group 13935" transform="translate(769.305 142.263)">
            <path id="Path_90987" data-name="Path 90987" d="M3630.98,599.778l3.2-2.724,1.052,1.756-3.151,2.85Z" transform="translate(-3630.98 -597.054)" fill="#438acc"/>
          </g>
          <g id="Group_13936" data-name="Group 13936" transform="translate(682.043 176.65)">
            <path id="Path_90988" data-name="Path 90988" d="M3262.34,710.5l3.2-2.724,1.052,1.757-3.151,2.85Z" transform="translate(-3262.34 -707.778)" fill="#73bf98"/>
          </g>
          <g id="Group_13937" data-name="Group 13937" transform="translate(734.713 38.658)">
            <path id="Path_90989" data-name="Path 90989" d="M3488.69,265.691l-3.609.245-.228-2.1,3.615-.375Z" transform="translate(-3484.853 -263.461)" fill="#ffd769"/>
          </g>
          <g id="Group_13938" data-name="Group 13938" transform="translate(809.493 13.512)">
            <path id="Path_90990" data-name="Path 90990" d="M3800.96,187.513l-.2-4.736,1.6-.3.294,4.743Z" transform="translate(-3800.765 -182.477)" fill="#ffd769"/>
          </g>
          <g id="Group_13939" data-name="Group 13939" transform="translate(771.435 23.643)">
            <path id="Path_90991" data-name="Path 90991" d="M3641.72,215.106l2.111,5.1-1.645,1.437-2.224-5.043Z" transform="translate(-3639.962 -215.106)" fill="#73bf98"/>
          </g>
          <g id="Group_13940" data-name="Group 13940" transform="translate(738.805 11.056)">
            <path id="Path_90992" data-name="Path 90992" d="M3502.12,177.251l4.337.738.425-2.5-4.335-.9Z" transform="translate(-3502.12 -174.589)" fill="#e04c4c"/>
          </g>
          <g id="Group_13941" data-name="Group 13941" transform="translate(689.948 9.103)">
            <path id="Path_90993" data-name="Path 90993" d="M3295.72,169.6l2.268,3.591,1.2-1.214-2.207-3.685Z" transform="translate(-3295.72 -168.293)" fill="#73bf98"/>
          </g>
          <g id="Group_13942" data-name="Group 13942" transform="translate(819.7 151.674)">
            <path id="Path_90994" data-name="Path 90994" d="M3843.88,628.665l2.268,3.591,1.2-1.214-2.207-3.685Z" transform="translate(-3843.88 -627.357)" fill="#ffd769"/>
          </g>
          <g id="Group_13943" data-name="Group 13943" transform="translate(737.816 147.641)">
            <path id="Path_90995" data-name="Path 90995" d="M3499.85,614.369l-1.882,3.957,1.254,1.106,1.97-3.91Z" transform="translate(-3497.968 -614.369)" fill="#ffd769"/>
          </g>
          <g id="Group_13944" data-name="Group 13944" transform="translate(672.565 51.644)">
            <path id="Path_90996" data-name="Path 90996" d="M3224.17,305.269l-1.882,3.957,1.255,1.105,1.969-3.91Z" transform="translate(-3222.288 -305.269)" fill="#ffd769"/>
          </g>
        </g>
        <g id="Group_13946" data-name="Group 13946" transform="translate(173.78 -79.5)" opacity="0.152">
          <ellipse id="Ellipse_1657" data-name="Ellipse 1657" cx="50.305" cy="46" rx="50.305" ry="46" transform="translate(0 139.5)" fill="#e3e5ff"/>
          <g id="Ellipse_1658" data-name="Ellipse 1658" transform="translate(392.152 11)" fill="none" stroke="#e3e5ff" stroke-width="16">
            <ellipse cx="48.588" cy="48" rx="48.588" ry="48" stroke="none"/>
            <ellipse cx="48.588" cy="48" rx="40.588" ry="40" fill="none"/>
          </g>
        </g>
      </g>
    </g>
  </g>
</svg>
