<svg xmlns="http://www.w3.org/2000/svg" xmlns:xlink="http://www.w3.org/1999/xlink" width="415" height="136" viewBox="0 0 415 136">
  <defs>
    <clipPath id="clip-path">
      <rect id="Rectangle_4227" data-name="Rectangle 4227" width="415" height="136" transform="translate(-43)" fill="#38539a"/>
    </clipPath>
    <clipPath id="clip-path-2">
      <path id="Clip_215" data-name="Clip 215" d="M0,0H37.919V8.248H0Z" fill="none"/>
    </clipPath>
    <clipPath id="clip-path-3">
      <path id="Clip_32" data-name="Clip 32" d="M0,0H5.715V5.731H0Z" fill="none"/>
    </clipPath>
    <clipPath id="clip-path-4">
      <path id="Clip_2" data-name="Clip 2" d="M0,0H62.76V62.933H0Z" fill="none"/>
    </clipPath>
    <clipPath id="clip-path-5">
      <path id="Clip_5" data-name="Clip 5" d="M0,0H48.6V4.015H0Z" fill="none"/>
    </clipPath>
    <clipPath id="clip-path-6">
      <path id="Clip_51" data-name="Clip 51" d="M19.923,0H0V16.171H19.923Z" fill="none"/>
    </clipPath>
  </defs>
  <g id="Group_8361-1" data-name="Group 8361-1" transform="translate(19 -728)">
    <rect id="Rectangle_4226" data-name="Rectangle 4226" width="415" height="136" transform="translate(-19 728)" fill="#38539a"/>
    <g id="Mask_Group_135" data-name="Mask Group 135" transform="translate(24 728)" opacity="0.197" clip-path="url(#clip-path)">
      <g id="Group_2" data-name="Group 2" transform="translate(271.077 6)" opacity="0.623">
        <path id="Fill_4" data-name="Fill 4" d="M25.545,4.212a2.071,2.071,0,0,0-1.539.669,3.819,3.819,0,0,0-3.589-2.363,4.009,4.009,0,0,0-1.136.163A4.107,4.107,0,0,0,15.359,0a4.156,4.156,0,0,0-3.681,2.131,4.466,4.466,0,0,0-1.912-.425A4.409,4.409,0,0,0,6.934,2.719,3.777,3.777,0,0,0,3.729,1,3.624,3.624,0,0,0,0,4.51,3.317,3.317,0,0,0,.368,6.029h27.2a1.971,1.971,0,0,0-2.019-1.817" transform="translate(81.83 41.343)" fill="#ededed"/>
        <g id="bud2_3" data-name="bud2+3" transform="translate(15.034 16.566)">
          <g id="Group_3" data-name="Group 3" transform="translate(0 39.256)">
            <path id="Fill_1" data-name="Fill 1" d="M0,80.178H28.783V0H0Z" transform="translate(0.106)" fill="#ededed"/>
            <path id="Fill_2" data-name="Fill 2" d="M0,80.178H9.073V0H0Z" transform="translate(0.106)" fill="#fafafa"/>
            <g id="Group_31" data-name="Group 31" transform="translate(0 4.357)">
              <path id="Fill_3" data-name="Fill 3" d="M0,1.5H28.921V.838H0Z" transform="translate(0 -0.838)" fill="#fff"/>
              <path id="Fill_5" data-name="Fill 5" d="M0,1.506H28.921V.837H0Z" transform="translate(0 4.443)" fill="#fff"/>
              <path id="Fill_7" data-name="Fill 7" d="M0,1.506H28.921V.837H0Z" transform="translate(0 9.722)" fill="#fff"/>
              <path id="Fill_9" data-name="Fill 9" d="M0,1.5H28.921V.838H0Z" transform="translate(0 15.003)" fill="#fff"/>
              <path id="Fill_11" data-name="Fill 11" d="M0,1.506H28.921V.837H0Z" transform="translate(0 20.284)" fill="#fff"/>
              <path id="Fill_13" data-name="Fill 13" d="M0,1.506H28.921V.837H0Z" transform="translate(0 25.564)" fill="#fff"/>
              <path id="Fill_15" data-name="Fill 15" d="M0,1.506H28.921V.837H0Z" transform="translate(0 30.845)" fill="#fff"/>
              <path id="Fill_17" data-name="Fill 17" d="M0,1.506H28.921V.837H0Z" transform="translate(0 36.125)" fill="#fff"/>
              <path id="Fill_19" data-name="Fill 19" d="M0,1.506H28.921V.837H0Z" transform="translate(0 41.405)" fill="#fff"/>
              <path id="Fill_21" data-name="Fill 21" d="M0,1.5H28.921V.838H0Z" transform="translate(0 46.686)" fill="#fff"/>
              <path id="Fill_23" data-name="Fill 23" d="M0,1.506H28.921V.837H0Z" transform="translate(0 51.968)" fill="#fff"/>
              <path id="Fill_25" data-name="Fill 25" d="M0,1.506H28.921V.837H0Z" transform="translate(0 57.248)" fill="#fff"/>
              <path id="Fill_27" data-name="Fill 27" d="M0,1.506H28.921V.837H0Z" transform="translate(0 62.528)" fill="#fff"/>
              <path id="Fill_29" data-name="Fill 29" d="M0,1.506H28.921V.837H0Z" transform="translate(0 67.809)" fill="#fff"/>
            </g>
          </g>
          <path id="Fill_32" data-name="Fill 32" d="M0,111.112H52.872V0H0Z" transform="translate(20.774 8.322)" fill="#ededed"/>
          <path id="Fill_33" data-name="Fill 33" d="M0,111.112H16.581V0H0Z" transform="translate(20.774 8.322)" fill="#fafafa"/>
          <g id="Group_219" data-name="Group 219" transform="translate(24.252 0)">
            <g id="Group_45" data-name="Group 45" transform="translate(0 13.536)">
              <path id="Fill_34" data-name="Fill 34" d="M0,3.184H2.428V0H0Z" transform="translate(43.529 0)" fill="#fff"/>
              <path id="Fill_36" data-name="Fill 36" d="M0,3.184H2.428V0H0Z" transform="translate(39.103 0)" fill="#fff"/>
              <path id="Fill_37" data-name="Fill 37" d="M0,3.184H2.428V0H0Z" transform="translate(34.675 0)" fill="#fff"/>
              <path id="Fill_38" data-name="Fill 38" d="M0,3.184H2.428V0H0Z" transform="translate(30.248 0)" fill="#fff"/>
              <path id="Fill_39" data-name="Fill 39" d="M0,3.184H2.428V0H0Z" transform="translate(25.822 0)" fill="#fff"/>
              <path id="Fill_40" data-name="Fill 40" d="M0,3.184H2.428V0H0Z" transform="translate(21.396 0)" fill="#fff"/>
              <path id="Fill_41" data-name="Fill 41" d="M0,3.184H2.43V0H0Z" transform="translate(16.968 0)" fill="#fff"/>
              <path id="Fill_42" data-name="Fill 42" d="M0,3.184H2.428V0H0Z" transform="translate(8.852 0)" fill="#fff"/>
              <path id="Fill_43" data-name="Fill 43" d="M0,3.184H2.428V0H0Z" transform="translate(4.426 0)" fill="#fff"/>
              <path id="Fill_44" data-name="Fill 44" d="M0,3.184H2.428V0H0Z" transform="translate(0 0)" fill="#fff"/>
            </g>
            <g id="Group_57" data-name="Group 57" transform="translate(0 20.234)">
              <path id="Fill_46" data-name="Fill 46" d="M0,3.184H2.428V0H0Z" transform="translate(43.529 0)" fill="#fff"/>
              <path id="Fill_48" data-name="Fill 48" d="M0,3.184H2.428V0H0Z" transform="translate(39.103 0)" fill="#fff"/>
              <path id="Fill_49" data-name="Fill 49" d="M0,3.184H2.428V0H0Z" transform="translate(34.675 0)" fill="#fff"/>
              <path id="Fill_50" data-name="Fill 50" d="M0,3.184H2.428V0H0Z" transform="translate(30.248 0)" fill="#fff"/>
              <path id="Fill_51" data-name="Fill 51" d="M0,3.184H2.428V0H0Z" transform="translate(25.822 0)" fill="#fff"/>
              <path id="Fill_52" data-name="Fill 52" d="M0,3.184H2.428V0H0Z" transform="translate(21.396 0)" fill="#fff"/>
              <path id="Fill_53" data-name="Fill 53" d="M0,3.184H2.43V0H0Z" transform="translate(16.968 0)" fill="#fff"/>
              <path id="Fill_54" data-name="Fill 54" d="M0,3.184H2.428V0H0Z" transform="translate(8.852 0)" fill="#fff"/>
              <path id="Fill_55" data-name="Fill 55" d="M0,3.184H2.428V0H0Z" transform="translate(4.426 0)" fill="#fff"/>
              <path id="Fill_56" data-name="Fill 56" d="M0,3.184H2.428V0H0Z" transform="translate(0 0)" fill="#fff"/>
            </g>
            <g id="Group_69" data-name="Group 69" transform="translate(0 26.934)">
              <path id="Fill_58" data-name="Fill 58" d="M0,3.184H2.428V0H0Z" transform="translate(43.529 0)" fill="#fff"/>
              <path id="Fill_60" data-name="Fill 60" d="M0,3.184H2.428V0H0Z" transform="translate(39.103 0)" fill="#fff"/>
              <path id="Fill_61" data-name="Fill 61" d="M0,3.184H2.428V0H0Z" transform="translate(34.675 0)" fill="#fff"/>
              <path id="Fill_62" data-name="Fill 62" d="M0,3.184H2.428V0H0Z" transform="translate(30.248 0)" fill="#fff"/>
              <path id="Fill_63" data-name="Fill 63" d="M0,3.184H2.428V0H0Z" transform="translate(25.822 0)" fill="#fff"/>
              <path id="Fill_64" data-name="Fill 64" d="M0,3.184H2.428V0H0Z" transform="translate(21.396 0)" fill="#fff"/>
              <path id="Fill_65" data-name="Fill 65" d="M0,3.184H2.43V0H0Z" transform="translate(16.968 0)" fill="#fff"/>
              <path id="Fill_66" data-name="Fill 66" d="M0,3.184H2.428V0H0Z" transform="translate(8.852 0)" fill="#fff"/>
              <path id="Fill_67" data-name="Fill 67" d="M0,3.184H2.428V0H0Z" transform="translate(4.426 0)" fill="#fff"/>
              <path id="Fill_68" data-name="Fill 68" d="M0,3.184H2.428V0H0Z" transform="translate(0 0)" fill="#fff"/>
            </g>
            <g id="Group_81" data-name="Group 81" transform="translate(0 33.637)">
              <path id="Fill_70" data-name="Fill 70" d="M0,3.182H2.428V0H0Z" transform="translate(43.529 0)" fill="#fff"/>
              <path id="Fill_72" data-name="Fill 72" d="M0,3.182H2.428V0H0Z" transform="translate(39.103 0)" fill="#fff"/>
              <path id="Fill_73" data-name="Fill 73" d="M0,3.182H2.428V0H0Z" transform="translate(34.675 0)" fill="#fff"/>
              <path id="Fill_74" data-name="Fill 74" d="M0,3.182H2.428V0H0Z" transform="translate(30.248 0)" fill="#fff"/>
              <path id="Fill_75" data-name="Fill 75" d="M0,3.182H2.428V0H0Z" transform="translate(25.822 0)" fill="#fff"/>
              <path id="Fill_76" data-name="Fill 76" d="M0,3.182H2.428V0H0Z" transform="translate(21.396 0)" fill="#fff"/>
              <path id="Fill_77" data-name="Fill 77" d="M0,3.182H2.43V0H0Z" transform="translate(16.968 0)" fill="#fff"/>
              <path id="Fill_78" data-name="Fill 78" d="M0,3.182H2.428V0H0Z" transform="translate(8.852 0)" fill="#fff"/>
              <path id="Fill_79" data-name="Fill 79" d="M0,3.182H2.428V0H0Z" transform="translate(4.426 0)" fill="#fff"/>
              <path id="Fill_80" data-name="Fill 80" d="M0,3.182H2.428V0H0Z" transform="translate(0 0)" fill="#fff"/>
            </g>
            <g id="Group_93" data-name="Group 93" transform="translate(0 40.335)">
              <path id="Fill_82" data-name="Fill 82" d="M0,3.184H2.428V0H0Z" transform="translate(43.529 0)" fill="#fff"/>
              <path id="Fill_84" data-name="Fill 84" d="M0,3.184H2.428V0H0Z" transform="translate(39.103 0)" fill="#fff"/>
              <path id="Fill_85" data-name="Fill 85" d="M0,3.184H2.428V0H0Z" transform="translate(34.675 0)" fill="#fff"/>
              <path id="Fill_86" data-name="Fill 86" d="M0,3.184H2.428V0H0Z" transform="translate(30.248 0)" fill="#fff"/>
              <path id="Fill_87" data-name="Fill 87" d="M0,3.184H2.428V0H0Z" transform="translate(25.822 0)" fill="#fff"/>
              <path id="Fill_88" data-name="Fill 88" d="M0,3.184H2.428V0H0Z" transform="translate(21.396 0)" fill="#fff"/>
              <path id="Fill_89" data-name="Fill 89" d="M0,3.184H2.43V0H0Z" transform="translate(16.968 0)" fill="#fff"/>
              <path id="Fill_90" data-name="Fill 90" d="M0,3.184H2.428V0H0Z" transform="translate(8.852 0)" fill="#fff"/>
              <path id="Fill_91" data-name="Fill 91" d="M0,3.184H2.428V0H0Z" transform="translate(4.426 0)" fill="#fff"/>
              <path id="Fill_92" data-name="Fill 92" d="M0,3.184H2.428V0H0Z" transform="translate(0 0)" fill="#fff"/>
            </g>
            <g id="Group_105" data-name="Group 105" transform="translate(0 47.035)">
              <path id="Fill_94" data-name="Fill 94" d="M0,3.184H2.428V0H0Z" transform="translate(43.529 0)" fill="#fff"/>
              <path id="Fill_96" data-name="Fill 96" d="M0,3.184H2.428V0H0Z" transform="translate(39.103 0)" fill="#fff"/>
              <path id="Fill_97" data-name="Fill 97" d="M0,3.184H2.428V0H0Z" transform="translate(34.675 0)" fill="#fff"/>
              <path id="Fill_98" data-name="Fill 98" d="M0,3.184H2.428V0H0Z" transform="translate(30.248 0)" fill="#fff"/>
              <path id="Fill_99" data-name="Fill 99" d="M0,3.184H2.428V0H0Z" transform="translate(25.822 0)" fill="#fff"/>
              <path id="Fill_100" data-name="Fill 100" d="M0,3.184H2.428V0H0Z" transform="translate(21.396 0)" fill="#fff"/>
              <path id="Fill_101" data-name="Fill 101" d="M0,3.184H2.43V0H0Z" transform="translate(16.968 0)" fill="#fff"/>
              <path id="Fill_102" data-name="Fill 102" d="M0,3.184H2.428V0H0Z" transform="translate(8.852 0)" fill="#fff"/>
              <path id="Fill_103" data-name="Fill 103" d="M0,3.184H2.428V0H0Z" transform="translate(4.426 0)" fill="#fff"/>
              <path id="Fill_104" data-name="Fill 104" d="M0,3.184H2.428V0H0Z" transform="translate(0 0)" fill="#fff"/>
            </g>
            <g id="Group_117" data-name="Group 117" transform="translate(0 53.733)">
              <path id="Fill_106" data-name="Fill 106" d="M0,3.184H2.428V0H0Z" transform="translate(43.529 0)" fill="#fff"/>
              <path id="Fill_108" data-name="Fill 108" d="M0,3.184H2.428V0H0Z" transform="translate(39.103 0)" fill="#fff"/>
              <path id="Fill_109" data-name="Fill 109" d="M0,3.184H2.428V0H0Z" transform="translate(34.675 0)" fill="#fff"/>
              <path id="Fill_110" data-name="Fill 110" d="M0,3.184H2.428V0H0Z" transform="translate(30.248 0)" fill="#fff"/>
              <path id="Fill_111" data-name="Fill 111" d="M0,3.184H2.428V0H0Z" transform="translate(25.822 0)" fill="#fff"/>
              <path id="Fill_112" data-name="Fill 112" d="M0,3.184H2.428V0H0Z" transform="translate(21.396 0)" fill="#fff"/>
              <path id="Fill_113" data-name="Fill 113" d="M0,3.184H2.43V0H0Z" transform="translate(16.968 0)" fill="#fff"/>
              <path id="Fill_114" data-name="Fill 114" d="M0,3.184H2.428V0H0Z" transform="translate(8.852 0)" fill="#fff"/>
              <path id="Fill_115" data-name="Fill 115" d="M0,3.184H2.428V0H0Z" transform="translate(4.426 0)" fill="#fff"/>
              <path id="Fill_116" data-name="Fill 116" d="M0,3.184H2.428V0H0Z" transform="translate(0 0)" fill="#fff"/>
            </g>
            <g id="Group_129" data-name="Group 129" transform="translate(0 60.434)">
              <path id="Fill_118" data-name="Fill 118" d="M0,3.184H2.428V0H0Z" transform="translate(43.529 0)" fill="#fff"/>
              <path id="Fill_120" data-name="Fill 120" d="M0,3.184H2.428V0H0Z" transform="translate(39.103 0)" fill="#fff"/>
              <path id="Fill_121" data-name="Fill 121" d="M0,3.184H2.428V0H0Z" transform="translate(34.675 0)" fill="#fff"/>
              <path id="Fill_122" data-name="Fill 122" d="M0,3.184H2.428V0H0Z" transform="translate(30.248 0)" fill="#fff"/>
              <path id="Fill_123" data-name="Fill 123" d="M0,3.184H2.428V0H0Z" transform="translate(25.822 0)" fill="#fff"/>
              <path id="Fill_124" data-name="Fill 124" d="M0,3.184H2.428V0H0Z" transform="translate(21.396 0)" fill="#fff"/>
              <path id="Fill_125" data-name="Fill 125" d="M0,3.184H2.43V0H0Z" transform="translate(16.968 0)" fill="#fff"/>
              <path id="Fill_126" data-name="Fill 126" d="M0,3.184H2.428V0H0Z" transform="translate(8.852 0)" fill="#fff"/>
              <path id="Fill_127" data-name="Fill 127" d="M0,3.184H2.428V0H0Z" transform="translate(4.426 0)" fill="#fff"/>
              <path id="Fill_128" data-name="Fill 128" d="M0,3.184H2.428V0H0Z" transform="translate(0 0)" fill="#fff"/>
            </g>
            <g id="Group_141" data-name="Group 141" transform="translate(0 67.132)">
              <path id="Fill_130" data-name="Fill 130" d="M0,3.184H2.428V0H0Z" transform="translate(43.529 0)" fill="#fff"/>
              <path id="Fill_132" data-name="Fill 132" d="M0,3.184H2.428V0H0Z" transform="translate(39.103 0)" fill="#fff"/>
              <path id="Fill_133" data-name="Fill 133" d="M0,3.184H2.428V0H0Z" transform="translate(34.675 0)" fill="#fff"/>
              <path id="Fill_134" data-name="Fill 134" d="M0,3.184H2.428V0H0Z" transform="translate(30.248 0)" fill="#fff"/>
              <path id="Fill_135" data-name="Fill 135" d="M0,3.184H2.428V0H0Z" transform="translate(25.822 0)" fill="#fff"/>
              <path id="Fill_136" data-name="Fill 136" d="M0,3.184H2.428V0H0Z" transform="translate(21.396 0)" fill="#fff"/>
              <path id="Fill_137" data-name="Fill 137" d="M0,3.184H2.43V0H0Z" transform="translate(16.968 0)" fill="#fff"/>
              <path id="Fill_138" data-name="Fill 138" d="M0,3.184H2.428V0H0Z" transform="translate(8.852 0)" fill="#fff"/>
              <path id="Fill_139" data-name="Fill 139" d="M0,3.184H2.428V0H0Z" transform="translate(4.426 0)" fill="#fff"/>
              <path id="Fill_140" data-name="Fill 140" d="M0,3.184H2.428V0H0Z" transform="translate(0 0)" fill="#fff"/>
            </g>
            <g id="Group_153" data-name="Group 153" transform="translate(0 73.832)">
              <path id="Fill_142" data-name="Fill 142" d="M0,3.184H2.428V0H0Z" transform="translate(43.529 0)" fill="#fff"/>
              <path id="Fill_144" data-name="Fill 144" d="M0,3.184H2.428V0H0Z" transform="translate(39.103 0)" fill="#fff"/>
              <path id="Fill_145" data-name="Fill 145" d="M0,3.184H2.428V0H0Z" transform="translate(34.675 0)" fill="#fff"/>
              <path id="Fill_146" data-name="Fill 146" d="M0,3.184H2.428V0H0Z" transform="translate(30.248 0)" fill="#fff"/>
              <path id="Fill_147" data-name="Fill 147" d="M0,3.184H2.428V0H0Z" transform="translate(25.822 0)" fill="#fff"/>
              <path id="Fill_148" data-name="Fill 148" d="M0,3.184H2.428V0H0Z" transform="translate(21.396 0)" fill="#fff"/>
              <path id="Fill_149" data-name="Fill 149" d="M0,3.184H2.43V0H0Z" transform="translate(16.968 0)" fill="#fff"/>
              <path id="Fill_150" data-name="Fill 150" d="M0,3.184H2.428V0H0Z" transform="translate(8.852 0)" fill="#fff"/>
              <path id="Fill_151" data-name="Fill 151" d="M0,3.184H2.428V0H0Z" transform="translate(4.426 0)" fill="#fff"/>
              <path id="Fill_152" data-name="Fill 152" d="M0,3.184H2.428V0H0Z" transform="translate(0 0)" fill="#fff"/>
            </g>
            <g id="Group_165" data-name="Group 165" transform="translate(0 80.533)">
              <path id="Fill_154" data-name="Fill 154" d="M0,3.184H2.428V0H0Z" transform="translate(43.529 0)" fill="#fff"/>
              <path id="Fill_156" data-name="Fill 156" d="M0,3.184H2.428V0H0Z" transform="translate(39.103 0)" fill="#fff"/>
              <path id="Fill_157" data-name="Fill 157" d="M0,3.184H2.428V0H0Z" transform="translate(34.675 0)" fill="#fff"/>
              <path id="Fill_158" data-name="Fill 158" d="M0,3.184H2.428V0H0Z" transform="translate(30.248 0)" fill="#fff"/>
              <path id="Fill_159" data-name="Fill 159" d="M0,3.184H2.428V0H0Z" transform="translate(25.822 0)" fill="#fff"/>
              <path id="Fill_160" data-name="Fill 160" d="M0,3.184H2.428V0H0Z" transform="translate(21.396 0)" fill="#fff"/>
              <path id="Fill_161" data-name="Fill 161" d="M0,3.184H2.43V0H0Z" transform="translate(16.968 0)" fill="#fff"/>
              <path id="Fill_162" data-name="Fill 162" d="M0,3.184H2.428V0H0Z" transform="translate(8.852 0)" fill="#fff"/>
              <path id="Fill_163" data-name="Fill 163" d="M0,3.184H2.428V0H0Z" transform="translate(4.426 0)" fill="#fff"/>
              <path id="Fill_164" data-name="Fill 164" d="M0,3.184H2.428V0H0Z" transform="translate(0 0)" fill="#fff"/>
            </g>
            <g id="Group_177" data-name="Group 177" transform="translate(0 87.233)">
              <path id="Fill_166" data-name="Fill 166" d="M0,3.184H2.428V0H0Z" transform="translate(43.529 0)" fill="#fff"/>
              <path id="Fill_168" data-name="Fill 168" d="M0,3.184H2.428V0H0Z" transform="translate(39.103 0)" fill="#fff"/>
              <path id="Fill_169" data-name="Fill 169" d="M0,3.184H2.428V0H0Z" transform="translate(34.675 0)" fill="#fff"/>
              <path id="Fill_170" data-name="Fill 170" d="M0,3.184H2.428V0H0Z" transform="translate(30.248 0)" fill="#fff"/>
              <path id="Fill_171" data-name="Fill 171" d="M0,3.184H2.428V0H0Z" transform="translate(25.822 0)" fill="#fff"/>
              <path id="Fill_172" data-name="Fill 172" d="M0,3.184H2.428V0H0Z" transform="translate(21.396 0)" fill="#fff"/>
              <path id="Fill_173" data-name="Fill 173" d="M0,3.184H2.43V0H0Z" transform="translate(16.968 0)" fill="#fff"/>
              <path id="Fill_174" data-name="Fill 174" d="M0,3.184H2.428V0H0Z" transform="translate(8.852 0)" fill="#fff"/>
              <path id="Fill_175" data-name="Fill 175" d="M0,3.184H2.428V0H0Z" transform="translate(4.426 0)" fill="#fff"/>
              <path id="Fill_176" data-name="Fill 176" d="M0,3.184H2.428V0H0Z" transform="translate(0 0)" fill="#fff"/>
            </g>
            <g id="Group_189" data-name="Group 189" transform="translate(0 93.933)">
              <path id="Fill_178" data-name="Fill 178" d="M0,3.184H2.428V0H0Z" transform="translate(43.529 0)" fill="#fff"/>
              <path id="Fill_180" data-name="Fill 180" d="M0,3.184H2.428V0H0Z" transform="translate(39.103 0)" fill="#fff"/>
              <path id="Fill_181" data-name="Fill 181" d="M0,3.184H2.428V0H0Z" transform="translate(34.675 0)" fill="#fff"/>
              <path id="Fill_182" data-name="Fill 182" d="M0,3.184H2.428V0H0Z" transform="translate(30.248 0)" fill="#fff"/>
              <path id="Fill_183" data-name="Fill 183" d="M0,3.184H2.428V0H0Z" transform="translate(25.822 0)" fill="#fff"/>
              <path id="Fill_184" data-name="Fill 184" d="M0,3.184H2.428V0H0Z" transform="translate(21.396 0)" fill="#fff"/>
              <path id="Fill_185" data-name="Fill 185" d="M0,3.184H2.43V0H0Z" transform="translate(16.968 0)" fill="#fff"/>
              <path id="Fill_186" data-name="Fill 186" d="M0,3.184H2.428V0H0Z" transform="translate(8.852 0)" fill="#fff"/>
              <path id="Fill_187" data-name="Fill 187" d="M0,3.184H2.428V0H0Z" transform="translate(4.426 0)" fill="#fff"/>
              <path id="Fill_188" data-name="Fill 188" d="M0,3.184H2.428V0H0Z" transform="translate(0 0)" fill="#fff"/>
            </g>
            <g id="Group_201" data-name="Group 201" transform="translate(0 100.633)">
              <path id="Fill_190" data-name="Fill 190" d="M0,3.182H2.428V0H0Z" transform="translate(43.529 0)" fill="#fff"/>
              <path id="Fill_192" data-name="Fill 192" d="M0,3.182H2.428V0H0Z" transform="translate(39.103 0)" fill="#fff"/>
              <path id="Fill_193" data-name="Fill 193" d="M0,3.182H2.428V0H0Z" transform="translate(34.675 0)" fill="#fff"/>
              <path id="Fill_194" data-name="Fill 194" d="M0,3.182H2.428V0H0Z" transform="translate(30.248 0)" fill="#fff"/>
              <path id="Fill_195" data-name="Fill 195" d="M0,3.182H2.428V0H0Z" transform="translate(25.822 0)" fill="#fff"/>
              <path id="Fill_196" data-name="Fill 196" d="M0,3.182H2.428V0H0Z" transform="translate(21.396 0)" fill="#fff"/>
              <path id="Fill_197" data-name="Fill 197" d="M0,3.182H2.43V0H0Z" transform="translate(16.968 0)" fill="#fff"/>
              <path id="Fill_198" data-name="Fill 198" d="M0,3.182H2.428V0H0Z" transform="translate(8.852 0)" fill="#fff"/>
              <path id="Fill_199" data-name="Fill 199" d="M0,3.182H2.428V0H0Z" transform="translate(4.426 0)" fill="#fff"/>
              <path id="Fill_200" data-name="Fill 200" d="M0,3.182H2.428V0H0Z" transform="translate(0 0)" fill="#fff"/>
            </g>
            <g id="Group_213" data-name="Group 213" transform="translate(0 107.332)">
              <path id="Fill_202" data-name="Fill 202" d="M0,3.184H2.428V0H0Z" transform="translate(43.529 0)" fill="#fff"/>
              <path id="Fill_204" data-name="Fill 204" d="M0,3.184H2.428V0H0Z" transform="translate(39.103 0)" fill="#fff"/>
              <path id="Fill_205" data-name="Fill 205" d="M0,3.184H2.428V0H0Z" transform="translate(34.675 0)" fill="#fff"/>
              <path id="Fill_206" data-name="Fill 206" d="M0,3.184H2.428V0H0Z" transform="translate(30.248 0)" fill="#fff"/>
              <path id="Fill_207" data-name="Fill 207" d="M0,3.184H2.428V0H0Z" transform="translate(25.822 0)" fill="#fff"/>
              <path id="Fill_208" data-name="Fill 208" d="M0,3.184H2.428V0H0Z" transform="translate(21.396 0)" fill="#fff"/>
              <path id="Fill_209" data-name="Fill 209" d="M0,3.184H2.43V0H0Z" transform="translate(16.968 0)" fill="#fff"/>
              <path id="Fill_210" data-name="Fill 210" d="M0,3.184H2.428V0H0Z" transform="translate(8.852 0)" fill="#fff"/>
              <path id="Fill_211" data-name="Fill 211" d="M0,3.184H2.428V0H0Z" transform="translate(4.426 0)" fill="#fff"/>
              <path id="Fill_212" data-name="Fill 212" d="M0,3.184H2.428V0H0Z" transform="translate(0 0)" fill="#fff"/>
            </g>
            <g id="Group_216" data-name="Group 216" transform="translate(4.018)">
              <path id="Clip_215-2" data-name="Clip 215" d="M0,0H37.919V8.248H0Z" transform="translate(0)" fill="none"/>
              <g id="Group_216-2" data-name="Group 216" transform="translate(0)" clip-path="url(#clip-path-2)">
                <path id="Fill_214" data-name="Fill 214" d="M37.919,8.248H0V3.535A3.519,3.519,0,0,1,3.5,0H34.417a3.517,3.517,0,0,1,3.5,3.535Z" transform="translate(0 0)" fill="#ededed"/>
              </g>
            </g>
            <path id="Fill_217" data-name="Fill 217" d="M17.439,0H3.245A3.294,3.294,0,0,0,0,3.341V8.248H17.439Z" transform="translate(4.019 0)" fill="#fafafa"/>
          </g>
        </g>
        <path id="Fill_1-2" data-name="Fill 1" d="M3.347,7.219A3.372,3.372,0,0,1,5.894,8.367a6.325,6.325,0,0,1,5.945-4.05A6.436,6.436,0,0,1,13.72,4.6a6.9,6.9,0,0,1,12.59-.943A7.223,7.223,0,0,1,34.169,4.66a6.2,6.2,0,0,1,5.309-2.943,6.1,6.1,0,0,1,6.175,6.015,5.881,5.881,0,0,1-.606,2.6H0A3.313,3.313,0,0,1,3.347,7.219" transform="translate(26.703)" fill="#fafafa"/>
        <path id="Fill_1-3" data-name="Fill 1" d="M22.823,3.518a4.028,4.028,0,0,0-3.069,1.364,3.09,3.09,0,0,0-2.616-1.364,3.246,3.246,0,0,0-1.625.43A5.607,5.607,0,0,0,9.975,0,5.542,5.542,0,0,0,4.343,4.381,2.706,2.706,0,0,0,1.967,6,1.941,1.941,0,0,0,0,7.752H26.616a3.177,3.177,0,0,0,.086-.733,3.7,3.7,0,0,0-3.88-3.5" transform="translate(0 28.423)" fill="#ededed"/>
      </g>
    </g>
    <g id="Illustration_SMS_EMAIL_Verification" data-name="Illustration / SMS+EMAIL Verification" transform="translate(-8.968 749.5)">
      <path id="Fill_7-2" data-name="Fill 7" d="M2.72,0H14.739a2.724,2.724,0,0,1,2.72,2.728V8.943a2.724,2.724,0,0,1-2.72,2.728H6.88l-2.827,2.5v-2.5H2.72A2.724,2.724,0,0,1,0,8.943V2.728A2.724,2.724,0,0,1,2.72,0" transform="translate(326.726 -7.524)" fill="#ffb73a"/>
      <path id="Fill_9-2" data-name="Fill 9" d="M8.862.684H.34A.342.342,0,0,1,.34,0H8.862a.342.342,0,0,1,0,.684" transform="translate(330.854 -4.36)" fill="#fff"/>
      <path id="Fill_11-2" data-name="Fill 11" d="M8.862.684H.34A.342.342,0,0,1,.34,0H8.862a.342.342,0,0,1,0,.684" transform="translate(330.854 -2.082)" fill="#fff"/>
      <path id="Fill_13-2" data-name="Fill 13" d="M1.59.684H.34A.342.342,0,0,1,.34,0H1.59a.342.342,0,0,1,0,.684" transform="translate(330.854 0.197)" fill="#fff"/>
      <path id="Fill_15-2" data-name="Fill 15" d="M1.59.684H.341A.342.342,0,0,1,.341,0H1.59a.342.342,0,0,1,0,.684" transform="translate(333.695 0.197)" fill="#fff"/>
      <path id="Fill_17-2" data-name="Fill 17" d="M3.182.684H.34A.342.342,0,0,1,.34,0H3.182a.342.342,0,0,1,0,.684" transform="translate(336.535 0.197)" fill="#fff"/>
      <path id="Fill_19-2" data-name="Fill 19" d="M2.72,0H14.739a2.724,2.724,0,0,1,2.72,2.728V8.943a2.724,2.724,0,0,1-2.72,2.728H6.88l-2.827,2.5v-2.5H2.72A2.724,2.724,0,0,1,0,8.943V2.728A2.724,2.724,0,0,1,2.72,0" transform="translate(326.726 -7.524)" fill="#ffb73a"/>
      <path id="Combined_Shape" data-name="Combined Shape" d="M6.021,5.241a.342.342,0,0,1,0-.684H8.862a.342.342,0,0,1,0,.684Zm-2.839,0a.342.342,0,0,1,0-.684H4.431a.342.342,0,0,1,0,.684Zm-2.842,0a.342.342,0,0,1,0-.684H1.59a.342.342,0,0,1,0,.684Zm0-2.279a.342.342,0,0,1,0-.683H8.862a.342.342,0,0,1,0,.683ZM.34.683A.342.342,0,0,1,.34,0H8.862a.342.342,0,0,1,0,.683Z" transform="translate(330.854 -4.36)" fill="#fff"/>
      <g id="Group_33" data-name="Group 33" transform="translate(340.244 -10.089)">
        <path id="Clip_32-2" data-name="Clip 32" d="M0,0H5.715V5.731H0Z" transform="translate(0 0)" fill="none"/>
        <g id="Group_33-2" data-name="Group 33" transform="translate(0 0)" clip-path="url(#clip-path-3)">
          <path id="Fill_31" data-name="Fill 31" d="M5.715,2.866A2.858,2.858,0,1,1,2.857,0,2.862,2.862,0,0,1,5.715,2.866" transform="translate(0 0)" fill="#de0039"/>
        </g>
      </g>
      <path id="Fill_34-2" data-name="Fill 34" d="M1.666,2.175V2.8H0V2.175H.523V.91H0V.439A1.988,1.988,0,0,0,.947,0h.215V2.175Z" transform="translate(342.401 -8.711)" fill="#fff"/>
      <path id="Fill_36-2" data-name="Fill 36" d="M9.815.146,6.117,3.56a1.74,1.74,0,0,1-2.419,0L0,.146A.441.441,0,0,1,.323,0H9.492a.445.445,0,0,1,.324.146" transform="translate(336.043 5.958)" fill="#ffb73a"/>
      <path id="Combined_Shape-2" data-name="Combined Shape" d="M.474,6.623A.515.515,0,0,1,0,6.077V.926L3.392,4.058a2.415,2.415,0,0,0,3.333,0L10.118.926V6.077a.516.516,0,0,1-.475.545ZM3.849,3.56.151.146A.471.471,0,0,1,.3.039.415.415,0,0,1,.474,0H9.643A.415.415,0,0,1,9.82.039a.471.471,0,0,1,.146.107L6.268,3.56a1.741,1.741,0,0,1-2.419,0Z" transform="translate(335.891 5.959)" fill="#ffb73a"/>
      <path id="Fill_42-2" data-name="Fill 42" d="M9.346.47a.418.418,0,0,1,.176.039A.409.409,0,0,0,9.346.47H.176A.413.413,0,0,0,0,.509.423.423,0,0,1,.176.47Z" transform="translate(336.189 5.489)" fill="#fff"/>
      <path id="Fill_44-2" data-name="Fill 44" d="M9.967,0h0l-3.7,3.413a1.741,1.741,0,0,1-2.419,0L.152,0A.582.582,0,0,0,0,.4V.78L3.392,3.911a2.414,2.414,0,0,0,3.333,0L10.118.78V.4A.584.584,0,0,0,9.967,0" transform="translate(335.891 6.105)" fill="#fff"/>
      <g id="Group_12803" data-name="Group 12803">
        <g id="Group_3-2" data-name="Group 3" transform="translate(7 28.707)">
          <path id="Clip_2-2" data-name="Clip 2" d="M0,0H62.76V62.933H0Z" transform="translate(0 0)" fill="none"/>
          <g id="Group_3-3" data-name="Group 3" transform="translate(0 0)" clip-path="url(#clip-path-4)">
            <path id="Fill_1-4" data-name="Fill 1" d="M62.76,31.466A31.38,31.38,0,1,1,31.38,0,31.423,31.423,0,0,1,62.76,31.466" transform="translate(0)" fill="#57abff" opacity="0.1"/>
          </g>
        </g>
        <g id="Group_6" data-name="Group 6" transform="translate(14.569 101.485)">
          <path id="Clip_5-2" data-name="Clip 5" d="M0,0H48.6V4.015H0Z" transform="translate(0 0)" fill="none"/>
          <g id="Group_6-2" data-name="Group 6" transform="translate(0 0)" clip-path="url(#clip-path-5)">
            <path id="Fill_4-2" data-name="Fill 4" d="M0,2.008C0,3.117,2.984,4.016,15.629,4.016S48.6,3.117,48.6,2.008,28.274,0,15.629,0,0,.9,0,2.008" fill="#e6f2ff"/>
          </g>
        </g>
        <path id="Fill_46-2" data-name="Fill 46" d="M8.518,0A6,6,0,0,1,9.538,4.868C8.912,7.162,3.545,16.83,2.488,18.929,1.7,20.507,0,24.24,0,24.24l1.266.561s2-3.63,2.7-5.247c.945-2.153,5.8-12.09,6.3-14.413C10.615,3.574,9.949.675,8.518,0" transform="translate(25.763 41.526)" fill="#0038a5"/>
        <path id="Combined_Shape-3" data-name="Combined Shape" d="M0,2.1l7.072-.655V4.157A44.271,44.271,0,0,1,0,2.1ZM19.308.31,22.658,0V.573A4.455,4.455,0,0,1,21,2.781a5.412,5.412,0,0,1-1.688.713Z" transform="translate(27.156 74.854)" fill="#273759"/>
        <path id="Combined_Shape-4" data-name="Combined Shape" d="M0,38.445,9.131,17.865l7.429-4.453c-.289-.148-.464-.245-.464-.245S11.617-1.445,14.5.117c2.551,1.381,5.361,9.992,5.361,9.992l4.343-8.836c.894.467,2.594,1.551,3.454,2.075-1.344,3.507-5,10.817-6.309,11.385-.688.3-2.009-.1-3.155-.564,1.148,5.093,4.739,21.24,4.461,22.75-.271,1.475-6.374,1.83-12.177,1.83C5.111,38.748,0,38.445,0,38.445Z" transform="translate(27.156 38.508)" fill="#0040a5"/>
        <path id="Fill_54-2" data-name="Fill 54" d="M22.048,0l8.385,39.475-2.805.881s-4.517-15.94-6.719-20.99c-1.075-2.466-5.275-9.374-5.275-9.374L11,24.408a3.323,3.323,0,0,1-.284.642l-8.653,15.1L0,38.373l7.188-20.1L9.509,0Z" transform="translate(22.233 58.267)" fill="#95c5ff"/>
        <path id="Fill_56-2" data-name="Fill 56" d="M3.985,11.828,5.3,8.836s1.121.3,1.615-.174A5.972,5.972,0,0,0,7.38,6.331c.01-.142.021-.288.029-.437s.624.262.63.1c.011-.323-.595-1.224-.6-1.552-.026-1.508-.245-2.969-.807-3.52C5.348-.33.851-.514.238,1.675A6.338,6.338,0,0,0,2.006,8.037L.79,11.14Z" transform="translate(35.212 25.656)" fill="#ffd2c5"/>
        <path id="Combined_Shape-5" data-name="Combined Shape" d="M6.1,7.372s.049-2.761.01-4.637c-.117,1.532-.469,3.614-.469,3.614l-.492-.225a34.862,34.862,0,0,0,.739-4.661,5.718,5.718,0,0,0-1.362-.8A4.434,4.434,0,0,0,3.034.621C2.2.813.884,6.723.921,6.853l-.35-.086C.8,5.792,1.7,2.309,2.184,1.053A17.91,17.91,0,0,0,.313,4.195L0,4.015A24.046,24.046,0,0,1,2.568.066a3.777,3.777,0,0,1,2,.207A2.723,2.723,0,0,1,6.045.736c.515.412.588,6.716.588,6.716ZM6.013,1.149a.2.2,0,0,0-.042-.105A.511.511,0,0,0,5.877.995,1.551,1.551,0,0,1,6.013,1.149ZM2.742.45A4.292,4.292,0,0,1,3.517.3a1.968,1.968,0,0,0-.34-.053H3.163A.727.727,0,0,0,2.742.45Z" transform="translate(18.16 67.282)" fill="#273759"/>
        <path id="Fill_62-2" data-name="Fill 62" d="M2.8,0,11.83,1.29,10.688,14.783,0,13.5Z" transform="translate(14.373 73.329)" fill="#de0039"/>
        <path id="Fill_68-2" data-name="Fill 68" d="M6.4,0l8.325,3.456L9.041,16.516,0,12.567Z" transform="translate(10.462 70.175)" fill="#ffb73a"/>
        <path id="Fill_70-2" data-name="Fill 70" d="M5.684,0,2.193,13.823l-.968-.763H0L3.043,4.219Z" transform="translate(19.502 73.631)" fill="#ff9e44"/>
        <path id="Combined_Shape-6" data-name="Combined Shape" d="M0,1.34,1.959,0,4.974,2.375,6.469,7.438,5.654,8ZM29.364,2.533l3.617-1.274,5.062,1.456.031.989L29.439,4.911Z" transform="translate(19.939 96.104)" fill="#273759"/>
        <path id="Fill_76-2" data-name="Fill 76" d="M8.492,2.63S7.723,5.272,3.6,6.753a5.9,5.9,0,0,1,1.559,3.9l-4.334.282S-3.015.268,5.887.007s4.436,6.6,4.436,6.6l-.112-.728A5.65,5.65,0,0,0,8.492,2.63" transform="translate(32.354 23.409)" fill="#273759"/>
        <path id="Fill_78-2" data-name="Fill 78" d="M.226.006h0A.284.284,0,0,1,.561.227L.636.59A.284.284,0,1,1,.08.7L.006.341A.285.285,0,0,1,.226.006" transform="translate(41.231 29.078)" fill="#01020e"/>
        <path id="Fill_80-2" data-name="Fill 80" d="M1.06.1c.2.407.132.824-.155.931S.222.893.019.486h0C-.015.416,0,.343.047.325L.906,0c.05-.019.118.024.153.094Z" transform="translate(41.215 31.623)" fill="#fff"/>
        <path id="Fill_82-2" data-name="Fill 82" d="M11.434.261,9.509,0,7.188,18.27,0,38.373l2.067,1.783S9.1,28.808,10.895,24.745C12.458,21.2,15.634,9.991,15.634,9.991Z" transform="translate(22.233 58.266)" fill="#86b6ff"/>
        <path id="Fill_84-2" data-name="Fill 84" d="M.288,24.048,13.2,25.8l-1.112-5.776a2.133,2.133,0,0,1,.188-1.362c.407-.808,1.1-2.2,1.558-3.138.427-.883.58-2.489-1.074-5.544A44.682,44.682,0,0,1,10.2,4.406l.392-1.13a.467.467,0,0,0-.22-.564L5.427.048A.4.4,0,0,0,4.849.3L4.375,2S.806,6.531.2,7.665.583,18.75.67,19.71Z" transform="translate(31.454 34.218)" fill="#0051d3"/>
        <path id="Fill_86-2" data-name="Fill 86" d="M2.585,5.084,0,1.784.391,0Z" transform="translate(35.281 63.174)" fill="#75abff"/>
        <path id="Combined_Shape-7" data-name="Combined Shape" d="M4.923,40.734,8.951,21.749,9.116,19c-1.4,2.307-2.666,4.377-3.1,5.233-.793,1.577-2.488,5.31-2.488,5.31L0,28.009S7.41,7.313,8.95,5.795h0C9.555,4.381,13.6,0,13.6,0s3.411.928,4.284,2.587-6.986,36.821-7.439,37.775c-.247.52-1.243.672-2.321.673A21.24,21.24,0,0,1,4.923,40.734Z" transform="translate(22.233 36.219)" fill="#0049a8"/>
        <path id="Fill_90-2" data-name="Fill 90" d="M2.842,0C2.127,4.218,1.205,8.844,0,14.5l7.968,1.08a7.342,7.342,0,0,1-5.119-2.652C.374,10.112,2.842,0,2.842,0" transform="translate(36.685 44.435)" fill="#0040a5"/>
        <path id="Fill_92-2" data-name="Fill 92" d="M.495.495A.035.035,0,0,1,.5.5.069.069,0,0,1,.5.49l-.006,0" transform="translate(21.738 63.733)" fill="#8eb8ff"/>
        <path id="Fill_94-2" data-name="Fill 94" d="M0,5.911.151,2.626.3,0l.96.137L.793,5.819Z" transform="translate(53.733 33.362)" fill="#de0039"/>
        <path id="Combined_Shape-8" data-name="Combined Shape" d="M2.5,2.453c-.005-.009-.01-.018-.016-.027a5.759,5.759,0,0,1,.7-1.982A2.258,2.258,0,0,1,4.8,2.358a1.911,1.911,0,0,1-1.115.261A4.723,4.723,0,0,1,2.5,2.453ZM0,.26A1.361,1.361,0,0,1,.875,0L.607.568C.512.761.408.975.3,1.2A1.464,1.464,0,0,1,0,.26Z" transform="translate(22.23 63.968)" fill="#95c5ff"/>
        <path id="Fill_100-2" data-name="Fill 100" d="M3.263,2.5,3.24,2.458c-.006-.009-.01-.019-.017-.028a5.751,5.751,0,0,1,.7-1.982Q3.768.384,3.592.329A5.741,5.741,0,0,0,1.612,0L1.344.573c-.1.192-.2.406-.306.63A11.194,11.194,0,0,0,0,3.866a1.887,1.887,0,0,0,3,1.62c.589-.455.224-2.2.224-2.2a.616.616,0,0,0,.04-.791" transform="translate(21.493 63.964)" fill="#ffd2c5"/>
        <path id="Combined_Shape-9" data-name="Combined Shape" d="M2.286,2.648c.318-.678.6-1.266.8-1.676.857.807.494,1.5.494,1.5a1.767,1.767,0,0,1-.908.2A3.036,3.036,0,0,1,2.286,2.648ZM.122.4A1.024,1.024,0,0,1,1.162.01c.023.206.046.353.046.353L.36,1.816A1.256,1.256,0,0,1,.122.4Z" transform="translate(51.24 39.381)" fill="#95c5ff"/>
        <path id="Fill_106-2" data-name="Fill 106" d="M1.6.773S.966.985,0,0C0,0,.7,1.18,1.341,1.346Z" transform="translate(38.91 33.719)" fill="#eec2b9"/>
        <path id="Fill_108-2" data-name="Fill 108" d="M2.925.05c-.115.13-.043.709-.043.709l.2.306s-.242-.031-.236.051c0,.026,0,.087.006.155-.324.031-.64.081-.64.081a3.242,3.242,0,0,0,.1-1.2.487.487,0,0,0-.707,0A3.539,3.539,0,0,0,1.3,1.377a1.5,1.5,0,0,0-.505.652A3.81,3.81,0,0,0,.8,3.225c.024.206.046.353.046.353L0,5.032a2.277,2.277,0,0,0,.778.507,4.325,4.325,0,0,0,1.148.325c.318-.678.6-1.267.8-1.676.169-.348.28-.566.307-.6a11.722,11.722,0,0,0,.516-2.271C3.621.934,3.04-.08,2.925.05" transform="translate(51.599 36.166)" fill="#ffd2c5"/>
      </g>
      <g id="Group_12804" data-name="Group 12804" transform="translate(-4 11)">
        <g id="Group_52" data-name="Group 52" transform="translate(56.406 -4.358)">
          <path id="Clip_51-2" data-name="Clip 51" d="M19.923,0H0V16.171H19.923Z" transform="translate(0)" fill="none"/>
          <g id="Group_52-2" data-name="Group 52" transform="translate(0)" clip-path="url(#clip-path-6)">
            <path id="Fill_50-2" data-name="Fill 50" d="M3.1,0H16.818a3.11,3.11,0,0,1,3.1,3.112v7.093a3.11,3.11,0,0,1-3.1,3.113H7.85L4.625,16.172V13.318H3.1A3.108,3.108,0,0,1,0,10.205V3.112A3.108,3.108,0,0,1,3.1,0" transform="translate(0 0)" fill="#ffb73a"/>
          </g>
        </g>
        <path id="Fill_53-2" data-name="Fill 53" d="M.486.464A1.615,1.615,0,0,1,2.777.489L3.19.911l.425-.42A1.622,1.622,0,1,1,5.888,2.807L4.312,4.364l-.009.01a1.614,1.614,0,0,1-2.29-.025L.463,2.761A1.628,1.628,0,0,1,.486.464" transform="translate(63.387 0.005)" fill="#fff"/>
      </g>
    </g>
  </g>
</svg>
