<svg xmlns="http://www.w3.org/2000/svg" xmlns:xlink="http://www.w3.org/1999/xlink" width="375" height="98" viewBox="0 0 375 98">
  <defs>
    <clipPath id="clip-path">
      <rect id="Rectangle_4318" data-name="Rectangle 4318" width="375" height="98" transform="translate(0 0)" fill="#f1f2ff"/>
    </clipPath>
  </defs>
  <g id="banner-dis15-phy-m" transform="translate(-556 -311)">
    <rect id="Rectangle_4310" data-name="Rectangle 4310" width="375" height="98" transform="translate(556 311)" fill="#f1f2ff"/>
    <g id="Mask_Group_151" data-name="Mask Group 151" transform="translate(556 311)" clip-path="url(#clip-path)">
      <g id="Group_12173" data-name="Group 12173" transform="translate(-224.08 -20.925)">
        <g id="Group_12099" data-name="Group 12099" transform="translate(39.428 16.735)">
          <path id="Path_88695" data-name="Path 88695" d="M549.215,209.913l.81,3.511-1.533.5-.909-3.5Z" transform="translate(-547.583 -209.913)" fill="#e04c4c"/>
        </g>
        <g id="Group_12100" data-name="Group 12100" transform="translate(13.407 112.079)">
          <path id="Path_88696" data-name="Path 88696" d="M438.89,614.022l2.3,2.777-1.146,1.133-2.385-2.722Z" transform="translate(-437.659 -614.022)" fill="#438acc"/>
        </g>
        <g id="Group_12101" data-name="Group 12101" transform="translate(8.92 23.603)">
          <path id="Path_88697" data-name="Path 88697" d="M422.543,240.728l-3.608.206-.237-1.6,3.614-.305Z" transform="translate(-418.698 -239.034)" fill="#e04c4c"/>
        </g>
        <g id="Group_12102" data-name="Group 12102" transform="translate(77.636 2.428)">
          <path id="Path_88698" data-name="Path 88698" d="M709.782,152.191l3.3-1.648-.717-1.271L709,150.851Z" transform="translate(-709 -149.273)" fill="#ffd769"/>
        </g>
        <g id="Group_12103" data-name="Group 12103" transform="translate(144.217 17.888)">
          <path id="Path_88699" data-name="Path 88699" d="M990.269,216.867l3.2-2.069,1.052,1.334L991.37,218.3Z" transform="translate(-990.269 -214.798)" fill="#438acc"/>
        </g>
        <g id="Group_12104" data-name="Group 12104" transform="translate(514.217 5.313)">
          <path id="Path_88700" data-name="Path 88700" d="M2555.28,165.77l-1.922-3.283,1.387-.985,2.018,3.24Z" transform="translate(-2553.358 -161.502)" fill="#438acc"/>
        </g>
        <g id="Group_12105" data-name="Group 12105" transform="translate(15.111 155.211)">
          <path id="Path_88701" data-name="Path 88701" d="M449.012,798.615l-3.779.51-.38-1.655,3.776-.615Z" transform="translate(-444.853 -796.856)" fill="#73bf98"/>
        </g>
        <g id="Group_12106" data-name="Group 12106" transform="translate(110.591 83.681)">
          <path id="Path_88702" data-name="Path 88702" d="M851.892,497.667l-3.678-2.287.872-1.723,3.753,2.194Z" transform="translate(-848.214 -493.657)" fill="#73bf98"/>
        </g>
        <g id="Group_12107" data-name="Group 12107" transform="translate(66.684 15.471)">
          <path id="Path_88703" data-name="Path 88703" d="M662.727,205.949l4.22-1.4.793,1.814-4.194,1.516Z" transform="translate(-662.727 -204.553)" fill="#438acc"/>
        </g>
        <g id="Group_12108" data-name="Group 12108" transform="translate(0 49.531)">
          <path id="Path_88704" data-name="Path 88704" d="M381,350.309l4.22-1.4.793,1.814-4.194,1.516Z" transform="translate(-381 -348.913)" fill="#73bf98"/>
        </g>
        <g id="Group_12109" data-name="Group 12109" transform="translate(28.239)">
          <path id="Path_88705" data-name="Path 88705" d="M500.315,143.2l1.277-4.223,1.936.4-1.165,4.271Z" transform="translate(-500.315 -138.979)" fill="#73bf98"/>
        </g>
        <g id="Group_12110" data-name="Group 12110" transform="translate(118.466 118.982)">
          <path id="Path_88706" data-name="Path 88706" d="M885.022,643.926l-1.649,4.093-1.893-.57,1.541-4.151Z" transform="translate(-881.48 -643.298)" fill="#73bf98"/>
        </g>
        <g id="Group_12111" data-name="Group 12111" transform="translate(115.34 56.766)">
          <path id="Path_88707" data-name="Path 88707" d="M870.7,379.579l-2.425,3.716,1.56,1.225,2.535-3.661Z" transform="translate(-868.275 -379.579)" fill="#438acc"/>
        </g>
        <g id="Group_12112" data-name="Group 12112" transform="translate(135.173 41.387)">
          <path id="Path_88708" data-name="Path 88708" d="M952.06,314.632l.907,4.2,1.91-.228-.794-4.237Z" transform="translate(-952.06 -314.367)" fill="#73bf98"/>
        </g>
        <g id="Group_12113" data-name="Group 12113" transform="translate(65.422 75.959)">
          <path id="Path_88709" data-name="Path 88709" d="M657.4,462.427l3.347,2.107,1.075-1.4-3.3-2.2Z" transform="translate(-657.4 -460.931)" fill="#438acc"/>
        </g>
        <g id="Group_12114" data-name="Group 12114" transform="translate(163.742 28.931)">
          <path id="Path_88710" data-name="Path 88710" d="M1076.6,263.307l-3.609.186-.228-1.6,3.615-.285Z" transform="translate(-1072.763 -261.613)" fill="#ffd769"/>
        </g>
        <g id="Group_12115" data-name="Group 12115" transform="translate(198.667 60.619)">
          <path id="Path_88711" data-name="Path 88711" d="M1224.01,396.926l-2.4,2.7-1.3-.953,2.329-2.77Z" transform="translate(-1220.31 -395.9)" fill="#438acc"/>
        </g>
        <g id="Group_12116" data-name="Group 12116" transform="translate(181.522 18.57)">
          <path id="Path_88712" data-name="Path 88712" d="M1149.64,217.685l2.11,3.874-1.645,1.092-2.224-3.831Z" transform="translate(-1147.881 -217.685)" fill="#438acc"/>
        </g>
        <g id="Group_12117" data-name="Group 12117" transform="translate(253.913 155.581)">
          <path id="Path_88713" data-name="Path 88713" d="M1455.44,798.4l2.11,3.874-1.645,1.092-2.224-3.831Z" transform="translate(-1453.681 -798.4)" fill="#438acc"/>
        </g>
        <g id="Group_12118" data-name="Group 12118" transform="translate(161.004 4.77)">
          <path id="Path_88714" data-name="Path 88714" d="M1061.18,161.226l4.338.561.425-1.9-4.335-.684Z" transform="translate(-1061.18 -159.203)" fill="#e04c4c"/>
        </g>
        <g id="Group_12119" data-name="Group 12119" transform="translate(182.124 89.447)">
          <path id="Path_88715" data-name="Path 88715" d="M1154.91,521.339l-2.925-3.242-1.564,1.166,2.844,3.332Z" transform="translate(-1150.421 -518.097)" fill="#e04c4c"/>
        </g>
        <g id="Group_12120" data-name="Group 12120" transform="translate(98.573 16.851)">
          <path id="Path_88716" data-name="Path 88716" d="M801.882,211.982l-3.59-1.577-.848,1.527L801,213.613Z" transform="translate(-797.444 -210.405)" fill="#e04c4c"/>
        </g>
        <g id="Group_12121" data-name="Group 12121" transform="translate(261.024 5.995)">
          <path id="Path_88717" data-name="Path 88717" d="M1484.62,167.837l3.9-1.947-.847-1.5-3.969,1.865Z" transform="translate(-1483.704 -164.388)" fill="#ffd769"/>
        </g>
        <g id="Group_12122" data-name="Group 12122" transform="translate(267.029 131.28)">
          <path id="Path_88718" data-name="Path 88718" d="M1513.38,695.4l-4.3.74.375,1.682,4.342-.641Z" transform="translate(-1509.085 -695.4)" fill="#ffd769"/>
        </g>
        <g id="Group_12123" data-name="Group 12123" transform="translate(349.787 60.477)">
          <path id="Path_88719" data-name="Path 88719" d="M1858.76,395.411l-.055,4.344,1.727-.06.162-4.371Z" transform="translate(-1858.705 -395.323)" fill="#ffd769"/>
        </g>
        <g id="Group_12124" data-name="Group 12124" transform="translate(243.067 73.687)">
          <path id="Path_88720" data-name="Path 88720" d="M1407.86,453.026l3.953,1.823.652-1.6-3.935-1.937Z" transform="translate(-1407.86 -451.317)" fill="#ffd769"/>
        </g>
        <g id="Group_12125" data-name="Group 12125" transform="translate(332.5 159.218)">
          <path id="Path_88721" data-name="Path 88721" d="M1789.4,816.5l-3.726-.986.289-1.691,3.765.887Z" transform="translate(-1785.674 -813.827)" fill="#e04c4c"/>
        </g>
        <g id="Group_12126" data-name="Group 12126" transform="translate(614.517 147.023)">
          <path id="Path_88722" data-name="Path 88722" d="M2977.06,765.648l1.555-3.517,1.631.547-1.463,3.569Z" transform="translate(-2977.06 -762.131)" fill="#73bf98"/>
        </g>
        <g id="Group_12127" data-name="Group 12127" transform="translate(339.421 126.018)">
          <path id="Path_88723" data-name="Path 88723" d="M1814.9,676.631l1.555-3.517,1.631.547-1.463,3.569Z" transform="translate(-1814.9 -673.114)" fill="#73bf98"/>
        </g>
        <g id="Group_12128" data-name="Group 12128" transform="translate(290.603 10.094)">
          <path id="Path_88724" data-name="Path 88724" d="M1608.68,182.318l1.457,3.612,1.67-.5-1.362-3.664Z" transform="translate(-1608.68 -181.766)" fill="#73bf98"/>
        </g>
        <g id="Group_12129" data-name="Group 12129" transform="translate(261.534 57.49)">
          <path id="Path_88725" data-name="Path 88725" d="M1489.73,382.647l-3.86.6.112,1.734,3.888-.5Z" transform="translate(-1485.87 -382.647)" fill="#73bf98"/>
        </g>
        <g id="Group_12130" data-name="Group 12130" transform="translate(311.039 14.022)">
          <path id="Path_88726" data-name="Path 88726" d="M1699.44,199.993l-3.59-1.576-.848,1.527,3.557,1.68Z" transform="translate(-1695.002 -198.417)" fill="#438acc"/>
        </g>
        <g id="Group_12131" data-name="Group 12131" transform="translate(390.815 42.385)">
          <path id="Path_88727" data-name="Path 88727" d="M2032.75,322.035l3.488-1.789-.658-1.618-3.548,1.7Z" transform="translate(-2032.032 -318.628)" fill="#438acc"/>
        </g>
        <g id="Group_12132" data-name="Group 12132" transform="translate(122.798 95.992)">
          <path id="Path_88728" data-name="Path 88728" d="M904.22,547.42l-3.59-1.577-.848,1.527,3.557,1.68Z" transform="translate(-899.782 -545.843)" fill="#e04c4c"/>
        </g>
        <g id="Group_12133" data-name="Group 12133" transform="translate(111.746 91.695)">
          <path id="Path_88729" data-name="Path 88729" d="M853.591,527.627,853.1,531.5l1.71.375.6-3.874Z" transform="translate(-853.097 -527.627)" fill="#e04c4c"/>
        </g>
        <g id="Group_12134" data-name="Group 12134" transform="translate(133.437 1.177)">
          <path id="Path_88730" data-name="Path 88730" d="M944.725,144.96l2.268,2.728,1.2-.922-2.207-2.8Z" transform="translate(-944.725 -143.966)" fill="#ffd769"/>
        </g>
        <g id="Group_12135" data-name="Group 12135" transform="translate(173.96 130.718)">
          <path id="Path_88731" data-name="Path 88731" d="M1118.52,693.024l-2.616,2.4.986,1.14,2.691-2.342Z" transform="translate(-1115.904 -693.024)" fill="#ffd769"/>
        </g>
        <g id="Group_12136" data-name="Group 12136" transform="translate(68.994 114.953)">
          <path id="Path_88732" data-name="Path 88732" d="M676.035,626.206l-3.55.179.025,1.506,3.571-.087Z" transform="translate(-672.485 -626.206)" fill="#e04c4c"/>
        </g>
        <g id="Group_12137" data-name="Group 12137" transform="translate(504.256 19.712)">
          <path id="Path_88733" data-name="Path 88733" d="M2511.55,225.121l3.68-.912-.256-1.667-3.717.809Z" transform="translate(-2511.257 -222.542)" fill="#ffd769"/>
        </g>
        <g id="Group_12138" data-name="Group 12138" transform="translate(614.993 107.883)">
          <path id="Path_88734" data-name="Path 88734" d="M2979.07,596.4l.584,3.733,1.689-.114-.483-3.76Z" transform="translate(-2979.07 -596.26)" fill="#ffd769"/>
        </g>
        <g id="Group_12139" data-name="Group 12139" transform="translate(532.416 26.503)">
          <path id="Path_88735" data-name="Path 88735" d="M2634.25,251.515l-3.785-.2-.243,1.669,3.792.307Z" transform="translate(-2630.222 -251.312)" fill="#e04c4c"/>
        </g>
        <g id="Group_12140" data-name="Group 12140" transform="translate(564.315 42.992)">
          <path id="Path_88736" data-name="Path 88736" d="M2765,321.473l.866,3.678,1.676-.236-.768-3.714Z" transform="translate(-2765 -321.202)" fill="#e04c4c"/>
        </g>
        <g id="Group_12141" data-name="Group 12141" transform="translate(743.125 93.916)">
          <path id="Path_88737" data-name="Path 88737" d="M3524.41,537.242l-3.785-.2-.243,1.669,3.792.308Z" transform="translate(-3520.382 -537.039)" fill="#e04c4c"/>
        </g>
        <g id="Group_12142" data-name="Group 12142" transform="translate(598.687 75.974)">
          <path id="Path_88738" data-name="Path 88738" d="M2910.49,460.992l-.29,3.767,1.669.28.394-3.771Z" transform="translate(-2910.2 -460.992)" fill="#e04c4c"/>
        </g>
        <g id="Group_12143" data-name="Group 12143" transform="translate(467.535 130.011)">
          <path id="Path_88739" data-name="Path 88739" d="M2356.41,690.025l-.29,3.767,1.669.28.4-3.771Z" transform="translate(-2356.12 -690.025)" fill="#e04c4c"/>
        </g>
        <g id="Group_12144" data-name="Group 12144" transform="translate(685.642 91.203)">
          <path id="Path_88740" data-name="Path 88740" d="M3277.83,525.541l-.29,3.767,1.669.28.394-3.771Z" transform="translate(-3277.54 -525.541)" fill="#e04c4c"/>
        </g>
        <g id="Group_12145" data-name="Group 12145" transform="translate(459.676 162.77)">
          <path id="Path_88741" data-name="Path 88741" d="M2326.97,829.076l-3.785-.2-.243,1.669,3.792.307Z" transform="translate(-2322.942 -828.873)" fill="#73bf98"/>
        </g>
        <g id="Group_12146" data-name="Group 12146" transform="translate(548.31 2.418)">
          <path id="Path_88742" data-name="Path 88742" d="M2700.63,149.229l-3.26,1.929.729,1.522,3.323-1.846Z" transform="translate(-2697.37 -149.229)" fill="#73bf98"/>
        </g>
        <g id="Group_12147" data-name="Group 12147" transform="translate(597.693 52.829)">
          <path id="Path_88743" data-name="Path 88743" d="M2909.26,362.9l-3.26,1.937.729,1.522,3.323-1.846Z" transform="translate(-2906 -362.9)" fill="#73bf98"/>
        </g>
        <g id="Group_12148" data-name="Group 12148" transform="translate(524.4 68.652)">
          <path id="Path_88744" data-name="Path 88744" d="M2599.62,433.343l-1.687-3.384-1.578.611,1.6,3.44Z" transform="translate(-2596.355 -429.959)" fill="#73bf98"/>
        </g>
        <g id="Group_12149" data-name="Group 12149" transform="translate(582.353 12.165)">
          <path id="Path_88745" data-name="Path 88745" d="M2841.2,191.8l2.882,2.455,1.211-1.178-2.823-2.541Z" transform="translate(-2841.2 -190.537)" fill="#438acc"/>
        </g>
        <g id="Group_12150" data-name="Group 12150" transform="translate(615.652 77.574)">
          <path id="Path_88746" data-name="Path 88746" d="M2981.87,469.037l2.882,2.455,1.211-1.178-2.823-2.541Z" transform="translate(-2981.87 -467.772)" fill="#438acc"/>
        </g>
        <g id="Group_12151" data-name="Group 12151" transform="translate(537.803 74.516)">
          <path id="Path_88747" data-name="Path 88747" d="M2656.51,454.813l-3.523,1.4.481,1.618,3.572-1.3Z" transform="translate(-2652.987 -454.813)" fill="#438acc"/>
        </g>
        <g id="Group_12152" data-name="Group 12152" transform="translate(624.916 9.932)">
          <path id="Path_88748" data-name="Path 88748" d="M3022.77,185.069l.179-3.774-1.677-.228-.283,3.781Z" transform="translate(-3020.989 -181.067)" fill="#ffd769"/>
        </g>
        <g id="Group_12153" data-name="Group 12153" transform="translate(482.174 31.628)">
          <path id="Path_88749" data-name="Path 88749" d="M2419.07,273.03l2.7,2.531-1.021,1.3-2.775-2.465Z" transform="translate(-2417.974 -273.03)" fill="#73bf98"/>
        </g>
        <g id="Group_12154" data-name="Group 12154" transform="translate(462.911 103.443)">
          <path id="Path_88750" data-name="Path 88750" d="M2340.73,578.794l-3.066,2.073-1.048-1.275,3.017-2.165Z" transform="translate(-2336.616 -577.427)" fill="#ffd769"/>
        </g>
        <g id="Group_12155" data-name="Group 12155" transform="translate(479.831 71.173)">
          <path id="Path_88751" data-name="Path 88751" d="M2408.32,440.644l3.625.758-.192,1.638-3.657-.661Z" transform="translate(-2408.096 -440.644)" fill="#438acc"/>
        </g>
        <g id="Group_12156" data-name="Group 12156" transform="translate(365.874 33.533)">
          <path id="Path_88752" data-name="Path 88752" d="M1926.93,281.1l3.6.881-.248,1.63-3.633-.785Z" transform="translate(-1926.649 -281.1)" fill="#e04c4c"/>
        </g>
        <g id="Group_12157" data-name="Group 12157" transform="translate(441.763 29.346)">
          <path id="Path_88753" data-name="Path 88753" d="M2247.37,263.362l3.672.487-.069,1.647-3.7-.389Z" transform="translate(-2247.273 -263.362)" fill="#ffd769"/>
        </g>
        <g id="Group_12158" data-name="Group 12158" transform="translate(373.156 9.71)">
          <path id="Path_88754" data-name="Path 88754" d="M1959.17,180.137l.117,3.69-1.642.2-.219-3.7Z" transform="translate(-1957.426 -180.137)" fill="#ffd769"/>
        </g>
        <g id="Group_12159" data-name="Group 12159" transform="translate(466.259 7.265)">
          <path id="Path_88755" data-name="Path 88755" d="M2350.76,171.252l3.39-1.488.8,1.443-3.359,1.586Z" transform="translate(-2350.76 -169.764)" fill="#438acc"/>
        </g>
        <g id="Group_12160" data-name="Group 12160" transform="translate(421.869 9.693)">
          <path id="Path_88756" data-name="Path 88756" d="M2164.36,180.06l2.649,2.581-1.044,1.279-2.728-2.516Z" transform="translate(-2163.237 -180.06)" fill="#e04c4c"/>
        </g>
        <g id="Group_12161" data-name="Group 12161" transform="translate(710.128 23.249)">
          <path id="Path_88757" data-name="Path 88757" d="M3380.98,239.582l3.2-2.069,1.052,1.334-3.151,2.165Z" transform="translate(-3380.98 -237.513)" fill="#438acc"/>
        </g>
        <g id="Group_12162" data-name="Group 12162" transform="translate(676.41 80.351)">
          <path id="Path_88758" data-name="Path 88758" d="M3238.54,480.923l3.554-1.377.757,1.52-3.527,1.481Z" transform="translate(-3238.54 -479.546)" fill="#438acc"/>
        </g>
        <g id="Group_12163" data-name="Group 12163" transform="translate(769.305 108.076)">
          <path id="Path_88759" data-name="Path 88759" d="M3630.98,599.123l3.2-2.069,1.052,1.334-3.151,2.165Z" transform="translate(-3630.98 -597.054)" fill="#438acc"/>
        </g>
        <g id="Group_12164" data-name="Group 12164" transform="translate(682.043 134.2)">
          <path id="Path_88760" data-name="Path 88760" d="M3262.34,709.847l3.2-2.069,1.052,1.334-3.151,2.165Z" transform="translate(-3262.34 -707.778)" fill="#73bf98"/>
        </g>
        <g id="Group_12165" data-name="Group 12165" transform="translate(734.712 29.368)">
          <path id="Path_88761" data-name="Path 88761" d="M3488.69,265.155l-3.609.186-.229-1.6,3.615-.285Z" transform="translate(-3484.852 -263.461)" fill="#ffd769"/>
        </g>
        <g id="Group_12166" data-name="Group 12166" transform="translate(809.494 10.265)">
          <path id="Path_88762" data-name="Path 88762" d="M3800.96,186.3l-.194-3.6,1.6-.228.294,3.6Z" transform="translate(-3800.766 -182.477)" fill="#ffd769"/>
        </g>
        <g id="Group_12167" data-name="Group 12167" transform="translate(771.434 17.961)">
          <path id="Path_88763" data-name="Path 88763" d="M3641.72,215.106l2.111,3.874-1.646,1.092-2.223-3.831Z" transform="translate(-3639.962 -215.106)" fill="#73bf98"/>
        </g>
        <g id="Group_12168" data-name="Group 12168" transform="translate(738.805 8.399)">
          <path id="Path_88764" data-name="Path 88764" d="M3502.12,176.612l4.337.561.425-1.9-4.335-.684Z" transform="translate(-3502.12 -174.589)" fill="#e04c4c"/>
        </g>
        <g id="Group_12169" data-name="Group 12169" transform="translate(689.948 6.916)">
          <path id="Path_88765" data-name="Path 88765" d="M3295.72,169.287l2.268,2.728,1.2-.922-2.207-2.8Z" transform="translate(-3295.72 -168.293)" fill="#73bf98"/>
        </g>
        <g id="Group_12170" data-name="Group 12170" transform="translate(819.7 115.225)">
          <path id="Path_88766" data-name="Path 88766" d="M3843.88,628.351l2.268,2.728,1.2-.922-2.207-2.8Z" transform="translate(-3843.88 -627.357)" fill="#ffd769"/>
        </g>
        <g id="Group_12171" data-name="Group 12171" transform="translate(737.816 112.161)">
          <path id="Path_88767" data-name="Path 88767" d="M3499.85,614.369l-1.882,3.006,1.255.84,1.97-2.971Z" transform="translate(-3497.968 -614.369)" fill="#ffd769"/>
        </g>
        <g id="Group_12172" data-name="Group 12172" transform="translate(672.564 39.233)">
          <path id="Path_88768" data-name="Path 88768" d="M3224.17,305.269l-1.882,3.006,1.255.84,1.97-2.971Z" transform="translate(-3222.288 -305.269)" fill="#ffd769"/>
        </g>
      </g>
      <g id="Group_12400" data-name="Group 12400" transform="translate(-55.402 -47.554)">
        <circle id="Ellipse_1610" data-name="Ellipse 1610" cx="50" cy="50" r="50" transform="translate(17 95)" fill="#e3e5ff"/>
        <g id="Ellipse_1611" data-name="Ellipse 1611" transform="translate(393 6)" fill="none" stroke="#e3e5ff" stroke-width="24">
          <circle cx="44.5" cy="44.5" r="44.5" stroke="none"/>
          <circle cx="44.5" cy="44.5" r="32.5" fill="none"/>
        </g>
      </g>
      <g id="Group_12413" data-name="Group 12413" transform="translate(-93.269 18.322)">
        <path id="Path_88977" data-name="Path 88977" d="M2778.45,403.437a6.37,6.37,0,0,1,6.218-4.982,10.311,10.311,0,0,1,6.359,2.165,6.371,6.371,0,0,1,1.973,2.9c.432,1.361.507,2.825,1.293,4.062a16.706,16.706,0,0,0,2.839,2.944,6,6,0,0,1,1.61,3.34c.523,1.952,2.639,2.8,3.128,4.688a16.064,16.064,0,0,1,.171,3.509,7.614,7.614,0,0,0,.39,2.1l.006.018a.736.736,0,0,1-.824.924,12.37,12.37,0,0,0-1.775-.4,2.3,2.3,0,0,0-1.215.684,1.994,1.994,0,0,1-1.225.6,1.109,1.109,0,0,1-.271-.071c-1.614-.59-2.851-2.123-4.641-2.247a5.642,5.642,0,0,0-2.356.581,4.79,4.79,0,0,1-3.177.15,8.422,8.422,0,0,1-1.833-.785,8.388,8.388,0,0,0-.915-1.272,11.035,11.035,0,0,1-2.206-2.763,8.454,8.454,0,0,1-.388-3.3,12.487,12.487,0,0,0-1.926-5.058,11,11,0,0,1-1.236-7.789Z" transform="translate(-2751.456 -372.598)" fill="#914a4a"/>
        <path id="Path_88978" data-name="Path 88978" d="M2857.77,323.862c-.151-.694-1.216-.875-1.889-1.055-.045-.079-.174-.106-.209,0q-.9,2.606-1.61,5.27a.088.088,0,0,0,.076.114,14.019,14.019,0,0,0,1.708,3.285c.08.114.252-.019.172-.134l-.054-.081Z" transform="translate(-2809.019 -315.09)" fill="#ff9775"/>
        <path id="Path_88979" data-name="Path 88979" d="M2864.51,305.124a9.006,9.006,0,0,0-1.32-.932c-.445-.247-.2-.581-.655-.8a.1.1,0,0,0-.1,0,.116.116,0,0,0-.135,0,8.035,8.035,0,0,0-2.476,2.117,2.906,2.906,0,0,0-.28,1.4c-.029.548-.243,2.22-.243,2.22a6.68,6.68,0,0,1,1.832,1.054.108.108,0,0,0,.058.024c.045.044.268.095.3.017.5-1.419,1.979-2.31,2.954-3.874C2864.63,306.045,2864.82,305.455,2864.51,305.124Z" transform="translate(-2812.99 -300.383)" fill="#ff9775"/>
        <path id="Path_88980" data-name="Path 88980" d="M2861.61,295.923c-.207.051-.227.351-.264.508-.139.59-.292,1.177-.467,1.758a8.436,8.436,0,0,0-.644,3.059,2.824,2.824,0,0,0,1.323-.8,2.182,2.182,0,0,0-.059-1.274,8.448,8.448,0,0,0,.551-2.09C2862.08,296.823,2862.17,295.785,2861.61,295.923Z" transform="translate(-2813.69 -294.715)" fill="#ff9775"/>
        <path id="Path_88981" data-name="Path 88981" d="M2875.28,291.361c-.691-.554-1.7.4-2.223.8a31.889,31.889,0,0,1-2.617,2.279c.125-.179.609-.718.7-.838.321-.41.641-.824,1-1.2.2-.209.411-.4.618-.591a3.636,3.636,0,0,0,.395-.352.408.408,0,0,0,.1-.239c0-.073-.029-.244-.119-.258-.78-.122-1.595.771-2.1,1.263a21.411,21.411,0,0,0-1.9,2.239,22.812,22.812,0,0,0,1.918,3.268,35.315,35.315,0,0,1,2.67-2.525,9.535,9.535,0,0,0,1.337-.9c-.119-.409-.861-.179-1.2-.06-.247.088-2.007,1.293-1.8.912.566-.349,1.057-.753,1.609-1.124.292-.195.653-.342.951-.531.121-.076.853-.51.573-.705-.552-.385-1.222.145-1.721.456a21.653,21.653,0,0,1-2.055,1.514c.082-.075,1.5-1.413,1.589-1.481.75-.632,1.5-1.13,2.266-1.74a.118.118,0,0,0,.045-.093A.119.119,0,0,0,2875.28,291.361Z" transform="translate(-2820.454 -290.951)" fill="#ff9775"/>
        <path id="Path_88982" data-name="Path 88982" d="M2734.23,694.581l-.049.011c-.437.106-.251.778.186.672l.121-.026a.333.333,0,0,0,.258-.056,24.006,24.006,0,0,1,8.021-.419,4.316,4.316,0,0,0,2.817-.315,7.485,7.485,0,0,0,2.074-2,10.68,10.68,0,0,0,1.6-10.008c-1.044-2.866-4.02-6.609-7.431-6.483-1.769.063-3.158,1.42-4.387,2.532a16.428,16.428,0,0,0-3.965,4.712,7.393,7.393,0,0,0-.536,5.294C2733.47,690.495,2734.62,692.457,2734.23,694.581Z" transform="translate(-2716.92 -583.358)" fill="#4f2f2f"/>
        <path id="Path_88983" data-name="Path 88983" d="M2815.95,362.468c.461-1.764,3.375-10.869,4.053-13.743.5-2.137.8-4.322,1.336-6.451s2.5-6.245,3.979-11.492a.334.334,0,0,1,.255-.222.306.306,0,0,1,.3.136c.622.958,1.827,2.849,2.212,3.318.486.59.971,1.162,1.4,1.756a1.227,1.227,0,0,1,.235.819,14.683,14.683,0,0,1-.963,4.307,21.336,21.336,0,0,0-.894,4.689,59.193,59.193,0,0,0-.383,6.087,18.821,18.821,0,0,1-.729,4.655c-.483,1.538-1.4,2.849-1.879,4.4-.991,3.216-.789,6.646-1.555,9.914a.307.307,0,0,1-.283.237c-.216.013-.492-.016-.482-.056a15.263,15.263,0,0,0-2.915-3.982q-1.736-2.011-3.531-3.97a.292.292,0,0,1-.155-.238.328.328,0,0,1,0-.164Z" transform="translate(-2780.096 -321.03)" fill="#f0a35e"/>
        <path id="Path_88984" data-name="Path 88984" d="M2822.1,629.352a27.114,27.114,0,0,0,1.7,8.237.354.354,0,0,0,.337.255,6.264,6.264,0,0,1,5.4,2.292c.928,1.119,1.6,2.411,2.488,3.559-.012.114-.022.236-.035.353-.035.326.327.41.544.261.013.014.024.03.038.043.3.332.8-.162.494-.492-.111-.121-.216-.245-.32-.371a122.867,122.867,0,0,0,.349-19.372,158.619,158.619,0,0,0-1.787-17.207c-.259-1.547-.793-4.558-2.434-5.327s-2.984,2.017-3.408,3.145c-1.92,5.11-2.392,10.859-2.865,16.252A79.093,79.093,0,0,0,2822.1,629.352Z" transform="translate(-2784.762 -526.781)" fill="#f0a35e"/>
        <path id="Path_88985" data-name="Path 88985" d="M2795.87,851.339c1.992.417,3.791.313,5.609,1.253.345.178.721-.342.4-.57a5.22,5.22,0,0,1-1.533-1.7,8.433,8.433,0,0,1,.027-4.167c.37-1.709.75-3.419,1.125-5.128a.344.344,0,0,0,.023-.324.267.267,0,0,0-.245-.167l-2.451-.262a.358.358,0,0,0-.415.273c-.253,1.87-.435,3.76-.851,5.6a13.61,13.61,0,0,1-.727,2.491c-.281.636-.316,1.274-.8,1.721C2795.83,850.543,2795.63,851.287,2795.87,851.339Z" transform="translate(-2764.78 -708.164)" fill="#ff9775"/>
        <path id="Path_88986" data-name="Path 88986" d="M2728.11,804.736a22.3,22.3,0,0,1,4.58,3.966c.246.3.8-.029.59-.373a5.21,5.21,0,0,1-.738-2.165,8.427,8.427,0,0,1,1.675-3.817c1.017-1.427,2.043-2.849,3.064-4.272a.312.312,0,0,0-.01-.538l-2.148-1.2a.359.359,0,0,0-.488.088c-.973,1.618-1.887,3.279-3,4.81a14.141,14.141,0,0,1-1.592,2.1,5.851,5.851,0,0,1-1.851,1.14C2727.94,804.577,2727.91,804.6,2728.11,804.736Z" transform="translate(-2713.357 -674.757)" fill="#ff9775"/>
        <path id="Path_88987" data-name="Path 88987" d="M2785.43,651.508a.228.228,0,0,0,.126.2c1.614.789,3.192,1.633,4.8,2.426.589.291,4.136,2.3,4.628,1.871a.61.61,0,0,0,.162-.391c.688-4.458,2.211-8.745,3.045-13.175.7-3.739,2.35-11.178,2.429-14.974.084-4.041.451-15.691.188-19.458-.216-3.1-.444-9.3-.465-9.485a9.455,9.455,0,0,0-3.2-6.651,6.723,6.723,0,0,0-6.306-1.124c-4.521,1.734-3.866,7.83-3.359,11.352.839,5.836,3.03,11.5,3.069,17.435a21.37,21.37,0,0,1-1.828,8.466c-1.059,2.563-1.8,4.911-1.407,7.67a23.514,23.514,0,0,1,.446,4.249,17.99,17.99,0,0,1-.8,4.191C2786.26,646.551,2785.41,648.957,2785.43,651.508Z" transform="translate(-2756.947 -518.374)" fill="#606060"/>
        <path id="Path_88988" data-name="Path 88988" d="M2740.84,636.9a.227.227,0,0,1,.043.1,22.45,22.45,0,0,1-2.53-3.552c-.563-1.279-2.539-3.62-3.234-4.846a1.248,1.248,0,0,1-.113-.965,17.685,17.685,0,0,1,.706-1.833,19.907,19.907,0,0,1,5.251-7.749c2.48-2.093,4.2-13.235,3.53-18-.717-5.115-1.088-16.692,1.713-19.274l7.293-5.164a1.1,1.1,0,0,0,.3-.278.21.21,0,0,1,.07-.068.24.24,0,0,1,.319.083,2.481,2.481,0,0,1,.384.745.226.226,0,0,1,.011.1,1.664,1.664,0,0,0,.008.647c2.122,7.966,1.232,16.258.642,24.379-.158,2.179-.295,4.361-.347,6.545-.05,2.115.075,4.235-.017,6.347a13.144,13.144,0,0,1-1.1,5.1,31.782,31.782,0,0,1-3.536,5.174l-9.289,12.436a.247.247,0,0,1-.1.083Z" transform="translate(-2718.652 -506.867)" fill="#606060"/>
        <path id="Path_88989" data-name="Path 88989" d="M2819.91,648.881c-1.063-.57-1.819-1.6-2.87-2.2-1.14-.659-2.591-.818-3.572-1.746-.9-.854-1.047-2.352-1.182-3.574,1.743-.849,3.586-.2,5.415.034,1.071.138,2.149.187,3.228.228.077,1.695.169,3.5.258,4.778.051.735.078,1.773.089,2.994a6,6,0,0,1-1.366-.511Z" transform="translate(-2777.319 -556.765)" fill="#4f2f2f"/>
        <path id="Path_88990" data-name="Path 88990" d="M2803.17,601.978a.329.329,0,0,0,0-.1,8.334,8.334,0,0,0-1.382-2.728c-.65-1.026-.517-2.1-.964-3.183a6.194,6.194,0,0,0-1.492-1.937,3.871,3.871,0,0,1-1.036-1.55,5.068,5.068,0,0,1,2.3-1.726,6.724,6.724,0,0,1,6.307,1.124,9.456,9.456,0,0,1,3.2,6.651c.011.1.083,1.944.179,4.1a33.929,33.929,0,0,1-4.36-.411A11.16,11.16,0,0,0,2803.17,601.978Z" transform="translate(-2766.706 -518.374)" fill="#4f2f2f"/>
        <path id="Path_88991" data-name="Path 88991" d="M2812.28,641.353a4.574,4.574,0,0,1,2.27-.419c-.05,1.528-.137,3.056-.24,4.583a3.736,3.736,0,0,1-.848-.59C2812.56,644.072,2812.42,642.573,2812.28,641.353Z" transform="translate(-2777.319 -556.758)" fill="#4f2f2f"/>
        <path id="Path_88992" data-name="Path 88992" d="M2767.98,486.136c.072,3.109-.084,6.216-.25,9.32-.065,1.181-.275,3.386.69,4.307.846.807,2.907.809,4.017.885.065,0,.128.009.194.009s.161.011.24.011a13.919,13.919,0,0,0,2.312-.089c.082-.007.164-.018.243-.027q.549-.076,1.07-.195a.4.4,0,0,1,.4.095.534.534,0,0,1,.157.431c-.089.495-.194.99-.3,1.481-.5,2.232-1.082,4.461-.639,6.731a8.06,8.06,0,0,0,1.578,1.749c.065.063.131.123.2.183a7.694,7.694,0,0,0,2.259,1.538,5.565,5.565,0,0,0,1.268.253c.077.007.154.011.231.016,1.469.1,3.033-.079,4.234.7a.2.2,0,0,0,.211.015.255.255,0,0,0,.13-.189.175.175,0,0,0,.116-.153,88.575,88.575,0,0,0,.625-18.574c0-.007,0-.009,0-.016-.093-1.845-.4-3.674-.553-5.514-.179-2.145-.125-4.294-.175-6.443a20.484,20.484,0,0,0-.725-5.812,17.758,17.758,0,0,0-2.609-4.544c-1.511-2.165-3.35-6.213-6.539-5.888a.255.255,0,0,1-.059,0,68.879,68.879,0,0,0-8.422-.1,2.28,2.28,0,0,0-1.8.872,2.99,2.99,0,0,0-.641,2.1,29.713,29.713,0,0,0,1.112,7.824q.674,2.177,1.137,4.428a38.6,38.6,0,0,1,.286,4.585Z" transform="translate(-2741.769 -424.076)" fill="#f0dddd"/>
        <path id="Path_88993" data-name="Path 88993" d="M2842.18,556.43c.025-.394.037-.79.031-1.189,0-.255-.014-.511-.027-.766a40.071,40.071,0,0,1,1.635-12.176c.013,1.529.023,3.057.152,4.582.155,1.841.458,3.669.552,5.515v.015a88.492,88.492,0,0,1-.624,18.581.178.178,0,0,1-.117.153.253.253,0,0,1-.129.188.2.2,0,0,1-.209-.015,4.441,4.441,0,0,0-2.148-.615A132.725,132.725,0,0,0,2842.18,556.43Z" transform="translate(-2799.337 -481.853)" fill="#4f2f2f"/>
        <path id="Path_88994" data-name="Path 88994" d="M2810.64,458.667c1.058-.931,2.555-1.1,3.839-1.687a.373.373,0,0,1,.508.456,44.889,44.889,0,0,1,5.961,13.426,49.5,49.5,0,0,1,1.2,10.328c.077,4.417,1.02,7.006,1.565,11.359.965,7.7,1.776,15.419,2.593,23.133q.532,5.029,1.047,10.059a28.717,28.717,0,0,1,.306,3.045,16.2,16.2,0,0,1-1.394,5.271c-.306.75-2.781,3.458-3.035,1.358-.207-1.709-.424-3.419-.551-5.119-.464-6.194.97-12.347.284-18.538-.653-5.889-2.536-11.589-2.869-17.521-.173-3.1.109-6.2.08-9.3A34.679,34.679,0,0,0,2819,476.3a56.106,56.106,0,0,0-8.4-17.062.625.625,0,0,1,.042-.578Z" transform="translate(-2775.985 -417.024)" fill="#f0a35e"/>
        <path id="Path_88995" data-name="Path 88995" d="M2794.36,414.862a6.834,6.834,0,0,0,2.567,3.977c1.473,1.092,3.338,1.266,4.918,2.139a4.814,4.814,0,0,1,2.209,2.393,25.973,25.973,0,0,0,1.228,2.615,13.864,13.864,0,0,0,3.42,4.025c.967.67,2.472-1.411,2.756-2.165a3.219,3.219,0,0,0-.1-2.037,6.661,6.661,0,0,1-.583-3.419c.536-3.364-2.385-5.155-3.743-7.872-.823-1.648-.8-3.411-1.37-5.119a6.951,6.951,0,0,0-2.534-3.136c-1.936-1.569-4.782-3.5-6.723-.934a6.506,6.506,0,0,0-1.289,3.827,17.623,17.623,0,0,1,.036,3.069,5.476,5.476,0,0,1-1.078,2.314C2793.92,414.736,2794.17,414.928,2794.36,414.862Z" transform="translate(-2763.467 -376.874)" fill="#914a4a"/>
        <path id="Path_88996" data-name="Path 88996" d="M2797.94,436.23c-1.647.971-3.612-.181-4.85-1.374a25.339,25.339,0,0,0,1.124-10.542.208.208,0,0,1,.009-.083c-.01-.011-.02-.022-.029-.033-.194-.228.135-.557.329-.328a13.359,13.359,0,0,0,2.567,2.328c.914.634,1.593,1.5,2.491,2.134a.25.25,0,0,1,.1.237.228.228,0,0,1-.154.2.22.22,0,0,1-.013.06C2798.49,431.181,2797.5,433.632,2797.94,436.23Z" transform="translate(-2762.757 -391.843)" fill="#ff9775"/>
        <path id="Path_88997" data-name="Path 88997" d="M2807.8,432.92a.22.22,0,0,1-.013.06,20.308,20.308,0,0,0-1.547,4.6,3.729,3.729,0,0,1-1.352-1.1,5.1,5.1,0,0,1-.656-2.325,42.163,42.163,0,0,1-.236-4.892,13.227,13.227,0,0,0,1.368,1.089c.914.634,1.593,1.5,2.49,2.134a.25.25,0,0,1,.1.236.229.229,0,0,1-.152.2Z" transform="translate(-2771.029 -395.998)" fill="#cf6c5a"/>
        <path id="Path_88998" data-name="Path 88998" d="M2822.17,489.19a22.066,22.066,0,0,1,.34,4.566c-.052,2.974-.231,5.951-.354,8.923a144.775,144.775,0,0,1-1.3,17.376c.077.007.154.011.231.016a89.908,89.908,0,0,0,.949-9.433c.168-3.069.278-6.143.4-9.215.128-3.039.387-6.109.3-9.153a28.78,28.78,0,0,0-1.879-8.5,80.281,80.281,0,0,0-3.233-7.961c-.063-.134-.263-.016-.2.114a79.6,79.6,0,0,1,3.627,9.153,33.9,33.9,0,0,1,1.119,4.115Z" transform="translate(-2781.212 -431.305)" fill="#fff"/>
        <path id="Path_88999" data-name="Path 88999" d="M2815.13,484.6a22.358,22.358,0,0,1,1.3,8.084c-.088,2.869-.506,5.718-.641,8.585a75.839,75.839,0,0,1-.86,8.844c-.462,2.793-1.065,5.558-1.669,8.319.065.063.13.123.2.183.709-3.225,1.415-6.457,1.9-9.728q.551-4.262.713-8.572c.163-2.934.638-5.855.6-8.8a23.257,23.257,0,0,0-1.573-7.679,66.5,66.5,0,0,1-2.564-7.53c-.038-.154-.261-.088-.227.065A83.654,83.654,0,0,0,2815.13,484.6Z" transform="translate(-2777.338 -431.663)" fill="#fff"/>
        <path id="Path_89000" data-name="Path 89000" d="M2807.85,495.548a28.276,28.276,0,0,1-.872,6.367c-.664,3.506-.818,7.089-1.5,10.591.081-.007.163-.018.242-.029.338-1.756.55-3.533.755-5.309a62.385,62.385,0,0,1,.972-6.381,20.394,20.394,0,0,0,.571-6.267,78.991,78.991,0,0,0-2.438-12.509.117.117,0,0,0-.226.063c.583,2.328,1.154,4.661,1.618,7.015A41.45,41.45,0,0,1,2807.85,495.548Z" transform="translate(-2772.06 -435.995)" fill="#fff"/>
        <path id="Path_89001" data-name="Path 89001" d="M2795.29,509.643c.08.007.161.011.241.011a32.534,32.534,0,0,0,1.14-5.38c.277-2.071.443-4.157.632-6.237.205-2.27.478-4.544.485-6.827a38.968,38.968,0,0,0-.688-6.371q-.549-3.354-1.1-6.7c-.023-.146-.249-.083-.226.063q.612,3.74,1.223,7.482a32.855,32.855,0,0,1,.53,6.571c-.082,2.189-.334,4.376-.531,6.559a51.233,51.233,0,0,1-1.706,10.832Z" transform="translate(-2764.425 -433.056)" fill="#fff"/>
        <path id="Path_89002" data-name="Path 89002" d="M2787.95,408.642c.882,1.59,1.9,3.106,2.865,4.644a8.192,8.192,0,0,0,3.265,2.573,2.958,2.958,0,0,0,2.315.267c1.263-.456,1.9-2.849,2.038-4.26.321-3.408.8-7.334-3.738-9.081-2.308-.889-6.966-.713-7.58,2.219a5.367,5.367,0,0,0,.835,3.639Z" transform="translate(-2758.169 -375.529)" fill="#ff9775"/>
        <path id="Path_89003" data-name="Path 89003" d="M2786.41,463.539a.293.293,0,0,0,.043.31,9.315,9.315,0,0,0,3.385,3.6,3.375,3.375,0,0,0,1.1.409c.068.01.407.07.436-.043.14-.542.382-1.091.475-1.643a.038.038,0,0,1,.021-.025.031.031,0,0,1,.03,0,5.038,5.038,0,0,1,1.4,1.756c.07.128.814.073.654-2.279a6.807,6.807,0,0,0-.814-2.582c-.049-.1-.116-.1-.288.056-.125-.01.316,2.265-1.156,2.415a2.216,2.216,0,0,1-1.251-.578,6.539,6.539,0,0,1-1.694-1.9c-.208-.342-.293-.65-.757-.526a4,4,0,0,0-.839.408c-.3.161-.608.292-.74.6a.217.217,0,0,1,0,.022Z" transform="translate(-2757.666 -421.223)" fill="#4f2f2f"/>
        <path id="Path_89004" data-name="Path 89004" d="M2752.13,768.264c3.139-1.57,6.334-3.191,8.751-5.8.1-.114.266.055.165.164-2.429,2.621-5.641,4.257-8.8,5.838C2752.12,768.532,2752,768.331,2752.13,768.264Z" transform="translate(-2731.637 -649.04)" fill="#4f2f2f"/>
        <path id="Path_89005" data-name="Path 89005" d="M2813.34,492.417c-.053-.14.172-.2.225-.062a40.7,40.7,0,0,1,2.01,6.381,24.011,24.011,0,0,1,.28,6.5,106.234,106.234,0,0,1-2.092,13.465c-.031.146-.256.084-.225-.062a105.76,105.76,0,0,0,2.084-13.4,23.618,23.618,0,0,0-.314-6.648,42.131,42.131,0,0,0-1.968-6.167Z" transform="translate(-2778.114 -443.861)" fill="#4f2f2f"/>
        <path id="Path_89006" data-name="Path 89006" d="M2704.75,529.076c3.948-18.433,8.906-23.8,10.249-30.217,1.306-6.245.686-9.638.457-16.024-.179-5.029-.8-19.16,2.108-20.277.445-.08.9-.114,1.335-.17,1.27-.157,4.92.42,6.118.3a.5.5,0,0,1,.525.313c5.051,12.721.59,39.363-.494,44.138-.574,2.531-7.408,24.983-8.7,30.477a45.014,45.014,0,0,0-5.227-.936,11.874,11.874,0,0,1-4.472-1.411c-1.493-.825-1.9-1.191-1.894-2.867a16.036,16.036,0,0,1,0-3.322Z" transform="translate(-2695.653 -421.136)" fill="#f0a35e"/>
        <path id="Path_89007" data-name="Path 89007" d="M2699.97,329.588l-.043.088c-.063.124.125.228.189.114a14.049,14.049,0,0,0,1.242-3.487.086.086,0,0,0,.06-.122q-1.069-2.541-2.318-5a.107.107,0,0,0-.109-.056.117.117,0,0,0-.091.087c-.651.271-1.682.6-1.736,1.3Z" transform="translate(-2689.977 -313.861)" fill="#ff9775"/>
        <path id="Path_89008" data-name="Path 89008" d="M2794.5,693.095l3.071-4.82a12.071,12.071,0,0,0,2.1-5.178c.209-1.887.17-3.817.229-5.714q.091-2.948.182-5.9.106-3.411.211-6.821a.117.117,0,0,1,.233,0q-.189,6.127-.379,12.255c-.062,1.983-.039,3.988-.222,5.965a10.911,10.911,0,0,1-1.672,4.736c-1.142,1.887-2.365,3.73-3.551,5.591A.116.116,0,0,1,2794.5,693.095Z" transform="translate(-2763.812 -574.71)" fill="#4f2f2f"/>
        <path id="Path_89009" data-name="Path 89009" d="M2698.56,334.7a9.5,9.5,0,0,1,1.268-2.554.385.385,0,0,1,.645,0,20.766,20.766,0,0,1,1.678,3.2c.9,2.165,11.952,27.5,15.8,28.32,3.016.645-.818,2.128-.8,5.377a.288.288,0,0,1,.157.195.334.334,0,0,1-.04.261,85.128,85.128,0,0,1-5.5,8.184c-1.437,1.81-2.642,1.227-2.655,1.11-.273-2.44-1.5-5.963-1.666-7.572a18.029,18.029,0,0,0-1.331-5.551c-.977-2.227-2.193-4.344-3.092-6.6a30.44,30.44,0,0,1-2.168-7.232,18.086,18.086,0,0,0-2.007-7.293,26.35,26.35,0,0,1-2.342-6.141.383.383,0,0,1,.091-.375A7.024,7.024,0,0,0,2698.56,334.7Z" transform="translate(-2689.463 -322.102)" fill="#f0a35e"/>
        <path id="Path_89010" data-name="Path 89010" d="M2824.54,600.457a55,55,0,0,0,.856,8.2c.026.146-.2.208-.225.062a55.532,55.532,0,0,1-.865-8.268C2824.3,600.307,2824.53,600.307,2824.54,600.457Z" transform="translate(-2786.442 -525.937)" fill="#4f2f2f"/>
        <path id="Path_89011" data-name="Path 89011" d="M2830.04,606.835c.2.684.628,2.227,1.494,2.333.147.018.149.251,0,.228-1.044-.127-1.474-1.659-1.719-2.507C2829.77,606.753,2830,606.693,2830.04,606.835Z" transform="translate(-2790.617 -530.804)" fill="#4f2f2f"/>
        <path id="Path_89012" data-name="Path 89012" d="M2745.36,454.286c1.536,2.559,1.767,5.576,1.954,8.485.009.149-.224.149-.233,0-.184-2.868-.406-5.842-1.922-8.368A.116.116,0,0,1,2745.36,454.286Z" transform="translate(-2726.375 -414.962)" fill="#4f2f2f"/>
        <path id="Path_89013" data-name="Path 89013" d="M2747.84,603.8a20.34,20.34,0,0,0,1.854-4.845c.035-.146.26-.084.225.062a20.574,20.574,0,0,1-1.877,4.9C2747.97,604.046,2747.77,603.929,2747.84,603.8Z" transform="translate(-2728.413 -524.817)" fill="#4f2f2f"/>
        <path id="Path_89014" data-name="Path 89014" d="M2739.06,648.539a2.641,2.641,0,0,0,1.256,1.588.986.986,0,0,0,1.218-.317,8.039,8.039,0,0,0,1.9-1.674,6.992,6.992,0,0,0,1.023-2.447A65.43,65.43,0,0,0,2745.91,639a.127.127,0,0,0-.148-.142.1.1,0,0,0-.13-.011l-6.061,3.73a.112.112,0,0,0-.053.075.094.094,0,0,0-.048.073c-.164,1.08-.332,2.159-.493,3.24a5.191,5.191,0,0,0,.083,2.574Zm.033-1.661c.1-1.367.4-2.735.6-4.091a.128.128,0,0,0,0-.014l5.962-3.669q-.493,2.976-1.252,5.882a9.02,9.02,0,0,1-1.046,2.859,6.962,6.962,0,0,1-1.834,1.689.1.1,0,0,0-.122.053c-.012.022-.025.038-.036.058l-.17.114a.122.122,0,0,0-.045.135c-.568.419-1.412-.478-1.677-1a3.741,3.741,0,0,1-.383-2.019Z" transform="translate(-2721.608 -555.167)" fill="#4f2f2f"/>
        <path id="Path_89015" data-name="Path 89015" d="M2864.81,641.881a5.911,5.911,0,0,1,1.031,1.909c.046.142-.179.2-.225.061a5.578,5.578,0,0,0-.971-1.8C2864.55,641.93,2864.72,641.765,2864.81,641.881Z" transform="translate(-2817.027 -557.455)" fill="#4f2f2f"/>
        <path id="Path_89016" data-name="Path 89016" d="M2855.63,650.08q.4,3.333,1.028,6.633c.409,2.139.982,4.246,1.369,6.388a33.292,33.292,0,0,1,.324,6.319l-.074,6.679a.117.117,0,0,1-.233,0q.038-3.339.074-6.679a32.34,32.34,0,0,0-.4-6.7c-.424-2.137-.969-4.245-1.368-6.381q-.579-3.11-.953-6.253C2855.38,649.932,2855.61,649.935,2855.63,650.08Z" transform="translate(-2810.032 -563.629)" fill="#4f2f2f"/>
        <path id="Path_89017" data-name="Path 89017" d="M2683.43,306.67c1.18,1.414,2.767,2.094,3.457,3.432.038.073.252-.006.291-.057a.106.106,0,0,0,.054-.031,6.682,6.682,0,0,1,1.67-1.293s-.441-1.628-.546-2.165a2.892,2.892,0,0,0-.47-1.353,8.044,8.044,0,0,0-2.744-1.759.115.115,0,0,0-.133.019.1.1,0,0,0-.1.009c-.424.28-.131.578-.538.883a8.982,8.982,0,0,0-1.18,1.1C2682.93,305.829,2683.2,306.386,2683.43,306.67Z" transform="translate(-2679.293 -300.425)" fill="#ff9775"/>
        <path id="Path_89018" data-name="Path 89018" d="M2694.81,296.468a8.452,8.452,0,0,0,.833,2,2.165,2.165,0,0,0,.117,1.269,2.823,2.823,0,0,0,1.421.615,8.436,8.436,0,0,0-1.056-2.942q-.38-.827-.7-1.679c-.058-.15-.119-.444-.332-.467C2694.52,295.2,2694.75,296.217,2694.81,296.468Z" transform="translate(-2688.119 -294.219)" fill="#ff9775"/>
        <path id="Path_89019" data-name="Path 89019" d="M2667.39,293.791c.844.5,1.654.891,2.484,1.415.094.059,1.686,1.191,1.777,1.254a21.6,21.6,0,0,1-2.243-1.22c-.537-.235-1.273-.668-1.767-.211-.25.228.534.562.664.62.321.145.7.244,1.015.4.6.291,1.139.626,1.748.893.262.349-1.647-.605-1.9-.659-.347-.072-1.114-.2-1.176.228a9.654,9.654,0,0,0,1.448.706c.763.261,2.284,1.757,2.992,2.137a22.76,22.76,0,0,0,1.452-3.5,21.4,21.4,0,0,0-2.193-1.959c-.564-.418-1.493-1.192-2.249-.965-.087.026-.095.2-.083.271a.413.413,0,0,0,.13.228,3.651,3.651,0,0,0,.439.3c.232.165.472.321.693.5.406.328.779.694,1.153,1.056.109.106.664.57.812.734a32.063,32.063,0,0,1-2.906-1.9c-.574-.331-1.7-1.139-2.312-.492a.125.125,0,0,0-.025.093.115.115,0,0,0,.047.081Z" transform="translate(-2667.342 -292.415)" fill="#ff9775"/>
        <path id="Path_89020" data-name="Path 89020" d="M2865.54,314.412c.307-1.321,1.473-2.051,2.578-2.676a.116.116,0,0,1,.118.2c-1.052.6-2.178,1.276-2.471,2.537C2865.73,314.619,2865.51,314.557,2865.54,314.412Z" transform="translate(-2817.726 -306.723)" fill="#cf6c5a"/>
        <path id="Path_89021" data-name="Path 89021" d="M2686.35,311.721a18.863,18.863,0,0,1,1.907,1,1.237,1.237,0,0,1,.633,1.052.117.117,0,0,1-.233,0c0-.651-.621-.925-1.119-1.181l-1.3-.668C2686.1,311.853,2686.22,311.652,2686.35,311.721Z" transform="translate(-2681.638 -306.713)" fill="#cf6c5a"/>
        <path id="Path_89022" data-name="Path 89022" d="M2824.7,429.208a1.869,1.869,0,0,0,.636-1.774c-.13-.524-.341-1.038-.512-1.551-.048-.142.177-.2.225-.061a5.875,5.875,0,0,1,.582,2.173,2.57,2.57,0,0,1-.767,1.378C2824.76,429.487,2824.6,429.321,2824.7,429.208Z" transform="translate(-2786.716 -393.323)" fill="#cf6c5a"/>
        <path id="Path_89023" data-name="Path 89023" d="M2819.61,437.35a2.563,2.563,0,0,1,.925-.319c.147-.021.211.2.062.228a2.391,2.391,0,0,0-.869.3C2819.6,437.626,2819.48,437.425,2819.61,437.35Z" transform="translate(-2782.837 -401.897)" fill="#cf6c5a"/>
        <path id="Path_89024" data-name="Path 89024" d="M2809.31,428.724a1.373,1.373,0,0,1,1.862.155c.2.2-.247.156-.283.15a5.429,5.429,0,0,0-1.532-.088C2809.26,428.954,2809.23,428.78,2809.31,428.724Z" transform="translate(-2775.028 -395.366)" fill="#543333"/>
        <path id="Path_89025" data-name="Path 89025" d="M2828.7,428.752a.966.966,0,0,1,.62-.482c.231-.046.929.211.652.45-.108.092-.379-.022-.511-.017a1.038,1.038,0,0,0-.568.214C2828.76,429.015,2828.63,428.888,2828.7,428.752Z" transform="translate(-2789.761 -395.24)" fill="#543333"/>
        <path id="Path_89026" data-name="Path 89026" d="M2817.32,444.555c.389.733,1.951,1.331,2.5.456.007-.011.089-.089.071-.146-.091-.279-.419-.187-.663-.187a6.655,6.655,0,0,1-1.793-.267.084.084,0,0,0-.1.028.116.116,0,0,0-.015.116Z" transform="translate(-2781.129 -407.5)" fill="#fff"/>
        <path id="Path_89027" data-name="Path 89027" d="M2821.51,451.339a1.542,1.542,0,0,0,.581.052c.149-.014.148.219,0,.228a1.716,1.716,0,0,1-.643-.062.119.119,0,0,1-.065-.145.1.1,0,0,1,.127-.074Z" transform="translate(-2784.208 -412.761)" fill="#cf6c5a"/>
        <path id="Path_89028" data-name="Path 89028" d="M2806.09,421.577a4.456,4.456,0,0,1,1.068-.035,3.349,3.349,0,0,0,.854.016c.258-.04.564-.247.433-.547a.64.64,0,0,0-.35-.3,2.341,2.341,0,0,0-.96-.238,1.4,1.4,0,0,0-1.331.824C2805.74,421.477,2805.93,421.6,2806.09,421.577Z" transform="translate(-2772.395 -389.318)" fill="#914a4a"/>
        <path id="Path_89029" data-name="Path 89029" d="M2826.69,421.859a1.677,1.677,0,0,0,.836.139c.257,0,.592.141.779-.1.224-.283-.459-.757-.663-.873a.772.772,0,0,0-1.042.106.473.473,0,0,0-.125.389A.438.438,0,0,0,2826.69,421.859Z" transform="translate(-2788.085 -389.63)" fill="#914a4a"/>
        <path id="Path_89030" data-name="Path 89030" d="M2783.38,403.14c.857-2.151,3.308-4.506,5.743-3.511a.25.25,0,0,1,.326-.014,2.143,2.143,0,0,1,.765,2.236,11.171,11.171,0,0,1-1.436,3.088,4.387,4.387,0,0,0-.122,2.425,5.572,5.572,0,0,1-.168,1.839c-.169.612-1.175,7.441-3.09,5.389-1.192-.121-1.65-6.165-2.157-7.625a5.463,5.463,0,0,1,.14-3.828Z" transform="translate(-2755.074 -373.311)" fill="#914a4a"/>
        <path id="Path_89031" data-name="Path 89031" d="M2803.45,398.275c-.232.605.55.414.589.485.238.444.462.9.679,1.35-.111.073.7,1.7.795,1.553.286-.444.737-.284,1.659.006a8.525,8.525,0,0,1,3.539,1.884,4.031,4.031,0,0,1,.8,1.14,9.238,9.238,0,0,0,1.052,5.185c.545,1.005,1.458,1.837,1.458,3.053a23.711,23.711,0,0,0-.1,2.8c.123,1.064.594,3.482,1.677,4.052.53.279.842.125,1.029-.211a.2.2,0,0,0,.144-.155c.616-2.785,1.675-6.09-.1-8.689a34.811,34.811,0,0,1-2.144-3.11c-.707-1.247-1.088-2.68-1.715-3.977a9.741,9.741,0,0,0-2.626-3.511,10.225,10.225,0,0,0-6.736-1.859Z" transform="translate(-2770.586 -372.417)" fill="#914a4a"/>
        <path id="Path_89032" data-name="Path 89032" d="M2835.02,422.219a18.128,18.128,0,0,1,.711,2.459,2.378,2.378,0,0,0,1.029,1.348,3.9,3.9,0,0,1,1.025.743c.543.67.323,1.577.379,2.367a4.262,4.262,0,0,0,1.588,2.981c.116.095-.05.259-.165.164a4.528,4.528,0,0,1-1.5-2.239,4.65,4.65,0,0,1-.169-1.349,2.473,2.473,0,0,0-.411-1.88,10.2,10.2,0,0,0-1.169-.79,2.328,2.328,0,0,1-.69-.9c-.4-.891-.4-1.9-.833-2.786C2834.75,422.206,2834.96,422.085,2835.02,422.219Z" transform="translate(-2794.409 -390.604)" fill="#4f2f2f"/>
        <path id="Path_89033" data-name="Path 89033" d="M2843.72,450.869a.117.117,0,0,1,.233,0,7.862,7.862,0,0,0,.254,3.279,14.922,14.922,0,0,0,1.559,2.043,9.882,9.882,0,0,1,1.331,5.168c.01.149-.223.148-.233,0-.145-2.1-.4-4.052-1.825-5.7a4.949,4.949,0,0,1-1.221-1.9A11.846,11.846,0,0,1,2843.72,450.869Z" transform="translate(-2801.141 -412.323)" fill="#4f2f2f"/>
        <path id="Path_89034" data-name="Path 89034" d="M2794.33,412.034a5.445,5.445,0,0,1,.2-1.267,5.2,5.2,0,0,1,1.672-1.85c.114-.1.28.067.165.164a4.56,4.56,0,0,0-1.668,1.937,17.615,17.615,0,0,0-.315,2.629c-.016.147-.25.148-.233,0Z" transform="translate(-2763.56 -380.524)" fill="#4f2f2f"/>
        <path id="Path_89035" data-name="Path 89035" d="M2788.79,416.61c.034-.146.259-.083.225.062a4.391,4.391,0,0,0,.26,2.318c.044.144-.181.205-.224.062a4.6,4.6,0,0,1-.261-2.441Z" transform="translate(-2759.432 -386.327)" fill="#4f2f2f"/>
        <path id="Path_89036" data-name="Path 89036" d="M2791.34,442.026c.225-.728-.056-1.445.11-2.172.033-.146.258-.084.225.062-.152.667.106,1.332-.061,2a10.354,10.354,0,0,0-.572,1.921c-.008.149-.242.149-.233,0a7.63,7.63,0,0,1,.531-1.813Z" transform="translate(-2761.03 -403.979)" fill="#4f2f2f"/>
        <path id="Path_89037" data-name="Path 89037" d="M2787.99,447.659a3.578,3.578,0,0,1,.572-.943c.1-.114.261.05.165.164a3.207,3.207,0,0,0-.512.841C2788.16,447.858,2787.94,447.8,2787.99,447.659Z" transform="translate(-2758.884 -409.225)" fill="#4f2f2f"/>
        <path id="Path_89038" data-name="Path 89038" d="M2789.51,428.482a.841.841,0,0,1,.469-.032.31.31,0,0,1,.188.121,3.85,3.85,0,0,1,.655,2.013,6.631,6.631,0,0,0,.145.8.294.294,0,0,1-.016.189,2.2,2.2,0,0,1-.239.416.3.3,0,0,1-.411.071,3.739,3.739,0,0,1-.938-1.393C2789.1,430.09,2788.62,428.8,2789.51,428.482Z" transform="translate(-2759.652 -395.366)" fill="#ff9775"/>
        <path id="Path_89039" data-name="Path 89039" d="M2791,430.84a3.817,3.817,0,0,1,.836,1.7c.053.14-.172.2-.225.062-.19-.5-.336-1.254-.776-1.6C2790.71,430.912,2790.88,430.749,2791,430.84Z" transform="translate(-2761.014 -397.176)" fill="#cf6c5a"/>
        <path id="Path_89040" data-name="Path 89040" d="M2791.48,434.527c.1-.114.26.05.165.164a.115.115,0,0,0-.025.092c.007.149-.226.149-.233,0a.356.356,0,0,1,.093-.256Z" transform="translate(-2761.466 -399.967)" fill="#cf6c5a"/>
        <path id="Path_89041" data-name="Path 89041" d="M2790.35,882.435a.083.083,0,0,0,.051.074.107.107,0,0,0,.086.091,13.591,13.591,0,0,0,3.575.51c.012-.076.042-.228.077-.418a.1.1,0,0,1,.044-.059.078.078,0,0,1,.068,0,8.886,8.886,0,0,1,2.394,1.006.094.094,0,0,0,.024.01c1.754.472,4.313.676,6.377.989a.1.1,0,0,0,.118-.124.059.059,0,0,0,.011-.015,1.021,1.021,0,0,0,.094-.581c-.021-.1-.119-.153-.23-.181a.083.083,0,0,1-.054-.046c-.3-.684-1.512-1.289-2.2-1.644a10.177,10.177,0,0,1-1.575-.828,21.19,21.19,0,0,1-1.647-1.438c-.214-.2-.931-1.026-1.085-.979a4.069,4.069,0,0,0-1.078.456,2.935,2.935,0,0,0-.3.216.082.082,0,0,1-.1,0,12.538,12.538,0,0,0-2.591-1.341.881.881,0,0,0-.169.044c-.833.483-1.2,2.068-1.54,2.892-.01.025-.022.014-.05.021C2790.39,881.159,2790.35,882.4,2790.35,882.435Z" transform="translate(-2760.677 -736.917)" fill="#914a4a"/>
        <path id="Path_89042" data-name="Path 89042" d="M2792.96,890.819a10.311,10.311,0,0,0,2.881.653,12.252,12.252,0,0,1,2.415.644,22.308,22.308,0,0,0,5.733,1.284c.142.013.109.228-.032.218a21.98,21.98,0,0,1-5.6-1.234,13.708,13.708,0,0,0-2.842-.737,9.14,9.14,0,0,1-2.639-.628A.108.108,0,1,1,2792.96,890.819Z" transform="translate(-2762.54 -746.548)" fill="#4f2f2f"/>
        <path id="Path_89043" data-name="Path 89043" d="M2810.89,882.508c.321.031.658.04.975.095a1.229,1.229,0,0,1,.681.373,1.87,1.87,0,0,0-.346.456c-.068.125.136.212.2.089a1.559,1.559,0,0,1,.3-.385l.073.073a10.535,10.535,0,0,0,1.087.93,1.157,1.157,0,0,0-.129.4.111.111,0,0,0,.219.032.947.947,0,0,1,.093-.3c.122.088.245.174.371.258s.256-.093.138-.172-.259-.181-.383-.276c.02-.023.042-.044.063-.066a.224.224,0,0,0,.163-.048.114.114,0,0,0,.036-.13l-.009-.018a.118.118,0,0,0-.047-.095,3.518,3.518,0,0,0-.657-.709c-.129-.12-.264-.228-.4-.342a.122.122,0,0,0-.025-.062c.665.143,1.515.228,1.5-.351-.024-.83-1.792-.2-2.164-.06l-.014.009c-.135-.038-.158.153-.063.21.137.081.269.167.4.258-.031.017-.06.036-.09.055-.246-.242-.486-.488-.728-.714-.1-.1-.241.076-.138.172.125.114.249.237.374.358a3.661,3.661,0,0,0-1.448-.261C2810.78,882.275,2810.74,882.494,2810.89,882.508Zm2.465-.12c-.124-.022-.247-.048-.369-.077a4.743,4.743,0,0,1,.512-.152,3.136,3.136,0,0,1,.374-.066q.594-.173.241.383a2.012,2.012,0,0,1-.763-.089Zm.525,1.206a6.094,6.094,0,0,1-.852-.7c.042-.024.085-.045.13-.066a5.361,5.361,0,0,1,.427.358,2.644,2.644,0,0,1,.435.456c.07.117.31.245-.14-.05Z" transform="translate(-2776.19 -739.739)" fill="#4f2f2f"/>
        <path id="Path_89044" data-name="Path 89044" d="M2717.36,829.475a.083.083,0,0,0,0,.089.1.1,0,0,0,.024.122,13.554,13.554,0,0,0,2.75,2.335c.051-.057.155-.167.289-.313a.086.086,0,0,1,.129.007,8.827,8.827,0,0,1,1.485,2.125.071.071,0,0,0,.015.021c1.23,1.333,3.283,2.867,4.861,4.231a.093.093,0,0,0,.094.033.106.106,0,0,0,.073-.075l.017-.007a1.023,1.023,0,0,0,.392-.442c.037-.1-.019-.191-.1-.276a.08.08,0,0,1-.021-.067,5.126,5.126,0,0,0-.981-2.563,10.123,10.123,0,0,1-.887-1.539,21.014,21.014,0,0,1-.622-2.092c-.072-.286-.24-1.359-.393-1.405a4.089,4.089,0,0,0-1.158-.185,2.968,2.968,0,0,0-.367.025.08.08,0,0,1-.085-.048,12.447,12.447,0,0,0-1.472-2.514.113.113,0,0,0-.128-.043.115.115,0,0,0-.039-.009c-.963-.034-2.125,1.108-2.852,1.625-.022.016-.026,0-.053-.009C2718.08,828.415,2717.39,829.44,2717.36,829.475Z" transform="translate(-2705.294 -697.998)" fill="#914a4a"/>
        <path id="Path_89045" data-name="Path 89045" d="M2722.15,834.763a10.275,10.275,0,0,0,2.086,2.087,12.19,12.19,0,0,1,1.7,1.83,22.219,22.219,0,0,0,4.158,4.138c.113.086-.031.253-.144.168a21.886,21.886,0,0,1-4.078-4.027,13.624,13.624,0,0,0-2.007-2.136,9.094,9.094,0,0,1-1.894-1.937A.108.108,0,0,1,2722.15,834.763Z" transform="translate(-2708.778 -703.944)" fill="#4f2f2f"/>
        <path id="Path_89046" data-name="Path 89046" d="M2740.99,838.5c.255.2.535.384.773.6a1.219,1.219,0,0,1,.376.677,1.886,1.886,0,0,0-.535.2c-.125.07,0,.252.124.184a1.568,1.568,0,0,1,.461-.165l.022.1a10.472,10.472,0,0,0,.421,1.368,1.169,1.169,0,0,0-.325.272c-.09.114.078.253.168.144a.935.935,0,0,1,.24-.2c.056.139.113.278.175.415s.267.057.209-.072-.122-.291-.176-.436c.029-.009.059-.015.088-.022a.224.224,0,0,0,.164.046.112.112,0,0,0,.1-.09V841.5a.118.118,0,0,0,.011-.1,3.478,3.478,0,0,0-.176-.949q-.068-.254-.16-.5a.128.128,0,0,0,.012-.065c.485.475,1.161,1,1.455.5.424-.714-1.406-1.127-1.8-1.2h-.016c-.093-.1-.216.046-.165.144.072.141.137.285.2.431h-.1c-.078-.335-.149-.671-.233-.992-.036-.138-.244-.064-.209.073.043.166.084.334.125.5a3.65,3.65,0,0,0-1.084-.991C2741.02,838.247,2740.88,838.412,2740.99,838.5Zm2.148,1.211c-.093-.084-.183-.172-.271-.262a4.8,4.8,0,0,1,.514.145,3.187,3.187,0,0,1,.352.143q.6.17,0,.456c-.143,0-.493-.391-.593-.482Zm-.2,1.3a6.074,6.074,0,0,1-.346-1.044.988.988,0,0,1,.145.014,5.518,5.518,0,0,1,.17.53,2.6,2.6,0,0,1,.124.617c0,.14.129.374-.091-.116Z" transform="translate(-2723.197 -706.675)" fill="#4f2f2f"/>
      </g>
      <g id="Group_12414" data-name="Group 12414" transform="translate(399.205 16.655)">
        <path id="Path_89047" data-name="Path 89047" d="M3493.42,841.837a15.425,15.425,0,0,0,2.182-1.273.326.326,0,0,1,.472.1.3.3,0,0,1,.29.3q.1,3.143.5,6.258.191,1.72.538,3.411c.1.44,1.171,2.906.374,2.8a9.267,9.267,0,0,0-4.264.456c-.259.09-.6-.21-.429-.476a6.638,6.638,0,0,0,1.1-3.7.368.368,0,0,1,.021-.125q-.329-3.615-.977-7.179a.364.364,0,0,1,0-.114.393.393,0,0,1,.007-.276.323.323,0,0,1,.181-.184Z" transform="translate(-3435.336 -725.669)" fill="#ffaa8f"/>
        <path id="Path_89048" data-name="Path 89048" d="M3467.88,893.945c1.33-.729,1.381-.659,2.748-1.409.342-.187,2.425-1.406,3.113-1.653a.273.273,0,0,1,.282.065c.359.366.6.838,1.149.715a6.552,6.552,0,0,0,1.25-.521l1.726-.8a.266.266,0,0,1,.363.14c.5,1.2.913,3.169-1.025,3.2a18.864,18.864,0,0,0-3.183.342c-1.253.238-2.512.456-3.778.62q-.7.09-1.412.153a1.448,1.448,0,0,1-1.155-.163C3467.72,894.443,3467.52,894.14,3467.88,893.945Z" transform="translate(-3415.818 -764.061)" fill="#4f2f2f"/>
        <path id="Path_89049" data-name="Path 89049" d="M3570.55,798.673a15.255,15.255,0,0,0,.421-2.485.371.371,0,0,1,.132-.242.286.286,0,0,1,.244-.058.3.3,0,0,1,.42-.026q2.476,1.937,5.137,3.632c.974.619,1.943,1.253,2.969,1.778.4.206,2.987.97,2.4,1.514a9.2,9.2,0,0,0-2.389,3.55c-.1.255-.547.325-.641.023a6.646,6.646,0,0,0-2.142-3.214.357.357,0,0,1-.083-.1c-1.9-1.481-4.253-2.628-6.152-3.862a.341.341,0,0,1-.083-.077.365.365,0,0,1-.233-.435Z" transform="translate(-3495.006 -691.211)" fill="#ffaa8f"/>
        <path id="Path_89050" data-name="Path 89050" d="M3600.31,832.365a10.542,10.542,0,0,0,2.477-2.879q.545-1.025,1.08-2.06c.567-1.093,1.166-2.182,1.659-3.311.776-1.777-.5-2.073-1.72-2.459a.309.309,0,0,0-.261.059.4.4,0,0,0-.145.255c0,.051-.008.1-.012.153a7.031,7.031,0,0,1-.7,2.312.647.647,0,0,1-.223.277c-.552.333-1.515-.438-1.959.268a.407.407,0,0,0-.047.15,12.3,12.3,0,0,0-.117,2.1,14.049,14.049,0,0,1-.368,2.532c-.14.735-.184,1.51-.329,2.25C3599.56,832.431,3600.01,832.452,3600.31,832.365Z" transform="translate(-3517.409 -711.139)" fill="#4f2f2f"/>
        <path id="Path_89051" data-name="Path 89051" d="M3497.67,623.674c-2.064-2.464-4.646-5.18-5.122-8.487a10.728,10.728,0,0,1,.865-4.995c.633-1.9,3.09-7.5,3.657-9.422,3.8-12.847-2.022-16.232-4.629-22.107a.366.366,0,0,0-.176-.362.265.265,0,0,0-.256-.093,3.873,3.873,0,0,0-2.283.177c-1.13.328-2.256.674-3.38,1.026q-3.478,1.081-6.922,2.269c-.331.114.9.276,1.144.385.17,2.092,1.629,4.058,1.573,6.165a3.018,3.018,0,0,1-.172.773c-.794,2.666-2.648,5.209-4.05,7.58a72.364,72.364,0,0,0-4.256,8.4,64.149,64.149,0,0,0-2.383,8.675,32.352,32.352,0,0,0-.571,5.567,53.849,53.849,0,0,0,.4,5.57c.541,5.783.809,11.687,2.236,17.332a.676.676,0,0,0,.65.507,13.419,13.419,0,0,0,5.593-1.015c2.857-1.229,5-3.847,8.051-4.663,3.255-.872,6.765-.377,9.931-1.65a9.64,9.64,0,0,0,4.925-4.574,1,1,0,0,0-.057-1.039C3500.98,627.587,3499.31,625.634,3497.67,623.674Z" transform="translate(-3418.147 -523.442)" fill="#f0dddd"/>
        <path id="Path_89052" data-name="Path 89052" d="M3536.86,581.026c.72,1.367,1.366,2.768,1.97,4.192s1.187,2.858,1.85,4.256a14.092,14.092,0,0,0,1.1,1.945,8.3,8.3,0,0,1,.853,1.453.119.119,0,0,1,.071-.01c1.009.178,1.63,5.453,2.042,4.457.8-1.937,1.053-1.576,1.555-1a2.6,2.6,0,0,0,1.481,1c.662-8.591-2.89-13.931-4.986-18.655a.367.367,0,0,0-.175-.362.264.264,0,0,0-.256-.093,3.873,3.873,0,0,0-2.283.177c-1.131.328-2.256.674-3.38,1.025l-.591.187Q3536.485,580.313,3536.86,581.026Z" transform="translate(-3468.498 -523.442)" fill="#4f2f2f"/>
        <path id="Path_89053" data-name="Path 89053" d="M3493.81,596.581c-.821,1.388-1.659,2.766-2.46,4.162.8-.056,1.608-.167,2.426-.276a6.714,6.714,0,0,1,3.53.137,36.56,36.56,0,0,0,4.257,1.884,16.8,16.8,0,0,0,4.89.464,2.964,2.964,0,0,0,2.976-2.357c.407-1.154.578-2.38.929-3.553a72.9,72.9,0,0,0,2.17-7.129,69.27,69.27,0,0,0-4.2-11.248.365.365,0,0,0-.177-.362.263.263,0,0,0-.256-.093,3.873,3.873,0,0,0-2.283.177c-1.131.328-2.256.674-3.38,1.026q-3.478,1.081-6.922,2.269c-.331.114.9.276,1.144.385.17,2.092,1.629,4.058,1.573,6.165a3,3,0,0,1-.172.773C3497.07,591.668,3495.22,594.21,3493.81,596.581Z" transform="translate(-3434.042 -523.442)" fill="#4f2f2f"/>
        <path id="Path_89054" data-name="Path 89054" d="M3518.48,620.076c-.047.744-.48,1.026-1.119,1.253a10.481,10.481,0,0,1-2.51.493c-1.078.1-2.163.076-3.243.114-1.2.042-2.362.275-3.555.369-1.794.142-3.466-.538-5.205-.839,1.054-1.783,2.058-3.512,2.8-4.935a11.8,11.8,0,0,0,2.908-1.578,23.893,23.893,0,0,1,4.534-3.2c1.3-.589,3.485-1.528,4.776-.482a.133.133,0,0,0,.026.014,58.311,58.311,0,0,1,.5,7.521C3518.4,619.225,3518.51,619.655,3518.48,620.076Z" transform="translate(-3442.891 -548.642)" fill="#4f2f2f"/>
        <path id="Path_89055" data-name="Path 89055" d="M3479.35,473.555a.313.313,0,0,0,.041.1l2.3,3.682c.846,1.355,1.432,2.37,1.171,4.016a.256.256,0,0,0,.115.276.338.338,0,0,0,.306.135c.992-.091,2.033.59,2.918.164.615-.3,2.848-1.729,2.5-1.949l-.023-.016a.413.413,0,0,0-.11-.3.311.311,0,0,0-.275-.1c-.055,0-3.727-5.389-4.1-8.624a.272.272,0,0,0,.021-.219.228.228,0,0,0-.143-.149c-1.749-.879-3.91,1.293-4.906,2.515C3478.99,473.289,3479.14,473.5,3479.35,473.555Z" transform="translate(-3424.595 -440.413)" fill="#ffaa8f"/>
        <path id="Path_89056" data-name="Path 89056" d="M3479.16,473.248a7.5,7.5,0,0,1,3.576-2.671c.91.626.89,2.3.8,3.294a4.775,4.775,0,0,1-1.789,3.724l-.061-.1-2.3-3.683a.3.3,0,0,1-.041-.1A.285.285,0,0,1,3479.16,473.248Z" transform="translate(-3424.595 -440.576)" fill="#cf6c5a"/>
        <path id="Path_89057" data-name="Path 89057" d="M3465.01,442.366a14.139,14.139,0,0,0,.1,4.4,6.255,6.255,0,0,0,1.52,3.76c.844.81,3.677.833,5.022-.657.366-.406.754-.792,1.127-1.19a8.339,8.339,0,0,0,1.8-2.547,7.208,7.208,0,0,0,.209-4.983,5.65,5.65,0,0,0-4.371-3.659,3.926,3.926,0,0,0-3.35,1.016,7.259,7.259,0,0,0-2.058,3.86Z" transform="translate(-3413.649 -415.039)" fill="#ffaa8f"/>
        <path id="Path_89058" data-name="Path 89058" d="M3445.99,553.274c1.27,2.356,6.264.253,9.543-4.056.97-1.275,2.8-2.621,3.369-4.118.047-.123-2.908-1.609-2.971-1.681a7.3,7.3,0,0,0-1.808-6.166,6.979,6.979,0,0,1-1.9-2.287.349.349,0,0,0-.388-.228c-.055-.214.015-.612-.181-.382-2.5,2.954-2.071,6.132-3.145,9.032C3447.4,546.351,3444.2,549.965,3445.99,553.274Z" transform="translate(-3398.703 -489.671)" fill="#2c2f33"/>
        <path id="Path_89059" data-name="Path 89059" d="M3532.88,344.034a1.348,1.348,0,0,0,.364.605,1.043,1.043,0,0,0,.125.674,2.952,2.952,0,0,0,.528.7c.242.264.385.558.6.829a.385.385,0,0,0,.411.176,4.94,4.94,0,0,0,1.608-.2c.15-.073.3.375.391.5.241.35.732,1.471,1.108,1.7.351.215.674-.648,1.116-.684a2.409,2.409,0,0,0,1.021-.57.233.233,0,0,0,.114-.158.263.263,0,0,0-.036-.2c0-.008,0-.016,0-.025a16.615,16.615,0,0,0-2.209-5.812,9.118,9.118,0,0,0-2.3-1.809c-.54-.031-.886.578-1.093,1.139a1.355,1.355,0,0,0-.155-.024c-.882-.08-1.084.814-1.211,1.475-.048.253-.157.488-.189.753a1.529,1.529,0,0,0-.193.92Z" transform="translate(-3465.995 -339.77)" fill="#ffaa8f"/>
        <path id="Path_89060" data-name="Path 89060" d="M3415.34,519.812c.188.99,1.432,1.589,1.948,2.4.017.067.032.131.043.187q.223,1.191.447,2.38a.24.24,0,0,0,.048.236c.054.207.331.165.4,0a4.364,4.364,0,0,1,1.423-.05.232.232,0,0,0,.37-.22c-.158-.94-.281-1.884-.377-2.832l.025-.017a14.271,14.271,0,0,1,1.281-1.1.914.914,0,0,0,.213-.215c.157-.253-.011-.57-.11-.811-.225-.552-.615-1.032-.8-1.6-.1-.3-.051-.6-.316-.8a.224.224,0,0,0-.222,0,.987.987,0,0,0-.309.213,5.076,5.076,0,0,0-2.13-2.4c-.706-.3-.73.758-.686,1.64-.333.668-.665,1.331-.991,2A1.512,1.512,0,0,0,3415.34,519.812Z" transform="translate(-3375.501 -474.911)" fill="#ffaa8f"/>
        <path id="Path_89063" data-name="Path 89063" d="M3423.06,550.262c-.27.333-.154,1.411-.108,2.026a11.813,11.813,0,0,0,1.211,3.492,38.618,38.618,0,0,0,2.961,6.47c.821,1.254,2.215,2.829,3.8,1.762a4.5,4.5,0,0,0,1.548-4.617.2.2,0,0,0-.141-.152c-.547-2.051-2.737-3.122-3.287-5.2-.257-.972-.293-1.612-1.11-2.279-1.108-.9-1.936-1.7-1.9-3.239a.2.2,0,0,0-.178-.214.219.219,0,0,0-.125-.042,5.064,5.064,0,0,1-2.589-.772.2.2,0,0,0-.238.006.27.27,0,0,0-.1.246A24.46,24.46,0,0,1,3423.06,550.262Z" transform="translate(-3381.26 -499.833)" fill="#2c2f33"/>
        <g id="Group_12415" data-name="Group 12415" transform="translate(0 38.472)">
          <g id="Group_12415-2" data-name="Group 12415" transform="translate(24.461 20.269)">
            <path id="Path_89095" data-name="Path 89095" d="M837.59,632.657l4.067-.122v23.776l-4.919.363Z" transform="translate(-821.644 -624.044)" fill="#f4de96" fill-rule="evenodd"/>
            <path id="Path_89096" data-name="Path 89096" d="M746.76,581.355l-15.336-8.614-.609,19.845,15.092,12.788Z" transform="translate(-730.815 -572.741)" fill="#fad765" fill-rule="evenodd"/>
            <path id="Path_89097" data-name="Path 89097" d="M735.087,572.741h5.477l13.926,8.492-4.067.121Z" transform="translate(-734.477 -572.741)" fill="#f2795c" fill-rule="evenodd"/>
          </g>
          <g id="Group_12416" data-name="Group 12416" transform="translate(1.473 7.058)">
            <path id="Path_89098" data-name="Path 89098" d="M588.662,479.721a23.554,23.554,0,0,0,7.726,6.04l-21.613,29.651-5.28-3.823S582.027,494.579,588.662,479.721Z" transform="translate(-569.492 -479.721)" fill="#4d86f2" fill-rule="evenodd"/>
            <path id="Path_89099" data-name="Path 89099" d="M588.662,479.721s12.661,6.246,21.7,9.054c0,0-12.59,23.616-16.535,30.778l-24.335-7.97A324.89,324.89,0,0,0,588.662,479.721Z" transform="translate(-569.492 -479.721)" fill="#df6062" fill-rule="evenodd"/>
            <path id="Path_89100" data-name="Path 89100" d="M756.821,543.47l4.234,4.984s-5.779,9.565-8.317,17.308c-3.194,9.738-4.926,15.438-4.926,15.438l-7.526-6.951S748.3,555.361,756.821,543.47Z" transform="translate(-715.948 -534.416)" fill="#bc4648" fill-rule="evenodd"/>
            <path id="Path_89101" data-name="Path 89101" d="M569.495,704.068l8.3,7.635L601.36,719l-7.526-6.951Z" transform="translate(-569.492 -672.206)" fill="#e28182" fill-rule="evenodd"/>
          </g>
          <g id="Group_12417" data-name="Group 12417" transform="translate(0 0)">
            <path id="Path_89102" data-name="Path 89102" d="M580.379,430l-21.244,19.281,22.3,14.586,18.876-23.611Z" transform="translate(-559.135 -430)" fill="#fad765" fill-rule="evenodd"/>
            <path id="Path_89103" data-name="Path 89103" d="M715.671,525.849l18.871-23.6,1.164,6.441-19.689,23.843Z" transform="translate(-693.367 -491.99)" fill="#ebbf2f" fill-rule="evenodd"/>
            <path id="Path_89104" data-name="Path 89104" d="M559.135,565.763l.951,5.765,21.7,15.5-.346-6.682Z" transform="translate(-559.135 -546.485)" fill="#ffe282" fill-rule="evenodd"/>
          </g>
        </g>
        <g id="Group_12418" data-name="Group 12418" transform="translate(30.296 40.853)">
          <path id="Path_89105" data-name="Path 89105" d="M782.716,447.412c-2.561-.354-8.418,1.21-10.73,1.952l-.224-.693c.329-.1,6.7-2.125,10.943-1.98A4.5,4.5,0,0,1,782.716,447.412Z" transform="translate(-771.762 -446.683)" fill="#3d1d1d"/>
        </g>
        <path id="Path_89061" data-name="Path 89061" d="M3498.83,513.422a42.28,42.28,0,0,0-1.174-7.12c-.685-2.433-1.656-4.8-2.511-7.179l-2.808-7.808a16.447,16.447,0,0,1-.654,1.6c-.05-.124-.093-.244-.137-.363-.049-.138-.271-.079-.221.062l.037.1a15.516,15.516,0,0,0-5.548-2.077,4.652,4.652,0,0,1-.711-.465c-1.186-1-3.388.029-4.632.557-.049.021-.1.043-.144.064-.479-.866-1.021-1.7-1.577-2.524a.381.381,0,0,0-.057-.066.362.362,0,0,0-.377-.111.424.424,0,0,0-.277.312c-.24,1.877-2.2,2.476-3.756,2.909a.348.348,0,0,0-.242.425q.458,1.159.94,2.308a29.325,29.325,0,0,0-5.542,5.438.371.371,0,0,0-.054.1c-.2.524.357.964.382,1.723.02.587-.463.411-.339.987.261,1.214,1.148,4.474,1.417,5.686a9.149,9.149,0,0,0,1.766,4.205c1.755,2.015,5.777,3.874,5.008,7.206a10.877,10.877,0,0,1-.986,2.288c-.357.723-.721,1.442-1.074,2.165a31.412,31.412,0,0,0-1.784,4.277c-.194.614-.625,1.889-.078,2.441,1.132,1.14,3.555-1.277,4.623-1.59,2.238-.654,4.3,1.442,6.548,1.783a26.331,26.331,0,0,0,3.321.311,4.342,4.342,0,0,0,2.458-.262,1.906,1.906,0,0,0,.577-.923c.207-.541.388-1.1.562-1.648.349-1.106.926-3.816,1.17-4.951.2-.948.375-1.906.5-2.868a.414.414,0,0,1,.279-.309.356.356,0,0,1,.373.124,5.775,5.775,0,0,1,1.08,1.876,52.444,52.444,0,0,1,1.5,7.953c.081,1.007.213,3.032,1.712,2.743a.116.116,0,0,0,.116.01.142.142,0,0,0,.076-.1,117,117,0,0,0,.238-19.283Z" transform="translate(-3417.09 -454.06)" fill="#2c2f33"/>
        <g id="Group_12419" data-name="Group 12419" transform="translate(34.604 42.915)">
          <path id="Path_89106" data-name="Path 89106" d="M807.525,461.518a23.433,23.433,0,0,0-5.194,2l-.337-.646a25.466,25.466,0,0,1,6-2.194C808.053,460.683,807.637,461.535,807.525,461.518Z" transform="translate(-801.994 -460.682)" fill="#3d1d1d"/>
        </g>
        <path id="Path_89062" data-name="Path 89062" d="M3515.96,402.991c.737,2.4,1.838,5.992,4.55,6.669.434.108,9.694-1.242,10.446-2.393-1.516-4.216-.363-11.141.357-14.16.8-3.372.36-4.423.01-7.851-.278-2.727-.862-5.392-1.129-8.126a9.018,9.018,0,0,0-1.239-3.561,16.48,16.48,0,0,1-1.749-4.655.354.354,0,0,0-.2-.234.291.291,0,0,0-.282.03c-.15-.087-1.691,1.724-2.684,2.022a.293.293,0,0,0-.2.157.372.372,0,0,0-.025.277c0,.005,0,.011,0,.016.2.832.813,1.568.71,2.44-.082.7-.379,1.367-.466,2.073a13.2,13.2,0,0,0,.2,3.864q.706,3.019,1.116,6.113-2.026,4.2-3.668,8.563a7.537,7.537,0,0,1-1.457,2.81c-.578.586-2.05.614-2.7,1.112-1.343,1.026-1.465,2.8-1.775,4.451a.354.354,0,0,0,.182.385Z" transform="translate(-3452.838 -362.04)" fill="#2c2f33"/>
        <path id="Path_89064" data-name="Path 89064" d="M3498.91,504.332a3.017,3.017,0,0,0,2.061-.592,4.9,4.9,0,0,0,.9-1.481c.062-.134.261-.017.2.114a4.34,4.34,0,0,1-1.173,1.728,3.643,3.643,0,0,1-1.992.456C3498.76,504.578,3498.76,504.348,3498.91,504.332Z" transform="translate(-3439.77 -464.95)" fill="#4e4654"/>
        <path id="Path_89065" data-name="Path 89065" d="M3534.22,496.951a.116.116,0,0,1,.223.061,24.044,24.044,0,0,0-.907,5.034c-.01.147-.242.148-.231,0A24.348,24.348,0,0,1,3534.22,496.951Z" transform="translate(-3466.337 -460.84)" fill="#4e4654"/>
        <path id="Path_89066" data-name="Path 89066" d="M3504.08,590.186l4.665,4.417a22.118,22.118,0,0,1,3.665,4.127c.079.125-.121.242-.2.114a22.788,22.788,0,0,0-3.795-4.239l-4.5-4.259C3503.81,590.246,3503.97,590.084,3504.08,590.186Z" transform="translate(-3443.686 -532.732)" fill="#4e4654"/>
        <path id="Path_89067" data-name="Path 89067" d="M3519.74,614.091c.012-.147.243-.148.231,0a12.191,12.191,0,0,0,.1,2.881c.022.145-.2.207-.223.061a12.464,12.464,0,0,1-.108-2.942Z" transform="translate(-3455.863 -551.095)" fill="#4f2f2f"/>
        <path id="Path_89068" data-name="Path 89068" d="M3455.35,589.656a6,6,0,0,1,1.025,3.512c-.017.146-.248.147-.231,0a5.781,5.781,0,0,0-.993-3.4C3455.08,589.641,3455.28,589.525,3455.35,589.656Z" transform="translate(-3406.157 -532.304)" fill="#4e4654"/>
        <path id="Path_89069" data-name="Path 89069" d="M3559.15,380.424a1.6,1.6,0,0,0,1.492-1.026c.052-.137.276-.077.223.062a1.833,1.833,0,0,1-1.715,1.193.116.116,0,0,1,0-.229Z" transform="translate(-3486.152 -370.248)" fill="#4e4654"/>
        <path id="Path_89070" data-name="Path 89070" d="M3425.67,556.823a3.1,3.1,0,0,0,2.231.22.115.115,0,0,1,.062.222,3.359,3.359,0,0,1-2.409-.244C3425.42,556.955,3425.53,556.756,3425.67,556.823Z" transform="translate(-3383.331 -507.034)" fill="#4e4654"/>
        <path id="Path_89071" data-name="Path 89071" d="M3418.99,525.332a1.866,1.866,0,0,1,1.009,1.14.113.113,0,0,1,.082-.014.242.242,0,0,0,.222-.065.32.32,0,0,0,.094-.238.093.093,0,0,1,.071-.1c.263-.671-.877-1.406-1.308-1.737a.13.13,0,0,1-.028-.166.1.1,0,0,1,.145-.033c.415.319,1.186.823,1.406,1.408a.125.125,0,0,1,.038-.04c.963-.6-.638-1.861-1.113-2.188-.121-.083-.006-.283.117-.2a4.3,4.3,0,0,1,1.457,1.584.11.11,0,0,1,.053,0c.432.127.549-.417.5-.724-.025-.145.2-.207.223-.062a.982.982,0,0,1-.135.784.614.614,0,0,1-.573.237.741.741,0,0,1-.406.762.1.1,0,0,1-.11,0,.8.8,0,0,1-.093.558.076.076,0,0,1-.011.014.513.513,0,0,1-.584.426.115.115,0,0,1-.028.044.414.414,0,0,1-.073.263.3.3,0,0,1-.305.114c-.146-.025-.084-.247.061-.222.122.021.087-.228.08-.291a.1.1,0,0,1,.006-.05,1.654,1.654,0,0,0-.906-1.016C3418.74,525.469,3418.86,525.268,3418.99,525.332Z" transform="translate(-3378.193 -481.038)" fill="#cf6c5a"/>
        <path id="Path_89072" data-name="Path 89072" d="M3430.59,530.246a2.283,2.283,0,0,1,.393-.533,3.34,3.34,0,0,0,.307-.257.9.9,0,0,0,.037-.823,2.147,2.147,0,0,1-.233-1.239c.022-.146.244-.084.223.062a1.978,1.978,0,0,0,.3,1.222.819.819,0,0,1,.1.57.773.773,0,0,1-.266.373,2.782,2.782,0,0,0-.664.744C3430.72,530.489,3430.52,530.375,3430.59,530.246Z" transform="translate(-3387.248 -484.3)" fill="#cf6c5a"/>
        <path id="Path_89073" data-name="Path 89073" d="M3537.14,345.573c-.049-.14.174-.2.223-.062a1.508,1.508,0,0,1-.021,1.019c.154-.157.31-.313.472-.464a1.977,1.977,0,0,1,.506-.427c.408-.155,1.02.24,1.354.447.126.077.011.277-.116.2-.422-.26-.962-.612-1.4-.228-.309.277-.6.57-.887.869a.1.1,0,0,1-.109.028,3.392,3.392,0,0,0-.458,1.357,1.108,1.108,0,0,1,.172-.195.1.1,0,0,1,.031-.094,3.735,3.735,0,0,1,1.209-.9,1.671,1.671,0,0,1,1.3.191c.135.062.018.26-.117.2a1.359,1.359,0,0,0-1.355-.041,4.168,4.168,0,0,0-.82.655.12.12,0,0,1-.048.114.764.764,0,0,0-.318.493.094.094,0,0,1-.007.054.782.782,0,0,0,.469.783c.134.063.017.261-.117.2a.969.969,0,0,1-.574-1.012C3536.2,347.6,3537.54,346.708,3537.14,345.573Z" transform="translate(-3468.787 -344.13)" fill="#cf6c5a"/>
        <path id="Path_89074" data-name="Path 89074" d="M3465.15,464.141a.077.077,0,0,0,.056.081.41.41,0,0,0,.2,0,2.053,2.053,0,0,1,.4,0,1.792,1.792,0,0,1,.759.268.1.1,0,0,0,.11.044.116.116,0,0,0,.079-.1c0-.057-.174-.218-.213-.26a.979.979,0,0,0-.584-.365C3465.74,463.791,3465.17,463.913,3465.15,464.141Z" transform="translate(-3413.868 -435.365)" fill="#4f2f2f"/>
        <path id="Path_89075" data-name="Path 89075" d="M3483.09,465.557a1.541,1.541,0,0,1,1.159-.408,1.085,1.085,0,0,1,.564.18c.21.154.207.384-.086.328a2.877,2.877,0,0,0-1.549.079.1.1,0,0,1-.093-.058.128.128,0,0,1,.005-.121Z" transform="translate(-3427.655 -436.391)" fill="#4f2f2f"/>
        <path id="Path_89076" data-name="Path 89076" d="M3537.99,361.377c.454-.356.609-.986,1.126-1.276a1.407,1.407,0,0,1,1.36.009c.132.069.015.268-.116.2a1.169,1.169,0,0,0-1.548.4,3.608,3.608,0,0,1-.659.832C3538.03,361.626,3537.87,361.464,3537.99,361.377Z" transform="translate(-3469.913 -355.299)" fill="#cf6c5a"/>
        <path id="Path_89077" data-name="Path 89077" d="M3464.4,456.332a1.062,1.062,0,0,1,1-.468,1.2,1.2,0,0,1,.776.445.576.576,0,0,1,.142.285c.065.456-.579.351-.795.294-.329-.088-.667-.024-.991-.134a.251.251,0,0,1-.165-.171.3.3,0,0,1,.032-.251Z" transform="translate(-3413.255 -429.232)" fill="#a3662e"/>
        <path id="Path_89078" data-name="Path 89078" d="M3482.55,458.09a3.924,3.924,0,0,0,.651.078,5.8,5.8,0,0,1,1.05.246.37.37,0,0,0,.126.023.186.186,0,0,0,.154-.114.237.237,0,0,0-.009-.209.2.2,0,0,0-.032-.1c-.418-.658-1.53-1.243-2.187-.55C3482.04,457.748,3482.22,458,3482.55,458.09Z" transform="translate(-3426.976 -430.232)" fill="#a3662e"/>
        <path id="Path_89079" data-name="Path 89079" d="M3542.8,365.163a3.909,3.909,0,0,1,1.216-.738.093.093,0,0,1,.1.025.126.126,0,0,1,.031.111.112.112,0,0,1-.069.086c-.1.04-.207.084-.306.134a.807.807,0,0,1,.43.235.579.579,0,0,1,.09.684c-.075.128-.275.011-.2-.114a.383.383,0,0,0,.024-.267.333.333,0,0,0-.153-.2.916.916,0,0,0-.524-.138,3.6,3.6,0,0,0-.474.356C3542.85,365.423,3542.69,365.262,3542.8,365.163Z" transform="translate(-3473.621 -358.76)" fill="#cf6c5a"/>
        <path id="Path_89080" data-name="Path 89080" d="M3469.19,443.024a5.04,5.04,0,0,1-.6-1.52,8.426,8.426,0,0,1,.214-1.517,2.792,2.792,0,0,0-.331-1.341c-.17-.443-.255-.912-.408-1.367a7.428,7.428,0,0,0-3.321-3.951c-3.239-1.863-8.959-1.919-11.216,1.525a4.106,4.106,0,0,0-.512,1.851c-.123.75-.794,1.264-1.165,1.9-.435.744,0,1.635.268,2.457.344,1.047,1.157,1.089,2.02,1.53l.015.008a.764.764,0,0,0,1.147-.654v-.016a3.7,3.7,0,0,0-.186-.6,1.881,1.881,0,0,1,.006-.827,3.592,3.592,0,0,0,.183-1.513,4.634,4.634,0,0,1-.181-1.032,3.006,3.006,0,0,1,.885-1.793,2.945,2.945,0,0,1,1.227-1.078.247.247,0,0,1,.225-.028.292.292,0,0,1,.168.173c.07.228.168.475.2.551a5.1,5.1,0,0,0,1.247,1.776,3.145,3.145,0,0,0,.935.636,1.776,1.776,0,0,0,.712.09c.249-.026.42-.039.553.31.247.648.158,1.419.523,2.017.294.482.861.676.845,1.308-.031,1.211.554,2.333.565,3.543.008.784.179,1.911,1.294,1.551.552-.179.792-.7,1.118-1.132a.854.854,0,0,1,.876,0,2.3,2.3,0,0,0,1.96-.034,1.64,1.64,0,0,0,.681-.771.1.1,0,0,0,.043-.032,1.9,1.9,0,0,0,.01-2.011Z" transform="translate(-3403.482 -410.896)" fill="#a3662e"/>
        <path id="Path_89081" data-name="Path 89081" d="M3473.7,463.9c.031-.134.243-.1.212.038-.168.734-.928,2.578.072,2.954.13.049.039.244-.091.195C3472.69,466.631,3473.51,464.732,3473.7,463.9Z" transform="translate(-3420.101 -435.363)" fill="#cf6c5a"/>
        <path id="Path_89082" data-name="Path 89082" d="M3477.4,475.034a2.488,2.488,0,0,1,.7.3.111.111,0,0,1,.074.1.118.118,0,0,1-.053.114.09.09,0,0,1-.112-.015,2.327,2.327,0,0,0-.649-.283.1.1,0,0,1-.1-.068.125.125,0,0,1,.024-.13.091.091,0,0,1,.116-.015Z" transform="translate(-3423.201 -444.008)" fill="#cf6c5a"/>
        <path id="Path_89083" data-name="Path 89083" d="M3472.69,482.5a3.623,3.623,0,0,1,1.143.067c.225.025.469.018.7.044.1.011.692-.137.534.15a1.322,1.322,0,0,1-.714.356,5.124,5.124,0,0,1-.807.1.965.965,0,0,1-.935-.456.222.222,0,0,1-.01-.186.151.151,0,0,1,.089-.075Z" transform="translate(-3419.593 -449.736)" fill="#bf5858"/>
        <path id="Path_89084" data-name="Path 89084" d="M3475.21,490.9a1.345,1.345,0,0,0,.709.048c.145-.03.207.193.061.222a1.583,1.583,0,0,1-.832-.049.12.12,0,0,1-.066-.146A.1.1,0,0,1,3475.21,490.9Z" transform="translate(-3421.502 -456.236)" fill="#cf6c5a"/>
        <path id="Path_89085" data-name="Path 89085" d="M3487.69,440.151a7.739,7.739,0,0,1,2.485,1.977,3.357,3.357,0,0,1,.594,1.387,5.151,5.151,0,0,1-.183,1.552c-.083.767.643,1.018,1.152,1.426a4.4,4.4,0,0,1,1,1.124,3.4,3.4,0,0,1,.309,3c-.049.128-.258.073-.208-.057a3.3,3.3,0,0,0-.66-3.347,6.3,6.3,0,0,0-1.215-1,1.38,1.38,0,0,1-.594-.7c-.116-.409.111-.792.184-1.186a2.684,2.684,0,0,0-.386-1.807,6.841,6.841,0,0,0-2.59-2.18C3487.47,440.265,3487.57,440.079,3487.69,440.151Z" transform="translate(-3431.1 -417.115)" fill="#4f2f2f"/>
        <path id="Path_89086" data-name="Path 89086" d="M3503.88,442.886a2.885,2.885,0,0,1,1.285,2.451,2.246,2.246,0,0,1-.161.557,2.8,2.8,0,0,0-.182.4,1.025,1.025,0,0,0,.174.741,5.341,5.341,0,0,1,.532,1.653c.019.136-.189.194-.208.057a5.455,5.455,0,0,0-.549-1.673,1.113,1.113,0,0,1-.1-.981,2.135,2.135,0,0,0,.152-1.728,3.978,3.978,0,0,0-1.095-1.33C3503.63,442.944,3503.78,442.792,3503.88,442.886Z" transform="translate(-3443.542 -419.213)" fill="#4f2f2f"/>
        <path id="Path_89087" data-name="Path 89087" d="M3454.69,456.191a1.583,1.583,0,0,1,.39-.781c.1-.107.238-.179.309-.308a1.464,1.464,0,0,0,.031-.684c0-.148.226-.148.231,0,.009.253.107.64-.06.856-.11.142-.286.228-.4.368a1.375,1.375,0,0,0-.275.61C3454.89,456.4,3454.66,456.335,3454.69,456.191Z" transform="translate(-3405.811 -428.037)" fill="#4f2f2f"/>
        <path id="Path_89088" data-name="Path 89088" d="M3497.81,722.871c.022-.146.244-.084.223.062a18.512,18.512,0,0,0-.2,5.854,9.731,9.731,0,0,0,2.579,4.841c1.166,1.29,2.462,2.453,3.6,3.774a30.573,30.573,0,0,1,3.174,4.453.115.115,0,0,1-.2.114,30.23,30.23,0,0,0-3.613-4.946c-1.212-1.344-2.59-2.535-3.731-3.942a9.248,9.248,0,0,1-2.091-4.633,20.042,20.042,0,0,1,.259-5.577Z" transform="translate(-3438.734 -634.95)" fill="#4f2f2f"/>
        <path id="Path_89089" data-name="Path 89089" d="M3534.67,780.533l6.357,4.481a.125.125,0,0,1,.052.109.121.121,0,0,1-.061.1.1.1,0,0,1-.108-.013l-6.356-4.481a.13.13,0,0,1-.029-.165A.1.1,0,0,1,3534.67,780.533Z" transform="translate(-3467.259 -679.438)" fill="#4f2f2f"/>
        <path id="Path_89090" data-name="Path 89090" d="M3475.65,570.174a8.083,8.083,0,0,1-1.257-4.085c-.005-.147-.235-.148-.23,0a8.323,8.323,0,0,0,1.288,4.2C3475.53,570.414,3475.73,570.3,3475.65,570.174Z" transform="translate(-3420.805 -514.101)" fill="#4f2f2f"/>
        <path id="Path_89091" data-name="Path 89091" d="M3576.28,526.066c-.027-.145-.249-.083-.222.062a17.553,17.553,0,0,1,.255,2.086c.009.147.239.148.23,0a18.223,18.223,0,0,0-.263-2.148Z" transform="translate(-3499.255 -483.277)" fill="#4e4654"/>
        <g id="Group_12422" data-name="Group 12422" transform="translate(39.793 41.534)">
          <g id="Group_12420" data-name="Group 12420" transform="translate(0 0.191)">
            <path id="Path_89105-2" data-name="Path 89105" d="M780.553,454.139l-.484-.546c1.023-.9,3.643-3.574,3.489-5.11-.035-.351-.214-2.1.727-.072C784.5,450.594,780.958,453.784,780.553,454.139Z" transform="translate(-780.069 -447.449)" fill="#3d1d1d"/>
          </g>
          <g id="Group_12421" data-name="Group 12421" transform="translate(0.4 0)">
            <path id="Path_89106-2" data-name="Path 89106" d="M807.308,466.961l-.425-.593c.8-.57,2.922-2.353,3.073-3.683a1,1,0,0,0-.252-.819c1.084-1.648-.458-3.559.862-1.5a7.5,7.5,0,0,1,.115,2.4C810.463,464.691,807.437,466.869,807.308,466.961Z" transform="translate(-806.883 -459.47)" fill="#3d1d1d"/>
          </g>
        </g>
      </g>
    </g>
  </g>
</svg>
