<svg xmlns="http://www.w3.org/2000/svg" xmlns:xlink="http://www.w3.org/1999/xlink" width="375" height="80" viewBox="0 0 375 80">
  <defs>
    <clipPath id="clip-path">
      <rect id="Rectangle_5318" data-name="Rectangle 5318" width="375" height="80" fill="#f1f2ff"/>
    </clipPath>
  </defs>
  <g id="Group_13870" data-name="Group 13870" transform="translate(1749 -2199)">
    <rect id="Rectangle_5316" data-name="Rectangle 5316" width="375" height="80" transform="translate(-1749 2199)" fill="#fff"/>
    <g id="Mask_Group_203" data-name="Mask Group 203" transform="translate(-1749 2199)" clip-path="url(#clip-path)">
      <g id="Group_13868" data-name="Group 13868" transform="translate(-477.17 -65.667)" opacity="0.3">
        <g id="Group_13794" data-name="Group 13794" transform="translate(62.887 28.984)">
          <path id="Path_90849" data-name="Path 90849" d="M550.186,209.913l1.293,6.08-2.446.867-1.45-6.06Z" transform="translate(-547.583 -209.913)" fill="#38539a"/>
        </g>
        <g id="Group_13795" data-name="Group 13795" transform="translate(21.392 194.129)">
          <path id="Path_90850" data-name="Path 90850" d="M439.622,614.022l3.671,4.81-1.828,1.961-3.8-4.716Z" transform="translate(-437.665 -614.022)" fill="#38539a"/>
        </g>
        <g id="Group_13796" data-name="Group 13796" transform="translate(14.228 40.885)">
          <path id="Path_90851" data-name="Path 90851" d="M424.831,241.965l-5.755.357-.379-2.756,5.763-.529Z" transform="translate(-418.697 -239.037)" fill="#38539a"/>
        </g>
        <g id="Group_13797" data-name="Group 13797" transform="translate(123.825 4.207)">
          <path id="Path_90852" data-name="Path 90852" d="M710.245,154.328l5.258-2.85-1.144-2.2L709,152.007Z" transform="translate(-709 -149.277)" fill="#38539a"/>
        </g>
        <g id="Group_13798" data-name="Group 13798" transform="translate(230.014 30.98)">
          <path id="Path_90853" data-name="Path 90853" d="M990.269,218.383l5.1-3.585,1.678,2.311-5.026,3.747Z" transform="translate(-990.269 -214.798)" fill="#38539a"/>
        </g>
        <g id="Group_13799" data-name="Group 13799" transform="translate(820.133 9.199)">
          <path id="Path_90854" data-name="Path 90854" d="M2556.43,168.893l-3.065-5.686,2.212-1.705,3.219,5.612Z" transform="translate(-2553.365 -161.502)" fill="#38539a"/>
        </g>
        <g id="Group_13800" data-name="Group 13800" transform="translate(24.103 268.85)">
          <path id="Path_90855" data-name="Path 90855" d="M451.487,799.908l-6.026.885-.607-2.865,6.022-1.067Z" transform="translate(-444.854 -796.861)" fill="#38539a"/>
        </g>
        <g id="Group_13801" data-name="Group 13801" transform="translate(176.384 144.936)">
          <path id="Path_90856" data-name="Path 90856" d="M854.081,500.6l-5.867-3.965,1.391-2.984,5.985,3.8Z" transform="translate(-848.214 -493.654)" fill="#38539a"/>
        </g>
        <g id="Group_13802" data-name="Group 13802" transform="translate(106.357 26.787)">
          <path id="Path_90857" data-name="Path 90857" d="M662.727,206.967l6.73-2.419,1.265,3.141-6.689,2.626Z" transform="translate(-662.727 -204.548)" fill="#38539a"/>
        </g>
        <g id="Group_13803" data-name="Group 13803" transform="translate(0 85.787)">
          <path id="Path_90858" data-name="Path 90858" d="M381,351.331l6.73-2.419L389,352.054l-6.689,2.626Z" transform="translate(-381 -348.912)" fill="#38539a"/>
        </g>
        <g id="Group_13804" data-name="Group 13804" transform="translate(45.042)">
          <path id="Path_90859" data-name="Path 90859" d="M500.315,146.294l2.037-7.311,3.087.685-1.858,7.4Z" transform="translate(-500.315 -138.983)" fill="#38539a"/>
        </g>
        <g id="Group_13805" data-name="Group 13805" transform="translate(188.944 206.104)">
          <path id="Path_90860" data-name="Path 90860" d="M887.129,644.38l-2.629,7.1-3.019-.98,2.458-7.187Z" transform="translate(-881.481 -643.309)" fill="#38539a"/>
        </g>
        <g id="Group_13806" data-name="Group 13806" transform="translate(183.957 98.32)">
          <path id="Path_90861" data-name="Path 90861" d="M872.142,379.579l-3.868,6.437,2.488,2.121,4.043-6.342Z" transform="translate(-868.274 -379.579)" fill="#38539a"/>
        </g>
        <g id="Group_13807" data-name="Group 13807" transform="translate(215.589 71.669)">
          <path id="Path_90862" data-name="Path 90862" d="M952.06,314.827l1.446,7.273,3.046-.4-1.266-7.338Z" transform="translate(-952.06 -314.36)" fill="#38539a"/>
        </g>
        <g id="Group_13808" data-name="Group 13808" transform="translate(104.345 131.565)">
          <path id="Path_90863" data-name="Path 90863" d="M657.4,463.522l5.338,3.649,1.714-2.422-5.262-3.819Z" transform="translate(-657.4 -460.93)" fill="#38539a"/>
        </g>
        <g id="Group_13809" data-name="Group 13809" transform="translate(261.162 50.11)">
          <path id="Path_90864" data-name="Path 90864" d="M1078.89,264.547l-5.757.321-.364-2.758,5.766-.5Z" transform="translate(-1072.769 -261.614)" fill="#38539a"/>
        </g>
        <g id="Group_13810" data-name="Group 13810" transform="translate(316.864 104.99)">
          <path id="Path_90865" data-name="Path 90865" d="M1226.21,397.677l-3.822,4.671-2.073-1.65,3.715-4.8Z" transform="translate(-1220.315 -395.899)" fill="#38539a"/>
        </g>
        <g id="Group_13811" data-name="Group 13811" transform="translate(289.521 32.159)">
          <path id="Path_90866" data-name="Path 90866" d="M1150.69,217.685l3.366,6.716-2.623,1.891-3.546-6.637Z" transform="translate(-1147.887 -217.685)" fill="#38539a"/>
        </g>
        <g id="Group_13812" data-name="Group 13812" transform="translate(404.96 269.479)">
          <path id="Path_90867" data-name="Path 90867" d="M1456.48,798.4l3.365,6.716-2.623,1.891-3.547-6.637Z" transform="translate(-1453.675 -798.4)" fill="#38539a"/>
        </g>
        <g id="Group_13813" data-name="Group 13813" transform="translate(256.786 8.26)">
          <path id="Path_90868" data-name="Path 90868" d="M1061.18,162.7l6.918.97.678-3.291-6.914-1.18Z" transform="translate(-1061.18 -159.204)" fill="#38539a"/>
        </g>
        <g id="Group_13814" data-name="Group 13814" transform="translate(290.474 154.929)">
          <path id="Path_90869" data-name="Path 90869" d="M1157.58,523.712l-4.664-5.614-2.495,2.018,4.536,5.77Z" transform="translate(-1150.421 -518.098)" fill="#38539a"/>
        </g>
        <g id="Group_13815" data-name="Group 13815" transform="translate(157.217 29.189)">
          <path id="Path_90870" data-name="Path 90870" d="M804.522,213.135l-5.725-2.726-1.353,2.645,5.673,2.909Z" transform="translate(-797.444 -210.409)" fill="#38539a"/>
        </g>
        <g id="Group_13816" data-name="Group 13816" transform="translate(416.3 10.377)">
          <path id="Path_90871" data-name="Path 90871" d="M1485.17,170.362l6.213-3.373-1.351-2.6-6.332,3.238Z" transform="translate(-1483.7 -164.387)" fill="#38539a"/>
        </g>
        <g id="Group_13817" data-name="Group 13817" transform="translate(425.88 227.388)">
          <path id="Path_90872" data-name="Path 90872" d="M1515.93,695.4l-6.849,1.281.6,2.913,6.924-1.109Z" transform="translate(-1509.081 -695.4)" fill="#38539a"/>
        </g>
        <g id="Group_13818" data-name="Group 13818" transform="translate(557.874 104.755)">
          <path id="Path_90873" data-name="Path 90873" d="M1858.79,395.478,1858.7,403l2.755-.1.257-7.572Z" transform="translate(-1858.703 -395.326)" fill="#38539a"/>
        </g>
        <g id="Group_13819" data-name="Group 13819" transform="translate(387.667 127.636)">
          <path id="Path_90874" data-name="Path 90874" d="M1407.86,454.269l6.3,3.167,1.04-2.763-6.276-3.354Z" transform="translate(-1407.86 -451.319)" fill="#38539a"/>
        </g>
        <g id="Group_13820" data-name="Group 13820" transform="translate(530.307 275.784)">
          <path id="Path_90875" data-name="Path 90875" d="M1791.62,818.463l-5.943-1.706.461-2.929,6,1.535Z" transform="translate(-1785.677 -813.828)" fill="#38539a"/>
        </g>
        <g id="Group_13821" data-name="Group 13821" transform="translate(980.089 254.656)">
          <path id="Path_90876" data-name="Path 90876" d="M2977.06,768.221l2.48-6.09,2.6.948-2.334,6.182Z" transform="translate(-2977.06 -762.131)" fill="#38539a"/>
        </g>
        <g id="Group_13822" data-name="Group 13822" transform="translate(541.34 218.279)">
          <path id="Path_90877" data-name="Path 90877" d="M1814.9,679.207l2.481-6.09,2.6.948-2.333,6.182Z" transform="translate(-1814.9 -673.117)" fill="#38539a"/>
        </g>
        <g id="Group_13823" data-name="Group 13823" transform="translate(463.482 17.479)">
          <path id="Path_90878" data-name="Path 90878" d="M1608.68,182.722l2.323,6.257,2.664-.867-2.172-6.347Z" transform="translate(-1608.68 -181.765)" fill="#38539a"/>
        </g>
        <g id="Group_13824" data-name="Group 13824" transform="translate(417.115 99.574)">
          <path id="Path_90879" data-name="Path 90879" d="M1492.02,382.647l-6.156,1.041.179,3,6.2-.861Z" transform="translate(-1485.864 -382.647)" fill="#38539a"/>
        </g>
        <g id="Group_13825" data-name="Group 13825" transform="translate(496.073 24.291)">
          <path id="Path_90880" data-name="Path 90880" d="M1702.08,201.149l-5.725-2.726-1.355,2.64,5.674,2.909Z" transform="translate(-1695 -198.423)" fill="#38539a"/>
        </g>
        <g id="Group_13826" data-name="Group 13826" transform="translate(623.31 73.412)">
          <path id="Path_90881" data-name="Path 90881" d="M2033.18,324.53l5.563-3.1-1.049-2.8-5.664,2.938Z" transform="translate(-2032.03 -318.629)" fill="#38539a"/>
        </g>
        <g id="Group_13827" data-name="Group 13827" transform="translate(195.853 166.272)">
          <path id="Path_90882" data-name="Path 90882" d="M906.86,548.574l-5.725-2.726-1.353,2.645,5.673,2.909Z" transform="translate(-899.782 -545.848)" fill="#38539a"/>
        </g>
        <g id="Group_13828" data-name="Group 13828" transform="translate(178.228 158.823)">
          <path id="Path_90883" data-name="Path 90883" d="M853.885,527.627l-.787,6.718,2.728.651.96-6.716Z" transform="translate(-853.098 -527.627)" fill="#38539a"/>
        </g>
        <g id="Group_13829" data-name="Group 13829" transform="translate(212.82 2.033)">
          <path id="Path_90884" data-name="Path 90884" d="M944.725,145.687l3.617,4.726,1.907-1.6-3.52-4.85Z" transform="translate(-944.725 -143.966)" fill="#38539a"/>
        </g>
        <g id="Group_13830" data-name="Group 13830" transform="translate(277.442 226.415)">
          <path id="Path_90885" data-name="Path 90885" d="M1120.07,693.024l-4.171,4.156,1.572,1.982,4.292-4.057Z" transform="translate(-1115.899 -693.024)" fill="#38539a"/>
        </g>
        <g id="Group_13831" data-name="Group 13831" transform="translate(110.041 199.108)">
          <path id="Path_90886" data-name="Path 90886" d="M678.147,626.206l-5.662.31.041,2.61,5.7-.15Z" transform="translate(-672.485 -626.206)" fill="#38539a"/>
        </g>
        <g id="Group_13832" data-name="Group 13832" transform="translate(804.232 34.146)">
          <path id="Path_90887" data-name="Path 90887" d="M2511.72,227.005l5.869-1.571-.408-2.888-5.927,1.4Z" transform="translate(-2511.254 -222.546)" fill="#38539a"/>
        </g>
        <g id="Group_13833" data-name="Group 13833" transform="translate(980.849 186.873)">
          <path id="Path_90888" data-name="Path 90888" d="M2979.07,596.5l.931,6.467,2.694-.188-.771-6.514Z" transform="translate(-2979.07 -596.265)" fill="#38539a"/>
        </g>
        <g id="Group_13834" data-name="Group 13834" transform="translate(849.151 45.907)">
          <path id="Path_90889" data-name="Path 90889" d="M2636.65,251.668l-6.037-.352-.388,2.892,6.047.532Z" transform="translate(-2630.225 -251.316)" fill="#38539a"/>
        </g>
        <g id="Group_13835" data-name="Group 13835" transform="translate(900.026 74.464)">
          <path id="Path_90890" data-name="Path 90890" d="M2765,321.67l1.382,6.371,2.673-.408-1.225-6.432Z" transform="translate(-2765 -321.202)" fill="#38539a"/>
        </g>
        <g id="Group_13836" data-name="Group 13836" transform="translate(1185.211 162.667)">
          <path id="Path_90891" data-name="Path 90891" d="M3526.81,537.39l-6.037-.352-.388,2.892,6.047.532Z" transform="translate(-3520.385 -537.038)" fill="#38539a"/>
        </g>
        <g id="Group_13837" data-name="Group 13837" transform="translate(954.843 131.591)">
          <path id="Path_90892" data-name="Path 90892" d="M2910.66,460.992l-.463,6.526,2.662.486.63-6.533Z" transform="translate(-2910.197 -460.992)" fill="#38539a"/>
        </g>
        <g id="Group_13838" data-name="Group 13838" transform="translate(745.666 225.189)">
          <path id="Path_90893" data-name="Path 90893" d="M2356.58,690.025l-.462,6.526,2.662.486.629-6.533Z" transform="translate(-2356.118 -690.025)" fill="#38539a"/>
        </g>
        <g id="Group_13839" data-name="Group 13839" transform="translate(1093.525 157.97)">
          <path id="Path_90894" data-name="Path 90894" d="M3278,525.541l-.463,6.526,2.662.486.629-6.532Z" transform="translate(-3277.537 -525.541)" fill="#38539a"/>
        </g>
        <g id="Group_13840" data-name="Group 13840" transform="translate(733.139 281.932)">
          <path id="Path_90895" data-name="Path 90895" d="M2329.37,829.225l-6.038-.352-.388,2.892,6.048.532Z" transform="translate(-2322.944 -828.873)" fill="#38539a"/>
        </g>
        <g id="Group_13841" data-name="Group 13841" transform="translate(874.497 4.184)">
          <path id="Path_90896" data-name="Path 90896" d="M2702.57,149.229l-5.2,3.346,1.162,2.637,5.3-3.2Z" transform="translate(-2697.37 -149.229)" fill="#38539a"/>
        </g>
        <g id="Group_13842" data-name="Group 13842" transform="translate(953.26 91.503)">
          <path id="Path_90897" data-name="Path 90897" d="M2911.2,362.9l-5.2,3.346,1.163,2.637,5.3-3.2Z" transform="translate(-2906 -362.9)" fill="#38539a"/>
        </g>
        <g id="Group_13843" data-name="Group 13843" transform="translate(836.361 118.91)">
          <path id="Path_90898" data-name="Path 90898" d="M2601.56,435.821l-2.69-5.861-2.516,1.058,2.55,5.959Z" transform="translate(-2596.354 -429.96)" fill="#38539a"/>
        </g>
        <g id="Group_13844" data-name="Group 13844" transform="translate(928.795 21.061)">
          <path id="Path_90899" data-name="Path 90899" d="M2841.2,192.722l4.6,4.253,1.932-2.041-4.5-4.4Z" transform="translate(-2841.2 -190.533)" fill="#38539a"/>
        </g>
        <g id="Group_13845" data-name="Group 13845" transform="translate(981.903 134.363)">
          <path id="Path_90900" data-name="Path 90900" d="M2981.87,469.963l4.6,4.253,1.931-2.041-4.5-4.4Z" transform="translate(-2981.87 -467.773)" fill="#38539a"/>
        </g>
        <g id="Group_13846" data-name="Group 13846" transform="translate(857.745 129.066)">
          <path id="Path_90901" data-name="Path 90901" d="M2658.61,454.813l-5.619,2.417.767,2.8,5.7-2.259Z" transform="translate(-2652.991 -454.813)" fill="#38539a"/>
        </g>
        <g id="Group_13847" data-name="Group 13847" transform="translate(996.675 17.194)">
          <path id="Path_90902" data-name="Path 90902" d="M3023.83,188l.285-6.537-2.675-.4-.451,6.55Z" transform="translate(-3020.989 -181.064)" fill="#38539a"/>
        </g>
        <g id="Group_13848" data-name="Group 13848" transform="translate(769.01 54.778)">
          <path id="Path_90903" data-name="Path 90903" d="M2419.72,273.03l4.3,4.384-1.627,2.248-4.426-4.269Z" transform="translate(-2417.967 -273.03)" fill="#38539a"/>
        </g>
        <g id="Group_13849" data-name="Group 13849" transform="translate(738.302 179.178)">
          <path id="Path_90904" data-name="Path 90904" d="M2343.18,579.792l-4.889,3.593-1.672-2.208,4.813-3.746Z" transform="translate(-2336.619 -577.432)" fill="#38539a"/>
        </g>
        <g id="Group_13850" data-name="Group 13850" transform="translate(765.291 123.276)">
          <path id="Path_90905" data-name="Path 90905" d="M2408.46,440.644l5.782,1.313-.306,2.836-5.833-1.145Z" transform="translate(-2408.103 -440.644)" fill="#38539a"/>
        </g>
        <g id="Group_13851" data-name="Group 13851" transform="translate(583.525 58.077)">
          <path id="Path_90906" data-name="Path 90906" d="M1927.1,281.1l5.738,1.525-.4,2.823-5.793-1.363Z" transform="translate(-1926.645 -281.1)" fill="#38539a"/>
        </g>
        <g id="Group_13852" data-name="Group 13852" transform="translate(704.577 50.826)">
          <path id="Path_90907" data-name="Path 90907" d="M2247.43,263.362l5.857.844-.111,2.85-5.9-.673Z" transform="translate(-2247.281 -263.362)" fill="#38539a"/>
        </g>
        <g id="Group_13853" data-name="Group 13853" transform="translate(595.149 16.814)">
          <path id="Path_90908" data-name="Path 90908" d="M1960.21,180.137l.187,6.392-2.618.348-.35-6.406Z" transform="translate(-1957.429 -180.137)" fill="#38539a"/>
        </g>
        <g id="Group_13854" data-name="Group 13854" transform="translate(743.638 12.576)">
          <path id="Path_90909" data-name="Path 90909" d="M2350.76,172.342l5.406-2.579,1.278,2.5-5.354,2.752Z" transform="translate(-2350.76 -169.763)" fill="#38539a"/>
        </g>
        <g id="Group_13855" data-name="Group 13855" transform="translate(672.843 16.783)">
          <path id="Path_90910" data-name="Path 90910" d="M2165.03,180.06l4.225,4.469-1.666,2.214-4.351-4.358Z" transform="translate(-2163.238 -180.06)" fill="#38539a"/>
        </g>
        <g id="Group_13856" data-name="Group 13856" transform="translate(1132.58 40.262)">
          <path id="Path_90911" data-name="Path 90911" d="M3380.98,241.1l5.1-3.585,1.678,2.311-5.025,3.747Z" transform="translate(-3380.98 -237.512)" fill="#38539a"/>
        </g>
        <g id="Group_13857" data-name="Group 13857" transform="translate(1078.805 139.174)">
          <path id="Path_90912" data-name="Path 90912" d="M3238.54,481.931l5.67-2.384,1.207,2.632-5.625,2.56Z" transform="translate(-3238.54 -479.547)" fill="#38539a"/>
        </g>
        <g id="Group_13858" data-name="Group 13858" transform="translate(1226.962 187.194)">
          <path id="Path_90913" data-name="Path 90913" d="M3630.98,600.638l5.1-3.585,1.678,2.311-5.025,3.747Z" transform="translate(-3630.98 -597.053)" fill="#38539a"/>
        </g>
        <g id="Group_13859" data-name="Group 13859" transform="translate(1087.79 232.444)">
          <path id="Path_90914" data-name="Path 90914" d="M3262.34,711.363l5.1-3.585,1.679,2.311-5.026,3.747Z" transform="translate(-3262.34 -707.778)" fill="#38539a"/>
        </g>
        <g id="Group_13860" data-name="Group 13860" transform="translate(1171.799 50.866)">
          <path id="Path_90915" data-name="Path 90915" d="M3490.98,266.394l-5.757.321-.364-2.758,5.766-.5Z" transform="translate(-3484.859 -263.461)" fill="#38539a"/>
        </g>
        <g id="Group_13861" data-name="Group 13861" transform="translate(1291.064 17.77)">
          <path id="Path_90916" data-name="Path 90916" d="M3801.08,189.105l-.31-6.23,2.547-.4.468,6.24Z" transform="translate(-3800.77 -182.475)" fill="#38539a"/>
        </g>
        <g id="Group_13862" data-name="Group 13862" transform="translate(1230.349 31.106)">
          <path id="Path_90917" data-name="Path 90917" d="M3642.76,215.106l3.366,6.716-2.624,1.891-3.546-6.637Z" transform="translate(-3639.956 -215.106)" fill="#38539a"/>
        </g>
        <g id="Group_13863" data-name="Group 13863" transform="translate(1178.316 14.548)">
          <path id="Path_90918" data-name="Path 90918" d="M3502.12,178.09l6.918.971.678-3.291-6.914-1.18Z" transform="translate(-3502.12 -174.591)" fill="#38539a"/>
        </g>
        <g id="Group_13864" data-name="Group 13864" transform="translate(1100.394 11.975)">
          <path id="Path_90919" data-name="Path 90919" d="M3295.72,170.014l3.618,4.726,1.906-1.6-3.52-4.85Z" transform="translate(-3295.72 -168.293)" fill="#38539a"/>
        </g>
        <g id="Group_13865" data-name="Group 13865" transform="translate(1307.337 199.579)">
          <path id="Path_90920" data-name="Path 90920" d="M3843.88,629.078l3.617,4.726,1.907-1.6-3.52-4.85Z" transform="translate(-3843.88 -627.357)" fill="#38539a"/>
        </g>
        <g id="Group_13866" data-name="Group 13866" transform="translate(1176.745 194.272)">
          <path id="Path_90921" data-name="Path 90921" d="M3500.97,614.369l-3,5.2,2,1.455,3.141-5.146Z" transform="translate(-3497.97 -614.369)" fill="#38539a"/>
        </g>
        <g id="Group_13867" data-name="Group 13867" transform="translate(1072.672 67.953)">
          <path id="Path_90922" data-name="Path 90922" d="M3225.29,305.269l-3,5.2,2,1.455,3.141-5.146Z" transform="translate(-3222.29 -305.269)" fill="#38539a"/>
        </g>
      </g>
      <g id="Group_13869" data-name="Group 13869" transform="translate(-50 -39.494)" opacity="0.152">
        <ellipse id="Ellipse_1655" data-name="Ellipse 1655" cx="50" cy="46.171" rx="50" ry="46.171" transform="translate(364 78.076)" fill="#e3e5ff"/>
        <g id="Ellipse_1656" data-name="Ellipse 1656" transform="translate(20 9)" fill="none" stroke="#e3e5ff" stroke-width="16">
          <ellipse cx="45" cy="44.038" rx="45" ry="44.038" stroke="none"/>
          <ellipse cx="45" cy="44.038" rx="37" ry="36.038" fill="none"/>
        </g>
      </g>
    </g>
  </g>
</svg>
