<svg xmlns="http://www.w3.org/2000/svg" xmlns:xlink="http://www.w3.org/1999/xlink" width="375" height="88" viewBox="0 0 375 88">
  <defs>
    <clipPath id="clip-path">
      <rect id="Rectangle_5308" data-name="Rectangle 5308" width="375" height="88" transform="translate(3030 971.716)" fill="#e5fdff"/>
    </clipPath>
  </defs>
  <g id="Group_13546" data-name="Group 13546" transform="translate(-3030 -971.716)">
    <g id="Group_13541" data-name="Group 13541" transform="translate(2638 227.716)">
      <g id="Group_12429" data-name="Group 12429" transform="translate(392 744)">
        <rect id="Rectangle_4231" data-name="Rectangle 4231" width="375" height="88" transform="translate(0 0)" fill="#e5fdff"/>
      </g>
    </g>
    <g id="Mask_Group_198" data-name="Mask Group 198" clip-path="url(#clip-path)">
      <g id="Group_13544" data-name="Group 13544" transform="translate(3000.525 882.681)">
        <circle id="Ellipse_1651" data-name="Ellipse 1651" cx="50" cy="50" r="50" transform="translate(353.817 126)" fill="#d8f3f5"/>
        <path id="Exclusion_9" data-name="Exclusion 9" d="M50,100A50.013,50.013,0,0,1,30.538,3.929,50.013,50.013,0,0,1,69.463,96.071,49.684,49.684,0,0,1,50,100Zm-.122-73.983A24.849,24.849,0,0,0,40.332,27.9a24.48,24.48,0,0,0-7.8,5.14,23.879,23.879,0,0,0-5.256,7.624,23.573,23.573,0,0,0,0,18.672,23.881,23.881,0,0,0,5.256,7.623,24.481,24.481,0,0,0,7.8,5.14,25.118,25.118,0,0,0,19.093,0,24.481,24.481,0,0,0,7.8-5.14,23.878,23.878,0,0,0,5.256-7.623,23.574,23.574,0,0,0,0-18.672,23.88,23.88,0,0,0-5.256-7.624,24.479,24.479,0,0,0-7.8-5.14A24.849,24.849,0,0,0,49.879,26.017Z" transform="translate(-20 40)" fill="#d8f3f5"/>
      </g>
    </g>
  </g>
</svg>
