<svg xmlns="http://www.w3.org/2000/svg" xmlns:xlink="http://www.w3.org/1999/xlink" width="268" height="268" viewBox="0 0 268 268">
  <defs>
    <clipPath id="clip-path">
      <path id="Path_89515" data-name="Path 89515" d="M199.672,59.994c-3.582-20.317-33.142-13.911-48.136-13.911s-10.972,10.458-13.7,32.461c-1.69,13.645,3.562,21.138,11.049,25.8a27.458,27.458,0,0,0,3.195.195,27.714,27.714,0,0,0,15.125-4.325c2.115-1.348,3.576,7.364,5.257,5.538s12.3,3.367,13.6,1.237,7.772-12.493,8.657-14.84c.062-.164,4.886-18.385,4.946-18.55C199.506,71.916,200,61.839,199.672,59.994Z" fill="none"/>
    </clipPath>
  </defs>
  <g id="Group_12728" data-name="Group 12728" transform="translate(2793 -884)">
    <rect id="Rectangle_5084" data-name="Rectangle 5084" width="268" height="268" transform="translate(-2793 884)" fill="none"/>
    <g id="Group_12727" data-name="Group 12727" transform="translate(-2820.834 939.699)">
      <g id="Group_12722" data-name="Group 12722">
        <g id="Group_12718" data-name="Group 12718">
          <path id="Path_89503" data-name="Path 89503" d="M60.453,49.409a13.735,13.735,0,0,1,1.869-4.5,16.15,16.15,0,0,1,3.238-3.694,15.15,15.15,0,0,1,4.194-2.5,12.628,12.628,0,0,1,4.694-.913h42.42a6.817,6.817,0,0,1,2.913.608,5.792,5.792,0,0,1,2.151,1.7,6.321,6.321,0,0,1,1.174,2.52,6.966,6.966,0,0,1-.022,3.043,9.013,9.013,0,0,1-1.261,3.064,10.664,10.664,0,0,1-5.085,4.151,8.682,8.682,0,0,1-3.173.608H78.273L74.231,72.531h30.033a6.416,6.416,0,0,1,2.826.609,5.78,5.78,0,0,1,3.215,4.085,6.794,6.794,0,0,1-.043,2.955,9.118,9.118,0,0,1-1.239,2.957,10.466,10.466,0,0,1-4.933,4.085A8.234,8.234,0,0,1,101,87.83H70.971l-6.128,28.816a9.882,9.882,0,0,1-1.478,3.586,11.729,11.729,0,0,1-2.608,2.8,12.487,12.487,0,0,1-3.368,1.848,11.021,11.021,0,0,1-3.8.674,8.663,8.663,0,0,1-3.5-.674,7.108,7.108,0,0,1-2.564-1.848,6.305,6.305,0,0,1-1.391-2.8,8.553,8.553,0,0,1,.021-3.586Z" fill="#00182e" stroke="#a2d7cc" stroke-miterlimit="10" stroke-width="12.88"/>
          <path id="Path_89504" data-name="Path 89504" d="M120.259,81.267a64.249,64.249,0,0,1,3.651-11.583,60.414,60.414,0,0,1,5.845-10.714,57.009,57.009,0,0,1,7.954-9.278,51.586,51.586,0,0,1,9.932-7.325,50.367,50.367,0,0,1,11.778-4.8,51.765,51.765,0,0,1,13.561-1.717,44.657,44.657,0,0,1,12.929,1.717,31.984,31.984,0,0,1,9.846,4.8,27.911,27.911,0,0,1,6.91,7.325,31.845,31.845,0,0,1,4.063,9.278,41.984,41.984,0,0,1,1.326,10.714,55.467,55.467,0,0,1-1.26,11.583,62.1,62.1,0,0,1-3.673,11.54,60.571,60.571,0,0,1-5.866,10.626,56.671,56.671,0,0,1-7.976,9.215,50.251,50.251,0,0,1-9.975,7.236,51.569,51.569,0,0,1-11.866,4.716,53.3,53.3,0,0,1-13.669,1.695,44.557,44.557,0,0,1-12.843-1.695,32.23,32.23,0,0,1-9.779-4.716,26.6,26.6,0,0,1-6.846-7.236,31.955,31.955,0,0,1-4-9.215A41.959,41.959,0,0,1,119,92.807,55.216,55.216,0,0,1,120.259,81.267Zm18.863,0a41.135,41.135,0,0,0-.934,7.085,29.913,29.913,0,0,0,.434,6.715A22.572,22.572,0,0,0,140.556,101a15.508,15.508,0,0,0,3.608,4.76,16.344,16.344,0,0,0,5.5,3.172,22.473,22.473,0,0,0,7.541,1.153,27.714,27.714,0,0,0,15.125-4.325,28.547,28.547,0,0,0,5.693-4.76,38.209,38.209,0,0,0,4.478-5.932,39.483,39.483,0,0,0,3.281-6.715,51.475,51.475,0,0,0,2.108-7.085,46.272,46.272,0,0,0,.913-7.106,29.689,29.689,0,0,0-.413-6.759,23.312,23.312,0,0,0-1.935-6,15.292,15.292,0,0,0-3.65-4.825,16.6,16.6,0,0,0-5.607-3.2,23.387,23.387,0,0,0-7.693-1.151,26.7,26.7,0,0,0-14.864,4.346,28.981,28.981,0,0,0-5.651,4.825,38.353,38.353,0,0,0-4.455,6,43.548,43.548,0,0,0-3.3,6.759A45.033,45.033,0,0,0,139.122,81.267Z" fill="#00182e" stroke="#a2d7cc" stroke-miterlimit="10" stroke-width="12.88"/>
          <path id="Path_89505" data-name="Path 89505" d="M248,43.585a11.481,11.481,0,0,1,4.564-4.564,13.761,13.761,0,0,1,6.216-1.3h4.606a18.476,18.476,0,0,1,3.152.26A7.328,7.328,0,0,1,269.23,39a6.353,6.353,0,0,1,2.02,2.13,9.481,9.481,0,0,1,1.131,3.629l9.823,64.76q.129.74.259,1.674c.088.623.152,1.275.2,1.956s.064,1.347.064,2a8.132,8.132,0,0,1-.173,1.76,9.3,9.3,0,0,1-1.457,3.325,12.134,12.134,0,0,1-2.541,2.695,11.791,11.791,0,0,1-3.3,1.8,10.941,10.941,0,0,1-3.7.651,9.818,9.818,0,0,1-5.193-1.216,5.7,5.7,0,0,1-2.5-4.086L261.9,106H230.439l-8.085,14.082a9.762,9.762,0,0,1-3.977,4.086,12.821,12.821,0,0,1-5.889,1.216,9.9,9.9,0,0,1-3.543-.587,6.06,6.06,0,0,1-2.5-1.694,5.846,5.846,0,0,1-1.283-2.673,8.378,8.378,0,0,1,.11-3.521,11.473,11.473,0,0,1,.565-1.76q.39-.978.89-2t1.044-1.956q.543-.935.977-1.674ZM256.6,58.623h-.217L237.609,92.568h22.863Z" fill="#00182e" stroke="#a2d7cc" stroke-miterlimit="10" stroke-width="12.88"/>
        </g>
        <g id="Group_12721" data-name="Group 12721">
          <g id="Group_12719" data-name="Group 12719">
            <path id="Path_89506" data-name="Path 89506" d="M55.334,43.862a13.737,13.737,0,0,1,1.87-4.5,16.122,16.122,0,0,1,3.237-3.694,15.165,15.165,0,0,1,4.194-2.5,12.632,12.632,0,0,1,4.694-.913H111.75a6.815,6.815,0,0,1,2.912.608,5.792,5.792,0,0,1,2.151,1.7,6.321,6.321,0,0,1,1.174,2.52,6.966,6.966,0,0,1-.022,3.043,9.03,9.03,0,0,1-1.26,3.064,10.66,10.66,0,0,1-5.086,4.151,8.678,8.678,0,0,1-3.173.608H73.154L69.112,66.984H99.145a6.43,6.43,0,0,1,2.826.608,5.789,5.789,0,0,1,3.216,4.086,6.825,6.825,0,0,1-.043,2.955,9.142,9.142,0,0,1-1.24,2.957,10.47,10.47,0,0,1-4.932,4.085,8.242,8.242,0,0,1-3.086.608H65.852L59.724,111.1a9.881,9.881,0,0,1-1.478,3.586,11.745,11.745,0,0,1-2.607,2.8,12.492,12.492,0,0,1-3.369,1.848,11.021,11.021,0,0,1-3.8.674,8.658,8.658,0,0,1-3.5-.674,7.111,7.111,0,0,1-2.565-1.848,6.316,6.316,0,0,1-1.391-2.8,8.554,8.554,0,0,1,.022-3.586Z" fill="#00182e" stroke="#fff" stroke-linecap="round" stroke-linejoin="round" stroke-width="7.577"/>
            <path id="Path_89507" data-name="Path 89507" d="M115.14,75.72a64.25,64.25,0,0,1,3.651-11.583,60.419,60.419,0,0,1,5.846-10.714,57,57,0,0,1,7.953-9.278,51.586,51.586,0,0,1,9.932-7.325,50.4,50.4,0,0,1,11.778-4.8A51.771,51.771,0,0,1,167.861,30.3a44.664,44.664,0,0,1,12.93,1.717,31.989,31.989,0,0,1,9.845,4.8,27.911,27.911,0,0,1,6.91,7.325,31.874,31.874,0,0,1,4.064,9.278,41.984,41.984,0,0,1,1.326,10.714,55.466,55.466,0,0,1-1.26,11.583A62.175,62.175,0,0,1,198,87.26a60.571,60.571,0,0,1-5.866,10.626,56.622,56.622,0,0,1-7.976,9.215,50.25,50.25,0,0,1-9.975,7.236,51.569,51.569,0,0,1-11.866,4.716,53.3,53.3,0,0,1-13.669,1.695,44.557,44.557,0,0,1-12.843-1.695,32.242,32.242,0,0,1-9.779-4.716,26.615,26.615,0,0,1-6.846-7.236,31.926,31.926,0,0,1-4-9.215,41.914,41.914,0,0,1-1.3-10.626A55.217,55.217,0,0,1,115.14,75.72Zm18.863,0a41.233,41.233,0,0,0-.934,7.085,29.853,29.853,0,0,0,.435,6.715,22.608,22.608,0,0,0,1.933,5.932,15.508,15.508,0,0,0,3.608,4.76,16.344,16.344,0,0,0,5.5,3.172,22.481,22.481,0,0,0,7.541,1.153,27.714,27.714,0,0,0,15.125-4.325,28.547,28.547,0,0,0,5.693-4.76,38.023,38.023,0,0,0,4.478-5.932,39.563,39.563,0,0,0,3.282-6.715,51.615,51.615,0,0,0,2.108-7.085,46.4,46.4,0,0,0,.912-7.106,29.689,29.689,0,0,0-.413-6.759,23.349,23.349,0,0,0-1.934-6,15.31,15.31,0,0,0-3.651-4.825,16.587,16.587,0,0,0-5.607-3.195,23.387,23.387,0,0,0-7.693-1.151,26.708,26.708,0,0,0-14.864,4.346,28.981,28.981,0,0,0-5.651,4.825,38.353,38.353,0,0,0-4.455,6,43.639,43.639,0,0,0-3.3,6.759A45.138,45.138,0,0,0,134,75.72Z" fill="#00182e" stroke="#fff" stroke-linecap="round" stroke-linejoin="round" stroke-width="7.577"/>
            <path id="Path_89508" data-name="Path 89508" d="M242.878,38.038a11.474,11.474,0,0,1,4.564-4.564,13.764,13.764,0,0,1,6.216-1.3h4.607a18.464,18.464,0,0,1,3.151.26,7.311,7.311,0,0,1,2.7,1.022,6.353,6.353,0,0,1,2.02,2.13,9.481,9.481,0,0,1,1.131,3.629l9.823,64.76q.129.739.259,1.674c.088.623.152,1.275.2,1.955s.065,1.348.065,2a8.129,8.129,0,0,1-.174,1.76,9.3,9.3,0,0,1-1.457,3.325,12.134,12.134,0,0,1-2.541,2.695,11.777,11.777,0,0,1-3.3,1.8,10.939,10.939,0,0,1-3.7.651,9.809,9.809,0,0,1-5.194-1.217,5.691,5.691,0,0,1-2.5-4.085l-1.956-14.082H225.32l-8.085,14.082a9.753,9.753,0,0,1-3.977,4.085,12.8,12.8,0,0,1-5.889,1.217,9.9,9.9,0,0,1-3.542-.587,6.06,6.06,0,0,1-2.5-1.694,5.826,5.826,0,0,1-1.283-2.673,8.36,8.36,0,0,1,.109-3.521,11.473,11.473,0,0,1,.565-1.76q.392-.978.891-2t1.044-1.955q.543-.934.977-1.674Zm8.606,15.038h-.216L232.49,87.021h22.863Z" fill="#00182e" stroke="#fff" stroke-linecap="round" stroke-linejoin="round" stroke-width="7.577"/>
          </g>
          <g id="Group_12720" data-name="Group 12720">
            <path id="Path_89509" data-name="Path 89509" d="M55.334,43.862a13.737,13.737,0,0,1,1.87-4.5,16.122,16.122,0,0,1,3.237-3.694,15.165,15.165,0,0,1,4.194-2.5,12.632,12.632,0,0,1,4.694-.913H111.75a6.815,6.815,0,0,1,2.912.608,5.792,5.792,0,0,1,2.151,1.7,6.321,6.321,0,0,1,1.174,2.52,6.966,6.966,0,0,1-.022,3.043,9.03,9.03,0,0,1-1.26,3.064,10.66,10.66,0,0,1-5.086,4.151,8.678,8.678,0,0,1-3.173.608H73.154L69.112,66.984H99.145a6.43,6.43,0,0,1,2.826.608,5.789,5.789,0,0,1,3.216,4.086,6.825,6.825,0,0,1-.043,2.955,9.142,9.142,0,0,1-1.24,2.957,10.47,10.47,0,0,1-4.932,4.085,8.242,8.242,0,0,1-3.086.608H65.852L59.724,111.1a9.881,9.881,0,0,1-1.478,3.586,11.745,11.745,0,0,1-2.607,2.8,12.492,12.492,0,0,1-3.369,1.848,11.021,11.021,0,0,1-3.8.674,8.658,8.658,0,0,1-3.5-.674,7.111,7.111,0,0,1-2.565-1.848,6.316,6.316,0,0,1-1.391-2.8,8.554,8.554,0,0,1,.022-3.586Z" fill="#00182e"/>
            <path id="Path_89510" data-name="Path 89510" d="M115.14,75.72a64.25,64.25,0,0,1,3.651-11.583,60.419,60.419,0,0,1,5.846-10.714,57,57,0,0,1,7.953-9.278,51.586,51.586,0,0,1,9.932-7.325,50.4,50.4,0,0,1,11.778-4.8A51.771,51.771,0,0,1,167.861,30.3a44.664,44.664,0,0,1,12.93,1.717,31.989,31.989,0,0,1,9.845,4.8,27.911,27.911,0,0,1,6.91,7.325,31.874,31.874,0,0,1,4.064,9.278,41.984,41.984,0,0,1,1.326,10.714,55.466,55.466,0,0,1-1.26,11.583A62.175,62.175,0,0,1,198,87.26a60.571,60.571,0,0,1-5.866,10.626,56.622,56.622,0,0,1-7.976,9.215,50.25,50.25,0,0,1-9.975,7.236,51.569,51.569,0,0,1-11.866,4.716,53.3,53.3,0,0,1-13.669,1.695,44.557,44.557,0,0,1-12.843-1.695,32.242,32.242,0,0,1-9.779-4.716,26.615,26.615,0,0,1-6.846-7.236,31.926,31.926,0,0,1-4-9.215,41.914,41.914,0,0,1-1.3-10.626A55.217,55.217,0,0,1,115.14,75.72Zm18.863,0a41.233,41.233,0,0,0-.934,7.085,29.853,29.853,0,0,0,.435,6.715,22.608,22.608,0,0,0,1.933,5.932,15.508,15.508,0,0,0,3.608,4.76,16.344,16.344,0,0,0,5.5,3.172,22.481,22.481,0,0,0,7.541,1.153,27.714,27.714,0,0,0,15.125-4.325,28.547,28.547,0,0,0,5.693-4.76,38.023,38.023,0,0,0,4.478-5.932,39.563,39.563,0,0,0,3.282-6.715,51.615,51.615,0,0,0,2.108-7.085,46.4,46.4,0,0,0,.912-7.106,29.689,29.689,0,0,0-.413-6.759,23.349,23.349,0,0,0-1.934-6,15.31,15.31,0,0,0-3.651-4.825,16.587,16.587,0,0,0-5.607-3.195,23.387,23.387,0,0,0-7.693-1.151,26.708,26.708,0,0,0-14.864,4.346,28.981,28.981,0,0,0-5.651,4.825,38.353,38.353,0,0,0-4.455,6,43.639,43.639,0,0,0-3.3,6.759A45.138,45.138,0,0,0,134,75.72Z" fill="#00182e"/>
            <path id="Path_89511" data-name="Path 89511" d="M242.878,38.038a11.474,11.474,0,0,1,4.564-4.564,13.764,13.764,0,0,1,6.216-1.3h4.607a18.464,18.464,0,0,1,3.151.26,7.311,7.311,0,0,1,2.7,1.022,6.353,6.353,0,0,1,2.02,2.13,9.481,9.481,0,0,1,1.131,3.629l9.823,64.76q.129.739.259,1.674c.088.623.152,1.275.2,1.955s.065,1.348.065,2a8.129,8.129,0,0,1-.174,1.76,9.3,9.3,0,0,1-1.457,3.325,12.134,12.134,0,0,1-2.541,2.695,11.777,11.777,0,0,1-3.3,1.8,10.939,10.939,0,0,1-3.7.651,9.809,9.809,0,0,1-5.194-1.217,5.691,5.691,0,0,1-2.5-4.085l-1.956-14.082H225.32l-8.085,14.082a9.753,9.753,0,0,1-3.977,4.085,12.8,12.8,0,0,1-5.889,1.217,9.9,9.9,0,0,1-3.542-.587,6.06,6.06,0,0,1-2.5-1.694,5.826,5.826,0,0,1-1.283-2.673,8.36,8.36,0,0,1,.109-3.521,11.473,11.473,0,0,1,.565-1.76q.392-.978.891-2t1.044-1.955q.543-.934.977-1.674Zm8.606,15.038h-.216L232.49,87.021h22.863Z" fill="#00182e"/>
          </g>
        </g>
      </g>
      <g id="Group_12726" data-name="Group 12726">
        <g id="Group_12725" data-name="Group 12725" clip-path="url(#clip-path)">
          <g id="Group_12724" data-name="Group 12724">
            <path id="Path_89512" data-name="Path 89512" d="M199.135,73.55l-25.77,22.927a1.508,1.508,0,0,1-2.5-.976l-1.031-10.336a1.5,1.5,0,0,0-.869-1.22c-3.1-1.417-14.854-4.664-27.382,19.605a1.507,1.507,0,0,1-2.844-.664c-.173-10.389,2.54-31.629,27.215-34.078a1.505,1.505,0,0,0,1.353-1.577l-.692-13a1.507,1.507,0,0,1,2.288-1.368l30.016,18.27A1.506,1.506,0,0,1,199.135,73.55Z" fill="none" stroke="#00182e" stroke-linecap="round" stroke-linejoin="round" stroke-width="7" fill-rule="evenodd"/>
            <g id="Group_12723" data-name="Group 12723">
              <path id="Path_89513" data-name="Path 89513" d="M192.883,73.5,167.112,96.424a1.507,1.507,0,0,1-2.5-.976l-1.032-10.336a1.5,1.5,0,0,0-.869-1.22c-3.1-1.417-14.854-4.664-27.382,19.605a1.507,1.507,0,0,1-2.844-.664c-.172-10.389,2.541-31.629,27.215-34.079a1.505,1.505,0,0,0,1.354-1.576l-.693-13a1.507,1.507,0,0,1,2.288-1.367l30.017,18.27A1.507,1.507,0,0,1,192.883,73.5Z" fill="none" stroke="#fff" stroke-linecap="round" stroke-linejoin="round" stroke-width="4" fill-rule="evenodd"/>
              <path id="Path_89514" data-name="Path 89514" d="M192.883,73.5,167.112,96.424a1.507,1.507,0,0,1-2.5-.976l-1.032-10.336a1.5,1.5,0,0,0-.869-1.22c-3.1-1.417-14.854-4.664-27.382,19.605a1.507,1.507,0,0,1-2.844-.664c-.172-10.389,2.541-31.629,27.215-34.079a1.505,1.505,0,0,0,1.354-1.576l-.693-13a1.507,1.507,0,0,1,2.288-1.367l30.017,18.27A1.507,1.507,0,0,1,192.883,73.5Z" fill="#137593" fill-rule="evenodd"/>
            </g>
          </g>
        </g>
      </g>
    </g>
  </g>
</svg>
