<svg xmlns="http://www.w3.org/2000/svg" width="32" height="32" viewBox="0 0 32 32">
  <g id="Group_8246" data-name="Group 8246" transform="translate(-312 -184)">
    <rect id="Input.BG" width="32" height="32" rx="16" transform="translate(312 184)" fill="none"/>
    <g id="Group_5579" data-name="Group 5579" transform="translate(312 184)">
      <g id="Button_Primary_M_Copy" data-name="Button / Primary / M Copy" transform="translate(0 0)">
        <rect id="BG" width="32" height="32" rx="16" fill="none"/>
      </g>
      <g id="Group_5578" data-name="Group 5578" transform="translate(4 4)">
        <rect id="Rectangle_3047" data-name="Rectangle 3047" width="24" height="24" fill="none"/>
        <g id="filter" transform="translate(2 2)">
          <path id="Path_16586" data-name="Path 16586" d="M16.422,0H3.578A3.582,3.582,0,0,0,0,3.578V16.422A3.582,3.582,0,0,0,3.578,20H16.422A3.582,3.582,0,0,0,20,16.422V3.578A3.582,3.582,0,0,0,16.422,0Zm2.406,16.422a2.409,2.409,0,0,1-2.406,2.406H3.578a2.409,2.409,0,0,1-2.406-2.406V3.578A2.409,2.409,0,0,1,3.578,1.172H16.422a2.409,2.409,0,0,1,2.406,2.406Z" transform="translate(0 0)" fill="none"/>
          <path id="Path_16587" data-name="Path 16587" d="M78.66,81.589H69.736a1.841,1.841,0,0,0-3.49,0H64.853a.586.586,0,0,0,0,1.172h1.393a1.841,1.841,0,0,0,3.49,0H78.66a.586.586,0,1,0,0-1.172ZM67.991,82.844a.669.669,0,1,1,.669-.669A.67.67,0,0,1,67.991,82.844Z" transform="translate(-61.757 -77.196)" fill="#fff"/>
          <path id="Path_16588" data-name="Path 16588" d="M78.66,210.122H77.267a1.841,1.841,0,0,0-3.49,0H64.853a.586.586,0,0,0,0,1.172h8.924a1.841,1.841,0,0,0,3.49,0H78.66a.586.586,0,1,0,0-1.172Zm-3.138,1.255a.669.669,0,1,1,.669-.669A.67.67,0,0,1,75.522,211.377Z" transform="translate(-61.757 -200.708)" fill="#fff"/>
          <path id="Path_16589" data-name="Path 16589" d="M78.66,338.655H72.246a1.841,1.841,0,0,0-3.49,0h-3.9a.586.586,0,0,0,0,1.172h3.9a1.841,1.841,0,0,0,3.49,0H78.66a.586.586,0,1,0,0-1.172ZM70.5,339.91a.669.669,0,1,1,.669-.669A.67.67,0,0,1,70.5,339.91Z" transform="translate(-61.757 -324.22)" fill="#fff"/>
        </g>
      </g>
    </g>
  </g>
</svg>
