<svg xmlns="http://www.w3.org/2000/svg" xmlns:xlink="http://www.w3.org/1999/xlink" width="150" height="150" viewBox="0 0 150 150">
  <defs>
    <clipPath id="clip-path">
      <rect id="Rectangle_5104" data-name="Rectangle 5104" width="110" height="110" transform="translate(3738 6040)" fill="#fff" stroke="#707070" stroke-width="1"/>
    </clipPath>
    <clipPath id="clip-path-2">
      <path id="Path_89515" data-name="Path 89515" d="M79.143,23.5c-1.6-9.1-14.84-6.229-21.553-6.229S52.677,21.949,51.455,31.8c-.757,6.11,1.595,9.465,4.947,11.552a12.626,12.626,0,0,0,8.2-1.849c.947-.6,1.6,3.3,2.354,2.48s5.507,1.508,6.09.554,3.48-5.594,3.876-6.645c.028-.073,2.188-8.232,2.215-8.306C79.068,28.834,79.29,24.322,79.143,23.5Z" transform="translate(-51.313 -16.838)" fill="none"/>
    </clipPath>
  </defs>
  <g id="Group_8482" data-name="Group 8482" transform="translate(-3733 -5831)">
    <rect id="Rectangle_5103" data-name="Rectangle 5103" width="150" height="150" transform="translate(3733 5831)" fill="none"/>
    <g id="Mask_Group_52" data-name="Mask Group 52" transform="translate(15 -189)" clip-path="url(#clip-path)">
      <g id="Group_12728" data-name="Group 12728" transform="translate(3733 6035)">
        <rect id="Rectangle_5084" data-name="Rectangle 5084" width="120" height="120" transform="translate(0 0)" fill="none"/>
        <g id="Group_12727" data-name="Group 12727" transform="translate(5.821 38.505)">
          <g id="Group_12722" data-name="Group 12722" transform="translate(0 0)">
            <g id="Group_12718" data-name="Group 12718" transform="translate(2.292 2.485)">
              <path id="Path_89503" data-name="Path 89503" d="M23.639,19.3a6.15,6.15,0,0,1,.837-2.015,7.231,7.231,0,0,1,1.45-1.654A6.784,6.784,0,0,1,27.8,14.514a5.654,5.654,0,0,1,2.1-.409H48.9a3.052,3.052,0,0,1,1.3.272,2.593,2.593,0,0,1,.963.761,2.83,2.83,0,0,1,.526,1.128,3.119,3.119,0,0,1-.01,1.363A4.036,4.036,0,0,1,51.118,19a4.775,4.775,0,0,1-2.277,1.859,3.887,3.887,0,0,1-1.421.272h-15.8l-1.81,8.523H43.256a2.873,2.873,0,0,1,1.265.273,2.588,2.588,0,0,1,1.44,1.829,3.042,3.042,0,0,1-.019,1.323,4.083,4.083,0,0,1-.555,1.324,4.686,4.686,0,0,1-2.209,1.829,3.687,3.687,0,0,1-1.384.272H28.349L25.6,49.409a4.425,4.425,0,0,1-.662,1.606,5.252,5.252,0,0,1-1.168,1.254,5.591,5.591,0,0,1-1.508.827,4.935,4.935,0,0,1-1.7.3A3.879,3.879,0,0,1,19,53.1a3.183,3.183,0,0,1-1.148-.827,2.823,2.823,0,0,1-.623-1.254,3.83,3.83,0,0,1,.009-1.606Z" transform="translate(-17.147 -13.229)" fill="#00182e" stroke="#a2d7cc" stroke-miterlimit="10" stroke-width="4.806"/>
              <path id="Path_89504" data-name="Path 89504" d="M44.967,33.713A28.769,28.769,0,0,1,46.6,28.527a27.05,27.05,0,0,1,2.617-4.8,25.526,25.526,0,0,1,3.561-4.154,23.1,23.1,0,0,1,4.447-3.28A22.552,22.552,0,0,1,62.5,14.146a23.178,23.178,0,0,1,6.072-.769,20,20,0,0,1,5.789.769A14.321,14.321,0,0,1,78.771,16.3a12.5,12.5,0,0,1,3.094,3.28,14.259,14.259,0,0,1,1.819,4.154,18.8,18.8,0,0,1,.594,4.8,24.836,24.836,0,0,1-.564,5.186,27.806,27.806,0,0,1-1.645,5.167,27.121,27.121,0,0,1-2.627,4.758,25.374,25.374,0,0,1-3.571,4.126A22.5,22.5,0,0,1,71.4,51a23.09,23.09,0,0,1-5.313,2.112,23.866,23.866,0,0,1-6.12.759,19.951,19.951,0,0,1-5.751-.759A14.431,14.431,0,0,1,49.842,51a11.91,11.91,0,0,1-3.065-3.24,14.308,14.308,0,0,1-1.791-4.126A18.788,18.788,0,0,1,44.4,38.88,24.724,24.724,0,0,1,44.967,33.713Zm8.446,0a18.419,18.419,0,0,0-.418,3.172,13.394,13.394,0,0,0,.194,3.007,10.107,10.107,0,0,0,.866,2.657,6.944,6.944,0,0,0,1.616,2.131,7.318,7.318,0,0,0,2.463,1.42,10.062,10.062,0,0,0,3.377.516,12.409,12.409,0,0,0,6.772-1.937,12.782,12.782,0,0,0,2.549-2.131,17.108,17.108,0,0,0,2.005-2.656,17.68,17.68,0,0,0,1.469-3.007,23.048,23.048,0,0,0,.944-3.172,20.719,20.719,0,0,0,.409-3.182,13.293,13.293,0,0,0-.185-3.026,10.438,10.438,0,0,0-.866-2.687,6.847,6.847,0,0,0-1.634-2.16,7.433,7.433,0,0,0-2.511-1.433,10.472,10.472,0,0,0-3.445-.515,11.955,11.955,0,0,0-6.656,1.946,12.976,12.976,0,0,0-2.53,2.16A17.174,17.174,0,0,0,55.837,27.5a19.5,19.5,0,0,0-1.478,3.026,20.164,20.164,0,0,0-.946,3.184Z" transform="translate(-11.696 -13.375)" fill="#00182e" stroke="#a2d7cc" stroke-miterlimit="10" stroke-width="4.806"/>
              <path id="Path_89505" data-name="Path 89505" d="M95.744,16.7a5.141,5.141,0,0,1,2.044-2.044,6.162,6.162,0,0,1,2.783-.582h2.062a8.273,8.273,0,0,1,1.411.116,3.281,3.281,0,0,1,1.205.456,2.845,2.845,0,0,1,.9.954,4.245,4.245,0,0,1,.506,1.625l4.4,29q.058.331.116.75c.039.279.068.571.09.876s.029.6.029.9a3.642,3.642,0,0,1-.077.788,4.164,4.164,0,0,1-.652,1.489,5.433,5.433,0,0,1-1.138,1.207,5.28,5.28,0,0,1-1.478.806,4.9,4.9,0,0,1-1.657.292,4.4,4.4,0,0,1-2.325-.544,2.552,2.552,0,0,1-1.119-1.83l-.879-6.3H87.881l-3.62,6.305a4.371,4.371,0,0,1-1.781,1.83,5.741,5.741,0,0,1-2.637.544,4.433,4.433,0,0,1-1.586-.263,2.714,2.714,0,0,1-1.119-.759,2.618,2.618,0,0,1-.574-1.2,3.751,3.751,0,0,1,.049-1.577,5.138,5.138,0,0,1,.253-.788q.175-.438.4-.9t.467-.876q.243-.419.437-.75ZM99.6,23.434h-.1l-8.406,15.2h10.237Z" transform="translate(-5.276 -13.235)" fill="#00182e" stroke="#a2d7cc" stroke-miterlimit="10" stroke-width="4.806"/>
            </g>
            <g id="Group_12721" data-name="Group 12721">
              <g id="Group_12719" data-name="Group 12719">
                <path id="Path_89506" data-name="Path 89506" d="M21.729,17.233a6.151,6.151,0,0,1,.837-2.015,7.219,7.219,0,0,1,1.449-1.654,6.79,6.79,0,0,1,1.878-1.119,5.656,5.656,0,0,1,2.1-.409H46.99a3.052,3.052,0,0,1,1.3.272,2.593,2.593,0,0,1,.963.761,2.83,2.83,0,0,1,.526,1.128,3.119,3.119,0,0,1-.01,1.363,4.043,4.043,0,0,1-.564,1.372,4.773,4.773,0,0,1-2.277,1.859,3.886,3.886,0,0,1-1.421.272h-15.8L27.9,27.586H41.346a2.879,2.879,0,0,1,1.265.272,2.592,2.592,0,0,1,1.44,1.83,3.056,3.056,0,0,1-.019,1.323,4.093,4.093,0,0,1-.555,1.324,4.688,4.688,0,0,1-2.208,1.829,3.69,3.69,0,0,1-1.382.272H26.439l-2.744,12.9a4.424,4.424,0,0,1-.662,1.606A5.259,5.259,0,0,1,21.866,50.2a5.593,5.593,0,0,1-1.509.827,4.935,4.935,0,0,1-1.7.3,3.877,3.877,0,0,1-1.567-.3A3.184,3.184,0,0,1,15.94,50.2a2.828,2.828,0,0,1-.623-1.254,3.83,3.83,0,0,1,.01-1.606Z" transform="translate(-15.237 -11.158)" fill="#00182e" stroke="#fff" stroke-linecap="round" stroke-linejoin="round" stroke-width="2.827"/>
                <path id="Path_89507" data-name="Path 89507" d="M43.057,31.644a28.769,28.769,0,0,1,1.635-5.186,27.053,27.053,0,0,1,2.618-4.8,25.522,25.522,0,0,1,3.561-4.154,23.1,23.1,0,0,1,4.447-3.28,22.567,22.567,0,0,1,5.274-2.149,23.181,23.181,0,0,1,6.072-.77,20,20,0,0,1,5.79.769,14.324,14.324,0,0,1,4.408,2.149,12.5,12.5,0,0,1,3.094,3.28,14.272,14.272,0,0,1,1.82,4.154,18.8,18.8,0,0,1,.594,4.8,24.835,24.835,0,0,1-.564,5.186,27.839,27.839,0,0,1-1.646,5.169,27.122,27.122,0,0,1-2.627,4.758,25.354,25.354,0,0,1-3.571,4.126,22.5,22.5,0,0,1-4.466,3.24,23.091,23.091,0,0,1-5.313,2.112,23.865,23.865,0,0,1-6.12.759,19.951,19.951,0,0,1-5.751-.759,14.437,14.437,0,0,1-4.379-2.112,11.917,11.917,0,0,1-3.065-3.24,14.3,14.3,0,0,1-1.791-4.126,18.767,18.767,0,0,1-.582-4.758,24.725,24.725,0,0,1,.564-5.167Zm8.446,0a18.463,18.463,0,0,0-.418,3.172,13.367,13.367,0,0,0,.195,3.007,10.123,10.123,0,0,0,.866,2.656A6.944,6.944,0,0,0,53.76,42.61a7.318,7.318,0,0,0,2.463,1.42,10.066,10.066,0,0,0,3.377.516,12.409,12.409,0,0,0,6.772-1.937,12.782,12.782,0,0,0,2.549-2.131,17.025,17.025,0,0,0,2.005-2.656,17.716,17.716,0,0,0,1.47-3.007,23.109,23.109,0,0,0,.944-3.172,20.777,20.777,0,0,0,.408-3.182,13.294,13.294,0,0,0-.185-3.026,10.455,10.455,0,0,0-.866-2.687,6.855,6.855,0,0,0-1.635-2.16,7.427,7.427,0,0,0-2.511-1.431,10.472,10.472,0,0,0-3.445-.515,11.959,11.959,0,0,0-6.656,1.946,12.976,12.976,0,0,0-2.53,2.16,17.173,17.173,0,0,0-1.995,2.687,19.54,19.54,0,0,0-1.478,3.026,20.212,20.212,0,0,0-.947,3.182Z" transform="translate(-9.786 -11.304)" fill="#00182e" stroke="#fff" stroke-linecap="round" stroke-linejoin="round" stroke-width="2.827"/>
                <path id="Path_89508" data-name="Path 89508" d="M93.833,14.631a5.138,5.138,0,0,1,2.044-2.044,6.163,6.163,0,0,1,2.783-.582h2.063a8.268,8.268,0,0,1,1.411.116,3.274,3.274,0,0,1,1.209.458,2.845,2.845,0,0,1,.9.954,4.246,4.246,0,0,1,.506,1.625l4.4,29q.058.331.116.75c.039.279.068.571.09.875s.029.6.029.9a3.64,3.64,0,0,1-.078.788,4.165,4.165,0,0,1-.652,1.489,5.433,5.433,0,0,1-1.138,1.207,5.273,5.273,0,0,1-1.478.806,4.9,4.9,0,0,1-1.657.291,4.392,4.392,0,0,1-2.326-.545,2.548,2.548,0,0,1-1.119-1.829l-.876-6.305H85.971l-3.62,6.305a4.367,4.367,0,0,1-1.781,1.829,5.731,5.731,0,0,1-2.637.545,4.433,4.433,0,0,1-1.586-.263,2.714,2.714,0,0,1-1.119-.759,2.609,2.609,0,0,1-.574-1.2,3.743,3.743,0,0,1,.049-1.577,5.136,5.136,0,0,1,.253-.788q.176-.438.4-.9t.467-.875q.243-.418.437-.75Zm3.853,6.733h-.1l-8.408,15.2H99.419Z" transform="translate(-3.366 -11.164)" fill="#00182e" stroke="#fff" stroke-linecap="round" stroke-linejoin="round" stroke-width="2.827"/>
              </g>
              <g id="Group_12720" data-name="Group 12720">
                <path id="Path_89509" data-name="Path 89509" d="M21.729,17.233a6.151,6.151,0,0,1,.837-2.015,7.219,7.219,0,0,1,1.449-1.654,6.79,6.79,0,0,1,1.878-1.119,5.656,5.656,0,0,1,2.1-.409H46.99a3.052,3.052,0,0,1,1.3.272,2.593,2.593,0,0,1,.963.761,2.83,2.83,0,0,1,.526,1.128,3.119,3.119,0,0,1-.01,1.363,4.043,4.043,0,0,1-.564,1.372,4.773,4.773,0,0,1-2.277,1.859,3.886,3.886,0,0,1-1.421.272h-15.8L27.9,27.586H41.346a2.879,2.879,0,0,1,1.265.272,2.592,2.592,0,0,1,1.44,1.83,3.056,3.056,0,0,1-.019,1.323,4.093,4.093,0,0,1-.555,1.324,4.688,4.688,0,0,1-2.208,1.829,3.69,3.69,0,0,1-1.382.272H26.439l-2.744,12.9a4.424,4.424,0,0,1-.662,1.606A5.259,5.259,0,0,1,21.866,50.2a5.593,5.593,0,0,1-1.509.827,4.935,4.935,0,0,1-1.7.3,3.877,3.877,0,0,1-1.567-.3A3.184,3.184,0,0,1,15.94,50.2a2.828,2.828,0,0,1-.623-1.254,3.83,3.83,0,0,1,.01-1.606Z" transform="translate(-15.237 -11.158)" fill="#00182e"/>
                <path id="Path_89510" data-name="Path 89510" d="M43.057,31.644a28.769,28.769,0,0,1,1.635-5.186,27.053,27.053,0,0,1,2.618-4.8,25.522,25.522,0,0,1,3.561-4.154,23.1,23.1,0,0,1,4.447-3.28,22.567,22.567,0,0,1,5.274-2.149,23.181,23.181,0,0,1,6.072-.77,20,20,0,0,1,5.79.769,14.324,14.324,0,0,1,4.408,2.149,12.5,12.5,0,0,1,3.094,3.28,14.272,14.272,0,0,1,1.82,4.154,18.8,18.8,0,0,1,.594,4.8,24.835,24.835,0,0,1-.564,5.186,27.839,27.839,0,0,1-1.646,5.169,27.122,27.122,0,0,1-2.627,4.758,25.354,25.354,0,0,1-3.571,4.126,22.5,22.5,0,0,1-4.466,3.24,23.091,23.091,0,0,1-5.313,2.112,23.865,23.865,0,0,1-6.12.759,19.951,19.951,0,0,1-5.751-.759,14.437,14.437,0,0,1-4.379-2.112,11.917,11.917,0,0,1-3.065-3.24,14.3,14.3,0,0,1-1.791-4.126,18.767,18.767,0,0,1-.582-4.758,24.725,24.725,0,0,1,.564-5.167Zm8.446,0a18.463,18.463,0,0,0-.418,3.172,13.367,13.367,0,0,0,.195,3.007,10.123,10.123,0,0,0,.866,2.656A6.944,6.944,0,0,0,53.76,42.61a7.318,7.318,0,0,0,2.463,1.42,10.066,10.066,0,0,0,3.377.516,12.409,12.409,0,0,0,6.772-1.937,12.782,12.782,0,0,0,2.549-2.131,17.025,17.025,0,0,0,2.005-2.656,17.716,17.716,0,0,0,1.47-3.007,23.109,23.109,0,0,0,.944-3.172,20.777,20.777,0,0,0,.408-3.182,13.294,13.294,0,0,0-.185-3.026,10.455,10.455,0,0,0-.866-2.687,6.855,6.855,0,0,0-1.635-2.16,7.427,7.427,0,0,0-2.511-1.431,10.472,10.472,0,0,0-3.445-.515,11.959,11.959,0,0,0-6.656,1.946,12.976,12.976,0,0,0-2.53,2.16,17.173,17.173,0,0,0-1.995,2.687,19.54,19.54,0,0,0-1.478,3.026,20.212,20.212,0,0,0-.947,3.182Z" transform="translate(-9.786 -11.304)" fill="#00182e"/>
                <path id="Path_89511" data-name="Path 89511" d="M93.833,14.631a5.138,5.138,0,0,1,2.044-2.044,6.163,6.163,0,0,1,2.783-.582h2.063a8.268,8.268,0,0,1,1.411.116,3.274,3.274,0,0,1,1.209.458,2.845,2.845,0,0,1,.9.954,4.246,4.246,0,0,1,.506,1.625l4.4,29q.058.331.116.75c.039.279.068.571.09.875s.029.6.029.9a3.64,3.64,0,0,1-.078.788,4.165,4.165,0,0,1-.652,1.489,5.433,5.433,0,0,1-1.138,1.207,5.273,5.273,0,0,1-1.478.806,4.9,4.9,0,0,1-1.657.291,4.392,4.392,0,0,1-2.326-.545,2.548,2.548,0,0,1-1.119-1.829l-.876-6.305H85.971l-3.62,6.305a4.367,4.367,0,0,1-1.781,1.829,5.731,5.731,0,0,1-2.637.545,4.433,4.433,0,0,1-1.586-.263,2.714,2.714,0,0,1-1.119-.759,2.609,2.609,0,0,1-.574-1.2,3.743,3.743,0,0,1,.049-1.577,5.136,5.136,0,0,1,.253-.788q.176-.438.4-.9t.467-.875q.243-.418.437-.75Zm3.853,6.733h-.1l-8.408,15.2H99.419Z" transform="translate(-3.366 -11.164)" fill="#00182e"/>
              </g>
            </g>
          </g>
          <g id="Group_12726" data-name="Group 12726" transform="translate(43.291 6.64)">
            <g id="Group_12725" data-name="Group 12725" clip-path="url(#clip-path-2)">
              <g id="Group_12724" data-name="Group 12724" transform="translate(-2.257 3.343)">
                <path id="Path_89512" data-name="Path 89512" d="M78.812,29,67.273,39.27a.675.675,0,0,1-1.119-.437L65.692,34.2a.672.672,0,0,0-.389-.546c-1.388-.634-6.651-2.088-12.261,8.778a.675.675,0,0,1-1.273-.3c-.077-4.652,1.137-14.162,12.186-15.259a.674.674,0,0,0,.606-.706l-.31-5.821a.675.675,0,0,1,1.024-.613l13.44,8.181a.674.674,0,0,1,.1,1.082Z" transform="translate(-48.965 -19.62)" fill="none" stroke="#00182e" stroke-linecap="round" stroke-linejoin="round" stroke-width="2.612" fill-rule="evenodd"/>
                <g id="Group_12723" data-name="Group 12723">
                  <path id="Path_89513" data-name="Path 89513" d="M76.479,28.986,64.94,39.25a.675.675,0,0,1-1.119-.437l-.462-4.628a.672.672,0,0,0-.389-.546C61.581,33,56.318,31.55,50.709,42.417a.675.675,0,0,1-1.273-.3c-.077-4.652,1.138-14.162,12.186-15.259a.674.674,0,0,0,.606-.706l-.31-5.821a.675.675,0,0,1,1.024-.612L76.382,27.9a.675.675,0,0,1,.1,1.083Z" transform="translate(-49.432 -19.624)" fill="none" stroke="#fff" stroke-linecap="round" stroke-linejoin="round" stroke-width="1.493" fill-rule="evenodd"/>
                  <path id="Path_89514" data-name="Path 89514" d="M76.479,28.986,64.94,39.25a.675.675,0,0,1-1.119-.437l-.462-4.628a.672.672,0,0,0-.389-.546C61.581,33,56.318,31.55,50.709,42.417a.675.675,0,0,1-1.273-.3c-.077-4.652,1.138-14.162,12.186-15.259a.674.674,0,0,0,.606-.706l-.31-5.821a.675.675,0,0,1,1.024-.612L76.382,27.9a.675.675,0,0,1,.1,1.083Z" transform="translate(-49.432 -19.624)" fill="#137593" fill-rule="evenodd"/>
                </g>
              </g>
            </g>
          </g>
        </g>
      </g>
    </g>
  </g>
</svg>
