<svg xmlns="http://www.w3.org/2000/svg" width="32" height="32" viewBox="0 0 32 32">
  <g id="Group_8229" data-name="Group 8229" transform="translate(-260 -710)">
    <g id="Group_8198" data-name="Group 8198" transform="translate(260 710)">
      <rect id="Input.BG" width="32" height="32" rx="16" fill="none"/>
      <g id="menu" transform="translate(8 8)">
        <g id="Group_8190" data-name="Group 8190">
          <g id="Group_8189" data-name="Group 8189">
            <path id="Path_87269" data-name="Path 87269" d="M5.525,0H1.85A1.852,1.852,0,0,0,0,1.85V5.525a1.852,1.852,0,0,0,1.85,1.85H5.525a1.852,1.852,0,0,0,1.85-1.85V1.85A1.852,1.852,0,0,0,5.525,0Zm.6,5.525a.6.6,0,0,1-.6.6H1.85a.6.6,0,0,1-.6-.6V1.85a.6.6,0,0,1,.6-.6H5.525a.6.6,0,0,1,.6.6Z" fill="#fff"/>
          </g>
        </g>
        <g id="Group_8192" data-name="Group 8192" transform="translate(8.625)">
          <g id="Group_8191" data-name="Group 8191">
            <path id="Path_87270" data-name="Path 87270" d="M281.5,0h-3.625A1.877,1.877,0,0,0,276,1.875V5.5a1.877,1.877,0,0,0,1.875,1.875H281.5A1.877,1.877,0,0,0,283.375,5.5V1.875A1.877,1.877,0,0,0,281.5,0Zm.625,5.5a.626.626,0,0,1-.625.625h-3.625a.626.626,0,0,1-.625-.625V1.875a.626.626,0,0,1,.625-.625H281.5a.626.626,0,0,1,.625.625Z" transform="translate(-276)" fill="#fff"/>
          </g>
        </g>
        <g id="Group_8194" data-name="Group 8194" transform="translate(0 8.625)">
          <g id="Group_8193" data-name="Group 8193">
            <path id="Path_87271" data-name="Path 87271" d="M5.525,276H1.85A1.852,1.852,0,0,0,0,277.85v3.674a1.852,1.852,0,0,0,1.85,1.85H5.525a1.852,1.852,0,0,0,1.85-1.85V277.85A1.852,1.852,0,0,0,5.525,276Zm.6,5.525a.6.6,0,0,1-.6.6H1.85a.6.6,0,0,1-.6-.6V277.85a.6.6,0,0,1,.6-.6H5.525a.6.6,0,0,1,.6.6Z" transform="translate(0 -276)" fill="#fff"/>
          </g>
        </g>
        <g id="Group_8196" data-name="Group 8196" transform="translate(8.625 8.625)">
          <g id="Group_8195" data-name="Group 8195">
            <path id="Path_87272" data-name="Path 87272" d="M281.5,276h-3.625A1.877,1.877,0,0,0,276,277.875V281.5a1.877,1.877,0,0,0,1.875,1.875H281.5a1.877,1.877,0,0,0,1.875-1.875v-3.625A1.877,1.877,0,0,0,281.5,276Zm.625,5.5a.626.626,0,0,1-.625.625h-3.625a.626.626,0,0,1-.625-.625v-3.625a.626.626,0,0,1,.625-.625H281.5a.626.626,0,0,1,.625.625Z" transform="translate(-276 -276)" fill="#fff"/>
          </g>
        </g>
      </g>
    </g>
  </g>
</svg>
