<svg xmlns="http://www.w3.org/2000/svg" width="24" height="24" viewBox="0 0 24 24">
  <g id="Group_19164" data-name="Group 19164" transform="translate(-525 -176)">
    <g id="Rectangle_5406" data-name="Rectangle 5406" transform="translate(525 176)" fill="#2c2c2c" stroke="#2c2c2c" stroke-width="1" opacity="0">
      <rect width="24" height="24" stroke="none"/>
      <rect x="0.5" y="0.5" width="23" height="23" fill="none"/>
    </g>
    <g id="Group_17919" data-name="Group 17919" transform="translate(529 180)">
      <path id="Path_91513" data-name="Path 91513" d="M1125.46,548.785h-1.1l.055-.055a.677.677,0,0,0,0-.956.667.667,0,0,0-.476-.2h0a.671.671,0,0,0-.477.2l-1.209,1.211a.678.678,0,0,0,0,.957l1.216,1.209a.671.671,0,0,0,.477.2h0a.677.677,0,0,0,.474-1.156l-.056-.055h1.106a.849.849,0,1,1,0,1.7H1123a.677.677,0,0,0-.15,1.338v.021h2.614a2.207,2.207,0,0,0,0-4.413Z" transform="translate(-1112.056 -538.098)" fill="#2c2c2c"/>
      <path id="Path_91514" data-name="Path 91514" d="M1130.063,548.924a5.641,5.641,0,0,0-2.765-3.24v-6.909a.679.679,0,0,0-.678-.677h-13.887a.678.678,0,0,0-.677.677v13.886a.672.672,0,0,0,.2.481.68.68,0,0,0,.478.2h6.909a5.7,5.7,0,0,0,2.5,2.459,5.678,5.678,0,0,0,7.924-6.878Zm-11.695-9.471h2.618v1.707l-1.005-.511a.673.673,0,0,0-.3-.072.685.685,0,0,0-.306.072l-1,.51Zm.773,12.531h-5.726V539.453h3.6v2.8a.677.677,0,0,0,.981.6l1.682-.855,1.635.831a.677.677,0,0,0,1.029-.58v-2.8h3.6v5.731a5.678,5.678,0,0,0-6.8,6.8Zm8.593,1.793a4.322,4.322,0,1,1,0-6.114l.033.03a4.323,4.323,0,0,1-.033,6.084Z" transform="translate(-1112.056 -538.098)" fill="#2c2c2c"/>
    </g>
  </g>
</svg>
