<svg xmlns="http://www.w3.org/2000/svg" width="24" height="24" viewBox="0 0 24 24">
  <g id="Group_17940" data-name="Group 17940" transform="translate(-24 -144)">
    <g id="Rectangle_5752" data-name="Rectangle 5752" transform="translate(24 144)" fill="#2c2c2c" stroke="#707070" stroke-width="1" opacity="0">
      <rect width="24" height="24" stroke="none"/>
      <rect x="0.5" y="0.5" width="23" height="23" fill="none"/>
    </g>
    <path id="questions" d="M955.066,417.009h10.711a2.069,2.069,0,0,0,2.066-2.066V404.2a2.07,2.07,0,0,0-2.066-2.066H955.066A2.07,2.07,0,0,0,953,404.2v13.5a2.069,2.069,0,0,0,2.066,2.066h10.711a2.069,2.069,0,0,0,2.066-2.066h0a3.422,3.422,0,0,1-2.066.691H955.066a.689.689,0,0,1,0-1.378Zm-.688-12.812a.691.691,0,0,1,.689-.689h10.71a.691.691,0,0,1,.689.689v10.746a.69.69,0,0,1-.689.689H955.066a2.07,2.07,0,0,0-.689.118Zm6.644,3.4h-1.1l.055-.055a.676.676,0,0,0,0-.956.666.666,0,0,0-.476-.2h0a.67.67,0,0,0-.477.2l-1.209,1.211a.679.679,0,0,0,0,.957l1.216,1.209a.67.67,0,0,0,.477.2h0a.677.677,0,0,0,.474-1.156l-.056-.055h1.106a.85.85,0,1,1,0,1.7h-2.47a.677.677,0,0,0-.15,1.338v.021h2.614a2.207,2.207,0,0,0,0-4.413Z" transform="translate(-923.999 -255.131)" fill="#2c2c2c" style="isolation: isolate"/>
  </g>
</svg>
