<svg xmlns="http://www.w3.org/2000/svg" width="32" height="32" viewBox="0 0 32 32">
  <g id="Group_19258" data-name="Group 19258" transform="translate(8391 -5476)">
    <path id="Path_91902" data-name="Path 91902" d="M990.826,563.565a16,16,0,1,1,16-16A16.018,16.018,0,0,1,990.826,563.565Zm0-29a13,13,0,1,0,13,13A13.015,13.015,0,0,0,990.826,534.565Z" transform="translate(-9365.826 4944.435)" fill="#ededed"/>
    <path id="Path_91903" data-name="Path 91903" d="M1005.816,548.573a1,1,0,0,1-1-1,14,14,0,0,0-13.987-13.987,1,1,0,0,1,0-2,16,16,0,0,1,15.987,15.987A1,1,0,0,1,1005.816,548.573Z" transform="translate(-9365.826 4944.435)" fill="#62625a"/>
    <rect id="Rectangle_6019" data-name="Rectangle 6019" width="28" height="28" rx="14" transform="translate(-8389 5478)" fill="#fff"/>
  </g>
</svg>
