<svg xmlns="http://www.w3.org/2000/svg" width="32.977" height="32.967" viewBox="0 0 32.977 32.967">
  <g id="Group_19254" data-name="Group 19254" transform="translate(8314.488 -5499.521)">
    <path id="Path_91908" data-name="Path 91908" d="M913.783,550.37a16,16,0,1,1,16-16A16.018,16.018,0,0,1,913.783,550.37Zm0-29a13,13,0,1,0,13,13A13.014,13.014,0,0,0,913.783,521.37Z" transform="translate(-9211.783 4981.63)" fill="#ededed"/>
    <path id="Union_41" data-name="Union 41" d="M15.99,31.967h0A16.005,16.005,0,0,1,0,15.98a1,1,0,1,1,2,0A14,14,0,0,0,15.989,29.967h0A13.984,13.984,0,1,0,15.991,2a1,1,0,0,1,0-2A16,16,0,0,1,31.977,15.977v0s0,0,0,0,0,0,0,0v0A16,16,0,0,1,15.991,31.967Z" transform="translate(-8313.988 5500.021)" fill="#38539a" stroke="rgba(0,0,0,0)" stroke-miterlimit="10" stroke-width="1"/>
    <rect id="Rectangle_6020" data-name="Rectangle 6020" width="28" height="28" rx="14" transform="translate(-8312 5502)" fill="#fff"/>
  </g>
</svg>
