<svg xmlns="http://www.w3.org/2000/svg" width="32.49" height="32.967" viewBox="0 0 32.49 32.967">
  <g id="Group_19257" data-name="Group 19257" transform="translate(8353 -5478.521)">
    <path id="Path_91895" data-name="Path 91895" d="M1000.565,562.2a16,16,0,1,1,16-16A16.019,16.019,0,0,1,1000.565,562.2Zm0-29a13,13,0,1,0,13,13A13.015,13.015,0,0,0,1000.565,533.2Z" transform="translate(-9337.565 4948.8)" fill="#ededed"/>
    <path id="Union_42" data-name="Union 42" d="M0,30.967a1,1,0,0,1,1-1A13.983,13.983,0,1,0,1,2,1,1,0,0,1,1,0,16.006,16.006,0,0,1,16.987,15.977v0s0,0,0,0,0,0,0,0v0A16.005,16.005,0,0,1,1,31.967,1,1,0,0,1,0,30.967Z" transform="translate(-8337.997 5479.021)" fill="#a76c47" stroke="rgba(0,0,0,0)" stroke-miterlimit="10" stroke-width="1"/>
    <rect id="Rectangle_6018" data-name="Rectangle 6018" width="28" height="28" rx="14" transform="translate(-8351 5481)" fill="#fff"/>
  </g>
</svg>
