<svg xmlns="http://www.w3.org/2000/svg" width="24" height="24" viewBox="0 0 24 24">
  <g id="Group_18988" data-name="Group 18988" transform="translate(-24 -144)">
    <g id="Rectangle_5406" data-name="Rectangle 5406" transform="translate(24 144)" fill="#2c2c2c" stroke="#707070" stroke-width="1" opacity="0">
      <rect width="24" height="24" stroke="none"/>
      <rect x="0.5" y="0.5" width="23" height="23" fill="none"/>
    </g>
    <g id="Icon_Map_Pin" data-name="Icon / Map Pin" transform="translate(29 147.5)">
      <path id="Combined_Shape" data-name="Combined Shape" d="M6.231,15.868l-.016-.012-.02-.013-.4-.289-.12-.09-.051-.038-.363-.283a20.411,20.411,0,0,1-2.1-1.93C1.062,10.995,0,8.8,0,6.687A6.487,6.487,0,0,1,1.954,1.958,6.435,6.435,0,0,1,6.666,0,6.441,6.441,0,0,1,11.38,1.958a6.487,6.487,0,0,1,1.954,4.729c0,2.112-1.062,4.307-3.156,6.525a20.411,20.411,0,0,1-2.1,1.93c-.247.2-.481.375-.7.531l-.276.195a.782.782,0,0,1-.871,0ZM3.062,3.072A4.892,4.892,0,0,0,1.569,6.687c0,1.7.918,3.528,2.726,5.443a18.929,18.929,0,0,0,1.941,1.78c.107.085.208.165.307.242l.026.019.1.072.1-.072L7.1,13.91a18.93,18.93,0,0,0,1.941-1.78c1.809-1.915,2.726-3.747,2.726-5.443a4.9,4.9,0,0,0-1.494-3.615,4.86,4.86,0,0,0-3.6-1.5A4.859,4.859,0,0,0,3.062,3.072Zm.859,3.615A2.5,2.5,0,0,1,6.666,3.933,2.5,2.5,0,0,1,9.412,6.687,2.5,2.5,0,0,1,6.666,9.441,2.5,2.5,0,0,1,3.922,6.687Zm1.569,0c0,.872.308,1.181,1.176,1.181s1.177-.309,1.177-1.181-.308-1.18-1.177-1.18S5.49,5.816,5.49,6.687Z" transform="translate(0 0.5)" fill="#2c2c2c"/>
    </g>
  </g>
</svg>
