<svg xmlns="http://www.w3.org/2000/svg" width="25.4" height="25.4" viewBox="0 0 25.4 25.4">
  <g id="Group_19315" data-name="Group 19315" transform="translate(-1161.269 33.7)">
    <g id="Group_6016" data-name="Group 6016" transform="translate(1193.969 8)">
      <g id="Group_19318" data-name="Group 19318">
        <rect id="Icon_Header_User_background" data-name="Icon Header User background" width="24" height="24" transform="translate(-32 -41)" fill="none" stroke="rgba(0,0,0,0)" stroke-width="1.4"/>
        <g id="Group_19317" data-name="Group 19317" transform="translate(-980 -569.334)">
          <path id="Path_91883" data-name="Path 91883" d="M966.712,533.893h-1.826v-.675c0-.4-.369-.686-.877-.686h-1.437a2.7,2.7,0,0,0-2.59-1.639,2.734,2.734,0,0,0-2.606,1.636h-1.413c-.5,0-.85.282-.85.686v.678h-1.825a2.572,2.572,0,0,0-2.538,2.459v11.114a2.448,2.448,0,0,0,2.429,2.311l.112,0H966.7a2.435,2.435,0,0,0,2.553-2.322v-11.11A2.569,2.569,0,0,0,966.712,533.893ZM956.705,535.8v-1.683h1.28a.841.841,0,0,0,.732-.683,1.328,1.328,0,0,1,1.249-1.033,1.3,1.3,0,0,1,1.234,1.022.856.856,0,0,0,.791.7h1.3V535.8Zm10.953.55v11.095a.859.859,0,0,1-.949.739h-13.44a.86.86,0,0,1-.928-.732V536.375a.973.973,0,0,1,.951-.889h1.822v1.165a.816.816,0,0,0,.849.742h8.031a.867.867,0,0,0,.891-.767v-1.139H966.7A.971.971,0,0,1,967.658,536.354Z" fill="#2c2c2c"/>
          <path id="Path_91884" data-name="Path 91884" d="M958.076,543.157a.8.8,0,0,0-1.112-.03l-1.566,1.492-.562-.583a.8.8,0,0,0-1.126-.028.822.822,0,0,0,0,1.138l1.111,1.138a.738.738,0,0,0,.547.246h.025a.789.789,0,0,0,.55-.231l2.124-2.016a.763.763,0,0,0,.248-.533.727.727,0,0,0-.179-.523Z" fill="#2c2c2c"/>
          <path id="Path_91885" data-name="Path 91885" d="M965.727,544.258h-6.273a.8.8,0,0,0,0,1.591h6.273a.8.8,0,0,0,0-1.591Z" fill="#2c2c2c"/>
          <path id="Path_91886" data-name="Path 91886" d="M954.823,541.921a.741.741,0,0,0,.552.247h.02a.789.789,0,0,0,.55-.232l2.124-2.016a.779.779,0,0,0,.014-1.119h0a.8.8,0,0,0-1.118-.036l-1.566,1.492-.562-.583a.8.8,0,0,0-1.126-.028.823.823,0,0,0,0,1.139Z" fill="#2c2c2c"/>
          <path id="Path_91887" data-name="Path 91887" d="M965.727,539.9h-6.273a.795.795,0,0,0,0,1.59h6.273a.795.795,0,0,0,0-1.59Z" fill="#2c2c2c"/>
        </g>
      </g>
    </g>
  </g>
</svg>
