<svg xmlns="http://www.w3.org/2000/svg" xmlns:xlink="http://www.w3.org/1999/xlink" width="60" height="60" viewBox="0 0 60 60">
  <defs>
    <filter id="Rectangle_5392" x="0" y="0" width="60" height="60" filterUnits="userSpaceOnUse">
      <feOffset dy="3" input="SourceAlpha"/>
      <feGaussianBlur stdDeviation="3" result="blur"/>
      <feFlood flood-color="#2c2c2c" flood-opacity="0.161"/>
      <feComposite operator="in" in2="blur"/>
      <feComposite in="SourceGraphic"/>
    </filter>
  </defs>
  <g id="Group_18921" data-name="Group 18921" transform="translate(-150 -562)">
    <g id="Group_17469" data-name="Group 17469" transform="translate(0 2)">
      <g id="Group_17466" data-name="Group 17466" transform="translate(135 413)">
        <g id="Rectangle_5357" data-name="Rectangle 5357" transform="translate(21 150)" fill="none" stroke="#ededed" stroke-width="3">
          <rect width="48" height="48" rx="24" stroke="none"/>
          <rect x="1.5" y="1.5" width="45" height="45" rx="22.5" fill="none"/>
        </g>
        <g id="Group_17467" data-name="Group 17467">
          <path id="Path_91264" data-name="Path 91264" d="M24,0A22.48,22.48,0,0,1,46.48,22.48" transform="translate(21 151.531)" fill="none" stroke="#62625a" stroke-linecap="round" stroke-width="3"/>
          <path id="Path_91265" data-name="Path 91265" d="M24,22.48A22.48,22.48,0,0,0,46.48,0" transform="translate(21 174)" fill="none" stroke="#107f47" stroke-linecap="round" stroke-width="3" opacity="0"/>
          <path id="Path_91266" data-name="Path 91266" d="M46.48,22.48A22.48,22.48,0,0,1,24,0" transform="translate(-1.48 174)" fill="none" stroke="#107f47" stroke-linecap="round" stroke-width="3" opacity="0"/>
          <path id="Path_91267" data-name="Path 91267" d="M46.48,0A22.48,22.48,0,0,0,24,22.48" transform="translate(-1.48 151.531)" fill="none" stroke="#107f47" stroke-linecap="round" stroke-width="3" opacity="0"/>
        </g>
      </g>
      <g transform="matrix(1, 0, 0, 1, 150, 560)" filter="url(#Rectangle_5392)">
        <rect id="Rectangle_5392-2" data-name="Rectangle 5392" width="42" height="42" rx="21" transform="translate(9 6)" fill="#fff"/>
      </g>
    </g>
    <g id="Group_17411" data-name="Group 17411" transform="translate(137 417)">
      <g id="Group_17426" data-name="Group 17426" transform="translate(32 161)">
        <path id="Path_91242" data-name="Path 91242" d="M692.7,392.948a3.984,3.984,0,1,0-1.281,1.221l1.5,1.5a.885.885,0,0,0,1.25-1.25Zm-3.317.014h0a2.211,2.211,0,1,1,2.211-2.21A2.213,2.213,0,0,1,689.38,392.962Z" transform="translate(-671.781 -373.285)" fill="#62625a"/>
        <path id="Path_91243" data-name="Path 91243" d="M690.065,372.475H674.5a3.542,3.542,0,0,0-3.538,3.538v15.565a3.542,3.542,0,0,0,3.538,3.537h9.109a.884.884,0,1,0,0-1.769H674.5a1.771,1.771,0,0,1-1.769-1.769V376.013a1.771,1.771,0,0,1,1.769-1.769h15.565a1.771,1.771,0,0,1,1.769,1.769v8.755a.884.884,0,1,0,1.769,0v-8.755A3.541,3.541,0,0,0,690.065,372.475Z" transform="translate(-670.963 -372.475)" fill="#62625a"/>
        <rect id="Rectangle_5377" data-name="Rectangle 5377" width="13.771" height="1.784" rx="0.892" transform="translate(4.422 10.288)" fill="#62625a"/>
        <rect id="Rectangle_5378" data-name="Rectangle 5378" width="13.771" height="1.784" rx="0.892" transform="translate(4.422 4.996)" fill="#62625a"/>
        <rect id="Rectangle_5379" data-name="Rectangle 5379" width="6.369" height="1.784" rx="0.892" transform="translate(4.422 15.58)" fill="#62625a"/>
      </g>
    </g>
  </g>
</svg>
