<svg xmlns="http://www.w3.org/2000/svg" width="24" height="24" viewBox="0 0 24 24">
  <g id="Group_18983" data-name="Group 18983" transform="translate(-24 -144)">
    <g id="Rectangle_5406" data-name="Rectangle 5406" transform="translate(24 144)" fill="#2c2c2c" stroke="#707070" stroke-width="1" opacity="0">
      <rect width="24" height="24" stroke="none"/>
      <rect x="0.5" y="0.5" width="23" height="23" fill="none"/>
    </g>
    <g id="Group_17525" data-name="Group 17525" transform="translate(26.4 147)">
      <g id="Ellipse_1684" data-name="Ellipse 1684" transform="translate(-0.4 -1)" fill="#fff" stroke="#2c2c2c" stroke-width="1.3">
        <circle cx="10" cy="10" r="10" stroke="none"/>
        <circle cx="10" cy="10" r="9.35" fill="none"/>
      </g>
      <path id="Path_91505" data-name="Path 91505" d="M-2.193.529V-.991h.638A1.552,1.552,0,0,0,.108-2.538,1.5,1.5,0,0,0-1.514-4.044H-3.251V.529Zm-.014-2.436V-3.128h.692a.535.535,0,0,1,.563.59.574.574,0,0,1-.6.631ZM3.012.529,4.525-4.044H3.412L2.734-1.751l-.3,1.289H2.408l-.3-1.289L1.431-4.044H.318L1.831.529ZM-1.477,6.184C-.262,6.184.26,5.607.26,4.827A1.015,1.015,0,0,0-.527,3.775a1.013,1.013,0,0,0,.617-.936c0-.712-.475-1.228-1.54-1.228H-3.363V6.184Zm-.855-.869V4.243h.807c.489,0,.76.183.76.516,0,.36-.3.556-.733.556Zm0-1.9V2.479h.869c.332,0,.536.163.536.455,0,.332-.217.482-.536.482ZM3.124,6.184,4.637,1.611H3.524L2.846,3.9l-.3,1.289H2.52L2.221,3.9,1.543,1.611H.43L1.943,6.184Z" transform="translate(8.963 8.044)" fill="#2c2c2c" stroke="#2c2c2c" stroke-width="0.2"/>
    </g>
  </g>
</svg>
