<svg xmlns="http://www.w3.org/2000/svg" width="32" height="32" viewBox="0 0 32 32">
  <g id="Group_19207" data-name="Group 19207" transform="translate(-56 -722)">
    <rect id="Rectangle_5376" data-name="Rectangle 5376" width="32" height="32" transform="translate(56 722)" fill="#2c2c2c" opacity="0"/>
    <g id="Group_17363" data-name="Group 17363" transform="translate(59 726)">
      <path id="Path_8698" data-name="Path 8698" d="M133.887,636.031a3.394,3.394,0,0,0,1-2.41v-1.355a3.4,3.4,0,0,0-6.81,0v1.355a3.394,3.394,0,0,0,1,2.41c-1.859.46-3.718,1.445-3.718,3.086v2.069h1.361v-2.069c0-1.165,2.889-2.041,4.763-2.041s4.763.876,4.763,2.041v2.069h1.361v-2.069C137.606,637.476,135.746,636.491,133.887,636.031Zm-4.375-3.765a1.97,1.97,0,0,1,3.94,0v1.355a1.97,1.97,0,0,1-3.94,0Z" transform="translate(-125.359 -617.186)" fill="#2c2c2c"/>
      <path id="Path_8699" data-name="Path 8699" d="M143.531,611.7a9.922,9.922,0,0,0-9.92,9.92c0,.156.007.32.014.476a3.971,3.971,0,0,1,.5-.027,4.56,4.56,0,0,1,.871.082q-.02-.265-.02-.531a8.56,8.56,0,1,1,3.626,6.994,4.131,4.131,0,0,1-.32,1.422,9.92,9.92,0,1,0,5.252-18.336Z" transform="translate(-127.997 -611.701)" fill="#2c2c2c"/>
      <path id="Path_91884" data-name="Path 91884" d="M-3.985,0V-2.35h1.07A2.218,2.218,0,0,0-.5-4.57a2.152,2.152,0,0,0-2.35-2.17h-2.43V0Zm0-3.47V-5.62h1.13A.962.962,0,0,1-1.8-4.57a1.022,1.022,0,0,1-1.11,1.1ZM3.545,0l2.36-6.74H4.525l-1.15,3.6-.5,1.82h-.02l-.5-1.82-1.15-3.6H-.175L2.185,0Z" transform="translate(15.534 13.356)" fill="#2c2c2c"/>
    </g>
  </g>
</svg>
