<svg xmlns="http://www.w3.org/2000/svg" width="24" height="24" viewBox="0 0 24 24">
  <g id="Group_18985" data-name="Group 18985" transform="translate(-24 -144)">
    <g id="Rectangle_5406" data-name="Rectangle 5406" transform="translate(24 144)" fill="#2c2c2c" stroke="#707070" stroke-width="1" opacity="0">
      <rect width="24" height="24" stroke="none"/>
      <rect x="0.5" y="0.5" width="23" height="23" fill="none"/>
    </g>
    <g id="refund" transform="translate(27 111.172)">
      <path id="Path_91503" data-name="Path 91503" d="M17.38,37.828H1.642a.62.62,0,0,0,0,1.239H16.761V50H3.563a2.323,2.323,0,0,1-.749-4.523l-.445.635a.62.62,0,1,0,1.015.711l1.3-1.859a.62.62,0,0,0-.152-.863L2.674,42.8a.62.62,0,1,0-.711,1.015l.622.436a3.562,3.562,0,0,0,.977,6.988H17.38a.62.62,0,0,0,.62-.62V38.448A.62.62,0,0,0,17.38,37.828Z" fill="#2c2c2c" stroke="#2c2c2c" stroke-width="0.3"/>
      <path id="Path_91504" data-name="Path 91504" d="M123.407,47.161a1.923,1.923,0,0,0-1.356-3.065v-.841a.588.588,0,1,0-1.176,0v.832h-.7a.588.588,0,0,0-.588.588v5.807a.588.588,0,0,0,.588.588h0l.694,0V51.9a.588.588,0,0,0,1.176,0v-.839h.108a2.15,2.15,0,0,0,1.247-3.9Zm-1.542-1.9a.748.748,0,1,1,0,1.5l-.616,0h-.482v-1.5Zm.295,4.624-1.393,0V47.939l.486,0h.908a.975.975,0,1,1,0,1.95Z" transform="translate(-111.64 -3.021)" fill="#2c2c2c" stroke="#2c2c2c" stroke-width="0.2"/>
    </g>
  </g>
</svg>
