<svg xmlns="http://www.w3.org/2000/svg" width="24" height="24" viewBox="0 0 24 24">
  <g id="Group_19320" data-name="Group 19320" transform="translate(-525 -176)">
    <g id="Rectangle_5406" data-name="Rectangle 5406" transform="translate(525 176)" fill="#2c2c2c" stroke="#2c2c2c" stroke-width="1" opacity="0">
      <rect width="24" height="24" stroke="none"/>
      <rect x="0.5" y="0.5" width="23" height="23" fill="none"/>
    </g>
    <g id="Group_19321" data-name="Group 19321" transform="translate(529.2 180)">
      <path id="Path_91888" data-name="Path 91888" d="M372.708,0h-2.239a.469.469,0,0,0,0,.938h2.239a.793.793,0,0,1,.792.792V3.969a.469.469,0,1,0,.937,0V1.729A1.731,1.731,0,0,0,372.708,0Z" transform="translate(-358.438 0)" fill="#2c2c2c" stroke="#2c2c2c" stroke-width="0.5"/>
      <path id="Path_91889" data-name="Path 91889" d="M.469,4.438a.469.469,0,0,0,.469-.469V1.729A.793.793,0,0,1,1.729.938H3.969a.469.469,0,0,0,0-.938H1.729A1.731,1.731,0,0,0,0,1.729V3.969A.469.469,0,0,0,.469,4.438Z" fill="#2c2c2c" stroke="#2c2c2c" stroke-width="0.5"/>
      <path id="Path_91890" data-name="Path 91890" d="M3.969,373.5H1.729a.793.793,0,0,1-.792-.792v-2.239a.469.469,0,0,0-.938,0v2.239a1.731,1.731,0,0,0,1.729,1.729H3.969a.469.469,0,1,0,0-.937Z" transform="translate(0 -358.438)" fill="#2c2c2c" stroke="#2c2c2c" stroke-width="0.5"/>
      <path id="Path_91891" data-name="Path 91891" d="M373.969,370a.469.469,0,0,0-.469.469v2.239a.793.793,0,0,1-.792.792h-2.239a.469.469,0,0,0,0,.937h2.239a1.731,1.731,0,0,0,1.729-1.729v-2.239A.469.469,0,0,0,373.969,370Z" transform="translate(-358.438 -358.438)" fill="#2c2c2c" stroke="#2c2c2c" stroke-width="0.5"/>
      <path id="Path_91892" data-name="Path 91892" d="M327.112,80.938H328.6a.369.369,0,0,1,.368.368v1.487a.469.469,0,1,0,.937,0V81.306A1.307,1.307,0,0,0,328.6,80h-1.487a.469.469,0,1,0,0,.937Z" transform="translate(-316.435 -77.5)" fill="#2c2c2c" stroke="#2c2c2c" stroke-width="0.5"/>
      <path id="Path_91893" data-name="Path 91893" d="M81,81.306v1.487a.469.469,0,1,0,.938,0V81.306a.369.369,0,0,1,.368-.368h1.487a.469.469,0,0,0,0-.937H82.306A1.307,1.307,0,0,0,81,81.306Z" transform="translate(-78.469 -77.5)" fill="#2c2c2c" stroke="#2c2c2c" stroke-width="0.5"/>
      <path id="Path_91894" data-name="Path 91894" d="M83.792,327.968H82.306a.369.369,0,0,1-.368-.368v-1.487a.469.469,0,0,0-.937,0V327.6a1.307,1.307,0,0,0,1.306,1.306h1.487a.469.469,0,0,0,0-.937Z" transform="translate(-78.469 -315.468)" fill="#2c2c2c" stroke="#2c2c2c" stroke-width="0.5"/>
      <path id="Path_91895" data-name="Path 91895" d="M329.9,327.6v-1.487a.469.469,0,0,0-.937,0V327.6a.369.369,0,0,1-.368.368h-1.487a.469.469,0,1,0,0,.938H328.6A1.307,1.307,0,0,0,329.9,327.6Z" transform="translate(-316.435 -315.468)" fill="#2c2c2c" stroke="#2c2c2c" stroke-width="0.5"/>
      <path id="Path_91896" data-name="Path 91896" d="M1,241.469a.469.469,0,0,0,.469.469h15a.469.469,0,1,0,0-.937h-15A.469.469,0,0,0,1,241.469Z" transform="translate(-0.969 -233.469)" fill="#2c2c2c" stroke="#2c2c2c" stroke-width="0.5"/>
    </g>
  </g>
</svg>
