<?xml version="1.0" encoding="utf-8"?>
<!-- Generator: Adobe Illustrator 25.0.1, SVG Export Plug-In . SVG Version: 6.00 Build 0)  -->
<svg version="1.1" id="Layer_1" xmlns="http://www.w3.org/2000/svg" xmlns:xlink="http://www.w3.org/1999/xlink" x="0px" y="0px"
	 viewBox="0 0 520 395" style="enable-background:new 0 0 520 395;" xml:space="preserve">
<style type="text/css">
	.st0{fill:#FFFFFF;}
	.st1{fill:#F1F2FF;}
	.st2{fill:#FAFAFA;}
	.st3{fill:#89D6F7;}
	.st4{fill:#55BFE9;}
	.st5{fill:#F2F2F2;}
	.st6{font-family:'SukhumvitSet-Bold';}
	.st7{font-size:20.1233px;}
	.st8{fill:#56BDE8;}
	.st9{clip-path:url(#SVGID_2_);}
	.st10{fill:#B9BCE9;}
	.st11{fill:#6B3939;}
	.st12{fill:#452222;}
	.st13{fill:#FEA689;}
	.st14{fill:#232C44;}
	.st15{fill:#F2815C;}
	.st16{fill:#2C2C2C;}
	.st17{fill:#FAD3B1;}
	.st18{fill:none;}
	.st19{clip-path:url(#SVGID_4_);}
	.st20{fill:#C7CAF0;}
	.st21{fill:#B9BDE9;}
</style>
<g id="Group_7958" transform="translate(-23.729 -397.217)">
	<path id="Rectangle_3498" class="st0" d="M32.2,397.8h504c4.4,0,8,3.6,8,8v377c0,4.4-3.6,8-8,8h-504c-4.4,0-8-3.6-8-8v-377
		C24.2,401.4,27.8,397.8,32.2,397.8z"/>
	<g id="Group_7957" transform="translate(24 397)">
		<rect id="Rectangle_4123" x="0.2" y="0.8" class="st1" width="520" height="393"/>
		<g id="Group_8231" transform="translate(47.87 53.353)">
			<g id="id-card" transform="translate(0 0)">
				<path id="Path_1" class="st2" d="M406.7,0.6H18.2C8.8,0.2,0.9,7.5,0.5,16.9v253.9c0.4,9.4,8.3,16.7,17.7,16.3h388.6
					c9.4,0.4,17.3-6.9,17.7-16.3V16.9C424,7.5,416.1,0.3,406.7,0.6z"/>
				<rect id="Rectangle_1" x="17.5" y="16.9" class="st3" width="389.7" height="254"/>
				<rect id="Rectangle_4" x="41" y="223.6" class="st4" width="345.2" height="25.2"/>
				<rect id="Rectangle_3494" x="40.9" y="66.3" class="st5" width="144.3" height="149"/>
			</g>
		</g>
	</g>
</g>
<g>
	<rect id="Rectangle_5" x="239.1" y="127.9" class="st0" width="90" height="12.6"/>
	<rect id="Rectangle_5_1_" x="239.1" y="151.8" class="st0" width="90" height="12.6"/>
	<rect id="Rectangle_5_2_" x="239.1" y="175.7" class="st0" width="90" height="12.6"/>
	<rect id="Rectangle_5_3_" x="239.1" y="199.6" class="st0" width="90" height="12.6"/>
	<rect id="Rectangle_5_4_" x="239.1" y="223.6" class="st0" width="90" height="12.6"/>
	<rect id="Rectangle_5_10_" x="239.1" y="247.5" class="st0" width="90" height="12.6"/>
	<rect id="Rectangle_5_9_" x="341.7" y="127.9" class="st0" width="90" height="12.6"/>
	<rect id="Rectangle_5_8_" x="341.7" y="151.8" class="st0" width="90" height="12.6"/>
	<rect id="Rectangle_5_7_" x="341.7" y="175.7" class="st0" width="90" height="12.6"/>
	<rect id="Rectangle_5_6_" x="341.7" y="199.6" class="st0" width="90" height="12.6"/>
</g>
<text transform="matrix(1 0 0 1 116.9627 106.0001)" class="st6 st7">INTERNATIONAL PASSPORT</text>
<rect x="89.1" y="92.2" class="st8" width="22" height="13.8"/>
<g>
	<defs>
		<rect id="SVGID_1_" x="97.1" y="119.5" width="134.3" height="149"/>
	</defs>
	<clipPath id="SVGID_2_">
		<use xlink:href="#SVGID_1_"  style="overflow:visible;"/>
	</clipPath>
	<g class="st9">
		<g>
			<g id="Mask_Group_125_1_" transform="translate(40.514 35.455)">
				<g id="People_1_" transform="translate(4.801 4.445)">
					<path id="Fill_68_1_" class="st10" d="M100.6,166c-1.5,3.4-3.5,6.6-5.8,9.6l-3.3,4.7c-0.9,1.5-1.9,2.9-3,4.3
						c2.5-8.7,4.4-17.6,5.7-26.6c0.1-0.5-0.7-0.5-0.8,0c-1.5,13.7-6.7,26.7-8.6,40.3c-0.1,0.5,0.6,0.7,0.7,0.2
						c0.6-4.3,1.5-8.5,2.6-12.7c0.1,0,0.2,0,0.2-0.1c1.3-1.3,2.4-2.8,3.3-4.5l3.7-5.3c2.4-3,4.3-6.2,5.9-9.7
						C101.4,165.7,100.7,165.5,100.6,166"/>
					<path id="Fill_70_1_" class="st10" d="M123.8,222.7c-2.6-2.1-5.5-3.7-8.7-4.7c-1.5-0.5-3.1-0.8-4.7-0.8c-2,0-4.2,1.3-6.1,0.7
						c-0.2-0.1-0.4,0.1-0.5,0.3c0,0.1,0,0.2,0,0.3c-0.1,0.1-0.1,0.4,0.1,0.5c0,0,0.1,0.1,0.1,0.1c2.1,0.6,4.2,1.5,6,2.7l6,3.4
						c0.2,0.1,0.4,0,0.5-0.2c0.1-0.2,0-0.3-0.1-0.4l-6.6-3.8c-1.3-0.8-2.6-1.4-4-2c0.6-0.1,1.3-0.3,2-0.5c1.9-0.4,3.8-0.4,5.7,0.1
						c3.5,1,6.8,2.7,9.6,5C123.6,223.5,124.2,223,123.8,222.7"/>
					<path id="Fill_76_1_" class="st10" d="M99.2,256.5c-2-2.5-4-5.1-5.8-7.7c-0.8-1.1-1.6-2.3-2.3-3.5c-1.1-1.4-2-2.9-2.4-4.6
						c-0.1-0.5-0.8-0.5-0.8,0c0.9,2.9,2.4,5.6,4.5,7.9c2,2.9,4.1,5.7,6.3,8.5C99,257.4,99.5,256.9,99.2,256.5"/>
					<path id="Fill_98_1_" class="st11" d="M149.4,163.3c0.1-1.6-0.2-3.2-0.7-4.7c-0.4-1.3-1.1-2.5-2-3.6c-1.2-1.5-2.9-2.5-3.6-4.3
						c-0.6-1.5,0.5-2.9,0.3-4.3c-0.2-1.9-2.6-3-3.9-4.1c-1.9-1.6-0.2-4.1-0.9-6.2c-0.2-0.6-0.5-1.2-0.8-1.8
						c-0.3-0.6-0.7-1.1-1.1-1.7c0-0.1-0.1-0.1-0.1-0.2c-0.1-0.4-0.3-0.7-0.5-1.1c1-0.5,1.7-0.9,1.9-1.1c3.6-3.4,5.9-7.8,6.6-12.7
						c0.2-0.9,0.4-1.9,0.5-2.9c0.9-5.6,1.2-12.4-1.4-16.9c-1.3-2.4-3-4.6-4.9-6.6c-2-1.8-4.4-3.2-6.9-4.1
						c-11.5-5.1-27.8,0.7-32,13.8c-1.3,3.8-2,7.8-2,11.8c0.4,3.7,1.6,7.3,3.4,10.6c1.8,4,4.1,7.7,6.7,11.2c1.9,1,3.9,1.9,6,2.5
						c2.4,0.7,4.9,0.9,7.4,0.6l0.3,0c-0.1,0.6-0.2,1.2-0.4,1.8c-0.4,1.9-0.5,3.9-0.2,5.9c0.3,2,0.5,4.1,0.6,6.2
						c0,1.9-0.1,3.9-0.2,5.8c-0.1,1.9-0.1,3.8,0,5.6c0,1.8,0.4,3.6,1.2,5.2c0.8,0.9,2,1.4,3.2,1.1l0.7,0c1.9-0.1,3.7-0.3,5.6-0.4
						c4.5-0.1,9,0.1,13.5,0.7c1.2,0.3,2.3-0.5,2.7-1.6C149,166.4,149.4,164.9,149.4,163.3"/>
					<path id="Fill_100_1_" class="st12" d="M149.4,163.3c0.1-1.6-0.2-3.2-0.7-4.7c-1.3-0.8-2.6-1.5-4-2.1c-1.1-0.5-2.3-0.9-3.4-1.4
						c-0.9-0.4-2.7-1.1-2.9-2.3c-0.1-0.6,0.3-1.1,0.2-1.7c-0.1-0.6-0.3-1.1-0.6-1.7c-0.7-1.1-1.3-2.2-1.8-3.4
						c-1.3-3.9,1.3-7.8,1.8-11.7c-0.3-0.6-0.7-1.1-1.1-1.7c-1.3,0.6-2.6,1.4-3.7,2.3c-1.3,1.3-2.2,2.8-2.7,4.5
						c-1.7,4.2-3.8,8.3-5.7,12.5c-1.9,3.5-2.6,7.6-1.8,11.5c0.7,2.2,2,4.2,3.7,5.7c1.9-0.1,3.7-0.3,5.6-0.4c4.5-0.1,9,0.1,13.5,0.7
						c1.2,0.3,2.3-0.5,2.7-1.6C149,166.4,149.4,164.9,149.4,163.3"/>
					<path id="Fill_102_1_" class="st13" d="M137.2,127.8c0.1,0.8,0.3,1,1.1,0.7c3.4-1.6,5.2-5.4,4.2-9c-0.2-0.7-0.3-2.2-1.2-2.4
						c-1-0.2-1.8,1.3-2.2,2c-0.1,0.2,0.2,0.5,0.3,0.3l0.1-0.1c-0.2,1.6-0.6,3.2-1.4,4.7C137.5,125.1,137.2,126.5,137.2,127.8"/>
					<path id="Fill_104_1_" class="st13" d="M105.4,100c1.3-1.2,6.7-1.2,8.3-1.2c2.8,0,5.5,0.2,8.3,0.4c6.2,0.3,12.4,1.1,18.5,2.7
						c0.3,0.1,0.5,0.4,0.4,0.7c0.1,0.1,0.2,0.2,0.2,0.3c0.3,10.1-0.9,20.1-3.4,29.9c-2.1,4.7-5.6,8.7-10,11.4
						c-4.6,3.1-7.9,2.3-12.3-0.2c-2.5-1.2-4.7-3.1-6.3-5.4c-2.3-3.3-3.8-7.1-4.4-11.1c-0.7-4.8-1-9.7-0.9-14.5
						c0.1-2.4,0.3-4.9,0.5-7.3C104.3,104,104.1,101.2,105.4,100"/>
					<path id="Fill_106_1_" class="st14" d="M130.2,119.4c-0.1-0.7,0-1.5,0.1-2.2c0.1-0.3,0.3-0.7,0.5-0.9c0.8-0.7,1.6,0.1,1.7,0.9
						c0.2,1,0,3.1-0.9,3.5C130.7,121.1,130.3,120.4,130.2,119.4"/>
					<path id="Fill_108_1_" class="st14" d="M110.6,119c-0.1-0.7,0-1.5,0.1-2.2c0.1-0.4,0.3-0.7,0.5-0.9c0.8-0.7,1.6,0.1,1.7,0.9
						c0.2,1,0,3.1-0.9,3.5S110.7,120,110.6,119"/>
					<path id="Fill_110_1_" class="st13" d="M144.4,158.9c-3.2-1-8.8-2.5-11.2-5.4c-0.7-0.8-1.2-1.9-1.3-3c-0.2-1.6,0-8.5,0-8.6
						c-0.1-1.1,0-2.3,0.2-3.4c0-0.1,0-0.2,0-0.3c0,0,0-0.1,0-0.1c0-0.2-0.2-0.4-0.4-0.4c-0.2,0-0.3,0.1-0.4,0.2
						c-5.4-0.5-12.8-1.4-18.2-2.3c-0.2,0-0.4,0.1-0.4,0.3c0,0,0,0,0,0l-1.2-0.1c-0.2,0-0.4,0.1-0.4,0.3c-0.2,1.5-0.3,3-0.2,4.5
						c0,1.9,0,3.8-0.2,5.7c-0.1,0.9-0.3,1.7-0.6,2.6c-1,2.5-3,4.5-5.5,5.4c-1.5,0.6-4.2,0.6-5.4,1.7c-0.4,0.3,1.9,2.6,2,3.2
						c0.2,0.7,1.3,1.1,1.9,1.4c1.1,0.6,13.5,22.2,17.1,22.2c1.4,0,19-20.6,20.8-23.2C141,159.7,144.7,158.9,144.4,158.9"/>
					<path id="Fill_112_1_" class="st0" d="M101.7,155.2l4.5-1.6c0.7,2.5,2,4.8,3.8,6.7c2.2,1,3.9,2.9,4.5,5.3
						c1.3,3.5,3.5,4.8,4.3,7.4c0.7,2.7,1.2,5.4,1.2,5.4c0.4-2.5,1.4-4.9,2.8-7c1.9-1.6,3.4-3.6,4.6-5.8c1-2,4.8-3.4,6-4.7
						c1.1-1.6,2.1-3.2,2.8-5l3.1,1.4l0.3,3.4c0,0-18.4,21.7-18.9,21.9c-0.5,0.2-19.1-20.4-19.1-21.1S101.7,155.2,101.7,155.2"/>
					<path id="Fill_114_1_" class="st0" d="M115.8,132.3c0.7,1.1,1.7,1.9,2.9,2.3c2.6,1,5.6,0.6,7.8-1.2c0.1-0.1,0.7-0.9,0.7-0.9
						s-11.3-0.7-11.6-0.7C115.4,131.7,115.5,131.9,115.8,132.3"/>
					<path id="Fill_116_1_" class="st15" d="M126.6,146.9c-1.2,1.8-1.7,2.1-4.4,2.5c-2.7,0.4-2.1,2.6-5.3,2
						c-3.2-0.7-2.3-1.5-5.4-1.8c-0.6-0.1-1.2-0.2-1.7-0.4c0.3-0.8,0.5-1.7,0.6-2.6c0.2-1.9,0.3-3.8,0.2-5.7c0,0,0-0.1,0-0.1
						c0,0,7.1,5.6,10.2,5.4c2.8-0.7,5.5-1.8,8-3.2C129.6,143,127.8,145.1,126.6,146.9"/>
					<path id="Fill_118_1_" class="st15" d="M122.3,128.5c-1-0.7-2.1-1.3-2.1-2.7c0.1-0.9,0.4-1.8,0.7-2.6c0.4-1.7,0.7-3.4,0.7-5.2
						c0-0.5-0.8-0.6-0.8-0.1c-0.1,1.4-0.2,2.7-0.5,4c-0.4,1.2-0.7,2.5-1,3.7c-0.2,1.7,1.2,2.6,2.5,3.5
						C122.2,129.4,122.7,128.8,122.3,128.5"/>
					<path id="Fill_4_1_" class="st16" d="M113.1,111.8c-0.6,0-1.2,0-1.7,0.1c-0.6,0.1-1.1,0.2-1.6,0.5c-0.5,0.2-1,0.6-1.4,1
						c-0.5,0.5-0.8,1.1-1,1.7c0-1.5,0.8-2.9,2.2-3.5c0.6-0.3,1.2-0.4,1.8-0.3C112,111.1,112.6,111.4,113.1,111.8"/>
					<path id="Fill_4-2_1_" class="st16" d="M128.7,111.6c0.6,0,1.2,0,1.7,0.1c0.6,0.1,1.1,0.3,1.6,0.6c0.5,0.3,1,0.6,1.4,1
						c0.4,0.5,0.7,1.1,0.9,1.7c0.1-0.8-0.1-1.5-0.5-2.2c-0.4-0.6-0.9-1.1-1.5-1.4c-0.6-0.3-1.2-0.4-1.8-0.4
						C129.8,111.1,129.2,111.3,128.7,111.6"/>
					<path id="Fill_124_1_" class="st13" d="M105.3,121.5c-0.7-1.5-1.1-3.1-1.2-4.7l0.1,0.1c0.1,0.2,0.5,0,0.3-0.3
						c-0.4-0.6-1.2-2.2-2.2-2c-1,0.1-1.1,1.7-1.3,2.4c-1.1,3.6,0.6,7.5,4,9.1c0.7,0.3,1,0.1,1.1-0.6
						C106.1,124.2,105.8,122.8,105.3,121.5"/>
					<path id="Fill_126_1_" class="st11" d="M147.3,116.1c-0.4-0.7-0.6-1.5-0.6-2.3c0.1-0.9,0.3-1.8,0.6-2.6
						c0.5-1.1,0.7-2.3,0.6-3.5c-0.6-2.1-2.1-3.9-4.2-4.6c0-0.1,0-0.3,0-0.4c0-0.1,0-0.1-0.1-0.2c-3.3-2.4-6.9-4.2-10.8-5.6
						c-1.9-0.5-3.9-0.8-5.9-0.9c-1.1,0-2.1-0.2-3.1-0.5c-0.8-0.4-1.6-0.9-2.4-1.4c-1.6-0.7-3.3-0.7-4.9-0.1
						c-0.9,0.3-1.8,0.5-2.7,0.6c-1,0.1-2.1,0-3.1,0.1c-1.6,0.3-3.1,1-4.3,2.1c-1.4,0.9-2.5,2.2-3,3.8c-1.3,4.8-0.7,9.8-2.4,14.5
						c-0.1,0.2-0.1,1.9,0,1.8c0.8-0.7,1.7-1.2,2.7-1.5c0.5-0.2,0.8-1.3,1.2-1.7c0.8-0.6,1.4-1.5,1.7-2.4c0.2-0.8,0.9-1.4,1.7-1.6
						c0.4-0.1,0.8-0.3,1.1-0.6c0.7-0.8,1.2-1.7,1.6-2.6c0.6-1.3,1.7-2.2,3-2.8c1.1-0.4,2.1-0.9,3.1-1.5c0.3-0.2,0.6-0.4,0.8-0.7
						c0.2,0.4,0.5,0.8,0.8,1.2c2.1,2.5,5.9,2.7,8.6,4.4c1.5,0.9,0.7,2.7,1.8,3.9c0.8,0.8,1.9,1.4,3.1,1.7c1.8,0.5,3.6,1.1,4.1,3.1
						c0.2,1.4,0.6,2.7,1.2,3.9c0.4,0.6,0.9,1.1,1.5,1.6c0.3,0.2,0.6,0.3,0.9,0.5c0.5,1.5,1.5,2.9,2.7,4c1.5,1.2,4.3,0.9,3.9-1.5
						c-0.3-0.8-0.4-1.7-0.4-2.5c0.2-0.9,0.6-1.8,1.1-2.5C147.7,118.1,147.7,117,147.3,116.1"/>
					<path id="Fill_128_1_" class="st15" d="M104.1,122.8c-1.8-0.4,0.2-2.2,0.2-2.9c-0.1-0.6-0.2-1.1-0.3-1.6
						c-0.1-0.7-0.2-1.4-0.3-2c0-0.5-0.9-0.4-0.8,0.1c0.1,0.7,0.1,1.4,0.3,2c0.1,0.4,0.4,1.2,0.3,1.5c-0.2,0.6-0.9,0.8-1,1.4
						c-0.2,1,0.3,1.9,1.3,2.2c0.1,0,0.2,0,0.2,0C104.5,123.7,104.6,122.9,104.1,122.8"/>
					<path id="Fill_130_1_" class="st15" d="M139.8,122.8c-0.4-0.4-1,0.1-0.6,0.5c0.5,0.7,0.5,1.6-0.2,2.2c-0.1,0.2-0.1,0.4,0.1,0.6
						c0.2,0.1,0.4,0.1,0.5-0.1C140.5,125.2,140.5,123.8,139.8,122.8"/>
					<path id="Fill_132_1_" class="st12" d="M117.9,99.6c-0.7-1.2-0.8-2.6-0.3-3.8c0.3-0.5,0.4-1,0.5-1.5c0.1-1.5-2-2.9-1.7-4.2
						c0.1-0.5-0.7-0.6-0.8-0.1c-0.2,0.6-0.1,1.3,0.3,1.8c0.8,1.4,1.7,1.8,1.1,3.6c-0.3,0.6-0.5,1.3-0.6,2c0.1,0.9,0.4,1.8,0.8,2.7
						C117.4,100.4,118.1,100,117.9,99.6"/>
					<path id="Fill_134_1_" class="st12" d="M144.5,102.8c-0.7-1.4-1.8-2.5-3.2-3.2c-1.8-1.1-3.2-0.8-5.1-1.3
						c-2-0.5-3.3-2.1-5.4-2.6c-2-0.4-4.1-0.3-6,0.4c-0.5,0.2-0.2,0.9,0.3,0.7c2-0.7,4.2-0.7,6.2-0.1c1.5,0.5,2.5,1.7,3.9,2.2
						c1.3,0.5,2.8,0.1,4.2,0.6c1.8,0.6,3.4,1.9,4.3,3.6C144,103.6,144.7,103.3,144.5,102.8"/>
					<path id="Fill_136_1_" class="st12" d="M145.8,107.5c-1.6-3.1-4.5-5.4-7.9-6.2c-0.5-0.1-0.8,0.6-0.3,0.8c3.2,0.7,6,2.8,7.5,5.7
						c0.1,0.2,0.3,0.3,0.5,0.2C145.8,108,145.9,107.7,145.8,107.5"/>
					<path id="Fill_140_1_" class="st17" d="M104.2,123.9c-0.2,0-0.3,0.1-0.3,0.3c0,0.2,0.1,0.3,0.3,0.3c0,0,0,0,0,0
						c0.3,0.1,0.6,2,0.2,5.4c-0.4,3.3-1.3,5.2-1.6,5.2c-0.3,0-1.1-2-0.7-5.3c0.1-1.7,0.5-3.3,1.1-4.9l-0.4-0.5
						c-0.7,1.7-1.1,3.5-1.2,5.3c-0.4,3,0.2,5.8,1.2,5.9c1.2,0.1,2-3.5,2.3-5.7C105,129,105.6,124.1,104.2,123.9"/>
					<path id="Fill_142_1_" class="st17" d="M139.4,126.3c0.2,0,0.3,0.2,0.3,0.3c0,0.2-0.2,0.3-0.3,0.3c-0.3,0-1.1,1.8-1.6,5.2
						c-0.4,3.3,0,5.3,0.3,5.4c0.3,0,1.6-1.6,2-4.9c0.3-1.7,0.3-3.5,0-5.2l0.6-0.6c0.3,1.9,0.4,3.9,0,5.9c-0.4,3-1.6,5.6-2.7,5.5
						c-1.2-0.2-1.1-3.9-0.8-6.1C137.3,131.1,138,126.2,139.4,126.3"/>
					<g id="Group_146_1_" transform="translate(0 74.728)">
						<path id="Clip_145-2_1_" class="st18" d="M52.7,81H174v129.4H52.7V81z"/>
						<g>
							<defs>
								<rect id="SVGID_3_" x="52.7" y="81" width="121.4" height="129.4"/>
							</defs>
							<clipPath id="SVGID_4_">
								<use xlink:href="#SVGID_3_"  style="overflow:visible;"/>
							</clipPath>
							<g id="Group_146-2_1_" class="st19">
								<path id="Fill_144_1_" class="st20" d="M149.7,187.9c-0.8,5.9-1.8,12.6-2.4,16.2c-0.3,1.5,8.1,0.8,8,0.8
									c-0.2,0-10.4,1.3-27.6,2.7l-12.1,1l-4.5,0.4c-0.4,0-0.9,0.1-1.3,0.1h-0.2l-0.8,0.1l-0.5,0l-1.1,0.1l-4.5,0.4l-10.5,0.9
									c-1.3,0.1-2.5-0.3-3.5-1.1l-5.6-4.8c-0.9-0.8-1.5-1.9-1.6-3.1l-0.6-7.9c-0.2-2.4-2.2-4.3-4.7-4.3c-5.2,0-9.5-4.2-9.5-9.4
									c0-0.4,0-0.9,0.1-1.3l1.3-9.1c0.4-2.3-1-4.5-3.3-5.2c-7-1.7-11.9-7.9-12.1-15c-0.7-9.8,18.6-56,21.9-59.1
									c4-3.6,18-7.3,24.1-8.8c1.8-0.4,3.7,0.2,4.8,1.6l13,16.4c1.6,2,4.6,2.4,6.7,0.7c0.2-0.1,0.4-0.3,0.5-0.5
									c2.3-2.5,5.3-5.6,8.1-8.2c2-2,3.9-4.1,5.7-6.3c1.2-1.5,3.2-2.1,5-1.6c6.9,2,23,7,25.5,9.7c3.1,3.5,3.1,11.7,5.2,18.9
									c2.1,7.1-1.1,43.8-1.1,48.3s-12.3,21.1-12.7,23.7C159.5,185,150.5,182.5,149.7,187.9z"/>
							</g>
						</g>
					</g>
					<path id="Fill_147_1_" class="st21" d="M156.3,252.9c-4.2-2.3-8.6-5.3-9.1-10.4c0-1.1-0.2-2.2-0.5-3.2
						c-0.5-1.5-1.5-2.9-2.1-4.3c-1.4-2.9-2.4-6-3.3-9.1c0-0.2-0.3-0.3-0.5-0.3c-0.2,0-0.3,0.2-0.3,0.4c0.3,2.5,0.6,5.1,0.9,7.6
						c0.2,2.2,0.8,4.6,0.8,6.9c1.7,6.9-0.3,14.3-2.4,21c-1.3,6.1-3.6,11.9-6.9,17.2c3.1-2.2,6.6-3.9,10.3-4.9c2.5-0.6,5-0.7,7.5-0.2
						c2.6,0.6,3.1,4.3,5.6,5.2c1.5,0.5-1.9-1.4-0.6-1.6c0.6-3.5,1.6-10.2,2.4-16.2c-0.2-0.1,0.6-0.4,1.4-2.3
						C161.5,254.9,155.7,253,156.3,252.9z"/>
					<path id="Fill_171_1_" class="st10" d="M143.3,217.6c-1.3,1.8-2.1,3.9-2.2,6.1c0,0.5,0.8,0.6,0.8,0.1c0.1-2.1,0.8-4.1,2-5.7
						C144.2,217.6,143.6,217.2,143.3,217.6"/>
					<path id="Fill_173_1_" class="st10" d="M163.9,211.4c-0.4-0.4-1,0.1-0.6,0.5c3.2,3.3,2.6,10,1.8,14.1
						c-0.8,4.7-3.5,8.8-7.4,11.5c-0.4,0.3,0.1,0.9,0.5,0.6c4-2.8,6.8-7.2,7.7-12C166.7,221.7,167.3,214.8,163.9,211.4"/>
					<path id="Fill_175_1_" class="st10" d="M114.6,263.4c0.1-0.1,0.1-0.2,0.1-0.4c0-0.1-0.1-0.3-0.1-0.4c0-0.1,0-0.2,0-0.3
						c0-0.1-0.1-0.2-0.1-0.2c-0.3-3.2-0.1-6.5,0.7-9.7c0.5-3.6,0.1-7.3,0.4-11c0.6-3.7,1.6-7.2,2.9-10.7c0.7-2.8,0.9-5.8,0.5-8.7
						c-0.5-3.5-0.5-7,0-10.4c1.1-3,1.6-6.2,1.5-9.3c-0.5-3.4-2-6.6-2.3-10.1c-0.1-4.2,0.7-8.3,2.5-12.1c0.2-0.5-0.6-0.8-0.7-0.3
						c-1.5,3.5-2.4,7.2-2.6,11c0.3,3.3,1,6.5,2,9.7c0.5,1.9,0.7,3.9,0.4,5.9c-0.3,1.8-1.1,3.4-1.5,5.2c-0.5,3.3-0.5,6.6,0,9.9
						c0.4,3.9,0,7.9-1.3,11.6c-1.3,3.2-2,6.6-2.2,10.1c0.1,3.7-0.1,7.4-0.6,11c-0.7,2.8-0.8,5.7-0.3,8.5c0.2,3,0.1,5.9-0.3,8.9
						c0,0.2,0.2,0.4,0.4,0.4c0.2,0,0.3-0.1,0.4-0.3C114.6,268.9,114.7,266.1,114.6,263.4"/>
					<path id="Fill_177_1_" class="st10" d="M121.7,180.5c-0.2,0-0.4,0.1-0.5,0.3c0,0,0,0,0,0l-0.3,1.3c0,0.2,0.1,0.4,0.4,0.4
						c0,0,0,0,0,0c0.2,0,0.4-0.1,0.4-0.3l0.3-1.3C122,180.7,121.9,180.5,121.7,180.5C121.7,180.5,121.7,180.5,121.7,180.5"/>
					<path id="Fill_179_1_" class="st10" d="M120.4,194c0-0.5-0.8-0.4-0.8,0.1c0,0.5,0,1,0.1,1.5c0,0.5,0.8,0.4,0.8-0.1L120.4,194"
						/>
					<path id="Fill_173-2_1_" class="st10" d="M87,232.3c0.1-0.3-0.4-0.5-0.5-0.1c-1.2,3.1-5.9,5.5-9,6.7c-3.2,1.4-6.9,1.6-10.3,0.6
						c-0.3-0.1-0.6,0.4-0.3,0.5c3.5,1.1,7.3,0.8,10.7-0.7C80.9,238,85.7,235.6,87,232.3"/>
					<path id="Fill_181_1_" class="st10" d="M121,224.7c0-0.6,0-1.2,0.1-1.7c0.1-0.5-0.7-0.6-0.8-0.1c-0.1,0.6-0.2,1.3-0.1,1.9
						C120.3,225.3,121.1,225.2,121,224.7"/>
					<path id="Fill_183_1_" class="st10" d="M117,240.2l-0.2,1.8c0,0.2,0.2,0.4,0.4,0.4c0.2,0,0.3-0.1,0.4-0.3l0.2-1.8
						c0-0.2-0.1-0.4-0.3-0.5S117,240,117,240.2C117,240.2,117,240.2,117,240.2"/>
					<path id="Fill_185_1_" class="st10" d="M116.8,261.1l-0.2-1.9c-0.1-0.5-0.8-0.4-0.8,0.1l0.2,1.9
						C116.1,261.7,116.8,261.6,116.8,261.1"/>
					<path id="Fill_187_1_" class="st10" d="M71.7,206.2c-1-1.1-2.3-1.8-3.7-2.1c-1.9-0.6-3.9-1.1-5.9-1.5c-0.5-0.1-0.6,0.7-0.1,0.8
						c1.7,0.3,3.3,0.7,4.9,1.2c1.1,0.3,2.2,0.7,3.3,1.2c-3.6,0.1-7.1,1.5-9.9,3.8c-0.2,0.1-0.2,0.4-0.1,0.6c0.1,0.2,0.4,0.2,0.6,0.1
						l0,0c2.7-2.3,6.1-3.6,9.6-3.7c0.2,0,0.3-0.1,0.4-0.3c0.1,0.1,0.2,0.2,0.3,0.3C71.4,207.1,72,206.7,71.7,206.2"/>
					<path id="Fill_189_1_" class="st10" d="M81.7,186c-2.3-2.8-3.6-6.3-3.7-10c-0.6-3.3-1.8-6.4-3.5-9.3c-0.2-0.5-1-0.1-0.7,0.3
						c0.8,1.7,1.7,3.3,2.5,5.1c0.7,1.9,1.1,3.9,1.1,6c0.3,3.1,1.6,6.1,3.7,8.4C81.4,186.9,82.1,186.4,81.7,186"/>
					<path id="Fill_191_1_" class="st10" d="M167.7,170.7c-0.5,2.3-1.2,4.5-2.2,6.6c-0.9,2-2.3,3.7-3.3,5.6c-1.8,3.7-1.6,8-4.1,11.4
						c-0.1,0.2-0.1,0.4,0.1,0.5c0.2,0.1,0.4,0.1,0.5-0.1c2.5-3.4,2.4-7.8,4.2-11.5c1-2.1,2.5-3.9,3.4-5.9c0.9-2.1,1.6-4.3,2.1-6.5
						C168.6,170.3,167.8,170.3,167.7,170.7"/>
				</g>
			</g>
		</g>
	</g>
</g>
</svg>
