<svg id="Group_17204" data-name="Group 17204" xmlns="http://www.w3.org/2000/svg" width="133.283" height="120.546" viewBox="0 0 133.283 120.546">
  <g id="Group_17201" data-name="Group 17201" transform="translate(0)">
    <path id="Path_91051" data-name="Path 91051" d="M5309.025,599.707a7.117,7.117,0,0,0-2.2-2.885,24.687,24.687,0,0,1-3.1-2.424,10.275,10.275,0,0,1-2.054-3.2,20.981,20.981,0,0,1-.887-3.485,6.4,6.4,0,0,0-1.246-2.909,5.61,5.61,0,0,0-2.945-1.518,9.691,9.691,0,0,1-3.338-1.413,12.728,12.728,0,0,1-2.437-2.465c-.755-.958-1.441-1.969-2.181-2.94-.208-.273-.577-.737-.926-.378a2.677,2.677,0,0,0-.618,1.36,1.245,1.245,0,0,0,.485,1.208,2.336,2.336,0,0,1,.669.642,1.578,1.578,0,0,1,.139.945c-.07.634-.333,1.226-.458,1.848a4.655,4.655,0,0,0,1.689,4.56,4.766,4.766,0,0,0,1.449.755,4.7,4.7,0,0,0,.806.179c.132.018.267.03.4.036.178.008.329-.063.356.141a3.994,3.994,0,0,1-.45,1.9,7.8,7.8,0,0,0-.551,1.722,4.007,4.007,0,0,0,.832,2.943,5.7,5.7,0,0,0,6.356,1.65,9.337,9.337,0,0,0,1.594-.657c-.056.564.492.941.97,1.141a2.6,2.6,0,0,1,1.1.691c.2.244.368.522.592.748,1.063,1.068,1.978-1.115,2.19-2.014a14.447,14.447,0,0,1,2.29,1.757,7.343,7.343,0,0,1,1.494,2.452,14.315,14.315,0,0,1,.577,6.209c-.043.557-.1,1.113-.156,1.669-.007.084.124.083.132,0C5309.87,605.222,5310.141,602.323,5309.025,599.707Z" transform="translate(-5287.07 -561.303)" fill="#d5e4c5"/>
    <path id="Path_91052" data-name="Path 91052" d="M5444.808,439.672c-.392-.715-.837-1.4-1.267-2.088a.063.063,0,0,0-.016-.024,19.466,19.466,0,0,1-1.05-1.864,18.684,18.684,0,0,1-1.375-9.38c.117-1.652.456-3.29.5-4.945a7.28,7.28,0,0,0-.286-2.395,11.158,11.158,0,0,0-1-2.1,11.528,11.528,0,0,1-1.574-4.655,10.5,10.5,0,0,1,.074-2.528,2.847,2.847,0,0,0-.038-1.491.747.747,0,0,0-1.008-.434,1.681,1.681,0,0,0-.92,1.273c-.308,1.52.762,3.04.011,4.5a11.242,11.242,0,0,1-1.407,1.815,11.742,11.742,0,0,0-1.231,1.823,6.281,6.281,0,0,0-.815,3.844,4.485,4.485,0,0,0,1.687,2.953,5.9,5.9,0,0,0,1.631.682.837.837,0,0,1,.6,1.049,9.329,9.329,0,0,1-.436,1.181,7.023,7.023,0,0,0-.416,4.4,3.907,3.907,0,0,0,.9,1.6c.455.474,1.147.765,1.466,1.356.39.716-.18,1.525-.138,2.282a2.714,2.714,0,0,0,.609,1.546,2.512,2.512,0,0,0,3.029.676,2.583,2.583,0,0,0,1.148-1.02l.143.227a13.967,13.967,0,0,1,1.966,3.962,11.856,11.856,0,0,1-.118,5c-.3,1.653-.659,3.3-1.019,4.939q-.267,1.22-.54,2.439c-.019.082.108.117.126.035.391-1.75.78-3.5,1.141-5.257a27.137,27.137,0,0,0,.763-5.1A8.646,8.646,0,0,0,5444.808,439.672Z" transform="translate(-5420.605 -407.704)" fill="#d5e4c5"/>
    <path id="Path_91053" data-name="Path 91053" d="M5516.421,930.978c.022-.009.037-.024.055-.06a.067.067,0,0,0-.009-.079.377.377,0,0,0-.048-.036c0-.023,0-.045,0-.068a.065.065,0,0,0-.131,0,.212.212,0,0,1,0,.025,2.464,2.464,0,0,0-.315.006c-.322,0-.643,0-.966,0-.6,0-1.2,0-1.8-.008q-1.863-.02-3.728-.088a.059.059,0,0,0-.062.064v0l-.261,2.153a8.385,8.385,0,0,0-.147,1.97,2.305,2.305,0,0,0,.734,1.3,2.072,2.072,0,0,1,.446,1.936.053.053,0,0,0,0,.023.065.065,0,0,0,.046.109c2.073-.066,4.382.075,6.451-.078.631-.047-.176-.286-.176-.324Q5516.476,934.4,5516.421,930.978Z" transform="translate(-5489.654 -885.111)" fill="#62625a"/>
    <path id="Path_91054" data-name="Path 91054" d="M6611.694,884.921c-.2-.418-.724-.372-1.11-.388-.594-.025.234-.1-2.124.1l-.607.052h0a.031.031,0,0,0-.055.016q-.195,3.563-.392,7.126-.1,1.789-.2,3.578l-.1,1.789c-.016.276-.04.553-.045.829a1.222,1.222,0,0,0,.084.544c.194.418.722.372,1.109.388.593.025-.235.1,2.124-.1l.607-.052a.031.031,0,0,0,.055-.017q.2-3.563.393-7.126.1-1.789.2-3.578l.1-1.789c.016-.276.038-.553.046-.829A1.272,1.272,0,0,0,6611.694,884.921Z" transform="translate(-6492.068 -842.961)" fill="#9ea0a3"/>
    <g id="Group_17196" data-name="Group 17196" transform="translate(70.837 16.014)">
      <path id="Path_91055" data-name="Path 91055" d="M6230.246,607.082a4.141,4.141,0,0,0-1.229-2.652,5.187,5.187,0,0,0-3.374-1.146c-4.367-.367-5.928,2.112-5.312,2.478.447.054.454.76.241,1.059.168.115.349.214.509.34a4.4,4.4,0,0,1,.729.75,31.983,31.983,0,0,1,2.271,3.395,24.95,24.95,0,0,0,1.9,3.384c.079.1.286.422.447.427.139,0,.22-.144.3-.234.408-.478.789-1.071,1.206-1.542a9.037,9.037,0,0,0,1.677-2.528A7.278,7.278,0,0,0,6230.246,607.082Z" transform="translate(-6209.746 -602.226)" fill="#2c2c2c"/>
      <path id="Path_91056" data-name="Path 91056" d="M6106.025,804.931h.018c.77.01,1.538-.019,2.307.014a44.224,44.224,0,0,0,7.5-.327c1.228-.158,2.451-.374,3.66-.639a6.971,6.971,0,0,0,2.786-1.137,9.5,9.5,0,0,0,1.069-.911c.005-.025.013-.049.019-.074q.413-1.54.79-3.089.724-2.973,1.318-5.977c.65-3.3,1.786-7.863-1.268-10.339a13.324,13.324,0,0,0-2.428-1.448c-.685-.347-1.368-.7-2.054-1.046-.141-.071-.282-.142-.424-.212l-.018,0c-2.269.252-4.575.1-6.829.5a.561.561,0,0,1-.66-.349l-.208.089a18.128,18.128,0,0,0-4.192,2.083,11.879,11.879,0,0,0-3.389,5.108c-.974,2.361-1.861,4.762-2.7,7.175a20.7,20.7,0,0,0-1.083,3.67,5.918,5.918,0,0,0,.4,3.2,4.526,4.526,0,0,0,2.468,2.49c.963.412,1.942.793,2.921,1.176Z" transform="translate(-6100.17 -763.349)" fill="#2c2c2c"/>
      <path id="Path_91057" data-name="Path 91057" d="M6261.677,770.027c.3-.022.605-.041.908-.056A6.16,6.16,0,0,0,6261.677,770.027Z" transform="translate(-6247.607 -754.425)" fill="#f0ded5"/>
      <path id="Path_91059" data-name="Path 91059" d="M6249.08,701.578a.372.372,0,0,0-.186-.05c-.137-.011-.275-.011-.411-.011-.265,0-.529.008-.8.007a9.753,9.753,0,0,1-1.681-.194,5.781,5.781,0,0,0-1.6-.12c-.006-.077-.014-.154-.02-.231,0-.042-.06-.03-.056.011.006.076.012.151.019.227-.026.009-.019.052,0,.061.171,2.152.338,4.3.514,6.456.051.617.111,1.234.22,1.845a.031.031,0,0,0,.034.027,30.7,30.7,0,0,0,3.257-.335l.361-.059a1.539,1.539,0,0,0,.4-.072.113.113,0,0,0,.066-.087,2.392,2.392,0,0,0,.015-.463q.022-.933.046-1.865c.031-1.213.058-2.428.006-3.646-.014-.288-.031-.577-.053-.865-.013-.145-.019-.294-.041-.438A.267.267,0,0,0,6249.08,701.578Z" transform="translate(-6231.774 -691.419)" fill="#ffa57a"/>
      <path id="Path_91060" data-name="Path 91060" d="M6238.54,766.685c-1.63-.8-3.678-1.468-5.328-.356a.062.062,0,0,0-.039.008,14.779,14.779,0,0,1-1.788.872,3.754,3.754,0,0,0,2,2.325,4.41,4.41,0,0,0,4.017-.268,5.8,5.8,0,0,0,1.683-1.5c.154-.194.3-.394.44-.6C6239.2,767.009,6238.87,766.846,6238.54,766.685Z" transform="translate(-6219.955 -750.565)" fill="#ffa57a"/>
      <path id="Path_91061" data-name="Path 91061" d="M6219.684,632.391a4.836,4.836,0,0,1-4.452,1.227c-1.772-.619-1.833-3.914-1.849-5.031a20.611,20.611,0,0,1,.1-2.263c.029-.287.061-.559.1-.816a11.856,11.856,0,0,1,.559-2.418.12.12,0,0,0,.068-.056,2.344,2.344,0,0,1,.7-.695c1.807-.1,3.62.091,5.431.119.052.044.1.089.147.132a4.4,4.4,0,0,1,.925,1.256,10.7,10.7,0,0,1,.888,3.428C6222.445,628.434,6220.709,631.295,6219.684,632.391Z" transform="translate(-6203.519 -619.63)" fill="#ffa57a"/>
      <path id="Path_91062" data-name="Path 91062" d="M6261.916,676.275c-.013.33-.17.591-.351.584s-.317-.28-.3-.61.17-.591.351-.584S6261.929,675.945,6261.916,676.275Z" transform="translate(-6247.225 -668.335)" fill="#38284f"/>
      <path id="Path_91063" data-name="Path 91063" d="M6222.432,673.586c-.012.33-.169.591-.349.584s-.318-.28-.305-.61.17-.591.351-.584S6222.444,673.257,6222.432,673.586Z" transform="translate(-6211.183 -665.881)" fill="#38284f"/>
      <path id="Path_91064" data-name="Path 91064" d="M6234.266,682.548c-.34.079-.552-.24-.548-.549a1.709,1.709,0,0,1,.212-.671c.15-.317.3-.632.454-.948.034-.075-.076-.146-.111-.07l-.455.948a1.786,1.786,0,0,0-.233.786.6.6,0,0,0,.711.632A.066.066,0,0,0,6234.266,682.548Z" transform="translate(-6221.962 -672.545)" fill="#dd6b4b"/>
      <path id="Path_91065" data-name="Path 91065" d="M6232.289,718.059l-.167-.017q-1.09-.107-2.185-.14l-.154,0a.065.065,0,0,0-.062.095,1.458,1.458,0,0,0,1.308,1.134c.615.016.979-.532,1.31-.965A.066.066,0,0,0,6232.289,718.059Z" transform="translate(-6218.43 -706.888)" fill="#dd6b4b"/>
      <path id="Path_91066" data-name="Path 91066" d="M6232.275,717.945c.083.526.738.541,1.182.562.244.011.548.084.755-.081a.848.848,0,0,0,.246-.34C6233.733,718.014,6233,717.967,6232.275,717.945Z" transform="translate(-6220.766 -706.932)" fill="#fff"/>
      <path id="Path_91067" data-name="Path 91067" d="M6256.115,658.1a.524.524,0,0,0-.372-.258,2.581,2.581,0,0,0-1.869.06c-.428.233-.434.646.1.7.393.039.8-.042,1.2-.042a1.494,1.494,0,0,0,.792-.092A.293.293,0,0,0,6256.115,658.1Z" transform="translate(-6240.2 -651.928)" fill="#2c2c2c"/>
      <path id="Path_91068" data-name="Path 91068" d="M6216.7,654.831a.532.532,0,0,0-.332-.31,2.949,2.949,0,0,0-1.579-.291c-.035.257-.07.53-.1.816.33.054.675.048,1,.1a1.5,1.5,0,0,0,.8.026A.3.3,0,0,0,6216.7,654.831Z" transform="translate(-6204.712 -648.745)" fill="#2c2c2c"/>
      <path id="Path_91069" data-name="Path 91069" d="M6230.625,612.734a4.792,4.792,0,0,0-1-2.347,7.394,7.394,0,0,0-3.986-2.783c-1.149.307-2.286.668-3.455.892-.09.128-.192.25-.271.372a2.912,2.912,0,0,0-.18.358c-.012.093-.023.187-.032.283a.678.678,0,0,1-.051.2,21.544,21.544,0,0,1,3.238-.118,3.723,3.723,0,0,1,2.809,1.06,2.335,2.335,0,0,1,.626,1.068,11,11,0,0,1,.154,1.729,1.389,1.389,0,0,0,.321.907.686.686,0,0,0,.223.134,1.293,1.293,0,0,1,.25,1.471,9.664,9.664,0,0,1-.756,1.176c-.006.009-.009.018-.014.028a7.886,7.886,0,0,0,.074.976c.1-.133.194-.263.306-.435.233-.355.428-.74.627-1.115.284-.536.808-1.24.708-1.891.168-.086.2-.325.249-.531A4.951,4.951,0,0,0,6230.625,612.734Z" transform="translate(-6211.065 -606.203)" fill="#2c2c2c"/>
      <path id="Path_91070" data-name="Path 91070" d="M6299.984,686.722a.788.788,0,0,0-1.24-.631c-.073.041-.01.151.063.114a.057.057,0,0,0-.009.026c-.051.787-.33,1.53-.325,2.33a.066.066,0,0,0,.111.046C6299.169,688.128,6300.028,687.59,6299.984,686.722Z" transform="translate(-6281.197 -677.735)" fill="#ffa57a"/>
      <path id="Path_91071" data-name="Path 91071" d="M6296.329,689.926a.7.7,0,0,0-.436.331c-.129.235-.1.731-.464.75-.084,0-.084.135,0,.131a.486.486,0,0,0,.421-.333c.132-.316.122-.64.514-.753A.065.065,0,0,0,6296.329,689.926Z" transform="translate(-6278.361 -681.351)" fill="#dd6b4b"/>
      <path id="Path_91072" data-name="Path 91072" d="M6294.209,713.6a.408.408,0,0,1-.445.1c-.081-.029-.114.1-.036.126a.537.537,0,0,0,.573-.134C6294.359,713.634,6294.268,713.541,6294.209,713.6Z" transform="translate(-6276.825 -702.949)" fill="#dd6b4b"/>
      <path id="Path_91073" data-name="Path 91073" d="M6213.859,592.817a1.021,1.021,0,0,0-.458-.35,1.715,1.715,0,0,0-.3-.075c-.13-.027-.13-.014-.2-.131a1.266,1.266,0,0,0-.95-.7,2.881,2.881,0,0,0-1.487.175,3.447,3.447,0,0,0-1.108.863,3.052,3.052,0,0,1-.656.531,4.326,4.326,0,0,0-.707.393,2.662,2.662,0,0,0-.743,1.271,6.006,6.006,0,0,0,.178,3.74.065.065,0,0,0,.08.046c.582-.169.535-1.035.862-1.443.511-.639,1.4-.7,2.132-.918a2.729,2.729,0,0,0,1.947-2.308,2.144,2.144,0,0,0,1.215-.261A.562.562,0,0,0,6213.859,592.817Z" transform="translate(-6197.722 -591.527)" fill="#2c2c2c"/>
      <path id="Path_91074" data-name="Path 91074" d="M6274.909,599.19c-.2-.7-.914-1.141-1.059-1.863a6.562,6.562,0,0,1,.111-1.267,1.646,1.646,0,0,0-.357-.947,3.419,3.419,0,0,0-1.9-1.114,1.511,1.511,0,0,1-.687-.414,2.465,2.465,0,0,0-.42-.4,1.735,1.735,0,0,0-.986-.279,2.249,2.249,0,0,0-1.785,1.092c-.036-.062-.145-.031-.116.04a5.359,5.359,0,0,0,1.333,1.907,10.112,10.112,0,0,1,.891.841c.338.389.639.815.94,1.233a11.53,11.53,0,0,1,.711,1.1c.195.347.322.741.544,1.07a1.31,1.31,0,0,0,1.657.362C6274.38,600.3,6275.125,599.946,6274.909,599.19Z" transform="translate(-6253.108 -592.783)" fill="#2c2c2c"/>
      <path id="Path_91075" data-name="Path 91075" d="M6294.987,822.24c-1.875,2.42-2.569,5.47-3.319,8.375a86.565,86.565,0,0,0-2.13,10.02,36.932,36.932,0,0,0-.344,5.892.066.066,0,0,0,.132,0,43.47,43.47,0,0,1,1.095-10.159c.349-1.65.753-3.288,1.169-4.923.387-1.516.755-3.043,1.231-4.535a14.666,14.666,0,0,1,2.257-4.578C6295.131,822.267,6295.038,822.173,6294.987,822.24Z" transform="translate(-6272.716 -802.12)" fill="#c9b3b3"/>
      <path id="Path_91076" data-name="Path 91076" d="M6160.353,837.938c0-.084-.135-.085-.132,0a10.168,10.168,0,0,1-.355,2.752,5.9,5.9,0,0,0-.072-1c-.014-.083-.14-.048-.126.035a5.582,5.582,0,0,1,.042,1.424.053.053,0,0,0,.026.052,19.653,19.653,0,0,0-.924,4.383c-.046,1.4.129,2.784-.022,4.188-.147,1.379-.454,2.734-.717,4.094a19.216,19.216,0,0,0-.45,4.5c0,.084.134.084.131,0-.124-2.758.752-5.407,1.111-8.115a15.685,15.685,0,0,0,.145-2.041c0-.709-.062-1.417-.07-2.125a13.887,13.887,0,0,1,.665-3.928A14.081,14.081,0,0,0,6160.353,837.938Z" transform="translate(-6152.605 -816.413)" fill="#c9b3b3"/>
      <path id="Path_91077" data-name="Path 91077" d="M6216.08,629.576a7.522,7.522,0,0,0-1.312.706,2.138,2.138,0,0,0-.656,1.128c-.019.082.109.117.128.035a1.993,1.993,0,0,1,.762-1.184c.348-.252.775-.355,1.145-.572A.066.066,0,0,0,6216.08,629.576Z" transform="translate(-6204.183 -626.252)" fill="#584978"/>
      <path id="Path_91078" data-name="Path 91078" d="M6311.478,649.19a1.66,1.66,0,0,1-1.708-1.745c0-.084-.128-.084-.131,0a1.792,1.792,0,0,0,1.839,1.876A.065.065,0,0,0,6311.478,649.19Z" transform="translate(-6291.389 -642.515)" fill="#584978"/>
      <path id="Path_91079" data-name="Path 91079" d="M6310.781,669.8a1.262,1.262,0,0,1-.621.061c-.189-.031-.55-.133-.56-.379,0-.084-.134-.084-.129,0,.021.575.964.574,1.345.444C6310.9,669.9,6310.86,669.772,6310.781,669.8Z" transform="translate(-6291.236 -662.632)" fill="#584978"/>
    </g>
    <path id="Path_91080" data-name="Path 91080" d="M5564.288,1015.831c0,.367,0,.734-.009,1.1-.065,4.523-.2,9.045-.308,13.567q-.158,6.811-.316,13.624-.157,6.843-.317,13.686-.077,3.39-.157,6.781c-.01.419-.046,2.142-.091,4.217v.064c0,.137-.005.275-.009.414-.023.029-.046.057-.072.085a5.348,5.348,0,0,1-1.8,1.252,5.032,5.032,0,0,0-.93.55c-.044.034-.09.07-.13.108a2.71,2.71,0,0,0-.489.552,10.213,10.213,0,0,0-1.3,3.317c-.04.164-.077.329-.111.5-.57,0-2.3,0-4.949-.008h-.123l-6.269-.007h-.126l-6.7-.008h-.126l-6.081-.009h-.127l-6.7-.011h-.125l-1.945,0h-.064l-4.237-.008h-.125l-6.7-.014h-.124l-1.559,0h-.059l-4.462-.011h-.126l-4.526-.013-2.174-.007h-.125l-5.3-.017h-.126l-2.955-.011h-.059l-3.686-.014h-.126l-6.08-.026h-.123c-2.291-.011-4.529-.022-6.7-.034h-.125l-2.5-.014h-.059l-3.687-.023h-.127q-1.721-.012-3.356-.024l-3.342-.027h-.125c-2.2-.019-4.239-.039-6.079-.062h-.125l-2.178-.027h-.057c-1.729-.023-3.227-.049-4.455-.076.013-.3.021-.593.024-.888,0-.221,0-.443-.006-.663a7.252,7.252,0,0,0-.068-.874,3.422,3.422,0,0,0-2.226-2.949,7.649,7.649,0,0,0-.976-.28l-.305-.061c-.289-.056-.578-.109-.865-.177l-.011,0c.069-4.569.274-12.516.326-14.714l.3-12.87q.149-6.4.3-12.808l.148-6.4c.05-2.085.125-4.172.121-6.258,0-.134,0-.267,0-.4,0-.112,0-.224-.005-.336,0-.043,0-.087,0-.131-.015-.835-.06-1.672-.146-2.5a.033.033,0,0,1,.013-.064l1.355-.005,20.312-.082h.067l3.309-.013,11.3-.042c9.572-.033,19.993-.067,28.357-.1h.064l8.8-.035,7.363-.03h.066l22.869-.091,14.295-.058h.04c0,.01,0,.021,0,.032.1.993.145,1.992.155,2.992,0,.044,0,.087,0,.131C5564.288,1015.607,5564.288,1015.719,5564.288,1015.831Z" transform="translate(-5431.137 -959.664)" fill="#ffe2e2"/>
    <path id="Path_91081" data-name="Path 91081" d="M6424.425,1012.283h-.038l-35.435.146q-.322,13.253-.713,26.522-.51,17.131-1.147,34.258c-.029.781-.056,1.556-.084,2.338,0,0,29.45.043,31.286.05q.053-.249.11-.495a10.3,10.3,0,0,1,1.3-3.317,3.582,3.582,0,0,1,1.55-1.21,5.341,5.341,0,0,0,1.8-1.252c.026-.028.05-.056.073-.085,0-.14.007-.278.009-.415,0-.022,0-.043,0-.064.044-2.075.081-3.8.09-4.217q.078-3.391.157-6.781.157-6.843.317-13.686.158-6.812.316-13.623c.1-4.522.244-9.044.307-13.567q.011-.549.011-1.1A33.865,33.865,0,0,0,6424.425,1012.283Z" transform="translate(-6291.181 -959.612)" fill="#fff1e8" style="mix-blend-mode: multiply;isolation: isolate"/>
    <path id="Path_91082" data-name="Path 91082" d="M5526.8,1077.012a13.906,13.906,0,0,1-2.339-3.773,25.534,25.534,0,0,0-1.475-3.867c-1.148-2.008-3.24-3.164-4.935-4.645a7.53,7.53,0,0,1-2.167-2.853,9.033,9.033,0,0,1-.364-4.266c.152-1.44.449-2.862.553-4.308a16.925,16.925,0,0,0-.2-4.026,17.18,17.18,0,0,0-3.191-7.455c-1.676-2.226-3.854-4.126-4.79-6.826-.978-2.828-.682-5.9-.3-8.807.393-3.017.927-6.174.176-9.181a10.718,10.718,0,0,0-.318-1.046l-11.3.042-3.309.013h-.067l-20.312.082a37.168,37.168,0,0,1,2.3,10.618c.08,1.235.05,2.475.133,3.71a7.822,7.822,0,0,0,.775,3.156,11.662,11.662,0,0,0,1.948,2.477,13.087,13.087,0,0,1,2.036,2.579,11.434,11.434,0,0,1,1.1,3.029c.471,2.089.564,4.24.928,6.348a15.4,15.4,0,0,0,.805,3.042,13.384,13.384,0,0,0,1.634,2.89,44.913,44.913,0,0,1,3.923,5.625c2.066,4.06,2.521,8.695,2.682,13.18.07,1.977.083,3.954.129,5.93,10.523.079,23.957.134,37.315.171C5527.734,1078.2,5527.252,1077.583,5526.8,1077.012Z" transform="translate(-5456.306 -962.97)" fill="#fff1e8" style="mix-blend-mode: multiply;isolation: isolate"/>
    <path id="Path_91083" data-name="Path 91083" d="M6532.057,790.168c-.193-.423-.72-.389-1.1-.413-.471-.03-12.808.071-17.891-.008a7.347,7.347,0,0,0-.879.033l-.123.016c-1.35.183-1.255.819-1.272,1.144q-.16,2.975-.328,5.949-.094,1.787-.2,3.574l-.1,1.787c-.016.276-.039.552-.045.828a1.219,1.219,0,0,0,.083.546c.185.4.672.39,1.049.411l.055,0,.074,0c1.339.042,17.078.172,19.368.034l.6-.039a.03.03,0,0,0,.053-.016c.131-2.372.687-12.478.687-12.478.014-.275.036-.552.043-.828A1.227,1.227,0,0,0,6532.057,790.168Z" transform="translate(-6403.571 -756.463)" fill="#9ea0a3"/>
    <path id="Path_91084" data-name="Path 91084" d="M6538.82,789.893c-.02.443-.044.887-.066,1.33-.154,3.066-.33,6.13-.5,9.195-.073,1.245-.145,2.532-.231,3.776h-.128c.336-4.74.59-9.536.8-14.285Z" transform="translate(-6428.921 -756.597)" fill="#584978"/>
    <path id="Path_91085" data-name="Path 91085" d="M6624.537,958.888q.106-1.919.2-3.839.034-.665.066-1.33l-.123.015q-.117,2.57-.25,5.154A.786.786,0,0,1,6624.537,958.888Z" transform="translate(-6507.922 -906.151)" fill="#584978"/>
    <path id="Path_91086" data-name="Path 91086" d="M5576.64,1047.058H5458.419c0,.044,0,.087,0,.131H5576.64Z" transform="translate(-5443.491 -991.358)" fill="#38284f"/>
    <path id="Path_91087" data-name="Path 91087" d="M5562.926,1664.6H5444.7c0,.044,0,.088,0,.131h118.219C5562.927,1664.689,5562.927,1664.646,5562.926,1664.6Z" transform="translate(-5430.972 -1555.102)" fill="#38284f"/>
    <path id="Path_91088" data-name="Path 91088" d="M5575.226,1073.213c-.179,6.08-.542,17.18-.9,27.842h.128c.125-3.6.231-6.721.3-8.691.385-11.338.734-22.865,1.035-34.262.1-3.607.189-7.251.275-10.838h-.131C5575.721,1055.839,5575.486,1064.566,5575.226,1073.213Zm-6.369-.055c-.181,6.09-.544,17.218-.906,27.9h.127c.132-3.792.241-6.992.3-8.746.385-11.33.733-22.858,1.036-34.262.094-3.589.186-7.213.273-10.783h-.131C5569.349,1055.832,5569.114,1064.541,5568.856,1073.158Zm-6.832.153c-.19,6.416-.549,17.367-.9,27.744h.129c.122-3.56.227-6.643.293-8.592.385-11.33.734-22.858,1.037-34.262.095-3.608.187-7.285.275-10.936h-.131C5562.52,1055.873,5562.285,1064.635,5562.024,1073.312Zm-6.208.049c-.191,6.406-.548,17.333-.9,27.7h.126c.122-3.534.227-6.6.293-8.543.386-11.333.734-22.86,1.036-34.262.1-3.649.19-7.343.278-10.985h-.132C5556.313,1055.889,5556.077,1064.668,5555.817,1073.36Zm53.19-26.145c-.2,8.525-.439,17.2-.694,25.8-.193,6.478-.558,17.579-.914,28.045h.129c.131-3.818.243-7.063.306-8.893.385-11.339.732-22.866,1.034-34.262.095-3.556.185-7.147.271-10.685Zm-20.739,25.8c-.192,6.478-.558,17.579-.914,28.045h.128c.135-3.862.247-7.121.306-8.893.386-11.339.733-22.866,1.035-34.262.094-3.54.185-7.114.271-10.635h-.133C5588.755,1055.774,5588.523,1064.432,5588.268,1073.011Zm13.213.153c-.181,6.09-.545,17.214-.907,27.892h.127c.126-3.62.233-6.761.3-8.74.384-11.339.733-22.866,1.037-34.262.094-3.608.186-7.251.273-10.838h-.132C5601.974,1055.79,5601.739,1064.517,5601.481,1073.164Zm-6.383-.306c-.194,6.51-.562,17.687-.918,28.2h.128c.134-3.876.249-7.18.311-9.046.384-11.339.733-22.866,1.036-34.262.092-3.489.182-7.01.265-10.483h-.131C5595.585,1055.725,5595.353,1064.33,5595.1,1072.858Zm-13.038.2c-.194,6.468-.558,17.544-.912,28h.127c.131-3.8.243-7.022.3-8.844.384-11.339.733-22.866,1.034-34.262.095-3.556.186-7.147.271-10.684h-.131C5582.549,1055.79,5582.314,1064.464,5582.06,1073.06Zm-77.772.595c-.189,6.346-.542,17.127-.889,27.4h.126c.122-3.53.223-6.512.283-8.249.385-11.339.734-22.866,1.037-34.263.1-3.755.195-7.55.284-11.28H5505C5504.789,1055.981,5504.55,1064.859,5504.288,1073.655Zm13.04-.2c-.18,6.035-.539,17.014-.9,27.6h.128c.126-3.621.231-6.687.291-8.451.384-11.339.733-22.866,1.036-34.263.1-3.688.191-7.412.28-11.077h-.131C5517.825,1055.916,5517.587,1064.725,5517.327,1073.453Zm-6.832.153c-.189,6.355-.545,17.16-.892,27.45h.127c.123-3.55.226-6.552.286-8.3.384-11.333.732-22.861,1.036-34.262.1-3.731.193-7.509.283-11.231h-.131C5510.995,1055.969,5510.758,1064.831,5510.5,1073.606Zm-12.33-26.189c-.209,8.719-.447,17.6-.71,26.391-.187,6.314-.539,17.02-.884,27.248h.129c.118-3.462.218-6.384.276-8.1.385-11.333.733-22.86,1.037-34.262.1-3.746.195-7.541.283-11.279l0-.146h-.129Zm45.4,25.737c-.191,6.449-.555,17.479-.908,27.9h.129c.129-3.747.237-6.931.3-8.751.386-11.333.734-22.86,1.037-34.262.094-3.579.186-7.2.272-10.777h-.131C5544.061,1055.823,5543.825,1064.53,5543.568,1073.153Zm5.418.36c-.191,6.374-.546,17.226-.9,27.543h.129c.125-3.59.229-6.63.288-8.391.386-11.333.733-22.86,1.036-34.262.1-3.7.192-7.445.283-11.138h-.132C5549.486,1055.939,5549.247,1064.769,5548.986,1073.513Zm-12.25-.207c-.19,6.416-.551,17.371-.9,27.749h.128c.128-3.68.235-6.8.3-8.6.385-11.334.733-22.861,1.036-34.263.1-3.63.19-7.3.275-10.93h-.13C5537.232,1055.872,5537,1064.631,5536.737,1073.307Zm-6.208.049c-.19,6.407-.548,17.337-.9,27.7h.127c.128-3.661.234-6.763.293-8.549.385-11.339.734-22.867,1.036-34.263.1-3.654.191-7.346.276-10.979h-.129C5531.024,1055.885,5530.787,1064.661,5530.529,1073.355Zm-6.831.153c-.191,6.376-.546,17.229-.9,27.548h.13c.124-3.593.229-6.634.288-8.4.385-11.333.734-22.86,1.036-34.263.1-3.7.193-7.441.281-11.132h-.131C5524.194,1055.937,5523.958,1064.766,5523.7,1073.508Z" transform="translate(-5478.32 -991.502)" fill="#38284f"/>
    <path id="Path_91089" data-name="Path 91089" d="M6663.253,951.94a7.824,7.824,0,0,1-2.284-.757,2.144,2.144,0,0,1-.794-.791,10.439,10.439,0,0,1-.4-1.014,3.23,3.23,0,0,0-1.224-1.3,3.725,3.725,0,0,1-1.4-1.887c-.026-.08-.152-.046-.126.035a3.679,3.679,0,0,0,1.151,1.732c.283.234.6.425.874.664a2.45,2.45,0,0,1,.713,1.117,2.669,2.669,0,0,0,1.091,1.535,7.713,7.713,0,0,0,2.358.8C6663.3,952.085,6663.335,951.959,6663.253,951.94Z" transform="translate(-6537.676 -899.233)" fill="#38284f"/>
    <g id="Group_17200" data-name="Group 17200" transform="translate(16.151 15.48)">
      <g id="Group_17202" data-name="Group 17202" transform="translate(42.101 28.286)">
        <g id="Group_14868" data-name="Group 14868" transform="translate(1.727 0)">
          <g id="Group_14867" data-name="Group 14867">
            <rect id="Rectangle_5282" data-name="Rectangle 5282" width="16.361" height="9.19" rx="1" fill="#c7875c"/>
          </g>
        </g>
        <g id="Group_14891" data-name="Group 14891" transform="translate(0 0)">
          <g id="Group_14890" data-name="Group 14890">
            <path id="Path_90081" data-name="Path 90081" d="M1064.706,577.218v9.19h-13.973a.172.172,0,0,1-.173-.173v-8.844a.173.173,0,0,1,.173-.173Z" transform="translate(-1050.561 -577.218)" fill="#dea57e"/>
          </g>
        </g>
        <g id="Group_14893" data-name="Group 14893" transform="translate(0 3.712)">
          <g id="Group_14892" data-name="Group 14892">
            <rect id="Rectangle_5283" data-name="Rectangle 5283" width="14.145" height="1.425" fill="#c7875c"/>
          </g>
        </g>
        <g id="Group_14895" data-name="Group 14895" transform="translate(6.435 0)">
          <g id="Group_14894" data-name="Group 14894" transform="translate(0)">
            <rect id="Rectangle_5284" data-name="Rectangle 5284" width="1.321" height="9.19" fill="#c7875c"/>
          </g>
        </g>
      </g>
      <g id="Group_17203" data-name="Group 17203" transform="translate(43.987 21.754)">
        <g id="Group_14910" data-name="Group 14910" transform="translate(0 0)">
          <g id="Group_14909" data-name="Group 14909">
            <path id="Path_90088" data-name="Path 90088" d="M1082.35,513.121v6.187a.172.172,0,0,1-.173.173h-12.891a.172.172,0,0,1-.173-.173v-6.187a.171.171,0,0,1,.173-.173h12.891A.171.171,0,0,1,1082.35,513.121Z" transform="translate(-1069.113 -512.949)" fill="#f5b785"/>
          </g>
        </g>
        <g id="Group_14912" data-name="Group 14912" transform="translate(0 0)">
          <g id="Group_14911" data-name="Group 14911">
            <path id="Path_90089" data-name="Path 90089" d="M1077.695,512.949v6.532h-8.409a.172.172,0,0,1-.173-.173v-6.187a.171.171,0,0,1,.173-.173Z" transform="translate(-1069.113 -512.949)" fill="#ffcda4"/>
          </g>
        </g>
        <g id="Group_14915" data-name="Group 14915" transform="translate(4.169 0)">
          <g id="Group_14914" data-name="Group 14914" transform="translate(0)">
            <g id="Group_14913" data-name="Group 14913">
              <rect id="Rectangle_5285" data-name="Rectangle 5285" width="0.102" height="6.532" fill="#f5b785"/>
            </g>
          </g>
        </g>
      </g>
      <path id="Path_91091" data-name="Path 91091" d="M5959.324,810.187h-.018a4.466,4.466,0,0,0-.583-.56,1.333,1.333,0,0,0-.319-.2,1.294,1.294,0,0,0-.468-.07c-.379-.008-.758-.013-1.139-.019a1.835,1.835,0,0,0-2.073,1.468c-.139.333-.265.671-.4,1.007-.065.172-.134.345-.2.518a5.424,5.424,0,0,0-.212.552c-.078.282.078.457.341.53.384.107.791.16,1.183.235-.037.045-.075.091-.108.14-.021.027.026.052.042.026a2.113,2.113,0,0,1,.777-.664c.307-.153.649-.179.963-.313a3.377,3.377,0,0,0,.835-.657l.875-.776a3.646,3.646,0,0,0,.725-.736A.29.29,0,0,0,5959.324,810.187Zm-.966.57a4.711,4.711,0,0,1-.709.322,3.539,3.539,0,0,0-.854.509,3.543,3.543,0,0,1,.651-.8A.8.8,0,0,1,5958.358,810.757Z" transform="translate(-5911.79 -789.824)" fill="#ffa57a"/>
      <path id="Path_91092" data-name="Path 91092" d="M5748.643,600.924a14.846,14.846,0,0,0,.056-4.337,10.055,10.055,0,0,0-.729-3.263c-.333-.559-.338.009-.714-.524a4.244,4.244,0,0,0-.282-.36l.044-.02c.04-.016.022-.079-.017-.063s-.05.022-.074.033c-.091-.1-.186-.194-.286-.283-.031-.028-.078.018-.046.046a3.277,3.277,0,0,1,.267.268,2.573,2.573,0,0,0-1.014,1.131,12.443,12.443,0,0,0-.8,1.974c-.463,1.417-.944,2.837-1.333,4.278a21.943,21.943,0,0,0-.705,4.431c-.045.745-.065,1.494-.043,2.24a8.593,8.593,0,0,0,.278,2.1,2.733,2.733,0,0,0,.939,1.5,4.463,4.463,0,0,0,.864.475c.346.155.7.307,1.042.458.493.214,1.2.643,1.7.245.525-.412.4-1.16.5-1.738a8.558,8.558,0,0,1,.293-1.016,3.243,3.243,0,0,0,.157-1.008,21.68,21.68,0,0,0-.333-2.192A18.22,18.22,0,0,1,5748.643,600.924Z" transform="translate(-5719.237 -591.512)" fill="#bd6655"/>
      <path id="Path_91093" data-name="Path 91093" d="M5681.846,587.336a2.179,2.179,0,0,0-.623-.861,4.583,4.583,0,0,0-2.306-.945,12.488,12.488,0,0,0-2.883-.105,4.007,4.007,0,0,0-2.511.958,5.32,5.32,0,0,0-.54.455,5.02,5.02,0,0,0-.858,1.139,8.126,8.126,0,0,0-.946,2.9,25.419,25.419,0,0,0-.066,3.385,11.707,11.707,0,0,1-.1,1.72c-.082.546-.238,1.075-.354,1.613a2.661,2.661,0,0,0-.083,1.679,3.54,3.54,0,0,0,.172.627,2.545,2.545,0,0,1,.053.849,7.572,7.572,0,0,0-.285,2.118,1.549,1.549,0,0,0,.117.4c.02.045.051.146.1.175a.9.9,0,0,0,.2.056,2.407,2.407,0,0,1,.91.563,6.726,6.726,0,0,1,.708.817,4.831,4.831,0,0,0,.689.8,1.969,1.969,0,0,0,1.044.342l1.232.174a.894.894,0,0,0,.625.348.925.925,0,0,0,.881-.676,9.943,9.943,0,0,0,.5-1.651c.14-.6.251-1.2.371-1.8a35.288,35.288,0,0,1,2.154-7.012c.263-.619.538-1.237.74-1.88a9.7,9.7,0,0,0,.38-1.845.03.03,0,0,0,.058,0c.215-1.025.433-2.049.644-3.075A2.259,2.259,0,0,0,5681.846,587.336Z" transform="translate(-5653.054 -585.387)" fill="#bd6655"/>
      <path id="Path_91094" data-name="Path 91094" d="M5722.848,1704.045a.539.539,0,0,0-.194-.257,1.414,1.414,0,0,0-.218-.106,7.2,7.2,0,0,1-3.373-2.559,16.156,16.156,0,0,1-1.206-2.09c-.361-.715-1.006-2.671-1.027-2.678-.162-.053-1.538-.031-2.034-.03a.021.021,0,0,0-.015.005.023.023,0,0,0-.013.022,5.489,5.489,0,0,1-.269,1.606,5.161,5.161,0,0,0-.228,1.522,17.154,17.154,0,0,0,.683,3.077,7.956,7.956,0,0,1,.174,1.834.029.029,0,0,0,.028.028l.4-.04a.029.029,0,0,0,.027-.028,12.3,12.3,0,0,1,.079-2.035,1.383,1.383,0,0,1,.394-.779.488.488,0,0,1,.536-.083,3.63,3.63,0,0,1,.692,1.2,2.686,2.686,0,0,0,1.081,1.44,4.557,4.557,0,0,0,2.031.4l1.147.056.576.028.273.013a1.136,1.136,0,0,0,.277.007C5722.9,1704.549,5722.913,1704.219,5722.848,1704.045Z" transform="translate(-5693.046 -1599.537)" fill="#2c2c2c"/>
      <path id="Path_91095" data-name="Path 91095" d="M5506.865,1512a.352.352,0,0,0,.062-.379,1.472,1.472,0,0,0-.45-.394,13.8,13.8,0,0,0-1.792-1.13q1.2-1.933,2.334-3.9c.14-.244.282-.489.422-.733.021-.036-.034-.074-.055-.038q-1.338,2.346-2.759,4.643-.593-.309-1.215-.562c-.038-.016-.06.046-.021.061.41.167.81.353,1.2.557q-.327.523-.654,1.043-1.788,2.831-3.708,5.578-1.08,1.547-2.2,3.064a.033.033,0,0,0,.008.046l1.889,1.236a.034.034,0,0,0,.046-.008c.873-1.151.744-1.59,1.619-2.741.438-.578,1.88-1.869,2.319-2.447q.993-1.31,1.988-2.621C5506.223,1512.849,5506.564,1512.436,5506.865,1512Z" transform="translate(-5495.64 -1425.256)" fill="#38284f"/>
      <path id="Path_91096" data-name="Path 91096" d="M5706.007,1544.707a.359.359,0,0,0-.171-.345,1.482,1.482,0,0,0-.6-.061,13.763,13.763,0,0,0-2.115.115q-.138-2.269-.352-4.534c-.025-.281-.053-.561-.081-.842,0-.041-.07-.042-.066,0q.267,2.687.434,5.384c-.441.06-.881.141-1.315.243-.041.01-.024.073.017.063q.644-.151,1.3-.24c.026.41.049.82.071,1.229q.178,3.345.2,6.7.011,1.885-.024,3.772a.034.034,0,0,0,.035.033l2.256-.084a.036.036,0,0,0,.033-.033c.045-1.445-.314-1.727-.267-3.172.024-.725.454-2.613.479-3.338q.051-1.643.106-3.287C5705.973,1545.774,5706.013,1545.238,5706.007,1544.707Z" transform="translate(-5681.59 -1455.93)" fill="#38284f"/>
      <path id="Path_91097" data-name="Path 91097" d="M5600.27,785.888c.024-.171.083-.468-.1-.572a2.981,2.981,0,0,0-.357-.128,3.9,3.9,0,0,1-.5-.241,4.025,4.025,0,0,1-.374-.248,1.562,1.562,0,0,0-.335-.224c-.454-.185-.7.35-.825.685a17.081,17.081,0,0,1-.834,1.823,12.531,12.531,0,0,0-1.3.34,3.373,3.373,0,0,0-1.475,1.426,10.755,10.755,0,0,0-.883,2.367q-.164.561-.38,1.1c-.258.382-.618.784-1.116.685a.922.922,0,0,1-.555-.485c-.14-.217-.27-.439-.4-.663a26.62,26.62,0,0,1-1.336-2.809c-.425-1.011-.824-2.039-1.275-3.042a11.964,11.964,0,0,0-1.568-2.875,4.745,4.745,0,0,0-.475-.564,9.748,9.748,0,0,0-2.1-1.654c-.421-.258-.853-.5-1.287-.736l-.29-.159q-.36-.2-.715-.4c-.189-.106-.375-.214-.561-.326a4.814,4.814,0,0,1-2.3.2,14.973,14.973,0,0,1-3.632-.729l-.254.169c-.335.216-.674.422-1.019.623-.528.31-1.065.611-1.594.923q-.339.2-.671.409a11.543,11.543,0,0,0-2.184,1.711,8.608,8.608,0,0,0-1.653,2.569,29.205,29.205,0,0,0-1.06,3.059c-.355,1.15-.708,2.3-1.033,3.461a40.229,40.229,0,0,0-1.408,6.993c-.055.59-.093,1.184-.108,1.777a2.726,2.726,0,0,0,.2,1.358,1.825,1.825,0,0,0,1.076.777,6.839,6.839,0,0,0,1.66.362c.147.014.293.022.441.026a.033.033,0,0,0,.053,0c.133,0,.267,0,.4,0a.033.033,0,0,0,0-.065c-.125,0-.25.005-.374,0a30.581,30.581,0,0,0,.809-3.075c.226-1.072.379-2.158.607-3.23a48.772,48.772,0,0,1,1.812-6.146q.083-.231.167-.461c.036.148.291,3.821.232,5.507-.019.536-.041,1.073-.059,1.61a3.107,3.107,0,0,0,.273,1.361c.477,1.045,1.544.232,1.9.5.3.231-.267,2.193.1,2.309a.073.073,0,0,0,.074.021,1,1,0,0,0,.194.028l.007.025c.008.041.072.023.063-.018a.019.019,0,0,1,0-.007h.033a1.534,1.534,0,0,0,.291-.046l.41.078c.337.067.671.139,1.009.212.66.145,1.323.3,1.985.437a21.611,21.611,0,0,0,3.889.537,2.956,2.956,0,0,0,1.614-.773c.122-1.824,1.656-6.618,1.88-7.5.172-.667.381-1.328.553-2a23.516,23.516,0,0,0,1.993,3.332c.113.159.225.315.337.47-.012-.008-.015-.008-.006,0a1.43,1.43,0,0,0,.108.133,10.748,10.748,0,0,0,2.336,2.443c.007-.011.015-.022.021-.033l.043.033c2.662,1.7,5.6-2.4,6.438-3.509.96-1.277,1.783-2.662,2.642-4.008a2.419,2.419,0,0,0,.61-1.919,1.722,1.722,0,0,0-.706-.995,13.388,13.388,0,0,1,.552-1.389A3.308,3.308,0,0,0,5600.27,785.888Zm-26.545,15.26a.035.035,0,0,0-.043-.011.225.225,0,0,1,.172-.032l.017.064A.971.971,0,0,1,5573.725,801.148Zm.262.023h-.05c-.006-.019-.009-.038-.014-.057.069.011.138.028.193.042C5574.073,801.163,5574.03,801.168,5573.987,801.171Z" transform="translate(-5556.152 -761.822)" fill="#f0ded5"/>
      <path id="Path_91098" data-name="Path 91098" d="M5722.26,611.1c-.443-.027-.814-.261-1.265-.261a4.167,4.167,0,0,0-1.573.377,4.983,4.983,0,0,0-2.091,1.591,10.4,10.4,0,0,0-1.281,2.541,17.54,17.54,0,0,0-.8,2.79c-.1.482-.167.967-.229,1.454a5.915,5.915,0,0,1-.291,1.332,19.9,19.9,0,0,0,3.819.8c1,.115,2.7.595,3.3.005.3-.291.267-.861.349-1.437.023-.16.131-.539.145-.7,0-.069.009-.138.013-.207.014-.192.022-.384.027-.569,0-.071.006-.141.007-.209.006-.154.009-.3.014-.44C5722.479,615.8,5722.4,613.462,5722.26,611.1Z" transform="translate(-5693.459 -608.625)" fill="#ffa57a"/>
      <path id="Path_91099" data-name="Path 91099" d="M5706.306,694.575a.379.379,0,0,0-.172-.085c-.134-.037-.268-.063-.4-.09-.261-.052-.521-.094-.781-.146a9.733,9.733,0,0,1-1.613-.514,5.77,5.77,0,0,0-1.546-.424c.01-.077.017-.154.027-.231,0-.042-.052-.041-.058,0-.008.075-.018.151-.025.226-.029,0-.03.047-.008.061-.244,2.145-.493,4.289-.733,6.435-.069.615-.129,1.232-.139,1.853a.031.031,0,0,0,.027.033,30.8,30.8,0,0,0,3.262.3l.367.011a1.5,1.5,0,0,0,.4.005.109.109,0,0,0,.084-.072,2.082,2.082,0,0,0,.1-.452c.136-.607.269-1.214.4-1.822.262-1.185.523-2.372.7-3.577.045-.285.082-.572.117-.859.015-.145.038-.292.043-.438A.265.265,0,0,0,5706.306,694.575Z" transform="translate(-5680.797 -683.675)" fill="#ffa57a"/>
      <path id="Path_91100" data-name="Path 91100" d="M5740.308,868.239a17.624,17.624,0,0,1-.074-3.6,7.97,7.97,0,0,0-.344-3.346c-.03-.078-.159-.044-.126.035a8.434,8.434,0,0,1,.325,3.561,16.3,16.3,0,0,0,.093,3.384,13.5,13.5,0,0,1,.109,3.6c-.072.619-.178,1.233-.271,1.849a4.933,4.933,0,0,0-.06,1.582c.014.083.141.048.127-.035a6.078,6.078,0,0,1,.126-1.947c.09-.565.178-1.13.238-1.7A13.606,13.606,0,0,0,5740.308,868.239Z" transform="translate(-5716.312 -837.217)" fill="#c9b3b3"/>
      <path id="Path_91101" data-name="Path 91101" d="M5628.679,1059.067c-.158-1.813-.685-6.9-.8-8.72-.047-.757-.064-1.516-.064-2.275,0-1.043.038-2.086.092-3.127.093-1.841.235-3.68.3-5.522s.038-3.694-.063-5.54c-.2-3.658-.621-7.3-.732-10.967-.113-3.7.017-7.4.176-11.094,0-.043,0-.087.006-.13q.026-.623.053-1.248c0-.018-.015-.031-.032-.032-.436-.023-.872-.05-1.309-.081l-.087-.006-.042,0q-.6-.043-1.206-.1l-.129-.013q-2.693-.244-5.361-.691a.036.036,0,0,0-.024,0c-.024,0-.053.057-.032.061q-.15.587-.335,1.186c-.012.042-.025.083-.04.125-.355,1.135-.794,2.3-1.241,3.462-.02.045-.035.089-.054.134a41.385,41.385,0,0,0-2.043,6.224,42.682,42.682,0,0,0-.917,9.821c.026,3.7,1.447,8.012,1.8,11.69.008.082.019.17.028.265.289,2.583,1.533,9.8,2.442,15.456.536,3.334.958,6.125,1,7.1.053,1.326.106,2.322.146,2.566a12.566,12.566,0,0,0,.338,1.515,1.374,1.374,0,0,0,.426.8,2.044,2.044,0,0,0,1.164.118c.527-.011,4.607-.145,5.817-.169a.033.033,0,0,0,.03-.024c.279-1.771.559-3.544.712-5.332a.457.457,0,0,0,0-.057A31.254,31.254,0,0,0,5628.679,1059.067Z" transform="translate(-5602.238 -972.568)" fill="#e3a780"/>
      <path id="Path_91102" data-name="Path 91102" d="M5533.106,1043.628q-.256-2.494-.586-4.979-.647-4.907-1.562-9.775c-.282-1.5-.612-3.906-.888-6.08-.006-.047-.013-.095-.019-.141-.163-1.3-.308-2.5-.41-3.367,0-.044-.009-.087-.015-.129-.084-.733-.135-1.187-.135-1.187s-1.793.028-3.367-.022l-.088,0h-.042c-.441-.016-.855-.037-1.209-.068l-.05,0c.007.02.021.082.035.151s.029.158.041.208c-.02-.01-.043-.007-.047.018-.01.08-.022.16-.036.24h-.006l-.137.022-.225.037c-.04.006-.024.069.019.063l.2-.032.133-.022h.006c-.006.045-.012.09-.02.135-.027.194-.058.39-.086.584-.008.043-.014.086-.02.13q-.179,1.22-.362,2.439-.985,6.7-1.976,13.4c-.2,1.376-.4,2.753-.609,4.128a32.776,32.776,0,0,1-.724,3.651,13.219,13.219,0,0,1-1.414,3.426,17.535,17.535,0,0,1-2.322,2.874c-.249.261-.5.521-.743.784a.028.028,0,0,1-.009.009l-.112.122a20.477,20.477,0,0,0-1.429,1.67,14.083,14.083,0,0,0-1.746,3.235c-.478,1.185-.882,2.4-1.413,3.566a25.08,25.08,0,0,1-1.855,3.242c-.465.715-2.853,4.129-3.3,4.856-.2.333-.4.67-.594,1.012a16.418,16.418,0,0,0-.768,1.575,1.326,1.326,0,0,0-.155.748,1.018,1.018,0,0,0,.385.545,9.93,9.93,0,0,0,2.149,1.564q.844.456,1.722.849a12.065,12.065,0,0,0,1.681.674.955.955,0,0,0,1.1-.456c.439-.567.872-1.141,1.305-1.71.074-.1,2.4-2.644,5.159-5.686q.057-.062.113-.126c.072-.077.141-.155.213-.233,3.423-3.776,7.391-8.185,8.545-9.621.068-.083.134-.165.2-.247.033-.041.067-.082.1-.123s.074-.094.112-.141l2.8-3.485a12.206,12.206,0,0,0,2.361-3.638A11.155,11.155,0,0,0,5533.106,1043.628Zm-8.378-25.757h.007C5524.733,1017.863,5524.73,1017.862,5524.728,1017.871Z" transform="translate(-5502.05 -980.187)" fill="#e3a780"/>
      <path id="Path_91103" data-name="Path 91103" d="M5477.136,1649.218a.545.545,0,0,0-.012-.321,1.474,1.474,0,0,0-.114-.212,7.2,7.2,0,0,1-1.273-4.04,16.242,16.242,0,0,1,.226-2.4c.118-.793.724-2.761.71-2.779-.1-.137-1.236-.915-1.643-1.2a.024.024,0,0,0-.014,0,.021.021,0,0,0-.022.011,5.586,5.586,0,0,1-1.149,1.154,5.111,5.111,0,0,0-1.065,1.111,17.1,17.1,0,0,0-1.223,2.906,8.011,8.011,0,0,1-.919,1.6.027.027,0,0,0,.006.038l.349.2a.032.032,0,0,0,.041-.006,12.157,12.157,0,0,1,1.241-1.615,1.37,1.37,0,0,1,.771-.407.489.489,0,0,1,.485.243,3.656,3.656,0,0,1-.126,1.376,2.66,2.66,0,0,0,.049,1.8,4.546,4.546,0,0,0,1.425,1.5l.906.71.451.355.217.169a1.269,1.269,0,0,0,.221.166C5476.888,1649.66,5477.087,1649.4,5477.136,1649.218Z" transform="translate(-5470.631 -1546.534)" fill="#2c2c2c"/>
      <path id="Path_91104" data-name="Path 91104" d="M5700.111,764.18a6.034,6.034,0,0,1-.6-.437,3.139,3.139,0,0,1-.485-.551,1.2,1.2,0,0,0-.9-.546,4.053,4.053,0,0,0-1.315.221,2.294,2.294,0,0,1-.795.074.02.02,0,0,0-.017,0,1.32,1.32,0,0,1,.114-.158c.027-.032-.02-.079-.046-.046a1.712,1.712,0,0,0-.328.6c-.167.135-.339.265-.512.391a3.75,3.75,0,0,0-.01.554,1.761,1.761,0,0,0,.857,1.3,10.348,10.348,0,0,1,1.517,1.06,4.622,4.622,0,0,1,1.073,1.84,12.792,12.792,0,0,1,.477,2.709c0,.041.067.043.065,0-.04-.566-.075-1.133-.113-1.7-.033-.524-.089-1.05-.1-1.575a1.669,1.669,0,0,1,.5-1.361,3.691,3.691,0,0,0,.84-.977,4.111,4.111,0,0,0,.376-1.028C5700.51,764.436,5700.309,764.31,5700.111,764.18Z" transform="translate(-5675.648 -747.196)" fill="#ffa57a"/>
      <path id="Path_91105" data-name="Path 91105" d="M5682.784,605.054a4.033,4.033,0,0,0-1.66-.117,6.641,6.641,0,0,0-1.869.606,11.139,11.139,0,0,0-5.208,5.512,17.675,17.675,0,0,0-1.3,4.3c-.129.727-.223,1.46-.292,2.2-.069.762-.084,1.531-.176,2.291a3.516,3.516,0,0,1-.336,1.1c-.015-.036-.047-.011-.032.025.347.79,1.274.882,2,1.087a13.14,13.14,0,0,1,3.356,1.268c.021.015.044-.006.045-.026.031-.41.047-.82.045-1.231s-.03-.814-.023-1.222a7.694,7.694,0,0,1,.57-2.313,6.206,6.206,0,0,0,.188-4.354,20.035,20.035,0,0,1-.957-2,1.419,1.419,0,0,1,.2-1.472c.433-.543.879-.256,1.448-.559s.815-1.4,1.257-1.84a8.663,8.663,0,0,1,1.691-1.056,2.429,2.429,0,0,0,1.118-1.458C5682.9,605.571,5682.992,605.222,5682.784,605.054Z" transform="translate(-5654.368 -603.206)" fill="#bd6655"/>
      <path id="Path_91106" data-name="Path 91106" d="M5730.622,666.472a.633.633,0,0,0-.067-.146.875.875,0,0,1-.107-.143.952.952,0,0,0-.815-.3c-.491.087-.589.669-.538,1.078a2.132,2.132,0,0,0,.651,1.3.506.506,0,0,0,.513.123c.18-.089.244-.377.288-.552a2.968,2.968,0,0,0,.069-.893c-.01-.167-.044-.336-.069-.505a.448.448,0,0,1,.018.05A.03.03,0,0,0,5730.622,666.472Z" transform="translate(-5706.566 -658.861)" fill="#ffa57a"/>
      <path id="Path_91107" data-name="Path 91107" d="M5544.13,1167.256a.531.531,0,0,0-.428-.167,1.937,1.937,0,0,0-.238.009c-.046,0-.089.009-.134.014-.152.019-.3.045-.452.064-.3.037-.6.075-.895.115q-1.791.239-3.575.541t-3.573.671l-.441.092a1.056,1.056,0,0,0-.338.1c-.175.1-.152.3-.144.472.013.219.024.438.038.656q-.1,1.45-.11,2.9c0,.3,0,.6,0,.906a.894.894,0,0,0,.119.552c.235.312.719.253,1.054.213,2.4-.291,4.817-.564,7.207-.972.188-.032.375-.067.563-.111.044-.01.088-.02.132-.032s.092-.024.135-.037a2.281,2.281,0,0,0,.668-.278.618.618,0,0,0,.214-.5c.029-.3.057-.6.083-.9q.15-1.834.2-3.676A1,1,0,0,0,5544.13,1167.256Z" transform="translate(-5528.329 -1116.412)" fill="#7f3e3e"/>
      <path id="Path_91108" data-name="Path 91108" d="M5570,1166.789a2.369,2.369,0,0,0,.361-1.324,13.673,13.673,0,0,0-.28-2.743c-.115-.355-.441-1.526-.474-1.732-.024-.149-.205-.134-.325-.148a4.829,4.829,0,0,0-1.279.028c-.032,0-.021.054.013.05l.021,0q-.066.154-.126.312a.026.026,0,0,0-.047,0q-.331.958-.64,1.922c-.074.232-.147.465-.218.7,0,0,0,0,0,.006a.092.092,0,0,1,0,.015c-.023.081-.049.162-.072.243a9.71,9.71,0,0,0-.314,1.615,5.929,5.929,0,0,0,.174,1.79c.062.285.8,1.009,1,.977a.251.251,0,0,0,.192-.117.447.447,0,0,0,.533.1.359.359,0,0,1,.682-.093.348.348,0,0,0,.232-.271.685.685,0,0,0,.573.147c.122-.034.3-.147.251-.3a1.309,1.309,0,0,0-.194-.257,2.864,2.864,0,0,1-.218-.354,3.407,3.407,0,0,1-.152-.324C5569.8,1167.044,5569.941,1166.859,5570,1166.789Zm-.5-.252a4.686,4.686,0,0,1-.221-1.045,8.014,8.014,0,0,1,.128-1.219c.053.175.063.518.1.7a10.044,10.044,0,0,1,.055,1.532c0,.043-.012.108-.016.178C5569.53,1166.631,5569.514,1166.584,5569.5,1166.537Z" transform="translate(-5558.236 -1110.682)" fill="#ffa57a"/>
      <path id="Path_91109" data-name="Path 91109" d="M5555.949,882.845c.008-.226.012-.453,0-.679a.409.409,0,0,0-.161-.375.567.567,0,0,0-.1-.048,17.879,17.879,0,0,1-2.551.026c-.685,2.979-1.814,5.838-2.744,8.746a34.872,34.872,0,0,0-1.287,5.108,22.4,22.4,0,0,0-.191,5.571,19.5,19.5,0,0,0,.4,2.655,1.1,1.1,0,0,0,.473.784,1.264,1.264,0,0,0,.8.042c.025.153.049.307.077.459a7.406,7.406,0,0,0,.446,1.648c.093.219.18.265.411.228.309-.051.616-.1.924-.155l.479-.08a1.792,1.792,0,0,0,.4-.086.4.4,0,0,0,.233-.4,5.911,5.911,0,0,0-.072-.919q-.059-.476-.09-.954c0-.069-.007-.138-.013-.207.046-.015.091-.032.135-.051.679-.3.749-1.144.827-1.788.462-3.767.506-7.018.923-10.787.205-1.85,1.556-6.418,1.878-8.249C5557.309,882.443,5555.918,883.752,5555.949,882.845Z" transform="translate(-5542.015 -855.925)" fill="#f0ded5"/>
      <g id="Group_17197" data-name="Group 17197" transform="translate(4.992 38.197)">
        <path id="Path_91110" data-name="Path 91110" d="M5661.29,1028.1a2.722,2.722,0,0,1-.834-.422,2.627,2.627,0,0,1-.887-1.225,4.149,4.149,0,0,1-.332-1.589q.823-.044,1.644-.132c-.006-.044-.011-.087-.016-.129q-1.1.119-2.214.156c-.425.014-.849.02-1.274.016-.054,0-1.656-.06-1.67-.061q-1.373-.088-2.738-.3a.068.068,0,0,0-.081-.013q-1.381-.22-2.74-.568c-.013.042-.026.083-.04.125q1.358.349,2.741.569a3.5,3.5,0,0,1-1.921,2.212,5.243,5.243,0,0,1-2.062.682c-.017.045-.035.089-.053.134a5.336,5.336,0,0,0,2.181-.7,3.618,3.618,0,0,0,1.984-2.3q1.346.208,2.7.3l1.592.061q.684.008,1.371-.014.231-.008.461-.02a4.283,4.283,0,0,0,.376,1.727,2.727,2.727,0,0,0,.9,1.186,2.8,2.8,0,0,0,.931.458C5661.3,1028.2,5661.294,1028.151,5661.29,1028.1Z" transform="translate(-5638.28 -1023.837)" fill="#584978"/>
        <path id="Path_91111" data-name="Path 91111" d="M5739.407,1230.5c-.116-1.994-.105-3.993-.095-5.989a.065.065,0,0,0-.13,0,57.647,57.647,0,0,0,.652,10.685c.544,2.987,1.117,5.965,1.627,8.957.036-.047.076-.093.113-.141q-.231-1.394-.475-2.785A92.549,92.549,0,0,1,5739.407,1230.5Z" transform="translate(-5720.773 -1206.974)" fill="#584978"/>
        <path id="Path_91112" data-name="Path 91112" d="M5635.23,1392.739q-.341-2.352-.683-4.7c-.037.04-.077.081-.113.122q.615,4.233,1.228,8.468c.347,2.4.718,4.806,1.011,7.217l.115-.126c-.081-.662-.169-1.323-.261-1.984C5636.113,1398.732,5635.665,1395.736,5635.23,1392.739Z" transform="translate(-5625.157 -1356.307)" fill="#584978"/>
        <path id="Path_91113" data-name="Path 91113" d="M5724.242,1700.734a13.376,13.376,0,0,1-1.484.152c-.086,0-.086.135,0,.131a13.61,13.61,0,0,0,1.519-.157C5724.359,1700.847,5724.325,1700.72,5724.242,1700.734Z" transform="translate(-5705.726 -1641.762)" fill="#584978"/>
        <path id="Path_91114" data-name="Path 91114" d="M5529.759,1636.673a4.388,4.388,0,0,1-1.729-.655c-.072-.046-.136.068-.065.113a4.457,4.457,0,0,0,1.761.668C5529.81,1636.812,5529.844,1636.686,5529.759,1636.673Z" transform="translate(-5527.934 -1582.676)" fill="#584978"/>
        <path id="Path_91115" data-name="Path 91115" d="M5713.908,1456.815a26.156,26.156,0,0,1,3.887,9.48c.016.083.141.048.125-.035a26.246,26.246,0,0,0-3.9-9.511C5713.975,1456.679,5713.861,1456.745,5713.908,1456.815Z" transform="translate(-5697.697 -1419.007)" fill="#584978"/>
        <path id="Path_91116" data-name="Path 91116" d="M5565.058,1519.927l-3.4,3.406c-.059.06.033.153.092.093q1.7-1.7,3.4-3.406C5565.211,1519.961,5565.119,1519.868,5565.058,1519.927Z" transform="translate(-5558.701 -1476.691)" fill="#584978"/>
      </g>
      <path id="Path_91117" data-name="Path 91117" d="M5795.366,619.747c-.161-.358-.4-.894-.57-1.247a2.424,2.424,0,0,1-.212-.587,1.749,1.749,0,0,1,.032-.7,6.606,6.606,0,0,0-.085-1.82q-.105-.764-.272-1.519a.012.012,0,0,0,0-.009.039.039,0,0,0,0-.013c-.007-.036-.068-.022-.063.014a2.069,2.069,0,0,0-.553,1.582c-.009.1.012.523,0,.619-.026.233-.043.467-.055.7a12.124,12.124,0,0,0,.011,1.4c.03.451.1,1.1.181,1.55.043.231.089.461.145.69a2.454,2.454,0,0,0,.082.318.129.129,0,0,0,.073.087c.066.025.16-.02.222-.036l.385-.1a2.2,2.2,0,0,0,.5-.177.559.559,0,0,0,.274-.283A.66.66,0,0,0,5795.366,619.747Z" transform="translate(-5765.438 -611.358)" fill="#ffa57a"/>
      <path id="Path_91118" data-name="Path 91118" d="M5789.574,656.688c0,.33-.146.6-.33.6s-.326-.268-.326-.6.147-.6.326-.6S5789.574,656.359,5789.574,656.688Z" transform="translate(-5761.189 -649.931)" fill="#38284f"/>
      <path id="Path_91119" data-name="Path 91119" d="M5777.892,642.272a2.765,2.765,0,0,0-1.454-.035.83.83,0,0,0-.5.368.243.243,0,0,0,.161.336,1.32,1.32,0,0,0,.372.05c.142.01.284.019.426.024a3.316,3.316,0,0,0,.869-.055.427.427,0,0,0,.352-.315C5778.156,642.49,5778.063,642.357,5777.892,642.272Z" transform="translate(-5749.315 -637.209)" fill="#bd6655"/>
      <g id="Group_17199" data-name="Group 17199" transform="translate(8.61 21.097)">
        <g id="Group_17198" data-name="Group 17198" transform="translate(5.464)">
          <path id="Path_91120" data-name="Path 91120" d="M5632.563,827.986a5.464,5.464,0,0,1,1.111,5.073.033.033,0,0,0,.063.017,5.528,5.528,0,0,0-1.128-5.137C5632.581,827.908,5632.536,827.955,5632.563,827.986Z" transform="translate(-5632.521 -827.897)" fill="#c9b3b3"/>
          <path id="Path_91121" data-name="Path 91121" d="M5633.362,832.79a.069.069,0,0,1-.049-.021.061.061,0,0,1-.014-.062,5.4,5.4,0,0,0-1.1-5.042.067.067,0,0,1,.037-.11.061.061,0,0,1,.059.021,5.534,5.534,0,0,1,1.134,5.168.062.062,0,0,1-.046.045Z" transform="translate(-5632.179 -827.554)" fill="#c9b3b3"/>
        </g>
        <path id="Path_91122" data-name="Path 91122" d="M5800.336,853.192a14.134,14.134,0,0,1-.918-3.911c-.007-.083-.137-.084-.131,0a14.251,14.251,0,0,0,.751,3.486,8.37,8.37,0,0,1,.6,1.794,2.46,2.46,0,0,1-.449,1.692c-.049.069.064.135.114.066a2.6,2.6,0,0,0,.48-1.436A4.388,4.388,0,0,0,5800.336,853.192Z" transform="translate(-5779.264 -847.33)" fill="#c9b3b3"/>
        <path id="Path_91123" data-name="Path 91123" d="M5868.274,946.113a3.911,3.911,0,0,0-.435,2.841c.018.082.145.048.126-.035a3.775,3.775,0,0,1,.422-2.74C5868.43,946.105,5868.314,946.04,5868.274,946.113Z" transform="translate(-5841.756 -935.755)" fill="#c9b3b3"/>
        <path id="Path_91124" data-name="Path 91124" d="M5940.152,876.9a1.805,1.805,0,0,1-2.233-.79c-.038-.075-.151-.009-.112.066a1.931,1.931,0,0,0,2.38.849C5940.265,877,5940.23,876.873,5940.152,876.9Z" transform="translate(-5905.71 -871.853)" fill="#c9b3b3"/>
        <path id="Path_91125" data-name="Path 91125" d="M5601.136,957.318a16.325,16.325,0,0,1-1.447-7.492c0-.084-.128-.084-.13,0a16.467,16.467,0,0,0,1.463,7.558C5601.057,957.46,5601.171,957.394,5601.136,957.318Z" transform="translate(-5596.922 -939.116)" fill="#c9b3b3"/>
        <path id="Path_91126" data-name="Path 91126" d="M5571.938,1132.171a2.208,2.208,0,0,0-2.468.774c-.051.067.063.132.112.066a2.077,2.077,0,0,1,2.318-.714C5571.984,1132.323,5572.018,1132.2,5571.938,1132.171Z" transform="translate(-5569.458 -1105.531)" fill="#c9b3b3"/>
        <path id="Path_91127" data-name="Path 91127" d="M5589.794,1149.512a.3.3,0,0,0,0,.589A.295.295,0,0,0,5589.794,1149.512Z" transform="translate(-5587.764 -1121.463)" fill="#c9b3b3"/>
        <path id="Path_91128" data-name="Path 91128" d="M5957.339,865.947a.3.3,0,0,0,0,.589A.295.295,0,0,0,5957.339,865.947Z" transform="translate(-5923.289 -862.602)" fill="#c9b3b3"/>
      </g>
      <path id="Path_91129" data-name="Path 91129" d="M5740.391,616.1a3,3,0,0,0-1.191,1.586,7.674,7.674,0,0,1-1.346,2.015c-.057.062.034.154.091.092a7.576,7.576,0,0,0,1.215-1.724c.344-.677.575-1.481,1.3-1.856C5740.532,616.17,5740.465,616.057,5740.391,616.1Z" transform="translate(-5714.557 -613.413)" fill="#914233"/>
      <path id="Path_91130" data-name="Path 91130" d="M5790.617,760.316c-.008-.083-.14-.084-.132,0a5.1,5.1,0,0,1-.384,2.514c-.032.077.094.111.127.035A5.219,5.219,0,0,0,5790.617,760.316Z" transform="translate(-5762.265 -745.019)" fill="#914233"/>
      <path id="Path_91131" data-name="Path 91131" d="M5715.093,724.224a.066.066,0,0,0-.131,0c0,2.137-2.039,4.1-1.135,6.267.033.077.159.043.126-.035C5713.06,728.318,5715.089,726.345,5715.093,724.224Z" transform="translate(-5692.427 -712.071)" fill="#914233"/>
      <path id="Path_91132" data-name="Path 91132" d="M5700.837,770.411a3.481,3.481,0,0,1-.366-1.823c0-.084-.127-.084-.132,0a3.632,3.632,0,0,0,.385,1.889C5700.762,770.552,5700.875,770.486,5700.837,770.411Z" transform="translate(-5680.32 -752.57)" fill="#914233"/>
      <path id="Path_91133" data-name="Path 91133" d="M5796.542,691.038c0-.037-.047-.041-.062-.014a.025.025,0,0,0-.027,0,1.292,1.292,0,0,0-.463.553.363.363,0,0,0,.2.5c.221.067.4-.125.506-.294C5796.892,691.487,5796.519,691.324,5796.542,691.038Z" transform="translate(-5767.616 -681.805)" fill="#ffa57a"/>
      <path id="Path_91134" data-name="Path 91134" d="M5799.262,709.118c-.021-.036-.079,0-.056.033a.357.357,0,0,0,.022.034,1.029,1.029,0,0,0-.1.847.034.034,0,0,0,.055.015c.117-.118.311-.18.308-.373A1.189,1.189,0,0,0,5799.262,709.118Z" transform="translate(-5770.469 -698.325)" fill="#ffa57a"/>
      <path id="Path_91135" data-name="Path 91135" d="M5788.527,702.418a2.692,2.692,0,0,1-.9.146.62.62,0,0,0-.117,0c-.023.032.028.066.043.082a.849.849,0,0,0,.2.137,2.69,2.69,0,0,0,.837.275,1.2,1.2,0,0,0,.184.036c.006-.069.011-.138.015-.207.012-.192.02-.383.025-.569C5788.717,702.342,5788.623,702.384,5788.527,702.418Z" transform="translate(-5759.896 -692.128)" fill="#fff"/>
      <path id="Path_91136" data-name="Path 91136" d="M5589.186,1220.39a4.05,4.05,0,0,1-.738-1.69c-.014-.083-.141-.048-.125.035a4.086,4.086,0,0,0,.751,1.722C5589.123,1220.523,5589.236,1220.458,5589.186,1220.39Z" transform="translate(-5578.068 -1163.483)" fill="#dd6b4b"/>
      <path id="Path_91137" data-name="Path 91137" d="M5582.115,1223.036a4.76,4.76,0,0,1-.731-1.933c-.012-.083-.137-.047-.126.035a4.85,4.85,0,0,0,.743,1.964C5582.047,1223.173,5582.159,1223.107,5582.115,1223.036Z" transform="translate(-5571.62 -1165.677)" fill="#dd6b4b"/>
      <path id="Path_91138" data-name="Path 91138" d="M5574.129,1224.639a3.485,3.485,0,0,1-.513-1.517.066.066,0,0,0-.131,0,3.6,3.6,0,0,0,.531,1.583C5574.056,1224.78,5574.17,1224.714,5574.129,1224.639Z" transform="translate(-5564.525 -1167.506)" fill="#dd6b4b"/>
      <path id="Path_91139" data-name="Path 91139" d="M6006.592,818.413a2.553,2.553,0,0,0-.588.508c-.055.064.038.157.092.093a2.459,2.459,0,0,1,.562-.487C6006.731,818.481,6006.664,818.368,6006.592,818.413Z" transform="translate(-5959.348 -798.103)" fill="#dd6b4b"/>
      <path id="Path_91140" data-name="Path 91140" d="M5986.881,810.855a1.477,1.477,0,0,0-1.078.579c-.059.062.034.155.092.093a1.354,1.354,0,0,1,.986-.541A.065.065,0,0,0,5986.881,810.855Z" transform="translate(-5940.905 -791.212)" fill="#dd6b4b"/>
      <path id="Path_91141" data-name="Path 91141" d="M5977.876,810.154a1,1,0,0,0-.692.354c-.054.064.038.157.091.092a.873.873,0,0,1,.6-.315C5977.96,810.278,5977.961,810.147,5977.876,810.154Z" transform="translate(-5933.037 -790.573)" fill="#dd6b4b"/>
      <path id="Path_91142" data-name="Path 91142" d="M5735.1,671.934c-.477.023-.289-.462-.269-.671a1.007,1.007,0,0,0-.037-.409.559.559,0,0,0-.369-.379.066.066,0,0,0-.036.126c.684.214-.171,1.507.711,1.464C5735.187,672.061,5735.187,671.93,5735.1,671.934Z" transform="translate(-5711.371 -663.059)" fill="#dd6b4b"/>
      <path id="Path_91143" data-name="Path 91143" d="M5634.726,1172.284a2.817,2.817,0,0,0,.061.9,1.188,1.188,0,0,0,.082.2c-.044.012-.089.022-.133.032-.016-.035-.031-.07-.043-.106a4.617,4.617,0,0,1-.031-1.965c.14-1.387.438-2.751.625-4.131.043-.006.088-.01.134-.014-.143,1.059-.352,2.109-.505,3.166A17.4,17.4,0,0,0,5634.726,1172.284Z" transform="translate(-5620.285 -1116.513)" fill="#38284f"/>
    </g>
  </g>
</svg>
