<svg xmlns="http://www.w3.org/2000/svg" xmlns:xlink="http://www.w3.org/1999/xlink" width="225.292" height="152.413" viewBox="0 0 225.292 152.413">
  <defs>
    <clipPath id="clip-path">
      <path id="Path_91205" data-name="Path 91205" d="M3764.19-939.98c-15.166-12.459-35.36-16.615-54.4-18.621-23.5-2.477-53.487,1.63-76.016,9.466-29.05,10.105-50.5,24.041-60.682,41.392a108.821,108.821,0,0,0-11.608,28.085c-2.3,9-3.42,18.654-1.2,27.784a27.448,27.448,0,0,0,16.909,19.622c9.559,3.7,20.183,3.09,30.237,3.191a276.144,276.144,0,0,1,40.221,3.356c12.771,2.014,25.24,5.349,37.91,7.863,11.713,2.325,23.852,3.817,35.7,1.6,10.941-2.043,20.775-7.474,29.3-14.5,16.547-13.624,29.9-32.992,33.089-54.5C3786.656-905.458,3780.254-926.782,3764.19-939.98Z" transform="translate(-3483.083 1792.548)" fill="#f1f2ff"/>
    </clipPath>
  </defs>
  <g id="Group_17268" data-name="Group 17268" transform="translate(-76 -824.983)">
    <path id="Path_91204" data-name="Path 91204" d="M3764.19-939.98c-15.166-12.459-35.36-16.615-54.4-18.621-23.5-2.477-53.487,1.63-76.016,9.466-29.05,10.105-50.5,24.041-60.682,41.392a108.821,108.821,0,0,0-11.608,28.085c-2.3,9-3.42,18.654-1.2,27.784a27.448,27.448,0,0,0,16.909,19.622c9.559,3.7,20.183,3.09,30.237,3.191a276.144,276.144,0,0,1,40.221,3.356c12.771,2.014,25.24,5.349,37.91,7.863,11.713,2.325,23.852,3.817,35.7,1.6,10.941-2.043,20.775-7.474,29.3-14.5,16.547-13.624,29.9-32.992,33.089-54.5C3786.656-905.458,3780.254-926.782,3764.19-939.98Z" transform="translate(-3483.083 1792.548)" fill="#f1f2ff"/>
    <g id="receipt" transform="translate(78.662 824.983)">
      <g id="Group_17220" data-name="Group 17220">
        <g id="Group_17219" data-name="Group 17219">
          <circle id="Ellipse_1638" data-name="Ellipse 1638" cx="46.5" cy="46.5" r="46.5" transform="translate(0.338)" fill="#f0fae5"/>
        </g>
      </g>
      <g id="Group_17233" data-name="Group 17233" transform="translate(20.414 14.195)">
        <g id="Group_17221" data-name="Group 17221" transform="translate(0 40.178)">
          <path id="Path_91170" data-name="Path 91170" d="M122.381,325.744H86.608a4.846,4.846,0,1,1,0-9.692h35.773a4.846,4.846,0,1,1,0,9.692Z" transform="translate(-81.762 -316.052)" fill="#c2dfe1"/>
        </g>
        <g id="Group_17222" data-name="Group 17222" transform="translate(28.828 0)">
          <path id="Path_91171" data-name="Path 91171" d="M288.872,69.066l2.494-2.494,2.494,2.494,2.494-2.494.137.137V54.722a5.961,5.961,0,0,0-5.961-5.961H273.545V69.479h9.925l2.908-2.908Z" transform="translate(-273.545 -48.761)" fill="#e5fdff"/>
        </g>
        <g id="Group_17223" data-name="Group 17223" transform="translate(28.828)">
          <path id="Path_91172" data-name="Path 91172" d="M283.47,69.479l2.908-2.908,1.538,1.538V54.722A5.962,5.962,0,0,1,292.2,49a5.961,5.961,0,0,0-1.674-.24H273.545V69.479h9.925Z" transform="translate(-273.545 -48.761)" fill="#c2dfe1"/>
        </g>
        <g id="Group_17224" data-name="Group 17224" transform="translate(4.341 43.574)">
          <path id="Path_91173" data-name="Path 91173" d="M145.8,341.779H112.21a1.57,1.57,0,1,1,0-3.14H145.8a1.57,1.57,0,1,1,0,3.14Z" transform="translate(-110.64 -338.639)" fill="#396e75"/>
        </g>
        <g id="Group_17225" data-name="Group 17225" transform="translate(5.911 0)">
          <path id="Path_91174" data-name="Path 91174" d="M160.639,48.761H127.046a5.961,5.961,0,0,0-5.961,5.961V93.9h33.593V54.722a5.961,5.961,0,0,1,5.961-5.961Z" transform="translate(-121.085 -48.761)" fill="#fff"/>
        </g>
        <g id="Group_17227" data-name="Group 17227" transform="translate(10.714 10.253)">
          <path id="Path_91176" data-name="Path 91176" d="M153.039,116.971h13.683v3.147H153.039Z" transform="translate(-153.039 -116.971)" fill="#c2dfe1"/>
        </g>
        <g id="Group_17228" data-name="Group 17228" transform="translate(29.999 10.253)">
          <path id="Path_91177" data-name="Path 91177" d="M281.331,116.971h4.806v3.147h-4.806Z" transform="translate(-281.331 -116.971)" fill="#396e75"/>
        </g>
        <g id="Group_17229" data-name="Group 17229" transform="translate(10.714 18.843)">
          <path id="Path_91178" data-name="Path 91178" d="M153.039,174.113h13.683v3.147H153.039Z" transform="translate(-153.039 -174.113)" fill="#c2dfe1"/>
        </g>
        <g id="Group_17230" data-name="Group 17230" transform="translate(29.999 18.843)">
          <path id="Path_91179" data-name="Path 91179" d="M281.331,174.113h4.806v3.147h-4.806Z" transform="translate(-281.331 -174.113)" fill="#396e75"/>
        </g>
        <g id="Group_17231" data-name="Group 17231" transform="translate(10.714 27.694)">
          <path id="Path_91180" data-name="Path 91180" d="M153.039,233h13.683v3.147H153.039Z" transform="translate(-153.039 -232.999)" fill="#c2dfe1"/>
        </g>
        <g id="Group_17232" data-name="Group 17232" transform="translate(29.999 27.694)">
          <path id="Path_91181" data-name="Path 91181" d="M281.331,233h4.806v3.147h-4.806Z" transform="translate(-281.331 -232.999)" fill="#396e75"/>
        </g>
      </g>
      <g id="Group_17247" data-name="Group 17247" transform="translate(31.634 56.168)">
        <g id="Group_17234" data-name="Group 17234" transform="translate(0)">
          <path id="Path_91182" data-name="Path 91182" d="M173.526,308.107h48.945v23.674H173.526Z" transform="translate(-173.526 -308.107)" fill="#5d913f"/>
        </g>
        <g id="Group_17235" data-name="Group 17235" transform="translate(0)">
          <path id="Path_91183" data-name="Path 91183" d="M219.613,310.964v17.959h-43.23V310.964Zm2.857-2.857H173.526v23.674h48.945Z" transform="translate(-173.526 -308.107)" fill="#3d772a"/>
        </g>
        <g id="Group_17236" data-name="Group 17236">
          <path id="Path_91184" data-name="Path 91184" d="M173.525,314.834a4.818,4.818,0,0,0,6.7-6.727h-6.7v6.727Z" transform="translate(-173.525 -308.107)" fill="#3d772a"/>
        </g>
        <g id="Group_17237" data-name="Group 17237" transform="translate(0 16.152)">
          <path id="Path_91185" data-name="Path 91185" d="M176.283,396.706a4.8,4.8,0,0,0-2.757.868v6.655h6.748a4.82,4.82,0,0,0-3.99-7.522Z" transform="translate(-173.526 -396.706)" fill="#3d772a"/>
        </g>
        <g id="Group_17238" data-name="Group 17238" transform="translate(40.847 0)">
          <path id="Path_91186" data-name="Path 91186" d="M397.588,310.883a4.818,4.818,0,0,0,8.1,3.531v-6.307h-7.217A4.8,4.8,0,0,0,397.588,310.883Z" transform="translate(-397.588 -308.107)" fill="#3d772a"/>
        </g>
        <g id="Group_17239" data-name="Group 17239" transform="translate(40.847 16.152)">
          <path id="Path_91187" data-name="Path 91187" d="M405.686,397.993a4.819,4.819,0,0,0-7.269,6.234h7.269Z" transform="translate(-397.588 -396.705)" fill="#3d772a"/>
        </g>
        <g id="Group_17240" data-name="Group 17240" transform="translate(16.427 3.792)">
          <circle id="Ellipse_1639" data-name="Ellipse 1639" cx="8.045" cy="8.045" r="8.045" fill="#3d772a"/>
        </g>
        <g id="Group_17242" data-name="Group 17242" transform="translate(4.903 10.313)">
          <g id="Group_17241" data-name="Group 17241">
            <path id="Path_91188" data-name="Path 91188" d="M200.42,364.679h9.244v3.048H200.42Z" transform="translate(-200.42 -364.679)" fill="#6eaa50"/>
          </g>
        </g>
        <g id="Group_17244" data-name="Group 17244" transform="translate(34.809 10.313)">
          <g id="Group_17243" data-name="Group 17243">
            <path id="Path_91189" data-name="Path 91189" d="M364.469,364.679h9.244v3.048h-9.244Z" transform="translate(-364.469 -364.679)" fill="#6eaa50"/>
          </g>
        </g>
        <g id="Group_17246" data-name="Group 17246" transform="translate(21.659 6.534)">
          <g id="Group_17245" data-name="Group 17245">
            <path id="Path_91190" data-name="Path 91190" d="M294.6,353.535a5.535,5.535,0,0,1-2.233-.494v-1.935l1.286-.091v.753c0,.234.039.325.26.4a2.129,2.129,0,0,0,.688.1v-2.429c-1.195-.325-2.272-.831-2.272-2.337a2.367,2.367,0,0,1,2.272-2.364v-1.195h.974v1.169a5.4,5.4,0,0,1,2.013.493v1.831l-1.273.078v-.7c0-.234-.039-.325-.26-.4a2.637,2.637,0,0,0-.481-.091v2.285h.013c1.143.351,2.337.857,2.337,2.429a2.455,2.455,0,0,1-2.35,2.454v1.338H294.6Zm0-5.26v-1.87a.929.929,0,0,0-.675.961A.954.954,0,0,0,294.6,348.275Zm.974,1.883v2.026a1.02,1.02,0,0,0,.74-1.078A.994.994,0,0,0,295.577,350.159Z" transform="translate(-292.331 -343.951)" fill="#6eaa50"/>
          </g>
        </g>
      </g>
      <g id="Group_17261" data-name="Group 17261" transform="translate(38.068 62.426)">
        <g id="Group_17248" data-name="Group 17248" transform="translate(0 0)">
          <path id="Path_91191" data-name="Path 91191" d="M208.819,342.432h48.945v23.674H208.819Z" transform="translate(-208.819 -342.432)" fill="#97d729"/>
        </g>
        <g id="Group_17249" data-name="Group 17249" transform="translate(0)">
          <path id="Path_91192" data-name="Path 91192" d="M254.906,345.289v17.959h-43.23V345.289Zm2.857-2.857H208.819v23.674h48.945Z" transform="translate(-208.819 -342.432)" fill="#6eaa50"/>
        </g>
        <g id="Group_17250" data-name="Group 17250" transform="translate(0 0)">
          <path id="Path_91193" data-name="Path 91193" d="M208.818,349.159a4.818,4.818,0,0,0,6.7-6.727h-6.7v6.727Z" transform="translate(-208.818 -342.432)" fill="#6eaa50"/>
        </g>
        <g id="Group_17251" data-name="Group 17251" transform="translate(0 16.152)">
          <path id="Path_91194" data-name="Path 91194" d="M211.576,431.03a4.8,4.8,0,0,0-2.757.868v6.655h6.748a4.82,4.82,0,0,0-3.99-7.523Z" transform="translate(-208.819 -431.03)" fill="#6eaa50"/>
        </g>
        <g id="Group_17252" data-name="Group 17252" transform="translate(40.847 0)">
          <path id="Path_91195" data-name="Path 91195" d="M432.881,345.208a4.818,4.818,0,0,0,8.1,3.531v-6.307h-7.217A4.8,4.8,0,0,0,432.881,345.208Z" transform="translate(-432.881 -342.432)" fill="#6eaa50"/>
        </g>
        <g id="Group_17253" data-name="Group 17253" transform="translate(40.847 16.152)">
          <path id="Path_91196" data-name="Path 91196" d="M440.979,432.318a4.819,4.819,0,0,0-7.269,6.234h7.269Z" transform="translate(-432.881 -431.03)" fill="#6eaa50"/>
        </g>
        <g id="Group_17254" data-name="Group 17254" transform="translate(16.38 3.792)">
          <circle id="Ellipse_1640" data-name="Ellipse 1640" cx="8.045" cy="8.045" r="8.045" fill="#6eaa50"/>
        </g>
        <g id="Group_17256" data-name="Group 17256" transform="translate(4.903 10.313)">
          <g id="Group_17255" data-name="Group 17255">
            <path id="Path_91197" data-name="Path 91197" d="M235.713,399h9.244v3.048h-9.244Z" transform="translate(-235.713 -399.004)" fill="#8bc727"/>
          </g>
        </g>
        <g id="Group_17258" data-name="Group 17258" transform="translate(34.809 10.313)">
          <g id="Group_17257" data-name="Group 17257">
            <path id="Path_91198" data-name="Path 91198" d="M399.762,399h9.244v3.048h-9.244Z" transform="translate(-399.762 -399.004)" fill="#8bc727"/>
          </g>
        </g>
        <path id="Path_91203" data-name="Path 91203" d="M4.22,3.771V2.432C6.3,2.365,7.244,1.265,7.244-.127A1.909,1.909,0,0,0,5.732-2.116a1.9,1.9,0,0,0,1.18-1.737c0-1.326-.822-2.267-2.692-2.334V-7.5H3.305v1.3H.64V2.445H3.305V3.771Zm0-4.959c.7.066,1.061.424,1.061.941A1.014,1.014,0,0,1,4.22.774ZM3.305.8H2.6V-1.228h.7Zm0-3.593H2.6V-4.556h.7ZM4.22-4.516a.786.786,0,0,1,.756.822.8.8,0,0,1-.756.875Z" transform="translate(20.406 13.72)" fill="#97d729"/>
      </g>
      <g id="Group_17267" data-name="Group 17267" transform="translate(7.182 71.599)">
        <g id="Group_17262" data-name="Group 17262" transform="translate(0)">
          <circle id="Ellipse_1641" data-name="Ellipse 1641" cx="10.198" cy="10.198" r="10.198" fill="#fee45a"/>
        </g>
        <g id="Group_17263" data-name="Group 17263" transform="translate(2.085 2.085)">
          <path id="Path_91200" data-name="Path 91200" d="M58.943,405.636a8.113,8.113,0,0,1,8.08,7.39c.021-.239.034-.48.034-.724a8.114,8.114,0,1,0-16.228,0c0,.244.013.485.034.724a8.113,8.113,0,0,1,8.08-7.39Z" transform="translate(-50.829 -404.187)" fill="#ffd23c"/>
        </g>
        <g id="Group_17264" data-name="Group 17264">
          <path id="Path_91201" data-name="Path 91201" d="M49.592,394.925a8.025,8.025,0,1,1-8.025,8.025,8.034,8.034,0,0,1,8.025-8.025m0-2.173a10.2,10.2,0,1,0,10.2,10.2,10.2,10.2,0,0,0-10.2-10.2Z" transform="translate(-39.394 -392.752)" fill="#faf58c"/>
        </g>
        <path id="Path_91202" data-name="Path 91202" d="M4.84,5.723V4.152c2.442-.078,3.547-1.369,3.547-3A2.239,2.239,0,0,0,6.614-1.184,2.229,2.229,0,0,0,8-3.222C8-4.778,7.034-5.882,4.84-5.96V-7.5H3.767v1.525H.64V4.167H3.767V5.723ZM4.84-.1c.824.078,1.245.5,1.245,1.1a1.189,1.189,0,0,1-1.245,1.2ZM3.767,2.238H2.942V-.142h.824Zm0-4.216H2.942V-4.046h.824ZM4.84-4a.922.922,0,0,1,.887.964A.942.942,0,0,1,4.84-2.009Z" transform="translate(5.713 11.35)" fill="#ffd23c"/>
      </g>
    </g>
    <g id="Mask_Group_124" data-name="Mask Group 124" clip-path="url(#clip-path)">
      <g id="Group_17215" data-name="Group 17215" transform="translate(145.312 849.649)">
        <g id="Group_17216" data-name="Group 17216" transform="translate(2.688 73.375) rotate(-73)">
          <path id="Path_91091" data-name="Path 91091" d="M17.2,2.7c-.02,0-.039,0-.059,0A13.719,13.719,0,0,0,15.3.926,4.218,4.218,0,0,0,14.289.288,4.12,4.12,0,0,0,12.805.067C11.6.043,10.4.027,9.2.008A7.4,7.4,0,0,0,6.149.372c-1.8.764-2.8,2.565-3.514,4.284C2.2,5.711,1.8,6.781,1.38,7.843,1.164,8.39.95,8.936.735,9.482c-.225.574-.5,1.154-.67,1.748-.248.892.244,1.446,1.078,1.679,1.217.34,2.5.507,3.745.742-.12.143-.237.29-.346.442-.059.085.081.165.141.081a6.684,6.684,0,0,1,2.453-2.1c.972-.484,2.06-.566,3.051-.992A10.8,10.8,0,0,0,12.832,9L15.6,6.545a11.29,11.29,0,0,0,2.3-2.331C18.314,3.519,18.066,2.782,17.2,2.7Zm-3.057,1.8A15.208,15.208,0,0,1,11.9,5.525,11.229,11.229,0,0,0,9.2,7.138a11.162,11.162,0,0,1,2.056-2.522A2.543,2.543,0,0,1,14.144,4.505Z" transform="translate(0 0)" fill="#ffa57a"/>
          <path id="Path_91139" data-name="Path 91139" d="M1.913.033A8.066,8.066,0,0,0,.052,1.64c-.171.2.12.5.294.293A7.708,7.708,0,0,1,2.122.391C2.349.249,2.14-.11,1.913.033Z" transform="translate(14.37 2.502)" fill="#dd6b4b"/>
          <path id="Path_91140" data-name="Path 91140" d="M3.473,0A4.693,4.693,0,0,0,.056,1.835c-.18.2.113.492.291.293A4.3,4.3,0,0,1,3.473.415.207.207,0,0,0,3.473,0Z" transform="translate(8.797 0.419)" fill="#dd6b4b"/>
          <path id="Path_91141" data-name="Path 91141" d="M2.247,0a3.155,3.155,0,0,0-2.2,1.12c-.171.2.122.5.293.293a2.75,2.75,0,0,1,1.9-1C2.509.393,2.512-.021,2.247,0Z" transform="translate(6.418 0.226)" fill="#dd6b4b"/>
        </g>
        <path id="Path_91092" data-name="Path 91092" d="M5743.576,620.047a47.156,47.156,0,0,1-.178-13.734c.367-2.206.58-7.43,2.308-10.332,1.052-1.77,1.068.029,2.257-1.66a14.207,14.207,0,0,1,.9-1.14c-.046-.021-.094-.045-.144-.065-.122-.049-.069-.25.055-.2.08.033.159.069.237.1a12,12,0,0,1,.9-.9c.1-.088.246.057.146.147a11.652,11.652,0,0,0-.85.848,8.09,8.09,0,0,1,3.215,3.581,39.068,39.068,0,0,1,2.516,6.25c1.47,4.488,3,8.984,4.229,13.544a69.787,69.787,0,0,1,2.232,14.029c.14,2.358.2,4.73.135,7.092a27.27,27.27,0,0,1-.882,6.645,8.676,8.676,0,0,1-2.972,4.736,14.235,14.235,0,0,1-2.74,1.5c-1.1.492-2.2.972-3.3,1.45-1.561.677-3.786,2.037-5.392.777-1.662-1.3-1.262-3.673-1.576-5.5a26.754,26.754,0,0,0-.926-3.216,10.216,10.216,0,0,1-.5-3.192c.036-2.348.782-4.618,1.054-6.94C5744.844,629.262,5744.144,624.623,5743.576,620.047Z" transform="translate(-5685.981 -590.246)" fill="#bd6655"/>
        <path id="Path_91093" data-name="Path 91093" d="M5670.769,591.558a6.848,6.848,0,0,1,1.974-2.726,14.505,14.505,0,0,1,7.294-2.991,39.557,39.557,0,0,1,9.129-.334,12.685,12.685,0,0,1,7.953,3.033,16.711,16.711,0,0,1,1.71,1.44,15.941,15.941,0,0,1,2.716,3.605,25.811,25.811,0,0,1,2.993,9.179,80.015,80.015,0,0,1,.211,10.718,36.457,36.457,0,0,0,.328,5.446c.257,1.727.755,3.4,1.121,5.107a8.417,8.417,0,0,1,.264,5.317,11.012,11.012,0,0,1-.543,1.985,7.873,7.873,0,0,0-.164,2.689c.271,2.241,1.256,4.414.894,6.707a4.858,4.858,0,0,1-.365,1.251c-.065.143-.166.462-.305.554a2.871,2.871,0,0,1-.636.176,7.664,7.664,0,0,0-2.88,1.784,21.685,21.685,0,0,0-2.239,2.585,15.469,15.469,0,0,1-2.181,2.532,6.25,6.25,0,0,1-3.312,1.084l-3.9.551a2.819,2.819,0,0,1-1.976,1.1c-1.39.126-2.288-.98-2.788-2.141a31.136,31.136,0,0,1-1.575-5.229c-.441-1.892-.794-3.8-1.173-5.707a111.966,111.966,0,0,0-6.822-22.2c-.836-1.962-1.7-3.916-2.341-5.953a30.23,30.23,0,0,1-1.2-5.842c-.023.084-.163.108-.184,0-.68-3.245-1.371-6.488-2.04-9.736A7.126,7.126,0,0,1,5670.769,591.558Z" transform="translate(-5611.231 -585.387)" fill="#bd6655"/>
        <path id="Path_91094" data-name="Path 91094" d="M5714.38,1720.779a1.737,1.737,0,0,1,.615-.812,4.305,4.305,0,0,1,.689-.335,22.8,22.8,0,0,0,10.683-8.1,51.02,51.02,0,0,0,3.813-6.618c1.15-2.262,3.19-8.455,3.257-8.477.508-.17,4.867-.1,6.438-.1a.089.089,0,0,1,.049.016.075.075,0,0,1,.039.072,17.305,17.305,0,0,0,.855,5.085,16.348,16.348,0,0,1,.717,4.82c-.066,3.368-1.495,6.48-2.163,9.743a25.4,25.4,0,0,0-.551,5.807.089.089,0,0,1-.088.089l-1.264-.126a.089.089,0,0,1-.089-.088c-.1-2.142.208-4.33-.25-6.444a4.354,4.354,0,0,0-1.247-2.464,1.549,1.549,0,0,0-1.7-.262,11.528,11.528,0,0,0-2.193,3.786c-.763,1.818-1.631,3.563-3.42,4.559-1.955,1.089-4.251,1.16-6.431,1.265l-3.638.176-1.819.088-.868.042a3.645,3.645,0,0,1-.879.023C5714.212,1722.374,5714.172,1721.328,5714.38,1720.779Z" transform="translate(-5658.044 -1389.877)" fill="#2c2c2c"/>
        <path id="Path_91095" data-name="Path 91095" d="M5499.86,1526.279a1.122,1.122,0,0,1-.192-1.2,4.682,4.682,0,0,1,1.425-1.246,43.265,43.265,0,0,1,5.674-3.577q-3.792-6.121-7.392-12.357-.67-1.16-1.333-2.322c-.065-.115.1-.236.171-.12q4.233,7.43,8.736,14.7,1.878-.98,3.845-1.78c.123-.05.193.144.068.195q-1.942.791-3.8,1.763,1.029,1.657,2.068,3.306,5.664,8.964,11.739,17.662,3.42,4.9,6.963,9.7a.1.1,0,0,1-.023.145q-2.99,1.958-5.983,3.914a.105.105,0,0,1-.144-.025c-2.767-3.646-2.357-5.034-5.125-8.68-1.39-1.83-5.955-5.918-7.343-7.749q-3.15-4.148-6.3-8.3C5501.9,1528.972,5500.815,1527.662,5499.86,1526.279Z" transform="translate(-5384.706 -1251.626)" fill="#38284f"/>
        <path id="Path_91096" data-name="Path 91096" d="M5701.724,1557.052a1.125,1.125,0,0,1,.539-1.093,4.681,4.681,0,0,1,1.882-.192,43.393,43.393,0,0,1,6.7.363q.445-7.187,1.114-14.356c.084-.889.168-1.777.257-2.665.013-.132.222-.133.208,0q-.843,8.509-1.373,17.046c1.4.19,2.79.447,4.165.769.129.031.075.231-.055.2q-2.043-.479-4.124-.761-.119,1.946-.225,3.892-.562,10.59-.636,21.2-.042,5.972.071,11.943a.1.1,0,0,1-.105.1l-7.143-.267a.107.107,0,0,1-.1-.1c-.147-4.575.99-5.47.84-10.044-.074-2.3-1.436-8.272-1.509-10.569q-.168-5.205-.34-10.41C5701.832,1560.427,5701.7,1558.732,5701.724,1557.052Z" transform="translate(-5628.331 -1275.959)" fill="#38284f"/>
        <path id="Path_91097" data-name="Path 91097" d="M5564.406,801.546c-.079-.542-.263-1.481.316-1.81a9.268,9.268,0,0,1,1.128-.4,11.946,11.946,0,0,0,2.764-1.549,5.055,5.055,0,0,1,1.059-.709c1.437-.586,2.208,1.109,2.618,2.169a53.592,53.592,0,0,0,2.641,5.771,39.964,39.964,0,0,1,4.126,1.078,10.672,10.672,0,0,1,4.665,4.514,33.971,33.971,0,0,1,2.794,7.5c.352,1.184.749,2.346,1.2,3.483.82,1.209,1.953,2.481,3.533,2.168a2.91,2.91,0,0,0,1.759-1.534c.438-.688.853-1.391,1.252-2.1a84.71,84.71,0,0,0,4.232-8.893c1.343-3.2,2.612-6.457,4.034-9.633a38.08,38.08,0,0,1,4.966-9.1A15.206,15.206,0,0,1,5609,790.7a30.863,30.863,0,0,1,6.653-5.238c1.333-.817,2.7-1.577,4.075-2.332l.918-.5c.759-.415,1.513-.829,2.263-1.252q.9-.5,1.775-1.03c2.08,1.12,4.932.667,7.272.622,3.979-.077,7.71-1.278,11.5-2.309.269.18.537.359.809.535,1.057.684,2.134,1.335,3.222,1.971,1.676.983,3.374,1.934,5.044,2.923.715.421,1.427.852,2.127,1.294a36.468,36.468,0,0,1,6.912,5.419,27.264,27.264,0,0,1,5.24,8.134,93.38,93.38,0,0,1,3.352,9.685c1.124,3.642,2.241,7.287,3.271,10.958a126.928,126.928,0,0,1,4.456,22.141q.27,2.8.345,5.626a8.589,8.589,0,0,1-.64,4.3,5.771,5.771,0,0,1-3.4,2.459,21.666,21.666,0,0,1-5.256,1.146c-.467.043-.932.068-1.4.081a.106.106,0,0,1-.169,0c-.421.008-.839.006-1.259-.01-.132,0-.132-.211,0-.207.4.015.792.017,1.185.011a98.161,98.161,0,0,1-2.565-9.737c-.709-3.4-1.193-6.834-1.919-10.228a153.119,153.119,0,0,0-5.74-19.461c-.173-.487-.351-.974-.529-1.46-.112.471-.917,12.1-.731,17.438.058,1.7.129,3.4.185,5.1a9.743,9.743,0,0,1-.865,4.312c-1.509,3.309-4.886.736-6.012,1.59-.971.732.842,6.943-.324,7.312a.227.227,0,0,1-.23.066,3.254,3.254,0,0,1-.619.089c-.005.027-.013.052-.019.079-.029.129-.229.074-.2-.056,0-.008,0-.015,0-.023-.036,0-.073,0-.106,0a4.793,4.793,0,0,1-.919-.145c-.434.081-.865.164-1.3.249q-1.6.32-3.192.672c-2.1.458-4.19.939-6.292,1.382a68.371,68.371,0,0,1-12.313,1.7c-2.308.063-5.1-2.4-5.106-2.446-.386-5.777-5.244-20.956-5.958-23.731-.542-2.114-1.2-4.2-1.747-6.32a74.528,74.528,0,0,1-6.311,10.551q-.542.754-1.074,1.488c.039-.025.051-.025.025.012a4.983,4.983,0,0,1-.341.419,34.017,34.017,0,0,1-7.4,7.734l-.068-.1c-.055.044-.1.081-.139.1-8.429,5.39-17.724-7.591-20.375-11.111-3.047-4.043-5.651-8.427-8.374-12.691-1.194-1.87-2.531-3.754-1.93-6.076a5.446,5.446,0,0,1,2.236-3.15,42.225,42.225,0,0,0-1.747-4.4A10.6,10.6,0,0,1,5564.406,801.546Zm84.048,48.317a.115.115,0,0,1,.141-.035.714.714,0,0,0-.546-.1c-.018.066-.034.134-.051.2A2.972,2.972,0,0,0,5648.454,849.864Zm-.826.073c.049,0,.1,0,.158,0,.014-.06.027-.12.044-.18-.218.035-.436.091-.614.135C5647.351,849.912,5647.489,849.928,5647.628,849.937Z" transform="translate(-5553.395 -725.347)" fill="#f0ded5"/>
        <path id="Path_91098" data-name="Path 91098" d="M5715.267,611.67c1.4-.085,2.58-.825,4.006-.827a13.2,13.2,0,0,1,4.98,1.194,15.778,15.778,0,0,1,6.621,5.037,33.086,33.086,0,0,1,4.06,8.045,55.413,55.413,0,0,1,2.545,8.833c.305,1.526.525,3.06.728,4.6a18.764,18.764,0,0,0,.917,4.216,63.005,63.005,0,0,1-12.086,2.527c-3.156.363-8.536,1.883-10.452.017-.944-.921-.848-2.726-1.106-4.552-.074-.507-.414-1.706-.458-2.232-.019-.217-.034-.437-.047-.655-.04-.607-.064-1.215-.084-1.8-.008-.224-.014-.446-.02-.663-.015-.485-.027-.953-.042-1.391C5714.571,626.55,5714.824,619.135,5715.267,611.67Z" transform="translate(-5655.754 -603.821)" fill="#ffae94"/>
        <path id="Path_91099" data-name="Path 91099" d="M5701.043,697.868a1.17,1.17,0,0,1,.547-.268c.418-.118.846-.2,1.271-.286.824-.164,1.65-.3,2.476-.461a30.944,30.944,0,0,0,5.106-1.626,18.274,18.274,0,0,1,4.9-1.343q-.04-.366-.084-.731c-.015-.132.166-.131.183,0q.04.358.081.716c.083.012.092.149.022.192q1.163,10.187,2.322,20.375c.219,1.948.41,3.9.443,5.866a.1.1,0,0,1-.09.1,97.173,97.173,0,0,1-10.326.939c-.387.014-.776.026-1.163.036a4.833,4.833,0,0,1-1.271.016.354.354,0,0,1-.265-.229,7.252,7.252,0,0,1-.324-1.431q-.639-2.883-1.277-5.767c-.832-3.751-1.657-7.51-2.229-11.326q-.2-1.356-.363-2.72c-.052-.458-.121-.924-.142-1.386A.837.837,0,0,1,5701.043,697.868Z" transform="translate(-5631.108 -663.355)" fill="#ffae94"/>
        <path id="Path_91100" data-name="Path 91100" d="M5740.376,883.379a56.036,56.036,0,0,0,.233-11.395c-.2-3.575-.2-7.2,1.095-10.594.093-.247.5-.14.4.11-1.381,3.614-1.256,7.476-1.031,11.275a51.774,51.774,0,0,1-.292,10.714,42.791,42.791,0,0,0-.349,11.4c.23,1.96.563,3.9.864,5.853a15.548,15.548,0,0,1,.185,5.009c-.044.263-.444.151-.4-.11a19.115,19.115,0,0,0-.4-6.164c-.283-1.788-.564-3.577-.75-5.378A42.85,42.85,0,0,1,5740.376,883.379Z" transform="translate(-5665.653 -785.155)" fill="#c9b3b3"/>
        <path id="Path_91101" data-name="Path 91101" d="M5615.21,1166.4c.5-5.74,2.17-21.855,2.525-27.608.147-2.4.207-4.8.205-7.2,0-3.3-.123-6.607-.291-9.9-.3-5.829-.746-11.65-.962-17.483-.218-5.85-.113-11.7.208-17.539.637-11.584,1.964-23.122,2.317-34.724.36-11.712-.056-23.424-.557-35.126,0-.137-.011-.276-.019-.413q-.082-1.974-.17-3.951a.1.1,0,0,1,.1-.1q2.074-.109,4.144-.255l.274-.019.138-.01q1.909-.137,3.818-.307c.137-.015.274-.027.41-.039q8.526-.775,16.973-2.187a.1.1,0,0,1,.075-.01c.076-.014.167.18.1.191.313,1.24.669,2.494,1.058,3.756.04.133.082.263.125.4,1.125,3.595,2.515,7.268,3.935,10.962.053.141.108.282.162.425,2.547,6.631,5.158,13.317,6.474,19.705a135.152,135.152,0,0,1,2.9,31.094c-.082,11.719-4.579,25.369-5.708,37.015-.024.259-.053.539-.088.837-.913,8.18-4.853,31.03-7.736,48.936-1.7,10.556-3.03,19.393-3.156,22.5-.169,4.2-.338,7.353-.459,8.122a40.806,40.806,0,0,1-1.071,4.8,4.369,4.369,0,0,1-1.35,2.539c-1.005.69-2.545.4-3.683.375-1.671-.035-14.59-.458-18.417-.535a.1.1,0,0,1-.1-.075c-.883-5.608-1.769-11.223-2.255-16.882,0-.06-.008-.12-.015-.18A99.449,99.449,0,0,1,5615.21,1166.4Z" transform="translate(-5548.234 -892.524)" fill="#cf6955"/>
        <path id="Path_91102" data-name="Path 91102" d="M5505.678,1099.436q.818-7.894,1.859-15.765,2.054-15.538,4.95-30.951c.893-4.737,1.939-12.368,2.812-19.252.021-.149.039-.3.058-.445.52-4.115.974-7.931,1.294-10.661.017-.139.033-.276.046-.409.272-2.322.433-3.758.433-3.758s5.674.087,10.661-.068l.277-.008.136,0c1.393-.05,2.715-.118,3.83-.213.05-.007.1-.011.155-.015-.024.064-.063.261-.108.479-.044.238-.091.5-.129.657a.093.093,0,0,1,.149.058c.036.253.073.508.112.761l.024,0,.425.068.714.116c.131.021.076.219-.054.2l-.639-.1-.422-.069-.019,0c.021.143.041.286.062.429l.274,1.849c.021.137.042.274.061.411q.568,3.862,1.14,7.721,3.133,21.209,6.262,42.421c.644,4.357,1.271,8.716,1.933,13.07a103.8,103.8,0,0,0,2.287,11.563,42.1,42.1,0,0,0,4.476,10.846,55.629,55.629,0,0,0,7.362,9.1c.782.827,1.567,1.65,2.346,2.481.008.008.016.019.026.027.118.126.24.255.358.386a64.191,64.191,0,0,1,4.521,5.286,44.6,44.6,0,0,1,5.532,10.244c1.514,3.752,2.792,7.6,4.471,11.289a79.519,79.519,0,0,0,5.871,10.266c1.474,2.263,9.035,13.074,10.452,15.375.647,1.055,1.278,2.121,1.878,3.2a50.225,50.225,0,0,1,2.431,4.988,4.154,4.154,0,0,1,.49,2.369,3.184,3.184,0,0,1-1.216,1.725c-3.028,2.494-3.359,3.1-6.8,4.954q-2.674,1.443-5.451,2.686a37.777,37.777,0,0,1-5.326,2.135c-1.566.425-2.54-.234-3.476-1.443-1.389-1.794-2.752-3.611-4.127-5.416-.238-.315-7.6-8.372-16.333-18-.121-.131-.241-.263-.364-.4-.223-.244-.445-.491-.672-.74-10.837-11.957-23.4-25.916-27.058-30.464l-.631-.784c-.1-.13-.208-.259-.314-.39-.115-.149-.237-.3-.356-.446l-8.868-11.036c-2.848-3.547-6.035-7.121-7.483-11.517C5504.426,1109.48,5505.171,1104.314,5505.678,1099.436Zm26.532-81.552-.023,0C5532.2,1017.86,5532.206,1017.855,5532.21,1017.885Z" transform="translate(-5453.309 -898.569)" fill="#cf6955"/>
        <path id="Path_91103" data-name="Path 91103" d="M5470.693,1672.958a1.729,1.729,0,0,1,.031-1.017,4.28,4.28,0,0,1,.37-.672,22.814,22.814,0,0,0,4.026-12.79,51.148,51.148,0,0,0-.713-7.6c-.373-2.51-2.291-8.741-2.249-8.8.319-.433,3.916-2.9,5.2-3.8a.087.087,0,0,1,.05-.015.077.077,0,0,1,.074.036,17.272,17.272,0,0,0,3.638,3.655,16.278,16.278,0,0,1,3.372,3.517c1.9,2.786,2.529,6.151,3.869,9.2a25.486,25.486,0,0,0,2.91,5.056.09.09,0,0,1-.021.124l-1.1.629a.092.092,0,0,1-.124-.021c-1.322-1.688-2.333-3.654-3.929-5.113a4.352,4.352,0,0,0-2.443-1.289,1.552,1.552,0,0,0-1.538.767,11.555,11.555,0,0,0,.4,4.357c.428,1.925.729,3.85-.155,5.7-.964,2.019-2.8,3.4-4.515,4.751l-2.866,2.248c-.476.375-.956.749-1.434,1.124l-.683.535a3.739,3.739,0,0,1-.7.527C5471.477,1674.358,5470.842,1673.526,5470.693,1672.958Z" transform="translate(-5340.584 -1347.832)" fill="#2c2c2c"/>
        <path id="Path_91104" data-name="Path 91104" d="M5697.109,767.52a19.257,19.257,0,0,0,1.9-1.385,9.94,9.94,0,0,0,1.539-1.745,3.8,3.8,0,0,1,2.845-1.731,12.847,12.847,0,0,1,4.165.7,7.246,7.246,0,0,0,2.513.234.088.088,0,0,1,.06.014,5.335,5.335,0,0,0-.367-.5c-.083-.1.063-.249.146-.145a5.475,5.475,0,0,1,1.039,1.909c.528.429,1.071.84,1.619,1.238a11.322,11.322,0,0,1,.031,1.754,5.572,5.572,0,0,1-2.714,4.123c-1.608,1.126-3.4,1.949-4.8,3.356a14.678,14.678,0,0,0-3.4,5.825,40.536,40.536,0,0,0-1.5,8.578c-.013.131-.215.135-.207,0q.178-2.689.355-5.381c.112-1.658.282-3.325.311-4.988a5.267,5.267,0,0,0-1.575-4.309,11.705,11.705,0,0,1-2.661-3.093,13,13,0,0,1-1.189-3.257Q5696.174,768.14,5697.109,767.52Z" transform="translate(-5623.873 -713.744)" fill="#ffae94"/>
        <path id="Path_91105" data-name="Path 91105" d="M5672.316,605.373c.75-.605,4.378-.491,5.256-.371a21.086,21.086,0,0,1,5.919,1.92c7.448,3.477,13.09,10.078,16.487,17.452A55.826,55.826,0,0,1,5704.107,638c.409,2.3.707,4.623.922,6.95.223,2.414.273,4.846.563,7.253a11.247,11.247,0,0,0,1.062,3.5c.05-.113.147-.034.1.078-1.093,2.5-4.032,2.791-6.326,3.442-2.746.779-8.385,2.316-10.626,4.015-.063.048-.14-.019-.145-.083-.1-1.3-.151-2.6-.146-3.9s.1-2.578.078-3.868c-.039-2.591-1.006-4.9-1.8-7.324-1.457-4.407-2.472-9.343-.6-13.788.91-2.157,2.362-4.084,3.031-6.343.531-1.794.585-3.131-.635-4.661-1.37-1.719-2.782-.811-4.59-1.769s-2.577-4.42-3.975-5.825c-1.5-1.512-3.572-2.231-5.35-3.345a7.687,7.687,0,0,1-3.546-4.615C5671.945,607.011,5671.657,605.907,5672.316,605.373Z" transform="translate(-5611.586 -599.522)" fill="#bd6655"/>
        <path id="Path_91106" data-name="Path 91106" d="M5729.086,667.772a2.175,2.175,0,0,1,.21-.461,2.617,2.617,0,0,0,.345-.452,3.012,3.012,0,0,1,2.579-.953c1.549.276,1.869,2.117,1.705,3.412a6.745,6.745,0,0,1-2.064,4.131,1.6,1.6,0,0,1-1.623.389c-.571-.282-.77-1.193-.908-1.747a9.321,9.321,0,0,1-.222-2.829c.032-.527.138-1.063.218-1.6-.02.052-.04.1-.058.159C5729.232,667.94,5729.049,667.89,5729.086,667.772Z" transform="translate(-5654.556 -643.671)" fill="#ffae94"/>
        <path id="Path_91108" data-name="Path 91108" d="M5567.751,1179.734a7.473,7.473,0,0,1-1.143-4.191,43.154,43.154,0,0,1,.883-8.683c.365-1.126,1.4-4.831,1.5-5.485.074-.473.646-.424,1.026-.467a15.246,15.246,0,0,1,4.049.09c.1.016.063.172-.038.157l-.062-.009c.138.326.27.656.4.987a.082.082,0,0,1,.149.009q1.046,3.029,2.022,6.085c.233.735.467,1.471.691,2.209,0,.007.009.012.011.02a.289.289,0,0,0,.011.048c.077.256.159.512.234.769a31.2,31.2,0,0,1,.991,5.115,18.852,18.852,0,0,1-.552,5.667c-.2.9-2.544,3.193-3.174,3.094a.8.8,0,0,1-.609-.371,1.415,1.415,0,0,1-1.687.327,1.462,1.462,0,0,1-.663-.86,1.478,1.478,0,0,1-1.5.566,1.1,1.1,0,0,1-.731-.859,2.174,2.174,0,0,1-1.815.465c-.392-.107-.961-.465-.795-.945a3.928,3.928,0,0,1,.616-.815,9.941,9.941,0,0,0,.691-1.12c.176-.333.332-.676.479-1.023C5568.354,1180.542,5567.922,1179.956,5567.751,1179.734Zm1.567-.8a14.665,14.665,0,0,0,.693-3.311,25.488,25.488,0,0,0-.4-3.86c-.166.552-.2,1.639-.326,2.2a33.15,33.15,0,0,0-.169,4.851c.008.137.034.343.05.564C5569.219,1179.236,5569.271,1179.087,5569.318,1178.938Z" transform="translate(-5454.284 -1002.086)" fill="#ffa57a"/>
        <path id="Path_91109" data-name="Path 91109" d="M5552.675,885.231c-.023-.715-.039-1.434-.013-2.149a1.289,1.289,0,0,1,.508-1.187,1.779,1.779,0,0,1,.319-.151c2.653.036,5.422.432,8.076.083,2.167,9.431,5.741,18.484,8.688,27.691a110.477,110.477,0,0,1,4.073,16.173,71.052,71.052,0,0,1,.611,17.64,62.677,62.677,0,0,1-1.278,8.407,3.5,3.5,0,0,1-1.494,2.48,4.005,4.005,0,0,1-2.521.134c-.079.485-.162.97-.245,1.453a23.7,23.7,0,0,1-1.417,5.218c-.293.693-.567.84-1.3.721-.975-.159-1.952-.326-2.928-.489L5562.24,961a5.7,5.7,0,0,1-1.277-.273,1.263,1.263,0,0,1-.739-1.262,19.563,19.563,0,0,1,.231-2.909c.122-1.005.218-2.011.283-3.022.015-.218.025-.437.038-.655-.143-.049-.284-.1-.42-.162-2.154-.95-2.375-3.621-2.623-5.66-1.454-11.928-1.6-22.219-2.921-34.155-.65-5.859-4.926-20.323-5.945-26.12C5548.37,883.958,5552.77,888.1,5552.675,885.231Z" transform="translate(-5446.095 -799.996)" fill="#f0ded5"/>
        <g id="Group_17197" data-name="Group 17197" transform="translate(61.988 120.943)">
          <path id="Path_91110" data-name="Path 91110" d="M5648.87,1037.348a8.584,8.584,0,0,0,2.637-1.334,8.263,8.263,0,0,0,2.812-3.879,13.1,13.1,0,0,0,1.051-5.031q-2.607-.139-5.2-.416c.016-.139.032-.276.045-.409q3.5.377,7.015.494,2.02.069,4.035.05c.174,0,5.247-.191,5.286-.194q4.351-.279,8.672-.952a.216.216,0,0,1,.258-.042q4.375-.694,8.675-1.8c.042.133.083.263.125.4q-4.3,1.1-8.682,1.8c.594,3.215,3.366,5.466,6.085,7a16.593,16.593,0,0,0,6.533,2.158c.052.141.108.282.162.425a16.928,16.928,0,0,1-6.9-2.224c-2.813-1.592-5.691-3.957-6.283-7.3q-4.259.659-8.563.939c-.052,0-4.956.192-5.04.193q-2.169.024-4.339-.047c-.488-.016-.975-.039-1.459-.062a13.541,13.541,0,0,1-1.2,5.467,8.556,8.556,0,0,1-2.829,3.754,8.871,8.871,0,0,1-2.95,1.451C5648.833,1037.644,5648.851,1037.5,5648.87,1037.348Z" transform="translate(-5648.812 -1023.837)" fill="#584978"/>
          <path id="Path_91111" data-name="Path 91111" d="M5746.044,1243.613c.367-6.314.33-12.641.295-18.961a.208.208,0,0,1,.415,0c.061,11.339-.029,22.639-2.064,33.833-1.722,9.457-3.535,18.889-5.154,28.362-.117-.15-.238-.3-.358-.446q.733-4.412,1.507-8.816C5742.672,1266.287,5745.384,1255.095,5746.044,1243.613Z" transform="translate(-5732.131 -1169.113)" fill="#584978"/>
          <path id="Path_91112" data-name="Path 91112" d="M5639.37,1402.926q1.077-7.447,2.157-14.89c.12.127.241.255.359.386q-1.945,13.405-3.887,26.812c-1.1,7.61-2.273,15.216-3.2,22.85l-.362-.4q.389-3.143.826-6.281C5636.572,1421.9,5637.991,1412.416,5639.37,1402.926Z" transform="translate(-5598.358 -1287.574)" fill="#584978"/>
          <path id="Path_91113" data-name="Path 91113" d="M5722.953,1700.736a42.108,42.108,0,0,0,4.706.483c.265.012.268.427,0,.415a43.178,43.178,0,0,1-4.815-.5C5722.581,1701.094,5722.691,1700.694,5722.953,1700.736Z" transform="translate(-5708.676 -1514.016)" fill="#584978"/>
          <path id="Path_91114" data-name="Path 91114" d="M5528.084,1638.114a13.87,13.87,0,0,0,5.48-2.073c.223-.145.431.214.207.358a14.115,14.115,0,0,1-5.576,2.114C5527.932,1638.554,5527.819,1638.155,5528.084,1638.114Z" transform="translate(-5460.961 -1467.145)" fill="#584978"/>
          <path id="Path_91115" data-name="Path 91115" d="M5726.606,1457.023a82.711,82.711,0,0,0-12.306,30.017c-.051.262-.448.151-.4-.11a83.01,83.01,0,0,1,12.344-30.115C5726.4,1456.592,5726.755,1456.8,5726.606,1457.023Z" transform="translate(-5705.031 -1337.311)" fill="#584978"/>
          <path id="Path_91116" data-name="Path 91116" d="M5561.991,1519.97l10.775,10.783c.188.189-.1.482-.292.293q-5.391-5.392-10.777-10.783A.208.208,0,0,1,5561.991,1519.97Z" transform="translate(-5509.216 -1383.071)" fill="#584978"/>
        </g>
        <path id="Path_91117" data-name="Path 91117" d="M5793.908,632.549c.508-1.134,1.259-2.83,1.805-3.948a7.549,7.549,0,0,0,.667-1.857,5.464,5.464,0,0,0-.1-2.2,21.018,21.018,0,0,1,.269-5.762q.33-2.418.862-4.809a.066.066,0,0,1,.006-.027c0-.013.006-.027.008-.04.025-.115.219-.069.2.043a6.553,6.553,0,0,1,1.753,5.009c.032.314-.039,1.656-.007,1.959q.12,1.107.176,2.218a38.442,38.442,0,0,1-.041,4.444c-.094,1.429-.318,3.5-.572,4.909q-.2,1.1-.458,2.185a7.529,7.529,0,0,1-.259,1.006.412.412,0,0,1-.229.274c-.209.079-.51-.062-.7-.114l-1.22-.328a6.961,6.961,0,0,1-1.571-.559,1.767,1.767,0,0,1-.863-.9A2.073,2.073,0,0,1,5793.908,632.549Z" transform="translate(-5737.973 -605.989)" fill="#ffae94"/>
        <path id="Path_91118" data-name="Path 91118" d="M5788.919,657.982c0,1.044.463,1.892,1.037,1.892s1.036-.847,1.036-1.892-.464-1.892-1.036-1.892S5788.919,656.938,5788.919,657.982Z" transform="translate(-5728.088 -636.588)" fill="#2c2c2c"/>
        <path id="Path_91119" data-name="Path 91119" d="M5776.64,642.527a8.757,8.757,0,0,1,4.6-.112,2.629,2.629,0,0,1,1.6,1.167.765.765,0,0,1-.514,1.064,4.175,4.175,0,0,1-1.173.157c-.451.032-.9.061-1.351.076a10.467,10.467,0,0,1-2.75-.173,1.357,1.357,0,0,1-1.114-1C5775.806,643.214,5776.1,642.794,5776.64,642.527Z" transform="translate(-5716.424 -626.496)" fill="#bd6655"/>
        <g id="Group_17199" data-name="Group 17199" transform="translate(14.132 66.8)">
          <g id="Group_17198" data-name="Group 17198" transform="translate(87.363)">
            <path id="Path_91120" data-name="Path 91120" d="M5636.958,828.11a17.292,17.292,0,0,0-3.519,16.063.1.1,0,0,1-.2.055,17.5,17.5,0,0,1,3.57-16.265C5636.9,827.863,5637.044,828.01,5636.958,828.11Z" transform="translate(-5632.442 -827.826)" fill="#c9b3b3"/>
            <path id="Path_91121" data-name="Path 91121" d="M5633.072,844.132a.218.218,0,0,0,.158-.067.2.2,0,0,0,.044-.194,17.1,17.1,0,0,1,3.5-15.965.206.206,0,0,0,.042-.2.222.222,0,0,0-.162-.144.19.19,0,0,0-.183.065,17.531,17.531,0,0,0-3.59,16.362.2.2,0,0,0,.2.147Z" transform="translate(-5632.179 -827.554)" fill="#c9b3b3"/>
          </g>
          <path id="Path_91122" data-name="Path 91122" d="M5800.722,861.8a44.646,44.646,0,0,0,2.9-12.385c.023-.264.439-.266.415,0a45.128,45.128,0,0,1-2.374,11.039c-.657,1.859-1.694,3.7-1.917,5.679a7.808,7.808,0,0,0,1.422,5.357c.152.219-.206.427-.357.209a8.241,8.241,0,0,1-1.525-4.548A13.816,13.816,0,0,1,5800.722,861.8Z" transform="translate(-5758.13 -843.242)" fill="#c9b3b3"/>
          <path id="Path_91123" data-name="Path 91123" d="M5868.129,946.181a12.4,12.4,0,0,1,1.374,9c-.058.26-.458.151-.4-.11a11.976,11.976,0,0,0-1.333-8.677A.207.207,0,0,1,5868.129,946.181Z" transform="translate(-5842.784 -913.386)" fill="#c9b3b3"/>
          <path id="Path_91124" data-name="Path 91124" d="M5938.047,878.685a5.714,5.714,0,0,0,7.071-2.5c.123-.237.48-.028.358.209a6.12,6.12,0,0,1-7.539,2.689C5937.69,878.989,5937.8,878.588,5938.047,878.685Z" transform="translate(-5937.797 -862.695)" fill="#c9b3b3"/>
          <path id="Path_91125" data-name="Path 91125" d="M5599.564,973.684a51.747,51.747,0,0,0,4.581-23.721c-.013-.267.4-.266.414,0a52.2,52.2,0,0,1-4.636,23.93C5599.813,974.135,5599.455,973.925,5599.564,973.684Z" transform="translate(-5503.602 -916.052)" fill="#c9b3b3"/>
          <path id="Path_91126" data-name="Path 91126" d="M5569.6,1132.414a6.989,6.989,0,0,1,7.809,2.451c.162.212-.2.418-.358.209a6.575,6.575,0,0,0-7.341-2.26C5569.458,1132.895,5569.35,1132.494,5569.6,1132.414Z" transform="translate(-5468.144 -1048.063)" fill="#c9b3b3"/>
          <path id="Path_91127" data-name="Path 91127" d="M5590.41,1149.512a.934.934,0,0,1,0,1.866A.934.934,0,0,1,5590.41,1149.512Z" transform="translate(-5487.535 -1060.702)" fill="#c9b3b3"/>
          <path id="Path_91128" data-name="Path 91128" d="M5957.957,865.947a.933.933,0,0,1,0,1.866A.933.933,0,0,1,5957.957,865.947Z" transform="translate(-5956.467 -855.356)" fill="#c9b3b3"/>
        </g>
        <path id="Path_91129" data-name="Path 91129" d="M5738.148,616.113c2,1.038,2.871,3.075,3.771,5.021a24.273,24.273,0,0,0,4.265,6.38c.18.2-.111.489-.293.293a24.157,24.157,0,0,1-3.846-5.461c-1.094-2.143-1.82-4.687-4.1-5.875C5737.7,616.348,5737.912,615.99,5738.148,616.113Z" transform="translate(-5669.246 -607.619)" fill="#914233"/>
        <path id="Path_91130" data-name="Path 91130" d="M5790.175,760.451c.026-.263.442-.266.416,0a16.3,16.3,0,0,0,1.214,7.96c.1.245-.3.352-.4.11A16.545,16.545,0,0,1,5790.175,760.451Z" transform="translate(-5729.245 -712.017)" fill="#914233"/>
        <path id="Path_91131" data-name="Path 91131" d="M5713.594,724.361a.208.208,0,0,1,.416,0c.011,6.766,6.455,12.985,3.6,19.844-.1.243-.5.136-.4-.11C5720.03,737.323,5713.606,731.075,5713.594,724.361Z" transform="translate(-5634.656 -685.881)" fill="#914233"/>
        <path id="Path_91132" data-name="Path 91132" d="M5700.355,774.5a11.06,11.06,0,0,0,1.163-5.772c-.018-.266.4-.265.414,0a11.5,11.5,0,0,1-1.22,5.981C5700.593,774.944,5700.235,774.734,5700.355,774.5Z" transform="translate(-5614.619 -718.007)" fill="#914233"/>
        <path id="Path_91133" data-name="Path 91133" d="M5796.636,691.106c-.011-.116.148-.13.2-.044a.083.083,0,0,1,.087.008,4.08,4.08,0,0,1,1.462,1.753,1.147,1.147,0,0,1-.647,1.575c-.7.212-1.253-.4-1.6-.931C5795.524,692.528,5796.706,692.011,5796.636,691.106Z" transform="translate(-5737.518 -661.872)" fill="#ffae94"/>
        <path id="Path_91134" data-name="Path 91134" d="M5799.795,709.151c.072-.112.252-.009.179.1l-.068.108a3.259,3.259,0,0,1,.324,2.683.1.1,0,0,1-.173.046c-.366-.373-.98-.57-.973-1.182A3.769,3.769,0,0,1,5799.795,709.151Z" transform="translate(-5740.264 -674.977)" fill="#ffae94"/>
        <path id="Path_91135" data-name="Path 91135" d="M5788.41,702.64a8.547,8.547,0,0,0,2.862.464,1.906,1.906,0,0,1,.372-.01c.068.1-.09.207-.14.259a2.638,2.638,0,0,1-.633.433,8.589,8.589,0,0,1-2.654.871,3.826,3.826,0,0,1-.585.114c-.017-.218-.034-.438-.047-.655-.039-.608-.063-1.215-.083-1.8C5787.809,702.4,5788.106,702.535,5788.41,702.64Z" transform="translate(-5728.366 -670.061)" fill="#fff"/>
        <path id="Path_91136" data-name="Path 91136" d="M5588.361,1224.155a12.759,12.759,0,0,0,2.336-5.353c.047-.262.448-.151.4.11a13.019,13.019,0,0,1-2.378,5.452C5588.56,1224.576,5588.2,1224.37,5588.361,1224.155Z" transform="translate(-5472.865 -1043.971)" fill="#dd6b4b"/>
        <path id="Path_91137" data-name="Path 91137" d="M5581.292,1227.327a15.063,15.063,0,0,0,2.312-6.121c.04-.263.438-.152.4.11a15.347,15.347,0,0,1-2.352,6.22C5581.5,1227.759,5581.148,1227.551,5581.292,1227.327Z" transform="translate(-5463.821 -1045.711)" fill="#dd6b4b"/>
        <path id="Path_91138" data-name="Path 91138" d="M5573.511,1228.063a11.064,11.064,0,0,0,1.627-4.8.207.207,0,0,1,.413,0,11.4,11.4,0,0,1-1.682,5.013C5573.747,1228.509,5573.387,1228.3,5573.511,1228.063Z" transform="translate(-5453.222 -1047.162)" fill="#dd6b4b"/>
        <path id="Path_91142" data-name="Path 91142" d="M5734.545,675.1c1.509.073.915-1.463.851-2.126a3.141,3.141,0,0,1,.118-1.3,1.758,1.758,0,0,1,1.17-1.2c.254-.08.363.32.11.4-2.163.676.543,4.772-2.25,4.637C5734.28,675.505,5734.278,675.09,5734.545,675.1Z" transform="translate(-5658.98 -647.001)" fill="#dd6b4b"/>
        <path id="Path_91143" data-name="Path 91143" d="M5636.766,1183.3a8.96,8.96,0,0,1-.193,2.838,3.917,3.917,0,0,1-.256.643c.14.037.279.07.419.1.052-.11.1-.222.139-.334.692-1.9.293-4.268.1-6.221-.442-4.392-1.39-8.71-1.981-13.08-.143-.016-.28-.033-.423-.044.452,3.354,1.111,6.677,1.6,10.025A56.119,56.119,0,0,1,5636.766,1183.3Z" transform="translate(-5531.786 -1006.711)" fill="#38284f"/>
      </g>
    </g>
  </g>
</svg>
