<svg xmlns="http://www.w3.org/2000/svg" width="197.094" height="160" viewBox="0 0 197.094 160">
  <g id="Group_17204" data-name="Group 17204" transform="translate(-90.65 -285.016)">
    <path id="Path_91144" data-name="Path 91144" d="M4136.361,351.813c-.773,3.646-2.25,7.18-6,8.545a17.792,17.792,0,0,1-5.661.843c-2.474.061-10.68.762-13.155.726-5.183-.074-4.637-1.026-9.806-1.4-10.138-.727-20.528-2.855-30.656-1.039-4.883.875-1.02,5.09-5.914,5.911-4.835.813-18.34-1.551-23.239-1.583-9.354-.059-24.658-.831-34.772-2l-.021,0c-1.019-.126-17.873-2.622-24.588-2.745h-.005c-1.9-.036-3.8.01-5.738.162a58.8,58.8,0,0,0-13.173,2.607,8.315,8.315,0,0,1-2.029.114,14.043,14.043,0,0,1-6.754-3.343c-1.075-.95-1.838-1.876-2.419-2.48-9.923-10.319-14.581-32.873-11.026-46.828a84.24,84.24,0,0,1,4.86-12.666,97.905,97.905,0,0,0,4.753-13.9,88.707,88.707,0,0,1,4.187-12.988,51.54,51.54,0,0,1,50.484-30.535,59.02,59.02,0,0,1,13.172,2.568c4.592,1.382,9.146,2.994,13.906,3.7,5.087.756,10.216.235,15.293-.34a88.131,88.131,0,0,1,14.905-.736,89.777,89.777,0,0,1,14.63,2.166,124.244,124.244,0,0,1,12.9,3.555c6.678,2.283,13.555,5.59,17.815,11.441,2.5,3.437,3.558,7.448,4.205,11.6.705,4.518,1.29,8.94,3.151,13.164,3.4,7.712,9.265,13.96,13.725,21.03a51.121,51.121,0,0,1,7.814,24.232C4137.464,336,4137.279,347.479,4136.361,351.813Z" transform="translate(-3849.567 68.734)" fill="#f1f2ff"/>
    <g id="Group_17201" data-name="Group 17201" transform="translate(95.631 285.016)">
      <path id="Path_91051" data-name="Path 91051" d="M5316.211,607.478a9.445,9.445,0,0,0-2.926-3.829,32.757,32.757,0,0,1-4.119-3.218,13.67,13.67,0,0,1-2.727-4.244,28.061,28.061,0,0,1-1.178-4.625,8.494,8.494,0,0,0-1.651-3.861,7.453,7.453,0,0,0-3.909-2.014,12.844,12.844,0,0,1-4.43-1.875,16.9,16.9,0,0,1-3.236-3.272c-1-1.272-1.913-2.614-2.895-3.9-.275-.362-.764-.978-1.23-.5a3.559,3.559,0,0,0-.821,1.8,1.652,1.652,0,0,0,.645,1.6,3.1,3.1,0,0,1,.889.852,2.1,2.1,0,0,1,.184,1.254c-.094.841-.442,1.627-.608,2.453a6.194,6.194,0,0,0-.029,2.231,6.087,6.087,0,0,0,2.272,3.822,6.32,6.32,0,0,0,1.923,1,6.229,6.229,0,0,0,1.068.238c.176.024.354.039.533.047.236.01.436-.083.474.187a5.348,5.348,0,0,1-.6,2.519,10.267,10.267,0,0,0-.732,2.286,5.306,5.306,0,0,0,1.1,3.906c1.98,2.634,5.434,3.1,8.436,2.19a12.43,12.43,0,0,0,2.118-.872c-.075.749.652,1.25,1.286,1.515a3.457,3.457,0,0,1,1.466.917c.27.323.488.694.786.993,1.411,1.417,2.625-1.48,2.906-2.673a19.084,19.084,0,0,1,3.04,2.331,9.7,9.7,0,0,1,1.983,3.255,18.982,18.982,0,0,1,.767,8.242c-.059.739-.132,1.477-.207,2.215-.011.111.163.11.174,0C5317.335,614.8,5317.693,610.951,5316.211,607.478Z" transform="translate(-5287.069 -556.506)" fill="#d5e4c5"/>
      <path id="Path_91052" data-name="Path 91052" d="M5448.558,450.134c-.518-.949-1.109-1.855-1.681-2.772a.089.089,0,0,0-.02-.031,24.949,24.949,0,0,1-1.4-2.474c-1.837-3.858-2.126-8.246-1.827-12.45.156-2.192.6-4.367.666-6.564a9.693,9.693,0,0,0-.38-3.179,14.779,14.779,0,0,0-1.333-2.79,15.287,15.287,0,0,1-2.088-6.179,13.927,13.927,0,0,1,.1-3.355,3.791,3.791,0,0,0-.05-1.979.993.993,0,0,0-1.339-.575,2.233,2.233,0,0,0-1.221,1.689c-.407,2.017,1.012,4.035.015,5.978a14.973,14.973,0,0,1-1.868,2.409,15.676,15.676,0,0,0-1.634,2.42,8.328,8.328,0,0,0-1.08,5.1,5.954,5.954,0,0,0,2.236,3.919,7.839,7.839,0,0,0,2.165.906,1.112,1.112,0,0,1,.794,1.392,12.723,12.723,0,0,1-.579,1.567,9.321,9.321,0,0,0-.554,5.842,5.192,5.192,0,0,0,1.193,2.121c.6.629,1.521,1.016,1.947,1.8.516.95-.24,2.025-.184,3.029a3.6,3.6,0,0,0,.807,2.053,3.337,3.337,0,0,0,4.023.9,3.449,3.449,0,0,0,1.523-1.353l.188.3a18.533,18.533,0,0,1,2.611,5.259,15.747,15.747,0,0,1-.158,6.632c-.4,2.194-.874,4.377-1.352,6.556q-.354,1.619-.718,3.237c-.024.109.144.155.168.046.518-2.323,1.036-4.646,1.515-6.978a35.989,35.989,0,0,0,1.011-6.765A11.443,11.443,0,0,0,5448.558,450.134Z" transform="translate(-5416.436 -407.704)" fill="#d5e4c5"/>
      <path id="Path_91053" data-name="Path 91053" d="M5518.854,931.078c.029-.011.048-.032.073-.079a.089.089,0,0,0-.014-.105.38.38,0,0,0-.063-.048c0-.03,0-.06,0-.09a.087.087,0,0,0-.174,0c0,.011,0,.022,0,.033a3.234,3.234,0,0,0-.418.009q-.639.005-1.28.007-1.194,0-2.388-.011-2.473-.027-4.946-.117a.079.079,0,0,0-.083.084v0l-.346,2.858a11.218,11.218,0,0,0-.2,2.615,3.058,3.058,0,0,0,.976,1.729,2.745,2.745,0,0,1,.589,2.57.109.109,0,0,0,0,.03.086.086,0,0,0,.063.145c2.75-.088,5.815.1,8.56-.1.839-.063-.231-.38-.232-.43Q5518.926,935.626,5518.854,931.078Z" transform="translate(-5483.327 -870.199)" fill="#62625a"/>
      <path id="Path_91054" data-name="Path 91054" d="M6613.208,885.06c-.259-.555-.96-.494-1.473-.515-.788-.033.311-.128-2.819.13l-.806.069h0a.04.04,0,0,0-.072.022q-.261,4.729-.521,9.459-.131,2.375-.262,4.749l-.131,2.374c-.021.366-.05.734-.06,1.1a1.626,1.626,0,0,0,.111.722c.258.555.959.494,1.472.516.788.033-.311.128,2.818-.13l.808-.069a.04.04,0,0,0,.072-.022q.26-4.729.521-9.459.131-2.375.262-4.749l.131-2.375c.021-.366.05-.734.059-1.1A1.625,1.625,0,0,0,6613.208,885.06Z" transform="translate(-6454.429 -829.367)" fill="#9ea0a3"/>
      <g id="Group_17196" data-name="Group 17196" transform="translate(94.021 21.256)">
        <path id="Path_91055" data-name="Path 91055" d="M6233.533,608.337a5.482,5.482,0,0,0-1.631-3.52c-1.08-1.071-2.642-1.366-4.476-1.521-5.8-.488-7.871,2.8-7.052,3.289.6.072.6,1.008.32,1.406.223.152.461.285.673.451a5.75,5.75,0,0,1,.969,1,42.441,42.441,0,0,1,3.014,4.506,33.167,33.167,0,0,0,2.517,4.492c.107.131.381.56.6.566.181.005.29-.191.392-.31.542-.634,1.048-1.421,1.6-2.047a12.041,12.041,0,0,0,2.228-3.356A9.663,9.663,0,0,0,6233.533,608.337Z" transform="translate(-6206.324 -601.892)" fill="#2c2c2c"/>
        <path id="Path_91056" data-name="Path 91056" d="M6107.941,813.173h.026c1.021.013,2.039-.025,3.059.019a58.74,58.74,0,0,0,9.954-.434c1.63-.209,3.253-.5,4.859-.848a9.275,9.275,0,0,0,3.7-1.508,12.617,12.617,0,0,0,1.417-1.209l.025-.1q.549-2.044,1.049-4.1.962-3.947,1.748-7.934c.864-4.374,2.371-10.436-1.682-13.724a17.694,17.694,0,0,0-3.222-1.921c-.91-.46-1.816-.929-2.727-1.389l-.562-.281-.025,0c-3.012.334-6.072.128-9.062.669a.745.745,0,0,1-.877-.464l-.275.118a24.033,24.033,0,0,0-5.565,2.764c-2.2,1.7-3.461,4.268-4.5,6.78-1.294,3.133-2.469,6.321-3.582,9.523a27.423,27.423,0,0,0-1.439,4.871,7.881,7.881,0,0,0,.53,4.249,6,6,0,0,0,3.275,3.3c1.28.547,2.579,1.052,3.876,1.561Z" transform="translate(-6100.171 -757.982)" fill="#2c2c2c"/>
        <path id="Path_91057" data-name="Path 91057" d="M6261.678,770.046q.6-.045,1.207-.074A8.2,8.2,0,0,0,6261.678,770.046Z" transform="translate(-6243.002 -749.337)" fill="#f0ded5"/>
        <path id="Path_91059" data-name="Path 91059" d="M6250.635,701.784a.494.494,0,0,0-.247-.066c-.182-.015-.364-.015-.546-.015-.352,0-.7.01-1.054.009a12.95,12.95,0,0,1-2.232-.258,7.661,7.661,0,0,0-2.122-.159c-.009-.1-.018-.2-.025-.307,0-.055-.078-.04-.074.015.008.1.016.2.024.3-.034.011-.026.069.006.081.228,2.856.45,5.713.684,8.569.066.819.146,1.638.29,2.449a.042.042,0,0,0,.046.035,40.76,40.76,0,0,0,4.323-.444q.24-.038.48-.079a2.026,2.026,0,0,0,.524-.1.147.147,0,0,0,.09-.115,2.99,2.99,0,0,0,.019-.615q.031-1.238.063-2.476c.04-1.61.077-3.223.006-4.839-.018-.383-.04-.766-.07-1.148-.016-.193-.023-.39-.053-.581A.355.355,0,0,0,6250.635,701.784Z" transform="translate(-6227.664 -688.299)" fill="#ffa57a"/>
        <path id="Path_91060" data-name="Path 91060" d="M6240.881,766.993c-2.165-1.057-4.881-1.949-7.07-.472a.083.083,0,0,0-.052.01,19.63,19.63,0,0,1-2.373,1.158,4.981,4.981,0,0,0,2.654,3.086,5.85,5.85,0,0,0,5.329-.355,7.681,7.681,0,0,0,2.235-1.985c.2-.257.4-.523.584-.792Q6241.537,767.315,6240.881,766.993Z" transform="translate(-6216.214 -745.598)" fill="#ffa57a"/>
        <path id="Path_91061" data-name="Path 91061" d="M6221.747,635.69c-.931.993-3.671,2.411-5.909,1.629-2.353-.822-2.432-5.2-2.454-6.677a27.077,27.077,0,0,1,.127-3q.056-.571.129-1.084a15.721,15.721,0,0,1,.74-3.209.154.154,0,0,0,.089-.075,3.131,3.131,0,0,1,.927-.922c2.4-.128,4.805.121,7.21.158.068.059.134.118.195.176a5.884,5.884,0,0,1,1.228,1.668,14.175,14.175,0,0,1,1.178,4.55C6225.411,630.437,6223.108,634.235,6221.747,635.69Z" transform="translate(-6200.292 -618.752)" fill="#ffa57a"/>
        <path id="Path_91062" data-name="Path 91062" d="M6262.131,676.475c-.018.438-.226.785-.465.775s-.42-.372-.4-.809.225-.785.465-.775S6262.148,676.037,6262.131,676.475Z" transform="translate(-6242.635 -665.936)" fill="#38284f"/>
        <path id="Path_91063" data-name="Path 91063" d="M6222.647,673.786c-.017.438-.225.785-.465.775s-.42-.372-.4-.809.226-.785.465-.775S6222.665,673.348,6222.647,673.786Z" transform="translate(-6207.717 -663.558)" fill="#38284f"/>
        <path id="Path_91064" data-name="Path 91064" d="M6234.489,683.292c-.453.1-.736-.319-.728-.729a2.282,2.282,0,0,1,.281-.891c.2-.421.4-.839.6-1.259.047-.1-.1-.194-.146-.094q-.3.629-.6,1.259a2.348,2.348,0,0,0-.311,1.043.8.8,0,0,0,.943.839A.087.087,0,0,0,6234.489,683.292Z" transform="translate(-6218.158 -670.015)" fill="#dd6b4b"/>
        <path id="Path_91065" data-name="Path 91065" d="M6233.133,718.112l-.221-.023q-1.447-.143-2.9-.186l-.206-.005a.088.088,0,0,0-.083.125,1.941,1.941,0,0,0,1.737,1.505c.816.021,1.3-.706,1.739-1.281A.088.088,0,0,0,6233.133,718.112Z" transform="translate(-6214.737 -703.285)" fill="#dd6b4b"/>
        <path id="Path_91066" data-name="Path 91066" d="M6232.276,717.945c.11.7.98.718,1.568.746.324.015.727.112,1-.108a1.183,1.183,0,0,0,.327-.452Q6233.728,717.989,6232.276,717.945Z" transform="translate(-6217 -703.327)" fill="#fff"/>
        <path id="Path_91067" data-name="Path 91067" d="M6256.952,658.227a.7.7,0,0,0-.5-.342,3.425,3.425,0,0,0-2.479.079c-.569.31-.575.857.13.927.521.052,1.065-.056,1.589-.056a1.982,1.982,0,0,0,1.051-.122A.392.392,0,0,0,6256.952,658.227Z" transform="translate(-6235.826 -650.041)" fill="#2c2c2c"/>
        <path id="Path_91068" data-name="Path 91068" d="M6217.354,655.035a.7.7,0,0,0-.439-.412,3.915,3.915,0,0,0-2.1-.386q-.073.512-.13,1.084c.437.072.9.064,1.333.13a1.989,1.989,0,0,0,1.057.035A.393.393,0,0,0,6217.354,655.035Z" transform="translate(-6201.447 -646.957)" fill="#2c2c2c"/>
        <path id="Path_91069" data-name="Path 91069" d="M6233.566,614.413a6.356,6.356,0,0,0-1.333-3.115,9.813,9.813,0,0,0-5.29-3.694c-1.526.408-3.034.886-4.586,1.183-.118.17-.255.332-.359.494a3.691,3.691,0,0,0-.238.476c-.018.123-.031.248-.044.376a.916.916,0,0,1-.067.266,28.525,28.525,0,0,1,4.3-.157,4.934,4.934,0,0,1,3.728,1.407,3.075,3.075,0,0,1,.833,1.417,14.654,14.654,0,0,1,.2,2.3,1.837,1.837,0,0,0,.427,1.2.917.917,0,0,0,.294.179,1.713,1.713,0,0,1,.332,1.953,13.022,13.022,0,0,1-1,1.56l-.019.037a10.777,10.777,0,0,0,.1,1.3c.127-.177.256-.349.406-.577.31-.471.567-.982.832-1.48.379-.712,1.073-1.646.941-2.51.224-.114.268-.431.33-.7A6.591,6.591,0,0,0,6233.566,614.413Z" transform="translate(-6207.603 -605.745)" fill="#2c2c2c"/>
        <path id="Path_91070" data-name="Path 91070" d="M6300.479,686.971a1.047,1.047,0,0,0-1.647-.838.087.087,0,0,0,.083.151.085.085,0,0,0-.009.034c-.069,1.045-.439,2.031-.433,3.092a.088.088,0,0,0,.148.061C6299.4,688.837,6300.537,688.122,6300.479,686.971Z" transform="translate(-6275.543 -675.042)" fill="#ffa57a"/>
        <path id="Path_91071" data-name="Path 91071" d="M6296.644,689.927a.935.935,0,0,0-.579.44c-.171.312-.135.97-.615,1-.111.006-.111.18,0,.174a.641.641,0,0,0,.559-.443c.175-.419.163-.85.683-1A.087.087,0,0,0,6296.644,689.927Z" transform="translate(-6272.795 -678.545)" fill="#dd6b4b"/>
        <path id="Path_91072" data-name="Path 91072" d="M6294.383,713.608a.544.544,0,0,1-.592.133c-.105-.038-.151.129-.046.168a.717.717,0,0,0,.762-.178C6294.583,713.651,6294.46,713.528,6294.383,713.608Z" transform="translate(-6271.309 -699.469)" fill="#dd6b4b"/>
        <path id="Path_91073" data-name="Path 91073" d="M6216.093,593.239a1.346,1.346,0,0,0-.607-.465,2.217,2.217,0,0,0-.4-.1c-.174-.036-.173-.019-.26-.173a1.679,1.679,0,0,0-1.261-.93,3.824,3.824,0,0,0-1.973.233,4.576,4.576,0,0,0-1.47,1.145,4.034,4.034,0,0,1-.872.7,5.723,5.723,0,0,0-.935.523,3.537,3.537,0,0,0-.986,1.687,7.973,7.973,0,0,0,.235,4.963.088.088,0,0,0,.107.061c.771-.224.71-1.374,1.144-1.915.679-.848,1.863-.925,2.829-1.219a3.62,3.62,0,0,0,2.585-3.064,2.846,2.846,0,0,0,1.613-.346A.744.744,0,0,0,6216.093,593.239Z" transform="translate(-6194.675 -591.527)" fill="#2c2c2c"/>
        <path id="Path_91074" data-name="Path 91074" d="M6277.266,601.248c-.267-.928-1.211-1.515-1.405-2.473a8.839,8.839,0,0,1,.147-1.681,2.188,2.188,0,0,0-.473-1.257,4.541,4.541,0,0,0-2.522-1.478,2.018,2.018,0,0,1-.914-.55,3.283,3.283,0,0,0-.557-.534,2.3,2.3,0,0,0-1.309-.371,2.983,2.983,0,0,0-2.37,1.449c-.047-.083-.192-.04-.153.053a7.1,7.1,0,0,0,1.769,2.532,13.656,13.656,0,0,1,1.183,1.116c.449.516.849,1.082,1.247,1.636a15.175,15.175,0,0,1,.944,1.454c.258.461.428.983.724,1.421a1.737,1.737,0,0,0,2.2.481C6276.566,602.723,6277.554,602.252,6277.266,601.248Z" transform="translate(-6248.332 -592.744)" fill="#2c2c2c"/>
        <path id="Path_91075" data-name="Path 91075" d="M6296.887,822.248c-2.489,3.213-3.411,7.26-4.405,11.116a114.536,114.536,0,0,0-2.828,13.3,49.06,49.06,0,0,0-.455,7.821.087.087,0,0,0,.174,0A57.793,57.793,0,0,1,6290.826,841c.464-2.19,1-4.365,1.553-6.534.515-2.013,1-4.039,1.635-6.019a19.457,19.457,0,0,1,3-6.077C6297.078,822.283,6296.956,822.159,6296.887,822.248Z" transform="translate(-6267.328 -795.542)" fill="#c9b3b3"/>
        <path id="Path_91076" data-name="Path 91076" d="M6161.25,837.959a.087.087,0,0,0-.174,0,13.551,13.551,0,0,1-.472,3.652,7.7,7.7,0,0,0-.1-1.329c-.018-.11-.185-.063-.167.046a7.42,7.42,0,0,1,.057,1.89.068.068,0,0,0,.033.069,26.065,26.065,0,0,0-1.225,5.817c-.063,1.862.17,3.7-.029,5.558-.2,1.831-.6,3.629-.952,5.434a25.5,25.5,0,0,0-.6,5.972c0,.111.179.112.174,0-.164-3.66,1-7.177,1.474-10.771a20.7,20.7,0,0,0,.194-2.71c0-.941-.083-1.88-.094-2.821a18.376,18.376,0,0,1,.883-5.214A18.733,18.733,0,0,0,6161.25,837.959Z" transform="translate(-6150.969 -809.389)" fill="#c9b3b3"/>
        <path id="Path_91077" data-name="Path 91077" d="M6216.725,629.579a10.026,10.026,0,0,0-1.742.937,2.827,2.827,0,0,0-.869,1.5c-.025.109.143.155.168.046a2.651,2.651,0,0,1,1.012-1.572c.462-.334,1.03-.471,1.52-.759A.087.087,0,0,0,6216.725,629.579Z" transform="translate(-6200.936 -625.168)" fill="#584978"/>
        <path id="Path_91078" data-name="Path 91078" d="M6312.081,649.781a2.2,2.2,0,0,1-2.268-2.316c0-.112-.17-.112-.173,0a2.377,2.377,0,0,0,2.441,2.49A.087.087,0,0,0,6312.081,649.781Z" transform="translate(-6285.416 -640.923)" fill="#584978"/>
        <path id="Path_91079" data-name="Path 91079" d="M6311.209,669.924a1.672,1.672,0,0,1-.824.081c-.25-.042-.729-.177-.743-.5,0-.111-.178-.112-.173,0,.031.764,1.283.762,1.786.59C6311.361,670.056,6311.315,669.888,6311.209,669.924Z" transform="translate(-6285.268 -660.411)" fill="#584978"/>
      </g>
      <path id="Path_91080" data-name="Path 91080" d="M5603.368,1016.974c0,.487,0,.974-.011,1.46-.086,6-.271,12.005-.41,18.007q-.209,9.04-.418,18.082-.21,9.083-.421,18.165-.1,4.5-.208,9c-.013.556-.061,2.843-.119,5.6,0,.028,0,.056,0,.085,0,.182-.008.365-.012.55-.032.038-.062.076-.1.113a7.08,7.08,0,0,1-2.393,1.661,6.627,6.627,0,0,0-1.232.73c-.059.045-.118.093-.174.143a3.635,3.635,0,0,0-.648.733,13.558,13.558,0,0,0-1.729,4.4q-.078.327-.147.657c-.755,0-3.058-.005-6.567-.01h-.166l-8.32-.01h-.166l-8.894-.011h-.166l-8.071-.011h-.167l-8.893-.015h-.165l-2.582,0h-.086l-5.625-.01h-.165l-8.895-.018h-.167l-2.069-.005h-.078l-5.923-.015h-.167l-6.006-.017-2.888-.009h-.166l-7.041-.023h-.167l-3.921-.014h-.078l-4.894-.018h-.166l-8.07-.035h-.166c-3.037-.015-6.011-.029-8.893-.045h-.167l-3.318-.019H5482l-4.892-.03-.167,0q-2.286-.016-4.455-.031l-4.436-.036-.166,0c-2.921-.025-5.626-.052-8.068-.082l-.167,0q-1.514-.017-2.891-.037h-.078c-2.293-.031-4.28-.065-5.911-.1.018-.394.028-.786.032-1.178,0-.294,0-.588-.006-.879a9.271,9.271,0,0,0-.091-1.16,4.544,4.544,0,0,0-2.954-3.914,10.234,10.234,0,0,0-1.3-.372q-.2-.042-.4-.081c-.383-.075-.769-.145-1.149-.236l-.014,0c.092-6.064.364-16.613.432-19.53l.4-17.082q.2-8.5.394-17l.2-8.5c.064-2.767.168-5.537.161-8.306,0-.177,0-.354,0-.532,0-.149,0-.3-.006-.447l0-.174c-.023-1.109-.081-2.219-.194-3.322a.044.044,0,0,1,.016-.084l1.8-.007,26.96-.109h.087l4.392-.017c4.617-.018,9.708-.036,14.993-.056,12.705-.044,26.537-.089,37.639-.134h.087l11.684-.047,9.774-.039h.087l30.354-.122,18.974-.076h.051c0,.014,0,.029,0,.043.138,1.318.192,2.644.205,3.971,0,.058,0,.116,0,.174C5603.367,1016.676,5603.368,1016.826,5603.368,1016.974Z" transform="translate(-5426.637 -942.423)" fill="#38539a"/>
      <path id="Path_91081" data-name="Path 91081" d="M6436.674,1012.283h-.051l-47.034.194q-.423,17.59-.944,35.2-.677,22.738-1.523,45.471c-.038,1.038-.075,2.065-.114,3.1,0,0,39.092.057,41.527.066.047-.22.1-.439.147-.657a13.588,13.588,0,0,1,1.729-4.4,4.746,4.746,0,0,1,2.055-1.606,7.084,7.084,0,0,0,2.393-1.661c.033-.037.064-.075.1-.113,0-.185.008-.368.013-.55,0-.029,0-.057,0-.085.059-2.755.106-5.042.12-5.6q.1-4.5.208-9,.209-9.082.42-18.165.21-9.042.419-18.083c.139-6,.324-12,.41-18.007q.012-.729.011-1.46A45.113,45.113,0,0,0,6436.674,1012.283Z" transform="translate(-6259.819 -942.373)" fill="#314a90"/>
      <path id="Path_91082" data-name="Path 91082" d="M5544.581,1096.994a18.4,18.4,0,0,1-3.1-5.008,33.969,33.969,0,0,0-1.959-5.133c-1.524-2.664-4.3-4.2-6.55-6.165a9.978,9.978,0,0,1-2.876-3.786,12,12,0,0,1-.482-5.662c.2-1.911.6-3.8.733-5.717a22.543,22.543,0,0,0-.264-5.344,22.808,22.808,0,0,0-4.237-9.9c-2.224-2.955-5.114-5.476-6.355-9.06-1.3-3.753-.908-7.829-.405-11.69.522-4.005,1.231-8.194.233-12.186a13.943,13.943,0,0,0-.423-1.388c-5.286.019-10.376.037-14.993.056l-4.392.017h-.088l-26.96.109a49.325,49.325,0,0,1,3.049,14.093c.107,1.64.068,3.285.177,4.924a10.36,10.36,0,0,0,1.029,4.188,15.453,15.453,0,0,0,2.585,3.288,17.354,17.354,0,0,1,2.7,3.423,15.1,15.1,0,0,1,1.459,4.019c.627,2.773.75,5.627,1.233,8.426a20.445,20.445,0,0,0,1.07,4.037,17.718,17.718,0,0,0,2.167,3.836c1.778,2.477,3.815,4.729,5.207,7.466,2.742,5.389,3.347,11.54,3.56,17.494.094,2.623.11,5.248.172,7.871,13.965.105,31.8.177,49.526.228C5545.826,1098.57,5545.187,1097.751,5544.581,1096.994Z" transform="translate(-5451.021 -945.627)" fill="#314a90"/>
      <path id="Path_91083" data-name="Path 91083" d="M6539.236,790.307c-.257-.561-.956-.516-1.466-.548-.626-.04-17,.095-23.746-.01a9.7,9.7,0,0,0-1.167.044l-.164.02c-1.792.242-1.665,1.088-1.687,1.518q-.217,3.948-.435,7.9-.13,2.372-.261,4.744l-.129,2.371c-.021.366-.051.733-.059,1.1a1.639,1.639,0,0,0,.109.725c.245.535.892.518,1.394.545l.072,0,.1,0c1.776.056,22.665.229,25.7.045l.8-.051a.039.039,0,0,0,.071-.021c.173-3.148.91-16.561.91-16.561.021-.366.05-.732.059-1.1A1.646,1.646,0,0,0,6539.236,790.307Z" transform="translate(-6368.697 -745.57)" fill="#9ea0a3"/>
      <path id="Path_91084" data-name="Path 91084" d="M6539.124,789.893q-.042.882-.087,1.766c-.2,4.069-.437,8.136-.668,12.2-.1,1.652-.19,3.361-.308,5.012-.046,0-.146,0-.17,0,.448-6.291.785-12.656,1.07-18.96Z" transform="translate(-6393.255 -745.7)" fill="#584978"/>
      <path id="Path_91085" data-name="Path 91085" d="M6624.572,960.58q.139-2.547.269-5.1.045-.883.087-1.766l-.163.02q-.155,3.412-.333,6.841A1.031,1.031,0,0,1,6624.572,960.58Z" transform="translate(-6469.79 -890.582)" fill="#584978"/>
      <path id="Path_91086" data-name="Path 91086" d="M5615.333,1047.058H5458.419c0,.058,0,.116,0,.174h156.912C5615.334,1047.174,5615.334,1047.116,5615.333,1047.058Z" transform="translate(-5438.606 -973.128)" fill="#38284f"/>
      <path id="Path_91087" data-name="Path 91087" d="M5601.618,1664.6H5444.705c0,.058,0,.116,0,.174H5601.62C5601.62,1664.718,5601.62,1664.66,5601.618,1664.6Z" transform="translate(-5426.477 -1519.263)" fill="#38284f"/>
      <path id="Path_91088" data-name="Path 91088" d="M5600.972,1081.722c-.24,8.07-.722,22.8-1.2,36.955h.17c.165-4.778.307-8.921.4-11.535.511-15.05.973-30.35,1.375-45.476.127-4.788.25-9.624.364-14.385h-.174C5601.626,1058.661,5601.314,1070.245,5600.972,1081.722Zm-8.455-.073c-.24,8.084-.724,22.853-1.205,37.028h.17c.174-5.034.319-9.279.4-11.608.51-15.038.973-30.339,1.375-45.476.126-4.764.248-9.574.362-14.312h-.174C5593.169,1058.653,5592.857,1070.211,5592.517,1081.649Zm-9.068.2c-.253,8.516-.73,23.051-1.2,36.825h.17c.164-4.725.3-8.816.392-11.4.511-15.038.973-30.339,1.375-45.476.127-4.788.25-9.669.367-14.516h-.173C5584.105,1058.707,5583.792,1070.336,5583.449,1081.853Zm-8.24.065c-.253,8.5-.729,23.006-1.195,36.76h.17c.162-4.69.3-8.755.389-11.339.511-15.042.973-30.342,1.375-45.476.128-4.843.251-9.746.369-14.581h-.174C5575.867,1058.728,5575.553,1070.379,5575.209,1081.918Zm70.6-34.7c-.273,11.315-.584,22.829-.924,34.238-.256,8.6-.74,23.333-1.212,37.224h.171c.175-5.068.323-9.375.4-11.8.511-15.05.973-30.35,1.375-45.476.125-4.72.246-9.486.358-14.182Zm-27.529,34.238c-.256,8.6-.74,23.333-1.211,37.224h.17c.178-5.126.326-9.452.405-11.8.511-15.05.974-30.35,1.375-45.476.124-4.7.245-9.442.358-14.117h-.175C5618.928,1058.575,5618.619,1070.067,5618.279,1081.454Zm17.539.2c-.241,8.083-.724,22.848-1.2,37.02h.17c.166-4.805.309-8.974.4-11.6.511-15.05.974-30.35,1.375-45.476.126-4.788.249-9.624.364-14.385h-.174C5636.472,1058.6,5636.16,1070.18,5635.818,1081.657Zm-8.472-.406c-.256,8.64-.744,23.476-1.218,37.426h.17c.178-5.144.328-9.53.412-12.006.511-15.05.973-30.35,1.375-45.476.123-4.631.241-9.305.353-13.914h-.174C5627.992,1058.51,5627.683,1069.932,5627.346,1081.251Zm-17.307.268c-.256,8.585-.739,23.287-1.209,37.159h.17c.175-5.04.321-9.32.4-11.738.511-15.05.973-30.35,1.375-45.476.125-4.72.246-9.486.359-14.182h-.174C5610.689,1058.6,5610.378,1070.11,5610.039,1081.519Zm-103.225.79c-.251,8.422-.72,22.732-1.183,36.369h.17c.162-4.685.3-8.644.375-10.948.511-15.05.974-30.35,1.375-45.476.131-4.984.259-10.021.377-14.972h-.173C5507.479,1058.85,5507.162,1070.634,5506.814,1082.309Zm17.307-.268c-.239,8.01-.715,22.582-1.191,36.637h.171c.166-4.807.305-8.875.384-11.217.511-15.05.974-30.35,1.375-45.476.129-4.9.254-9.839.372-14.7h-.173C5524.781,1058.764,5524.466,1070.456,5524.121,1082.04Zm-9.067.2c-.251,8.435-.722,22.777-1.185,36.434h.17c.163-4.711.3-8.7.379-11.013.51-15.042.973-30.343,1.375-45.476.131-4.951.257-9.966.376-14.906H5516C5515.717,1058.833,5515.4,1070.6,5515.054,1082.243Zm-16.365-34.761c-.278,11.573-.6,23.359-.942,35.028-.25,8.38-.716,22.59-1.175,36.166h.171c.158-4.594.291-8.473.368-10.746.511-15.042.974-30.342,1.375-45.476.132-4.972.259-10.009.378-14.971l0-.194-.173,0Zm60.261,34.16c-.254,8.56-.735,23.2-1.205,37.035h.171c.172-4.973.317-9.2.4-11.615.51-15.042.972-30.342,1.374-45.476.126-4.751.248-9.559.363-14.305h-.174C5559.6,1058.64,5559.292,1070.2,5558.951,1081.642Zm7.192.478c-.253,8.46-.725,22.864-1.189,36.557h.17c.166-4.765.3-8.8.382-11.137.511-15.042.974-30.342,1.375-45.476.13-4.91.256-9.882.374-14.783h-.174C5566.8,1058.794,5566.488,1070.514,5566.143,1082.12Zm-16.259-.275c-.254,8.517-.731,23.056-1.2,36.832h.171c.169-4.885.311-9.029.392-11.411.511-15.043.973-30.343,1.375-45.477.127-4.818.251-9.7.367-14.508h-.174C5550.54,1058.706,5550.227,1070.332,5549.884,1081.846Zm-8.24.065c-.253,8.5-.729,23.011-1.2,36.767h.17c.168-4.859.31-8.977.39-11.346.511-15.05.974-30.351,1.375-45.477.128-4.85.252-9.75.368-14.573h-.174C5542.3,1058.722,5541.987,1070.37,5541.644,1081.911Zm-9.067.2c-.251,8.463-.725,22.869-1.189,36.564h.17c.165-4.768.3-8.805.382-11.144.511-15.042.974-30.342,1.375-45.476.13-4.907.255-9.877.374-14.776h-.174C5533.237,1058.792,5532.922,1070.51,5532.576,1082.113Z" transform="translate(-5472.347 -973.267)" fill="#38284f"/>
      <path id="Path_91089" data-name="Path 91089" d="M6665.29,953.837a10.42,10.42,0,0,1-3.032-1,2.842,2.842,0,0,1-1.053-1.049,14.025,14.025,0,0,1-.53-1.346,4.29,4.29,0,0,0-1.624-1.73,4.937,4.937,0,0,1-1.852-2.5c-.034-.106-.2-.061-.168.046a4.893,4.893,0,0,0,1.529,2.3c.375.31.792.564,1.161.882a3.273,3.273,0,0,1,.948,1.483,3.548,3.548,0,0,0,1.445,2.037,10.247,10.247,0,0,0,3.131,1.056C6665.353,954.03,6665.4,953.863,6665.29,953.837Z" transform="translate(-6498.614 -883.881)" fill="#38284f"/>
      <g id="Group_17200" data-name="Group 17200" transform="translate(21.437 20.546)">
        <g id="Group_17202" data-name="Group 17202" transform="translate(55.881 37.544)">
          <g id="Group_14868" data-name="Group 14868" transform="translate(2.292 0)">
            <g id="Group_14867" data-name="Group 14867">
              <rect id="Rectangle_5282" data-name="Rectangle 5282" width="21.715" height="12.198" rx="1" fill="#c7875c"/>
            </g>
          </g>
          <g id="Group_14891" data-name="Group 14891" transform="translate(0 0)">
            <g id="Group_14890" data-name="Group 14890">
              <path id="Path_90081" data-name="Path 90081" d="M1069.336,577.218v12.2H1050.79a.228.228,0,0,1-.229-.229V577.447a.23.23,0,0,1,.229-.229Z" transform="translate(-1050.561 -577.218)" fill="#dea57e"/>
            </g>
          </g>
          <g id="Group_14893" data-name="Group 14893" transform="translate(0 4.927)">
            <g id="Group_14892" data-name="Group 14892">
              <rect id="Rectangle_5283" data-name="Rectangle 5283" width="18.775" height="1.891" fill="#c7875c"/>
            </g>
          </g>
          <g id="Group_14895" data-name="Group 14895" transform="translate(8.542 0)">
            <g id="Group_14894" data-name="Group 14894" transform="translate(0)">
              <rect id="Rectangle_5284" data-name="Rectangle 5284" width="1.753" height="12.197" fill="#c7875c"/>
            </g>
          </g>
        </g>
        <g id="Group_17203" data-name="Group 17203" transform="translate(58.384 28.874)">
          <g id="Group_14910" data-name="Group 14910" transform="translate(0 0)">
            <g id="Group_14909" data-name="Group 14909">
              <path id="Path_90088" data-name="Path 90088" d="M1086.682,513.178v8.212a.228.228,0,0,1-.229.229h-17.111a.228.228,0,0,1-.229-.229v-8.212a.227.227,0,0,1,.229-.229h17.111A.227.227,0,0,1,1086.682,513.178Z" transform="translate(-1069.113 -512.949)" fill="#f5b785"/>
            </g>
          </g>
          <g id="Group_14912" data-name="Group 14912" transform="translate(0 0)">
            <g id="Group_14911" data-name="Group 14911">
              <path id="Path_90089" data-name="Path 90089" d="M1080.5,512.949v8.67h-11.161a.228.228,0,0,1-.229-.229v-8.212a.227.227,0,0,1,.229-.229Z" transform="translate(-1069.113 -512.949)" fill="#ffcda4"/>
            </g>
          </g>
          <g id="Group_14915" data-name="Group 14915" transform="translate(5.533 0)">
            <g id="Group_14914" data-name="Group 14914" transform="translate(0)">
              <g id="Group_14913" data-name="Group 14913">
                <rect id="Rectangle_5285" data-name="Rectangle 5285" width="0.135" height="8.67" fill="#f5b785"/>
              </g>
            </g>
          </g>
        </g>
        <path id="Path_91091" data-name="Path 91091" d="M5961.1,810.466h-.025a5.756,5.756,0,0,0-.771-.743,1.774,1.774,0,0,0-.424-.267,1.725,1.725,0,0,0-.622-.093c-.5-.01-1.007-.017-1.511-.025a2.434,2.434,0,0,0-2.752,1.948c-.184.442-.352.891-.527,1.336l-.27.687c-.094.24-.21.484-.281.733-.1.374.1.606.452.7.51.143,1.049.212,1.57.311-.05.06-.1.121-.145.185-.025.035.034.069.059.034a2.8,2.8,0,0,1,1.028-.881c.407-.2.864-.237,1.279-.416a4.527,4.527,0,0,0,1.109-.872l1.158-1.03a4.732,4.732,0,0,0,.964-.977C5961.569,810.809,5961.465,810.5,5961.1,810.466Zm-1.281.756a6.394,6.394,0,0,1-.941.428,4.711,4.711,0,0,0-1.133.676,4.672,4.672,0,0,1,.862-1.057A1.066,1.066,0,0,1,5959.821,811.223Z" transform="translate(-5898.011 -783.438)" fill="#ffae94"/>
        <path id="Path_91092" data-name="Path 91092" d="M5750.5,603.814a19.769,19.769,0,0,0,.074-5.757c-.154-.925-.243-3.115-.968-4.331-.441-.742-.448.012-.946-.7a5.779,5.779,0,0,0-.376-.478l.061-.027c.051-.021.029-.1-.023-.084-.034.014-.067.029-.1.044a5.068,5.068,0,0,0-.377-.376c-.041-.037-.1.024-.062.061a4.871,4.871,0,0,1,.356.355,3.389,3.389,0,0,0-1.348,1.5,16.382,16.382,0,0,0-1.055,2.62c-.616,1.881-1.256,3.766-1.773,5.678a29.257,29.257,0,0,0-.935,5.881c-.059.989-.086,1.983-.057,2.973a11.424,11.424,0,0,0,.37,2.785,3.636,3.636,0,0,0,1.246,1.985,5.978,5.978,0,0,0,1.148.63c.459.206.921.407,1.383.608.654.284,1.587.854,2.26.326.7-.546.529-1.54.661-2.307a11.1,11.1,0,0,1,.388-1.348,4.281,4.281,0,0,0,.209-1.338,28.973,28.973,0,0,0-.442-2.909A24.19,24.19,0,0,1,5750.5,603.814Z" transform="translate(-5711.473 -591.321)" fill="#bd6655"/>
        <path id="Path_91093" data-name="Path 91093" d="M5685.571,587.974a2.867,2.867,0,0,0-.828-1.143,6.078,6.078,0,0,0-3.058-1.254,16.572,16.572,0,0,0-3.827-.14,5.319,5.319,0,0,0-3.334,1.271,7.072,7.072,0,0,0-.717.6,6.7,6.7,0,0,0-1.139,1.511,10.815,10.815,0,0,0-1.254,3.848,33.479,33.479,0,0,0-.088,4.493,15.316,15.316,0,0,1-.138,2.283c-.108.724-.316,1.426-.47,2.141a3.527,3.527,0,0,0-.111,2.229,4.6,4.6,0,0,0,.228.832,3.3,3.3,0,0,1,.068,1.127,10.16,10.16,0,0,0-.375,2.811,2.045,2.045,0,0,0,.153.524c.027.06.07.193.128.232a1.2,1.2,0,0,0,.267.074,3.207,3.207,0,0,1,1.207.748,9.015,9.015,0,0,1,.938,1.084,6.5,6.5,0,0,0,.915,1.061,2.62,2.62,0,0,0,1.388.454l1.637.231a1.182,1.182,0,0,0,.828.462,1.228,1.228,0,0,0,1.169-.9,13.052,13.052,0,0,0,.66-2.192c.185-.793.333-1.594.492-2.392a46.96,46.96,0,0,1,2.86-9.307c.35-.822.714-1.641.981-2.5a12.7,12.7,0,0,0,.5-2.449c.01.035.068.045.077,0,.285-1.36.575-2.72.855-4.081A2.985,2.985,0,0,0,5685.571,587.974Z" transform="translate(-5647.356 -585.387)" fill="#bd6655"/>
        <path id="Path_91094" data-name="Path 91094" d="M5725.656,1706.574a.728.728,0,0,0-.258-.34,1.811,1.811,0,0,0-.289-.14,9.559,9.559,0,0,1-4.478-3.4,21.449,21.449,0,0,1-1.6-2.774c-.482-.948-1.337-3.544-1.365-3.554-.213-.071-2.041-.042-2.7-.04a.036.036,0,0,0-.021.007.031.031,0,0,0-.016.03,7.26,7.26,0,0,1-.358,2.132,6.849,6.849,0,0,0-.3,2.021,22.835,22.835,0,0,0,.907,4.084,10.65,10.65,0,0,1,.231,2.435.038.038,0,0,0,.037.037l.53-.053a.038.038,0,0,0,.037-.037,16.4,16.4,0,0,1,.1-2.7,1.826,1.826,0,0,1,.523-1.033.649.649,0,0,1,.711-.11,4.83,4.83,0,0,1,.919,1.587,3.558,3.558,0,0,0,1.434,1.911,6.029,6.029,0,0,0,2.7.53l1.525.074.763.037.363.018a1.536,1.536,0,0,0,.369.01C5725.727,1707.242,5725.743,1706.8,5725.656,1706.574Z" transform="translate(-5686.099 -1567.86)" fill="#2c2c2c"/>
        <path id="Path_91095" data-name="Path 91095" d="M5509.759,1514.157a.471.471,0,0,0,.081-.5,1.967,1.967,0,0,0-.6-.522,18.191,18.191,0,0,0-2.378-1.5q1.59-2.566,3.1-5.18.281-.486.559-.974c.027-.048-.043-.1-.071-.05q-1.775,3.115-3.663,6.162-.787-.411-1.611-.746c-.052-.021-.081.061-.029.082q.815.331,1.594.739-.431.695-.867,1.386-2.375,3.758-4.921,7.4-1.433,2.053-2.919,4.067a.044.044,0,0,0,.01.061l2.508,1.641a.044.044,0,0,0,.061-.01c1.16-1.528.988-2.11,2.148-3.639.582-.767,2.5-2.481,3.078-3.248l2.639-3.478C5508.9,1515.285,5509.359,1514.736,5509.759,1514.157Z" transform="translate(-5494.859 -1399.023)" fill="#38284f"/>
        <path id="Path_91096" data-name="Path 91096" d="M5707.408,1546.573a.472.472,0,0,0-.226-.458,1.962,1.962,0,0,0-.789-.081,18.2,18.2,0,0,0-2.808.152q-.187-3.012-.467-6.018c-.036-.373-.071-.745-.108-1.117-.005-.055-.093-.056-.087,0q.354,3.567.576,7.146c-.586.08-1.169.188-1.746.323-.054.013-.031.1.023.084q.856-.2,1.729-.319.05.816.094,1.632.236,4.439.267,8.886.018,2.5-.03,5.006a.044.044,0,0,0,.044.043l2.994-.112a.045.045,0,0,0,.044-.043c.062-1.918-.415-2.293-.352-4.211.031-.963.6-3.468.633-4.43q.07-2.182.142-4.364C5707.363,1547.988,5707.417,1547.277,5707.408,1546.573Z" transform="translate(-5675.001 -1428.739)" fill="#38284f"/>
        <path id="Path_91097" data-name="Path 91097" d="M5612.04,788.254c.033-.227.11-.621-.132-.759a3.887,3.887,0,0,0-.473-.17,5.061,5.061,0,0,1-.661-.32,5.143,5.143,0,0,1-.5-.329,2.11,2.11,0,0,0-.444-.3c-.6-.246-.926.465-1.1.909a22.553,22.553,0,0,1-1.107,2.419,16.745,16.745,0,0,0-1.729.452,4.474,4.474,0,0,0-1.956,1.892,14.216,14.216,0,0,0-1.171,3.142c-.147.5-.314.983-.5,1.46-.344.507-.819,1.04-1.481.909a1.221,1.221,0,0,1-.737-.643c-.184-.289-.357-.583-.525-.881a35.468,35.468,0,0,1-1.774-3.728c-.563-1.343-1.095-2.707-1.691-4.038a15.969,15.969,0,0,0-2.082-3.816,6.371,6.371,0,0,0-.631-.749,12.945,12.945,0,0,0-2.789-2.2c-.559-.342-1.133-.661-1.708-.978l-.384-.21c-.318-.174-.635-.348-.949-.525q-.376-.21-.744-.432a6.383,6.383,0,0,1-3.048.261,19.861,19.861,0,0,1-4.822-.968c-.112.075-.225.151-.339.224-.443.287-.895.56-1.351.826-.7.412-1.415.811-2.115,1.225-.3.176-.6.357-.892.542a15.28,15.28,0,0,0-2.9,2.272,11.435,11.435,0,0,0-2.2,3.41,39.194,39.194,0,0,0-1.4,4.06c-.471,1.527-.94,3.055-1.371,4.594a53.254,53.254,0,0,0-1.868,9.281q-.113,1.176-.145,2.358a3.606,3.606,0,0,0,.269,1.8,2.419,2.419,0,0,0,1.427,1.031,9.083,9.083,0,0,0,2.2.481c.2.018.39.029.586.034a.045.045,0,0,0,.071,0c.176,0,.352,0,.528,0,.056,0,.056-.089,0-.087-.166.006-.332.007-.5,0a41.188,41.188,0,0,0,1.075-4.082c.3-1.423.5-2.865.8-4.288a64.223,64.223,0,0,1,2.406-8.158c.073-.2.147-.408.222-.612.047.2.384,5.071.307,7.31-.024.712-.054,1.424-.078,2.137a4.1,4.1,0,0,0,.362,1.807c.633,1.387,2.048.309,2.521.667.407.307-.353,2.91.136,3.065a.1.1,0,0,0,.1.028,1.354,1.354,0,0,0,.259.037c0,.011.005.022.008.033.012.054.1.031.083-.023,0,0,0-.006,0-.01h.044a2.01,2.01,0,0,0,.385-.061c.182.034.362.069.544.1q.67.134,1.338.282c.879.192,1.756.394,2.637.579a28.675,28.675,0,0,0,5.162.713,3.912,3.912,0,0,0,2.141-1.025c.162-2.422,2.2-8.785,2.5-9.948.228-.886.5-1.762.732-2.649a31.172,31.172,0,0,0,2.646,4.423c.151.211.3.418.45.624-.016-.01-.021-.01-.011.005a2.156,2.156,0,0,0,.143.176,14.261,14.261,0,0,0,3.1,3.242l.029-.044c.023.018.043.034.058.044,3.533,2.259,7.43-3.182,8.541-4.658,1.277-1.695,2.369-3.533,3.51-5.32a3.215,3.215,0,0,0,.809-2.547,2.283,2.283,0,0,0-.937-1.32,17.694,17.694,0,0,1,.732-1.844A4.436,4.436,0,0,0,5612.04,788.254Zm-35.233,20.255a.048.048,0,0,0-.059-.015.3.3,0,0,1,.229-.042c.007.028.014.056.021.085A1.255,1.255,0,0,1,5576.807,808.508Zm.346.031h-.066c-.006-.025-.012-.05-.019-.076.091.015.182.038.257.056C5577.269,808.529,5577.211,808.535,5577.153,808.539Z" transform="translate(-5553.482 -756.311)" fill="#f0ded5"/>
        <path id="Path_91098" data-name="Path 91098" d="M5724.727,611.19c-.589-.036-1.082-.346-1.68-.347a5.531,5.531,0,0,0-2.087.5,6.611,6.611,0,0,0-2.775,2.112,13.854,13.854,0,0,0-1.7,3.373,23.18,23.18,0,0,0-1.067,3.7c-.128.64-.221,1.283-.305,1.929a7.838,7.838,0,0,1-.385,1.768,26.408,26.408,0,0,0,5.067,1.059c1.323.152,3.578.789,4.381.007.4-.386.355-1.143.463-1.908.031-.213.174-.715.192-.935.008-.091.014-.183.02-.275.017-.255.027-.509.036-.755,0-.094.005-.187.008-.278.006-.2.011-.4.018-.583C5725.018,617.427,5724.912,614.319,5724.727,611.19Z" transform="translate(-5686.5 -607.899)" fill="#ffae94"/>
        <path id="Path_91099" data-name="Path 91099" d="M5708.089,695.073a.489.489,0,0,0-.229-.112c-.175-.049-.354-.084-.533-.12-.345-.069-.692-.124-1.037-.193a12.947,12.947,0,0,1-2.141-.682,7.663,7.663,0,0,0-2.052-.563c.012-.1.023-.2.035-.306.006-.055-.07-.055-.076,0-.011.1-.023.2-.034.3-.035,0-.039.062-.009.081q-.487,4.27-.974,8.541c-.092.817-.172,1.635-.186,2.459a.043.043,0,0,0,.038.043,40.732,40.732,0,0,0,4.329.394q.244.009.487.015a2.026,2.026,0,0,0,.533.007.148.148,0,0,0,.111-.1,3.034,3.034,0,0,0,.136-.6l.536-2.418c.349-1.573.695-3.148.935-4.748q.086-.568.152-1.14c.022-.192.051-.387.06-.581A.352.352,0,0,0,5708.089,695.073Z" transform="translate(-5674.232 -680.605)" fill="#ffae94"/>
        <path id="Path_91100" data-name="Path 91100" d="M5740.488,870.527a23.52,23.52,0,0,1-.1-4.777,10.631,10.631,0,0,0-.458-4.441c-.04-.1-.208-.058-.167.046a11.2,11.2,0,0,1,.433,4.726,21.681,21.681,0,0,0,.123,4.491,17.951,17.951,0,0,1,.146,4.779c-.1.821-.236,1.637-.363,2.454a6.522,6.522,0,0,0-.077,2.1c.019.11.186.063.168-.046a8.023,8.023,0,0,1,.168-2.584c.119-.749.237-1.5.315-2.255A17.97,17.97,0,0,0,5740.488,870.527Z" transform="translate(-5708.639 -829.352)" fill="#c9b3b3"/>
        <path id="Path_91101" data-name="Path 91101" d="M5633.225,1075.283c-.211-2.406-.91-9.162-1.058-11.573-.062-1.005-.087-2.013-.086-3.02,0-1.384.052-2.769.122-4.151.124-2.444.313-4.884.4-7.329s.048-4.9-.087-7.352c-.267-4.856-.824-9.693-.972-14.556-.15-4.91.024-9.819.234-14.725,0-.057,0-.116.008-.173q.034-.828.071-1.656a.044.044,0,0,0-.043-.043q-.869-.046-1.737-.107l-.115-.008-.058,0q-.8-.057-1.6-.129l-.172-.016q-3.574-.325-7.115-.917a.045.045,0,0,0-.032,0c-.032-.006-.069.076-.042.08q-.2.779-.444,1.575c-.017.056-.034.11-.052.166-.472,1.507-1.054,3.047-1.649,4.6-.022.059-.046.118-.068.178a54.958,54.958,0,0,0-2.714,8.26,56.64,56.64,0,0,0-1.217,13.035c.035,4.912,1.92,10.635,2.393,15.517.01.109.023.226.037.351.383,3.429,2.035,13.008,3.243,20.514.712,4.425,1.27,8.129,1.323,9.43.071,1.76.142,3.082.193,3.4a17.063,17.063,0,0,0,.449,2.012,1.829,1.829,0,0,0,.566,1.065,2.713,2.713,0,0,0,1.543.157c.7-.015,6.116-.192,7.72-.224a.043.043,0,0,0,.042-.031c.371-2.351.742-4.7.945-7.077,0-.025,0-.05.006-.076A41.667,41.667,0,0,0,5633.225,1075.283Z" transform="translate(-5598.128 -960.475)" fill="#cf6955"/>
        <path id="Path_91102" data-name="Path 91102" d="M5542.292,1052.059q-.343-3.309-.779-6.609-.861-6.513-2.075-12.975c-.374-1.986-.812-5.184-1.178-8.07-.009-.062-.017-.125-.024-.187-.218-1.725-.408-3.325-.542-4.469-.007-.058-.014-.116-.02-.171-.114-.973-.181-1.575-.181-1.575s-2.379.036-4.469-.029l-.116,0-.058,0c-.583-.021-1.138-.05-1.6-.089l-.065-.006c.01.027.027.109.045.2s.038.21.054.276a.039.039,0,0,0-.062.024c-.015.106-.031.213-.047.319l-.011,0-.178.029-.3.049c-.055.009-.032.092.023.083l.268-.043.177-.029h.008c-.009.06-.017.12-.026.18l-.115.775c-.009.057-.018.115-.026.172q-.238,1.619-.478,3.237-1.313,8.891-2.625,17.783c-.27,1.826-.532,3.654-.81,5.479a43.466,43.466,0,0,1-.958,4.847,17.658,17.658,0,0,1-1.876,4.547,23.326,23.326,0,0,1-3.086,3.815c-.328.347-.657.692-.983,1.04l-.011.011c-.05.053-.1.107-.15.162a26.921,26.921,0,0,0-1.9,2.216,18.694,18.694,0,0,0-2.319,4.294c-.635,1.573-1.171,3.186-1.874,4.732a33.346,33.346,0,0,1-2.461,4.3c-.618.949-3.787,5.481-4.381,6.445-.271.442-.536.889-.787,1.344a20.948,20.948,0,0,0-1.019,2.091,1.744,1.744,0,0,0-.206.993,1.334,1.334,0,0,0,.51.723,13.088,13.088,0,0,0,2.852,2.077q1.121.6,2.285,1.126a15.812,15.812,0,0,0,2.232.9,1.268,1.268,0,0,0,1.457-.6c.583-.752,1.154-1.514,1.73-2.271.1-.132,3.186-3.51,6.847-7.546l.152-.167.282-.31c4.542-5.012,9.81-10.864,11.342-12.77l.265-.328c.043-.055.087-.109.131-.163s.1-.124.15-.187l3.717-4.626a16.221,16.221,0,0,0,3.137-4.828C5542.816,1056.27,5542.5,1054.1,5542.292,1052.059Zm-11.122-34.187h.01C5531.175,1017.863,5531.171,1017.861,5531.169,1017.873Z" transform="translate(-5501.071 -967.856)" fill="#cf6955"/>
        <path id="Path_91103" data-name="Path 91103" d="M5479.264,1652.805a.726.726,0,0,0-.013-.427,1.826,1.826,0,0,0-.155-.282,9.563,9.563,0,0,1-1.688-5.362,21.422,21.422,0,0,1,.3-3.187c.156-1.052.96-3.664.942-3.688-.133-.182-1.641-1.214-2.179-1.594a.036.036,0,0,0-.021-.006.032.032,0,0,0-.031.015,7.258,7.258,0,0,1-1.525,1.532,6.817,6.817,0,0,0-1.414,1.474,22.793,22.793,0,0,0-1.622,3.856,10.674,10.674,0,0,1-1.22,2.12.037.037,0,0,0,.009.052l.463.264a.039.039,0,0,0,.052-.009,16.359,16.359,0,0,1,1.647-2.144,1.825,1.825,0,0,1,1.024-.54.65.65,0,0,1,.645.322,4.841,4.841,0,0,1-.168,1.826,3.561,3.561,0,0,0,.065,2.389,6.032,6.032,0,0,0,1.893,1.992l1.2.942.6.471.286.224a1.575,1.575,0,0,0,.3.221C5478.935,1653.392,5479.2,1653.043,5479.264,1652.805Z" transform="translate(-5470.632 -1516.513)" fill="#2c2c2c"/>
        <path id="Path_91104" data-name="Path 91104" d="M5701.717,764.684a8.1,8.1,0,0,1-.8-.581,4.192,4.192,0,0,1-.645-.732,1.6,1.6,0,0,0-1.192-.726,5.385,5.385,0,0,0-1.746.294,3.039,3.039,0,0,1-1.054.1.037.037,0,0,0-.025.006,2.174,2.174,0,0,1,.154-.21c.035-.043-.026-.1-.062-.061a2.294,2.294,0,0,0-.436.8c-.221.18-.449.352-.679.519a4.806,4.806,0,0,0-.013.735,2.336,2.336,0,0,0,1.138,1.728,13.722,13.722,0,0,1,2.013,1.407,6.154,6.154,0,0,1,1.426,2.442,16.984,16.984,0,0,1,.63,3.6c.006.055.09.057.087,0q-.075-1.127-.149-2.256c-.047-.7-.118-1.394-.13-2.091a2.209,2.209,0,0,1,.66-1.807,4.907,4.907,0,0,0,1.115-1.3,5.426,5.426,0,0,0,.5-1.365Q5702.109,764.945,5701.717,764.684Z" transform="translate(-5669.245 -742.142)" fill="#ffae94"/>
        <path id="Path_91105" data-name="Path 91105" d="M5686.346,605.1a5.35,5.35,0,0,0-2.2-.155,8.835,8.835,0,0,0-2.481.8,14.774,14.774,0,0,0-6.912,7.316,23.4,23.4,0,0,0-1.73,5.71c-.172.965-.3,1.938-.387,2.914-.093,1.012-.114,2.031-.235,3.041a4.72,4.72,0,0,1-.445,1.465c-.021-.047-.062-.014-.042.033.458,1.048,1.69,1.17,2.652,1.443a17.423,17.423,0,0,1,4.455,1.683c.026.02.059-.008.061-.035.042-.544.063-1.089.061-1.634s-.042-1.081-.033-1.621a10.253,10.253,0,0,1,.757-3.07c.61-1.847,1.036-3.917.25-5.78a26.537,26.537,0,0,1-1.271-2.659,1.886,1.886,0,0,1,.266-1.954c.574-.721,1.167-.34,1.924-.742s1.08-1.853,1.667-2.442a11.522,11.522,0,0,1,2.243-1.4,3.221,3.221,0,0,0,1.486-1.935C5686.5,605.789,5686.622,605.326,5686.346,605.1Z" transform="translate(-5648.631 -602.649)" fill="#bd6655"/>
        <path id="Path_91106" data-name="Path 91106" d="M5731.127,666.669a.894.894,0,0,0-.088-.193,1.112,1.112,0,0,1-.145-.189,1.262,1.262,0,0,0-1.081-.4c-.649.116-.783.887-.715,1.43a2.829,2.829,0,0,0,.865,1.732.671.671,0,0,0,.68.163c.239-.118.323-.5.381-.732a3.934,3.934,0,0,0,.093-1.186c-.014-.221-.058-.446-.091-.67.008.022.017.044.024.067C5731.066,666.739,5731.143,666.718,5731.127,666.669Z" transform="translate(-5699.197 -656.566)" fill="#ffae94"/>
        <path id="Path_91107" data-name="Path 91107" d="M5547.5,1167.311a.706.706,0,0,0-.569-.221,2.759,2.759,0,0,0-.317.012c-.059,0-.118.011-.177.018-.2.025-.4.06-.6.084q-.595.074-1.187.153-2.377.317-4.743.718-2.382.4-4.746.891l-.586.122a1.469,1.469,0,0,0-.451.131c-.228.137-.2.395-.187.626q.024.435.047.871-.125,1.924-.146,3.854-.007.6,0,1.2a1.187,1.187,0,0,0,.157.733c.312.414.954.336,1.4.282,3.194-.386,6.394-.749,9.565-1.29.25-.042.5-.089.748-.147.06-.013.118-.027.175-.043s.121-.032.18-.05a3.028,3.028,0,0,0,.886-.369.822.822,0,0,0,.284-.669q.059-.6.107-1.195.2-2.435.263-4.879A1.343,1.343,0,0,0,5547.5,1167.311Z" transform="translate(-5526.527 -1099.825)" fill="#7f3e3e"/>
        <path id="Path_91108" data-name="Path 91108" d="M5571.108,1168.745a3.136,3.136,0,0,0,.479-1.757,18.126,18.126,0,0,0-.371-3.64c-.153-.472-.586-2.025-.63-2.3-.032-.2-.271-.178-.431-.2a6.389,6.389,0,0,0-1.7.038c-.043.007-.026.072.016.066l.026,0c-.058.137-.113.275-.166.414a.035.035,0,0,0-.063,0q-.439,1.27-.848,2.551c-.1.308-.2.617-.29.926a.041.041,0,0,0,0,.008.154.154,0,0,1,0,.02c-.032.107-.066.215-.1.322a13.134,13.134,0,0,0-.416,2.145,7.9,7.9,0,0,0,.231,2.375c.082.378,1.066,1.338,1.331,1.3a.336.336,0,0,0,.255-.156.593.593,0,0,0,.707.137.613.613,0,0,0,.278-.36.619.619,0,0,0,.628.237.461.461,0,0,0,.307-.36.91.91,0,0,0,.761.195c.164-.045.4-.195.333-.4a1.654,1.654,0,0,0-.258-.342,4.169,4.169,0,0,1-.29-.469c-.074-.14-.139-.283-.2-.429C5570.855,1169.084,5571.037,1168.838,5571.108,1168.745Zm-.657-.334a6.147,6.147,0,0,1-.291-1.388,10.676,10.676,0,0,1,.167-1.618c.07.231.085.687.137.923a13.812,13.812,0,0,1,.071,2.034c0,.057-.015.144-.021.237C5570.493,1168.536,5570.471,1168.474,5570.452,1168.411Z" transform="translate(-5555.5 -1094.275)" fill="#ffae94"/>
        <path id="Path_91109" data-name="Path 91109" d="M5558.28,883.206c.01-.3.017-.6.006-.9a.541.541,0,0,0-.213-.5.736.736,0,0,0-.134-.063,23.74,23.74,0,0,1-3.385.035c-.909,3.954-2.407,7.748-3.643,11.608a46.4,46.4,0,0,0-1.708,6.78,29.781,29.781,0,0,0-.255,7.394,26.164,26.164,0,0,0,.536,3.524,1.466,1.466,0,0,0,.626,1.04,1.68,1.68,0,0,0,1.057.056q.05.305.1.609a9.941,9.941,0,0,0,.594,2.187c.123.291.238.352.545.3.409-.067.818-.137,1.228-.2l.635-.106a2.387,2.387,0,0,0,.535-.114.529.529,0,0,0,.31-.529,8.169,8.169,0,0,0-.1-1.22c-.051-.421-.091-.843-.119-1.267-.006-.092-.01-.183-.015-.275.06-.02.119-.043.176-.068.9-.4,1-1.518,1.1-2.373.609-5,.671-9.314,1.225-14.318.272-2.456,2.064-8.519,2.492-10.949C5560.085,882.672,5558.241,884.409,5558.28,883.206Z" transform="translate(-5539.786 -847.475)" fill="#f0ded5"/>
        <g id="Group_17197" data-name="Group 17197" transform="translate(6.626 50.699)">
          <path id="Path_91110" data-name="Path 91110" d="M5665.372,1029.5a3.6,3.6,0,0,1-1.105-.559,3.467,3.467,0,0,1-1.179-1.626,5.5,5.5,0,0,1-.44-2.109q1.093-.058,2.182-.175c-.007-.058-.014-.115-.02-.171q-1.466.158-2.94.207-.847.029-1.691.021c-.072,0-2.2-.08-2.216-.081q-1.824-.117-3.635-.4a.091.091,0,0,0-.108-.017q-1.834-.291-3.637-.753l-.053.166q1.8.463,3.64.755a4.657,4.657,0,0,1-2.551,2.935,6.959,6.959,0,0,1-2.738.9c-.022.059-.046.118-.068.178a7.093,7.093,0,0,0,2.895-.932,4.808,4.808,0,0,0,2.634-3.059q1.786.276,3.59.394l2.112.081q.91.01,1.819-.02c.2-.007.408-.016.611-.026a5.668,5.668,0,0,0,.5,2.292,3.585,3.585,0,0,0,1.186,1.574,3.716,3.716,0,0,0,1.236.608C5665.388,1029.625,5665.38,1029.563,5665.372,1029.5Z" transform="translate(-5634.834 -1023.837)" fill="#584978"/>
          <path id="Path_91111" data-name="Path 91111" d="M5739.481,1232.484c-.153-2.647-.138-5.3-.124-7.948a.087.087,0,0,0-.174,0,76.556,76.556,0,0,0,.865,14.183c.722,3.964,1.482,7.918,2.161,11.889.049-.063.1-.124.15-.187q-.307-1.85-.631-3.7C5740.895,1241.989,5739.758,1237.3,5739.481,1232.484Z" transform="translate(-5714.751 -1201.254)" fill="#584978"/>
          <path id="Path_91112" data-name="Path 91112" d="M5635.49,1394.278q-.452-3.122-.9-6.242c-.05.053-.1.107-.15.162q.815,5.62,1.629,11.239c.462,3.19.953,6.378,1.342,9.579l.152-.167q-.163-1.318-.346-2.633C5636.663,1402.232,5636.068,1398.256,5635.49,1394.278Z" transform="translate(-5622.12 -1345.923)" fill="#584978"/>
          <path id="Path_91113" data-name="Path 91113" d="M5724.75,1700.734a17.667,17.667,0,0,1-1.972.2c-.111.005-.112.179,0,.174a18.087,18.087,0,0,0,2.018-.208C5724.906,1700.884,5724.859,1700.716,5724.75,1700.734Z" transform="translate(-5700.173 -1622.461)" fill="#584978"/>
          <path id="Path_91114" data-name="Path 91114" d="M5530.359,1636.891a5.813,5.813,0,0,1-2.3-.869c-.094-.061-.181.09-.087.15a5.918,5.918,0,0,0,2.338.886C5530.422,1637.075,5530.47,1636.908,5530.359,1636.891Z" transform="translate(-5527.934 -1565.221)" fill="#584978"/>
          <path id="Path_91115" data-name="Path 91115" d="M5713.912,1456.847a34.677,34.677,0,0,1,5.158,12.583c.021.11.188.063.167-.046a34.8,34.8,0,0,0-5.175-12.624C5714,1456.666,5713.85,1456.753,5713.912,1456.847Z" transform="translate(-5692.394 -1406.664)" fill="#584978"/>
          <path id="Path_91116" data-name="Path 91116" d="M5566.179,1519.934l-4.517,4.52c-.079.079.044.2.123.123l4.518-4.52A.087.087,0,0,0,5566.179,1519.934Z" transform="translate(-5557.739 -1462.547)" fill="#584978"/>
        </g>
        <path id="Path_91117" data-name="Path 91117" d="M5795.953,621.681c-.213-.475-.528-1.186-.757-1.655a3.164,3.164,0,0,1-.28-.779,2.3,2.3,0,0,1,.042-.923,8.824,8.824,0,0,0-.113-2.415q-.138-1.014-.361-2.016a.03.03,0,0,0,0-.012c0-.006,0-.011,0-.017-.011-.048-.092-.029-.084.018a2.749,2.749,0,0,0-.735,2.1c-.013.131.017.694,0,.821q-.051.464-.074.93a16.022,16.022,0,0,0,.017,1.863c.04.6.133,1.466.24,2.058q.083.46.192.916a3.139,3.139,0,0,0,.108.422.173.173,0,0,0,.1.115c.087.033.213-.026.294-.048l.511-.138a2.917,2.917,0,0,0,.658-.234.741.741,0,0,0,.362-.376A.868.868,0,0,0,5795.953,621.681Z" transform="translate(-5756.228 -610.547)" fill="#ffae94"/>
        <path id="Path_91118" data-name="Path 91118" d="M5789.788,656.884c0,.438-.194.793-.435.793s-.434-.355-.434-.793.194-.793.434-.793S5789.788,656.446,5789.788,656.884Z" transform="translate(-5752.115 -647.915)" fill="#38284f"/>
        <path id="Path_91119" data-name="Path 91119" d="M5778.541,642.311a3.671,3.671,0,0,0-1.93-.047,1.1,1.1,0,0,0-.67.489.321.321,0,0,0,.215.446,1.752,1.752,0,0,0,.492.066c.189.013.377.026.566.032a4.386,4.386,0,0,0,1.152-.072.569.569,0,0,0,.467-.418C5778.89,642.6,5778.769,642.423,5778.541,642.311Z" transform="translate(-5740.609 -635.591)" fill="#bd6655"/>
        <g id="Group_17199" data-name="Group 17199" transform="translate(11.428 28.002)">
          <g id="Group_17198" data-name="Group 17198" transform="translate(7.253)">
            <path id="Path_91120" data-name="Path 91120" d="M5632.566,828.005a7.25,7.25,0,0,1,1.475,6.734.043.043,0,0,0,.083.023,7.338,7.338,0,0,0-1.5-6.818C5632.591,827.9,5632.53,827.963,5632.566,828.005Z" transform="translate(-5632.512 -827.886)" fill="#c9b3b3"/>
            <path id="Path_91121" data-name="Path 91121" d="M5633.752,834.5a.093.093,0,0,1-.066-.028.082.082,0,0,1-.019-.081,7.168,7.168,0,0,0-1.465-6.693.086.086,0,0,1-.018-.086.093.093,0,0,1,.067-.06.08.08,0,0,1,.077.027,7.35,7.35,0,0,1,1.5,6.859.082.082,0,0,1-.061.059Z" transform="translate(-5632.18 -827.554)" fill="#c9b3b3"/>
          </g>
          <path id="Path_91122" data-name="Path 91122" d="M5800.68,854.493a18.733,18.733,0,0,1-1.217-5.192c-.01-.111-.184-.112-.174,0a18.931,18.931,0,0,0,1,4.628,11.219,11.219,0,0,1,.8,2.381,3.274,3.274,0,0,1-.6,2.246c-.064.092.086.179.15.088a3.46,3.46,0,0,0,.639-1.906A5.8,5.8,0,0,0,5800.68,854.493Z" transform="translate(-5772.712 -846.713)" fill="#c9b3b3"/>
          <path id="Path_91123" data-name="Path 91123" d="M5868.448,946.123a5.2,5.2,0,0,0-.576,3.771c.024.109.192.063.167-.046a5.02,5.02,0,0,1,.559-3.637A.087.087,0,0,0,5868.448,946.123Z" transform="translate(-5833.251 -932.375)" fill="#c9b3b3"/>
          <path id="Path_91124" data-name="Path 91124" d="M5940.923,877.173a2.4,2.4,0,0,1-2.964-1.048c-.051-.1-.2-.012-.15.088a2.566,2.566,0,0,0,3.161,1.127C5941.073,877.3,5941.028,877.132,5940.923,877.173Z" transform="translate(-5895.207 -870.47)" fill="#c9b3b3"/>
          <path id="Path_91125" data-name="Path 91125" d="M5601.659,959.791a21.7,21.7,0,0,1-1.92-9.944c.005-.112-.169-.112-.173,0a21.88,21.88,0,0,0,1.943,10.031C5601.555,959.98,5601.705,959.892,5601.659,959.791Z" transform="translate(-5596.065 -935.632)" fill="#c9b3b3"/>
          <path id="Path_91126" data-name="Path 91126" d="M5572.75,1132.208a2.929,2.929,0,0,0-3.273,1.027c-.068.089.083.175.15.088a2.757,2.757,0,0,1,3.077-.948C5572.81,1132.409,5572.855,1132.241,5572.75,1132.208Z" transform="translate(-5569.459 -1096.848)" fill="#c9b3b3"/>
          <path id="Path_91127" data-name="Path 91127" d="M5589.888,1149.512a.391.391,0,0,0,0,.782A.391.391,0,0,0,5589.888,1149.512Z" transform="translate(-5587.192 -1112.283)" fill="#c9b3b3"/>
          <path id="Path_91128" data-name="Path 91128" d="M5957.434,865.947a.391.391,0,0,0,0,.782A.391.391,0,0,0,5957.434,865.947Z" transform="translate(-5912.237 -861.507)" fill="#c9b3b3"/>
        </g>
        <path id="Path_91129" data-name="Path 91129" d="M5741.228,616.1a3.984,3.984,0,0,0-1.581,2.1,10.163,10.163,0,0,1-1.788,2.674c-.076.082.047.205.123.123a10.132,10.132,0,0,0,1.612-2.289c.458-.9.763-1.965,1.721-2.463C5741.415,616.2,5741.327,616.047,5741.228,616.1Z" transform="translate(-5706.938 -612.538)" fill="#914233"/>
        <path id="Path_91130" data-name="Path 91130" d="M5790.788,760.336c-.011-.11-.185-.111-.174,0a6.832,6.832,0,0,1-.509,3.337c-.043.1.125.148.167.046A6.938,6.938,0,0,0,5790.788,760.336Z" transform="translate(-5753.157 -740.033)" fill="#914233"/>
        <path id="Path_91131" data-name="Path 91131" d="M5715.583,724.245a.087.087,0,0,0-.174,0c0,2.837-2.706,5.443-1.507,8.319.043.1.211.057.167-.046C5712.885,729.679,5715.578,727.06,5715.583,724.245Z" transform="translate(-5685.5 -708.114)" fill="#914233"/>
        <path id="Path_91132" data-name="Path 91132" d="M5701,771.028a4.633,4.633,0,0,1-.487-2.42c.007-.112-.167-.111-.174,0a4.817,4.817,0,0,0,.512,2.507C5700.9,771.216,5701.053,771.128,5701,771.028Z" transform="translate(-5673.771 -747.348)" fill="#914233"/>
        <path id="Path_91133" data-name="Path 91133" d="M5796.732,691.048c0-.049-.062-.055-.082-.018a.035.035,0,0,0-.037,0,1.706,1.706,0,0,0-.613.735.481.481,0,0,0,.271.66c.292.089.526-.167.671-.39C5797.2,691.644,5796.7,691.428,5796.732,691.048Z" transform="translate(-5758.34 -678.794)" fill="#ffae94"/>
        <path id="Path_91134" data-name="Path 91134" d="M5799.322,709.123c-.03-.047-.106,0-.075.044l.028.045a1.366,1.366,0,0,0-.136,1.125.044.044,0,0,0,.073.019c.153-.156.411-.239.408-.5A1.581,1.581,0,0,0,5799.322,709.123Z" transform="translate(-5761.104 -694.797)" fill="#ffae94"/>
        <path id="Path_91135" data-name="Path 91135" d="M5788.863,702.451a3.586,3.586,0,0,1-1.2.195.8.8,0,0,0-.156,0c-.028.042.038.087.058.109a1.116,1.116,0,0,0,.266.182,3.6,3.6,0,0,0,1.113.365,1.6,1.6,0,0,0,.245.048c.007-.091.014-.183.02-.275.017-.255.027-.509.035-.755C5789.116,702.351,5788.991,702.407,5788.863,702.451Z" transform="translate(-5750.861 -688.794)" fill="#fff"/>
        <path id="Path_91136" data-name="Path 91136" d="M5589.47,1220.959a5.352,5.352,0,0,1-.979-2.244c-.02-.11-.188-.063-.167.046a5.453,5.453,0,0,0,1,2.285C5589.387,1221.136,5589.537,1221.049,5589.47,1220.959Z" transform="translate(-5574.712 -1145.426)" fill="#dd6b4b"/>
        <path id="Path_91137" data-name="Path 91137" d="M5582.4,1223.685a6.3,6.3,0,0,1-.969-2.566c-.017-.11-.184-.063-.168.046a6.435,6.435,0,0,0,.986,2.607C5582.307,1223.866,5582.456,1223.779,5582.4,1223.685Z" transform="translate(-5568.466 -1147.552)" fill="#dd6b4b"/>
        <path id="Path_91138" data-name="Path 91138" d="M5574.341,1225.157a4.639,4.639,0,0,1-.682-2.014.087.087,0,0,0-.173,0,4.779,4.779,0,0,0,.705,2.1C5574.243,1225.344,5574.393,1225.256,5574.341,1225.157Z" transform="translate(-5561.592 -1149.323)" fill="#dd6b4b"/>
        <path id="Path_91139" data-name="Path 91139" d="M6006.791,818.417a3.377,3.377,0,0,0-.78.674c-.072.085.05.208.123.123a3.249,3.249,0,0,1,.745-.647C6006.973,818.507,6006.886,818.357,6006.791,818.417Z" transform="translate(-5944.084 -791.458)" fill="#dd6b4b"/>
        <path id="Path_91140" data-name="Path 91140" d="M5987.24,810.855a1.968,1.968,0,0,0-1.432.769c-.075.083.047.206.123.123a1.8,1.8,0,0,1,1.31-.718A.087.087,0,0,0,5987.24,810.855Z" transform="translate(-5926.216 -784.784)" fill="#dd6b4b"/>
        <path id="Path_91141" data-name="Path 91141" d="M5978.11,810.154a1.322,1.322,0,0,0-.92.47c-.072.085.051.209.123.123a1.152,1.152,0,0,1,.8-.419C5978.22,810.319,5978.221,810.145,5978.11,810.154Z" transform="translate(-5918.596 -784.163)" fill="#dd6b4b"/>
        <path id="Path_91142" data-name="Path 91142" d="M5735.349,672.413c-.633.031-.384-.613-.357-.891a1.318,1.318,0,0,0-.049-.543.736.736,0,0,0-.49-.5c-.107-.033-.152.134-.046.168.906.283-.228,2,.943,1.944C5735.46,672.581,5735.461,672.407,5735.349,672.413Z" transform="translate(-5703.853 -660.633)" fill="#dd6b4b"/>
        <path id="Path_91143" data-name="Path 91143" d="M5634.778,1173.948a3.743,3.743,0,0,0,.081,1.19,1.65,1.65,0,0,0,.107.27c-.059.016-.117.029-.176.042-.021-.046-.041-.093-.058-.14a6.158,6.158,0,0,1-.041-2.608c.185-1.841.582-3.651.83-5.483.06-.007.118-.014.177-.018-.189,1.406-.465,2.8-.67,4.2A23.413,23.413,0,0,0,5634.778,1173.948Z" transform="translate(-5615.612 -1099.923)" fill="#38284f"/>
      </g>
    </g>
  </g>
</svg>
