<svg xmlns="http://www.w3.org/2000/svg" width="179.619" height="122.595" viewBox="0 0 179.619 122.595">
  <g id="Group_19289" data-name="Group 19289" transform="translate(-98 -806)">
    <g id="Group_17214" data-name="Group 17214" transform="translate(1.496 252)">
      <path id="Path_91050" data-name="Path 91050" d="M3941.075,340.924c.7,3.294,2.027,6.487,5.407,7.719a16,16,0,0,0,5.1.762c2.23.055,9.625.688,11.857.656,4.671-.067,4.179-.926,8.838-1.261,9.138-.657,18.5-2.579,27.63-.938,4.4.79,7.167.8,11.578,1.544,4.358.734,10.282,2.395,14.7,2.366,8.431-.054,22.224-.751,31.34-1.81l.019,0c.918-.114,16.109-2.369,22.16-2.48h.005c1.712-.033,3.426.009,5.172.147a52.884,52.884,0,0,1,11.872,2.355,7.48,7.48,0,0,0,1.829.1,12.657,12.657,0,0,0,6.087-3.02c.968-.858,1.657-1.695,2.18-2.24,8.943-9.322,13.142-29.7,9.938-42.3a76.087,76.087,0,0,0-4.38-11.442,88.671,88.671,0,0,1-4.283-12.561,80.334,80.334,0,0,0-3.773-11.733,46.474,46.474,0,0,0-45.5-27.585,53.078,53.078,0,0,0-11.871,2.32c-4.139,1.248-8.243,2.7-12.533,3.343-4.585.683-9.208.212-13.784-.307a79.246,79.246,0,0,0-13.434-.665,80.738,80.738,0,0,0-13.186,1.956,111.776,111.776,0,0,0-11.627,3.211c-6.018,2.062-12.217,5.05-16.056,10.335-2.256,3.105-3.207,6.729-3.791,10.475-.635,4.082-1.162,8.077-2.839,11.892-3.063,6.967-8.351,12.611-12.37,19a46.256,46.256,0,0,0-7.043,21.891C3940.081,326.643,3940.247,337.009,3941.075,340.924Z" transform="translate(-3841.732 321.401)" fill="#f1f2ff"/>
      <path id="Path_90999" data-name="Path 90999" d="M930.309,588.015h22.663a7.421,7.421,0,0,1,7.26,8.959L949.8,646.244H924.209Z" transform="translate(-715.741 24.651)" fill="#dbd5d5"/>
      <path id="Path_91020" data-name="Path 91020" d="M738.607,712.254q-17.013.5-34.022-.352c-.449-.023-.448.675,0,.7q17,.854,34.022.352C739.055,712.938,739.057,712.241,738.607,712.254Z" transform="translate(-511.296 -56.081)" fill="#dbd5d5"/>
      <path id="Path_91021" data-name="Path 91021" d="M756.156,745.381c-9.889.272-19.859.5-29.654-.876-.021-.23-.042-.464-.063-.7,9.816,1.4,19.806,1.155,29.716.883C756.605,744.67,756.6,745.367,756.156,745.381Z" transform="translate(-528.319 -80.552)" fill="#dbd5d5"/>
      <path id="Path_91048" data-name="Path 91048" d="M765.911,642.105c-1.887,4.932-3.67,10.074-5.689,14.95-1.361-.565-3.727-1.543-4.69-1.945q2.92-7.048,5.64-14.183l.031.007Z" transform="translate(-550.637 -1.634)" fill="#452a20"/>
      <circle id="Ellipse_1637" data-name="Ellipse 1637" cx="3.674" cy="3.674" r="3.674" transform="translate(205.41 648.416) rotate(-64.761)" fill="#fff"/>
      <g id="Group_14914" data-name="Group 14914" transform="translate(222.346 622.116)">
        <g id="Group_14913" data-name="Group 14913">
          <rect id="Rectangle_5285" data-name="Rectangle 5285" width="0.307" height="19.755" fill="#f5b785"/>
        </g>
      </g>
      <g id="Group_17206" data-name="Group 17206" transform="translate(156.013 583.918) rotate(-13)">
        <path id="Path_91055" data-name="Path 91055" d="M6243.285,612.06a9.5,9.5,0,0,0-2.823-6.095c-1.87-1.855-4.574-2.366-7.75-2.633-10.04-.844-13.629,4.853-12.211,5.7,1.031.125,1.042,1.745.555,2.434.386.263.8.493,1.165.781a9.967,9.967,0,0,1,1.679,1.724,73.511,73.511,0,0,1,5.218,7.8c1.5,2.54,2.463,5.476,4.358,7.778.187.226.66.97,1.035.981.313.009.5-.331.678-.537.938-1.1,1.814-2.46,2.77-3.545a20.874,20.874,0,0,0,3.857-5.811A16.737,16.737,0,0,0,6243.285,612.06Z" transform="translate(-6196.17 -600.901)" fill="#2c2c2c"/>
        <path id="Path_91056" data-name="Path 91056" d="M6116.4,835.436c.015,0,1.21.625,1.224.625,1.768.022,1.231.275,3,.35,5.751.244,9.868,1.229,15.578.5,2.822-.362,5.632-.86,8.414-1.468a16.067,16.067,0,0,0,6.4-2.612,21.921,21.921,0,0,0,2.454-2.094l.044-.169q.949-3.539,1.816-7.1,1.666-6.834,3.027-13.738c1.5-7.575,4.1-18.071-2.913-23.764a30.587,30.587,0,0,0-5.579-3.327c-1.575-.8-3.146-1.609-4.722-2.4l-.973-.487-.043.006c-5.215.578-10.515.222-15.691,1.159a1.29,1.29,0,0,1-1.52-.8l-.477.2c-3.321,1.4-6.762,2.568-9.638,4.786-3.813,2.939-5.992,7.39-7.788,11.74-2.24,5.426-4.275,10.945-6.2,16.49a47.538,47.538,0,0,0-2.491,8.434,13.651,13.651,0,0,0,.918,7.358c1.136,2.672,3.729,3.494,6.4,4.635,2.216.946,4.9.768,7.146,1.65C6114.785,835.432,6116.4,835.409,6116.4,835.436Z" transform="translate(-6100.171 -742.06)" fill="#2c2c2c"/>
        <path id="Path_91057" data-name="Path 91057" d="M6261.678,770.1q1.043-.077,2.089-.128A14.21,14.21,0,0,0,6261.678,770.1Z" transform="translate(-6229.339 -734.242)" fill="#f0ded5"/>
        <path id="Path_91059" data-name="Path 91059" d="M6255.244,702.392a.852.852,0,0,0-.428-.115c-.314-.026-.631-.026-.945-.026-.608,0-1.216.018-1.824.016a22.4,22.4,0,0,1-3.865-.447,13.274,13.274,0,0,0-3.675-.275q-.023-.266-.044-.532c-.007-.1-.136-.07-.129.025.014.174.027.348.043.522-.06.02-.046.119.01.14q.59,7.419,1.184,14.838c.115,1.418.252,2.836.5,4.24a.073.073,0,0,0,.08.061,70.547,70.547,0,0,0,7.485-.769q.416-.065.832-.136a3.5,3.5,0,0,0,.908-.166.256.256,0,0,0,.156-.2,5.142,5.142,0,0,0,.031-1.065q.054-2.143.108-4.286c.069-2.788.134-5.581.011-8.379-.031-.663-.069-1.326-.122-1.988-.027-.334-.041-.676-.092-1.007A.609.609,0,0,0,6255.244,702.392Z" transform="translate(-6215.468 -679.043)" fill="#ffa57a"/>
        <path id="Path_91060" data-name="Path 91060" d="M6247.827,767.908c-3.748-1.83-8.452-3.375-12.242-.817a.143.143,0,0,0-.09.018,33.95,33.95,0,0,1-4.108,2,8.627,8.627,0,0,0,4.6,5.344,10.128,10.128,0,0,0,9.228-.615,13.3,13.3,0,0,0,3.87-3.437c.353-.445.687-.906,1.012-1.372Q6248.962,768.465,6247.827,767.908Z" transform="translate(-6205.114 -730.86)" fill="#ffa57a"/>
        <path id="Path_91061" data-name="Path 91061" d="M6227.867,645.476c-1.611,1.72-6.356,4.176-10.231,2.821-4.073-1.423-4.211-9-4.248-11.562a46.543,46.543,0,0,1,.221-5.2q.1-.989.224-1.876a27.246,27.246,0,0,1,1.281-5.557.268.268,0,0,0,.155-.13,5.424,5.424,0,0,1,1.605-1.6c4.153-.221,8.32.209,12.484.274.118.1.232.2.338.3a10.2,10.2,0,0,1,2.126,2.888,24.518,24.518,0,0,1,2.04,7.878C6234.21,636.382,6230.223,642.958,6227.867,645.476Z" transform="translate(-6190.715 -616.148)" fill="#ffa57a"/>
        <path id="Path_91062" data-name="Path 91062" d="M6262.767,677.067c-.03.758-.391,1.359-.806,1.343s-.728-.644-.7-1.4.389-1.359.806-1.343S6262.8,676.309,6262.767,677.067Z" transform="translate(-6229.007 -658.819)" fill="#2c2c2c"/>
        <path id="Path_91063" data-name="Path 91063" d="M6223.283,674.378c-.029.758-.39,1.359-.8,1.342s-.727-.643-.7-1.4.391-1.359.8-1.342S6223.314,673.62,6223.283,674.378Z" transform="translate(-6197.43 -656.668)" fill="#2c2c2c"/>
        <path id="Path_91064" data-name="Path 91064" d="M6235.15,685.5c-.783.182-1.273-.552-1.26-1.262a3.951,3.951,0,0,1,.485-1.542c.343-.729.694-1.453,1.04-2.18.082-.173-.17-.336-.253-.162q-.52,1.09-1.039,2.18a4.048,4.048,0,0,0-.538,1.807,1.378,1.378,0,0,0,1.633,1.452A.151.151,0,0,0,6235.15,685.5Z" transform="translate(-6206.872 -662.507)" fill="#dd6b4b"/>
        <path id="Path_91065" data-name="Path 91065" d="M6235.632,718.269l-.383-.039q-2.5-.247-5.021-.323l-.355-.009a.153.153,0,0,0-.145.217c.1.28.7,2.548,3.008,2.607,1.413.036,2.254-1.222,3.012-2.218A.153.153,0,0,0,6235.632,718.269Z" transform="translate(-6203.778 -692.595)" fill="#dd6b4b"/>
        <path id="Path_91066" data-name="Path 91066" d="M6232.276,717.945c.19,1.209,1.7,1.242,2.715,1.291.562.026,1.259.194,1.738-.187a2.048,2.048,0,0,0,.566-.782Q6234.791,718.021,6232.276,717.945Z" transform="translate(-6205.825 -692.633)" fill="#fff"/>
        <path id="Path_91067" data-name="Path 91067" d="M6259.432,658.619a1.216,1.216,0,0,0-.857-.592,5.93,5.93,0,0,0-4.293.137c-.986.536-1,1.484.225,1.606.9.089,1.845-.1,2.751-.1a3.431,3.431,0,0,0,1.819-.211A.679.679,0,0,0,6259.432,658.619Z" transform="translate(-6222.851 -644.444)" fill="#2c2c2c"/>
        <path id="Path_91068" data-name="Path 91068" d="M6219.3,655.643a1.215,1.215,0,0,0-.76-.713,6.78,6.78,0,0,0-3.63-.668c-.083.591-.159,1.217-.225,1.876.757.125,1.554.111,2.309.226a3.442,3.442,0,0,0,1.83.06A.679.679,0,0,0,6219.3,655.643Z" transform="translate(-6191.76 -641.655)" fill="#2c2c2c"/>
        <path id="Path_91069" data-name="Path 91069" d="M6242.285,619.395a11.008,11.008,0,0,0-2.309-5.394,17,17,0,0,0-9.159-6.4c-2.643.706-5.254,1.534-7.941,2.049-.2.3-.442.575-.621.855a6.325,6.325,0,0,0-.412.824c-.03.214-.054.43-.077.651a1.586,1.586,0,0,1-.115.461,49.4,49.4,0,0,1,7.438-.272c2.41.053,4.757.578,6.455,2.436a5.317,5.317,0,0,1,1.441,2.453,25.255,25.255,0,0,1,.354,3.974,3.181,3.181,0,0,0,.74,2.085,1.583,1.583,0,0,0,.509.31,2.966,2.966,0,0,1,.574,3.381c-.417,1.1-1.184,1.668-1.736,2.7l-.033.064a18.587,18.587,0,0,0,.17,2.243c.22-.306.443-.6.7-1,.537-.816.982-1.7,1.44-2.562.656-1.233,1.858-2.85,1.63-4.345.387-.2.464-.746.571-1.22A11.408,11.408,0,0,0,6242.285,619.395Z" transform="translate(-6197.327 -604.385)" fill="#2c2c2c"/>
        <path id="Path_91070" data-name="Path 91070" d="M6301.947,687.709a1.813,1.813,0,0,0-2.853-1.451.15.15,0,0,0,.145.262.144.144,0,0,0-.016.06c-.119,1.809-.761,3.517-.749,5.354a.152.152,0,0,0,.256.106C6300.073,690.94,6302.046,689.7,6301.947,687.709Z" transform="translate(-6258.769 -667.054)" fill="#ffa57a"/>
        <path id="Path_91071" data-name="Path 91071" d="M6297.58,689.93a1.617,1.617,0,0,0-1,.762c-.3.54-.234,1.68-1.065,1.723-.193.01-.193.311,0,.3a1.108,1.108,0,0,0,.967-.766c.3-.726.282-1.471,1.183-1.729A.151.151,0,0,0,6297.58,689.93Z" transform="translate(-6256.283 -670.222)" fill="#dd6b4b"/>
        <path id="Path_91072" data-name="Path 91072" d="M6294.893,713.628a.942.942,0,0,1-1.025.231c-.183-.067-.262.224-.08.29a1.24,1.24,0,0,0,1.318-.308C6295.24,713.7,6295.027,713.488,6294.893,713.628Z" transform="translate(-6254.938 -689.143)" fill="#dd6b4b"/>
        <path id="Path_91073" data-name="Path 91073" d="M6222.723,594.491a2.33,2.33,0,0,0-1.052-.8,3.849,3.849,0,0,0-.694-.172c-.3-.062-.3-.032-.449-.3a2.908,2.908,0,0,0-2.185-1.611,6.62,6.62,0,0,0-3.416.4,7.918,7.918,0,0,0-2.546,1.983,6.988,6.988,0,0,1-1.51,1.219,9.906,9.906,0,0,0-1.619.9,6.119,6.119,0,0,0-1.708,2.921,13.806,13.806,0,0,0,.406,8.594.153.153,0,0,0,.186.105c1.334-.388,1.229-2.378,1.979-3.316,1.176-1.468,3.227-1.6,4.9-2.111A6.269,6.269,0,0,0,6219.49,597a4.929,4.929,0,0,0,2.794-.6A1.289,1.289,0,0,0,6222.723,594.491Z" transform="translate(-6185.635 -591.527)" fill="#2c2c2c"/>
        <path id="Path_91074" data-name="Path 91074" d="M6284.261,607.354c-.462-1.608-2.1-2.623-2.434-4.283-.2-.987.271-1.929.256-2.912a3.791,3.791,0,0,0-.818-2.177c-1.115-1.494-2.675-2.021-4.367-2.56a3.5,3.5,0,0,1-1.582-.953,5.674,5.674,0,0,0-.964-.925,3.989,3.989,0,0,0-2.267-.642,5.165,5.165,0,0,0-4.1,2.509c-.082-.143-.333-.07-.266.092a12.309,12.309,0,0,0,3.063,4.384,23.559,23.559,0,0,1,2.048,1.932c.777.893,1.47,1.873,2.159,2.833a26.41,26.41,0,0,1,1.635,2.517c.446.8.74,1.7,1.254,2.46a3.007,3.007,0,0,0,3.807.833C6283.049,609.908,6284.759,609.092,6284.261,607.354Z" transform="translate(-6234.16 -592.627)" fill="#2c2c2c"/>
        <path id="Path_91075" data-name="Path 91075" d="M6302.523,822.267c-4.311,5.266-5.906,11.9-7.628,18.222a178.907,178.907,0,0,0-4.9,21.8,76.224,76.224,0,0,0-.788,12.82c0,.183.307.184.3,0a89.884,89.884,0,0,1,2.517-22.1c.8-3.59,1.729-7.155,2.688-10.711.892-3.3,1.736-6.621,2.832-9.866a31.228,31.228,0,0,1,5.188-9.961C6302.853,822.325,6302.641,822.122,6302.523,822.267Z" transform="translate(-6251.338 -776.027)" fill="#c9b3b3"/>
        <path id="Path_91076" data-name="Path 91076" d="M6163.913,838.011c0-.181-.306-.182-.3,0a20.73,20.73,0,0,1-.817,5.933,11.724,11.724,0,0,0-.166-2.159c-.03-.179-.32-.1-.29.075a11.262,11.262,0,0,1,.1,3.069.108.108,0,0,0,.057.112c-.891,3.117-2,6.2-2.12,9.449-.109,3.024.295,6-.051,9.028-.339,2.973-1.045,5.9-1.648,8.827a38.975,38.975,0,0,0-1.036,9.7c.009.181.31.182.3,0-.284-5.946,1.729-11.657,2.552-17.5a31.492,31.492,0,0,0,.336-4.4c0-1.529-.144-3.054-.163-4.582a28.192,28.192,0,0,1,1.529-8.47C6163.085,844.127,6164.008,841.129,6163.913,838.011Z" transform="translate(-6146.11 -788.55)" fill="#c9b3b3"/>
        <path id="Path_91154" data-name="Path 91154" d="M6163.913,838.011c0-.181-.306-.182-.3,0a20.73,20.73,0,0,1-.817,5.933,11.724,11.724,0,0,0-.166-2.159c-.03-.179-.32-.1-.29.075a11.262,11.262,0,0,1,.1,3.069.108.108,0,0,0,.057.112c-.891,3.117-2,6.2-2.12,9.449-.109,3.024.295,6-.051,9.028-.339,2.973-1.045,5.9-1.648,8.827a38.975,38.975,0,0,0-1.036,9.7c.009.181.31.182.3,0-.284-5.946,1.729-11.657,2.552-17.5a31.492,31.492,0,0,0,.336-4.4c0-1.529-.144-3.054-.163-4.582a28.192,28.192,0,0,1,1.529-8.47C6163.085,844.127,6164.008,841.129,6163.913,838.011Z" transform="translate(-1260.828 -6009.557) rotate(70)" fill="#c9b3b3"/>
        <path id="Path_91077" data-name="Path 91077" d="M6218.637,629.588a17.385,17.385,0,0,0-3.017,1.623,4.9,4.9,0,0,0-1.5,2.593c-.043.189.248.269.291.08a4.587,4.587,0,0,1,1.753-2.722c.8-.578,1.784-.815,2.631-1.314A.151.151,0,0,0,6218.637,629.588Z" transform="translate(-6191.297 -621.95)" fill="#584978"/>
        <path id="Path_91078" data-name="Path 91078" d="M6313.868,651.537a3.816,3.816,0,0,1-3.927-4.011c.008-.194-.295-.193-.3,0a4.117,4.117,0,0,0,4.228,4.312A.151.151,0,0,0,6313.868,651.537Z" transform="translate(-6267.696 -636.198)" fill="#584978"/>
        <path id="Path_91079" data-name="Path 91079" d="M6312.482,670.294a2.9,2.9,0,0,1-1.427.14c-.434-.073-1.263-.307-1.286-.871-.007-.193-.308-.194-.3,0,.054,1.322,2.222,1.319,3.092,1.022C6312.744,670.522,6312.666,670.231,6312.482,670.294Z" transform="translate(-6267.563 -653.822)" fill="#584978"/>
      </g>
      <rect id="Rectangle_5342" data-name="Rectangle 5342" width="168.366" height="3.721" rx="1.86" transform="translate(96.504 669.035)" fill="#bdacac"/>
      <g id="Group_17211" data-name="Group 17211">
        <ellipse id="Ellipse_1636" data-name="Ellipse 1636" cx="5.697" cy="2.035" rx="5.697" ry="2.035" transform="translate(117.317 643.455)" fill="#fff"/>
        <path id="Path_91049" data-name="Path 91049" d="M347.1,636.516a.327.327,0,0,1-.317-.25l-8.66-35.924H294.429a.327.327,0,1,1,0-.653h44.209l8.781,36.424a.327.327,0,0,1-.241.394A.335.335,0,0,1,347.1,636.516Z" transform="translate(-196.657 30.002)" fill="#bdacac"/>
        <path id="Path_91038" data-name="Path 91038" d="M347.61,634.542H300.751l-9.457-39.417a1.047,1.047,0,0,1,1.018-1.291h44.706a1.047,1.047,0,0,1,1.018.8Z" transform="translate(-194.479 34.494)" fill="#dbd5d5"/>
        <path id="Rectangle_5343" data-name="Rectangle 5343" d="M0,0H45.551A3.139,3.139,0,0,1,48.69,3.139v0a0,0,0,0,1,0,0H0a0,0,0,0,1,0,0V0A0,0,0,0,1,0,0Z" transform="translate(148.014 665.896)" fill="#dbd5d5"/>
      </g>
      <g id="Group_17208" data-name="Group 17208" transform="translate(1008.383 -304.532)">
        <path id="Rectangle_5344" data-name="Rectangle 5344" d="M0,0H6.979a0,0,0,0,1,0,0V2.976a0,0,0,0,1,0,0h-4A2.976,2.976,0,0,1,0,0V0A0,0,0,0,1,0,0Z" transform="translate(-843.318 967.416)" fill="#e86e41"/>
        <path id="Path_91146" data-name="Path 91146" d="M-796.359,985.142c-.631,2.561-1.518,4.11-3.374,4.11s-1.57-2.634-.939-5.2,1.484-4.8,3.507-4.055C-795.9,980.468-795.728,982.581-796.359,985.142Z" transform="translate(-37.151 -18.773)" fill="#ffa57a"/>
        <path id="Path_91147" data-name="Path 91147" d="M-845.367,983.624c-.647,2.557-.757,5.179,1.047,5.213,1.375.026,2.624-1.588,3.27-4.145s1.7-5.685-1.19-5.227C-843.59,979.678-844.72,981.067-845.367,983.624Z" transform="translate(0 -18.411)" fill="#ffa57a"/>
        <path id="Path_91148" data-name="Path 91148" d="M-820.9,980.08c-.711,2.885-1.84,4.573-3.871,4.587s-2.008-2.975-1.3-5.86,2.428-4.866,3.871-4.587C-819.577,974.725-820.189,977.195-820.9,980.08Z" transform="translate(-16.053 -14.062)" fill="#ffa57a"/>
        <path id="Path_91149" data-name="Path 91149" d="M-789.83,981.668a18.813,18.813,0,0,1,3.814,5.506,10.752,10.752,0,0,1,.88,3.5l-7.565.087Z" transform="translate(-44.183 -20.282)" fill="#ffa57a"/>
        <path id="Path_91150" data-name="Path 91150" d="M-784.415,1004.476c-1.264.025-3.373.014-3.74-1.586-.47-2.045,2.42-1.715,3.548-1.367.31.1.442-.39.134-.485a6.7,6.7,0,0,0-1.538-.273,7.825,7.825,0,0,0,.338-1.325c.052-.317-.433-.453-.485-.134a7.836,7.836,0,0,1-.359,1.389.224.224,0,0,0-.009.064c-1.138.042-2.181.481-2.17,1.8.019,2.185,2.665,2.448,4.281,2.416A.252.252,0,0,0-784.415,1004.476Z" transform="translate(-47.516 -34.808)" fill="#e86e41"/>
        <path id="Path_91151" data-name="Path 91151" d="M-798.489,986.18a19.763,19.763,0,0,0-1.225,5.716c-.021.323.482.322.5,0A19.324,19.324,0,0,1-798,986.313C-797.89,986.01-798.376,985.879-798.489,986.18Z" transform="translate(-38.347 -23.894)" fill="#e86e41"/>
        <path id="Path_91152" data-name="Path 91152" d="M-823.307,983.533a19.219,19.219,0,0,0-1.213,6.2c.018.322.521.324.5,0a18.842,18.842,0,0,1,1.2-6.063A.252.252,0,0,0-823.307,983.533Z" transform="translate(-17.696 -21.687)" fill="#e86e41"/>
      </g>
      <g id="Group_17209" data-name="Group 17209" transform="translate(179.065 655.6)">
        <path id="Rectangle_5344-2" data-name="Rectangle 5344" d="M0,0H6.979a0,0,0,0,1,0,0V2.976a0,0,0,0,1,0,0h-4A2.976,2.976,0,0,1,0,0V0A0,0,0,0,1,0,0Z" transform="translate(2.48 7.284)" fill="#e86e41"/>
        <path id="Path_91146-2" data-name="Path 91146" d="M-796.359,985.142c-.631,2.561-1.518,4.11-3.374,4.11s-1.57-2.634-.939-5.2,1.484-4.8,3.507-4.055C-795.9,980.468-795.728,982.581-796.359,985.142Z" transform="translate(808.646 -978.905)" fill="#ffa57a"/>
        <path id="Path_91147-2" data-name="Path 91147" d="M-845.367,983.623c-.647,2.557-.757,5.179,1.047,5.213,1.375.026,2.624-1.588,3.27-4.145s1.7-5.685-1.191-5.227C-843.59,979.678-844.72,981.066-845.367,983.623Z" transform="translate(845.797 -978.543)" fill="#ffa57a"/>
        <path id="Path_91148-2" data-name="Path 91148" d="M-820.9,980.08c-.711,2.885-1.84,4.573-3.871,4.587s-2.008-2.975-1.3-5.86,2.428-4.866,3.871-4.587C-819.576,974.725-820.189,977.195-820.9,980.08Z" transform="translate(829.744 -974.194)" fill="#ffa57a"/>
        <path id="Path_91149-2" data-name="Path 91149" d="M-789.83,981.668a18.813,18.813,0,0,1,3.814,5.506,10.752,10.752,0,0,1,.88,3.5l-7.565.087Z" transform="translate(801.614 -980.413)" fill="#ffa57a"/>
        <path id="Path_91151-2" data-name="Path 91151" d="M-798.489,986.18a19.76,19.76,0,0,0-1.225,5.716c-.021.323.482.322.5,0A19.323,19.323,0,0,1-798,986.313C-797.89,986.01-798.376,985.879-798.489,986.18Z" transform="translate(807.451 -984.026)" fill="#e86e41"/>
        <path id="Path_91153" data-name="Path 91153" d="M-798.489,986.158a15.365,15.365,0,0,0-1.225,4.985c-.021.282.482.281.5,0A15.031,15.031,0,0,1-798,986.274C-797.89,986.01-798.376,985.9-798.489,986.158Z" transform="translate(810.698 -982.026)" fill="#e86e41"/>
        <path id="Path_91152-2" data-name="Path 91152" d="M-823.307,983.533a19.216,19.216,0,0,0-1.213,6.2c.018.322.521.324.5,0a18.841,18.841,0,0,1,1.2-6.063A.252.252,0,0,0-823.307,983.533Z" transform="translate(828.102 -981.819)" fill="#e86e41"/>
      </g>
      <g id="Group_17212" data-name="Group 17212" transform="translate(204.037 641.545)">
        <g id="Group_14868" data-name="Group 14868" transform="translate(5.283 0)">
          <g id="Group_14867" data-name="Group 14867">
            <rect id="Rectangle_5282" data-name="Rectangle 5282" width="50.057" height="28.119" rx="1" fill="#c7875c"/>
          </g>
        </g>
        <g id="Group_14891" data-name="Group 14891" transform="translate(0 0)">
          <g id="Group_14890" data-name="Group 14890">
            <path id="Path_90081" data-name="Path 90081" d="M1093.84,577.218v28.117h-42.751a.526.526,0,0,1-.528-.528v-27.06a.53.53,0,0,1,.528-.528Z" transform="translate(-1050.561 -577.218)" fill="#dea57e"/>
          </g>
        </g>
        <g id="Group_14893" data-name="Group 14893" transform="translate(0 11.358)">
          <g id="Group_14892" data-name="Group 14892">
            <rect id="Rectangle_5283" data-name="Rectangle 5283" width="43.279" height="4.359" fill="#c7875c"/>
          </g>
        </g>
        <g id="Group_14895" data-name="Group 14895" transform="translate(19.69 0)">
          <g id="Group_14894" data-name="Group 14894" transform="translate(0)">
            <rect id="Rectangle_5284" data-name="Rectangle 5284" width="4.042" height="28.117" fill="#c7875c"/>
          </g>
        </g>
      </g>
      <g id="Group_17213" data-name="Group 17213" transform="translate(209.806 621.56)">
        <g id="Group_14910" data-name="Group 14910" transform="translate(0 0)">
          <g id="Group_14909" data-name="Group 14909">
            <path id="Path_90088" data-name="Path 90088" d="M1109.613,513.477v18.929a.526.526,0,0,1-.529.528h-39.443a.526.526,0,0,1-.529-.528V513.477a.523.523,0,0,1,.529-.528h39.443A.523.523,0,0,1,1109.613,513.477Z" transform="translate(-1069.113 -512.949)" fill="#f5b785"/>
          </g>
        </g>
        <g id="Group_14912" data-name="Group 14912" transform="translate(0 0)">
          <g id="Group_14911" data-name="Group 14911">
            <path id="Path_90089" data-name="Path 90089" d="M1095.37,512.949v19.986h-25.729a.526.526,0,0,1-.529-.528V513.477a.523.523,0,0,1,.529-.528Z" transform="translate(-1069.113 -512.949)" fill="#ffcda4"/>
          </g>
        </g>
        <g id="Group_14915" data-name="Group 14915" transform="translate(12.755 0)">
          <g id="Group_14914-2" data-name="Group 14914" transform="translate(0)">
            <g id="Group_14913-2" data-name="Group 14913">
              <rect id="Rectangle_5285-2" data-name="Rectangle 5285" width="0.311" height="19.986" fill="#f5b785"/>
            </g>
          </g>
        </g>
      </g>
    </g>
    <g id="completed-task" transform="translate(108 806)">
      <path id="Path_91155" data-name="Path 91155" d="M3.438,16H41.25a3.438,3.438,0,0,1,3.438,3.438V65.844a3.438,3.438,0,0,1-3.437,3.438H3.438A3.438,3.438,0,0,1,0,65.844V19.438A3.438,3.438,0,0,1,3.438,16Zm0,0" transform="translate(0 -14.281)" fill="#c7caf0"/>
      <path id="Path_91156" data-name="Path 91156" d="M32,83.087V48H69.812V94.406H43.32Zm0,0" transform="translate(-28.563 -42.844)" fill="#f1f2ff"/>
      <path id="Path_91157" data-name="Path 91157" d="M43.32,374.625v11.32L32,374.625Zm0,0" transform="translate(-28.563 -334.382)" fill="#38539a"/>
      <path id="Path_91158" data-name="Path 91158" d="M128,6.875V0h17.188V6.875a3.438,3.438,0,0,1-3.437,3.437H131.438A3.438,3.438,0,0,1,128,6.875Zm0,0" transform="translate(-114.25)" fill="#38539a"/>
      <g id="Group_17217" data-name="Group 17217" transform="translate(10.313 13.75)">
        <path id="Path_91161" data-name="Path 91161" d="M161.719,128h13.75a1.719,1.719,0,0,1,0,3.438h-13.75a1.719,1.719,0,0,1,0-3.437Zm0,0" transform="translate(-153.125 -128)" fill="#c7caf0"/>
        <path id="Path_91162" data-name="Path 91162" d="M96,128h3.438v3.438H96Zm0,0" transform="translate(-96 -128)" fill="#c7caf0"/>
        <path id="Path_91163" data-name="Path 91163" d="M96,192h3.438v3.438H96Zm0,0" transform="translate(-96 -185.125)" fill="#c7caf0"/>
        <path id="Path_91164" data-name="Path 91164" d="M96,256h3.438v3.438H96Zm0,0" transform="translate(-96 -242.25)" fill="#c7caf0"/>
        <path id="Path_91165" data-name="Path 91165" d="M96,320h3.438v3.438H96Zm0,0" transform="translate(-96 -299.375)" fill="#c7caf0"/>
        <path id="Path_91166" data-name="Path 91166" d="M161.719,192h10.313a1.719,1.719,0,0,1,0,3.438H161.719a1.719,1.719,0,0,1,0-3.437Zm0,0" transform="translate(-153.125 -185.125)" fill="#c7caf0"/>
        <path id="Path_91167" data-name="Path 91167" d="M161.719,256h3.438a1.719,1.719,0,0,1,0,3.438h-3.437a1.719,1.719,0,0,1,0-3.437Zm0,0" transform="translate(-153.125 -242.25)" fill="#c7caf0"/>
      </g>
      <g id="Group_17218" data-name="Group 17218" transform="translate(0.938 1.543)">
        <path id="Shape" d="M12,0A12,12,0,1,1,0,12,12,12,0,0,1,12,0Z" transform="translate(30 32.359)" fill="#107f47"/>
        <path id="Path" d="M8.8.332,3.9,5.246,2.011,3.361A1.143,1.143,0,1,0,.4,4.972l2.685,2.7a1.145,1.145,0,0,0,1.611,0L10.41,1.955A1.143,1.143,0,0,0,8.8.332Z" transform="translate(36.5 40.859)" fill="#fff"/>
      </g>
    </g>
  </g>
</svg>
