<svg xmlns="http://www.w3.org/2000/svg" width="144.182" height="104.5" viewBox="0 0 144.182 104.5">
  <g id="Group_17917" data-name="Group 17917" transform="translate(-25.785 0.5)">
    <g id="Group_17895" data-name="Group 17895" transform="translate(45.81 43.341)">
      <g id="Group_17889" data-name="Group 17889" transform="translate(105.832 21.258)">
        <path id="Path_91426" data-name="Path 91426" d="M1952.473,1000.672v4.367a2.445,2.445,0,0,1-2.446,2.447h-.783a2.455,2.455,0,0,1-2.447-2.447v-4.367a2.411,2.411,0,0,1,.355-1.256v-.007a2.454,2.454,0,0,1,2.091-1.184h.783A2.455,2.455,0,0,1,1952.473,1000.672Z" transform="translate(-1946.797 -998.225)" fill="#d45922"/>
        <path id="Path_91427" data-name="Path 91427" d="M1952.216,1019.2a2.454,2.454,0,0,1-2.19,1.355h-.783a2.455,2.455,0,0,1-2.447-2.447v-4.367a2.411,2.411,0,0,1,.355-1.256C1947.2,1012.753,1948.237,1018.744,1952.216,1019.2Z" transform="translate(-1946.797 -1011.292)" fill="#a8302d" opacity="0.3"/>
      </g>
      <path id="Path_91428" data-name="Path 91428" d="M1544.455,1276.388h12.094v-12.206h-12.617Z" transform="translate(-1471.665 -1220.719)" fill="#b74b1d"/>
      <path id="Path_91429" data-name="Path 91429" d="M1354.7,773.465l-59.417,1.465V743.6H1334.3a9.912,9.912,0,0,1,8.822,5.392l2.554,4.984Z" transform="translate(-1243.849 -743.598)" fill="#f37022"/>
      <g id="Group_17890" data-name="Group 17890" transform="translate(74.274 46.715)">
        <path id="Path_91430" data-name="Path 91430" d="M1601.236,1310.1a19.459,19.459,0,0,0,1.709,6.968h2.893c2.542,0,4.6-3.12,4.6-6.968s-4.954-6.968-7.5-6.968S1601.236,1306.256,1601.236,1310.1Z" transform="translate(-1598.342 -1303.136)" fill="#2c2c2c"/>
        <ellipse id="Ellipse_1682" data-name="Ellipse 1682" cx="4.603" cy="6.968" rx="4.603" ry="6.968" fill="#464646"/>
        <ellipse id="Ellipse_1683" data-name="Ellipse 1683" cx="3.467" cy="5.249" rx="3.467" ry="5.249" transform="translate(1.194 1.719)" fill="#2c2c2c"/>
      </g>
      <g id="Group_17891" data-name="Group 17891" transform="translate(107.476 46.715)">
        <path id="Path_91431" data-name="Path 91431" d="M1999.715,1310.1a19.459,19.459,0,0,0,1.709,6.968h2.893c2.542,0,4.6-3.12,4.6-6.968s-4.954-6.968-7.5-6.968S1999.715,1306.256,1999.715,1310.1Z" transform="translate(-1996.821 -1303.136)" fill="#2c2c2c"/>
        <path id="Path_91432" data-name="Path 91432" d="M1966.491,1310.1c0,3.848,2.061,6.968,4.6,6.968s4.6-3.12,4.6-6.968-2.06-6.968-4.6-6.968S1966.491,1306.256,1966.491,1310.1Z" transform="translate(-1966.491 -1303.136)" fill="#464646"/>
        <path id="Path_91433" data-name="Path 91433" d="M1980.79,1328.978c0,2.9,1.552,5.249,3.467,5.249s3.467-2.35,3.467-5.249-1.552-5.249-3.467-5.249S1980.79,1326.079,1980.79,1328.978Z" transform="translate(-1979.596 -1322.01)" fill="#2c2c2c"/>
      </g>
      <g id="Group_17892" data-name="Group 17892" transform="translate(31.22 46.715)">
        <path id="Path_91434" data-name="Path 91434" d="M1084.646,1310.1a19.457,19.457,0,0,0,1.709,6.968h2.893c2.542,0,4.6-3.12,4.6-6.968s-4.954-6.968-7.5-6.968S1084.646,1306.256,1084.646,1310.1Z" transform="translate(-1081.753 -1303.136)" fill="#2c2c2c"/>
        <path id="Path_91435" data-name="Path 91435" d="M1051.423,1310.1c0,3.848,2.061,6.968,4.6,6.968s4.6-3.12,4.6-6.968-2.061-6.968-4.6-6.968S1051.423,1306.256,1051.423,1310.1Z" transform="translate(-1051.423 -1303.136)" fill="#464646"/>
        <path id="Path_91436" data-name="Path 91436" d="M1065.722,1328.978c0,2.9,1.552,5.249,3.467,5.249s3.467-2.35,3.467-5.249-1.552-5.249-3.467-5.249S1065.722,1326.079,1065.722,1328.978Z" transform="translate(-1064.528 -1322.01)" fill="#2c2c2c"/>
      </g>
      <path id="Path_91437" data-name="Path 91437" d="M1377.155,1108.44a5.263,5.263,0,0,1-5.262,5.275h-34.082a10.423,10.423,0,0,0,.151-1.776c0-4.505-2.7-8.162-6.031-8.162s-6.037,3.657-6.037,8.162a10.416,10.416,0,0,0,.145,1.776h-19.915s-.8-8.892-.7-13.351c.079-3.88.079-11.483-.151-13.338,0-.276,19.2-.309,24.052-.329.658-.007,1.052-.007,1.092-.007l.066.046.072.053c.895.625,5.906,4.137,9.017,6.2,2.743,1.809,22.986,2.545,30.925,2.769,1.973.052,3.19.072,3.19.072a14.328,14.328,0,0,1,2.046,2.868,10.869,10.869,0,0,1,1.407,5.025c.006,1.19.013,2.624.013,4.031C1377.155,1107.979,1377.155,1108.21,1377.155,1108.44Z" transform="translate(-1252.998 -1058.046)" fill="#f37022"/>
      <path id="Path_91438" data-name="Path 91438" d="M1567.44,903.882h-26.7a1.578,1.578,0,0,1-1.434-.921l-6.61-14.706a.729.729,0,0,1,.664-1.026h28.169a1.568,1.568,0,0,1,1.434.94l4.735,10.819,1.184,2.7A1.568,1.568,0,0,1,1567.44,903.882Z" transform="translate(-1461.376 -875.238)" fill="#fafafa"/>
      <path id="Path_91439" data-name="Path 91439" d="M1337.455,793.323c-.007.46-.026.895-.053,1.283-.191,2.558-2.762,4.683-2.762,4.683h-6a10.637,10.637,0,0,0-.7-5.965c-1.059-2.381-2.979-3.972-5.176-3.972s-4.124,1.592-5.183,3.972a10.768,10.768,0,0,0-.71,5.965h-21.605V743.621h17.343V754.67s5.2,12.22,7.543,17.6c.579,1.341.987,2.256,1.092,2.453.52.993,12.608,7.11,14.607,8.912C1336.962,784.634,1337.515,789.83,1337.455,793.323Z" transform="translate(-1243.755 -743.619)" fill="#f37022"/>
      <path id="Path_91440" data-name="Path 91440" d="M1432.828,893.2l5.688,14.01h-9.759s-2-.335-2.259-4.427c-.274-4.368-.274-11.905-.274-11.905l4.284-.021C1432.14,891.1,1432.4,892,1432.828,893.2Z" transform="translate(-1363.767 -878.559)" fill="#f1f2ff"/>
      <path id="Path_91441" data-name="Path 91441" d="M1649.7,1095.826h-31.648l-11.556-9.089-.066-.046h31.924l9.089,7.314Z" transform="translate(-1529.017 -1058.046)" fill="#f37022"/>
      <path id="Path_91442" data-name="Path 91442" d="M2086.606,1178.98a1.067,1.067,0,0,1-.677.546l-4.439.822c-.375.072-.664-.579-.566-1.25l.434-2.986.013-.072.086-.612a1.289,1.289,0,0,1,.592-1.039l.256-.1,2.256,1.822A14.331,14.331,0,0,1,2086.606,1178.98Z" transform="translate(-1963.876 -1138.333)" fill="#f1f2ff"/>
      <path id="Path_91443" data-name="Path 91443" d="M1734.1,1195.245l-2.861-.283a2.241,2.241,0,0,1-1.986-1.835l-.658-3.617a.5.5,0,0,1-.013-.171,34.653,34.653,0,0,1,4.407,2.8A6.327,6.327,0,0,1,1734.1,1195.245Z" transform="translate(-1640.918 -1152.125)" fill="#a8302d"/>
      <path id="Path_91444" data-name="Path 91444" d="M1739.535,1182.009l-5.426-.539h-.007l-2.861-.283a2.241,2.241,0,0,1-1.986-1.835l-.658-3.617a.5.5,0,0,1-.013-.171v-.007a1.2,1.2,0,0,1,1.447-1.223l8.451,1.717a1.456,1.456,0,0,1,1.112,1.039l.993,3.67A.99.99,0,0,1,1739.535,1182.009Z" transform="translate(-1640.926 -1138.35)" fill="#f1f2ff"/>
      <path id="Path_91445" data-name="Path 91445" d="M1479.964,753.98h-32.97a19.072,19.072,0,0,0-.955-4.519,10.788,10.788,0,0,0-4.237-5.856h26.942c4.392,0,8.283,2.346,9.829,5.856a4.555,4.555,0,0,1,.191.437A27.532,27.532,0,0,1,1479.964,753.98Z" transform="translate(-1378.081 -743.604)" fill="#f37022"/>
      <path id="Path_91446" data-name="Path 91446" d="M1734.109,1195.171l-2.867-.283a2.241,2.241,0,0,1-1.986-1.835l-.658-3.617a.542.542,0,0,1-.013-.177,35.251,35.251,0,0,1,4.406,2.808A6.383,6.383,0,0,1,1734.109,1195.171Z" transform="translate(-1640.917 -1152.05)" fill="#c7caf0"/>
      <path id="Path_91447" data-name="Path 91447" d="M1726.672,1339.623a5.393,5.393,0,0,1-5.518,5.275h-33.825a10.641,10.641,0,0,0-.7-5.965h40.04C1726.672,1339.163,1726.672,1339.393,1726.672,1339.623Z" transform="translate(-1602.515 -1289.229)" fill="#8e2323" opacity="0.3"/>
      <path id="Path_91448" data-name="Path 91448" d="M1316.725,1343.122a10.414,10.414,0,0,0,.145,1.776h-21.605v-5.965h22.316A10.424,10.424,0,0,0,1316.725,1343.122Z" transform="translate(-1243.731 -1289.229)" fill="#8e2323" opacity="0.3"/>
      <path id="Path_91449" data-name="Path 91449" d="M1891.9,1199.192h12.942c.413,0,.729.558.666,1.176l-.46,4.5c-.067.662-.444,1.15-.886,1.15H1893.5c-.684,0-1.287-.677-1.486-1.666l-.768-3.824C1891.116,1199.862,1891.445,1199.192,1891.9,1199.192Z" transform="translate(-1790.028 -1161.155)" fill="#8e2323" opacity="0.3"/>
      <path id="Path_91450" data-name="Path 91450" d="M1637.5,898.989a47.718,47.718,0,0,1-28.708-11.759h22.539a1.568,1.568,0,0,1,1.434.94Z" transform="translate(-1531.182 -875.238)" fill="#f1f2ff"/>
      <rect id="Rectangle_5723" data-name="Rectangle 5723" width="57.739" height="55.673" transform="translate(0 0)" fill="#b74b1d"/>
      <path id="Path_91451" data-name="Path 91451" d="M1513.511,1000.558s.494,5.662-2.3,7.213h5.222Z" transform="translate(-1441.663 -979.105)" fill="#b74b1d"/>
      <path id="Path_91452" data-name="Path 91452" d="M1533.91,1029.1s-1.179-.839-1.28-1.535v3.96h1.543Z" transform="translate(-1461.294 -1003.853)" fill="#b74b1d"/>
      <g id="Group_17893" data-name="Group 17893" transform="translate(65.664 21.258)">
        <path id="Path_91453" data-name="Path 91453" d="M1470.31,1000.672v4.367a2.445,2.445,0,0,1-2.446,2.447h-.783a2.455,2.455,0,0,1-2.446-2.447v-4.367a2.41,2.41,0,0,1,.355-1.256v-.007a2.453,2.453,0,0,1,2.091-1.184h.783A2.455,2.455,0,0,1,1470.31,1000.672Z" transform="translate(-1464.634 -998.225)" fill="#f37022"/>
        <path id="Path_91454" data-name="Path 91454" d="M1470.053,1019.2a2.454,2.454,0,0,1-2.19,1.355h-.783a2.455,2.455,0,0,1-2.446-2.447v-4.367a2.41,2.41,0,0,1,.355-1.256C1465.035,1012.753,1466.074,1018.744,1470.053,1019.2Z" transform="translate(-1464.634 -1011.292)" fill="#8e2323" opacity="0.3"/>
      </g>
      <path id="Path_91455" data-name="Path 91455" d="M744.69,1296.139h-14.2c-.3-1.282-1.2-10.411,6.756-10.411C744.477,1285.728,745.009,1294.057,744.69,1296.139Z" transform="translate(-725.832 -1240.466)" fill="#2c2c2c"/>
      <g id="Group_17894" data-name="Group 17894" transform="translate(6.208 46.715)">
        <path id="Path_91456" data-name="Path 91456" d="M784.4,1310.1a19.459,19.459,0,0,0,1.709,6.968H789c2.542,0,4.6-3.12,4.6-6.968s-4.954-6.968-7.5-6.968S784.4,1306.256,784.4,1310.1Z" transform="translate(-781.504 -1303.136)" fill="#2c2c2c"/>
        <path id="Path_91457" data-name="Path 91457" d="M751.175,1310.1c0,3.848,2.061,6.968,4.6,6.968s4.6-3.12,4.6-6.968-2.061-6.968-4.6-6.968S751.175,1306.256,751.175,1310.1Z" transform="translate(-751.175 -1303.136)" fill="#464646"/>
        <path id="Path_91458" data-name="Path 91458" d="M765.473,1328.978c0,2.9,1.552,5.249,3.467,5.249s3.467-2.35,3.467-5.249-1.552-5.249-3.467-5.249S765.473,1326.079,765.473,1328.978Z" transform="translate(-764.279 -1322.01)" fill="#2c2c2c"/>
      </g>
      <path id="Path_91459" data-name="Path 91459" d="M1526.48,818.262h-32.971a19.067,19.067,0,0,0-.955-4.519h32.534a4.5,4.5,0,0,1,.191.437A27.524,27.524,0,0,1,1526.48,818.262Z" transform="translate(-1424.598 -807.887)" fill="#8e2323" opacity="0.3"/>
    </g>
    <path id="Path_91460" data-name="Path 91460" d="M1444.158,331.14a10.785,10.785,0,0,0-10.785,10.785c0,5.956,10.785,19.2,10.785,19.2s10.785-13.242,10.785-19.2A10.785,10.785,0,0,0,1444.158,331.14Zm0,15.717a5.041,5.041,0,1,1,5.041-5.041A5.041,5.041,0,0,1,1444.158,346.857Z" transform="translate(-1324.533 -322.092)" fill="#f37022"/>
    <g id="Group_17896" data-name="Group 17896" transform="translate(52.229 0)">
      <path id="Path_91461" data-name="Path 91461" d="M800.366,300.136a.207.207,0,0,1-.16-.075l-.258-.313a.207.207,0,1,1,.319-.264l.258.312a.207.207,0,0,1-.159.339Zm-.609-.739a.206.206,0,0,1-.16-.076l-.35-.428a.207.207,0,1,1,.321-.262l.35.427a.207.207,0,0,1-.16.338Zm-.7-.856a.206.206,0,0,1-.161-.077l-.347-.431a.207.207,0,0,1,.323-.259l.346.43a.207.207,0,0,1-.161.337Zm-.691-.862a.207.207,0,0,1-.163-.079l-.343-.435a.207.207,0,0,1,.326-.255l.341.433a.207.207,0,0,1-.162.336Zm-.682-.87a.207.207,0,0,1-.164-.08q-.168-.217-.337-.439a.207.207,0,0,1,.329-.251q.168.221.336.437a.207.207,0,0,1-.164.334Zm-.67-.878a.207.207,0,0,1-.166-.083q-.166-.22-.331-.444a.207.207,0,1,1,.333-.246q.165.223.329.442a.207.207,0,0,1-.165.332Zm-.657-.888a.207.207,0,0,1-.168-.085q-.162-.223-.324-.45a.207.207,0,0,1,.337-.241q.161.225.322.447a.207.207,0,0,1-.167.329Zm-.643-.9a.207.207,0,0,1-.17-.088q-.159-.226-.316-.455a.207.207,0,0,1,.341-.235q.157.228.314.452a.207.207,0,0,1-.169.326Zm-.626-.91a.207.207,0,0,1-.172-.091q-.154-.229-.308-.461a.207.207,0,0,1,.346-.228q.152.231.305.458a.207.207,0,0,1-.172.323Zm-.608-.922a.207.207,0,0,1-.174-.095q-.15-.232-.3-.468a.207.207,0,0,1,.351-.22q.147.233.3.464a.207.207,0,0,1-.174.319Zm-.588-.935a.207.207,0,0,1-.177-.1q-.145-.236-.287-.475a.207.207,0,1,1,.355-.212q.141.236.285.47a.207.207,0,0,1-.176.315Zm-.566-.949a.207.207,0,0,1-.179-.1q-.139-.24-.276-.482a.207.207,0,1,1,.361-.2q.135.24.273.477a.207.207,0,0,1-.179.311Zm-.542-.962a.207.207,0,0,1-.182-.108q-.133-.244-.263-.491a.207.207,0,0,1,.366-.194q.129.244.261.486a.207.207,0,0,1-.182.306Zm-.517-.979a.207.207,0,0,1-.185-.113q-.126-.248-.249-.5a.207.207,0,0,1,.372-.183q.121.247.246.492a.207.207,0,0,1-.184.3Zm-.488-.993a.207.207,0,0,1-.187-.119q-.119-.251-.234-.5a.207.207,0,1,1,.377-.171q.113.25.231.5a.207.207,0,0,1-.187.3Zm-.456-1.007a.207.207,0,0,1-.19-.125q-.111-.255-.217-.512a.207.207,0,0,1,.383-.158q.1.254.214.506a.207.207,0,0,1-.19.289Zm-.421-1.022a.207.207,0,0,1-.193-.132q-.1-.259-.2-.52a.207.207,0,1,1,.388-.144q.1.257.2.513a.207.207,0,0,1-.193.283Zm-.383-1.036a.207.207,0,0,1-.2-.139q-.091-.263-.178-.527a.207.207,0,1,1,.394-.128q.085.261.175.519a.207.207,0,0,1-.2.275Zm-.342-1.05a.207.207,0,0,1-.2-.147c-.054-.177-.106-.357-.156-.535a.207.207,0,1,1,.4-.112c.049.175.1.352.154.526a.207.207,0,0,1-.2.267Zm-.3-1.063a.207.207,0,0,1-.2-.156c-.046-.181-.091-.362-.132-.541a.207.207,0,0,1,.4-.094c.041.176.084.355.13.532a.207.207,0,0,1-.2.259Zm-.25-1.076a.207.207,0,0,1-.2-.165c-.038-.182-.074-.366-.107-.547a.207.207,0,1,1,.407-.074c.032.177.068.358.1.537a.207.207,0,0,1-.161.245A.2.2,0,0,1,789.628,281.236Zm-.2-1.087a.207.207,0,0,1-.2-.175c-.029-.183-.056-.369-.079-.552a.207.207,0,1,1,.411-.054c.023.179.05.362.078.542a.207.207,0,0,1-.172.237Zm-.143-1.1a.207.207,0,0,1-.206-.186c-.019-.185-.036-.372-.05-.556a.207.207,0,0,1,.413-.032c.014.18.03.364.049.545a.207.207,0,0,1-.185.227Zm-.084-1.1a.207.207,0,0,1-.207-.2c-.009-.186-.016-.374-.02-.559a.207.207,0,0,1,.414-.009c0,.181.01.365.019.547a.207.207,0,0,1-.2.217Zm-.023-1.106h0a.207.207,0,0,1-.205-.209c0-.186.006-.374.013-.558a.207.207,0,1,1,.414.015c-.007.18-.011.364-.012.546A.207.207,0,0,1,789.18,276.845Zm.041-1.1h-.014a.207.207,0,0,1-.193-.22c.012-.186.028-.373.046-.558a.207.207,0,0,1,.412.04c-.018.18-.033.364-.045.545A.207.207,0,0,1,789.222,275.74Zm.107-1.1-.026,0a.207.207,0,0,1-.179-.232c.023-.184.05-.37.079-.553a.207.207,0,0,1,.409.065c-.028.179-.054.36-.077.54A.207.207,0,0,1,789.328,274.64Zm.172-1.09a.212.212,0,0,1-.039,0,.207.207,0,0,1-.165-.242c.035-.182.072-.366.112-.547a.207.207,0,1,1,.4.089c-.039.177-.076.357-.11.535A.207.207,0,0,1,789.5,273.549Zm.238-1.078a.207.207,0,0,1-.2-.258c.045-.179.094-.361.145-.539a.207.207,0,0,1,.4.113c-.05.175-.1.352-.142.527A.207.207,0,0,1,789.739,272.471Zm.3-1.062a.207.207,0,0,1-.2-.27c.056-.176.115-.354.177-.529a.207.207,0,0,1,.391.137c-.06.172-.118.346-.173.518A.207.207,0,0,1,790.041,271.41Zm.365-1.042a.207.207,0,0,1-.193-.281c.066-.172.136-.346.207-.518a.207.207,0,1,1,.382.159c-.07.168-.138.339-.2.507A.207.207,0,0,1,790.406,270.368Zm.424-1.019a.207.207,0,0,1-.189-.292c.076-.168.155-.338.236-.506a.207.207,0,1,1,.373.18c-.079.164-.157.33-.231.5A.207.207,0,0,1,790.83,269.349Zm.48-.994a.207.207,0,0,1-.184-.3c.084-.163.173-.329.263-.492a.207.207,0,1,1,.363.2c-.088.16-.175.322-.257.482A.207.207,0,0,1,791.31,268.355Zm.533-.967a.207.207,0,0,1-.179-.312c.093-.158.189-.319.287-.477a.207.207,0,0,1,.352.218c-.1.156-.191.313-.282.469A.207.207,0,0,1,791.843,267.388Zm.581-.939a.207.207,0,0,1-.173-.32c.1-.154.2-.309.31-.463a.207.207,0,0,1,.341.235c-.1.151-.206.3-.3.455A.207.207,0,0,1,792.424,266.449Zm.625-.91a.207.207,0,0,1-.168-.328c.108-.149.219-.3.331-.448a.207.207,0,0,1,.33.25c-.11.145-.219.294-.325.44A.207.207,0,0,1,793.049,265.539Zm.666-.881a.207.207,0,0,1-.162-.336c.113-.143.231-.289.35-.433a.207.207,0,1,1,.319.263c-.117.142-.232.285-.344.426A.207.207,0,0,1,793.715,264.658Zm.7-.852a.207.207,0,0,1-.157-.342q.18-.209.366-.418a.207.207,0,0,1,.309.276q-.184.206-.361.412A.207.207,0,0,1,794.417,263.806Zm.736-.823a.207.207,0,0,1-.152-.348q.188-.2.382-.4a.207.207,0,0,1,.3.287q-.192.2-.377.4A.207.207,0,0,1,795.153,262.983Zm.766-.8a.207.207,0,0,1-.147-.353q.195-.2.4-.39a.207.207,0,1,1,.288.3q-.2.193-.391.385A.207.207,0,0,1,795.918,262.187Zm.792-.769a.207.207,0,0,1-.142-.358q.2-.189.408-.377a.207.207,0,0,1,.279.306q-.2.186-.4.372A.206.206,0,0,1,796.711,261.418Zm.817-.743a.207.207,0,0,1-.137-.362q.206-.182.419-.364a.207.207,0,1,1,.269.315q-.21.18-.414.36A.206.206,0,0,1,797.527,260.676Zm.839-.718a.207.207,0,0,1-.133-.366q.212-.176.429-.352a.207.207,0,1,1,.26.322q-.215.174-.425.348A.206.206,0,0,1,798.366,259.957Zm.855-.7a.207.207,0,0,1-.133-.366c.139-.117.278-.237.412-.357a.207.207,0,1,1,.276.309c-.137.123-.279.246-.422.366A.206.206,0,0,1,799.221,259.258Zm.823-.736a.207.207,0,0,1-.143-.357c.131-.125.262-.254.388-.383a.207.207,0,1,1,.3.29c-.129.132-.263.264-.4.393A.206.206,0,0,1,800.044,258.522Zm.772-.789a.207.207,0,0,1-.153-.347c.122-.134.244-.271.361-.408a.207.207,0,1,1,.315.269c-.12.141-.244.282-.37.419A.207.207,0,0,1,800.816,257.733Zm.716-.84a.207.207,0,0,1-.162-.336c.112-.142.224-.287.331-.433a.207.207,0,0,1,.334.245c-.11.149-.224.3-.34.445A.206.206,0,0,1,801.532,256.893Zm.654-.889a.207.207,0,0,1-.171-.324c.1-.149.2-.3.3-.455a.207.207,0,0,1,.351.221c-.1.157-.2.315-.307.468A.207.207,0,0,1,802.186,256Zm.588-.934a.207.207,0,0,1-.179-.311c.09-.156.179-.316.264-.476a.207.207,0,0,1,.366.194c-.087.164-.179.329-.272.489A.207.207,0,0,1,802.774,255.07Zm.518-.974a.207.207,0,0,1-.186-.3c.079-.163.156-.329.229-.494a.207.207,0,1,1,.379.167c-.075.169-.154.34-.235.507A.207.207,0,0,1,803.292,254.1Zm.445-1.009a.207.207,0,0,1-.192-.284c.067-.168.131-.339.192-.509a.207.207,0,1,1,.39.14c-.063.175-.129.351-.2.523A.207.207,0,0,1,803.737,253.087Zm.372-1.039a.2.2,0,0,1-.063-.01.207.207,0,0,1-.135-.26c.055-.172.107-.348.156-.522a.207.207,0,0,1,.4.112c-.05.179-.1.359-.16.536A.207.207,0,0,1,804.109,252.049Zm.3-1.063a.2.2,0,0,1-.049-.006.207.207,0,0,1-.152-.25c.043-.175.083-.354.12-.532a.207.207,0,1,1,.405.084c-.038.182-.079.366-.123.545A.207.207,0,0,1,804.408,250.986Zm.225-1.081a.207.207,0,0,1-.2-.243c.031-.178.059-.36.085-.539a.207.207,0,0,1,.41.058c-.026.184-.055.37-.087.552A.207.207,0,0,1,804.633,249.9Zm.154-1.094h-.023a.207.207,0,0,1-.184-.228c.019-.179.036-.362.05-.544a.207.207,0,1,1,.413.032c-.014.186-.032.373-.052.557A.207.207,0,0,1,804.787,248.811Zm.085-1.1h-.01a.207.207,0,0,1-.2-.216c.009-.18.014-.364.017-.546a.207.207,0,1,1,.414.007c0,.187-.009.374-.018.558A.207.207,0,0,1,804.872,247.71Zm.019-1.105a.207.207,0,0,1-.207-.2c0-.181-.007-.365-.014-.547a.207.207,0,0,1,.414-.017c.007.185.012.373.014.558a.207.207,0,0,1-.2.209Zm-.044-1.1a.207.207,0,0,1-.206-.193c-.012-.18-.027-.363-.044-.545a.207.207,0,1,1,.412-.039c.018.185.033.372.045.556a.207.207,0,0,1-.193.221Zm-.1-1.1a.207.207,0,0,1-.205-.182c-.022-.18-.046-.362-.073-.542a.207.207,0,1,1,.41-.06c.027.183.052.369.074.553a.207.207,0,0,1-.181.23Zm-.16-1.093a.207.207,0,0,1-.2-.172c-.031-.177-.064-.358-.1-.538a.207.207,0,1,1,.406-.08c.036.183.07.367.1.548a.207.207,0,0,1-.169.239A.2.2,0,0,1,804.582,243.308Zm-.214-1.083a.207.207,0,0,1-.2-.162c-.039-.177-.081-.357-.125-.533a.207.207,0,1,1,.4-.1c.044.179.087.362.127.542a.207.207,0,0,1-.157.247A.21.21,0,0,1,804.368,242.224Zm-.265-1.072a.207.207,0,0,1-.2-.153c-.047-.175-.1-.352-.149-.527a.207.207,0,0,1,.4-.117c.053.178.1.358.152.536a.207.207,0,0,1-.146.254A.21.21,0,0,1,804.1,241.152Zm-.314-1.061a.207.207,0,0,1-.2-.144c-.055-.173-.113-.348-.173-.522a.207.207,0,1,1,.392-.135c.061.176.12.355.176.53a.207.207,0,0,1-.2.27Zm-.36-1.048a.207.207,0,0,1-.194-.136c-.063-.171-.129-.344-.2-.514a.207.207,0,0,1,.386-.151c.068.172.134.348.2.522a.207.207,0,0,1-.194.279Zm-.4-1.031a.207.207,0,0,1-.191-.127c-.07-.168-.143-.338-.216-.5a.207.207,0,1,1,.379-.167c.075.17.149.342.22.513a.207.207,0,0,1-.191.287ZM802.579,237a.207.207,0,0,1-.188-.12c-.077-.165-.156-.332-.237-.5a.207.207,0,0,1,.372-.182c.081.166.162.335.24.5a.207.207,0,0,1-.188.294Zm-48-.847a.207.207,0,0,1-.178-.313c0-.007.106-.177.312-.477a.207.207,0,1,1,.341.235c-.2.287-.3.453-.3.454A.207.207,0,0,1,754.58,236.152Zm47.513-.146a.207.207,0,0,1-.184-.112q-.126-.244-.256-.485a.207.207,0,0,1,.364-.2q.132.245.26.493a.207.207,0,0,1-.184.3Zm-46.886-.771a.207.207,0,0,1-.167-.33c.108-.146.221-.3.338-.446a.207.207,0,1,1,.327.255c-.114.147-.225.293-.331.437A.207.207,0,0,1,755.206,235.235Zm46.361-.2a.207.207,0,0,1-.181-.105q-.135-.239-.275-.475a.207.207,0,0,1,.356-.211q.142.239.279.482a.207.207,0,0,1-.18.309Zm-45.681-.672a.207.207,0,0,1-.16-.338c.116-.141.236-.285.358-.428a.207.207,0,0,1,.315.269c-.12.14-.239.282-.352.42A.206.206,0,0,1,755.886,234.362ZM801,234.083a.207.207,0,0,1-.176-.1q-.144-.233-.293-.463a.207.207,0,0,1,.348-.225q.151.233.3.47a.207.207,0,0,1-.176.316Zm-44.4-.561a.207.207,0,0,1-.154-.345c.123-.138.249-.276.376-.411a.207.207,0,1,1,.3.282c-.124.133-.249.27-.37.405A.207.207,0,0,1,756.605,233.522Zm43.8-.366a.206.206,0,0,1-.172-.091q-.153-.227-.311-.451a.207.207,0,1,1,.339-.238q.16.227.315.458a.207.207,0,0,1-.172.323Zm-43.047-.443a.207.207,0,0,1-.149-.351q.189-.195.391-.4a.207.207,0,1,1,.292.294q-.2.2-.386.39A.206.206,0,0,1,757.359,232.713Zm42.412-.459a.207.207,0,0,1-.167-.085q-.162-.221-.328-.438a.207.207,0,1,1,.329-.251q.168.22.333.444a.207.207,0,0,1-.167.33Zm-41.627-.32a.207.207,0,0,1-.143-.357q.2-.188.406-.38a.207.207,0,0,1,.28.305q-.206.189-.4.375A.206.206,0,0,1,758.144,231.935Zm40.958-.556a.207.207,0,0,1-.162-.078c-.113-.142-.229-.284-.345-.424a.207.207,0,1,1,.319-.265c.118.142.235.286.35.43a.207.207,0,0,1-.162.336Zm-40.144-.192a.207.207,0,0,1-.137-.362q.2-.181.42-.365a.207.207,0,1,1,.269.315q-.212.181-.414.36A.206.206,0,0,1,758.958,231.187Zm39.441-.655a.207.207,0,0,1-.157-.072c-.119-.137-.241-.276-.363-.411a.207.207,0,0,1,.308-.277c.124.137.248.278.369.417a.207.207,0,0,1-.157.343Zm-38.6-.062a.207.207,0,0,1-.132-.367q.212-.174.433-.349a.207.207,0,1,1,.257.325q-.218.172-.427.344A.207.207,0,0,1,759.8,230.47Zm.867-.685a.207.207,0,0,1-.126-.372q.219-.166.445-.333a.207.207,0,1,1,.245.334q-.224.164-.44.328A.206.206,0,0,1,760.665,229.785Zm36.993-.073a.206.206,0,0,1-.151-.065c-.125-.133-.253-.266-.38-.395a.207.207,0,1,1,.3-.29c.129.132.259.267.386.4a.207.207,0,0,1-.151.349Zm-36.1-.58a.207.207,0,0,1-.12-.376q.225-.159.457-.316a.207.207,0,0,1,.233.343q-.229.156-.451.312A.207.207,0,0,1,761.556,229.132Zm35.328-.208a.206.206,0,0,1-.145-.059c-.13-.127-.263-.254-.4-.378a.207.207,0,1,1,.283-.3c.135.126.271.255.4.384a.207.207,0,0,1-.145.355Zm-34.415-.412a.207.207,0,0,1-.113-.38q.23-.15.468-.3a.207.207,0,0,1,.22.351q-.235.147-.462.3A.205.205,0,0,1,762.47,228.512Zm33.607-.341a.206.206,0,0,1-.138-.052c-.137-.122-.276-.243-.413-.359a.207.207,0,0,1,.268-.316c.139.119.281.242.42.366a.207.207,0,0,1-.138.362Zm-32.672-.246a.207.207,0,0,1-.107-.384q.236-.142.478-.283a.207.207,0,1,1,.208.358q-.239.139-.472.279A.205.205,0,0,1,763.4,227.924Zm31.83-.469a.206.206,0,0,1-.13-.046c-.141-.114-.286-.229-.429-.339a.207.207,0,0,1,.253-.328c.146.113.293.229.437.346a.207.207,0,0,1-.13.368Zm-30.874-.085a.207.207,0,0,1-.1-.388q.241-.134.488-.266a.207.207,0,1,1,.195.365q-.244.13-.482.262A.206.206,0,0,1,764.36,227.371Zm.974-.519a.207.207,0,0,1-.094-.392q.246-.125.5-.248a.207.207,0,0,1,.182.372q-.248.121-.491.245A.207.207,0,0,1,765.335,226.851Zm29.025-.07a.206.206,0,0,1-.122-.04c-.147-.108-.3-.215-.445-.317a.207.207,0,0,1,.236-.34c.151.1.3.214.454.324a.207.207,0,0,1-.122.374Zm-28.033-.415a.207.207,0,0,1-.088-.395q.25-.117.506-.231a.207.207,0,1,1,.169.378q-.252.113-.5.228A.206.206,0,0,1,766.327,226.366Zm27.125-.214a.205.205,0,0,1-.113-.034c-.153-.1-.308-.2-.461-.293a.207.207,0,0,1,.217-.352c.157.1.315.2.471.3a.207.207,0,0,1-.114.38Zm-26.117-.236a.207.207,0,0,1-.081-.4q.254-.108.513-.213a.207.207,0,0,1,.156.384q-.256.1-.507.211A.207.207,0,0,1,767.335,225.916Zm25.177-.344a.207.207,0,0,1-.1-.028c-.157-.091-.318-.181-.477-.267a.207.207,0,1,1,.2-.364c.162.088.326.18.487.273a.207.207,0,0,1-.1.386Zm-24.154-.071a.207.207,0,0,1-.075-.4q.257-.1.52-.2a.207.207,0,1,1,.143.389q-.259.1-.513.193A.208.208,0,0,1,768.358,225.5Zm1.037-.38a.207.207,0,0,1-.068-.4q.261-.091.526-.178a.207.207,0,1,1,.129.393q-.262.086-.52.176A.208.208,0,0,1,769.4,225.121Zm22.146-.074a.205.205,0,0,1-.093-.022c-.163-.082-.328-.162-.491-.237a.207.207,0,0,1,.174-.376c.167.077.336.159.5.243a.207.207,0,0,1-.093.392Zm-21.1-.271a.207.207,0,0,1-.061-.4q.263-.082.532-.16a.207.207,0,0,1,.116.4q-.265.077-.525.158A.207.207,0,0,1,770.444,224.776Zm20.1-.194a.206.206,0,0,1-.081-.017c-.167-.071-.337-.14-.505-.205a.207.207,0,1,1,.15-.386c.172.067.346.137.518.21a.207.207,0,0,1-.081.4Zm-19.036-.116a.207.207,0,0,1-.055-.407q.266-.073.537-.143a.207.207,0,0,1,.1.4q-.267.069-.53.141A.208.208,0,0,1,771.5,224.467Zm1.069-.275a.207.207,0,0,1-.048-.408q.268-.064.541-.125a.207.207,0,1,1,.09.4q-.269.06-.535.124A.206.206,0,0,1,772.573,224.192Zm16.937-.007a.207.207,0,0,1-.068-.012c-.172-.06-.346-.117-.518-.17a.207.207,0,1,1,.122-.4c.176.054.355.113.531.174a.207.207,0,0,1-.068.4Zm-15.859-.233a.207.207,0,0,1-.042-.41q.27-.056.545-.108a.207.207,0,1,1,.078.407q-.271.052-.538.107A.213.213,0,0,1,773.651,223.951Zm14.8-.092a.209.209,0,0,1-.054-.007c-.176-.047-.354-.091-.528-.131a.207.207,0,0,1,.092-.4c.18.041.362.086.543.135a.207.207,0,0,1-.054.407Zm-13.72-.114a.207.207,0,0,1-.035-.411q.272-.047.548-.091a.207.207,0,1,1,.065.409q-.273.043-.541.09A.211.211,0,0,1,774.735,223.745Zm12.644-.131a.207.207,0,0,1-.038,0c-.179-.033-.359-.064-.536-.089a.207.207,0,1,1,.06-.41c.182.027.368.058.553.092a.207.207,0,0,1-.038.411Zm-11.554-.042a.207.207,0,0,1-.029-.412q.273-.039.55-.075a.207.207,0,1,1,.053.411q-.274.035-.544.074Zm10.462-.118h-.023q-.275-.03-.547-.056a.207.207,0,0,1,.04-.412q.274.027.551.057a.207.207,0,0,1-.022.413Zm-9.367-.023a.207.207,0,0,1-.023-.413q.274-.031.552-.058a.207.207,0,1,1,.041.412q-.275.027-.546.058Zm8.268-.084h-.018q-.275-.023-.548-.043a.207.207,0,0,1,.03-.413q.275.02.553.044a.207.207,0,0,1-.017.413Zm-7.169-.024a.207.207,0,0,1-.017-.413q.275-.023.553-.042a.207.207,0,1,1,.029.413q-.275.019-.547.042Zm6.068-.056h-.013q-.276-.017-.549-.03a.207.207,0,1,1,.02-.414q.275.013.554.031a.207.207,0,0,1-.013.414Zm-4.966-.021a.207.207,0,0,1-.011-.414q.275-.015.554-.027a.207.207,0,0,1,.017.414q-.276.012-.549.027Zm3.864-.033h-.008q-.276-.01-.549-.017a.207.207,0,1,1,.01-.414q.276.007.554.017a.207.207,0,0,1-.007.414Zm-2.76-.013a.207.207,0,0,1-.006-.414q.276-.008.555-.012h0a.207.207,0,0,1,0,.414q-.276,0-.549.012Zm1.656-.014h0l-.478,0h-.072a.207.207,0,0,1,0-.414h.072l.483,0a.207.207,0,0,1,0,.414Z" transform="translate(-754.373 -222.769)" fill="#e3a780" stroke="rgba(0,0,0,0)" stroke-width="1"/>
    </g>
    <g id="Group_17914" data-name="Group 17914" transform="translate(25.785 14.048)">
      <g id="Group_17897" data-name="Group 17897" transform="translate(0 20.545)">
        <path id="Path_91463" data-name="Path 91463" d="M484.393,669.888l-.363.391c-.864.937-3.21,3.482-5.792,6.41-.609.691-1.237,1.409-1.864,2.128-.937,1.082-1.855,2.164-2.71,3.21l-.009.009c-.264.309-.509.609-.755.909-.509.628-.982,1.228-1.419,1.792a15.106,15.106,0,0,0-2.4,3.792c-1.046,4.374.991,16.685,1.519,19.695H442.03c.864-6.256,2.064-15.094,2.219-16.44.236-2.119-7.156-11.211-7.283-17.849s4.264-11.375,4.956-17.9a45.526,45.526,0,0,0-.537-10.484c-.255-1.809-.555-3.428-.791-4.656a1.7,1.7,0,0,1,.455-1.537,1.491,1.491,0,0,1,.327-.264,1.676,1.676,0,0,1,1.609-.127c1.637.7,3.455,2.555,3.928,7.183,0,0,1.373.864,3.592,2.273.9.564,1.937,1.218,3.083,1.946.882.555,1.828,1.155,2.819,1.782.064.036.127.082.191.118.4.254.791.509,1.209.773h.009c.145.091.291.191.446.282q.4.259.818.518a1.1,1.1,0,0,0,.173.1l5.583,3.555h.009c.309.182.618.382.927.582.236.154.482.3.727.455.3.2.609.391.918.582h.009c2.155,1.364,4.264,2.71,6.237,3.955.309.2.618.391.918.582.246.155.482.309.718.455.318.2.609.391.909.591h.009c3.764,2.373,6.674,4.228,7.738,4.91C484.238,669.788,484.393,669.879,484.393,669.888Z" transform="translate(-436.963 -638.816)" fill="#ffb27d"/>
        <path id="Path_91464" data-name="Path 91464" d="M479.923,645.455a1.483,1.483,0,0,1-1.255,1.565l-.2.029c-.259-1.8-.555-3.425-.791-4.653a6.513,6.513,0,0,1-.245-1.792c1.243-.608,1.721.862,1.874,1.459A18.933,18.933,0,0,1,479.923,645.455Z" transform="translate(-474.046 -640.322)" fill="#ffc197"/>
      </g>
      <path id="Path_91465" data-name="Path 91465" d="M641.6,1054.156c-.937,1.082-1.855,2.164-2.71,3.21l-.009.009c-.264.309-.509.609-.755.909-.509.628-.982,1.228-1.419,1.792a15.1,15.1,0,0,0-2.4,3.791c-1.046,4.374.991,16.685,1.519,19.695H617.237c3.446-5.137,3.892-14.184,3.919-18.34a10.269,10.269,0,0,1,.891-3.628,43.873,43.873,0,0,1,4.455-7.811c1.509-2.2,2.9-3.964,3.464-4.665v-.009c.182-.209.273-.328.273-.328l10.275-.436h.009l.136.727.109.618.473,2.564Z" transform="translate(-602.186 -993.61)" fill="#ffb27d" opacity="0.3"/>
      <g id="Group_17912" data-name="Group 17912" transform="translate(7.611 0)">
        <g id="Group_17901" data-name="Group 17901">
          <path id="Path_91466" data-name="Path 91466" d="M567.17,460.148l-30.751,3.178a1.768,1.768,0,0,1-1.934-1.572l-6.355-61.495a1.768,1.768,0,0,1,1.572-1.934l30.751-3.178a1.767,1.767,0,0,1,1.934,1.572l6.355,61.495A1.768,1.768,0,0,1,567.17,460.148Z" transform="translate(-528.12 -394.795)" fill="#73793b"/>
          <path id="Path_91467" data-name="Path 91467" d="M606.943,456.038l-30.751,3.178a1.768,1.768,0,0,1-1.934-1.572L567.9,396.149a1.767,1.767,0,0,1,1.572-1.934l30.751-3.178a1.767,1.767,0,0,1,1.934,1.572l6.355,61.495A1.768,1.768,0,0,1,606.943,456.038Z" transform="translate(-564.573 -391.028)" fill="#d5e4c5"/>
          <g id="Group_17898" data-name="Group 17898" transform="translate(14.753 3.538)">
            <path id="Path_91468" data-name="Path 91468" d="M733.368,433.719a.349.349,0,0,0-.382-.311l-8.905.92a.348.348,0,1,0,.072.693l8.905-.92A.349.349,0,0,0,733.368,433.719Z" transform="translate(-722.186 -433.407)" fill="#d3671e" opacity="0.4"/>
            <path id="Path_91469" data-name="Path 91469" d="M705.137,446.39a.348.348,0,1,0,.382.311A.349.349,0,0,0,705.137,446.39Z" transform="translate(-704.824 -445.304)" fill="#d3671e" opacity="0.4"/>
          </g>
          <path id="Path_91470" data-name="Path 91470" d="M829.665,1120.3a2.246,2.246,0,1,0-2,2.466A2.246,2.246,0,0,0,829.665,1120.3Z" transform="translate(-800.382 -1057.565)" fill="#2c2c2c" opacity="0.4"/>
          <rect id="Rectangle_5725" data-name="Rectangle 5725" width="28.633" height="52.855" transform="translate(6.533 8.228) rotate(-5.9)" fill="#f0fae5"/>
          <rect id="Rectangle_5726" data-name="Rectangle 5726" width="28.633" height="6.136" transform="translate(11.336 54.704) rotate(-5.9)" fill="#73793b"/>
          <g id="Group_17899" data-name="Group 17899" transform="translate(20.165 53.793)">
            <path id="Path_91471" data-name="Path 91471" d="M769.992,1037.485l14.7-1.519a.311.311,0,1,0-.064-.618l-14.7,1.519a.312.312,0,0,0-.277.341h0A.311.311,0,0,0,769.992,1037.485Z" transform="translate(-769.649 -1035.347)" fill="#d5e4c5"/>
            <path id="Path_91472" data-name="Path 91472" d="M786.644,1051.839a.312.312,0,0,0-.341-.277l-14.7,1.519a.311.311,0,0,0,.064.618l14.7-1.519A.311.311,0,0,0,786.644,1051.839Z" transform="translate(-771.185 -1050.206)" fill="#d5e4c5"/>
          </g>
          <path id="Path_91473" data-name="Path 91473" d="M700.164,1024.278a1.776,1.776,0,0,0-.154-.582,2.07,2.07,0,0,0-2.146-1.291,2.1,2.1,0,0,0-1.846,1.7,2.273,2.273,0,0,0-.027.609c.118,1.145,2.473,3.492,2.473,3.492S700.282,1025.433,700.164,1024.278Zm-1.991,1.173a.979.979,0,0,1-1.073-.873,1.027,1.027,0,0,1,.127-.6.992.992,0,0,1,.746-.482.952.952,0,0,1,.827.318.976.976,0,0,1-.627,1.637Z" transform="translate(-681.967 -969.682)" fill="#f37022"/>
          <g id="Group_17900" data-name="Group 17900" transform="translate(10.56 13.391)">
            <rect id="Rectangle_5727" data-name="Rectangle 5727" width="16.51" height="13.613" transform="matrix(-0.995, 0.103, -0.103, -0.995, 17.822, 14.121)" fill="#d3671e"/>
            <rect id="Rectangle_5728" data-name="Rectangle 5728" width="13.897" height="13.613" transform="matrix(0.995, -0.103, 0.103, 0.995, 8.211, 1.429)" fill="#f1a34f"/>
            <path id="Path_91474" data-name="Path 91474" d="M767.82,577.207l.355,3.434-13.823,1.429-1.4-13.541Z" transform="translate(-744.741 -567.1)" fill="#d86713" opacity="0.4"/>
            <path id="Path_91475" data-name="Path 91475" d="M665.8,683l2.6-.269-.3-.708.175-.547-2.6.269Z" transform="translate(-664.749 -670.622)" fill="#f1a34f"/>
            <path id="Path_91476" data-name="Path 91476" d="M659.053,617.679l2.6-.269-.3-.709.175-.547-2.6.269Z" transform="translate(-658.562 -610.749)" fill="#f1a34f"/>
            <path id="Path_91477" data-name="Path 91477" d="M894.3,593.368l-2.6.269.154-.756-.283-.5,2.6-.269Z" transform="translate(-871.781 -588.715)" fill="#d86713" opacity="0.4"/>
          </g>
        </g>
        <g id="Group_17911" data-name="Group 17911" transform="translate(11.749 31.207)">
          <g id="Group_17903" data-name="Group 17903" transform="translate(0)">
            <g id="Group_17902" data-name="Group 17902" transform="translate(0 1.586)">
              <path id="Path_91478" data-name="Path 91478" d="M671.531,784.089a1.91,1.91,0,0,0-.273-.145,1.86,1.86,0,0,0-.846-.118,1.746,1.746,0,0,0-1.482,1.219,1.636,1.636,0,0,0-.073.7,1.751,1.751,0,0,0,1.918,1.555,1.608,1.608,0,0,0,1-.464,1.692,1.692,0,0,0,.555-1.455A1.729,1.729,0,0,0,671.531,784.089Zm.073,2.646a1.524,1.524,0,0,1-.846.364,1.542,1.542,0,0,1-1.691-1.373,1.472,1.472,0,0,1,.055-.564,1.515,1.515,0,0,1,1.319-1.136,1.359,1.359,0,0,1,.718.109,1.172,1.172,0,0,1,.3.154,1.54,1.54,0,0,1,.145,2.446Z" transform="translate(-668.847 -783.818)" fill="#d5e4c5"/>
            </g>
            <path id="Path_91479" data-name="Path 91479" d="M677.7,767.358l1.106,1.721,1.482-4.259-1.611,3.007Z" transform="translate(-676.96 -764.819)" fill="#73793b"/>
          </g>
          <g id="Group_17905" data-name="Group 17905" transform="translate(0.665 6.403)">
            <g id="Group_17904" data-name="Group 17904" transform="translate(0 1.585)">
              <path id="Path_91480" data-name="Path 91480" d="M680.29,862.062a1.747,1.747,0,0,0-.8-1.3,2.646,2.646,0,0,0-.273-.146,1.88,1.88,0,0,0-.845-.118,1.746,1.746,0,1,0,1.919,1.564Zm-1.582,1.71a1.54,1.54,0,1,1-.309-3.065,1.458,1.458,0,0,1,.718.1,1.159,1.159,0,0,1,.3.155,1.528,1.528,0,0,1,.673,1.118A1.554,1.554,0,0,1,678.708,863.772Z" transform="translate(-676.807 -860.491)" fill="#d5e4c5"/>
            </g>
            <path id="Path_91481" data-name="Path 91481" d="M685.624,844.047l1.106,1.721,1.482-4.259-1.611,3.007Z" transform="translate(-684.888 -841.508)" fill="#73793b"/>
          </g>
          <g id="Group_17907" data-name="Group 17907" transform="translate(1.328 14.387)">
            <g id="Group_17906" data-name="Group 17906">
              <path id="Path_91482" data-name="Path 91482" d="M688.24,938.717a1.746,1.746,0,1,0-1.555,1.919A1.752,1.752,0,0,0,688.24,938.717Zm-1.582,1.71a1.54,1.54,0,1,1,1.373-1.691A1.541,1.541,0,0,1,686.658,940.427Z" transform="translate(-684.757 -937.144)" fill="#d5e4c5"/>
            </g>
          </g>
          <g id="Group_17908" data-name="Group 17908" transform="translate(5.689 0.24)">
            <path id="Path_91483" data-name="Path 91483" d="M753.777,768.367l-16.443,1.7a.305.305,0,0,1-.334-.272l-.007-.067a.305.305,0,0,1,.271-.334l16.443-1.7a.306.306,0,0,1,.334.272l.007.067A.305.305,0,0,1,753.777,768.367Z" transform="translate(-736.991 -767.693)" fill="#d5e4c5"/>
            <path id="Path_91484" data-name="Path 91484" d="M755.259,782.708l-16.443,1.7a.305.305,0,0,1-.334-.272l-.007-.067a.305.305,0,0,1,.271-.334l16.443-1.7a.305.305,0,0,1,.334.272l.007.067A.305.305,0,0,1,755.259,782.708Z" transform="translate(-738.349 -780.836)" fill="#d5e4c5"/>
          </g>
          <g id="Group_17909" data-name="Group 17909" transform="translate(6.352 6.653)">
            <path id="Path_91485" data-name="Path 91485" d="M761.715,845.184l-16.443,1.7a.305.305,0,0,1-.334-.272l-.007-.067a.305.305,0,0,1,.272-.334l16.443-1.7a.305.305,0,0,1,.334.272l.007.067A.306.306,0,0,1,761.715,845.184Z" transform="translate(-744.929 -844.51)" fill="#d5e4c5"/>
            <path id="Path_91486" data-name="Path 91486" d="M763.2,859.526l-16.443,1.7a.305.305,0,0,1-.334-.271l-.007-.067a.305.305,0,0,1,.271-.334l16.443-1.7a.306.306,0,0,1,.334.272l.007.067A.305.305,0,0,1,763.2,859.526Z" transform="translate(-746.289 -857.654)" fill="#d5e4c5"/>
          </g>
          <g id="Group_17910" data-name="Group 17910" transform="translate(7.015 13.067)">
            <path id="Path_91487" data-name="Path 91487" d="M769.655,922l-16.443,1.7a.305.305,0,0,1-.334-.271l-.007-.067a.305.305,0,0,1,.271-.334l16.443-1.7a.305.305,0,0,1,.334.272l.007.067A.305.305,0,0,1,769.655,922Z" transform="translate(-752.87 -921.328)" fill="#d5e4c5"/>
            <path id="Path_91488" data-name="Path 91488" d="M771.136,936.343l-16.443,1.7a.305.305,0,0,1-.334-.271l-.007-.067a.305.305,0,0,1,.272-.334l16.443-1.7a.305.305,0,0,1,.334.272l.007.067A.305.305,0,0,1,771.136,936.343Z" transform="translate(-754.227 -934.471)" fill="#d5e4c5"/>
          </g>
        </g>
      </g>
      <g id="Group_17913" data-name="Group 17913" transform="translate(40.521 7.727)">
        <path id="Path_91489" data-name="Path 91489" d="M988.845,485.981s4.463-3.966,7.391-1.715-6.586,9.5-6.586,9.5Z" transform="translate(-983.291 -483.575)" fill="#ffb27d"/>
        <path id="Path_91490" data-name="Path 91490" d="M933.584,626.262l-5.187,2.869a3.133,3.133,0,0,1-4.246-1.221l-.847-1.531a3.133,3.133,0,0,1,1.221-4.246l5.187-2.869a3.133,3.133,0,0,1,4.246,1.221l.847,1.531A3.133,3.133,0,0,1,933.584,626.262Z" transform="translate(-922.866 -607.579)" fill="#ffb27d"/>
        <path id="Path_91491" data-name="Path 91491" d="M944.341,730.35l-5.187,2.869A3.133,3.133,0,0,1,934.908,732l-.847-1.531a3.133,3.133,0,0,1,1.221-4.246l5.187-2.869a3.133,3.133,0,0,1,4.246,1.222l.847,1.531A3.133,3.133,0,0,1,944.341,730.35Z" transform="translate(-932.725 -702.976)" fill="#ffb27d"/>
        <path id="Path_91492" data-name="Path 91492" d="M954.807,831.625l-5.187,2.869a3.134,3.134,0,0,1-4.246-1.221l-.847-1.532a3.133,3.133,0,0,1,1.221-4.246l5.187-2.869a3.133,3.133,0,0,1,4.246,1.222l.847,1.531A3.133,3.133,0,0,1,954.807,831.625Z" transform="translate(-942.317 -795.797)" fill="#ffb27d"/>
        <path id="Path_91493" data-name="Path 91493" d="M923,662.283a18.586,18.586,0,0,1,2.909-1.847,1.486,1.486,0,0,1,1.924.568l1.137,1.9a1.4,1.4,0,0,1-.463,1.918,25.135,25.135,0,0,1-3.088,1.641,1.73,1.73,0,0,1-2.189-.744l-.69-1.224A1.713,1.713,0,0,1,923,662.283Z" transform="translate(-922.314 -645.533)" fill="#ffc197"/>
        <path id="Path_91494" data-name="Path 91494" d="M934.051,769.238a18.579,18.579,0,0,1,2.909-1.847,1.486,1.486,0,0,1,1.924.568l1.137,1.9a1.4,1.4,0,0,1-.463,1.918,25.136,25.136,0,0,1-3.088,1.641,1.73,1.73,0,0,1-2.189-.744l-.69-1.224A1.713,1.713,0,0,1,934.051,769.238Z" transform="translate(-932.445 -743.559)" fill="#ffc197"/>
        <path id="Path_91495" data-name="Path 91495" d="M946.38,869.483a18.591,18.591,0,0,1,2.909-1.847,1.486,1.486,0,0,1,1.924.568l1.137,1.9a1.4,1.4,0,0,1-.463,1.918,25.156,25.156,0,0,1-3.088,1.641,1.73,1.73,0,0,1-2.189-.743l-.69-1.224A1.713,1.713,0,0,1,946.38,869.483Z" transform="translate(-943.744 -835.435)" fill="#ffc197"/>
      </g>
    </g>
    <g id="Group_17915" data-name="Group 17915" transform="translate(89.167 76.74)">
      <path id="Path_91496" data-name="Path 91496" d="M1289.874,1183.3l11.99,1.887-7.895-5.549-.431,1.736-2.929.487Z" transform="translate(-1282.148 -1176.601)" fill="#ca5f00"/>
      <path id="Path_91497" data-name="Path 91497" d="M1217.047,1180.973l-9.924-5.3-9.792-.634Z" transform="translate(-1197.331 -1172.391)" fill="#f1a34f"/>
      <path id="Path_91498" data-name="Path 91498" d="M1338.926,1146.339l7.895,5.549-6.05-8.582Z" transform="translate(-1327.104 -1143.306)" fill="#f1a34f"/>
    </g>
    <g id="Group_17916" data-name="Group 17916" transform="translate(74.123 3.138)">
      <path id="Path_91499" data-name="Path 91499" d="M1026.149,299.8l-9.312-4.8,8.327.16-.585,1.429,1.792,1.833Z" transform="translate(-1016.837 -292.105)" fill="#ca5f00"/>
      <path id="Path_91500" data-name="Path 91500" d="M1016.837,295l9.612,1.369,7.142,4.55Z" transform="translate(-1016.837 -292.105)" fill="#f1a34f"/>
      <path id="Path_91501" data-name="Path 91501" d="M1025.164,263.4l-8.327-.16,8.588-2.893Z" transform="translate(-1016.837 -260.351)" fill="#f1a34f"/>
    </g>
  </g>
</svg>
