<svg xmlns="http://www.w3.org/2000/svg" xmlns:xlink="http://www.w3.org/1999/xlink" width="150" height="166" viewBox="0 0 150 166">
  <defs>
    <clipPath id="clip-path">
      <path id="Union_32" data-name="Union 32" d="M0,81A75.618,75.618,0,0,1,.8,70H0V-10H150V70h-.8A75,75,0,1,1,0,81Z" transform="translate(552 7839)" fill="#fff"/>
    </clipPath>
  </defs>
  <g id="Group_18146" data-name="Group 18146" transform="translate(-552 -7829)">
    <g id="Ellipse_1699" data-name="Ellipse 1699" transform="translate(552 7845)" fill="none" stroke="#d5e4c5" stroke-width="20">
      <circle cx="75" cy="75" r="75" stroke="none"/>
      <circle cx="75" cy="75" r="65" fill="none"/>
    </g>
    <g id="Mask_Group_255" data-name="Mask Group 255" clip-path="url(#clip-path)">
      <g id="Group_18145" data-name="Group 18145" transform="translate(370.243 7647.943)">
        <g id="Group_18090" data-name="Group 18090" transform="translate(223.89 214.93)">
          <path id="Path_91568" data-name="Path 91568" d="M309.529,431.319a3.173,3.173,0,0,0,2.586.413,44.624,44.624,0,0,1,6.828-1.372c.542-.079.656-.272.443-.7-.659-1.308.132-2.534.2-3.8a.827.827,0,0,1,.742-.721.989.989,0,0,1,1.078.57,3.779,3.779,0,0,1,.482,2.414c-.227,1.82.778,2.72,2.136,3.586a30.277,30.277,0,0,0,11.413,4.411c2.585.43,3.74,2.159,3.742,4.642,0,.921.482,1.705.449,2.643a89.5,89.5,0,0,1-1.269,11.208q-1.454,8.969-3.561,17.81c-.42,1.749-.887,3.488-1.294,5.24-.313,1.345-1.364,2.285-1.858,3.52a4.053,4.053,0,0,1-3.577,2.642,67.566,67.566,0,0,1-11.622,1.115,24.571,24.571,0,0,1-7.488-1.09,14.477,14.477,0,0,1-5.891-4.166c-4.722-5.106-7.69-11.3-10.808-17.382-2.718-5.3-3.972-11.089-5.1-16.9a18.352,18.352,0,0,1,1.911-12.015c1.5-2.982,3.371-3.95,6.672-3.428a26.49,26.49,0,0,0,5.9.12,12.985,12.985,0,0,0,5.632-1.179c.437-.242.981-.354,1.274-.769a2.411,2.411,0,0,1,2.42-.83,1.62,1.62,0,0,1,1.5,1.119,1.335,1.335,0,0,1-.58,1.782A16.061,16.061,0,0,1,309.529,431.319Z" transform="translate(-286.839 -406.858)" fill="#ee916c"/>
          <path id="Path_91569" data-name="Path 91569" d="M407.551,334.056a51.179,51.179,0,0,1-1.453,9.666c-.988,4.638-2.432,9.152-3.762,13.7a4.11,4.11,0,0,1-.406,1.015c-.191.307-.529.693-.892.466-.873-.545-1.672-.034-2.507.016a15.249,15.249,0,0,1-7.347-1.076c-.547-.248-1.075-.539-1.612-.81-1.395-.7-1.556-1.126-.879-2.523a26.7,26.7,0,0,0,2.282-6.812,9.133,9.133,0,0,0,.259-1.675c-.015-2.7,1.553-4.658,3.183-6.491a41.574,41.574,0,0,1,8.226-7.3,17.141,17.141,0,0,1,1.8-1.086,2.065,2.065,0,0,1,3.111,1.9C407.553,333.387,407.551,333.721,407.551,334.056Z" transform="translate(-368.642 -330.881)" fill="#ee916c"/>
          <g id="Group_18089" data-name="Group 18089" transform="translate(34.43 22.846)">
            <path id="Path_91570" data-name="Path 91570" d="M464.9,452.917a.218.218,0,0,1-.209-.156,10.108,10.108,0,0,1-.005-3.819.218.218,0,0,1,.429.08,9.868,9.868,0,0,0-.005,3.616.218.218,0,0,1-.147.271A.222.222,0,0,1,464.9,452.917Z" transform="translate(-464.49 -448.764)" fill="#a33f32"/>
          </g>
        </g>
        <g id="Group_18093" data-name="Group 18093" transform="translate(234.049 296.399)">
          <path id="Path_91571" data-name="Path 91571" d="M339.315,806.7c-.192-10.911-.03-21.847,3-29.291,2.164-5.321,6.819-12.449,6.519-14.577-.37-2.625-.383-7.2,1.115-8.125,3.1-1.917,6.822-2.457,10.174-2.775a111.755,111.755,0,0,1,15.118-.62,67.263,67.263,0,0,1,7.37.777,2.247,2.247,0,0,1,2.079,2.34c.166,4.615,1.385,9.063,2.1,13.592,1.532,9.759,3.618,19.392,4.911,29.193.412,3.122,1.269,7.1-1.4,9.5C386.35,810.253,339.474,815.727,339.315,806.7Z" transform="translate(-339.26 -751.248)" fill="#ea9a43"/>
          <path id="Path_91572" data-name="Path 91572" d="M461.4,877.129a.691.691,0,0,0-.914-.323,1.088,1.088,0,0,0-.374.388,3.882,3.882,0,0,0-.522,2.141,1.183,1.183,0,0,0,.365.944.611.611,0,0,0,.859-.109,2.4,2.4,0,0,0,.466-1.017A3.122,3.122,0,0,0,461.4,877.129Z" transform="translate(-436.267 -852.414)" fill="#a64f1a"/>
          <path id="Path_91573" data-name="Path 91573" d="M451.376,928.9a.691.691,0,0,0-.935-.257,1.09,1.09,0,0,0-.345.414,3.883,3.883,0,0,0-.368,2.173,1.183,1.183,0,0,0,.432.915.611.611,0,0,0,.849-.169,2.4,2.4,0,0,0,.392-1.048A3.122,3.122,0,0,0,451.376,928.9Z" transform="translate(-428.297 -894.191)" fill="#a64f1a"/>
          <path id="Path_91574" data-name="Path 91574" d="M442.973,974.572a.691.691,0,0,0-.935-.257,1.09,1.09,0,0,0-.345.414,3.883,3.883,0,0,0-.368,2.174,1.183,1.183,0,0,0,.432.915.611.611,0,0,0,.849-.17A2.4,2.4,0,0,0,443,976.6,3.123,3.123,0,0,0,442.973,974.572Z" transform="translate(-421.522 -931.009)" fill="#a64f1a"/>
          <g id="Group_18091" data-name="Group 18091" transform="translate(10.918 9.09)">
            <path id="Path_91575" data-name="Path 91575" d="M395.814,801.132a.218.218,0,0,1-.1-.411c.095-.049,9.734-4.862,33.773-1.19a.218.218,0,1,1-.066.431c-23.872-3.645-33.413,1.1-33.507,1.146A.216.216,0,0,1,395.814,801.132Z" transform="translate(-395.596 -798.15)" fill="#a64f1a"/>
          </g>
          <g id="Group_18092" data-name="Group 18092" transform="translate(13.467 9.194)">
            <path id="Path_91576" data-name="Path 91576" d="M408.967,847.8h-.024a.218.218,0,0,1-.192-.241c1.323-11.838,10.012-48.561,10.078-48.732a.218.218,0,0,1,.412.142c-.107.4-8.728,36.751-10.056,48.639A.218.218,0,0,1,408.967,847.8Z" transform="translate(-408.749 -798.687)" fill="#a64f1a"/>
          </g>
        </g>
        <g id="Group_18096" data-name="Group 18096" transform="translate(249.203 187.056)">
          <path id="Path_91577" data-name="Path 91577" d="M418.453,196.185c-.419-.061-.951-.131-1-.671-.051-.587.448-.543.853-.558.09,0,.24-.037.258-.092.415-1.22,2.2-1.077,3.082-1.043.479.018.894-.1.887-1.106-.006-.8-.13-1.6-.169-2.4A2.321,2.321,0,0,1,424,187.741c3.875-1.517,5.867-.437,7.928,2.506a4.137,4.137,0,0,1-1.06,5.508,3.528,3.528,0,0,0-1.523,3.445C429.406,199.568,420.086,196.425,418.453,196.185Z" transform="translate(-417.451 -187.056)" fill="#7a444a"/>
          <g id="Group_18094" data-name="Group 18094" transform="translate(6.641 1.952)">
            <path id="Path_91578" data-name="Path 91578" d="M452.157,202.522a.218.218,0,0,1-.215-.181c-.066-.382-.623-3.759.308-4.508a5.4,5.4,0,0,1,4.045-.526,2.3,2.3,0,0,1,1.644,1.478,2.165,2.165,0,0,1-.1,1.8,2.912,2.912,0,0,1-1.731,1.219.218.218,0,0,1-.1-.424,2.507,2.507,0,0,0,1.451-1.01,1.75,1.75,0,0,0,.065-1.444,1.862,1.862,0,0,0-1.354-1.2,5.071,5.071,0,0,0-3.649.448c-.552.444-.386,2.747-.152,4.094a.218.218,0,0,1-.178.252A.225.225,0,0,1,452.157,202.522Z" transform="translate(-451.717 -197.131)" fill="#4d2323"/>
          </g>
          <g id="Group_18095" data-name="Group 18095" transform="translate(7.58 3.082)">
            <path id="Path_91579" data-name="Path 91579" d="M459.7,205.63a.218.218,0,0,1-.179-.341.989.989,0,0,0,.213-.81c-.087-.345-.445-.68-1.062-1a.677.677,0,0,0-.563-.042,2.673,2.673,0,0,0-1.129,1.315.218.218,0,1,1-.4-.173c.022-.051.55-1.254,1.382-1.552a1.107,1.107,0,0,1,.909.064,2.2,2.2,0,0,1,1.286,1.278,1.412,1.412,0,0,1-.276,1.164A.218.218,0,0,1,459.7,205.63Z" transform="translate(-456.564 -202.961)" fill="#4d2323"/>
          </g>
        </g>
        <g id="Group_18108" data-name="Group 18108" transform="translate(209.175 235.553)">
          <path id="Path_91580" data-name="Path 91580" d="M514.472,510.193a37.418,37.418,0,0,1,1.936-10.385,44.969,44.969,0,0,1,3.129-8.432c.6-1.134,1.122-2.4,2.593-2.726.429-.095.262-.354.2-.614-.081-.362,0-.685.411-.785a.769.769,0,0,1,.948.36,14.364,14.364,0,0,1,1.024,2.6c.988,2.94,1.561,6,2.4,8.98a23.4,23.4,0,0,0,2.716,5.629c1.9,3.184,3.766,6.382,5.413,9.706.311.627.676,1.228,1.015,1.841.382.694.828,1.249,1.743.84.4-.177.558.106.679.387.875,2.038,2.366,3.734,3.307,5.707,2.011,4.218,1.087,7.19-2.337,10.243-.371.331-.81.585-1.214.879a3.6,3.6,0,0,1-4.545.026,46.657,46.657,0,0,1-7.86-6.481,24.9,24.9,0,0,1-4.023-5.584,1.6,1.6,0,0,1-.3-1.235,1.41,1.41,0,0,0-.523-1.584,32.752,32.752,0,0,1-3.7-4.716c-.172-.256-.282-.607-.761-.453-1.048.337-1.575-.28-1.848-1.163A9.119,9.119,0,0,1,514.472,510.193Z" transform="translate(-455.634 -477.536)" fill="#ffe1c9"/>
          <path id="Path_91581" data-name="Path 91581" d="M333.017,462.5a10.377,10.377,0,0,0,.281-3.027c.327-6.524-3.409-19.844-3.46-20.035-.278-1.044.428-1.1,1.482-.863a13.132,13.132,0,0,1,3.815,2.009,38.74,38.74,0,0,0,4.256,1.936c1.914.872,3.832,1.742,5.787,2.514,2.529,1,3.576,3.477,4.128,5.8.586,2.463,2.25,8.514,2.414,9.227.079.344-4.813,11.192-4.457,13.661.28,1.941.5,3.9.883,5.816.692,3.469,1.91,6.8,2.762,10.23a60.462,60.462,0,0,1,1.482,6.111,4.61,4.61,0,0,1-2.336,4.9c-.381.206-.934.551-1.205.339-.835-.654-2.03-.935-2.414-2.082a.539.539,0,0,0-.55-.445,100.478,100.478,0,0,0-11.806-.067c-2.937.13-5.835.548-8.731.93-1.677.221-3.335.81-5.018,1.166-1.162.246-2.327.474-3.491.707a1.81,1.81,0,0,1-1.569-.716c-4.8-4.579-9.032-9.582-11.255-15.965-.715-2.052-1.248-4.161-1.934-6.222-.693-2.082-1.736-3.989-2.527-6.028a33.412,33.412,0,0,1-1.51-5.948,82.055,82.055,0,0,1-1.416-12.876c-.124-4.419-.31-9.145,1.058-13.41.5-1.562,1.59-1.881,3.06-1.768a37.731,37.731,0,0,1,3.746.553,11.346,11.346,0,0,0,4.334-.556,27.524,27.524,0,0,1,5.665-1.068c.909-.031,1.143-.124,1.314.441a15.534,15.534,0,0,0,2.633,4.383c3.482,4.268,6.829,8.651,9.911,13.218q1.231,1.824,2.4,3.688c.362.576.7,1.166,1.057,1.747C332.064,461.214,332.565,462.344,333.017,462.5Z" transform="translate(-279.947 -437.29)" fill="#ffe1c9"/>
          <path id="Path_91582" data-name="Path 91582" d="M210.913,497.079c0-.8.308-1.5.308-2.3.241-.821.2-1.743.41-2.572a109.626,109.626,0,0,1,6.99-19.611,41.169,41.169,0,0,0,3.56-12.561c.335-2.745.724-5.491,1.269-8.2a12.227,12.227,0,0,1,2.154-4.557,14.323,14.323,0,0,1,3.22-3.631c1.067-.717,2.412-1.113,3.359-.259,4.168,3.758,4.161,10.525,5.625,15.632a38.832,38.832,0,0,1,.658,5.439,19.123,19.123,0,0,1,.243,5.71c-.221,1.413-1.25,2.3-1.473,3.73-.123.79-.2,1.588-.348,2.372q-.88,4.613-1.962,9.184c-.654,2.783-.976,6.559-3.374,8.484a5.967,5.967,0,0,1-2.066,1.036c-1.027.3-2.136.145-3.138.482a6.186,6.186,0,0,0-1.158.61,35.209,35.209,0,0,1-6.2,2.511,10.164,10.164,0,0,1-3.43.922,3.086,3.086,0,0,0-1.162.127,2.347,2.347,0,0,1-2.63-1.024C211.556,498.118,210.913,497.637,210.913,497.079Z" transform="translate(-210.913 -441.813)" fill="#ffe1c9"/>
          <g id="Group_18097" data-name="Group 18097" transform="translate(24.711 1.746)">
            <path id="Path_91583" data-name="Path 91583" d="M346.71,452a.5.5,0,0,1-.368-.157c-.351-.351-4.87-3.266-7.822-5.139a.218.218,0,0,1,.234-.368c.756.48,7.4,4.7,7.9,5.2.15.149.879-.377,1.584-.886a29.158,29.158,0,0,1,3.042-1.983.218.218,0,1,1,.211.381,28.4,28.4,0,0,0-3,1.955C347.662,451.6,347.109,452,346.71,452Z" transform="translate(-338.419 -446.298)" fill="#b5845e"/>
          </g>
          <g id="Group_18098" data-name="Group 18098" transform="translate(52.93 25.087)">
            <path id="Path_91584" data-name="Path 91584" d="M489.921,602.175a.218.218,0,0,1-.08-.421c.031-.012,3.15-1.264,3.818-3.334.729-2.261,1.468-14.437.638-16.929-.809-2.425-9.753-13.9-10.216-14.388a.218.218,0,1,1,.315-.3c.427.447,9.457,11.98,10.314,14.551.846,2.537.1,14.907-.637,17.2-.731,2.267-3.937,3.552-4.073,3.606A.218.218,0,0,1,489.921,602.175Z" transform="translate(-484.022 -566.736)" fill="#b5845e"/>
          </g>
          <g id="Group_18099" data-name="Group 18099" transform="translate(33.086 10.427)">
            <path id="Path_91585" data-name="Path 91585" d="M401.644,522.216a.218.218,0,0,1-.186-.1c-.888-1.45-6.818-10.644-12.051-18.757-2.073-3.214-4.011-6.219-5.43-8.423-.709-1.1-1.289-2-1.69-2.632-.7-1.087-.7-1.087-.629-1.208l.379.216-.187-.111.195-.1c.123.225,3.818,5.954,7.729,12.019,5.234,8.114,11.166,17.311,12.056,18.765a.218.218,0,0,1-.186.332Z" transform="translate(-381.63 -491.093)" fill="#b5845e"/>
          </g>
          <g id="Group_18100" data-name="Group 18100" transform="translate(52.653 5.171)">
            <path id="Path_91586" data-name="Path 91586" d="M491.255,466.75c-1.5,0-4.214-.267-5.191-.919a14.685,14.685,0,0,0-3.277-1.425.218.218,0,0,1,.025-.435,14,14,0,0,1,3.493,1.5c1.08.72,4.742.93,5.636.818a14.286,14.286,0,0,0-2.421-1.78.218.218,0,1,1,.23-.37c1.836,1.142,2.74,1.91,2.687,2.283a.317.317,0,0,1-.248.263A4.373,4.373,0,0,1,491.255,466.75Z" transform="translate(-482.595 -463.972)" fill="#b5845e"/>
          </g>
          <g id="Group_18101" data-name="Group 18101" transform="translate(20.71 2.596)">
            <path id="Path_91587" data-name="Path 91587" d="M327.185,484.823a.218.218,0,0,1-.215-.187c-2.779-19.671-7.663-30.6-9.093-33.477-.055-.11-.084-.173-.089-.189a.218.218,0,0,1,.411-.146c.009.02.032.067.069.141,1.438,2.9,6.346,13.875,9.134,33.609a.218.218,0,0,1-.185.247Z" transform="translate(-317.776 -450.683)" fill="#b5845e"/>
          </g>
          <g id="Group_18102" data-name="Group 18102" transform="translate(23.258 24.687)">
            <path id="Path_91588" data-name="Path 91588" d="M331.142,585.286a.218.218,0,0,1-.211-.165,7.723,7.723,0,0,1,.356-1.8c.832-3.741,3.041-13.678,2.93-18.427a.218.218,0,0,1,.213-.223.212.212,0,0,1,.223.213c.112,4.8-2.027,14.423-2.94,18.532-.189.85-.339,1.524-.352,1.645a.218.218,0,0,1-.165.219A.21.21,0,0,1,331.142,585.286Z" transform="translate(-330.923 -564.67)" fill="#b5845e"/>
          </g>
          <g id="Group_18103" data-name="Group 18103" transform="translate(23.259 12.898)">
            <path id="Path_91589" data-name="Path 91589" d="M331.622,522.439h-.013a.218.218,0,0,1-.2-.23c.1-1.775-.473-17.978-.479-18.141a.218.218,0,0,1,.21-.226.214.214,0,0,1,.226.21c.024.668.584,16.387.478,18.182A.218.218,0,0,1,331.622,522.439Z" transform="translate(-330.925 -503.841)" fill="#b5845e"/>
          </g>
          <g id="Group_18104" data-name="Group 18104" transform="translate(14.497 33.715)">
            <path id="Path_91590" data-name="Path 91590" d="M288.535,629.853a.218.218,0,0,1-.218-.22c.139-12.46-2.553-18.008-2.58-18.062a.218.218,0,0,1,.39-.195c.028.055,2.766,5.68,2.626,18.262A.218.218,0,0,1,288.535,629.853Z" transform="translate(-285.715 -611.255)" fill="#b5845e"/>
          </g>
          <g id="Group_18105" data-name="Group 18105" transform="translate(66.483 11.57)">
            <path id="Path_91591" data-name="Path 91591" d="M554.175,513.457l-.036,0a.218.218,0,0,1-.18-.251,58.929,58.929,0,0,0,.241-15.716c-.022-.2-.028-.247-.028-.279a.218.218,0,0,1,.436,0c0,.027.011.107.025.233a59.377,59.377,0,0,1-.244,15.836A.218.218,0,0,1,554.175,513.457Z" transform="translate(-553.957 -496.991)" fill="#b5845e"/>
          </g>
          <g id="Group_18106" data-name="Group 18106" transform="translate(66.487 27.554)">
            <path id="Path_91592" data-name="Path 91592" d="M557.889,602.564a.218.218,0,0,1-.211-.163l-2.331-8.87a.229.229,0,0,1-.007-.052c-.173-9.594-1.344-13.693-1.356-13.733a.218.218,0,1,1,.418-.123c.012.041,1.2,4.188,1.373,13.822l2.324,8.845a.218.218,0,0,1-.155.266A.221.221,0,0,1,557.889,602.564Z" transform="translate(-553.975 -579.467)" fill="#b5845e"/>
          </g>
          <g id="Group_18107" data-name="Group 18107" transform="translate(67.852 22.532)">
            <path id="Path_91593" data-name="Path 91593" d="M561.235,560.231a.218.218,0,0,1-.172-.351c1.357-1.756,1.842-5.445,1.807-6a.218.218,0,0,1,.062-.291.234.234,0,0,1,.294.029c.318.333-.439,4.741-1.819,6.527A.217.217,0,0,1,561.235,560.231Z" transform="translate(-561.017 -553.551)" fill="#b5845e"/>
          </g>
        </g>
        <path id="Path_91594" data-name="Path 91594" d="M319.406,773.468a19.108,19.108,0,0,0,4.058-4.454,71.627,71.627,0,0,0,4.989-7.957,2.972,2.972,0,0,1,.632-.892.9.9,0,0,1,1.265-.125.917.917,0,0,1,.314,1.308c-1.414,2.337-2.621,4.8-4.258,7-1.192,1.6-2.366,3.219-3.555,4.824a7.774,7.774,0,0,1-.707.838c-1.187,1.2-.667.76-3.805.514C318.338,774.39,319.406,773.6,319.406,773.468Z" transform="translate(-88.344 -461.765)" fill="#ffe1c9"/>
        <path id="Path_91595" data-name="Path 91595" d="M650.578,554.522c.2.574.019-.98-.273-.125a7.843,7.843,0,0,1-1.8,2.83.777.777,0,0,1-1.018.122c-.454-.3-2-.3-1.922-.873.584-.85,2.1-2.909,3.775-2.474.328.085.544.661.518.186C650.054,554.187,650.378,554.522,650.578,554.522Z" transform="translate(-352.147 -295.781)" fill="#ffe1c9"/>
        <path id="Path_91596" data-name="Path 91596" d="M674.918,591.589a1.894,1.894,0,0,1-3.1-.654,46.863,46.863,0,0,1-2.659-6.255c-.055-.191-.2-.438-.127-.572a16.533,16.533,0,0,1,1.348-2.741c1.3-1.6,1.632-2.3.866-4.2a1.818,1.818,0,0,1-.212-.756c.033-.4.179-.834.658-.892a1.045,1.045,0,0,1,1.171.745c.507,1.445,1.056,2.881,1.461,4.356.988,3.6,1.894,7.213,2.63,10.87.269,1.334-.388,2.514-1.145,3.871-.169.3-.473-.9-.785-1.092-.351-.219-.247-.613-.153-.913A3.03,3.03,0,0,0,674.918,591.589Z" transform="translate(-371.056 -313.167)" fill="#ffe1c9"/>
        <g id="Group_18110" data-name="Group 18110" transform="translate(285.356 230.945)">
          <path id="Path_91597" data-name="Path 91597" d="M607.15,471.781a7.484,7.484,0,0,1-1.929-1.766,5.431,5.431,0,0,1-.15-6.685,55.412,55.412,0,0,0,4.063-7.044c1.286-2.81,2.572-5.63,3.743-8.5a64.534,64.534,0,0,0,3.683-11.713c.54-2.692.879-5.415,1.18-8.138a6.615,6.615,0,0,1,1.871-3.431,51.128,51.128,0,0,0,4.182-5.492c.236-.39.538-.893,1.1-.733.576.164.5.726.5,1.2a5.39,5.39,0,0,1-.915,2.94c-.508.8-.991,1.617-1.469,2.435a.664.664,0,0,0-.013.8c.278.3.509-.02.735-.156a6.166,6.166,0,0,0,2.336-2.8,69.829,69.829,0,0,1,4.183-6.989,2.785,2.785,0,0,1,1.964-1.348,4.438,4.438,0,0,0,1.856-.635.879.879,0,0,1,1.285.108c.364.537.048.912-.194,1.285a17.525,17.525,0,0,1-.911,1.555,26.243,26.243,0,0,0-4.53,9.3,6.591,6.591,0,0,1-1.557,2.236,40,40,0,0,0-4.863,7.412c-.424.853-3.286,11.742-4.643,16.18-1.024,3.348-1.839,6.763-3.159,10.016q-1.1,2.722-2.3,5.406a3.621,3.621,0,0,1-1.7,1.785,6.4,6.4,0,0,0-2.295,2.121c-.367.574-1.085.206-1.481.639Z" transform="translate(-603.994 -413.514)" fill="#ee916c"/>
          <g id="Group_18109" data-name="Group 18109" transform="translate(16.35 3.673)">
            <path id="Path_91598" data-name="Path 91598" d="M688.575,446.846a.215.215,0,0,1-.087-.018.218.218,0,0,1-.112-.287,7.673,7.673,0,0,1,2.492-2.959,13.925,13.925,0,0,1,1.4-.8c1.412-.735,2.873-1.5,3.484-3.419a16.323,16.323,0,0,0,.491-2.19c.308-1.76.6-3.423,2.621-4.51a1.66,1.66,0,0,1,1.175-.125.5.5,0,0,1,.263.35,1.6,1.6,0,0,1-.221.915,17.9,17.9,0,0,0-1.179,4.2.218.218,0,1,1-.429-.076,18.3,18.3,0,0,1,1.206-4.292,1.492,1.492,0,0,0,.2-.656.064.064,0,0,0-.037-.053,1.346,1.346,0,0,0-.786.13c-1.818.979-2.066,2.4-2.38,4.193a16.668,16.668,0,0,1-.5,2.247c-.666,2.1-2.277,2.934-3.7,3.674a13.541,13.541,0,0,0-1.356.771,7.366,7.366,0,0,0-2.338,2.774A.218.218,0,0,1,688.575,446.846Z" transform="translate(-688.357 -432.467)" fill="#a33f32"/>
          </g>
        </g>
        <g id="Group_18115" data-name="Group 18115" transform="translate(278.821 258.32)">
          <path id="Path_91599" data-name="Path 91599" d="M570.28,576.094a2.781,2.781,0,0,1,.185-1.186A11.057,11.057,0,0,1,574,570.83c1.444-.985,3.857-2.185,5.638-1.745.13.032.093-.708.478-.35.449.418,1.284-1.04,1.557-1.491.24-.4-.362-.692-.423-1.1a2.886,2.886,0,0,1,.211-1.364c.884-2.435,2.2-4.729,3.152-7.143.438-1.108,1.609-1.856,2.455-2.637a.666.666,0,0,1,.421-.229c.527,0-.331,2.123-.387,2.484a8.422,8.422,0,0,0,.089,2.9,29.624,29.624,0,0,0,1.928,5.389,28.531,28.531,0,0,0,6.877,10c1.191,1.13,1.191,1.495.311,2.943a42.585,42.585,0,0,1-3.4,4.821c-.356.436-.707.713-1.268.369-.615-.376-1.062-.049-1.516.341-1.307,1.124-2.587,2.283-3.95,3.336a14.024,14.024,0,0,1-3.627,2.066,2.6,2.6,0,0,1-2.363.035,3.623,3.623,0,0,1-.884-.824c-1.752-2.044-3.344-4.217-4.988-6.347-.835-1.082-1.685-2.152-2.574-3.191A4.334,4.334,0,0,1,570.28,576.094Z" transform="translate(-570.276 -554.768)" fill="#ffe1c9"/>
          <g id="Group_18111" data-name="Group 18111" transform="translate(0.24 13.845)">
            <path id="Path_91600" data-name="Path 91600" d="M571.73,633.624a.218.218,0,0,1-.218-.218,17.857,17.857,0,0,1,4.016-5.041c1.939-1.667,3.841-2.373,5.649-2.1a.218.218,0,1,1-.065.431c-4.884-.744-9.056,6.546-9.174,6.775A.218.218,0,0,1,571.73,633.624Z" transform="translate(-571.512 -626.209)" fill="#b5845e"/>
          </g>
          <g id="Group_18112" data-name="Group 18112" transform="translate(5.975 15.056)">
            <path id="Path_91601" data-name="Path 91601" d="M601.324,640.916l-.03,0a.218.218,0,0,1-.186-.246,31.23,31.23,0,0,1,2.866-8.1.218.218,0,1,1,.387.2,31.45,31.45,0,0,0-2.821,7.955A.218.218,0,0,1,601.324,640.916Z" transform="translate(-601.105 -632.455)" fill="#b5845e"/>
          </g>
          <g id="Group_18113" data-name="Group 18113" transform="translate(11.252 11.852)">
            <path id="Path_91602" data-name="Path 91602" d="M637.685,631.987a.216.216,0,0,1-.143-.053,28.9,28.9,0,0,1-9.2-15.761.218.218,0,0,1,.431-.065,28.446,28.446,0,0,0,9.059,15.5.218.218,0,0,1-.143.383Z" transform="translate(-628.335 -615.923)" fill="#b5845e"/>
          </g>
          <g id="Group_18114" data-name="Group 18114" transform="translate(20.505 14.077)">
            <path id="Path_91603" data-name="Path 91603" d="M681.4,634.763a.873.873,0,0,1-.511-.222c-1.361-1.06-4.644-6.574-4.783-6.808a.218.218,0,0,1,.375-.223c.034.057,3.379,5.678,4.676,6.687.174.136.244.129.244.129a6.032,6.032,0,0,0-.34-2.837.218.218,0,0,1,.42-.116c.239.869.733,2.933.156,3.318A.416.416,0,0,1,681.4,634.763Z" transform="translate(-676.079 -627.403)" fill="#b5845e"/>
          </g>
        </g>
        <path id="Path_91604" data-name="Path 91604" d="M366.327,264.622v-2.811a6.637,6.637,0,0,0,.565-2.8c.563-6.552,7.643-10.163,12.248-9.465,2.081.316,4.141.631,5.777,2.024a15.583,15.583,0,0,1,5.492,11.61c.238,4.8-1.248,9.177-3.362,13.367-1.407,2.789-6.837,8.6-12.537,4.5-.193-.139-.558-.544-.993-.91a11.408,11.408,0,0,1-1.188-1.072,33.974,33.974,0,0,1-4.47-8.113,15.375,15.375,0,0,1-1.173-5.405C366.676,265.214,366.837,264.778,366.327,264.622Z" transform="translate(-127.032 -50.307)" fill="#ee916c"/>
        <path id="Path_91605" data-name="Path 91605" d="M423.189,703.369a2.042,2.042,0,0,1-.463,1.392,17.327,17.327,0,0,1-2.6,2.9,1.384,1.384,0,0,1-1.818.287c-.639-.468-.393-1.139-.109-1.724a23.765,23.765,0,0,1,3.069-4.39,1.7,1.7,0,0,1,1.7-.268C423.524,701.807,423.233,702.825,423.189,703.369Z" transform="translate(-168.619 -414.702)" fill="#ee916c"/>
        <path id="Path_91606" data-name="Path 91606" d="M431.012,663.032a14.754,14.754,0,0,1-4.5.289c-2.718-.2-16.111-1.1-20.057-1.766-1.486-.249-1.877-.753-1.541-2.239.405-1.794.969-3.541,1.53-5.288,1.619-5.039,3.242-10.077,4.8-15.137,1.45-4.71,2.6-9.515,4.384-14.12.851-2.194,1.628-2.687,3.894-2.245,5.646,1.1,11.382,1.624,17.034,2.674a39.7,39.7,0,0,1,6.229,1.206,1.378,1.378,0,0,1,.867,2.054c-.766,1.924-1.091,3.948-1.889,5.859-2.03,4.86-3.064,9.665-4.937,14.586-1.336,3.512-2.48,7.187-4.06,10.594C432.026,661.1,432.444,662.428,431.012,663.032Z" transform="translate(-158.053 -350.955)" fill="#5d515e"/>
        <g id="Group_18119" data-name="Group 18119" transform="translate(233.912 286.8)">
          <path id="Path_91607" data-name="Path 91607" d="M367.295,713.9c1.8-1.064,4.234-1.117,3.351-.109a33.751,33.751,0,0,1-3.682,2.19,8.408,8.408,0,0,1-3.075.4c-2.338.1-4.2.286-6.533.523-2.932.3-5.862.626-8.79.961-.67.077-1.331.205-1.992.339a5.99,5.99,0,0,1-2,.033c-1.751-.222-3.519-.309-5.279-.457-.252-.021-.586.1-.716-.21-.139-.329.246-.315.383-.468a1.092,1.092,0,0,0,.219-.437,10.754,10.754,0,0,1,2.246-3.979,4.671,4.671,0,0,1,3.063-1.473,6.377,6.377,0,0,0,1.918-.491,19.68,19.68,0,0,0,4.5-3.131c1.393-1.33,2.626-2.831,4.143-4.029a14.074,14.074,0,0,1,2.636-1.754c.121-.057.424-.188.33.074a6.384,6.384,0,0,1-.456,1.425,5.641,5.641,0,0,0-.376,3c.124.439,1.683.663,3.07.53a10.579,10.579,0,0,0,3.208-.539c1.469-.371,3.328-.853,4.814-1.245.982-.259,3.5-.821,3.738.318.053.258-.791.435-1.28.609-1.7.6-2.675,1.375-5.1,1.964-.55.133-1.933.524-2.817.732a.107.107,0,0,0,.024.211c2.418-.023,8.783-1.253,10.739-1.163,2.543.118,2.316,1.4,1.717,1.616,0,0-.6.146-1.244.332-.147.043.054.63-.2.824-.192.143-3.537,1.438-4.673,1.823-.889.3-6.357.672-6.339,1.126C362.845,713.683,365.9,714.719,367.295,713.9Z" transform="translate(-338.554 -701.717)" fill="#ee916c"/>
          <g id="Group_18116" data-name="Group 18116" transform="translate(20.667 7.114)">
            <path id="Path_91608" data-name="Path 91608" d="M445.41,739.066a.218.218,0,0,1-.015-.435c1.043-.073,2.225-.168,2.36-.2a.222.222,0,0,1,.266.15.214.214,0,0,1-.136.266c-.161.054-1.611.161-2.46.221Z" transform="translate(-445.192 -738.423)" fill="#a33f32"/>
          </g>
          <g id="Group_18117" data-name="Group 18117" transform="translate(21.323 9.805)">
            <path id="Path_91609" data-name="Path 91609" d="M448.793,753.011a.218.218,0,0,1-.026-.434c.364-.045,2.19-.27,2.373-.27a.218.218,0,0,1,0,.436c-.129,0-1.491.164-2.319.266Z" transform="translate(-448.575 -752.307)" fill="#a33f32"/>
          </g>
          <g id="Group_18118" data-name="Group 18118" transform="translate(21.702 12.179)">
            <path id="Path_91610" data-name="Path 91610" d="M451.765,765.013c-.4,0-.882-.015-1.019-.019a.218.218,0,0,1-.211-.225.215.215,0,0,1,.225-.211c.494.016,1.334.031,1.489,0a.218.218,0,0,1,.077.429A4.372,4.372,0,0,1,451.765,765.013Z" transform="translate(-450.535 -764.557)" fill="#a33f32"/>
          </g>
        </g>
        <g id="Group_18125" data-name="Group 18125" transform="translate(208.757 279.289)">
          <path id="Path_91611" data-name="Path 91611" d="M208.769,676.637a50.779,50.779,0,0,1,2.472-11.878c.946-2.737,2.96-1.842,5.848-.631a19.773,19.773,0,0,0,2.834.966c1.784.446,2.963,1.861,4.512,2.674.3.159.37.513.421.866a5.122,5.122,0,0,0,.885,2.3,5.758,5.758,0,0,0,2.1,1.559c1.259.675,2.576,1.236,3.824,1.931,1.275.71,2.528,1.454,3.807,2.168a8.641,8.641,0,0,0,2.979,1.048,7.133,7.133,0,0,0,1.621.041,5.847,5.847,0,0,1,1.508-.145c1.01.175.966.992.659,1.745-1.826,4.475-4.65,8.409-6.856,12.677-.49.948-.9,1.937-1.364,2.9-1.051,2.182-1.979,1.918-3.779,1.613-2.185-.371-4.279-1.24-6.493-1.57-.552-.082-.334-1.145-.3-1.739.025-.461-.622-.942-.921-1.2-.593-.518-1.242-.944-1.884-1.4-2.721-1.935-5.174-4.138-7.692-6.323a22.072,22.072,0,0,1-2.018-2.01,17.54,17.54,0,0,1-1.734-2.181,3.855,3.855,0,0,1-.416-1.807C208.738,677.71,208.769,677.172,208.769,676.637Z" transform="translate(-208.757 -662.962)" fill="#ffe1c9"/>
          <g id="Group_18120" data-name="Group 18120" transform="translate(7.772 7.247)">
            <path id="Path_91612" data-name="Path 91612" d="M259.867,702.734a.219.219,0,0,1-.091-.02c-.054-.025-5.458-2.455-10.67-1.818a.218.218,0,1,1-.053-.433c5.336-.655,10.849,1.829,10.9,1.854a.218.218,0,0,1-.091.416Z" transform="translate(-248.862 -700.354)" fill="#b5845e"/>
          </g>
          <g id="Group_18121" data-name="Group 18121" transform="translate(14.915 13.971)">
            <path id="Path_91613" data-name="Path 91613" d="M285.932,750.651a.218.218,0,0,1-.194-.118c-.063-.123-.063-.123.779-1.592.337-.587,1.028-1.784,1.877-3.209,1.325-2.224,3.133-5.167,4.218-6.551a16.139,16.139,0,0,1,4.935-4.112.218.218,0,0,1,.175.4,15.781,15.781,0,0,0-4.766,3.982c-2.019,2.577-6.631,10.675-6.817,11.056a.217.217,0,0,1-.105.119A.214.214,0,0,1,285.932,750.651Z" transform="translate(-285.714 -735.052)" fill="#b5845e"/>
          </g>
          <g id="Group_18122" data-name="Group 18122" transform="translate(7.772 16.389)">
            <path id="Path_91614" data-name="Path 91614" d="M252.59,748.668a23.9,23.9,0,0,1-3.61-.167.218.218,0,0,1,.168-.4,54.444,54.444,0,0,0,12.363-.568.218.218,0,1,1,.077.429A53.46,53.46,0,0,1,252.59,748.668Z" transform="translate(-248.862 -747.529)" fill="#b5845e"/>
          </g>
          <g id="Group_18123" data-name="Group 18123" transform="translate(31.148 14.284)">
            <path id="Path_91615" data-name="Path 91615" d="M371.892,738.688a.207.207,0,0,1-.052-.006.218.218,0,0,1-.16-.264,1.843,1.843,0,0,0-.079-1.045c-.2-.444-1.327-.235-1.84-.065a.218.218,0,0,1-.138-.414c.2-.067,1.956-.622,2.374.3a2.261,2.261,0,0,1,.106,1.33A.218.218,0,0,1,371.892,738.688Z" transform="translate(-369.474 -736.667)" fill="#b5845e"/>
          </g>
          <g id="Group_18124" data-name="Group 18124" transform="translate(8.038 0.812)">
            <path id="Path_91616" data-name="Path 91616" d="M257.326,673.324a.216.216,0,0,1-.131-.044.614.614,0,0,1-.143-.2,14.429,14.429,0,0,0-6.69-5.51.218.218,0,0,1,.176-.4,14.854,14.854,0,0,1,6.89,5.688c.027.047.047.08.06.1a.218.218,0,0,1-.161.365Z" transform="translate(-250.232 -667.153)" fill="#b5845e"/>
          </g>
        </g>
        <g id="Group_18126" data-name="Group 18126" transform="translate(240.953 210.52)">
          <path id="Path_91617" data-name="Path 91617" d="M430.866,308.127a5.915,5.915,0,0,1,2.569.569c.292.17.618.376.5.773-.141.478-.527.278-.84.208a5.967,5.967,0,0,0-3.259.239,3.441,3.441,0,0,1-.575.172.967.967,0,0,1-1.1-.516c-.2-.46.2-.759.52-.97A4.26,4.26,0,0,1,430.866,308.127Z" transform="translate(-417.792 -308.127)" fill="#7a444a"/>
          <path id="Path_91618" data-name="Path 91618" d="M374.884,317.878a4.7,4.7,0,0,1,2.78-2.441c1.382-.355,1.3-.332,1.9-.067a.676.676,0,0,1,.377.844.73.73,0,0,1-.707.47A10.282,10.282,0,0,0,374.884,317.878Z" transform="translate(-374.884 -313.806)" fill="#7a444a"/>
        </g>
        <g id="Group_18137" data-name="Group 18137" transform="translate(233.018 193.775)">
          <path id="Path_91619" data-name="Path 91619" d="M338.343,250.275c-1.231-.778-1.762-2.311-2.7-3.422-2.213-2.62-2.26-8.077-.2-10.307a3.225,3.225,0,0,0,.724-1.517,15.58,15.58,0,0,1,6.312-9.448,23.035,23.035,0,0,1,9.067-3.719,14.444,14.444,0,0,1,5.653.386c1.123.314,1.19.953,2.285,1.36.338.126.629.334,1.018.052.361-.262.692.017,1,.214a10.57,10.57,0,0,1,2.809,3.026,24.332,24.332,0,0,1,2.1,3.523,32.227,32.227,0,0,0,3.28,5.57,5.7,5.7,0,0,1,.884,5.414,10.315,10.315,0,0,1-5.244,6.638,4.745,4.745,0,0,1-2.641.42c-.226-.023-.526-.019-.565-.3-.048-.342.287-.348.492-.348,1.037,0,1.145-.51,1.208-1.474.081-1.221-.257-2.359-.279-3.542a.712.712,0,0,0-.2-.441c-2.13-2.125-3.377-4.88-5.177-7.239-.83-1.088-1.674-2.167-2.542-3.225a1.065,1.065,0,0,0-1.667-.233,90.953,90.953,0,0,0-10.926,11.3,5.959,5.959,0,0,0-1.094,5.753c.418,1.2-1.686.665-2.156.4a2.65,2.65,0,0,0-.983-.482.156.156,0,0,0-.155.222,6.087,6.087,0,0,0,.776.922,3.43,3.43,0,0,0,2.647,1.2c.161.01.553-.115.693-.033C343.289,251.239,341.716,252.408,338.343,250.275Zm.4-19.439c.31-.3-.356.066-.491.317-.188.352-.317.73-.482,1.092-.146.321-.482.64-.561.974C337.122,233.573,338.258,231.308,338.74,230.836Zm-2.259,6.012c-.644.595-1.647,1.7-1.37,2.7A10.721,10.721,0,0,0,336.481,236.848Z" transform="translate(-333.939 -221.723)" fill="#7a444a"/>
          <g id="Group_18127" data-name="Group 18127" transform="translate(5.43 18.7)">
            <path id="Path_91620" data-name="Path 91620" d="M363.56,326.512a.217.217,0,0,1-.1-.025,3.085,3.085,0,0,1-1.413-2.036c-.365-1.665.39-3.736,2.243-6.156a.218.218,0,1,1,.346.265c-1.742,2.275-2.491,4.276-2.166,5.786a2.651,2.651,0,0,0,1.194,1.755.218.218,0,0,1-.1.41Z" transform="translate(-361.957 -318.21)" fill="#4d2323"/>
          </g>
          <g id="Group_18128" data-name="Group 18128" transform="translate(7.482 8.297)">
            <path id="Path_91621" data-name="Path 91621" d="M372.761,277.368a.218.218,0,0,1-.184-.335c1.711-2.7,9.033-10.728,11.574-12.459a.218.218,0,0,1,.245.36c-2.512,1.711-9.757,9.657-11.451,12.332A.218.218,0,0,1,372.761,277.368Z" transform="translate(-372.544 -264.537)" fill="#4d2323"/>
          </g>
          <g id="Group_18129" data-name="Group 18129" transform="translate(4.155 22.277)">
            <path id="Path_91622" data-name="Path 91622" d="M356.452,340.174a.217.217,0,0,1-.149-.059,3.289,3.289,0,0,1-.767-3.292.218.218,0,1,1,.417.126,2.854,2.854,0,0,0,.649,2.848.218.218,0,0,1-.15.376Z" transform="translate(-355.38 -336.668)" fill="#4d2323"/>
          </g>
          <g id="Group_18130" data-name="Group 18130" transform="translate(2.886 3.659)">
            <path id="Path_91623" data-name="Path 91623" d="M349.049,257.433a.218.218,0,0,1-.218-.218c0-.473,6.627-13.067,16.251-16.6a.218.218,0,1,1,.15.409c-9.188,3.369-15.741,15.407-15.967,16.214A.218.218,0,0,1,349.049,257.433Z" transform="translate(-348.831 -240.606)" fill="#4d2323"/>
          </g>
          <g id="Group_18131" data-name="Group 18131" transform="translate(7.717 1.344)">
            <path id="Path_91624" data-name="Path 91624" d="M373.977,239.943a.218.218,0,0,1-.171-.354c.012-.017.041-.06.085-.128,1.983-3,7.124-10.049,12.037-10.747a4.892,4.892,0,0,1,4,1.179.218.218,0,0,1-.282.332,4.47,4.47,0,0,0-3.657-1.08c-4.871.691-10.213,8.254-11.735,10.555-.067.1-.107.159-.115.168A.218.218,0,0,1,373.977,239.943Z" transform="translate(-373.759 -228.66)" fill="#4d2323"/>
          </g>
          <g id="Group_18132" data-name="Group 18132" transform="translate(21.891 4.518)">
            <path id="Path_91625" data-name="Path 91625" d="M448.5,246.111a.218.218,0,0,1-.189-.108.912.912,0,0,0-1.12-.484.218.218,0,1,1-.158-.406,1.353,1.353,0,0,1,1.654.671.218.218,0,0,1-.188.328Z" transform="translate(-446.895 -245.037)" fill="#4d2323"/>
          </g>
          <g id="Group_18133" data-name="Group 18133" transform="translate(25.757 15.518)">
            <path id="Path_91626" data-name="Path 91626" d="M471.128,305.807a.217.217,0,0,1-.086-.018c-1.09-.472-4.018-3.5-4.142-3.626a.218.218,0,0,1,.314-.3c.03.031,2.991,3.091,4,3.529a.218.218,0,0,1-.087.418Z" transform="translate(-466.839 -301.793)" fill="#4d2323"/>
          </g>
          <g id="Group_18134" data-name="Group 18134" transform="translate(27.406 10.302)">
            <path id="Path_91627" data-name="Path 91627" d="M478.832,284.262a.218.218,0,0,1-.182-.1l-.039-.053a16.294,16.294,0,0,1-3.262-9.007.218.218,0,0,1,.436-.011,15.85,15.85,0,0,0,3.175,8.756c.029.039.047.064.054.074a.218.218,0,0,1-.182.338Z" transform="translate(-475.349 -274.882)" fill="#4d2323"/>
          </g>
          <g id="Group_18135" data-name="Group 18135" transform="translate(32.149 13.466)">
            <path id="Path_91628" data-name="Path 91628" d="M500.043,298.617a.218.218,0,0,1-.147-.379,6.224,6.224,0,0,0,1.375-6.737.218.218,0,0,1,.408-.154,6.773,6.773,0,0,1-1.489,7.212A.217.217,0,0,1,500.043,298.617Z" transform="translate(-499.825 -291.206)" fill="#4d2323"/>
          </g>
          <g id="Group_18136" data-name="Group 18136" transform="translate(20.959 0.19)">
            <path id="Path_91629" data-name="Path 91629" d="M448.93,225.316a.218.218,0,0,1-.138-.049,9.812,9.812,0,0,0-4.265-1.9,11.181,11.181,0,0,0-2.221-.228.215.215,0,0,1-.224-.212.218.218,0,0,1,.212-.224,11.483,11.483,0,0,1,2.318.236,10.246,10.246,0,0,1,4.457,1.99.218.218,0,0,1-.138.386Z" transform="translate(-442.082 -222.703)" fill="#4d2323"/>
          </g>
        </g>
        <path id="Path_91630" data-name="Path 91630" d="M392.028,331.852c-.05.343-.033.731-.383.819-.4.1-.575-.281-.712-.572a1.344,1.344,0,0,1,.055-1.457.332.332,0,0,1,.476-.109A1.451,1.451,0,0,1,392.028,331.852Z" transform="translate(-146.719 -115.621)" fill="#632424"/>
        <path id="Path_91631" data-name="Path 91631" d="M442.352,324.272a2.481,2.481,0,0,1-.1.665.457.457,0,0,1-.46.358c-.659-.008-.75-.658-.779-1.175-.026-.457.034-1.089.613-1.065S442.364,323.705,442.352,324.272Z" transform="translate(-187.24 -109.64)" fill="#632424"/>
        <path id="Path_91632" data-name="Path 91632" d="M416.538,374.979c.125-.4-1.817.262-2.18.392a10.215,10.215,0,0,1-4.192.692c-.316.013-.591.18-.349.566.124.2.456,1.2,2.683.925A7.43,7.43,0,0,0,416.538,374.979Z" transform="translate(-162.019 -151.4)" fill="#fff"/>
        <g id="Group_18138" data-name="Group 18138" transform="translate(246.394 222.429)">
          <path id="Path_91633" data-name="Path 91633" d="M407.806,379.66a5.9,5.9,0,0,1-2.089-.376,6.919,6.919,0,0,1-2.224-1.683c-.159-.157-.314-.311-.465-.453a.218.218,0,0,1,.3-.318c.154.145.312.3.473.461a6.621,6.621,0,0,0,2.07,1.584c2.639.99,5.393-.293,7.09-1.824,2.117-1.909,4.751-4.285,4.964-7.274a.218.218,0,0,1,.435.031c-.226,3.164-2.933,5.605-5.107,7.567A8.475,8.475,0,0,1,407.806,379.66Z" transform="translate(-402.96 -369.576)" fill="#a33f32"/>
        </g>
        <g id="Group_18139" data-name="Group 18139" transform="translate(248.676 215.746)">
          <path id="Path_91634" data-name="Path 91634" d="M416.029,340.438c-.472,0-1.045-.083-1.185-.461a24.842,24.842,0,0,1,.052-4.691.212.212,0,0,1,.423.034,23.6,23.6,0,0,0-.077,4.509c.008.021.043.054.12.087a2.883,2.883,0,0,0,1.358.034.212.212,0,0,1,.354.158c0,.213-.243.257-.374.28A4.64,4.64,0,0,1,416.029,340.438Z" transform="translate(-414.735 -335.09)" fill="#a33f32"/>
        </g>
        <g id="Group_18140" data-name="Group 18140" transform="translate(233.188 302.794)">
          <path id="Path_91635" data-name="Path 91635" d="M335.034,793.877a.218.218,0,0,1-.179-.341c.154-.248,3.626-6.7,4.955-9.173a.218.218,0,0,1,.384.206c-1.468,2.732-4.894,9.1-4.985,9.221A.218.218,0,0,1,335.034,793.877Z" transform="translate(-334.817 -784.247)" fill="#b5845e"/>
        </g>
        <g id="Group_18143" data-name="Group 18143" transform="translate(260.995 212.692)">
          <path id="Path_91636" data-name="Path 91636" d="M482.93,321.054c-.463,2.323-.873,4.645-2.828,6.463-.54.5-.672.835-1.283.64s-.521-.892-.51-1.374a13.694,13.694,0,0,1,1.342-5.1,4.165,4.165,0,0,1,.782-1.607c.5-.47,1.026-.951,1.762-.648C482.891,319.716,482.974,320.369,482.93,321.054Z" transform="translate(-478.297 -319.334)" fill="#ee916c"/>
          <g id="Group_18141" data-name="Group 18141" transform="translate(1.061 1.392)">
            <path id="Path_91637" data-name="Path 91637" d="M483.99,330.254a.225.225,0,0,1-.065-.01.218.218,0,0,1-.143-.273,10.832,10.832,0,0,1,1.156-2.485c.517-.749,1.045-1.066,1.57-.942a.218.218,0,0,1-.1.424c-.415-.1-.832.362-1.11.765a10.555,10.555,0,0,0-1.1,2.367A.218.218,0,0,1,483.99,330.254Z" transform="translate(-483.772 -326.518)" fill="#a33f32"/>
          </g>
          <g id="Group_18142" data-name="Group 18142" transform="translate(2.16 2.389)">
            <path id="Path_91638" data-name="Path 91638" d="M490.765,332.99a.218.218,0,0,1-.217-.209.76.76,0,0,0-.225-.6.665.665,0,0,0-.571-.035.308.308,0,0,1-.088.015.218.218,0,0,1-.039-.433,1.077,1.077,0,0,1,.954.1,1.155,1.155,0,0,1,.4.938.218.218,0,0,1-.208.227Z" transform="translate(-489.445 -331.663)" fill="#a33f32"/>
          </g>
        </g>
        <path id="Path_91639" data-name="Path 91639" d="M478.492,316.994a17.226,17.226,0,0,1-.706,4.072,2.473,2.473,0,0,0,.478,2.168,6.189,6.189,0,0,1,.726,6.529c-.3.777-.67,1.53-1.022,2.288-.14.3-.646.612-.723.483-.03-.049.153-.266.294-.566a17.4,17.4,0,0,0,.765-3.636,4.451,4.451,0,0,0-.779-3.9,4.971,4.971,0,0,1-.81-4.535c.419-1.981.546-2.353-.041-4.287-.124-.409-.616,0-.268-.212.439-.273,1.143.563,1.381.92C478.4,317.243,478.48,315.908,478.492,316.994Z" transform="translate(-215.678 -103.425)" fill="#7a444a"/>
        <path id="Path_91640" data-name="Path 91640" d="M567.359,647.09c0-.01-.008-.02-.011-.03s0-.047,0-.071a.708.708,0,0,0-.163-.377.742.742,0,0,0-.493-.2.9.9,0,0,0-.672.252.845.845,0,0,0-.058,1.11.535.535,0,0,0,.241.354.56.56,0,0,0,.529.016.878.878,0,0,0,.323-.22A.794.794,0,0,0,567.359,647.09Z" transform="translate(-287.829 -370.331)" fill="#9b9494"/>
        <path id="Path_91641" data-name="Path 91641" d="M501.1,637.26a.84.84,0,1,0-1.53.665.66.66,0,0,0,.4.328c.02,0,.04.006.06.009a.593.593,0,0,0,.354.072A.855.855,0,0,0,501.1,637.26Z" transform="translate(-234.362 -362.474)" fill="#9b9494"/>
        <g id="Group_18144" data-name="Group 18144" transform="translate(258.323 294.533)">
          <path id="Path_91642" data-name="Path 91642" d="M464.732,743.7a.22.22,0,0,1-.212-.158.215.215,0,0,1,.144-.267c.134-.041,1.077-.164,3.359-.455l2.1-.269c.76-.1,5.261-.92,5.307-.928a.218.218,0,1,1,.078.429c-.186.034-4.558.832-5.329.932l-2.1.269c-1.617.206-3.144.4-3.29.441A.226.226,0,0,1,464.732,743.7Z" transform="translate(-464.512 -741.622)" fill="#a33f32"/>
        </g>
      </g>
    </g>
  </g>
</svg>
