<svg xmlns="http://www.w3.org/2000/svg" xmlns:xlink="http://www.w3.org/1999/xlink" width="83" height="85" viewBox="0 0 83 85">
  <defs>
    <clipPath id="clip-path">
      <path id="Union_13" data-name="Union 13" d="M-1554-3847v-45h80v45a40,40,0,0,1-40,40A40,40,0,0,1-1554-3847Z" transform="translate(1698 4079)" fill="#fff"/>
    </clipPath>
  </defs>
  <g id="Group_19287" data-name="Group 19287" transform="translate(-10570 -9972)">
    <g id="Group_19283" data-name="Group 19283" transform="translate(10422 9733)">
      <g id="Group_17959" data-name="Group 17959" transform="translate(0 4)">
        <rect id="Rectangle_5765" data-name="Rectangle 5765" width="80" height="80" rx="40" transform="translate(148 240)" fill="#e1f5cd"/>
        <g id="Mask_Group_236" data-name="Mask Group 236" transform="translate(4 48)" clip-path="url(#clip-path)">
          <g id="flat" transform="translate(104 156)">
            <path id="Path_91545" data-name="Path 91545" d="M48,96h64.909v58.727H48Z" transform="translate(0 -38.727)" fill="#d5e4c5"/>
            <path id="Path_91546" data-name="Path 91546" d="M191.455,111.455l-7.727-3.091L176,111.455V96h15.455Z" transform="translate(-103.273 -38.727)" fill="#606c2e"/>
            <rect id="Rectangle_5766" data-name="Rectangle 5766" width="24.875" height="6.219" rx="3.109" transform="translate(68.091 78.909)" fill="#73793b"/>
            <path id="Path_91547" data-name="Path 91547" d="M80,272h21.636v18.546H80Z" transform="translate(-25.818 -180.727)" fill="#e1f5cd"/>
            <path id="Path_91548" data-name="Path 91548" d="M102.182,299.091H97.545a1.545,1.545,0,1,1,0-3.091h4.636a1.545,1.545,0,1,1,0,3.091Z" transform="translate(-38.727 -200.091)" fill="#d5e4c5"/>
            <path id="Path_91549" data-name="Path 91549" d="M106.818,331.091H97.545a1.545,1.545,0,1,1,0-3.091h9.273a1.545,1.545,0,1,1,0,3.091Z" transform="translate(-38.727 -225.909)" fill="#d5e4c5"/>
            <path id="Path_91550" data-name="Path 91550" d="M48,48h64.909v9.273H48Z" fill="#c8dfb1"/>
            <path id="Path_91551" data-name="Path 91551" d="M176,48h15.455v9.273H176Z" transform="translate(-103.273)" fill="#73793b"/>
          </g>
        </g>
      </g>
      <g id="_x34_3_search" transform="translate(191 282)">
        <path id="Path_91303" data-name="Path 91303" d="M0,11.714H4.075V0H0Z" transform="translate(32.135 29.251) rotate(135)" fill="#73793b"/>
        <path id="Path_91304" data-name="Path 91304" d="M14.546,327.374a3.464,3.464,0,0,0,0-4.9l-9.269-9.269a1.29,1.29,0,0,0-1.825,0L.378,316.279a1.29,1.29,0,0,0,0,1.825l9.269,9.269A3.464,3.464,0,0,0,14.546,327.374Z" transform="translate(24.44 -288.388)" fill="#73793b"/>
        <ellipse id="Ellipse_1667" data-name="Ellipse 1667" cx="13.925" cy="13.925" rx="13.925" ry="13.925" transform="translate(0 0)" fill="#73793b"/>
        <ellipse id="Ellipse_1668" data-name="Ellipse 1668" cx="9.972" cy="9.972" rx="9.972" ry="9.972" transform="translate(3.953 3.953)" fill="#e1f5cd"/>
      </g>
    </g>
  </g>
</svg>
