<svg xmlns="http://www.w3.org/2000/svg" width="376" height="376" viewBox="0 0 376 376">
  <g id="Group_12651" data-name="Group 12651" transform="translate(713.188 46.223)">
    <rect id="Rectangle_4378" data-name="Rectangle 4378" width="376" height="376" transform="translate(-713.188 -46.223)" fill="#fff"/>
    <g id="Group_12646" data-name="Group 12646" transform="translate(-711.054 -43.78)">
      <path id="Path_89146" data-name="Path 89146" d="M-438.3-42.815H-680.306A29.94,29.94,0,0,0-710.21-12.9V113.034a29.933,29.933,0,0,0,29.9,29.9H-438.3a29.938,29.938,0,0,0,29.9-29.9V-12.9A29.944,29.944,0,0,0-438.3-42.815Zm12.7,155.849a12.7,12.7,0,0,1-12.7,12.7H-680.306a12.7,12.7,0,0,1-12.7-12.7V-12.9a12.7,12.7,0,0,1,12.7-12.709H-438.3A12.7,12.7,0,0,1-425.6-12.9Z" transform="translate(710.21 42.815)" fill="#b3b3b3"/>
      <path id="Path_89147" data-name="Path 89147" d="M-418.8-6.106V119.831a12.7,12.7,0,0,1-12.7,12.7H-673.509a12.7,12.7,0,0,1-12.7-12.7V-6.106a12.7,12.7,0,0,1,12.7-12.709H-431.5A12.7,12.7,0,0,1-418.8-6.106Z" transform="translate(703.413 36.018)" fill="#d8d8d8"/>
      <path id="Path_89148" data-name="Path 89148" d="M-408.4,246.4V372.335a29.943,29.943,0,0,1-29.9,29.911H-680.306a29.939,29.939,0,0,1-29.9-29.911V246.4a29.939,29.939,0,0,1,29.9-29.911H-438.3A29.943,29.943,0,0,1-408.4,246.4Z" transform="translate(710.21 -30.625)" fill="#d8d8d8"/>
      <path id="Path_89149" data-name="Path 89149" d="M-418.8-6.106V119.831a12.7,12.7,0,0,1-12.7,12.7H-673.509a12.7,12.7,0,0,1-12.7-12.7V-6.106a12.7,12.7,0,0,1,12.7-12.709H-431.5A12.7,12.7,0,0,1-418.8-6.106Z" transform="translate(703.413 36.018)" fill="#d8d8d8"/>
      <rect id="Rectangle_4379" data-name="Rectangle 4379" width="267.193" height="24.258" rx="12.129" transform="translate(17.05 17.305)" fill="#4a4a4a"/>
      <g id="Group_12642" data-name="Group 12642" transform="translate(32.393 60.579)">
        <rect id="Rectangle_4380" data-name="Rectangle 4380" width="167.726" height="4.301" rx="2.116" fill="#fff"/>
        <rect id="Rectangle_4381" data-name="Rectangle 4381" width="167.726" height="4.301" rx="2.116" transform="translate(0 12.05)" fill="#fff"/>
        <rect id="Rectangle_4382" data-name="Rectangle 4382" width="167.726" height="4.301" rx="2.116" transform="translate(0 24.1)" fill="#fff"/>
      </g>
      <g id="Group_12643" data-name="Group 12643" transform="translate(24.09 216.979)">
        <text id="สาขา" transform="translate(0 10)" fill="#4a4a4a" font-size="9" font-family="SukhumvitSet-Bold, Sukhumvit Set" font-weight="700"><tspan x="0" y="0">สาขา</tspan></text>
        <rect id="Rectangle_4383" data-name="Rectangle 4383" width="77.055" height="16.648" transform="translate(40.316 0.594)" fill="#fff"/>
        <text id="บัญชีเลขที่" transform="translate(127.673 11.011)" fill="#4a4a4a" font-size="9" font-family="SukhumvitSet-Bold, Sukhumvit Set" font-weight="700"><tspan x="0" y="0">บัญชีเลขที่</tspan></text>
        <rect id="Rectangle_4384" data-name="Rectangle 4384" width="77.055" height="16.648" transform="translate(176.579 0.594)" fill="#fff"/>
      </g>
      <g id="Group_12644" data-name="Group 12644" transform="translate(47.227 272.885)">
        <text id="ชื่อบัญชี_Account_Name" data-name="ชื่อบัญชี
Account Name" transform="translate(102.523 15)" fill="#4a4a4a" font-size="14" font-family="SukhumvitSet-Bold, Sukhumvit Set" font-weight="700"><tspan x="-23.086" y="0">ชื่อบัญชี</tspan><tspan x="-44.212" y="17">Account Name</tspan></text>
        <rect id="Rectangle_4385" data-name="Rectangle 4385" width="207.361" height="23.677" transform="translate(0 45.506)" fill="#fff"/>
      </g>
      <g id="Group_12645" data-name="Group 12645" transform="translate(48.553 110.203)">
        <path id="Path_89152" data-name="Path 89152" d="M-64.5-10.944V-2.66a2.384,2.384,0,0,1-1.14,2.09,5.559,5.559,0,0,1-3.116.76,5.567,5.567,0,0,1-3.106-.76,2.379,2.379,0,0,1-1.149-2.09v-1.2a2.047,2.047,0,0,1,.3-1.112,2.069,2.069,0,0,1,.931-.769,2.188,2.188,0,0,1-1.064-1.045,3.6,3.6,0,0,1-.342-1.6,2.9,2.9,0,0,1,.665-2.014,2.326,2.326,0,0,1,1.824-.741,2.063,2.063,0,0,1,1.444.484,1.7,1.7,0,0,1,.532,1.321,1.684,1.684,0,0,1-.494,1.273,1.865,1.865,0,0,1-1.349.475,1.769,1.769,0,0,1-.836-.19,1.521,1.521,0,0,0,.418.969,1.19,1.19,0,0,0,.874.361h1.862V-5h-1.881a.939.939,0,0,0-.732.3,1.17,1.17,0,0,0-.275.817v1.064a1.239,1.239,0,0,0,.636,1.1,3.256,3.256,0,0,0,1.739.4,3.2,3.2,0,0,0,1.729-.4,1.243,1.243,0,0,0,.627-1.1v-8.132Zm-6.1.76a.83.83,0,0,0-.6.228.8.8,0,0,0-.238.608.811.811,0,0,0,.238.6.811.811,0,0,0,.6.238A.8.8,0,0,0-70-8.75a.83.83,0,0,0,.228-.6A.822.822,0,0,0-70-9.956.822.822,0,0,0-70.6-10.184Zm6.1-3.287a7.884,7.884,0,0,1,.133.95,15.628,15.628,0,0,0-3.23-.845,22.417,22.417,0,0,0-3.648-.314,12.165,12.165,0,0,0-1.995.152,3.438,3.438,0,0,1,1.2-2.612,4.449,4.449,0,0,1,3-.979,5.378,5.378,0,0,1,.8.057v-1.045h1.292v1.387a3.594,3.594,0,0,1,1.14.76v-2.147H-64.5Zm-5.947-1.216a15.721,15.721,0,0,1,2.365.181,11.014,11.014,0,0,1,2.081.5,3.022,3.022,0,0,0-1.187-1.463,3.381,3.381,0,0,0-1.834-.494,3.245,3.245,0,0,0-1.586.361,1.852,1.852,0,0,0-.884.95A10.05,10.05,0,0,1-70.452-14.687ZM-53.124-3.629a2.062,2.062,0,0,1,.931.684A1.7,1.7,0,0,1-51.851-1.9a2.043,2.043,0,0,1-.58,1.51,2.043,2.043,0,0,1-1.51.58A1.981,1.981,0,0,1-55.4-.38a2,2,0,0,1-.57-1.482v-.019a6.713,6.713,0,0,0-1.453.808A5.009,5.009,0,0,0-58.539,0H-60.42V-7.239a1.381,1.381,0,0,1-.4.057,1.911,1.911,0,0,1-1.425-.561,1.96,1.96,0,0,1-.551-1.435,1.855,1.855,0,0,1,.579-1.406,2.1,2.1,0,0,1,1.511-.551,2.166,2.166,0,0,1,1.558.58,1.969,1.969,0,0,1,.608,1.491v7.182A3.369,3.369,0,0,1-57.76-2.5a13.021,13.021,0,0,1,1.292-.674,10.9,10.9,0,0,0,1.359-.76,2.136,2.136,0,0,0,.655-.655,1.645,1.645,0,0,0,.19-.826v-5.529h1.881V-5.4a2.77,2.77,0,0,1-.19,1.055A1.54,1.54,0,0,1-53.124-3.629Zm-7.695-4.655a.842.842,0,0,0,.637-.247.868.868,0,0,0,.237-.627.868.868,0,0,0-.237-.627.842.842,0,0,0-.637-.247.85.85,0,0,0-.627.247.85.85,0,0,0-.247.627.85.85,0,0,0,.247.627A.85.85,0,0,0-60.819-8.284Zm6.878,7.372a.874.874,0,0,0,.646-.247.85.85,0,0,0,.247-.627.85.85,0,0,0-.247-.627.874.874,0,0,0-.646-.247.818.818,0,0,0-.618.247.868.868,0,0,0-.237.627.868.868,0,0,0,.237.627A.818.818,0,0,0-53.941-.912Zm12.578-10.032V-2.66A2.384,2.384,0,0,1-42.5-.57a5.559,5.559,0,0,1-3.116.76,5.567,5.567,0,0,1-3.106-.76,2.379,2.379,0,0,1-1.15-2.09v-1.2a2.047,2.047,0,0,1,.3-1.112,2.069,2.069,0,0,1,.931-.769A2.188,2.188,0,0,1-49.7-6.783a3.6,3.6,0,0,1-.342-1.6,2.9,2.9,0,0,1,.665-2.014,2.326,2.326,0,0,1,1.824-.741,2.063,2.063,0,0,1,1.444.484,1.7,1.7,0,0,1,.532,1.321,1.684,1.684,0,0,1-.494,1.273,1.865,1.865,0,0,1-1.349.475,1.769,1.769,0,0,1-.836-.19,1.521,1.521,0,0,0,.418.969,1.19,1.19,0,0,0,.874.361h1.862V-5h-1.881a.939.939,0,0,0-.731.3,1.17,1.17,0,0,0-.276.817v1.064a1.239,1.239,0,0,0,.637,1.1,3.256,3.256,0,0,0,1.738.4,3.2,3.2,0,0,0,1.729-.4,1.243,1.243,0,0,0,.627-1.1v-8.132Zm-6.1.76a.83.83,0,0,0-.6.228.8.8,0,0,0-.237.608.811.811,0,0,0,.237.6.811.811,0,0,0,.6.238.8.8,0,0,0,.608-.238.83.83,0,0,0,.228-.6.822.822,0,0,0-.228-.608A.822.822,0,0,0-47.462-10.184Zm8.93-7.334a4.668,4.668,0,0,1-.636,2.46,4.283,4.283,0,0,1-1.748,1.625,5.437,5.437,0,0,1-2.517.57,5.487,5.487,0,0,1-2-.333,3.005,3.005,0,0,1-1.311-.912,2.078,2.078,0,0,1-.456-1.32,1.787,1.787,0,0,1,.551-1.358,1.961,1.961,0,0,1,1.406-.523,1.928,1.928,0,0,1,1.4.523,1.827,1.827,0,0,1,.542,1.377,1.824,1.824,0,0,1-.513,1.349,1.878,1.878,0,0,0,.323.019,3.176,3.176,0,0,0,2.47-.978,3.634,3.634,0,0,0,.912-2.5Zm-7.6,2.071a.811.811,0,0,0,.257.608.882.882,0,0,0,.637.247.826.826,0,0,0,.608-.247.826.826,0,0,0,.247-.608.818.818,0,0,0-.247-.617.844.844,0,0,0-.608-.238.882.882,0,0,0-.637.247A.811.811,0,0,0-46.132-15.447Zm16.15,11.818a2.062,2.062,0,0,1,.931.684A1.7,1.7,0,0,1-28.709-1.9a2.043,2.043,0,0,1-.58,1.51A2.043,2.043,0,0,1-30.8.19a1.981,1.981,0,0,1-1.463-.57,2,2,0,0,1-.57-1.482v-.019a6.713,6.713,0,0,0-1.453.808A5.009,5.009,0,0,0-35.4,0h-1.881V-7.239a1.381,1.381,0,0,1-.4.057A1.911,1.911,0,0,1-39.1-7.742a1.96,1.96,0,0,1-.551-1.435,1.855,1.855,0,0,1,.579-1.406,2.1,2.1,0,0,1,1.511-.551,2.166,2.166,0,0,1,1.558.58A1.969,1.969,0,0,1-35.4-9.063v7.182a3.369,3.369,0,0,1,.779-.618,13.021,13.021,0,0,1,1.292-.674,10.9,10.9,0,0,0,1.358-.76,2.136,2.136,0,0,0,.656-.655,1.645,1.645,0,0,0,.19-.826v-5.529h1.881V-5.4a2.77,2.77,0,0,1-.19,1.055A1.54,1.54,0,0,1-29.982-3.629Zm-7.695-4.655a.842.842,0,0,0,.637-.247.868.868,0,0,0,.237-.627.868.868,0,0,0-.237-.627.842.842,0,0,0-.637-.247.85.85,0,0,0-.627.247.85.85,0,0,0-.247.627.85.85,0,0,0,.247.627A.85.85,0,0,0-37.677-8.284ZM-30.8-.912a.874.874,0,0,0,.646-.247.85.85,0,0,0,.247-.627.85.85,0,0,0-.247-.627A.874.874,0,0,0-30.8-2.66a.818.818,0,0,0-.618.247.868.868,0,0,0-.237.627.868.868,0,0,0,.237.627A.818.818,0,0,0-30.8-.912Zm13.3-11.1A4.222,4.222,0,0,1-18.81-9.842a2.846,2.846,0,0,1,.76,2.014V0h-1.862V-4.218A1.44,1.44,0,0,0-20.663-5.5a3.2,3.2,0,0,0-1.719-.466A2.732,2.732,0,0,0-24-5.51a1.435,1.435,0,0,0-.646,1.235v.57a1.381,1.381,0,0,1,.4-.057,1.9,1.9,0,0,1,1.415.551,1.972,1.972,0,0,1,.542,1.444,1.855,1.855,0,0,1-.58,1.406,2.1,2.1,0,0,1-1.51.551,2.133,2.133,0,0,1-1.549-.58,2.008,2.008,0,0,1-.6-1.51V-4.275a2.669,2.669,0,0,1,.788-1.966,3.889,3.889,0,0,1,2.08-1.036,16.635,16.635,0,0,0,2.489-2.147,4.086,4.086,0,0,0-1.368-.209,3.721,3.721,0,0,0-1.938.466A1.84,1.84,0,0,0-25.4-7.9h-1.824A3.029,3.029,0,0,1-25.85-10.26a5.717,5.717,0,0,1,3.316-.874,6.653,6.653,0,0,1,2.413.418,3.568,3.568,0,0,0,.513-1.292Zm-2.413,4.123a1.529,1.529,0,0,0-.209-.779,19.524,19.524,0,0,1-1.862,1.33,3.6,3.6,0,0,1,2.071.912Zm-3.477,6.1a.868.868,0,0,0-.237-.627.818.818,0,0,0-.618-.247.874.874,0,0,0-.646.247.85.85,0,0,0-.247.627.85.85,0,0,0,.247.627.874.874,0,0,0,.646.247.818.818,0,0,0,.618-.247A.868.868,0,0,0-23.389-1.786Zm4.332-10.83a2.3,2.3,0,0,1-1.672-.627,2.152,2.152,0,0,1-.646-1.615,2.152,2.152,0,0,1,.646-1.615,2.3,2.3,0,0,1,1.672-.627,2.3,2.3,0,0,1,1.672.627,2.152,2.152,0,0,1,.646,1.615,2.152,2.152,0,0,1-.646,1.615A2.3,2.3,0,0,1-19.057-12.616Zm0-1.083a1.107,1.107,0,0,0,.817-.323,1.131,1.131,0,0,0,.323-.836,1.107,1.107,0,0,0-.323-.817A1.107,1.107,0,0,0-19.057-16a1.107,1.107,0,0,0-.817.323,1.107,1.107,0,0,0-.323.817,1.131,1.131,0,0,0,.323.836A1.107,1.107,0,0,0-19.057-13.7Zm8.512,5.719A1.539,1.539,0,0,0-11.039-9.2a1.994,1.994,0,0,0-1.368-.437,2,2,0,0,0-1.454.523A1.875,1.875,0,0,0-14.4-7.7h-1.824A3.206,3.206,0,0,1-15.2-10.222a4.053,4.053,0,0,1,2.793-.912,4.211,4.211,0,0,1,2.745.817,2.762,2.762,0,0,1,1,2.261V0h-1.881ZM-3.61-3.762a1.879,1.879,0,0,1,1.416.56,1.979,1.979,0,0,1,.541,1.435A1.855,1.855,0,0,1-2.232-.361,2.1,2.1,0,0,1-3.743.19,2.133,2.133,0,0,1-5.291-.39a2.008,2.008,0,0,1-.6-1.51v-9.044h1.881V-3.7A1.516,1.516,0,0,1-3.61-3.762Zm-.019,2.85a.842.842,0,0,0,.636-.247.868.868,0,0,0,.238-.627.868.868,0,0,0-.238-.627.842.842,0,0,0-.636-.247.85.85,0,0,0-.627.247.85.85,0,0,0-.247.627.85.85,0,0,0,.247.627A.85.85,0,0,0-3.629-.912ZM8.7-3.629a2.062,2.062,0,0,1,.931.684A1.7,1.7,0,0,1,9.975-1.9,2.043,2.043,0,0,1,9.4-.39a2.043,2.043,0,0,1-1.51.58A1.981,1.981,0,0,1,6.422-.38a2,2,0,0,1-.57-1.482v-.019A6.713,6.713,0,0,0,4.4-1.074,5.009,5.009,0,0,0,3.287,0H1.406V-7.239a1.381,1.381,0,0,1-.4.057A1.911,1.911,0,0,1-.418-7.742,1.96,1.96,0,0,1-.969-9.177a1.855,1.855,0,0,1,.58-1.406,2.1,2.1,0,0,1,1.51-.551,2.166,2.166,0,0,1,1.558.58,1.969,1.969,0,0,1,.608,1.491v7.182A3.369,3.369,0,0,1,4.066-2.5a13.021,13.021,0,0,1,1.292-.674,10.9,10.9,0,0,0,1.359-.76,2.136,2.136,0,0,0,.655-.655,1.645,1.645,0,0,0,.19-.826v-5.529H9.443V-5.4a2.77,2.77,0,0,1-.19,1.055A1.54,1.54,0,0,1,8.7-3.629ZM1.007-8.284a.842.842,0,0,0,.637-.247.868.868,0,0,0,.237-.627.868.868,0,0,0-.237-.627.842.842,0,0,0-.637-.247.85.85,0,0,0-.627.247.85.85,0,0,0-.247.627.85.85,0,0,0,.247.627A.85.85,0,0,0,1.007-8.284ZM7.885-.912a.874.874,0,0,0,.646-.247.85.85,0,0,0,.247-.627.85.85,0,0,0-.247-.627.874.874,0,0,0-.646-.247.818.818,0,0,0-.618.247.868.868,0,0,0-.237.627.868.868,0,0,0,.237.627A.818.818,0,0,0,7.885-.912Zm9.1-7.068A1.539,1.539,0,0,0,16.492-9.2a1.994,1.994,0,0,0-1.368-.437,2,2,0,0,0-1.454.523A1.875,1.875,0,0,0,13.129-7.7H11.305a3.206,3.206,0,0,1,1.026-2.527,4.053,4.053,0,0,1,2.793-.912,4.211,4.211,0,0,1,2.745.817,2.762,2.762,0,0,1,1,2.261V0H16.986Zm8.7-3.154a5.141,5.141,0,0,1,2.27.475,3.52,3.52,0,0,1,1.51,1.349A3.832,3.832,0,0,1,30-7.277V0H28.139V-7.087a2.467,2.467,0,0,0-.713-1.852,2.569,2.569,0,0,0-1.872-.694A3.5,3.5,0,0,0,23.8-9.2a2.286,2.286,0,0,0-1.055,1.178,5.241,5.241,0,0,1,1.264.342,3.648,3.648,0,0,1,.959.551v.456a2.19,2.19,0,0,0-1.092.732,1.913,1.913,0,0,0-.389,1.207v1.064a1.381,1.381,0,0,1,.4-.057,1.922,1.922,0,0,1,1.406.541,1.9,1.9,0,0,1,.551,1.416,1.848,1.848,0,0,1-.58,1.416A2.123,2.123,0,0,1,23.75.19a2.166,2.166,0,0,1-1.558-.58,1.992,1.992,0,0,1-.608-1.51V-4.655a2.24,2.24,0,0,1,.371-1.264,2.321,2.321,0,0,1,1-.845,8.827,8.827,0,0,0-1.995-.342,4.075,4.075,0,0,1,.665-2.109,4.044,4.044,0,0,1,1.663-1.415A5.512,5.512,0,0,1,25.688-11.134ZM23.864-2.641a.85.85,0,0,0-.627.247.85.85,0,0,0-.247.627.85.85,0,0,0,.247.627.85.85,0,0,0,.627.247.85.85,0,0,0,.627-.247.85.85,0,0,0,.247-.627.85.85,0,0,0-.247-.627A.85.85,0,0,0,23.864-2.641Zm3.724,9.063A2.809,2.809,0,0,1,25.9,5.976a1.438,1.438,0,0,1-.608-1.226V4.275a2.068,2.068,0,0,1-.532.057,1.51,1.51,0,0,1-1.13-.437A1.586,1.586,0,0,1,23.2,2.736a1.493,1.493,0,0,1,.485-1.149,1.764,1.764,0,0,1,1.244-.446,1.97,1.97,0,0,1,1.321.428,1.369,1.369,0,0,1,.5,1.092V4.6a.593.593,0,0,0,.228.475.95.95,0,0,0,.627.19.978.978,0,0,0,.636-.18.6.6,0,0,0,.219-.485V1.235H30V4.75a1.418,1.418,0,0,1-.636,1.226A3.057,3.057,0,0,1,27.588,6.422Zm-2.793-3a.652.652,0,0,0,.684-.684.652.652,0,0,0-.684-.684.7.7,0,0,0-.5.19.651.651,0,0,0-.2.494.651.651,0,0,0,.2.494A.7.7,0,0,0,24.795,3.42Zm7.942-8.075a2.24,2.24,0,0,1,.37-1.264,2.321,2.321,0,0,1,1-.845,8.827,8.827,0,0,0-2-.342,4.126,4.126,0,0,1,.656-2.109,3.989,3.989,0,0,1,1.643-1.415,5.45,5.45,0,0,1,2.394-.5,5.033,5.033,0,0,1,2.242.475,3.594,3.594,0,0,1,1.51,1.349A3.78,3.78,0,0,1,41.1-7.277V0H39.2V-7.087A2.5,2.5,0,0,0,38.5-8.939a2.5,2.5,0,0,0-1.853-.694,3.354,3.354,0,0,0-1.719.437A2.3,2.3,0,0,0,33.9-8.018a5.241,5.241,0,0,1,1.264.342,3.648,3.648,0,0,1,.959.551v.456a2.19,2.19,0,0,0-1.093.732,1.913,1.913,0,0,0-.389,1.207V0h-1.9ZM49.97-11.134A3.054,3.054,0,0,1,52-9.9a4.159,4.159,0,0,1,.76,2.546V0h-1.9V-7.315A3.7,3.7,0,0,0,50.645-8.7a1.836,1.836,0,0,0-.712-.855L48.051-8.246,46.075-9.614a2.279,2.279,0,0,0-.836.969,3.662,3.662,0,0,0-.266,1.5,4.893,4.893,0,0,0,.123,1q.123.579.276,1.149a8.334,8.334,0,0,1,.4,2.033v.456a5.993,5.993,0,0,1,.826-.855q.522-.456.655-.57l.323-.266a1.568,1.568,0,0,1-.979-.523A1.58,1.58,0,0,1,46.227-5.8,1.606,1.606,0,0,1,46.731-7a1.774,1.774,0,0,1,1.282-.484,1.723,1.723,0,0,1,1.273.494,1.7,1.7,0,0,1,.494,1.254,2.013,2.013,0,0,1-.446,1.273,11.623,11.623,0,0,1-1.359,1.387,11.746,11.746,0,0,0-1.52,1.53A2.73,2.73,0,0,0,45.866,0H44V-2.717a3.532,3.532,0,0,0-.114-.751q-.114-.484-.247-1.016-.247-.969-.37-1.558a5.308,5.308,0,0,1-.124-1.083,4.334,4.334,0,0,1,.788-2.622,3.562,3.562,0,0,1,2.252-1.387L48.07-9.728ZM47.2-5.8a.783.783,0,0,0,.218.579.783.783,0,0,0,.58.219.783.783,0,0,0,.579-.219.783.783,0,0,0,.219-.579.759.759,0,0,0-.219-.561.783.783,0,0,0-.579-.218.783.783,0,0,0-.58.218A.759.759,0,0,0,47.2-5.8ZM54.549-18.05A4.959,4.959,0,0,1,53.5-15.418a5.838,5.838,0,0,1-2.337,1.748,8.136,8.136,0,0,1-3.23.618h-.8v-.855a4.686,4.686,0,0,0,.9-.484,3.994,3.994,0,0,0,.808-.713H48.64a1.528,1.528,0,0,1-1.159-.437,1.607,1.607,0,0,1-.418-1.159,1.463,1.463,0,0,1,.485-1.14,1.761,1.761,0,0,1,1.225-.437A1.679,1.679,0,0,1,50-17.8a1.677,1.677,0,0,1,.485,1.254,2.982,2.982,0,0,1-.257,1.159,3.1,3.1,0,0,1-.713,1.045,3.917,3.917,0,0,0,2.337-1.311,4.2,4.2,0,0,0,1.064-2.394ZM48.07-16.663a.683.683,0,0,0,.2.5.683.683,0,0,0,.5.2.651.651,0,0,0,.494-.2.7.7,0,0,0,.19-.5.668.668,0,0,0-.19-.494.668.668,0,0,0-.494-.19.7.7,0,0,0-.5.19A.651.651,0,0,0,48.07-16.663Zm11.5,5.529a6.185,6.185,0,0,1,2.337.409,3.447,3.447,0,0,1,1.549,1.159,2.894,2.894,0,0,1,.542,1.738v5.263A2.306,2.306,0,0,1,62.909-.532a5.368,5.368,0,0,1-3,.722,5.218,5.218,0,0,1-2.983-.731A2.323,2.323,0,0,1,55.86-2.565v-2.85A1.97,1.97,0,0,1,56.449-6.9a2.12,2.12,0,0,1,1.539-.57,2.089,2.089,0,0,1,1.5.542,1.863,1.863,0,0,1,.57,1.416,1.89,1.89,0,0,1-.542,1.4,1.89,1.89,0,0,1-1.4.542,2.467,2.467,0,0,1-.4-.038V-2.7a1.136,1.136,0,0,0,.6,1.026,3.179,3.179,0,0,0,1.643.361,2.749,2.749,0,0,0,1.6-.39,1.261,1.261,0,0,0,.551-1.092v-5a1.57,1.57,0,0,0-.7-1.34,3.167,3.167,0,0,0-1.881-.5,3.681,3.681,0,0,0-1.919.466A1.84,1.84,0,0,0,56.677-7.9H54.853a3.064,3.064,0,0,1,1.425-2.356A5.745,5.745,0,0,1,59.565-11.134ZM58.1-6.384a.868.868,0,0,0-.627.237.818.818,0,0,0-.247.617.85.85,0,0,0,.247.627.85.85,0,0,0,.627.247.85.85,0,0,0,.627-.247.85.85,0,0,0,.247-.627.818.818,0,0,0-.247-.617A.868.868,0,0,0,58.1-6.384Zm12.54-4.75a2.166,2.166,0,0,1,1.558.58,1.969,1.969,0,0,1,.608,1.491V0H70.927L65.683-5.662l1.045-1.1,4.2,4.541V-7.239a1.381,1.381,0,0,1-.4.057A1.911,1.911,0,0,1,69.1-7.742a1.96,1.96,0,0,1-.551-1.435,1.855,1.855,0,0,1,.579-1.406A2.1,2.1,0,0,1,70.642-11.134Zm-.114,2.85a.842.842,0,0,0,.637-.247.868.868,0,0,0,.237-.627.868.868,0,0,0-.237-.627.842.842,0,0,0-.637-.247.85.85,0,0,0-.627.247.85.85,0,0,0-.247.627.85.85,0,0,0,.247.627A.85.85,0,0,0,70.528-8.284Zm-130.7,19.276a4.222,4.222,0,0,1-1.311,2.166,2.846,2.846,0,0,1,.76,2.014V23h-1.862V18.782a1.44,1.44,0,0,0-.75-1.282,3.2,3.2,0,0,0-1.72-.465,2.732,2.732,0,0,0-1.615.456,1.435,1.435,0,0,0-.646,1.235v.57a1.381,1.381,0,0,1,.4-.057,1.9,1.9,0,0,1,1.415.551,1.972,1.972,0,0,1,.542,1.444,1.855,1.855,0,0,1-.579,1.406,2.1,2.1,0,0,1-1.511.551,2.133,2.133,0,0,1-1.549-.58,2.008,2.008,0,0,1-.6-1.51V18.725a2.669,2.669,0,0,1,.788-1.967,3.889,3.889,0,0,1,2.08-1.035,16.636,16.636,0,0,0,2.489-2.147,4.086,4.086,0,0,0-1.368-.209,3.721,3.721,0,0,0-1.938.466,1.84,1.84,0,0,0-.931,1.263H-69.9a3.029,3.029,0,0,1,1.378-2.356,5.717,5.717,0,0,1,3.315-.874,6.653,6.653,0,0,1,2.413.418,3.568,3.568,0,0,0,.513-1.292Zm-2.413,4.123a1.529,1.529,0,0,0-.209-.779,19.525,19.525,0,0,1-1.862,1.33,3.6,3.6,0,0,1,2.071.912Zm-3.477,6.1a.868.868,0,0,0-.237-.627.818.818,0,0,0-.618-.247.874.874,0,0,0-.646.247.85.85,0,0,0-.247.627.85.85,0,0,0,.247.627.874.874,0,0,0,.646.247.818.818,0,0,0,.618-.247A.868.868,0,0,0-66.063,21.214Zm17.119-9.158V23h-1.729a10.251,10.251,0,0,0-1.72-1.207,9.654,9.654,0,0,0-1.8-.807v.076a1.993,1.993,0,0,1-.646,1.529,2.285,2.285,0,0,1-1.615.6,2.139,2.139,0,0,1-1.567-.589,2.04,2.04,0,0,1-.6-1.52,1.969,1.969,0,0,1,.608-1.491,2.244,2.244,0,0,1,1.615-.58h.038V15.761a1.381,1.381,0,0,1-.4.057,1.887,1.887,0,0,1-1.406-.561,1.96,1.96,0,0,1-.551-1.434,1.855,1.855,0,0,1,.579-1.406,2.1,2.1,0,0,1,1.511-.551,2.166,2.166,0,0,1,1.558.58,1.969,1.969,0,0,1,.608,1.491V19.3a15.473,15.473,0,0,1,1.976.788,12.091,12.091,0,0,1,1.653.941V12.056Zm-8.664,1.786a.85.85,0,0,0,.247.627.85.85,0,0,0,.627.247.882.882,0,0,0,.637-.247.833.833,0,0,0,.257-.627.833.833,0,0,0-.257-.627.882.882,0,0,0-.637-.247.85.85,0,0,0-.627.247A.85.85,0,0,0-57.608,13.842Zm1.083,8.17a.912.912,0,0,0,.674-.256.888.888,0,0,0,.257-.656.864.864,0,0,0-.257-.636.912.912,0,0,0-.674-.257.864.864,0,0,0-.636.257.864.864,0,0,0-.257.636.888.888,0,0,0,.257.656A.864.864,0,0,0-56.525,22.012ZM-38.3,14.3a1.638,1.638,0,0,1,.846.693,2.286,2.286,0,0,1,.294,1.207v4.237a2.478,2.478,0,0,1-.884,2.033,3.818,3.818,0,0,1-2.479.722,3.745,3.745,0,0,1-2.451-.722,2.49,2.49,0,0,1-.874-2.033V18.611a2.307,2.307,0,0,1,.181-.941,7.572,7.572,0,0,1,.56-1,6.337,6.337,0,0,0,.589-1.035,2.575,2.575,0,0,0,.19-1.017,1.333,1.333,0,0,0-.447-1.1,1.864,1.864,0,0,0-1.206-.361,2.208,2.208,0,0,0-1.33.361h.19a1.744,1.744,0,0,1,1.245.475,1.74,1.74,0,0,1,.5,1.33,1.849,1.849,0,0,1-.513,1.321,1.844,1.844,0,0,1-1.406.542,1.9,1.9,0,0,1-1.482-.608,2.4,2.4,0,0,1-.551-1.672,2.863,2.863,0,0,1,.912-2.185,3.522,3.522,0,0,1,2.508-.855,3.722,3.722,0,0,1,2.327.665,2.3,2.3,0,0,1,.864,1.938,3.7,3.7,0,0,1-.171,1.188,7.334,7.334,0,0,1-.513,1.131,6.259,6.259,0,0,0-.428.912,2.582,2.582,0,0,0-.143.874v1.919a1.081,1.081,0,0,0,.38.883,1.66,1.66,0,0,0,1.083.313,1.66,1.66,0,0,0,1.083-.313,1.081,1.081,0,0,0,.38-.883V16.274a1.474,1.474,0,0,0-.247-.912,1.654,1.654,0,0,0-.817-.513v-.988a2.456,2.456,0,0,0,1.121-.912,3.066,3.066,0,0,0,.418-1.558h1.938a3.846,3.846,0,0,1-.58,1.786A3.144,3.144,0,0,1-38.3,14.3Zm-6.137,1.026a.822.822,0,0,0-.228-.608.822.822,0,0,0-.608-.228.855.855,0,0,0-.618.228.8.8,0,0,0-.238.608.835.835,0,0,0,.238.618.835.835,0,0,0,.618.238.8.8,0,0,0,.608-.238A.855.855,0,0,0-44.441,15.324Zm14.782-.3a1.539,1.539,0,0,0-.494-1.216,1.994,1.994,0,0,0-1.368-.437,2,2,0,0,0-1.454.523,1.875,1.875,0,0,0-.542,1.416H-35.34a3.206,3.206,0,0,1,1.026-2.527,4.053,4.053,0,0,1,2.793-.912,4.211,4.211,0,0,1,2.745.817,2.762,2.762,0,0,1,1,2.261V23h-1.881Zm12.844-2.964V20.34a2.384,2.384,0,0,1-1.14,2.09,5.559,5.559,0,0,1-3.116.76,5.567,5.567,0,0,1-3.106-.76,2.379,2.379,0,0,1-1.149-2.09v-1.2a2.047,2.047,0,0,1,.3-1.111,2.069,2.069,0,0,1,.931-.769,2.188,2.188,0,0,1-1.064-1.045,3.6,3.6,0,0,1-.342-1.6,2.9,2.9,0,0,1,.665-2.014,2.326,2.326,0,0,1,1.824-.741,2.063,2.063,0,0,1,1.444.484,1.7,1.7,0,0,1,.532,1.321,1.684,1.684,0,0,1-.494,1.273,1.865,1.865,0,0,1-1.349.475,1.769,1.769,0,0,1-.836-.19,1.521,1.521,0,0,0,.418.969,1.19,1.19,0,0,0,.874.361h1.862V18h-1.881a.939.939,0,0,0-.731.3,1.17,1.17,0,0,0-.275.817v1.064a1.239,1.239,0,0,0,.636,1.1,3.256,3.256,0,0,0,1.738.4,3.2,3.2,0,0,0,1.729-.4,1.243,1.243,0,0,0,.627-1.1V12.056Zm-6.1.76a.83.83,0,0,0-.6.228.8.8,0,0,0-.237.608.811.811,0,0,0,.237.6.811.811,0,0,0,.6.238.8.8,0,0,0,.608-.238.83.83,0,0,0,.228-.6.822.822,0,0,0-.228-.608A.822.822,0,0,0-22.914,12.816Zm15.751.551a1.234,1.234,0,0,0-.8.276,1.042,1.042,0,0,0-.38.769,11.975,11.975,0,0,1,3.648.912q1.444.665,1.444,1.653V21.1a1.992,1.992,0,0,1-.608,1.51,2.166,2.166,0,0,1-1.558.58,2.1,2.1,0,0,1-1.51-.551,1.855,1.855,0,0,1-.58-1.406,1.972,1.972,0,0,1,.542-1.444,1.9,1.9,0,0,1,1.415-.551,1.516,1.516,0,0,1,.4.057V17.243q0-.551-1.463-.988a21.483,21.483,0,0,0-3.724-.684,4.381,4.381,0,0,1,.788-2.736,2.537,2.537,0,0,1,2.1-.969,4.51,4.51,0,0,1,.94.1q.447.1,1.054.285.1.019.456.123a2.259,2.259,0,0,0,.608.1.665.665,0,0,0,.456-.19.965.965,0,0,0,.285-.494l1.368.4A2.965,2.965,0,0,1-3,13.529a1.527,1.527,0,0,1-1.1.465,2.907,2.907,0,0,1-.674-.095q-.39-.1-.788-.209-.418-.114-.855-.219A3.277,3.277,0,0,0-7.163,13.367Zm1.634,8.721a.85.85,0,0,0,.627-.247.85.85,0,0,0,.247-.627.85.85,0,0,0-.247-.627.85.85,0,0,0-.627-.247.842.842,0,0,0-.637.247.868.868,0,0,0-.237.627.868.868,0,0,0,.237.627A.842.842,0,0,0-5.529,22.088ZM-.019,5.482a4.668,4.668,0,0,1-.637,2.46A4.283,4.283,0,0,1-2.4,9.567a5.437,5.437,0,0,1-2.518.57A5.487,5.487,0,0,1-6.916,9.8a3.005,3.005,0,0,1-1.311-.912,2.078,2.078,0,0,1-.456-1.32,1.787,1.787,0,0,1,.551-1.358,1.961,1.961,0,0,1,1.406-.523,1.928,1.928,0,0,1,1.4.523,1.827,1.827,0,0,1,.542,1.377A1.824,1.824,0,0,1-5.3,8.94a1.878,1.878,0,0,0,.323.019,3.176,3.176,0,0,0,2.47-.978,3.634,3.634,0,0,0,.912-2.5Zm-7.6,2.071a.811.811,0,0,0,.257.608.882.882,0,0,0,.636.247.826.826,0,0,0,.608-.247.826.826,0,0,0,.247-.608.818.818,0,0,0-.247-.617A.844.844,0,0,0-6.726,6.7a.882.882,0,0,0-.636.247A.811.811,0,0,0-7.619,7.553ZM-.247,18.345a2.24,2.24,0,0,1,.371-1.264,2.321,2.321,0,0,1,1-.845,8.827,8.827,0,0,0-1.995-.342,4.126,4.126,0,0,1,.656-2.109A3.989,3.989,0,0,1,1.425,12.37a5.45,5.45,0,0,1,2.394-.5,5.033,5.033,0,0,1,2.242.475,3.594,3.594,0,0,1,1.51,1.349,3.78,3.78,0,0,1,.542,2.033V23h-1.9V15.913a2.5,2.5,0,0,0-.693-1.852,2.5,2.5,0,0,0-1.852-.694,3.354,3.354,0,0,0-1.72.437A2.3,2.3,0,0,0,.912,14.982a5.241,5.241,0,0,1,1.263.342,3.648,3.648,0,0,1,.959.551v.456a2.19,2.19,0,0,0-1.092.732,1.913,1.913,0,0,0-.389,1.207V23h-1.9Zm13.414.893a1.879,1.879,0,0,1,1.415.561,1.979,1.979,0,0,1,.542,1.434,1.855,1.855,0,0,1-.58,1.406,2.1,2.1,0,0,1-1.51.551,2.133,2.133,0,0,1-1.549-.58,2.008,2.008,0,0,1-.6-1.51V12.056h1.881V19.3A1.516,1.516,0,0,1,13.167,19.238Zm-.019,2.85a.842.842,0,0,0,.636-.247.946.946,0,0,0,0-1.254.89.89,0,1,0-.636,1.5Zm5.263-2.85a1.879,1.879,0,0,1,1.415.561,1.979,1.979,0,0,1,.542,1.434,1.855,1.855,0,0,1-.579,1.406,2.1,2.1,0,0,1-1.511.551,2.133,2.133,0,0,1-1.549-.58,2.008,2.008,0,0,1-.6-1.51V12.056h1.881V19.3A1.516,1.516,0,0,1,18.411,19.238Zm-.019,2.85a.842.842,0,0,0,.636-.247.946.946,0,0,0,0-1.254.89.89,0,1,0-.636,1.5Zm7.752-10.222a6.185,6.185,0,0,1,2.337.409,3.447,3.447,0,0,1,1.549,1.159,2.894,2.894,0,0,1,.542,1.738v5.263a2.306,2.306,0,0,1-1.083,2.033,5.368,5.368,0,0,1-3,.722,5.218,5.218,0,0,1-2.983-.732,2.323,2.323,0,0,1-1.064-2.024v-2.85a1.97,1.97,0,0,1,.589-1.482,2.12,2.12,0,0,1,1.539-.57,2.089,2.089,0,0,1,1.5.542,1.863,1.863,0,0,1,.57,1.415A1.855,1.855,0,0,1,24.7,19.428a2.467,2.467,0,0,1-.4-.038V20.3a1.136,1.136,0,0,0,.6,1.026,3.179,3.179,0,0,0,1.643.361,2.749,2.749,0,0,0,1.6-.389,1.261,1.261,0,0,0,.551-1.092v-5a1.57,1.57,0,0,0-.7-1.34,3.167,3.167,0,0,0-1.881-.5,3.681,3.681,0,0,0-1.919.466,1.84,1.84,0,0,0-.931,1.263H21.432a3.064,3.064,0,0,1,1.425-2.356A5.745,5.745,0,0,1,26.144,11.866Zm-1.463,4.75a.868.868,0,0,0-.627.237.818.818,0,0,0-.247.618.874.874,0,1,0,1.748,0,.818.818,0,0,0-.247-.618A.868.868,0,0,0,24.681,16.616Zm17.67-4.56V23H40.622a10.251,10.251,0,0,0-1.72-1.207,9.654,9.654,0,0,0-1.8-.807v.076a1.993,1.993,0,0,1-.646,1.529,2.285,2.285,0,0,1-1.615.6,2.139,2.139,0,0,1-1.567-.589,2.04,2.04,0,0,1-.6-1.52,1.969,1.969,0,0,1,.608-1.491,2.244,2.244,0,0,1,1.615-.58h.038V15.761a1.381,1.381,0,0,1-.4.057,1.887,1.887,0,0,1-1.406-.561,1.96,1.96,0,0,1-.551-1.434,1.855,1.855,0,0,1,.579-1.406,2.1,2.1,0,0,1,1.511-.551,2.166,2.166,0,0,1,1.558.58,1.969,1.969,0,0,1,.608,1.491V19.3a15.473,15.473,0,0,1,1.976.788,12.091,12.091,0,0,1,1.653.941V12.056Zm-8.664,1.786a.845.845,0,0,0,.874.874.882.882,0,0,0,.637-.247.895.895,0,0,0,0-1.254.882.882,0,0,0-.637-.247.845.845,0,0,0-.874.874Zm1.083,8.17a.912.912,0,0,0,.674-.256A.888.888,0,0,0,35.7,21.1a.864.864,0,0,0-.257-.636.912.912,0,0,0-.674-.257.876.876,0,0,0-.893.893.888.888,0,0,0,.257.656A.864.864,0,0,0,34.77,22.012ZM47.4,19.238a1.879,1.879,0,0,1,1.416.561,1.979,1.979,0,0,1,.542,1.434,1.855,1.855,0,0,1-.579,1.406,2.1,2.1,0,0,1-1.511.551,2.133,2.133,0,0,1-1.549-.58,2.008,2.008,0,0,1-.6-1.51V12.056h1.881V19.3A1.516,1.516,0,0,1,47.4,19.238Zm-.019,2.85a.842.842,0,0,0,.636-.247.946.946,0,0,0,0-1.254.89.89,0,1,0-.636,1.5Zm6.821-10.222a4.413,4.413,0,0,1,2.926.893A3.029,3.029,0,0,1,58.2,15.21V21.1a1.992,1.992,0,0,1-.608,1.51,2.166,2.166,0,0,1-1.558.58,2.1,2.1,0,0,1-1.511-.551,1.855,1.855,0,0,1-.579-1.406,1.953,1.953,0,0,1,.551-1.444,1.928,1.928,0,0,1,1.425-.551,1.381,1.381,0,0,1,.4.057V15.362a1.921,1.921,0,0,0-.561-1.463,2.214,2.214,0,0,0-1.587-.532,2.342,2.342,0,0,0-1.549.513,2.153,2.153,0,0,0-.75,1.387H49.989a3.419,3.419,0,0,1,1.263-2.489A4.56,4.56,0,0,1,54.207,11.866Zm1.71,10.222a.874.874,0,0,0,.646-.247.919.919,0,0,0,0-1.254.874.874,0,0,0-.646-.247.874.874,0,1,0,0,1.748ZM69.179,12.056V20.34a2.384,2.384,0,0,1-1.14,2.09,6.748,6.748,0,0,1-6.222,0,2.379,2.379,0,0,1-1.15-2.09v-1.2a2.047,2.047,0,0,1,.3-1.111,2.069,2.069,0,0,1,.931-.769,2.188,2.188,0,0,1-1.064-1.045,3.6,3.6,0,0,1-.342-1.6,2.9,2.9,0,0,1,.665-2.014,2.326,2.326,0,0,1,1.824-.741,2.063,2.063,0,0,1,1.444.484,1.7,1.7,0,0,1,.532,1.321,1.684,1.684,0,0,1-.494,1.273,1.865,1.865,0,0,1-1.349.475,1.769,1.769,0,0,1-.836-.19,1.521,1.521,0,0,0,.418.969,1.19,1.19,0,0,0,.874.361h1.862V18H63.555a.939.939,0,0,0-.731.3,1.17,1.17,0,0,0-.276.817v1.064a1.239,1.239,0,0,0,.637,1.1,3.256,3.256,0,0,0,1.738.4,3.2,3.2,0,0,0,1.729-.4,1.243,1.243,0,0,0,.627-1.1V12.056Zm-6.1.76a.83.83,0,0,0-.6.228.853.853,0,0,0,1.206,1.206.832.832,0,0,0-.608-1.434Zm7.429-8.36a1.61,1.61,0,0,1-.494,1.273,4.845,4.845,0,0,1-1.6.817l-.874.285A1.641,1.641,0,0,1,68.21,8.2,1.666,1.666,0,0,1,67.7,9.453a1.788,1.788,0,0,1-1.292.494,1.712,1.712,0,0,1-1.292-.513,1.838,1.838,0,0,1-.494-1.33,1.735,1.735,0,0,1,.456-1.254A2.745,2.745,0,0,1,66,6.185q.465-.19,1.644-.57a4.426,4.426,0,0,0,1.045-.456.829.829,0,0,0,.361-.7ZM66.481,8.978a.666.666,0,0,0,.5-.209.809.809,0,0,0,0-1.064.666.666,0,0,0-.5-.209.689.689,0,0,0-.523.209.809.809,0,0,0,0,1.064A.689.689,0,0,0,66.481,8.978Zm-203.157,33.26a1.9,1.9,0,0,1,1.4.561,1.942,1.942,0,0,1,.561,1.435,1.855,1.855,0,0,1-.579,1.406,2.1,2.1,0,0,1-1.511.551,2.166,2.166,0,0,1-1.558-.579,1.992,1.992,0,0,1-.608-1.511V33.688a4.068,4.068,0,0,1,.181-1.282,11.256,11.256,0,0,1,.5-1.226,7.508,7.508,0,0,0,.342-.76,1.682,1.682,0,0,0,.1-.57,1.157,1.157,0,0,0-.465-.979,1.949,1.949,0,0,0-1.206-.351,1.8,1.8,0,0,0-1.387.532h.114a1.673,1.673,0,0,1,1.206.465,1.6,1.6,0,0,1,.484,1.206,1.651,1.651,0,0,1-.522,1.254,1.923,1.923,0,0,1-1.378.494,1.908,1.908,0,0,1-1.4-.532,2.062,2.062,0,0,1-.542-1.539,3.16,3.16,0,0,1,.428-1.625,3.036,3.036,0,0,1,1.235-1.159,3.941,3.941,0,0,1,1.871-.427,4.048,4.048,0,0,1,2.432.712,2.256,2.256,0,0,1,.988,1.928,2.371,2.371,0,0,1-.114.769,6.126,6.126,0,0,1-.361.808,6.559,6.559,0,0,0-.447,1.016,3.789,3.789,0,0,0-.161,1.188v8.664A2.467,2.467,0,0,1-136.676,42.238Zm-3.534-11.476a.759.759,0,0,0-.219-.561.759.759,0,0,0-.561-.219.759.759,0,0,0-.561.219.759.759,0,0,0-.219.561.759.759,0,0,0,.219.56.759.759,0,0,0,.561.219.759.759,0,0,0,.561-.219A.759.759,0,0,0-140.21,30.762Zm3.515,14.326a.85.85,0,0,0,.627-.247.85.85,0,0,0,.247-.627.85.85,0,0,0-.247-.627.85.85,0,0,0-.627-.247.849.849,0,0,0-.627.247.85.85,0,0,0-.247.627.849.849,0,0,0,.247.627A.849.849,0,0,0-136.7,45.088Zm11.78-7.79a1.638,1.638,0,0,1,.846.694,2.286,2.286,0,0,1,.294,1.206v4.237a2.478,2.478,0,0,1-.883,2.033,3.817,3.817,0,0,1-2.479.722,3.745,3.745,0,0,1-2.451-.722,2.49,2.49,0,0,1-.874-2.033V41.611a2.307,2.307,0,0,1,.181-.94,7.57,7.57,0,0,1,.561-1,6.337,6.337,0,0,0,.589-1.035,2.575,2.575,0,0,0,.19-1.017,1.333,1.333,0,0,0-.447-1.1,1.864,1.864,0,0,0-1.206-.361,2.208,2.208,0,0,0-1.33.361h.19a1.744,1.744,0,0,1,1.245.475,1.74,1.74,0,0,1,.5,1.33,1.849,1.849,0,0,1-.513,1.32,1.844,1.844,0,0,1-1.406.542,1.9,1.9,0,0,1-1.482-.608,2.4,2.4,0,0,1-.551-1.672,2.863,2.863,0,0,1,.912-2.185,3.522,3.522,0,0,1,2.508-.855,3.723,3.723,0,0,1,2.327.665,2.3,2.3,0,0,1,.865,1.938,3.7,3.7,0,0,1-.171,1.188,7.334,7.334,0,0,1-.513,1.13,6.257,6.257,0,0,0-.427.912,2.582,2.582,0,0,0-.143.874v1.919a1.081,1.081,0,0,0,.38.883,1.66,1.66,0,0,0,1.083.313,1.66,1.66,0,0,0,1.083-.313,1.081,1.081,0,0,0,.38-.883V39.274a1.474,1.474,0,0,0-.247-.912,1.654,1.654,0,0,0-.817-.513v-.988a2.456,2.456,0,0,0,1.121-.912,3.066,3.066,0,0,0,.418-1.558h1.938a3.846,3.846,0,0,1-.58,1.786A3.144,3.144,0,0,1-124.915,37.3Zm-6.137,1.026a.822.822,0,0,0-.228-.608.822.822,0,0,0-.608-.228.855.855,0,0,0-.618.228.8.8,0,0,0-.238.608.835.835,0,0,0,.238.618.835.835,0,0,0,.618.237.8.8,0,0,0,.608-.237A.855.855,0,0,0-131.052,38.324ZM-121.8,27.95a4.959,4.959,0,0,1-1.045,2.632,5.838,5.838,0,0,1-2.337,1.748,8.136,8.136,0,0,1-3.23.618h-.8v-.855a4.685,4.685,0,0,0,.9-.484,3.994,3.994,0,0,0,.807-.712h-.209a1.528,1.528,0,0,1-1.159-.437,1.607,1.607,0,0,1-.418-1.159,1.463,1.463,0,0,1,.484-1.14,1.761,1.761,0,0,1,1.225-.437,1.679,1.679,0,0,1,1.226.475,1.677,1.677,0,0,1,.484,1.254,2.982,2.982,0,0,1-.257,1.159,3.1,3.1,0,0,1-.712,1.045,3.917,3.917,0,0,0,2.337-1.311,4.2,4.2,0,0,0,1.064-2.394Zm-6.479,1.387a.682.682,0,0,0,.2.5.682.682,0,0,0,.5.2.651.651,0,0,0,.494-.2.7.7,0,0,0,.19-.5.668.668,0,0,0-.19-.494.668.668,0,0,0-.494-.19.7.7,0,0,0-.5.19A.651.651,0,0,0-128.278,29.337Zm9.614,7.03a1.234,1.234,0,0,0-.8.276,1.042,1.042,0,0,0-.38.769,11.975,11.975,0,0,1,3.648.912q1.444.665,1.444,1.653V44.1a1.992,1.992,0,0,1-.608,1.511,2.166,2.166,0,0,1-1.558.579,2.1,2.1,0,0,1-1.511-.551,1.855,1.855,0,0,1-.579-1.406,1.972,1.972,0,0,1,.542-1.444,1.9,1.9,0,0,1,1.415-.551,1.517,1.517,0,0,1,.4.057V40.243q0-.551-1.463-.988a21.483,21.483,0,0,0-3.724-.684,4.381,4.381,0,0,1,.789-2.736,2.537,2.537,0,0,1,2.1-.969,4.51,4.51,0,0,1,.941.1q.446.1,1.054.285.095.019.456.123a2.259,2.259,0,0,0,.608.1.665.665,0,0,0,.456-.19.965.965,0,0,0,.285-.494l1.368.4a2.964,2.964,0,0,1-.722,1.34,1.527,1.527,0,0,1-1.1.465,2.907,2.907,0,0,1-.674-.095q-.389-.1-.788-.209-.418-.114-.855-.218A3.277,3.277,0,0,0-118.664,36.367Zm1.634,8.721a.85.85,0,0,0,.627-.247.85.85,0,0,0,.247-.627.85.85,0,0,0-.247-.627.85.85,0,0,0-.627-.247.842.842,0,0,0-.637.247.868.868,0,0,0-.237.627.868.868,0,0,0,.237.627A.842.842,0,0,0-117.03,45.088Zm5.51-16.606a4.668,4.668,0,0,1-.637,2.46,4.283,4.283,0,0,1-1.748,1.625,5.437,5.437,0,0,1-2.518.57,5.487,5.487,0,0,1-2-.333,3.005,3.005,0,0,1-1.311-.912,2.078,2.078,0,0,1-.456-1.32,1.787,1.787,0,0,1,.551-1.358,1.961,1.961,0,0,1,1.406-.523,1.928,1.928,0,0,1,1.4.523,1.827,1.827,0,0,1,.541,1.377,1.824,1.824,0,0,1-.513,1.349,1.878,1.878,0,0,0,.323.019,3.176,3.176,0,0,0,2.47-.979,3.634,3.634,0,0,0,.912-2.5Zm-7.6,2.071a.811.811,0,0,0,.257.608.882.882,0,0,0,.636.247.826.826,0,0,0,.608-.247.826.826,0,0,0,.247-.608.818.818,0,0,0-.247-.617.844.844,0,0,0-.608-.238.882.882,0,0,0-.636.247A.811.811,0,0,0-119.12,30.553Zm16.948,4.5v8.531a2.154,2.154,0,0,1-1.092,1.91,5.593,5.593,0,0,1-3.011.694,5.593,5.593,0,0,1-3.011-.694,2.154,2.154,0,0,1-1.093-1.91V38.761a1.381,1.381,0,0,1-.4.057,1.911,1.911,0,0,1-1.425-.561,1.96,1.96,0,0,1-.551-1.435,1.855,1.855,0,0,1,.58-1.406,2.1,2.1,0,0,1,1.51-.551,2.166,2.166,0,0,1,1.558.58,1.969,1.969,0,0,1,.608,1.492v6.422a1.1,1.1,0,0,0,.589.969,3.126,3.126,0,0,0,1.634.361,3.082,3.082,0,0,0,1.615-.361,1.1,1.1,0,0,0,.589-.969v-8.3Zm-8.607,2.66a.842.842,0,0,0,.636-.247.868.868,0,0,0,.238-.627.868.868,0,0,0-.238-.627.842.842,0,0,0-.636-.247.85.85,0,0,0-.627.247.85.85,0,0,0-.247.627.85.85,0,0,0,.247.627A.85.85,0,0,0-110.779,37.716Zm13.661,4.522A1.879,1.879,0,0,1-95.7,42.8a1.979,1.979,0,0,1,.541,1.435,1.855,1.855,0,0,1-.579,1.406,2.1,2.1,0,0,1-1.51.551,2.133,2.133,0,0,1-1.549-.579,2.008,2.008,0,0,1-.6-1.511V35.056h1.881v7.239A1.517,1.517,0,0,1-97.118,42.238Zm-.019,2.85a.842.842,0,0,0,.636-.247.868.868,0,0,0,.238-.627.868.868,0,0,0-.238-.627.842.842,0,0,0-.636-.247.85.85,0,0,0-.627.247.85.85,0,0,0-.247.627.85.85,0,0,0,.247.627A.85.85,0,0,0-97.137,45.088Zm7.581-10.222a2.166,2.166,0,0,1,1.558.58,1.969,1.969,0,0,1,.608,1.492V46h-1.881l-5.244-5.662,1.045-1.1,4.2,4.541V38.761a1.381,1.381,0,0,1-.4.057,1.911,1.911,0,0,1-1.425-.561,1.96,1.96,0,0,1-.551-1.435,1.855,1.855,0,0,1,.579-1.406A2.1,2.1,0,0,1-89.556,34.866Zm-.114,2.85a.842.842,0,0,0,.637-.247.868.868,0,0,0,.237-.627.868.868,0,0,0-.237-.627.842.842,0,0,0-.637-.247.85.85,0,0,0-.627.247.85.85,0,0,0-.247.627.85.85,0,0,0,.247.627A.85.85,0,0,0-89.67,37.716Zm2.223-4.237a15.628,15.628,0,0,0-3.23-.846,22.418,22.418,0,0,0-3.648-.313,12.165,12.165,0,0,0-2,.152,3.438,3.438,0,0,1,1.2-2.612,4.449,4.449,0,0,1,3-.979A4.481,4.481,0,0,1-88.834,30.1,5.055,5.055,0,0,1-87.447,33.479ZM-89.081,32a3.022,3.022,0,0,0-1.187-1.463A3.381,3.381,0,0,0-92.1,30.04a3.245,3.245,0,0,0-1.587.361,1.852,1.852,0,0,0-.883.95,10.05,10.05,0,0,1,1.045-.038,15.721,15.721,0,0,1,2.366.181A11.014,11.014,0,0,1-89.081,32Zm13.072,10.374a2.062,2.062,0,0,1,.931.684,1.7,1.7,0,0,1,.342,1.045,2.043,2.043,0,0,1-.579,1.511,2.043,2.043,0,0,1-1.51.579,1.981,1.981,0,0,1-1.463-.57,2,2,0,0,1-.57-1.482v-.019a6.713,6.713,0,0,0-1.454.807A5.009,5.009,0,0,0-81.424,46h-1.881V38.761a1.381,1.381,0,0,1-.4.057,1.911,1.911,0,0,1-1.425-.561,1.96,1.96,0,0,1-.551-1.435,1.855,1.855,0,0,1,.58-1.406,2.1,2.1,0,0,1,1.51-.551,2.166,2.166,0,0,1,1.558.58,1.969,1.969,0,0,1,.608,1.492v7.182a3.369,3.369,0,0,1,.779-.618,13.021,13.021,0,0,1,1.292-.674,10.9,10.9,0,0,0,1.358-.76,2.136,2.136,0,0,0,.656-.656,1.645,1.645,0,0,0,.19-.826V35.056h1.881V40.6a2.77,2.77,0,0,1-.19,1.055A1.54,1.54,0,0,1-76.009,42.371ZM-83.7,37.716a.842.842,0,0,0,.636-.247.868.868,0,0,0,.238-.627.868.868,0,0,0-.238-.627.842.842,0,0,0-.636-.247.85.85,0,0,0-.627.247.85.85,0,0,0-.247.627.85.85,0,0,0,.247.627A.85.85,0,0,0-83.7,37.716Zm6.878,7.372a.874.874,0,0,0,.646-.247.85.85,0,0,0,.247-.627.85.85,0,0,0-.247-.627.874.874,0,0,0-.646-.247.818.818,0,0,0-.618.247.868.868,0,0,0-.238.627.868.868,0,0,0,.238.627A.818.818,0,0,0-76.826,45.088ZM-68.3,34.866a5.422,5.422,0,0,1,3.42.979,3.223,3.223,0,0,1,1.254,2.689V46h-1.9V38.7a2.122,2.122,0,0,0-.741-1.71,3.049,3.049,0,0,0-2.033-.627,3.325,3.325,0,0,0-2.223.694,2.328,2.328,0,0,0-.817,1.871,7.73,7.73,0,0,0,.143,1.34q.143.789.181.959a4.613,4.613,0,0,1,1.007-2.09,2.2,2.2,0,0,1,1.691-.779,1.976,1.976,0,0,1,1.378.456,1.63,1.63,0,0,1,.5,1.273,1.709,1.709,0,0,1-.484,1.264,1.734,1.734,0,0,1-1.283.485,1.861,1.861,0,0,1-.826-.19,1.4,1.4,0,0,1-.6-.532,4.8,4.8,0,0,0-.6,1.33,5.33,5.33,0,0,0-.238,1.52V46h-1.862V43.245a9.2,9.2,0,0,0-.361-1.805q-.228-.855-.352-1.453a5.445,5.445,0,0,1-.123-1.092,3.636,3.636,0,0,1,1.3-2.936A5.371,5.371,0,0,1-68.3,34.866Zm.057,4.427a.759.759,0,0,0-.56.219.759.759,0,0,0-.219.56.816.816,0,0,0,.219.589.742.742,0,0,0,.56.228.766.766,0,0,0,.58-.228.816.816,0,0,0,.218-.589.759.759,0,0,0-.218-.56A.783.783,0,0,0-68.238,39.293Zm4.427-6.764a7.884,7.884,0,0,1,.133.95,15.628,15.628,0,0,0-3.23-.846,22.418,22.418,0,0,0-3.648-.313,12.165,12.165,0,0,0-1.995.152,3.438,3.438,0,0,1,1.2-2.612,4.449,4.449,0,0,1,3-.979,5.378,5.378,0,0,1,.8.057V27.893h1.292V29.28a3.594,3.594,0,0,1,1.14.76V27.893h1.311Zm-5.947-1.216a15.721,15.721,0,0,1,2.365.181,11.014,11.014,0,0,1,2.081.5A3.022,3.022,0,0,0-66.5,30.534a3.381,3.381,0,0,0-1.834-.494,3.245,3.245,0,0,0-1.586.361,1.852,1.852,0,0,0-.884.95A10.05,10.05,0,0,1-69.758,31.313ZM-52.24,42.371a2.062,2.062,0,0,1,.931.684,1.7,1.7,0,0,1,.342,1.045,2.043,2.043,0,0,1-.58,1.511,2.043,2.043,0,0,1-1.51.579,1.981,1.981,0,0,1-1.463-.57,2,2,0,0,1-.57-1.482v-.019a6.713,6.713,0,0,0-1.453.807A5.009,5.009,0,0,0-57.655,46h-1.881V38.761a1.381,1.381,0,0,1-.4.057,1.911,1.911,0,0,1-1.425-.561,1.96,1.96,0,0,1-.551-1.435,1.855,1.855,0,0,1,.579-1.406,2.1,2.1,0,0,1,1.511-.551,2.166,2.166,0,0,1,1.558.58,1.969,1.969,0,0,1,.608,1.492v7.182a3.369,3.369,0,0,1,.779-.618,13.021,13.021,0,0,1,1.292-.674,10.9,10.9,0,0,0,1.358-.76,2.136,2.136,0,0,0,.656-.656,1.645,1.645,0,0,0,.19-.826V35.056H-51.5V40.6a2.77,2.77,0,0,1-.19,1.055A1.54,1.54,0,0,1-52.24,42.371Zm-7.695-4.655a.842.842,0,0,0,.637-.247.868.868,0,0,0,.237-.627.868.868,0,0,0-.237-.627.842.842,0,0,0-.637-.247.85.85,0,0,0-.627.247.85.85,0,0,0-.247.627.85.85,0,0,0,.247.627A.85.85,0,0,0-59.935,37.716Zm6.878,7.372a.874.874,0,0,0,.646-.247.85.85,0,0,0,.247-.627.85.85,0,0,0-.247-.627.874.874,0,0,0-.646-.247.818.818,0,0,0-.618.247.868.868,0,0,0-.237.627.868.868,0,0,0,.237.627A.818.818,0,0,0-53.057,45.088Zm9.614,1.1a2.871,2.871,0,0,1-1.681-.446,1.834,1.834,0,0,1-.77-1.264l-.342-2.033a1.432,1.432,0,0,1-.57.114,1.922,1.922,0,0,1-1.377-.513,1.727,1.727,0,0,1-.542-1.311,1.662,1.662,0,0,1,.56-1.311,2.009,2.009,0,0,1,1.378-.494,1.991,1.991,0,0,1,1.244.4,1.628,1.628,0,0,1,.637,1.045l.646,3.762a.59.59,0,0,0,.257.418.925.925,0,0,0,.542.152q.779,0,.779-.741V38.1a1.484,1.484,0,0,0-.646-1.254,2.855,2.855,0,0,0-1.729-.475,3.276,3.276,0,0,0-1.805.475,1.887,1.887,0,0,0-.893,1.254h-1.862a3.05,3.05,0,0,1,1.349-2.356,5.509,5.509,0,0,1,3.249-.874,5.151,5.151,0,0,1,3.078.836,2.611,2.611,0,0,1,1.159,2.223v6.023a2.058,2.058,0,0,1-.684,1.663A2.978,2.978,0,0,1-43.443,46.19Zm-3.42-4.655a.766.766,0,0,0,.579-.228.816.816,0,0,0,.219-.589.783.783,0,0,0-.219-.579.783.783,0,0,0-.579-.219.816.816,0,0,0-.589.219.766.766,0,0,0-.228.579.8.8,0,0,0,.228.589A.8.8,0,0,0-46.863,41.535ZM-33.3,38.02a1.539,1.539,0,0,0-.494-1.216,1.994,1.994,0,0,0-1.368-.437,2,2,0,0,0-1.453.522,1.875,1.875,0,0,0-.542,1.416h-1.824a3.206,3.206,0,0,1,1.026-2.527,4.053,4.053,0,0,1,2.793-.912,4.211,4.211,0,0,1,2.746.817,2.762,2.762,0,0,1,1,2.261V46H-33.3Zm4.6,3.325a2.24,2.24,0,0,1,.371-1.264,2.321,2.321,0,0,1,1-.846,8.827,8.827,0,0,0-1.995-.342,4.126,4.126,0,0,1,.656-2.109,3.989,3.989,0,0,1,1.643-1.416,5.45,5.45,0,0,1,2.394-.5,5.033,5.033,0,0,1,2.242.475,3.594,3.594,0,0,1,1.51,1.349,3.78,3.78,0,0,1,.542,2.033V46h-1.9V38.913a2.5,2.5,0,0,0-.694-1.853,2.5,2.5,0,0,0-1.852-.694A3.354,3.354,0,0,0-26.5,36.8a2.3,2.3,0,0,0-1.036,1.178,5.241,5.241,0,0,1,1.264.342,3.648,3.648,0,0,1,.959.551v.456a2.19,2.19,0,0,0-1.092.731,1.913,1.913,0,0,0-.389,1.207V46h-1.9Zm20.653-6.289v8.531A2.154,2.154,0,0,1-9.139,45.5a5.593,5.593,0,0,1-3.012.694,5.593,5.593,0,0,1-3.012-.694,2.154,2.154,0,0,1-1.093-1.91V38.761a1.381,1.381,0,0,1-.4.057,1.911,1.911,0,0,1-1.425-.561,1.96,1.96,0,0,1-.551-1.435,1.855,1.855,0,0,1,.58-1.406,2.1,2.1,0,0,1,1.51-.551,2.166,2.166,0,0,1,1.558.58,1.969,1.969,0,0,1,.608,1.492v6.422a1.1,1.1,0,0,0,.589.969,3.126,3.126,0,0,0,1.634.361,3.082,3.082,0,0,0,1.615-.361,1.1,1.1,0,0,0,.589-.969v-8.3Zm-8.607,2.66a.842.842,0,0,0,.637-.247.868.868,0,0,0,.237-.627.868.868,0,0,0-.237-.627.842.842,0,0,0-.637-.247.85.85,0,0,0-.627.247.85.85,0,0,0-.247.627.85.85,0,0,0,.247.627A.85.85,0,0,0-16.653,37.716Zm13.7-1.349a1.234,1.234,0,0,0-.8.276,1.042,1.042,0,0,0-.38.769,11.975,11.975,0,0,1,3.648.912Q.96,38.989.96,39.977V44.1a1.992,1.992,0,0,1-.608,1.511,2.166,2.166,0,0,1-1.558.579,2.1,2.1,0,0,1-1.51-.551A1.855,1.855,0,0,1-3.3,44.233a1.972,1.972,0,0,1,.541-1.444,1.9,1.9,0,0,1,1.415-.551,1.517,1.517,0,0,1,.4.057V40.243q0-.551-1.463-.988a21.483,21.483,0,0,0-3.724-.684,4.381,4.381,0,0,1,.789-2.736,2.537,2.537,0,0,1,2.1-.969,4.51,4.51,0,0,1,.941.1q.447.1,1.054.285.1.019.456.123a2.259,2.259,0,0,0,.608.1.665.665,0,0,0,.456-.19.965.965,0,0,0,.285-.494l1.368.4a2.965,2.965,0,0,1-.722,1.34,1.527,1.527,0,0,1-1.1.465A2.907,2.907,0,0,1-.57,36.9q-.39-.1-.788-.209-.418-.114-.855-.218A3.277,3.277,0,0,0-2.954,36.367Zm1.634,8.721a.85.85,0,0,0,.627-.247.85.85,0,0,0,.247-.627.85.85,0,0,0-.247-.627.85.85,0,0,0-.627-.247.842.842,0,0,0-.637.247.868.868,0,0,0-.237.627.868.868,0,0,0,.237.627A.842.842,0,0,0-1.32,45.088ZM1.492,33.479a15.628,15.628,0,0,0-3.23-.846,22.418,22.418,0,0,0-3.648-.313,12.165,12.165,0,0,0-2,.152,3.438,3.438,0,0,1,1.2-2.612,4.449,4.449,0,0,1,3-.979A4.481,4.481,0,0,1,.1,30.1,5.055,5.055,0,0,1,1.492,33.479ZM-.142,32A3.022,3.022,0,0,0-1.33,30.534a3.381,3.381,0,0,0-1.833-.494A3.245,3.245,0,0,0-4.75,30.4a1.852,1.852,0,0,0-.884.95,10.05,10.05,0,0,1,1.045-.038,15.721,15.721,0,0,1,2.365.181A11.014,11.014,0,0,1-.142,32Zm16.017,7.125A4.734,4.734,0,0,1,13.9,41.231v2.356a2.137,2.137,0,0,1-1.121,1.919,6.073,6.073,0,0,1-3.154.684A6.086,6.086,0,0,1,6.489,45.5a2.133,2.133,0,0,1-1.159-1.91V38.761a1.381,1.381,0,0,1-.4.057,1.911,1.911,0,0,1-1.425-.561,1.96,1.96,0,0,1-.551-1.435,1.855,1.855,0,0,1,.579-1.406,2.1,2.1,0,0,1,1.51-.551,2.166,2.166,0,0,1,1.558.58,1.969,1.969,0,0,1,.608,1.492v6.422a1.085,1.085,0,0,0,.665.969,3.66,3.66,0,0,0,1.748.361,3.643,3.643,0,0,0,1.777-.351,1.082,1.082,0,0,0,.617-.979V41.877a5.245,5.245,0,0,1-.779.057A4.573,4.573,0,0,1,9.5,41.62a2.783,2.783,0,0,1-1.2-.874,2.03,2.03,0,0,1-.428-1.263,1.615,1.615,0,0,1,.475-1.207,1.689,1.689,0,0,1,1.235-.465,1.718,1.718,0,0,1,1.226.437,1.492,1.492,0,0,1,.465,1.14,1.739,1.739,0,0,1-.152.731,1.144,1.144,0,0,1-.418.5,1.85,1.85,0,0,0,.589.095,3.006,3.006,0,0,0,.722-.076V35.056H13.9v4.6a4.2,4.2,0,0,0,1.007-1.33ZM4.931,37.716a.842.842,0,0,0,.637-.247.946.946,0,0,0,0-1.254.842.842,0,0,0-.637-.247.874.874,0,1,0,0,1.748Zm4.636,2.489A.7.7,0,0,0,10.08,40a.721.721,0,0,0,.209-.532.685.685,0,0,0-.722-.722.715.715,0,0,0-.513.2.689.689,0,0,0-.209.522A.721.721,0,0,0,9.054,40,.7.7,0,0,0,9.567,40.205ZM16.73,28.482a4.668,4.668,0,0,1-.636,2.46,4.283,4.283,0,0,1-1.748,1.625,5.437,5.437,0,0,1-2.517.57A5.487,5.487,0,0,1,9.833,32.8a3.006,3.006,0,0,1-1.311-.912,2.078,2.078,0,0,1-.456-1.32,1.787,1.787,0,0,1,.551-1.358,1.961,1.961,0,0,1,1.406-.523,1.928,1.928,0,0,1,1.4.523,2.026,2.026,0,0,1,.028,2.726,1.878,1.878,0,0,0,.323.019,3.176,3.176,0,0,0,2.47-.979,3.634,3.634,0,0,0,.912-2.5Zm-7.6,2.071a.811.811,0,0,0,.257.608.882.882,0,0,0,.636.247.867.867,0,0,0,.608-1.472.844.844,0,0,0-.608-.238.882.882,0,0,0-.636.247A.811.811,0,0,0,9.13,30.553Zm15.694,4.313q2.166,0,2.166,2.394V46h-1.9V37.279q0-.855-.551-.855a.669.669,0,0,0-.646.513L20.416,46H18.459V38.761a1.381,1.381,0,0,1-.4.057,1.911,1.911,0,0,1-1.425-.561,1.96,1.96,0,0,1-.551-1.435,1.855,1.855,0,0,1,.58-1.406,2.1,2.1,0,0,1,1.51-.551,2.166,2.166,0,0,1,1.558.58,1.969,1.969,0,0,1,.608,1.492v4.788a11.979,11.979,0,0,1-.066,1.283q-.066.618-.085.75l.57-2.28,1.729-4.845A2.337,2.337,0,0,1,24.824,34.866Zm-6.764,2.85a.842.842,0,0,0,.637-.247.946.946,0,0,0,0-1.254.89.89,0,1,0-.637,1.5Zm13.984,4.522a1.879,1.879,0,0,1,1.416.561A1.979,1.979,0,0,1,34,44.233a1.855,1.855,0,0,1-.579,1.406,2.1,2.1,0,0,1-1.511.551,2.133,2.133,0,0,1-1.549-.579,2.008,2.008,0,0,1-.6-1.511V35.056h1.881v7.239A1.517,1.517,0,0,1,32.044,42.238Zm-.019,2.85a.842.842,0,0,0,.636-.247.946.946,0,0,0,0-1.254.89.89,0,1,0-.636,1.5Zm5.263-2.85A1.879,1.879,0,0,1,38.7,42.8a1.979,1.979,0,0,1,.542,1.435,1.855,1.855,0,0,1-.579,1.406,2.1,2.1,0,0,1-1.511.551,2.133,2.133,0,0,1-1.549-.579,2.008,2.008,0,0,1-.6-1.511V35.056h1.881v7.239A1.517,1.517,0,0,1,37.288,42.238Zm-.019,2.85a.842.842,0,0,0,.637-.247.946.946,0,0,0,0-1.254.89.89,0,1,0-.637,1.5Zm7.752-10.222a6.185,6.185,0,0,1,2.337.409,3.447,3.447,0,0,1,1.549,1.159,2.894,2.894,0,0,1,.542,1.738v5.263a2.306,2.306,0,0,1-1.083,2.033,5.368,5.368,0,0,1-3,.722,5.218,5.218,0,0,1-2.983-.731,2.323,2.323,0,0,1-1.064-2.023v-2.85A1.97,1.97,0,0,1,41.9,39.1a2.12,2.12,0,0,1,1.539-.57,2.089,2.089,0,0,1,1.5.542,1.863,1.863,0,0,1,.57,1.416,1.855,1.855,0,0,1-1.938,1.938,2.467,2.467,0,0,1-.4-.038V43.3a1.136,1.136,0,0,0,.6,1.026,3.179,3.179,0,0,0,1.643.361,2.749,2.749,0,0,0,1.6-.389,1.261,1.261,0,0,0,.551-1.092v-5a1.57,1.57,0,0,0-.7-1.34,3.167,3.167,0,0,0-1.881-.5,3.681,3.681,0,0,0-1.919.465,1.84,1.84,0,0,0-.931,1.264H40.309a3.064,3.064,0,0,1,1.425-2.356A5.745,5.745,0,0,1,45.021,34.866Zm-1.463,4.75a.868.868,0,0,0-.627.237.818.818,0,0,0-.247.618.874.874,0,1,0,1.748,0,.818.818,0,0,0-.247-.618A.868.868,0,0,0,43.558,39.616Zm17.67-4.56V46H59.5a10.251,10.251,0,0,0-1.72-1.207,9.654,9.654,0,0,0-1.8-.807v.076a1.993,1.993,0,0,1-.646,1.529,2.285,2.285,0,0,1-1.615.6,2.139,2.139,0,0,1-1.567-.589,2.04,2.04,0,0,1-.6-1.52,1.969,1.969,0,0,1,.608-1.492,2.244,2.244,0,0,1,1.615-.579h.038V38.761a1.381,1.381,0,0,1-.4.057,1.887,1.887,0,0,1-1.406-.561,1.96,1.96,0,0,1-.551-1.435,1.855,1.855,0,0,1,.579-1.406,2.1,2.1,0,0,1,1.511-.551,2.166,2.166,0,0,1,1.558.58,1.969,1.969,0,0,1,.608,1.492v5.358a15.473,15.473,0,0,1,1.976.789,12.091,12.091,0,0,1,1.653.94V35.056Zm-8.664,1.786a.845.845,0,0,0,.874.874.882.882,0,0,0,.637-.247.895.895,0,0,0,0-1.254.882.882,0,0,0-.637-.247.845.845,0,0,0-.874.874Zm1.083,8.17a.912.912,0,0,0,.674-.257.888.888,0,0,0,.257-.656.864.864,0,0,0-.257-.636.912.912,0,0,0-.674-.257.876.876,0,0,0-.893.893.888.888,0,0,0,.257.656A.864.864,0,0,0,53.647,45.012Zm12.635-2.774A1.879,1.879,0,0,1,67.7,42.8a1.979,1.979,0,0,1,.541,1.435,1.855,1.855,0,0,1-.579,1.406,2.1,2.1,0,0,1-1.51.551,2.133,2.133,0,0,1-1.549-.579A2.008,2.008,0,0,1,64,44.1V35.056h1.881v7.239A1.517,1.517,0,0,1,66.282,42.238Zm-.019,2.85a.842.842,0,0,0,.636-.247.946.946,0,0,0,0-1.254.89.89,0,1,0-.636,1.5Zm6.821-10.222a4.413,4.413,0,0,1,2.926.893,3.029,3.029,0,0,1,1.064,2.451V44.1a1.992,1.992,0,0,1-.608,1.511,2.166,2.166,0,0,1-1.558.579,2.1,2.1,0,0,1-1.51-.551,1.855,1.855,0,0,1-.579-1.406,1.953,1.953,0,0,1,.551-1.444,1.928,1.928,0,0,1,1.425-.551,1.381,1.381,0,0,1,.4.057V38.362a1.921,1.921,0,0,0-.561-1.463,2.214,2.214,0,0,0-1.587-.532,2.342,2.342,0,0,0-1.549.513,2.153,2.153,0,0,0-.75,1.387H68.866a3.419,3.419,0,0,1,1.264-2.489A4.56,4.56,0,0,1,73.084,34.866Zm1.71,10.222a.874.874,0,0,0,.646-.247.919.919,0,0,0,0-1.254.874.874,0,0,0-.646-.247.874.874,0,1,0,0,1.748ZM88.056,35.056V43.34a2.384,2.384,0,0,1-1.14,2.09,6.748,6.748,0,0,1-6.222,0,2.379,2.379,0,0,1-1.149-2.09v-1.2a2.047,2.047,0,0,1,.3-1.111,2.069,2.069,0,0,1,.931-.77,2.188,2.188,0,0,1-1.064-1.045,3.6,3.6,0,0,1-.342-1.6,2.9,2.9,0,0,1,.665-2.014,2.326,2.326,0,0,1,1.824-.741,2.063,2.063,0,0,1,1.444.485,1.9,1.9,0,0,1,.038,2.594,1.865,1.865,0,0,1-1.349.475,1.769,1.769,0,0,1-.836-.19,1.521,1.521,0,0,0,.418.969,1.19,1.19,0,0,0,.874.361h1.862V41H82.432a.939.939,0,0,0-.732.3,1.17,1.17,0,0,0-.275.817v1.064a1.239,1.239,0,0,0,.636,1.1,3.256,3.256,0,0,0,1.739.4,3.2,3.2,0,0,0,1.729-.4,1.243,1.243,0,0,0,.627-1.1V35.056Zm-6.1.76a.83.83,0,0,0-.6.228.853.853,0,0,0,1.206,1.207.832.832,0,0,0-.608-1.434Zm7.429-8.36a1.61,1.61,0,0,1-.494,1.273,4.845,4.845,0,0,1-1.6.817l-.874.285a1.641,1.641,0,0,1,.665,1.368,1.666,1.666,0,0,1-.513,1.254,1.788,1.788,0,0,1-1.292.494,1.712,1.712,0,0,1-1.292-.513A1.838,1.838,0,0,1,83.5,31.1a1.735,1.735,0,0,1,.456-1.254,2.745,2.745,0,0,1,.922-.665q.465-.19,1.644-.57a4.426,4.426,0,0,0,1.045-.456.829.829,0,0,0,.361-.7Zm-4.028,4.522a.666.666,0,0,0,.5-.209.809.809,0,0,0,0-1.064.666.666,0,0,0-.5-.209.689.689,0,0,0-.523.209.809.809,0,0,0,0,1.064A.689.689,0,0,0,85.358,31.978Zm7.752,10.26a1.879,1.879,0,0,1,1.416.561,1.979,1.979,0,0,1,.541,1.435,1.855,1.855,0,0,1-.579,1.406,2.1,2.1,0,0,1-1.51.551,2.133,2.133,0,0,1-1.549-.579,2.008,2.008,0,0,1-.6-1.511V35.056h1.881v7.239A1.517,1.517,0,0,1,93.11,42.238Zm-.019,2.85a.842.842,0,0,0,.636-.247.946.946,0,0,0,0-1.254.89.89,0,1,0-.636,1.5Zm11.4-10.222q2.166,0,2.166,2.394V46h-1.9V37.279q0-.855-.551-.855a.669.669,0,0,0-.646.513L100.083,46H98.126V38.761a1.381,1.381,0,0,1-.4.057,1.911,1.911,0,0,1-1.425-.561,1.96,1.96,0,0,1-.551-1.435,1.855,1.855,0,0,1,.58-1.406,2.1,2.1,0,0,1,1.51-.551,2.166,2.166,0,0,1,1.558.58,1.969,1.969,0,0,1,.608,1.492v4.788a11.978,11.978,0,0,1-.066,1.283q-.067.618-.086.75l.57-2.28,1.729-4.845A2.337,2.337,0,0,1,104.491,34.866Zm-6.764,2.85a.842.842,0,0,0,.636-.247.946.946,0,0,0,0-1.254.89.89,0,1,0-.636,1.5Zm6.954-8.873h1.748v4.1h-1.748Zm9.462,9.177a1.539,1.539,0,0,0-.494-1.216,2.319,2.319,0,0,0-2.822.085,1.875,1.875,0,0,0-.541,1.416h-1.824a3.206,3.206,0,0,1,1.026-2.527,4.053,4.053,0,0,1,2.793-.912,4.211,4.211,0,0,1,2.745.817,2.762,2.762,0,0,1,1,2.261V46h-1.881ZM127.4,42.371a2.062,2.062,0,0,1,.931.684,1.7,1.7,0,0,1,.342,1.045,1.988,1.988,0,0,1-2.09,2.09,1.981,1.981,0,0,1-1.463-.57,2,2,0,0,1-.57-1.482v-.019a6.713,6.713,0,0,0-1.454.807A5.009,5.009,0,0,0,121.99,46h-1.881V38.761a1.381,1.381,0,0,1-.4.057,1.911,1.911,0,0,1-1.425-.561,1.96,1.96,0,0,1-.551-1.435,1.855,1.855,0,0,1,.58-1.406,2.1,2.1,0,0,1,1.51-.551,2.166,2.166,0,0,1,1.558.58,1.969,1.969,0,0,1,.608,1.492v7.182a3.369,3.369,0,0,1,.779-.618,13.021,13.021,0,0,1,1.292-.674,10.9,10.9,0,0,0,1.358-.76,2.136,2.136,0,0,0,.656-.656,1.645,1.645,0,0,0,.19-.826V35.056h1.881V40.6a2.77,2.77,0,0,1-.19,1.055A1.54,1.54,0,0,1,127.4,42.371Zm-7.695-4.655a.842.842,0,0,0,.636-.247.946.946,0,0,0,0-1.254.89.89,0,1,0-.636,1.5Zm6.878,7.372a.874.874,0,0,0,.646-.247.919.919,0,0,0,0-1.254.874.874,0,0,0-.646-.247.818.818,0,0,0-.618.247.946.946,0,0,0,0,1.254A.818.818,0,0,0,126.588,45.088Zm4.389-16.606a4.668,4.668,0,0,1-.636,2.46,4.283,4.283,0,0,1-1.748,1.625,5.975,5.975,0,0,1-4.513.237,3.005,3.005,0,0,1-1.311-.912,2.078,2.078,0,0,1-.456-1.32,1.787,1.787,0,0,1,.551-1.358,1.961,1.961,0,0,1,1.406-.523,1.928,1.928,0,0,1,1.4.523,2.026,2.026,0,0,1,.028,2.726,1.878,1.878,0,0,0,.323.019,3.176,3.176,0,0,0,2.47-.979,3.634,3.634,0,0,0,.912-2.5Zm-7.6,2.071a.811.811,0,0,0,.257.608.882.882,0,0,0,.636.247.867.867,0,0,0,.608-1.472.844.844,0,0,0-.608-.238.882.882,0,0,0-.636.247A.811.811,0,0,0,123.377,30.553Zm6.84-8.265a4.592,4.592,0,0,1-.96,2.375,5.264,5.264,0,0,1-2.128,1.587,7.39,7.39,0,0,1-2.917.56H123.4v-.76a3.791,3.791,0,0,0,1.539-1.1h-.171a1.393,1.393,0,0,1-1.045-.389,1.419,1.419,0,0,1-.38-1.035,1.356,1.356,0,0,1,.437-1.035,1.55,1.55,0,0,1,1.1-.409,1.569,1.569,0,0,1,1.131.427,1.493,1.493,0,0,1,.447,1.13,2.779,2.779,0,0,1-.238,1.064,2.963,2.963,0,0,1-.636.969,3.8,3.8,0,0,0,2.194-1.206,3.7,3.7,0,0,0,.979-2.176Zm-5.966,1.254a.617.617,0,1,0,.18-.447A.606.606,0,0,0,124.251,23.542Zm15.333,18.829a2.062,2.062,0,0,1,.931.684,1.7,1.7,0,0,1,.342,1.045,1.988,1.988,0,0,1-2.09,2.09,1.981,1.981,0,0,1-1.463-.57,2,2,0,0,1-.57-1.482v-.019a6.713,6.713,0,0,0-1.454.807A5.009,5.009,0,0,0,134.169,46h-1.881V38.761a1.381,1.381,0,0,1-.4.057,1.911,1.911,0,0,1-1.425-.561,1.96,1.96,0,0,1-.551-1.435,1.855,1.855,0,0,1,.579-1.406,2.1,2.1,0,0,1,1.51-.551,2.166,2.166,0,0,1,1.558.58,1.969,1.969,0,0,1,.608,1.492v7.182a3.369,3.369,0,0,1,.779-.618,13.021,13.021,0,0,1,1.292-.674,10.9,10.9,0,0,0,1.359-.76,2.136,2.136,0,0,0,.655-.656,1.645,1.645,0,0,0,.19-.826V35.056h1.881V40.6a2.77,2.77,0,0,1-.19,1.055A1.54,1.54,0,0,1,139.583,42.371Zm-7.695-4.655a.842.842,0,0,0,.636-.247.946.946,0,0,0,0-1.254.89.89,0,1,0-.636,1.5Zm6.878,7.372a.874.874,0,0,0,.646-.247.919.919,0,0,0,0-1.254.874.874,0,0,0-.646-.247.818.818,0,0,0-.617.247.946.946,0,0,0,0,1.254A.818.818,0,0,0,138.766,45.088Z" transform="translate(144.359 38.43) rotate(-6.747)" fill="#f93822"/>
        <path id="Path_89150" data-name="Path 89150" d="M-51.172,0a29.46,29.46,0,0,1,1.023-7.271,17.622,17.622,0,0,1,3.289-6.171h-7.194V-15.4h10.032v1.76a16.905,16.905,0,0,0-3.52,6A23.183,23.183,0,0,0-48.752,0Zm25.586-12.672V0h-2a11.869,11.869,0,0,0-1.991-1.4,11.178,11.178,0,0,0-2.079-.935v.088a2.307,2.307,0,0,1-.748,1.771,2.646,2.646,0,0,1-1.87.693,2.476,2.476,0,0,1-1.815-.682,2.362,2.362,0,0,1-.693-1.76,2.28,2.28,0,0,1,.7-1.727,2.6,2.6,0,0,1,1.87-.671h.044V-8.382a1.6,1.6,0,0,1-.462.066,2.185,2.185,0,0,1-1.628-.649,2.27,2.27,0,0,1-.638-1.661,2.148,2.148,0,0,1,.671-1.628,2.434,2.434,0,0,1,1.749-.638,2.508,2.508,0,0,1,1.8.671,2.28,2.28,0,0,1,.7,1.727v6.2a17.916,17.916,0,0,1,2.288.913,14,14,0,0,1,1.914,1.089V-12.672ZM-35.618-10.6a.984.984,0,0,0,.286.726.984.984,0,0,0,.726.286,1.021,1.021,0,0,0,.737-.286.965.965,0,0,0,.3-.726.965.965,0,0,0-.3-.726,1.021,1.021,0,0,0-.737-.286.984.984,0,0,0-.726.286A.984.984,0,0,0-35.618-10.6Zm1.254,9.46a1.056,1.056,0,0,0,.781-.3,1.028,1.028,0,0,0,.3-.759,1,1,0,0,0-.3-.737,1.056,1.056,0,0,0-.781-.3,1,1,0,0,0-.737.3,1,1,0,0,0-.3.737,1.028,1.028,0,0,0,.3.759A1,1,0,0,0-34.364-1.144ZM-21.12.22a1.464,1.464,0,0,1-1.111-.451,1.608,1.608,0,0,1-.429-1.155,1.569,1.569,0,0,1,.429-1.144,1.483,1.483,0,0,1,1.111-.44,1.447,1.447,0,0,1,1.1.44A1.593,1.593,0,0,1-19.6-1.386,1.632,1.632,0,0,1-20.02-.231,1.429,1.429,0,0,1-21.12.22Zm9.372-13.112a6.278,6.278,0,0,1,3.96,1.133A3.732,3.732,0,0,1-6.336-8.646V0h-2.2V-8.448a2.457,2.457,0,0,0-.858-1.98,3.53,3.53,0,0,0-2.354-.726,3.85,3.85,0,0,0-2.574.8,2.7,2.7,0,0,0-.946,2.167A8.95,8.95,0,0,0-15.1-6.633q.165.913.209,1.111a5.341,5.341,0,0,1,1.166-2.42,2.546,2.546,0,0,1,1.958-.9,2.288,2.288,0,0,1,1.6.528,1.887,1.887,0,0,1,.583,1.474,1.979,1.979,0,0,1-.561,1.463,2.007,2.007,0,0,1-1.485.561,2.155,2.155,0,0,1-.957-.22,1.623,1.623,0,0,1-.693-.616,5.561,5.561,0,0,0-.693,1.54,6.171,6.171,0,0,0-.275,1.76V0h-2.156V-3.19a10.656,10.656,0,0,0-.418-2.09q-.264-.99-.407-1.683a6.3,6.3,0,0,1-.143-1.265,4.21,4.21,0,0,1,1.507-3.4A6.219,6.219,0,0,1-11.748-12.892Zm.066,5.126a.879.879,0,0,0-.649.253.879.879,0,0,0-.253.649.945.945,0,0,0,.253.682.859.859,0,0,0,.649.264.886.886,0,0,0,.671-.264.945.945,0,0,0,.253-.682.879.879,0,0,0-.253-.649A.907.907,0,0,0-11.682-7.766ZM-1.87.22A1.464,1.464,0,0,1-2.981-.231,1.608,1.608,0,0,1-3.41-1.386,1.569,1.569,0,0,1-2.981-2.53,1.483,1.483,0,0,1-1.87-2.97a1.447,1.447,0,0,1,1.1.44A1.593,1.593,0,0,1-.352-1.386,1.632,1.632,0,0,1-.77-.231,1.429,1.429,0,0,1-1.87.22ZM7.656-1.914a27.586,27.586,0,0,0,3.1-2.662,17.746,17.746,0,0,0,2.651-3.3A6.4,6.4,0,0,0,14.5-11.22,2.455,2.455,0,0,0,13.86-13a2.333,2.333,0,0,0-1.76-.66,4.17,4.17,0,0,0-2.024.528,4.2,4.2,0,0,0-1.54,1.408L7.26-13.112a5.084,5.084,0,0,1,2.013-1.837,6.068,6.068,0,0,1,2.849-.671,5.1,5.1,0,0,1,3.531,1.155,4.054,4.054,0,0,1,1.287,3.179,8.085,8.085,0,0,1-1.727,4.631,29.62,29.62,0,0,1-4.367,4.807h6.732V0H7.656ZM24.332.22a6.559,6.559,0,0,1-2.871-.627A4.883,4.883,0,0,1,19.448-2.09l1.1-1.54a4.779,4.779,0,0,0,1.65,1.4,4.433,4.433,0,0,0,2.046.5,2.921,2.921,0,0,0,2.266-.913,3.557,3.557,0,0,0,.836-2.5A3.548,3.548,0,0,0,26.6-7.524a2.544,2.544,0,0,0-2.046-.88,3,3,0,0,0-1.5.4A2.722,2.722,0,0,0,21.978-6.93h-2L20.7-15.4h8.58v1.958H22.858L22.484-9.35a3.027,3.027,0,0,1,1.166-.638,4.9,4.9,0,0,1,1.518-.242,4.757,4.757,0,0,1,2.442.616,4.115,4.115,0,0,1,1.628,1.76,5.88,5.88,0,0,1,.572,2.662,5.822,5.822,0,0,1-.671,2.849A4.664,4.664,0,0,1,27.225-.451,6,6,0,0,1,24.332.22ZM36.96.22a5.248,5.248,0,0,1-2.8-.737,4.872,4.872,0,0,1-1.848-2.068,6.919,6.919,0,0,1-.649-3.069,9.5,9.5,0,0,1,1.2-4.631,10.605,10.605,0,0,1,3.278-3.641,10.012,10.012,0,0,1,4.565-1.76l.22,1.826A8.91,8.91,0,0,0,37.312-12.2a7.2,7.2,0,0,0-2.354,3,2.418,2.418,0,0,1,.891-.561,3.4,3.4,0,0,1,1.265-.231,5.166,5.166,0,0,1,2.651.649,4.264,4.264,0,0,1,1.694,1.815,5.873,5.873,0,0,1,.583,2.662,5.421,5.421,0,0,1-.627,2.629,4.508,4.508,0,0,1-1.771,1.8A5.348,5.348,0,0,1,36.96.22Zm-.022-1.958a2.523,2.523,0,0,0,2-.858,3.358,3.358,0,0,0,.748-2.288,3.358,3.358,0,0,0-.748-2.288,2.523,2.523,0,0,0-2-.858,2.556,2.556,0,0,0-2.013.858,3.327,3.327,0,0,0-.759,2.288A3.327,3.327,0,0,0,34.925-2.6,2.556,2.556,0,0,0,36.938-1.738ZM50.49-2.552H43.516V-4.444l6.6-10.956h2.772V-4.51h1.694v1.958H52.888V0h-2.4Zm0-1.958v-7.9l-4.752,7.9Z" transform="translate(166.396 162.299) rotate(-6.747)" fill="#f93822"/>
        <path id="Path_89151" data-name="Path 89151" d="M-49.94-8.316a.6.6,0,0,1,.055-.253,2.292,2.292,0,0,1,.121-.231,5.063,5.063,0,0,1,1.606-1.738,3.964,3.964,0,0,1,2.266-.682,8.152,8.152,0,0,1,1.111.066,3.172,3.172,0,0,1,1.045.374q.242-.2.616-.55t.792-.682q.418-.33.814-.583a1.353,1.353,0,0,1,.7-.253,1.133,1.133,0,0,1,.649.22.686.686,0,0,1,.319.594.479.479,0,0,1-.077.3,1.109,1.109,0,0,1-.231.209q-.572.44-1.089.847a11.583,11.583,0,0,0-1.023.913,5.969,5.969,0,0,1,.4,1.573,14.833,14.833,0,0,1,.088,1.617q0,.264-.044.792t-.121,1.177q-.077.649-.176,1.353t-.231,1.32q-.132.616-.275,1.078a1.582,1.582,0,0,1-.3.616.6.6,0,0,1-.44.154A1,1,0,0,1-44.187-.5a3.458,3.458,0,0,1-.528-1.012,9.109,9.109,0,0,1-.341-1.32q-.132-.715-.253-1.32a6.526,6.526,0,0,0-.275-1.012q-.154-.407-.418-.407-.22,0-.451.341a4.976,4.976,0,0,0-.451.869q-.22.528-.418,1.166T-47.7-1.936q-.176.616-.33,1.111a6.8,6.8,0,0,1-.264.737.365.365,0,0,1-.275.209,2.088,2.088,0,0,1-.363.033.8.8,0,0,1-.649-.275,1.008,1.008,0,0,1-.231-.671A11.508,11.508,0,0,1-49.6-2.8a9.351,9.351,0,0,1,.682-2.2,5.631,5.631,0,0,1,1.232-1.771A2.561,2.561,0,0,1-45.848-7.5a1.3,1.3,0,0,1,.8.275,2.665,2.665,0,0,1,.627.682,4.6,4.6,0,0,1,.44.869,4.654,4.654,0,0,1,.242.836q.088-.726.154-1.551a6.877,6.877,0,0,0-.033-1.518,2.67,2.67,0,0,0-.418-1.155,1.131,1.131,0,0,0-1-.462,3.184,3.184,0,0,0-1.628.374,5.036,5.036,0,0,0-1.067.814,10.862,10.862,0,0,0-.726.814.809.809,0,0,1-.6.374.711.711,0,0,1-.66-.4A1.582,1.582,0,0,1-49.94-8.316ZM-39.446-5.17a3.561,3.561,0,0,0,.165-.748q.055-.44.077-.924t.022-.946v-.77a.432.432,0,0,0-.2-.429,3.812,3.812,0,0,0-.451-.187,1.433,1.433,0,0,1-.451-.253.826.826,0,0,1-.2-.649.849.849,0,0,1,.451-.814,2,2,0,0,1,.957-.242,2.474,2.474,0,0,1,1.452.374,1.563,1.563,0,0,1,.528,1.364q0,.55-.011,1.177t-.066,1.265q-.055.638-.132,1.254a9.669,9.669,0,0,1-.209,1.144q.286.33.539.583l.484.484q.231.231.462.484t.5.561q.11-1.012.242-2.013t.264-2.013q.11-.924.165-1.936a7.4,7.4,0,0,1,.341-1.892,1.063,1.063,0,0,1,.308-.5.872.872,0,0,1,.572-.165,1.043,1.043,0,0,1,.715.242.888.888,0,0,1,.275.7q0,.44-.044,1.144t-.132,1.529q-.088.825-.2,1.7t-.242,1.683q-.132.8-.275,1.474t-.275,1.089a3.265,3.265,0,0,1-.451.847.943.943,0,0,1-.8.407,1.138,1.138,0,0,1-.693-.286,6.723,6.723,0,0,1-.726-.671q-.363-.385-.7-.77a4.686,4.686,0,0,0-.627-.605,4.805,4.805,0,0,0-.231.891A4.3,4.3,0,0,1-38.28-.7a1.548,1.548,0,0,1-.462.649A1.473,1.473,0,0,1-39.688.2a1.291,1.291,0,0,1-.8-.242,1.632,1.632,0,0,1-.495-.616,3.208,3.208,0,0,1-.253-.8,4.67,4.67,0,0,1-.077-.825q0-.66.022-1.133a1.957,1.957,0,0,1,.2-.814,1.392,1.392,0,0,1,.55-.561A3.793,3.793,0,0,1-39.446-5.17Zm8.4-4.664q-.22,0-1.056.836a.238.238,0,0,1-.176.066.592.592,0,0,1-.3-.1,1.926,1.926,0,0,1-.319-.242,1.558,1.558,0,0,1-.253-.3.515.515,0,0,1-.1-.264.877.877,0,0,1,.275-.616,2.478,2.478,0,0,1,.66-.484,3.881,3.881,0,0,1,.814-.308,2.984,2.984,0,0,1,.715-.11,2.287,2.287,0,0,1,.66.1,1.882,1.882,0,0,1,.594.3,1.6,1.6,0,0,1,.429.484,1.3,1.3,0,0,1,.165.66,6.24,6.24,0,0,1-.176,1.3q-.176.792-.385,1.683t-.4,1.793a8.751,8.751,0,0,0-.2,1.628,2.675,2.675,0,0,0,.209,1.188.837.837,0,0,0,.836.462,1.858,1.858,0,0,0,.935-.209,1.472,1.472,0,0,0,.561-.561,2.288,2.288,0,0,0,.264-.781,5.707,5.707,0,0,0,.066-.869,3.7,3.7,0,0,0-.209-1.276,8.569,8.569,0,0,0-.451-1.034q-.242-.462-.451-.814a1.232,1.232,0,0,1-.209-.594A2.406,2.406,0,0,1-28.2-8.91a8.364,8.364,0,0,1,.814-1.265,8.054,8.054,0,0,1,1-1.089,1.46,1.46,0,0,1,.869-.462.846.846,0,0,1,.66.3.983.983,0,0,1,.264.671,1.371,1.371,0,0,1-.242.682q-.242.4-.561.825t-.649.836a6.867,6.867,0,0,0-.506.693,3.747,3.747,0,0,1,.528.748,7.593,7.593,0,0,1,.429.924,6.046,6.046,0,0,1,.286.968,4.517,4.517,0,0,1,.1.9,6.427,6.427,0,0,1-.22,1.7,3.75,3.75,0,0,1-.7,1.4,3.463,3.463,0,0,1-1.232.946,4.21,4.21,0,0,1-1.8.352,3.169,3.169,0,0,1-1.782-.429,2.376,2.376,0,0,1-.913-1.144,4.477,4.477,0,0,1-.275-1.617,10.558,10.558,0,0,1,.165-1.837q.165-.935.4-1.837t.418-1.617q.187-.715.253-1.144T-31.042-9.834Zm6.776.99a3.289,3.289,0,0,1,.4-.847,3.961,3.961,0,0,1,.616-.737,3,3,0,0,1,.77-.528,1.9,1.9,0,0,1,.814-.2,1.972,1.972,0,0,1,1.584.616A3.072,3.072,0,0,1-19.448-8.8a9.605,9.605,0,0,1,.055,1.32q-.011.814-.088,1.749t-.209,1.892q-.132.957-.3,1.771A10.421,10.421,0,0,1-20.35-.693,1.329,1.329,0,0,1-20.768,0a.583.583,0,0,1-.286.088,1.073,1.073,0,0,1-.759-.363A1.257,1.257,0,0,1-22.132-1.3q.022-.308.154-1.023t.286-1.617q.154-.9.3-1.87t.187-1.771a5.6,5.6,0,0,0-.055-1.32q-.1-.517-.407-.517a.582.582,0,0,0-.429.242q-.209.242-.418.539a6.81,6.81,0,0,1-.429.55.621.621,0,0,1-.462.253.678.678,0,0,1-.33-.1,1.137,1.137,0,0,1-.308-.253,1.1,1.1,0,0,1-.2-.33A.518.518,0,0,1-24.266-8.844Zm5.522,2.662a4.486,4.486,0,0,1,.473-2.013,6.32,6.32,0,0,1,1.2-1.683l.264-.264q.154-.154.319-.3a1.879,1.879,0,0,1,.352-.242.74.74,0,0,1,.341-.1,1.128,1.128,0,0,1,.671.253.756.756,0,0,1,.341.627,1.427,1.427,0,0,1-.308.715q-.308.451-.682.946t-.682.979a1.618,1.618,0,0,0-.308.814,1.822,1.822,0,0,0,.044.2l.11.066a1.207,1.207,0,0,0,.473-.275q.275-.231.572-.495a6.7,6.7,0,0,1,.594-.473.988.988,0,0,1,.561-.209,1.01,1.01,0,0,1,.715.341,1.01,1.01,0,0,1,.341.715,1.7,1.7,0,0,1-.275.726q-.275.484-.616,1.067A13.038,13.038,0,0,0-14.861-3.6a2.673,2.673,0,0,0-.275,1.089.65.65,0,0,0,.187.528.868.868,0,0,0,.561.154,1.293,1.293,0,0,0,1.067-.517,3.815,3.815,0,0,0,.638-1.331,11.119,11.119,0,0,0,.341-1.8q.11-.99.187-1.925t.176-1.7a3.794,3.794,0,0,1,.3-1.166,1.009,1.009,0,0,1,.429-.429,1.246,1.246,0,0,1,.583-.143.591.591,0,0,1,.55.253,1.142,1.142,0,0,1,.154.605q0,.66-.055,1.672t-.22,2.156a22.311,22.311,0,0,1-.451,2.277,9.723,9.723,0,0,1-.759,2.057,4.734,4.734,0,0,1-1.155,1.5,2.421,2.421,0,0,1-1.606.572,3.552,3.552,0,0,1-1.771-.374,2.015,2.015,0,0,1-.9-1,2.768,2.768,0,0,1-.143-1.43A6.013,6.013,0,0,1-16.544-4.2a2.732,2.732,0,0,1-1.54-.539A1.69,1.69,0,0,1-18.744-6.182Zm16.214-4.95a1.261,1.261,0,0,1,.528.11,1.039,1.039,0,0,1,.385.286.6.6,0,0,1,.143.385.512.512,0,0,1-.2.385,2.966,2.966,0,0,1-.7.352,8.208,8.208,0,0,0-1.111.55,3.713,3.713,0,0,0-.968.814,1.35,1.35,0,0,0-.3,1.144q.044.264.528.561t1.056.682a8.174,8.174,0,0,1,1.089.88,2.033,2.033,0,0,1,.627,1.155,1.844,1.844,0,0,1-.264,1.364A4.383,4.383,0,0,1-2.761-1.353,7.852,7.852,0,0,1-4.18-.5q-.77.363-1.408.605a.572.572,0,0,1-.176.022.063.063,0,0,1-.044.022.67.67,0,0,1-.473-.2,1.114,1.114,0,0,1-.3-.462.935.935,0,0,1-.011-.55.858.858,0,0,1,.363-.484A6.329,6.329,0,0,1-5.4-1.991a7,7,0,0,0,.924-.517,2.679,2.679,0,0,0,.7-.671,1.177,1.177,0,0,0,.187-.913.837.837,0,0,0-.528-.55q-.462-.22-1.023-.506A5.281,5.281,0,0,1-6.2-5.874a1.987,1.987,0,0,1-.638-1.21A2.339,2.339,0,0,1-6.589-8.6,4.165,4.165,0,0,1-5.533-9.878a5.964,5.964,0,0,1,1.485-.891A4.3,4.3,0,0,1-2.53-11.132Zm-3.5-4.312a.723.723,0,0,1,.517.2.641.641,0,0,1,.209.484.759.759,0,0,1-.077.286,3.433,3.433,0,0,0-.132.352.464.464,0,0,0-.011.3q.044.121.286.121a5.356,5.356,0,0,0,1.089-.154q.693-.154,1.4-.33t1.3-.33a4.028,4.028,0,0,1,.792-.154.958.958,0,0,1,.715.308.94.94,0,0,1,.3.66q0,.176-.33.363a5.8,5.8,0,0,1-.836.374,10.032,10.032,0,0,1-1.155.341q-.649.154-1.265.275t-1.166.187a7.767,7.767,0,0,1-.88.066,3.525,3.525,0,0,1-1.078-.132,1.426,1.426,0,0,1-.594-.341.968.968,0,0,1-.253-.484,2.854,2.854,0,0,1-.055-.561,1.731,1.731,0,0,1,.1-.506,3.365,3.365,0,0,1,.264-.6,1.956,1.956,0,0,1,.4-.506A.7.7,0,0,1-6.028-15.444ZM2.926-11a3.131,3.131,0,0,1,1.9.528A3.34,3.34,0,0,1,5.907-9.141,5.912,5.912,0,0,1,6.38-7.348a17.339,17.339,0,0,1,.11,1.914q0,.308-.011.7t-.033.858q-.022.462-.077.979t-.11,1.012q-.055.5-.1.935t-.088.77q-.044.308-.506.308a1.686,1.686,0,0,1-.44-.066A2.386,2.386,0,0,1,4.686-.1a1.132,1.132,0,0,1-.33-.242.417.417,0,0,1-.132-.275q.022-.462.11-1.221t.154-1.639q.066-.88.077-1.419t.011-.693q0-.484-.044-1.111A4.806,4.806,0,0,0,4.3-7.887a2.543,2.543,0,0,0-.561-.957,1.354,1.354,0,0,0-1.034-.4,2.673,2.673,0,0,0-1.012.187q-.462.187-.462.539v.066q0,.066.143.176a3.367,3.367,0,0,1,.319.286,2.239,2.239,0,0,1,.319.407,1,1,0,0,1,.143.539v.088a18.055,18.055,0,0,1-.429,4.224A16.126,16.126,0,0,1,.88-.044.5.5,0,0,1,.374.264,1.224,1.224,0,0,1-.319.033.7.7,0,0,1-.682-.44V-.682A6.819,6.819,0,0,1-.506-2.057q.176-.825.374-1.815T.143-5.456a7.585,7.585,0,0,0,.077-.88A2.434,2.434,0,0,0,.066-7.26a1.259,1.259,0,0,0-.3-.44q-.187-.176-.385-.352a3.261,3.261,0,0,1-.352-.363.937.937,0,0,1-.2-.451V-9a1.267,1.267,0,0,1,.3-.825,2.431,2.431,0,0,1,.847-.627,5.3,5.3,0,0,1,1.3-.407A8.808,8.808,0,0,1,2.926-11Zm5.082.33a1.955,1.955,0,0,1,.154-.352.325.325,0,0,1,.308-.154,1.154,1.154,0,0,1,.693.253.908.908,0,0,1,.385.649,5.662,5.662,0,0,1-.011.792q-.033.726-.11,1.771T9.251-5.434q-.1,1.232-.187,2.321T8.9-1.254a8.194,8.194,0,0,1-.121.924.889.889,0,0,1-.242.44.734.734,0,0,1-.484.132A.9.9,0,0,1,7.26-.187a2.413,2.413,0,0,1-.374-.891,5.769,5.769,0,0,1-.011-1q.033-.737.132-1.716t.231-2.079q.132-1.1.275-2.079t.275-1.716A8.5,8.5,0,0,1,8.008-10.67Zm3.146-.2a2.271,2.271,0,0,1,.154-.33.347.347,0,0,1,.33-.154,1.14,1.14,0,0,1,.682.242.974.974,0,0,1,.4.66,5.448,5.448,0,0,1-.022.792q-.044.726-.121,1.782T12.386-5.6q-.11,1.221-.2,2.3t-.165,1.848q-.077.77-.1.924a.936.936,0,0,1-.2.429.544.544,0,0,1-.418.143,1.019,1.019,0,0,1-.869-.4,1.883,1.883,0,0,1-.363-.9,8.519,8.519,0,0,1,.022-1q.044-.737.132-1.727t.22-2.1q.132-1.111.253-2.09t.242-1.716A6.636,6.636,0,0,1,11.154-10.868ZM18.04-11a3.129,3.129,0,0,1,1.7.451A3.62,3.62,0,0,1,20.9-9.394a5.256,5.256,0,0,1,.649,1.584,7.5,7.5,0,0,1,.209,1.738,11.48,11.48,0,0,1-.22,2.189,7.2,7.2,0,0,1-.726,2.068,4.448,4.448,0,0,1-1.364,1.54,3.651,3.651,0,0,1-2.156.6,3.4,3.4,0,0,1-2.519-.935,3.4,3.4,0,0,1-.935-2.519,5.343,5.343,0,0,1,.088-.979,3.44,3.44,0,0,1,.308-.913,2,2,0,0,1-.22.154.462.462,0,0,1-.242.066A.31.31,0,0,1,13.5-4.95a1.28,1.28,0,0,1-.154-.352,1.886,1.886,0,0,1-.066-.407q-.011-.209-.011-.319a4.162,4.162,0,0,1,.407-1.76,5.865,5.865,0,0,1,1.089-1.595,5.93,5.93,0,0,1,1.54-1.166A3.7,3.7,0,0,1,18.04-11Zm-.572,3.674a1.594,1.594,0,0,1,.847.209.794.794,0,0,1,.341.737.95.95,0,0,1-.055.3,2.139,2.139,0,0,1-.143.33,1.008,1.008,0,0,1-.209.275.4.4,0,0,1-.275.11,1.562,1.562,0,0,1-.66-.165,1.562,1.562,0,0,0-.66-.165.692.692,0,0,0-.363.1.789.789,0,0,0-.286.363,2.7,2.7,0,0,0-.187.715,8.445,8.445,0,0,0-.066,1.177,3.991,3.991,0,0,0,.066.715,2.135,2.135,0,0,0,.231.66,1.4,1.4,0,0,0,.44.484,1.206,1.206,0,0,0,.693.187,1.635,1.635,0,0,0,1.254-.55,4.4,4.4,0,0,0,.825-1.331A7.694,7.694,0,0,0,19.723-4.8,8.6,8.6,0,0,0,19.866-6.2a7.322,7.322,0,0,0-.077-.979A4.5,4.5,0,0,0,19.5-8.261a2.576,2.576,0,0,0-.561-.869,1.249,1.249,0,0,0-.924-.352,1.628,1.628,0,0,0-.891.275,3.467,3.467,0,0,0-.781.693,6.626,6.626,0,0,0-.627.88q-.275.462-.451.836a8.117,8.117,0,0,1,.935-.33A4.324,4.324,0,0,1,17.468-7.326ZM23.98-5.17a3.561,3.561,0,0,0,.165-.748q.055-.44.077-.924t.022-.946v-.77a.432.432,0,0,0-.2-.429,3.812,3.812,0,0,0-.451-.187,1.433,1.433,0,0,1-.451-.253.826.826,0,0,1-.2-.649.849.849,0,0,1,.451-.814,2,2,0,0,1,.957-.242,2.474,2.474,0,0,1,1.452.374,1.563,1.563,0,0,1,.528,1.364q0,.55-.011,1.177t-.066,1.265q-.055.638-.132,1.254a9.669,9.669,0,0,1-.209,1.144q.286.33.539.583l.484.484q.231.231.462.484t.5.561q.11-1.012.242-2.013T28.4-6.468q.11-.924.165-1.936a7.4,7.4,0,0,1,.341-1.892,1.063,1.063,0,0,1,.308-.5.872.872,0,0,1,.572-.165,1.043,1.043,0,0,1,.715.242.888.888,0,0,1,.275.7q0,.44-.044,1.144T30.6-7.337q-.088.825-.2,1.7t-.242,1.683q-.132.8-.275,1.474t-.275,1.089a3.265,3.265,0,0,1-.451.847.943.943,0,0,1-.8.407,1.138,1.138,0,0,1-.693-.286,6.722,6.722,0,0,1-.726-.671q-.363-.385-.7-.77a4.686,4.686,0,0,0-.627-.605,4.8,4.8,0,0,0-.231.891,4.3,4.3,0,0,1-.231.869,1.548,1.548,0,0,1-.462.649A1.473,1.473,0,0,1,23.738.2a1.291,1.291,0,0,1-.8-.242,1.632,1.632,0,0,1-.5-.616,3.207,3.207,0,0,1-.253-.8,4.671,4.671,0,0,1-.077-.825q0-.66.022-1.133a1.957,1.957,0,0,1,.2-.814,1.392,1.392,0,0,1,.55-.561A3.793,3.793,0,0,1,23.98-5.17Zm8.294-5.588a2.157,2.157,0,0,1,.176-.385.408.408,0,0,1,.374-.143,1.055,1.055,0,0,1,.616.22.9.9,0,0,1,.374.594v.088q0,.176-.044.8T33.638-7.9q-.088,1.056-.187,2.277t-.209,2.31q-.11,1.089-.187,1.87a8.291,8.291,0,0,1-.121.935,1.053,1.053,0,0,1-.242.462.661.661,0,0,1-.484.154.964.964,0,0,1-.792-.352,1.651,1.651,0,0,1-.352-.836V-1.3q0-.264.033-.88T31.24-3.8q.11-1,.253-2.112t.286-2.112q.143-1,.275-1.749A7.232,7.232,0,0,1,32.274-10.758Zm2.662,9.526a3.178,3.178,0,0,0,1.441-.385,3.811,3.811,0,0,0,1.177-1,5.113,5.113,0,0,0,.814-1.54,7.111,7.111,0,0,0,.352-2.024,7.736,7.736,0,0,0-.044-1.485,2.824,2.824,0,0,0-.275-.924,1.191,1.191,0,0,0-.44-.484,1.039,1.039,0,0,0-.517-.143,1.6,1.6,0,0,0-.506.088,3.1,3.1,0,0,0-.506.22q-.242.132-.462.264T35.6-8.4a.322.322,0,0,1-.2.066.811.811,0,0,1-.341-.088,1.163,1.163,0,0,1-.33-.231,1.6,1.6,0,0,1-.242-.308.592.592,0,0,1-.1-.3,1.2,1.2,0,0,1,.22-.693,1.917,1.917,0,0,1,.6-.55,3.7,3.7,0,0,1,.88-.374,3.667,3.667,0,0,1,1.023-.143,3.841,3.841,0,0,1,1.342.253,3.249,3.249,0,0,1,1.221.814,3.875,3.875,0,0,1,.847,1.485,6.335,6.335,0,0,1,.242,2.288,11,11,0,0,1-.341,2.288,7.178,7.178,0,0,1-.9,2.112A5.049,5.049,0,0,1,37.972-.231a4.116,4.116,0,0,1-2.266.605,1.44,1.44,0,0,1-.913-.253,1.056,1.056,0,0,1-.4-.55.714.714,0,0,1,.066-.55A.5.5,0,0,1,34.936-1.232Zm6.358-4.95a4.486,4.486,0,0,1,.473-2.013,6.32,6.32,0,0,1,1.2-1.683l.264-.264q.154-.154.319-.3a1.879,1.879,0,0,1,.352-.242.74.74,0,0,1,.341-.1,1.128,1.128,0,0,1,.671.253.756.756,0,0,1,.341.627,1.427,1.427,0,0,1-.308.715q-.308.451-.682.946t-.682.979a1.618,1.618,0,0,0-.308.814,1.822,1.822,0,0,0,.044.2l.11.066a1.207,1.207,0,0,0,.473-.275q.275-.231.572-.495a6.7,6.7,0,0,1,.594-.473.988.988,0,0,1,.561-.209,1.01,1.01,0,0,1,.715.341,1.01,1.01,0,0,1,.341.715,1.7,1.7,0,0,1-.275.726q-.275.484-.616,1.067A13.039,13.039,0,0,0,45.177-3.6,2.674,2.674,0,0,0,44.9-2.508a.65.65,0,0,0,.187.528.868.868,0,0,0,.561.154,1.293,1.293,0,0,0,1.067-.517,3.814,3.814,0,0,0,.638-1.331,11.119,11.119,0,0,0,.341-1.8q.11-.99.187-1.925t.176-1.7a3.794,3.794,0,0,1,.3-1.166,1.009,1.009,0,0,1,.429-.429,1.246,1.246,0,0,1,.583-.143.591.591,0,0,1,.55.253,1.142,1.142,0,0,1,.154.605q0,.66-.055,1.672T49.8-6.16a22.311,22.311,0,0,1-.451,2.277,9.723,9.723,0,0,1-.759,2.057,4.734,4.734,0,0,1-1.155,1.5,2.421,2.421,0,0,1-1.606.572,3.552,3.552,0,0,1-1.771-.374,2.015,2.015,0,0,1-.9-1,2.768,2.768,0,0,1-.143-1.43A6.013,6.013,0,0,1,43.494-4.2a2.732,2.732,0,0,1-1.54-.539A1.69,1.69,0,0,1,41.294-6.182Zm7.634-9.2q.242,0,.5.022a1.4,1.4,0,0,1,.451.11.826.826,0,0,1,.33.264.79.79,0,0,1,.132.484.688.688,0,0,1-.022.187.966.966,0,0,1-.066.165q-.066.132-.583.165t-1.122.077a5.37,5.37,0,0,0-1.1.187q-.5.143-.5.495l.1.2a.488.488,0,0,1,.055.22.632.632,0,0,1-.132.363.392.392,0,0,1-.33.187.627.627,0,0,1-.407-.154,1.738,1.738,0,0,1-.33-.363,1.716,1.716,0,0,1-.22-.451,1.464,1.464,0,0,1-.077-.44,1.325,1.325,0,0,1,.341-.979,2.087,2.087,0,0,1,.858-.506,4.4,4.4,0,0,1,1.089-.2Q48.466-15.378,48.928-15.378Z" transform="translate(162.823 131.948) rotate(-6.747)" fill="#f93822"/>
      </g>
    </g>
  </g>
</svg>
