<svg xmlns="http://www.w3.org/2000/svg" xmlns:xlink="http://www.w3.org/1999/xlink" width="520" height="393" viewBox="0 0 520 393">
  <defs>
    <clipPath id="clip-path">
      <rect id="Rectangle_4172" data-name="Rectangle 4172" width="144.286" height="148.995" fill="#f2f2f2"/>
    </clipPath>
    <clipPath id="clip-path-2">
      <path id="Clip_145" data-name="Clip 145" d="M0,0H128.756V137.311H0Z" fill="none"/>
    </clipPath>
  </defs>
  <g id="Group_7958" data-name="Group 7958" transform="translate(-23.729 -397.217)">
    <rect id="Rectangle_3498" data-name="Rectangle 3498" width="520" height="393" rx="8" transform="translate(23.729 397.217)" fill="#fff"/>
    <g id="Group_7957" data-name="Group 7957" transform="translate(24 397)">
      <rect id="Rectangle_4123" data-name="Rectangle 4123" width="520" height="393" transform="translate(-0.271 0.217)" fill="#f1f2ff"/>
      <g id="Group_8231" data-name="Group 8231" transform="translate(47.87 53.353)">
        <g id="id-card" transform="translate(0 0)">
          <path id="Path_1" data-name="Path 1" d="M406.21,135.159H17.691A17.042,17.042,0,0,0,0,151.445V405.361a17.042,17.042,0,0,0,17.691,16.286H406.3a17.042,17.042,0,0,0,17.691-16.286V151.445A17.172,17.172,0,0,0,406.21,135.159Z" transform="translate(0 -135.146)" fill="#fafafa"/>
          <rect id="Rectangle_1" data-name="Rectangle 1" width="389.694" height="253.956" transform="translate(17.048 16.327)" fill="#89d6f7"/>
          <rect id="Rectangle_3" data-name="Rectangle 3" width="180.004" height="25.2" transform="translate(204.548 159.225)" fill="#f2f2f2"/>
          <rect id="Rectangle_4" data-name="Rectangle 4" width="345.213" height="25.2" transform="translate(40.525 223.008)" fill="#55bfe9"/>
          <rect id="Rectangle_5" data-name="Rectangle 5" width="180.004" height="25.2" transform="translate(204.548 95.442)" fill="#fff"/>
          <rect id="Rectangle_3494" data-name="Rectangle 3494" width="144.286" height="148.995" transform="translate(40.522 35.433)" fill="#f2f2f2"/>
          <rect id="Rectangle_3495" data-name="Rectangle 3495" width="144.286" height="148.995" transform="translate(40.522 35.433)" fill="#f2f2f2"/>
        </g>
        <g id="Mask_Group_125" data-name="Mask Group 125" transform="translate(40.514 35.455)" clip-path="url(#clip-path)">
          <g id="People" transform="translate(4.801 4.445)">
            <path id="Fill_68" data-name="Fill 68" d="M16.642,8.848a46.718,46.718,0,0,1-6.155,10.135L7,24A40.978,40.978,0,0,1,3.826,28.56,207.7,207.7,0,0,0,9.919.379c.055-.506-.745-.5-.8,0C7.563,14.928,2.055,28.687,0,43.15c-.072.5.684.715.769.212A137.338,137.338,0,0,1,3.508,29.849a.39.39,0,0,0,.233-.1,24.181,24.181,0,0,0,3.518-4.725l3.922-5.642a47.394,47.394,0,0,0,6.23-10.323c.174-.479-.595-.684-.769-.209" transform="translate(34.145 76.729)" fill="#b9bce9"/>
            <path id="Fill_70" data-name="Fill 70" d="M21.1,5.932A31.211,31.211,0,0,0,11.921.9,15.236,15.236,0,0,0,6.97,0C4.887,0,2.494,1.368.514.728a.39.39,0,0,0-.438.581.366.366,0,0,0,.215.585A22.43,22.43,0,0,1,6.7,4.787l6.38,3.638a.4.4,0,0,0,.4-.684L6.426,3.706A27.327,27.327,0,0,0,2.2,1.624c.684-.1,1.347-.318,2.1-.492a12.525,12.525,0,0,1,6.052.116A28.469,28.469,0,0,1,20.52,6.5c.393.321.964-.236.564-.561" transform="translate(54.341 139.787)" fill="#b9bce9"/>
            <path id="Fill_76" data-name="Fill 76" d="M12.055,17.2Q8.827,13.2,5.873,8.98,4.6,7.154,3.384,5.287A13.068,13.068,0,0,1,.806.377c-.062-.5-.862-.506-.8,0A22.119,22.119,0,0,0,4.755,8.768c2.127,3.077,4.38,6.076,6.733,8.993.321.4.882-.164.564-.561" transform="translate(37.323 164.463)" fill="#b9bce9"/>
            <path id="Fill_98" data-name="Fill 98" d="M54.575,82.746a13.739,13.739,0,0,0-.742-5.006,12.778,12.778,0,0,0-2.072-3.833c-1.224-1.549-3.077-2.7-3.83-4.582-.605-1.546.5-3.047.342-4.606-.212-1.98-2.735-3.156-4.1-4.336-1.97-1.727-.246-4.366-.93-6.544a8.89,8.89,0,0,0-.841-1.867,19.254,19.254,0,0,0-1.176-1.751c-.041-.062-.085-.12-.13-.181a7.957,7.957,0,0,0-.564-1.139c1.043-.554,1.8-.971,2.024-1.139A22.82,22.82,0,0,0,49.545,34.3c.188-.954.38-1.973.547-3.04.927-5.912,1.258-13.12-1.443-17.955a33.235,33.235,0,0,0-5.156-6.975,23.186,23.186,0,0,0-7.324-4.366c-12.2-5.416-29.447.7-33.994,14.624A38.959,38.959,0,0,0,0,29.1,30.835,30.835,0,0,0,3.6,40.347a61.471,61.471,0,0,0,7.136,11.865,33.7,33.7,0,0,0,6.394,2.616,20.088,20.088,0,0,0,7.816.684l.267-.051c-.127.653-.256,1.306-.38,1.959a18.731,18.731,0,0,0-.256,6.237,47.394,47.394,0,0,1,.646,6.527c0,2.052-.147,4.124-.253,6.182a47.162,47.162,0,0,0,0,5.991,12.8,12.8,0,0,0,1.279,5.519,3.44,3.44,0,0,0,3.392,1.2l.708-.051c1.987-.147,3.963-.366,5.96-.434a99.651,99.651,0,0,1,14.306.7,2.394,2.394,0,0,0,2.817-1.71,12.836,12.836,0,0,0,1.145-4.855" transform="translate(48.058 0)" fill="#6b3939"/>
            <path id="Fill_100" data-name="Fill 100" d="M28.532,32.51A13.739,13.739,0,0,0,27.79,27.5a25.685,25.685,0,0,0-4.274-2.26c-1.2-.516-2.424-.988-3.624-1.515-.968-.431-2.872-1.163-3.029-2.414-.085-.615.27-1.19.2-1.816a5.276,5.276,0,0,0-.636-1.751,25.125,25.125,0,0,1-1.952-3.57C13.142,9.988,15.843,5.95,16.35,1.754A19.258,19.258,0,0,0,15.173,0a17.856,17.856,0,0,0-3.942,2.455A11.718,11.718,0,0,0,8.338,7.276C6.516,11.769,4.273,16.1,2.3,20.516A18.013,18.013,0,0,0,.364,32.705,15.024,15.024,0,0,0,4.3,38.792c1.987-.147,3.963-.366,5.96-.434a99.654,99.654,0,0,1,14.306.7,2.393,2.393,0,0,0,2.817-1.71,12.836,12.836,0,0,0,1.145-4.855" transform="translate(74.104 50.239)" fill="#452222"/>
            <path id="Fill_102" data-name="Fill 102" d="M0,11.453c.055.851.342,1.026,1.122.725A8.134,8.134,0,0,0,5.567,2.6C5.406,1.825,5.29.218,4.257.013s-1.918,1.422-2.349,2.1c-.147.233.188.509.342.274l.065-.116A14.361,14.361,0,0,1,.872,7.224,11.526,11.526,0,0,0,0,11.453" transform="translate(89.623 33.674)" fill="#fea689"/>
            <path id="Fill_104" data-name="Fill 104" d="M1.975,1.245C3.4-.051,9.053,0,10.793,0c2.92,0,5.847.2,8.764.376A95.874,95.874,0,0,1,39.149,3.214a.619.619,0,0,1,.444.711.462.462,0,0,1,.195.342,114.33,114.33,0,0,1-3.642,31.724A27.033,27.033,0,0,1,25.486,48.1c-4.92,3.31-8.364,2.435-13.065-.263A17.4,17.4,0,0,1,5.7,42.115,28.65,28.65,0,0,1,1,30.288,85.314,85.314,0,0,1,.043,14.9c.092-2.592.294-5.17.574-7.721C.8,5.492.61,2.486,1.975,1.245" transform="translate(53.93 14.371)" fill="#fea689"/>
            <path id="Fill_106" data-name="Fill 106" d="M.042,3.611A7.43,7.43,0,0,1,.165,1.266,2.12,2.12,0,0,1,.715.284c.817-.739,1.679.1,1.826.91.2,1.043,0,3.283-.988,3.741S.155,4.64.042,3.611" transform="translate(82.171 32.541)" fill="#232c44"/>
            <path id="Fill_108" data-name="Fill 108" d="M.041,3.642A7.481,7.481,0,0,1,.168,1.276,2.14,2.14,0,0,1,.722.287c.824-.745,1.672.1,1.84.913.2,1.053,0,3.31-1,3.761S.154,4.667.038,3.628" transform="translate(61.444 32.114)" fill="#232c44"/>
            <path id="Fill_110" data-name="Fill 110" d="M48.312,24.577c-3.419-1.05-9.348-2.636-11.913-5.782a5.628,5.628,0,0,1-1.368-3.153c-.256-1.658-.051-9.037-.051-9.082a13.722,13.722,0,0,1,.161-3.566.451.451,0,0,0,0-.277c0-.041,0-.089,0-.133a.422.422,0,0,0-.81-.188C28.579,1.829,20.745.868,15.008,0a.4.4,0,0,0-.455.342L13.261.235A.427.427,0,0,0,12.792.6a37.705,37.705,0,0,0-.253,4.818,51.761,51.761,0,0,1-.233,6.093,11.427,11.427,0,0,1-.684,2.735,10.114,10.114,0,0,1-5.847,5.744c-1.607.684-4.479.663-5.734,1.829-.376.342,1.98,2.759,2.134,3.385.188.766,1.429,1.149,2.034,1.477,1.2.656,14.361,23.528,18.184,23.562,1.494,0,20.146-21.835,22.1-24.619.14-.2,4.1-.978,3.823-1.06" transform="translate(49.038 53.461)" fill="#fea689"/>
            <path id="Fill_112" data-name="Fill 112" d="M.011,1.74,4.774,0A16.939,16.939,0,0,0,8.843,7.088,8.853,8.853,0,0,1,13.664,12.7c1.409,3.727,3.761,5.043,4.531,7.864S19.5,26.253,19.5,26.253a18.146,18.146,0,0,1,2.975-7.447,22.6,22.6,0,0,0,4.89-6.155c1.108-2.123,5.129-3.621,6.326-4.937a28.893,28.893,0,0,0,2.992-5.32L40.02,3.9l.342,3.58S20.848,30.486,20.328,30.7.045,9.037.011,8.36s0-6.62,0-6.62" transform="translate(52.017 72.4)" fill="#fff"/>
            <path id="Fill_114" data-name="Fill 114" d="M.29.629A5.888,5.888,0,0,0,3.419,3.036a8.384,8.384,0,0,0,8.268-1.279c.1-.089.749-.974.749-.974S.489,0,.123,0C-.124,0,.037.27.29.629" transform="translate(66.652 49.176)" fill="#fff"/>
            <path id="Fill_116" data-name="Fill 116" d="M17.8,6.562c-1.289,1.881-1.758,2.24-4.626,2.657s-2.178,2.8-5.611,2.1S5.081,9.765,1.822,9.365A7.734,7.734,0,0,1,0,8.917,11.427,11.427,0,0,0,.684,6.182,51.682,51.682,0,0,0,.92.092.2.2,0,0,0,.92,0S8.442,5.991,11.776,5.772a36.138,36.138,0,0,0,8.5-3.351c.708,0-1.19,2.264-2.479,4.144" transform="translate(60.661 58.788)" fill="#f2815c"/>
            <path id="Fill_118" data-name="Fill 118" d="M3.166,11.624C2.14,10.913.9,10.2.888,8.724a13.421,13.421,0,0,1,.752-2.766A28.154,28.154,0,0,0,2.427.487C2.458-.08,1.593-.19,1.562.364a28.346,28.346,0,0,1-.527,4.271A38.131,38.131,0,0,0,.01,8.6c-.168,1.819,1.248,2.735,2.612,3.689.458.321.988-.366.53-.684" transform="translate(70.643 34.201)" fill="#f2815c"/>
            <path id="Fill_4" data-name="Fill 4" d="M6.156.708a7.988,7.988,0,0,0-1.84.058,6.592,6.592,0,0,0-1.71.5A4.787,4.787,0,0,0,1.1,2.288,5.262,5.262,0,0,0,0,4.076,3.97,3.97,0,0,1,2.353.349,4.1,4.1,0,0,1,4.309.007,3.351,3.351,0,0,1,6.162.691" transform="translate(57.966 27.361)" fill="#2c2c2c"/>
            <path id="Fill_4-2" data-name="Fill 4" d="M0,.715A7.988,7.988,0,0,1,1.84.77a6.589,6.589,0,0,1,1.71.5A4.766,4.766,0,0,1,5.057,2.291,5.255,5.255,0,0,1,6.151,4.073a3.949,3.949,0,0,0-.68-2.311A3.98,3.98,0,0,0,3.809.352,4.1,4.1,0,0,0,1.853.01,3.354,3.354,0,0,0,0,.715" transform="translate(80.671 27.197) rotate(3)" fill="#2c2c2c"/>
            <path id="Fill_124" data-name="Fill 124" d="M4.919,7.3a14.361,14.361,0,0,1-1.313-5l.068.12c.144.239.486-.031.342-.267-.41-.684-1.265-2.3-2.287-2.151S.529,1.785.331,2.551a8.206,8.206,0,0,0,4.2,9.7c.762.325,1.063.154,1.142-.684a11.523,11.523,0,0,0-.749-4.254" transform="translate(50.941 31.146)" fill="#fea689"/>
            <path id="Fill_126" data-name="Fill 126" d="M49.33,23.889a6.038,6.038,0,0,1-.684-2.414,9.01,9.01,0,0,1,.619-2.735,7.83,7.83,0,0,0,.605-3.761,7.15,7.15,0,0,0-4.466-4.9,2.52,2.52,0,0,1,.027-.451.215.215,0,0,0-.085-.2A45.216,45.216,0,0,0,33.9,3.51a24.759,24.759,0,0,0-6.226-.91,9.793,9.793,0,0,1-3.334-.551A28.757,28.757,0,0,1,21.8.58,6.839,6.839,0,0,0,16.574.46a16.8,16.8,0,0,1-2.855.6c-1.084.1-2.175,0-3.255.133A9.6,9.6,0,0,0,5.872,3.418a7.734,7.734,0,0,0-3.235,4C1.262,12.479,1.857,17.847.076,22.836c-.085.239-.13,2.052.038,1.874A8.647,8.647,0,0,1,2.941,23.1c.557-.181.848-1.409,1.31-1.768A5.666,5.666,0,0,0,6.025,18.74a2.486,2.486,0,0,1,1.819-1.689,3.211,3.211,0,0,0,1.128-.663,9.427,9.427,0,0,0,1.682-2.766,6.322,6.322,0,0,1,3.187-2.947A20.222,20.222,0,0,0,17.1,9.033a6.021,6.021,0,0,0,.845-.739,6.309,6.309,0,0,0,.848,1.292c2.277,2.664,6.3,2.872,9.17,4.647,1.556.964.776,2.869,1.857,4.168a6.469,6.469,0,0,0,3.259,1.781c1.935.568,3.812,1.159,4.394,3.306a12.583,12.583,0,0,0,1.286,4.151,7.225,7.225,0,0,0,1.638,1.679,8.169,8.169,0,0,0,.91.506,9.9,9.9,0,0,0,2.869,4.23c1.569,1.269,4.609.91,4.178-1.628a9.061,9.061,0,0,1-.4-2.691,7,7,0,0,1,1.2-2.7,3.214,3.214,0,0,0,.188-3.149" transform="translate(51.025 8.727)" fill="#6b3939"/>
            <path id="Fill_128" data-name="Fill 128" d="M1.823,7.274c-1.9-.38.219-2.315.219-3.033A10.152,10.152,0,0,0,1.7,2.511,19.782,19.782,0,0,1,1.409.343C1.358-.194.5-.067.548.483c.065.721.147,1.44.274,2.154.072.4.451,1.255.342,1.593-.191.595-.92.851-1.1,1.528A1.915,1.915,0,0,0,1.7,8.129c.551.109.653-.745.106-.855" transform="translate(52.738 32.492)" fill="#f2815c"/>
            <path id="Fill_130" data-name="Fill 130" d="M.937.147C.561-.26-.129.266.254.683A1.71,1.71,0,0,1,.093,3a.431.431,0,0,0,.684.523A2.558,2.558,0,0,0,.937.147" transform="translate(91.482 39.678)" fill="#f2815c"/>
            <path id="Fill_132" data-name="Fill 132" d="M2.553,10.642A4.835,4.835,0,0,1,2.194,6.6a4.985,4.985,0,0,0,.544-1.631C2.792,3.335.614,1.912.945.463,1.069-.078.2-.18.08.343A2.27,2.27,0,0,0,.392,2.22c.862,1.5,1.758,1.867,1.115,3.84A5.659,5.659,0,0,0,.881,8.166a7.228,7.228,0,0,0,.875,2.814c.236.5,1.026.164.8-.342" transform="translate(66.664 4.492)" fill="#452222"/>
            <path id="Fill_134" data-name="Fill 134" d="M21.134,7.709a7.728,7.728,0,0,0-3.4-3.4c-1.87-1.193-3.412-.838-5.43-1.337C10.189,2.453,8.818.706,6.626.237A12.275,12.275,0,0,0,.266.661c-.533.171-.185.961.342.793a10.706,10.706,0,0,1,6.6-.147c1.593.52,2.6,1.819,4.144,2.342,1.419.482,2.988.12,4.418.605a8.353,8.353,0,0,1,4.568,3.8c.2.52,1,.178.8-.342" transform="translate(76.308 10.851)" fill="#452222"/>
            <path id="Fill_136" data-name="Fill 136" d="M8.975,6.579A12.426,12.426,0,0,0,.6.02C.072-.137-.264.66.27.817a11.646,11.646,0,0,1,7.905,6.1.435.435,0,0,0,.8-.342" transform="translate(89.787 17.001)" fill="#452222"/>
            <path id="Fill_140" data-name="Fill 140" d="M3.1,0a.342.342,0,0,0-.362.284.321.321,0,0,0,.28.359c.342.123.684,2.147.236,5.758-.441,3.515-1.375,5.491-1.73,5.519C1.166,11.876.342,9.831.772,6.343A18.785,18.785,0,0,1,1.9,1.112L1.432.623A17.377,17.377,0,0,0,.123,6.265c-.4,3.221.215,6.155,1.316,6.3C2.762,12.724,3.607,8.8,3.9,6.484,4.028,5.434,4.605.189,3.1,0" transform="translate(51.522 40.938)" fill="#fad3b1"/>
            <path id="Fill_142" data-name="Fill 142" d="M2.563,0A.342.342,0,0,1,2.85.369a.342.342,0,0,1-.362.28C2.139.687,1.294,2.571.843,6.178c-.438,3.518,0,5.659.325,5.768.342.044,1.662-1.74,2.1-5.228a16.949,16.949,0,0,0-.027-5.546L3.873.567A18.779,18.779,0,0,1,3.914,6.8c-.4,3.221-1.723,5.926-2.828,5.792C-.237,12.429-.1,8.435.193,6.093.344,5.05,1.055-.178,2.563,0" transform="translate(89.45 43.538)" fill="#fad3b1"/>
            <g id="Group_146" data-name="Group 146" transform="translate(0 74.728)">
              <path id="Clip_145-2" data-name="Clip 145" d="M0,0H128.756V137.311H0Z" fill="none"/>
              <g id="Group_146-2" data-name="Group 146" clip-path="url(#clip-path-2)">
                <path id="Fill_144" data-name="Fill 144" d="M102.921,113.442c-.882,6.288-1.915,13.4-2.568,17.137-.28,1.638,8.548.838,8.456.827-.236-.027-11.017,1.368-29.235,2.848l-12.843,1.026-4.753.386c-.472.034-.944.072-1.405.113h-.168l-.865.068-.554.044-1.142.089-4.787.39-11.164.906a5.023,5.023,0,0,1-3.689-1.2l-5.9-5.095a4.927,4.927,0,0,1-1.71-3.341l-.684-8.422a4.975,4.975,0,0,0-4.951-4.537A10.032,10.032,0,0,1,14.978,103.3l1.368-9.694a4.924,4.924,0,0,0-3.488-5.5A16.9,16.9,0,0,1,.018,72.147C-.7,61.78,19.747,12.693,23.279,9.472,27.492,5.625,42.349,1.71,48.9.141A5.019,5.019,0,0,1,54,1.888l13.824,17.4a5.026,5.026,0,0,0,7.608.284c2.424-2.623,5.628-5.97,8.569-8.675A60.74,60.74,0,0,0,90.031,4.23a5.013,5.013,0,0,1,5.337-1.686c7.334,2.147,24.438,7.382,27.046,10.285,3.337,3.713,3.289,12.415,5.56,20s-1.145,46.441-1.132,51.262-13.068,22.379-13.424,25.159C113.285,110.344,103.749,107.629,102.921,113.442Z" transform="translate(-0.001 -0.001)" fill="#c7caf0"/>
              </g>
            </g>
            <path id="Fill_147" data-name="Fill 147" d="M24.711,29.059c-4.445-2.465-9.147-5.669-9.683-11.068a13.677,13.677,0,0,0-.544-3.419c-.571-1.576-1.542-3.05-2.246-4.575A57.855,57.855,0,0,1,8.788.337a.421.421,0,0,0-.831.12q.458,4.052.913,8.111c.263,2.352.838,4.92.9,7.348,1.816,7.286-.342,15.188-2.5,22.27A57.519,57.519,0,0,1,0,56.385a34.374,34.374,0,0,1,10.894-5.149,17.531,17.531,0,0,1,7.994-.195c2.759.633,3.269,4.51,5.895,5.471,1.563.571-2.052-1.518-.595-1.71.65-3.734,1.686-10.849,2.568-17.137-.256-.147.653-.472,1.453-2.393C30.261,31.2,24.1,29.161,24.711,29.059Z" transform="translate(85.215 148.72)" fill="#b9bde9"/>
            <path id="Fill_171" data-name="Fill 171" d="M2.329.168A12.388,12.388,0,0,0,0,6.681c-.034.53.8.636.831.1A11.55,11.55,0,0,1,3,.684C3.307.236,2.644-.27,2.329.168" transform="translate(93.81 140.169)" fill="#b9bce9"/>
            <path id="Fill_173" data-name="Fill 173" d="M6.76.134c-.373-.38-1.026.127-.66.509,3.419,3.5,2.8,10.6,1.894,14.963A18.994,18.994,0,0,1,.172,27.8c-.448.3.072.954.516.653A19.8,19.8,0,0,0,8.826,15.709C9.759,11.1,10.368,3.823,6.774.134" transform="translate(111.215 133.59)" fill="#b9bce9"/>
            <path id="Fill_175" data-name="Fill 175" d="M1.246,88.936a.407.407,0,0,0,.092-.4c-.048-.147-.089-.3-.13-.444s0-.2-.017-.3a.342.342,0,0,0-.133-.253A30.213,30.213,0,0,1,1.8,77.276c.479-3.857.106-7.748.41-11.626A59.177,59.177,0,0,1,5.288,54.292a26.414,26.414,0,0,0,.581-9.208,38.668,38.668,0,0,1-.038-11.054,26.246,26.246,0,0,0,1.58-9.916c-.52-3.6-2.1-7.016-2.465-10.678A29.033,29.033,0,0,1,7.589.571C7.777.069,7-.249,6.809.253a33.386,33.386,0,0,0-2.79,11.66A46.567,46.567,0,0,0,6.16,22.171a15.6,15.6,0,0,1,.421,6.281C6.238,30.343,5.4,32.1,5,33.978A36.357,36.357,0,0,0,4.98,44.526,27.805,27.805,0,0,1,3.588,56.808,33.878,33.878,0,0,0,1.277,67.528,85.6,85.6,0,0,1,.655,79.239a20.9,20.9,0,0,0-.287,8.979,49.624,49.624,0,0,1-.274,9.441.421.421,0,0,0,.831.1,50.735,50.735,0,0,0,.321-8.825" transform="translate(64.431 99.976)" fill="#b9bce9"/>
            <path id="Fill_177" data-name="Fill 177" d="M.826,0A.427.427,0,0,0,.344.369L0,1.712a.421.421,0,0,0,.373.465.431.431,0,0,0,.468-.362L1.185.468A.417.417,0,0,0,.826,0" transform="translate(72.37 100.968)" fill="#b9bce9"/>
            <path id="Fill_179" data-name="Fill 179" d="M.831.341C.8-.189-.027-.065,0,.465S.052,1.49.079,2.01s.855.41.831-.12L.831.341" transform="translate(70.977 114.984)" fill="#b9bce9"/>
            <path id="Fill_173-2" data-name="Fill 173" d="M4.446.106c-.236-.3-.667.1-.424.407C6.2,3.266,5.78,8.866,5.185,12.327A15.828,15.828,0,0,1,.111,21.976c-.287.239.041.752.342.516A16.515,16.515,0,0,0,5.7,12.4C6.317,8.757,6.727,3.009,4.429.092" transform="matrix(0.515, 0.857, -0.857, 0.515, 34.192, 152.122)" fill="#b9bce9"/>
            <path id="Fill_181" data-name="Fill 181" d="M.859,2.275A6.421,6.421,0,0,1,.972.449C1.078-.078.247-.177.141.343A7.2,7.2,0,0,0,.028,2.394c.044.533.875.414.831-.12" transform="translate(71.654 145.629)" fill="#b9bce9"/>
            <path id="Fill_183" data-name="Fill 183" d="M.243.359,0,2.291a.421.421,0,0,0,.831.1L1.077.468A.421.421,0,1,0,.243.359" transform="translate(67.989 163.992)" fill="#b9bce9"/>
            <path id="Fill_185" data-name="Fill 185" d="M1.069,2.312.836.342C.771-.188-.056-.068,0,.465L.238,2.431c.062.53.892.41.831-.12" transform="translate(66.947 184.213)" fill="#b9bce9"/>
            <path id="Fill_187" data-name="Fill 187" d="M12.24,3.807A7,7,0,0,0,8.274,1.575,50.6,50.6,0,0,0,2.051.005c-.523-.092-.626.732-.1.831A49.544,49.544,0,0,1,7.2,2.1a12.918,12.918,0,0,1,3.45,1.32A16.813,16.813,0,0,0,.157,7.48a.419.419,0,0,0,.527.653A15.753,15.753,0,0,1,10.855,4.255a.424.424,0,0,0,.427-.3,3.1,3.1,0,0,1,.3.362c.308.441.968-.072.66-.509" transform="translate(7.927 124.501)" fill="#b9bce9"/>
            <path id="Fill_189" data-name="Fill 189" d="M8.451,20.686a17.178,17.178,0,0,1-3.888-10.6A27.276,27.276,0,0,0,.819.235C.583-.244-.207.081.05.577.935,2.348,1.889,4.1,2.7,5.938a19.592,19.592,0,0,1,1.18,6.322A16.2,16.2,0,0,0,7.788,21.2c.342.407,1.026-.1.66-.509" transform="translate(22.381 86.174)" fill="#b9bce9"/>
            <path id="Fill_191" data-name="Fill 191" d="M10.181.341A37.807,37.807,0,0,1,7.866,7.33c-1,2.069-2.458,3.884-3.453,5.956C2.546,17.184,2.7,21.773.084,25.349a.418.418,0,0,0,.667.5C3.421,22.2,3.26,17.571,5.185,13.6c1.06-2.178,2.6-4.1,3.607-6.295A41.374,41.374,0,0,0,11.012.44c.133-.516-.684-.612-.831-.1" transform="translate(111.815 90.294)" fill="#b9bce9"/>
            <path id="Fill_197" data-name="Fill 197" d="M79.8,1.366a.41.41,0,0,0-.745.072l-29.406.708C39.627,2.392,30.374-.579,20.438.716,18.256,1,15.309-.309,13.141.07A13.13,13.13,0,0,0,7.523,1.51C6.463,2.4,6.709,3.732,6.8,4.96a17.65,17.65,0,0,1-.643,4.192c-.479,2.1-1.166,4.6-1.84,6.907s-1.323,4.455-1.734,5.779A161.811,161.811,0,0,0,.206,42.189C-.427,47.092.64,74.672.206,80a.427.427,0,0,0,.421.417,341.144,341.144,0,0,0,50.462,1.751c.711-.021,1.416,0,2.11,0,.3,0,.595.024.889.051,2.93.188,5.813.684,8.757.906a62.693,62.693,0,0,0,12.214-.588c3.953-.5,7.885-1.156,11.851-1.525a55.3,55.3,0,0,0,10.757-.848c2.811-.845,5.652,1.973,5.348-1.026-.2-1.966-1.751-8.928-2.144-10.863a81.172,81.172,0,0,0-1.638-8.076Q95.956,43.782,92.55,27.407A61.2,61.2,0,0,0,89.394,14.92a19.027,19.027,0,0,0-1.063-2.052,5.526,5.526,0,0,1,0-3.419,48.553,48.553,0,0,0,1.214-8.336" transform="translate(22.054 187.908)" fill="#f1f2ff"/>
            <path id="Fill_199" data-name="Fill 199" d="M83.991,3.727c-.53-.886.653-2.277,0-3.419C78.383.516,71.015,2.185,65.366,1.631,58.394.947,55.45,1.125,44.875.523c-1.908-.109-3.676.954-5.6.807a40.726,40.726,0,0,0-5.42-.605c-1.805.1-3.566.643-5.368.848a34.64,34.64,0,0,1-5.1.137C16.187,1.494,8.989.875,1.84,0,1.368,2.1.684,4.6,0,6.907a12.736,12.736,0,0,0,1.4,0Q4.281,7,7.157,7.02c7.68.085,15.363-.092,23.039-.092,7.522,0,15.045.168,22.543.913,3.782.38,7.991-1.2,11.779-.937,3.139.219,6.175,2.052,9.355,1.419A96.789,96.789,0,0,0,85.058,5.768a19.062,19.062,0,0,0-1.063-2.052" transform="translate(26.387 197.06)" fill="#33261a"/>
            <path id="Fill_201" data-name="Fill 201" d="M3.066.594A105.484,105.484,0,0,1,.023,16.247a.633.633,0,0,0,1.217.342A107.675,107.675,0,0,0,4.317.6c.1-.807-1.169-.8-1.251-.01" transform="translate(35.709 195.053)" fill="#f1f2ff"/>
            <path id="Fill_203" data-name="Fill 203" d="M3.509,12.161Q3.02,8.595,2.432,5.042C2.2,3.664,2.3,1.059,1.112.143.479-.343-.42.532.219,1.025s.6,2.052.725,2.77q.239,1.368.465,2.763.479,2.961.886,5.936c.109.793,1.327.455,1.217-.342" transform="translate(95.055 196.428)" fill="#f1f2ff"/>
            <path id="Fill_205" data-name="Fill 205" d="M23.606.332l-1.87.222a.684.684,0,0,0-.947-.492c-.482.233-.944.489-1.4.762l-2.657.308c-.8.092-.807,1.344,0,1.251l.588-.068A17.9,17.9,0,0,0,12.7,8.33a19.462,19.462,0,0,0-1.672,5.358c-.383,2.428-.113,4.937-.684,7.338a16.525,16.525,0,0,1-3.912,6.155,19.531,19.531,0,0,0-2.941,5.655A97.734,97.734,0,0,0,.013,48.124a.636.636,0,0,0,.609.79L4.841,48.7A9.147,9.147,0,0,0,8.1,48.356c1.21-.574,1.118-1.641.992-2.79-.684-6.032,2.229-11.044,4.787-16.289a33.964,33.964,0,0,0,2.578-6.541,58.772,58.772,0,0,0,.906-7.273A25.183,25.183,0,0,1,24.061,1.406c.332-.356.133-1.132-.455-1.074" transform="translate(35.386 200.964)" fill="#33261a"/>
            <path id="Fill_207" data-name="Fill 207" d="M13.711,7.864H2.246A2.24,2.24,0,0,1,0,5.652V2.233A2.24,2.24,0,0,1,2.246,0H13.711a2.24,2.24,0,0,1,2.25,2.226V5.645A2.243,2.243,0,0,1,13.711,7.864ZM2.246,1.251a.981.981,0,0,0-.985.974V5.645a.981.981,0,0,0,.985.978H13.711a.981.981,0,0,0,.992-.971V2.233a.981.981,0,0,0-.992-.981Z" transform="translate(60.357 197.35)" fill="#fad3b1"/>
            <path id="Fill_209" data-name="Fill 209" d="M5.7,20.286c-.294-.024-.588-.038-.889-.051Q2.205,10.432.007.522C-.1,0,.715-.226.831.3Q3.046,10.349,5.7,20.286" transform="translate(70.441 249.854)" fill="#452222"/>
          </g>
        </g>
      </g>
    </g>
  </g>
</svg>
