<svg xmlns="http://www.w3.org/2000/svg" xmlns:xlink="http://www.w3.org/1999/xlink" width="88.276" height="32" viewBox="0 0 88.276 32">
  <defs>
    <clipPath id="clip-path">
      <rect id="Rectangle_5832" data-name="Rectangle 5832" width="88.276" height="32" fill="#38539a" stroke="#707070" stroke-width="1"/>
    </clipPath>
  </defs>
  <g id="Group_18167" data-name="Group 18167" transform="translate(-18.793 -7.89)">
    <g id="Mask_Group_258" data-name="Mask Group 258" transform="translate(18.793 7.89)" clip-path="url(#clip-path)">
      <g id="Group_18160" data-name="Group 18160" transform="translate(-6.621 -2.207)">
        <g id="Group_18161" data-name="Group 18161" transform="translate(0 0)">
          <g id="Brand_Logo_On_Light" data-name="Brand / Logo / On Light">
            <rect id="Brand_Logo_On_Light_background" data-name="Brand / Logo / On Light background" width="104.326" height="35.31" fill="none"/>
            <path id="Amway_Logo_-_Blue" data-name="Amway Logo - Blue" d="M0,29.425H0l.619-1.948A245.694,245.694,0,0,1,52.079,21.7a179.532,179.532,0,0,1,20.147,1.083v-1.23h1.017a2.6,2.6,0,0,0,1.619-.378,2.156,2.156,0,0,0,.575-1.513,4.983,4.983,0,0,0-.287-1.281L70.987,5.327V20.36H67.228V18.7l0,.006A4.8,4.8,0,0,1,66.1,19.953a3.993,3.993,0,0,1-2.421.728,4.845,4.845,0,0,1-2.231-.529,5.236,5.236,0,0,1-1.779-1.516,9.149,9.149,0,0,1-1.6-5.581,11.8,11.8,0,0,1,.562-3.779,7.252,7.252,0,0,1,1.428-2.523A5.3,5.3,0,0,1,63.966,4.9a3.611,3.611,0,0,1,3.34,2.3V5.254h3.68v.029h4.162L77.6,15.441,79.847,5.282h3.9L79.455,20.244l-.034.114a12.2,12.2,0,0,1-1.313,3.218,77.329,77.329,0,0,1,8.831,1.815l-.114.4c-2.888-.677-5.974-1.251-9.172-1.706-.643.567-1.536.874-4.409.874-.327,0-.511-.016-.743-.036l-.274-.022V23.435c-4.937-.487-10.253-.734-15.8-.734-6.65,0-13.754.354-21.116,1.051-5.889.558-11.956,1.335-18.03,2.312C6.988,27.717.07,29.408,0,29.425ZM64.7,8.337a2.54,2.54,0,0,0-1.972,1.111,5.611,5.611,0,0,0-.837,3.332,6.636,6.636,0,0,0,.432,2.6,2.487,2.487,0,0,0,2.215,1.784,2.337,2.337,0,0,0,1.73-.847,5.613,5.613,0,0,0,1.026-3.684,5.157,5.157,0,0,0-1-3.537A2.16,2.16,0,0,0,64.7,8.337ZM46.874,20.6H43.229l-3.935-15.2h3.935L45.3,14.9l2.124-9.509h3.41l2.1,9.509,2.072-9.509h3.935L55.006,20.6H51.412L49.13,10.325,46.874,20.6Zm-39.663,0H2.456L8.931,0h4.836l6.219,18.992V5.519h3.828V7.557l.018-.04a3.649,3.649,0,0,1,1.031-1.444,4.173,4.173,0,0,1,2.648-.9,4.521,4.521,0,0,1,1.495.262A3.571,3.571,0,0,1,31.184,7.76,4.562,4.562,0,0,1,35.327,5.2a4.4,4.4,0,0,1,3.095,1.193A3.936,3.936,0,0,1,39.6,8.648a23.236,23.236,0,0,1,.19,3.915V20.6H35.93V13.465c0-2.456-.058-2.92-.446-3.55a1.713,1.713,0,0,0-1.6-.845,2.008,2.008,0,0,0-1.652.873,7.272,7.272,0,0,0-.419,3.2V20.6H27.958V13c0-1.619,0-2.357-.393-3.027a1.83,1.83,0,0,0-1.574-.9,2.057,2.057,0,0,0-1,.263,1.956,1.956,0,0,0-1,1.47,17.348,17.348,0,0,0-.154,3.129V20.6H15.729l-1.237-4.377H8.421L7.211,20.6ZM11.736,4.414h0L9.824,12.261h3.929L11.736,4.414Z" transform="translate(7.356 2.943)" fill="#38539a"/>
          </g>
        </g>
      </g>
    </g>
  </g>
</svg>
