<svg xmlns="http://www.w3.org/2000/svg" xmlns:xlink="http://www.w3.org/1999/xlink" width="32" height="32" viewBox="0 0 32 32">
  <defs>
    <clipPath id="clip-path">
      <rect id="Rectangle_4496" data-name="Rectangle 4496" width="32" height="32" transform="translate(-20809 -6564)" fill="#fff" stroke="#707070" stroke-width="1"/>
    </clipPath>
    <filter id="Rectangle_3407" x="-2.5" y="-0.5" width="37" height="37" filterUnits="userSpaceOnUse">
      <feOffset dy="2" input="SourceAlpha"/>
      <feGaussianBlur stdDeviation="2" result="blur"/>
      <feFlood flood-color="#38539a" flood-opacity="0.161"/>
      <feComposite operator="in" in2="blur"/>
      <feComposite in="SourceGraphic"/>
    </filter>
  </defs>
  <g id="Mask_Group_160" data-name="Mask Group 160" transform="translate(20809 6564)" clip-path="url(#clip-path)">
    <g id="Group_13644" data-name="Group 13644" transform="translate(-20996 -6799)">
      <g id="Group_13357" data-name="Group 13357" transform="translate(-68 -108)">
        <circle id="Ellipse_372" data-name="Ellipse 372" cx="20" cy="20" r="20" transform="translate(251 339)" fill="none"/>
        <g id="Group_13358" data-name="Group 13358" transform="translate(258.5 346.5)">
          <g transform="matrix(1, 0, 0, 1, -3.5, -3.5)" filter="url(#Rectangle_3407)">
            <rect id="Rectangle_3407-2" data-name="Rectangle 3407" width="25" height="25" rx="12.5" transform="translate(3.5 3.5)" fill="none"/>
          </g>
          <g id="Group_6224" data-name="Group 6224" transform="translate(3.959 3.978)">
            <g id="Group_6226" data-name="Group 6226" transform="translate(0 0)">
              <g id="Group_6855" data-name="Group 6855">
                <g id="Group_13258" data-name="Group 13258">
                  <path id="Path_26288" data-name="Path 26288" d="M15.3,10.631h0a.576.576,0,0,0-.576.575v3.618a1.062,1.062,0,0,1-1.061,1.058H2.205a1.062,1.062,0,0,1-1.06-1.061V4.2a1.062,1.062,0,0,1,1.06-1.059H5.811a.582.582,0,0,0,.639-.5A.576.576,0,0,0,5.947,2,.437.437,0,0,0,5.83,2H2.205A2.211,2.211,0,0,0,0,4.2V14.822a2.211,2.211,0,0,0,2.205,2.2H13.661a2.21,2.21,0,0,0,2.205-2.2V11.2a.577.577,0,0,0-.571-.571" transform="translate(0.187 -0.169)" fill="#2c2c2c"/>
                  <path id="Path_26288_-_Outline" data-name="Path 26288 - Outline" d="M13.7,17.25H2.243A2.4,2.4,0,0,1-.15,14.86V4.238a2.4,2.4,0,0,1,2.393-2.39H5.855a.556.556,0,0,1,.061,0,.678.678,0,0,1,.1.007.764.764,0,0,1,.662.846.766.766,0,0,1-.763.671c-.024,0-.048,0-.071,0h-3.6a.874.874,0,0,0-.873.872v10.62a.874.874,0,0,0,.872.873H13.7a.874.874,0,0,0,.873-.871V11.243a.761.761,0,0,1,1.522-.006v3.622A2.4,2.4,0,0,1,13.7,17.25ZM2.243,2.223A2.024,2.024,0,0,0,.225,4.238V14.86a2.024,2.024,0,0,0,2.018,2.015H13.7a2.023,2.023,0,0,0,2.018-2.016v-3.62a.386.386,0,0,0-.772,0v3.618A1.25,1.25,0,0,1,13.7,16.107H2.243A1.249,1.249,0,0,1,1,14.859V4.239A1.25,1.25,0,0,1,2.243,2.992H5.868A.4.4,0,0,0,6.3,2.654a.389.389,0,0,0-.339-.43.271.271,0,0,0-.065,0l-.015,0H2.243Z" transform="translate(0.15 -0.206)" fill="#2c2c2c"/>
                  <path id="Path_26289" data-name="Path 26289" d="M17.027,1.1,16.533.6a2.066,2.066,0,0,0-2.918,0L6.087,8.131a.592.592,0,0,0-.151.258l-.99,3.574a.586.586,0,0,0,.721.722l3.574-.99a.574.574,0,0,0,.258-.15l7.529-7.528a2.07,2.07,0,0,0,0-2.918M8,10.82l-1.645.456.456-1.645Zm7.037-6.472L9.109,10.274,7.354,8.519,13.28,2.593ZM16.2,3.185h0l-.332.332L14.115,1.764l.332-.332a.891.891,0,0,1,1.259,0l.493.493a.894.894,0,0,1,0,1.26" transform="translate(-0.694 0.188)" fill="#2c2c2c"/>
                  <path id="Path_26289_-_Outline" data-name="Path 26289 - Outline" d="M5.548,12.931A.774.774,0,0,1,4.8,11.95l.99-3.574a.779.779,0,0,1,.2-.34L13.52.507a2.254,2.254,0,0,1,3.183,0L17.2,1a2.258,2.258,0,0,1,0,3.183L9.668,11.714a.759.759,0,0,1-.342.2l-3.573.99A.779.779,0,0,1,5.548,12.931ZM15.112.224a1.864,1.864,0,0,0-1.327.548L6.257,8.3a.4.4,0,0,0-.1.176l-.99,3.574a.4.4,0,0,0,.491.491l3.574-.99a.386.386,0,0,0,.175-.1l7.53-7.529a1.882,1.882,0,0,0,0-2.653L16.438.773A1.864,1.864,0,0,0,15.112.224ZM6.121,11.582l.63-2.274,1.644,1.644Zm.82-1.554-.281,1.015,1.015-.281Zm2.206.548-2.02-2.02,6.191-6.192,2.02,2.021ZM7.657,8.557l1.489,1.489,5.66-5.66L13.317,2.9Zm8.248-4.738L13.887,1.8l.464-.464a1.078,1.078,0,0,1,1.524,0l.493.492a1.082,1.082,0,0,1,0,1.525l-.133.134h0ZM14.418,1.8l1.488,1.487.226-.226a.707.707,0,0,0-.027-.968L15.61,1.6a.7.7,0,0,0-.994,0Z" transform="translate(-0.731 0.151)" fill="#2c2c2c"/>
                </g>
              </g>
            </g>
          </g>
        </g>
      </g>
    </g>
  </g>
</svg>
