<svg xmlns="http://www.w3.org/2000/svg" width="32" height="32" viewBox="0 0 32 32">
  <g id="Group_13701" data-name="Group 13701" transform="translate(-36 -156)">
    <rect id="Rectangle_4145" data-name="Rectangle 4145" width="32" height="32" transform="translate(36 156)" fill="none"/>
    <g id="Group_13637" data-name="Group 13637" transform="translate(6676.44 4633.833)">
      <path id="Path_92542" data-name="Path 92542" d="M-6200.164-4339.584h2.68a.932.932,0,0,0,.927-.939.933.933,0,0,0-.939-.927h-2.667a.934.934,0,0,0-.927.927A.934.934,0,0,0-6200.164-4339.584Z" transform="translate(-420.307 -125.369)" fill="#a76c47"/>
      <path id="Path_92543" data-name="Path 92543" d="M-6200.164-4247.464h6.667a.932.932,0,0,0,.927-.926.933.933,0,0,0-.927-.94h-6.667a.934.934,0,0,0-.927.927A.934.934,0,0,0-6200.164-4247.464Z" transform="translate(-420.307 -213.497)" fill="#a76c47"/>
      <path id="Path_92544" data-name="Path 92544" d="M-6192.778-4155.63h-6.666a.933.933,0,0,0-.927.927.933.933,0,0,0,.927.939h6.666a.933.933,0,0,0,.928-.927A.933.933,0,0,0-6192.778-4155.63Z" transform="translate(-420.996 -303.137)" fill="#a76c47"/>
      <path id="Path_92545" data-name="Path 92545" d="M-6613.774-4472.5h-21.334a5.333,5.333,0,0,0-5.332,5.334v10.667a5.332,5.332,0,0,0,5.332,5.333h21.334a5.334,5.334,0,0,0,5.334-5.333v-10.667A5.334,5.334,0,0,0-6613.774-4472.5Zm3.467,16a3.47,3.47,0,0,1-3.467,3.466h-21.334a3.47,3.47,0,0,1-3.466-3.466v-10.667a3.47,3.47,0,0,1,3.466-3.467h21.334a3.47,3.47,0,0,1,3.467,3.467Z" fill="#a76c47"/>
      <path id="Path_92546" data-name="Path 92546" d="M-6541.483-4381.62a6.645,6.645,0,0,0-4.714,1.953,6.643,6.643,0,0,0-1.953,4.714,6.645,6.645,0,0,0,1.963,4.724,6.65,6.65,0,0,0,.879.736,6.631,6.631,0,0,0,3.825,1.207,6.639,6.639,0,0,0,3.825-1.206,6.7,6.7,0,0,0,.845-.7,6.646,6.646,0,0,0,2-4.757A6.667,6.667,0,0,0-6541.483-4381.62Zm0,11.467a4.772,4.772,0,0,1-2.832-.925,3.012,3.012,0,0,1,2.817-1.976,3.009,3.009,0,0,1,2.823,1.993A4.772,4.772,0,0,1-6541.483-4370.153Zm-1.247-5.806a1.233,1.233,0,0,1,1.232-1.233h0a1.233,1.233,0,0,1,1.232,1.232,1.233,1.233,0,0,1-1.232,1.232A1.232,1.232,0,0,1-6542.73-4375.959Zm5.307,3.567a4.716,4.716,0,0,0-1.764-1.739c.043-.053.083-.107.121-.163a3,3,0,0,0,.313-2.749,2.829,2.829,0,0,0-1.074-1.348,2.9,2.9,0,0,0-1.65-.5h-.039a2.923,2.923,0,0,0-1.687.527,2.923,2.923,0,0,0-.724,4.071c.038.056.078.11.12.163a4.722,4.722,0,0,0-1.75,1.716,4.781,4.781,0,0,1-.725-2.537,4.8,4.8,0,0,1,4.8-4.8,4.8,4.8,0,0,1,4.8,4.8A4.776,4.776,0,0,1-6537.424-4372.393Z" transform="translate(-88.29 -86.941)" fill="#a76c47"/>
    </g>
  </g>
</svg>
