<svg xmlns="http://www.w3.org/2000/svg" width="24" height="24" viewBox="0 0 24 24">
  <g id="Group_12785" data-name="Group 12785" transform="translate(-231 -740)">
    <rect id="Rectangle_3407" data-name="Rectangle 3407" width="24" height="24" rx="12" transform="translate(231 740)" fill="#fff" opacity="0"/>
    <path id="Path_89506" data-name="Path 89506" d="M-3260.567-2766.164h0a2.737,2.737,0,0,0-1.77.658l-3.409-2.213a2.716,2.716,0,0,0,.138-.818,2.727,2.727,0,0,0-.124-.769l3.572-2.309a2.741,2.741,0,0,0,1.593.512,2.769,2.769,0,0,0,2.765-2.765,2.772,2.772,0,0,0-2.765-2.765h0a2.768,2.768,0,0,0-2.765,2.765,2.743,2.743,0,0,0,.21,1.05l-3.431,2.218a2.743,2.743,0,0,0-1.819-.7h0a2.768,2.768,0,0,0-2.765,2.765,2.768,2.768,0,0,0,2.765,2.765,2.74,2.74,0,0,0,1.781-.668l3.4,2.208a2.712,2.712,0,0,0-.143.834,2.768,2.768,0,0,0,2.765,2.765,2.768,2.768,0,0,0,2.765-2.765A2.773,2.773,0,0,0-3260.567-2766.164Zm1.235,2.765a1.236,1.236,0,0,1-1.233,1.234h0a1.22,1.22,0,0,1-.87-.362,1.222,1.222,0,0,1-.359-.872,1.234,1.234,0,0,1,1.232-1.229h0A1.235,1.235,0,0,1-3259.332-2763.4Zm-7.805-5.139a1.236,1.236,0,0,1-1.233,1.235h0a1.234,1.234,0,0,1-1.229-1.235,1.234,1.234,0,0,1,1.232-1.229h0A1.235,1.235,0,0,1-3267.138-2768.538Zm5.341-5.331a1.233,1.233,0,0,1,1.232-1.229h0a1.234,1.234,0,0,1,1.23,1.229,1.235,1.235,0,0,1-1.233,1.234h0a1.22,1.22,0,0,1-.87-.362A1.222,1.222,0,0,1-3261.8-2773.869Z" transform="translate(3507.138 3520.634)" fill="#fff"/>
  </g>
</svg>
