<svg xmlns="http://www.w3.org/2000/svg" xmlns:xlink="http://www.w3.org/1999/xlink" width="32" height="32" viewBox="0 0 32 32">
  <defs>
    <clipPath id="clip-path">
      <rect id="Rectangle_4493" data-name="Rectangle 4493" width="32" height="32" transform="translate(-15556 -9095)" fill="#fff"/>
    </clipPath>
    <filter id="Rectangle_3407" x="-24" y="-16" width="80" height="80" filterUnits="userSpaceOnUse">
      <feOffset dy="8" input="SourceAlpha"/>
      <feGaussianBlur stdDeviation="8" result="blur"/>
      <feFlood flood-color="#764140" flood-opacity="0.161"/>
      <feComposite operator="in" in2="blur"/>
      <feComposite in="SourceGraphic"/>
    </filter>
  </defs>
  <g id="Mask_Group_159" data-name="Mask Group 159" transform="translate(15556 9095)" clip-path="url(#clip-path)">
    <g id="Group_13630" data-name="Group 13630" transform="translate(-15556 -9095)">
      <g id="Group_6854" data-name="Group 6854">
        <g id="Group_5258" data-name="Group 5258">
          <g transform="matrix(1, 0, 0, 1, 0, 0)" filter="url(#Rectangle_3407)">
            <g id="Rectangle_3407-2" data-name="Rectangle 3407" fill="#fff" stroke="#2c2c2c" stroke-width="1.35" opacity="0">
              <rect width="32" height="32" rx="16" stroke="none"/>
              <rect x="0.675" y="0.675" width="30.65" height="30.65" rx="15.325" fill="none"/>
            </g>
          </g>
        </g>
        <path id="Path_89505" data-name="Path 89505" d="M963.131,540.024a5.224,5.224,0,0,0,1.348-1.345,5.323,5.323,0,0,0,.533-4.914,4.971,4.971,0,0,0-1.88-2.332,5.124,5.124,0,0,0-2.955-.879h0a5.124,5.124,0,0,0-2.955.879,5.207,5.207,0,0,0,0,8.591,9.039,9.039,0,0,0-6.043,7.745.7.7,0,1,0,1.4.108,7.621,7.621,0,0,1,15.195,0,.7.7,0,1,0,1.4-.108A9.039,9.039,0,0,0,963.131,540.024Zm-2.954-.485h0a3.809,3.809,0,1,1,0-7.617h0a3.809,3.809,0,1,1,0,7.617Z" transform="translate(-944.176 -523.553)" fill="#2c2c2c" stroke="rgba(0,0,0,0)" stroke-width="1"/>
      </g>
    </g>
  </g>
</svg>
