<svg xmlns="http://www.w3.org/2000/svg" width="20" height="18.25" viewBox="0 0 20 18.25">
  <g id="Group_8410" data-name="Group 8410" transform="translate(-153 -335.75)">
    <g id="Group_8482" data-name="Group 8482">
      <g id="Rectangle_5065" data-name="Rectangle 5065" transform="translate(154 341)" fill="none" stroke="#2c2c2c" stroke-width="1.25">
        <path d="M0,0H18a0,0,0,0,1,0,0V11a2,2,0,0,1-2,2H2a2,2,0,0,1-2-2V0A0,0,0,0,1,0,0Z" stroke="none"/>
        <path d="M1.25.625h15.5a.625.625,0,0,1,.625.625V11A1.375,1.375,0,0,1,16,12.375H2A1.375,1.375,0,0,1,.625,11V1.25A.625.625,0,0,1,1.25.625Z" fill="none"/>
      </g>
      <g id="Union_6" data-name="Union 6" transform="translate(153 336)" fill="none">
        <path d="M10.909,6V0H19a1,1,0,0,1,1,1V5a1,1,0,0,1-1,1ZM1,6A1,1,0,0,1,0,5V1A1,1,0,0,1,1,0H9.091V6Z" stroke="none"/>
        <path d="M 18.74979972839355 4.75029993057251 L 18.74979972839355 1.25 L 12.15890026092529 1.25 L 12.15890026092529 4.75029993057251 L 18.74979972839355 4.75029993057251 M 7.84089994430542 4.75029993057251 L 7.84089994430542 1.25 L 1.24999988079071 1.25 L 1.24999988079071 4.75029993057251 L 7.84089994430542 4.75029993057251 M 18.99990081787109 6.00029993057251 L 10.90890026092529 6.00029993057251 L 10.90890026092529 -3.471374654395731e-08 L 18.99990081787109 -3.471374654395731e-08 C 19.55249977111816 -3.471374654395731e-08 19.99979972839355 0.4472999572753906 19.99979972839355 0.9998999834060669 L 19.99979972839355 4.999499797821045 C 19.99979972839355 5.55210018157959 19.55249977111816 6.00029993057251 18.99990081787109 6.00029993057251 Z M 9.090899467468262 6.00029993057251 L 0.9998998641967773 6.00029993057251 C 0.4481998682022095 6.00029993057251 -1.358032193365943e-07 5.55210018157959 -1.358032193365943e-07 4.999499797821045 L -1.358032193365943e-07 0.9998999834060669 C -1.358032193365943e-07 0.4472999572753906 0.4481998682022095 -3.471374654395731e-08 0.9998998641967773 -3.471374654395731e-08 L 9.090899467468262 -3.471374654395731e-08 L 9.090899467468262 6.00029993057251 Z" stroke="none" fill="#2c2c2c"/>
      </g>
      <g id="Rectangle_5069" data-name="Rectangle 5069" transform="translate(162 337)" fill="#fff" stroke="#2c2c2c" stroke-width="1.25">
        <path d="M.25,0h1.5A.25.25,0,0,1,2,.25V4A1,1,0,0,1,1,5H1A1,1,0,0,1,0,4V.25A.25.25,0,0,1,.25,0Z" stroke="none"/>
        <path d="M.25-.625h1.5A.875.875,0,0,1,2.625.25V4A1.625,1.625,0,0,1,1,5.625H1A1.625,1.625,0,0,1-.625,4V.25A.875.875,0,0,1,.25-.625Z" fill="none"/>
      </g>
    </g>
  </g>
</svg>
