<svg xmlns="http://www.w3.org/2000/svg" width="21" height="21" viewBox="0 0 21 21">
  <g id="Icon_Date" data-name="Icon/Date" transform="translate(0.5 0.5)">
    <rect id="Icon_Date_background" data-name="Icon/Date background" width="20" height="20" fill="none" stroke="rgba(0,0,0,0)" stroke-width="1"/>
    <path id="Combined_Shape" data-name="Combined Shape" d="M1.909,16.667A1.912,1.912,0,0,1,0,14.757V3.3A1.912,1.912,0,0,1,1.909,1.389H3.473V.521a.521.521,0,0,1,1.042,0v.868h7.639V.521a.521.521,0,0,1,1.042,0v.868h1.562A1.912,1.912,0,0,1,16.667,3.3V14.757a1.912,1.912,0,0,1-1.91,1.91Zm-.868-1.91a.869.869,0,0,0,.868.868H14.757a.869.869,0,0,0,.868-.868V6.6H1.042Zm14.583-9.2V3.3a.869.869,0,0,0-.868-.868H13.195V3.646a.521.521,0,1,1-1.042,0V2.431H4.514V3.646a.521.521,0,1,1-1.042,0V2.431H1.909a.869.869,0,0,0-.868.868V5.555Z" transform="translate(1.667 1.667)" fill="#107f47" stroke="#107f47" stroke-miterlimit="10" stroke-width="0.15"/>
  </g>
</svg>
