<svg xmlns="http://www.w3.org/2000/svg" width="24" height="24" viewBox="0 0 24 24">
  <g id="Group_8527" data-name="Group 8527" transform="translate(1497 4510)">
    <rect id="Rectangle_5135" data-name="Rectangle 5135" width="24" height="24" transform="translate(-1497 -4510)" fill="none"/>
    <g id="Group_1043" data-name="Group 1043" transform="translate(-1493.999 -4505.001)">
      <path id="Path_3381" data-name="Path 3381" d="M71.777,120.939l-6.069,5a.143.143,0,0,1,0,.032.145.145,0,0,0,0,.029v5.066a.685.685,0,0,0,.675.676h4.053v-4.053h2.7v4.053h4.053a.686.686,0,0,0,.676-.676V126a.149.149,0,0,0-.011-.063Z" transform="translate(-63.269 -118.206)" fill="#949494"/>
      <path id="Path_3382" data-name="Path 3382" d="M16.9,53.59l-2.314-1.92V47.363a.325.325,0,0,0-.338-.338H12.222a.325.325,0,0,0-.338.338v2.058L9.309,47.268a1.309,1.309,0,0,0-1.6,0L.117,53.59A.307.307,0,0,0,0,53.817a.342.342,0,0,0,.074.248l.654.781a.36.36,0,0,0,.222.116.392.392,0,0,0,.253-.074L8.5,48.8l7.3,6.09a.325.325,0,0,0,.222.074h.032a.36.36,0,0,0,.222-.116l.654-.781a.342.342,0,0,0,.074-.248A.308.308,0,0,0,16.9,53.59Z" transform="translate(0.001 -46.994)" fill="#949494"/>
    </g>
  </g>
</svg>
