<svg xmlns="http://www.w3.org/2000/svg" width="24" height="24" viewBox="0 0 24 24">
  <g id="Group_8529" data-name="Group 8529" transform="translate(1499 4416)">
    <rect id="Rectangle_5136" data-name="Rectangle 5136" width="24" height="24" transform="translate(-1499 -4416)" fill="none"/>
    <g id="Group_1044" data-name="Group 1044" transform="translate(-1494.009 -4411)">
      <path id="Path_3383" data-name="Path 3383" d="M10.108,53.652a.931.931,0,0,0-1.407,0c-.329.326-.658.653-.982.984a.194.194,0,0,1-.271.05c-.213-.116-.44-.21-.644-.337a10.207,10.207,0,0,1-2.461-2.24A5.83,5.83,0,0,1,3.461,50.7a.2.2,0,0,1,.05-.26c.329-.318.65-.644.973-.971a.935.935,0,0,0,0-1.441c-.257-.26-.514-.514-.771-.774s-.528-.534-.8-.8a.937.937,0,0,0-1.407,0c-.332.326-.65.661-.987.982a1.6,1.6,0,0,0-.5,1.081,4.58,4.58,0,0,0,.354,1.971A11.98,11.98,0,0,0,2.5,54.033a13.158,13.158,0,0,0,4.358,3.409,6.3,6.3,0,0,0,2.414.7,1.769,1.769,0,0,0,1.518-.578c.282-.315.6-.6.9-.9a.941.941,0,0,0,.006-1.432Q10.9,54.438,10.108,53.652Z" transform="translate(-0.006 -44.862)" fill="#949494"/>
      <path id="Path_3384" data-name="Path 3384" d="M240.851,99.932l1.02-.174A4.58,4.58,0,0,0,238,96l-.144,1.026a3.539,3.539,0,0,1,3,2.906Z" transform="translate(-231.277 -93.346)" fill="#949494"/>
      <path id="Path_3385" data-name="Path 3385" d="M247.211,2.151A7.523,7.523,0,0,0,242.9,0l-.144,1.026a6.565,6.565,0,0,1,5.555,5.383l1.02-.174a7.578,7.578,0,0,0-2.12-4.084Z" transform="translate(-236.042)" fill="#949494"/>
    </g>
  </g>
</svg>
