<svg xmlns="http://www.w3.org/2000/svg" width="16" height="16" viewBox="0 0 16 16">
  <g id="Group_8519" data-name="Group 8519" transform="translate(-136 -64)">
    <rect id="Rectangle_5124" data-name="Rectangle 5124" width="16" height="16" transform="translate(136 64)" fill="none"/>
    <path id="Path_87853" data-name="Path 87853" d="M12.162,2.042a.221.221,0,0,0-.2-.031L8.011,3.328,4.284,2.451a.194.194,0,0,0-.028,0,.227.227,0,0,0-.072,0L.174,3.342A.223.223,0,0,0,0,3.559V13.14a.223.223,0,0,0,.223.223.238.238,0,0,0,.048-.005l3.968-.882,3.744.661a.207.207,0,0,0,.039,0,.224.224,0,0,0,.078-.015h0l4.011-1.56a.223.223,0,0,0,.142-.208V2.223A.223.223,0,0,0,12.162,2.042ZM.446,3.738l3.565-.792V12.07l-3.565.792Zm4.011-.789L7.8,3.736v8.916l-3.342-.59Zm7.353,8.256L8.244,12.592V3.72l3.565-1.188Z" transform="translate(137.873 64.5)" stroke="#38539a" stroke-width="0.5"/>
  </g>
</svg>
