<svg id="Icon_Delete" data-name="Icon / Delete" xmlns="http://www.w3.org/2000/svg" width="20" height="20" viewBox="0 0 20 20">
  <path id="Shape" d="M14.328,2.544A8.333,8.333,0,1,0,2.544,14.328,8.333,8.333,0,1,0,14.328,2.544Z" transform="translate(1.667 1.667)" fill="#c3c4c5"/>
  <path id="Path" d="M6.43.246a.833.833,0,0,0-1.183,0L3.338,2.163,1.43.246A.837.837,0,0,0,.246,1.43L2.163,3.338.246,5.246A.837.837,0,1,0,1.43,6.43L3.338,4.513,5.246,6.43A.837.837,0,1,0,6.43,5.246L4.513,3.338,6.43,1.43a.833.833,0,0,0,0-1.183Z" transform="translate(6.764 6.764)" fill="#fff"/>
</svg>
