<svg xmlns="http://www.w3.org/2000/svg" width="32" height="32" viewBox="0 0 32 32">
  <g id="Group_8521" data-name="Group 8521" transform="translate(-337 27)">
    <rect id="Rectangle_5125" data-name="Rectangle 5125" width="32" height="32" transform="translate(337 -27)" fill="none"/>
    <g id="Group_8520" data-name="Group 8520" transform="translate(337.5 -34.5)">
      <path id="Path_17608" data-name="Path 17608" d="M29.22,21A1.559,1.559,0,0,1,28,20.418c-.792-.981-1.663-2.147-2.59-3.466A37.08,37.08,0,0,1,22,11.55a8.017,8.017,0,0,1-.355-.852l-.01-.024a.291.291,0,0,1-.012-.04,8.033,8.033,0,1,1,15.2,0,.283.283,0,0,1-.012.039l-.013.034a7.912,7.912,0,0,1-.352.842,37.069,37.069,0,0,1-3.415,5.4c-.926,1.319-1.8,2.485-2.59,3.466A1.559,1.559,0,0,1,29.22,21Z" transform="translate(-13.687 9.5)" fill="#f27024"/>
      <path id="Union_5" data-name="Union 5" d="M0,6.383V.826a.667.667,0,0,1,1.334,0V3.864L7.871.089a.667.667,0,0,1,.667,1.156l-3.7,2.134L8.555,5.792A.667.667,0,1,1,7.829,6.91L3.544,4.127,1.511,5.3a.667.667,0,0,1-.177.071V6.383A.667.667,0,1,1,0,6.383Z" transform="translate(11.5 14.475)" fill="#fff"/>
    </g>
  </g>
</svg>
