<svg xmlns="http://www.w3.org/2000/svg" width="24" height="24" viewBox="0 0 24 24">
  <g id="Group_8577" data-name="Group 8577" transform="translate(-1095 -215)">
    <g id="Group_8576" data-name="Group 8576">
      <rect id="Rectangle_5262" data-name="Rectangle 5262" width="24" height="24" transform="translate(1095 215)" fill="none"/>
      <g id="Group_8575" data-name="Group 8575" transform="translate(734 -99)">
        <g id="Group_6220" data-name="Group 6220" transform="translate(362 318)">
          <g id="Icons_Order_Review" data-name="Icons/Order/Review">
            <path id="Combined_Shape" data-name="Combined Shape" d="M14.731,14.082H9.953a2.593,2.593,0,0,1-5.091,0l-1.313,0a.281.281,0,0,1-.045-.008l-.038-.01a.2.2,0,0,1-.052-.017.551.551,0,0,1-.147-.094l-.032-.034a.415.415,0,0,1-.089-.136l-.007-.008-.031-.217.521-5.39H2.758a.5.5,0,0,1,0-.995h.968l.354-3.654H.5a.5.5,0,0,1,0-.994h3.68L4.385.4A.5.5,0,0,1,4.871,0h3.8a.5.5,0,1,1,0,.994H5.324L5.176,2.522H8.253a.5.5,0,0,1,0,.994H5.079L4.724,7.17H6.562a.5.5,0,1,1,0,.995H4.629L4.479,9.706H15.131L15.888.994H9.944a.5.5,0,1,1,0-.994l6.71.055A.479.479,0,0,1,16.928.5l-.4,4.56H17.7a4.307,4.307,0,0,1,4.3,4.3c0,.181-.017.465-.053.891l0,.035c-.1,1.129-.293,2.735-.357,3.262l-.012.1-.027.11-.005.013,0,.011v.009l-.075.111-.125.111-.206.071a.42.42,0,0,1-.052,0H19.822a2.594,2.594,0,0,1-5.091,0Zm.946-.5a1.6,1.6,0,1,0,1.6-1.6A1.6,1.6,0,0,0,15.677,13.585Zm-9.868,0a1.6,1.6,0,1,0,1.6-1.6A1.6,1.6,0,0,0,5.809,13.585Zm14.013-.5h.818c0-.012.16-1.295.273-2.45a2.892,2.892,0,0,1-1.473-1.072l0,0A2.1,2.1,0,0,0,17.7,8.587H16.226l-.163,1.756-.184-.02.166.069-.158.205-.21.1-.054.007H4.382l-.231,2.387h.711a2.593,2.593,0,0,1,5.091,0h4.778a2.594,2.594,0,0,1,5.091,0Zm-1.58-5.449A3.213,3.213,0,0,1,20.182,8.9l0,0,0,0A2.394,2.394,0,0,0,21,9.618c.005-.092.009-.182.009-.26a3.321,3.321,0,0,0-2.632-3.237Zm-1.93-.045h.935l.135-1.542h-.936Zm-.379,5.992a1.343,1.343,0,1,1,1.342,1.342A1.344,1.344,0,0,1,15.933,13.584Zm.995,0a.348.348,0,1,0,.348-.348A.348.348,0,0,0,16.928,13.584Zm-10.863,0a1.343,1.343,0,1,1,1.342,1.342A1.344,1.344,0,0,1,6.065,13.584Zm.995,0a.348.348,0,1,0,.348-.348A.348.348,0,0,0,7.059,13.584ZM1.631,6.051a.5.5,0,0,1,0-.994h1.55a.5.5,0,0,1,0,.994Z" transform="translate(0 0)" fill="#2c2c2c" stroke="#2c2c2c" stroke-miterlimit="10" stroke-width="0.25"/>
          </g>
        </g>
      </g>
    </g>
  </g>
</svg>
