<svg xmlns="http://www.w3.org/2000/svg" width="24" height="24" viewBox="0 0 24 24">
  <g id="Group_13153" data-name="Group 13153" transform="translate(-112 -134)">
    <rect id="Rectangle_5212" data-name="Rectangle 5212" width="24" height="24" transform="translate(112 134)" fill="#fff" opacity="0"/>
    <g id="Icon_Heart" data-name="Icon/Heart" transform="translate(108 133)">
      <g id="Group_8006" data-name="Group 8006" transform="translate(-814.536 -526.82)">
        <path id="Path_87268" data-name="Path 87268" d="M832.375,538.148h0v-3.528a.573.573,0,0,0-.576-.567h-2.251v-.135a4.1,4.1,0,1,0-8.193,0v.135H819.1a.529.529,0,0,0-.4.162.573.573,0,0,0-.171.405v8.464a3.4,3.4,0,0,0,3.395,3.395h3.528l.007,0a.572.572,0,0,0,0-1.144H821.93a2.252,2.252,0,0,1-2.251-2.251v-7.9h1.675v1.549a.573.573,0,0,0,.576.567.565.565,0,0,0,.567-.567v-1.549h5.916v1.549a.567.567,0,0,0,1.135,0v-1.549h1.684v2.961a.572.572,0,0,0,1.143,0h0Zm-3.962-4.1H822.5v-.135a2.958,2.958,0,1,1,5.916,0Z" transform="translate(0 0)" fill="#2c2c2c"/>
        <g id="Group_13152" data-name="Group 13152" transform="translate(826.436 539.22)">
          <path id="Path_89526" data-name="Path 89526" d="M958.26,536.165a3.086,3.086,0,0,0,0-5.091,3.036,3.036,0,0,0-1.751-.521h0a3.036,3.036,0,0,0-1.751.521,3.086,3.086,0,0,0,0,5.091,5.356,5.356,0,0,0-3.581,4.589.416.416,0,1,0,.829.064,4.516,4.516,0,0,1,9,0,.416.416,0,1,0,.83-.064A5.357,5.357,0,0,0,958.26,536.165Zm-1.75-.287h0a2.257,2.257,0,1,1,0-4.514h0a2.257,2.257,0,1,1,0,4.514Z" transform="translate(-951.176 -530.553)" fill="#2c2c2c" stroke="#2c2c2c" stroke-width="0.3"/>
        </g>
      </g>
    </g>
  </g>
</svg>
