<svg xmlns="http://www.w3.org/2000/svg" width="20" height="18.324" viewBox="0 0 20 18.324">
  <g id="Group_12865" data-name="Group 12865" transform="translate(-241 -82.838)">
    <g id="Group_6173" data-name="Group 6173" transform="translate(-1)">
      <g id="Group_12790" data-name="Group 12790" transform="translate(238.987 79.072)">
        <path id="Path_89500" data-name="Path 89500" d="M83.485,82.01H71.569a2.458,2.458,0,0,0-4.66,0h-1.86a.782.782,0,0,0,0,1.565h1.86a2.458,2.458,0,0,0,4.66,0H83.485a.782.782,0,1,0,0-1.565ZM69.239,83.686a.894.894,0,1,1,.894-.894A.895.895,0,0,1,69.239,83.686Z" transform="translate(-61.255 -76.568)" fill="#2c2c2c"/>
        <path id="Path_89501" data-name="Path 89501" d="M83.485,210.543h-1.86a2.457,2.457,0,0,0-4.66,0H65.049a.782.782,0,1,0,0,1.565H76.965a2.457,2.457,0,0,0,4.66,0h1.86a.782.782,0,1,0,0-1.565Zm-4.19,1.676a.894.894,0,1,1,.894-.894A.895.895,0,0,1,79.295,212.219Z" transform="translate(-61.255 -198.398)" fill="#2c2c2c"/>
        <path id="Path_89502" data-name="Path 89502" d="M83.485,339.076H74.921a2.457,2.457,0,0,0-4.66,0H65.049a.782.782,0,1,0,0,1.565h5.212a2.458,2.458,0,0,0,4.66,0h8.564a.782.782,0,1,0,0-1.565Zm-10.894,1.676a.894.894,0,1,1,.894-.894A.895.895,0,0,1,72.591,340.752Z" transform="translate(-61.255 -320.227)" fill="#2c2c2c"/>
      </g>
    </g>
  </g>
</svg>
