<svg xmlns="http://www.w3.org/2000/svg" width="150" height="150" viewBox="0 0 150 150">
  <g id="Group_13331" data-name="Group 13331" transform="translate(-2700 -8888)">
    <rect id="Rectangle_4450" data-name="Rectangle 4450" width="150" height="150" transform="translate(2700 8888)" fill="rgba(255,255,255,0)"/>
    <g id="Group_13330" data-name="Group 13330" transform="translate(2733.75 8918)">
      <g id="Group_8680" data-name="Group 8680" transform="translate(0 0)">
        <g id="Group_7988" data-name="Group 7988">
          <rect id="Rectangle_4145" data-name="Rectangle 4145" width="90" height="90" fill="#fff" opacity="0"/>
          <g id="Group_7986" data-name="Group 7986" transform="translate(4.5 1.875)">
            <path id="Path_16670" data-name="Path 16670" d="M836.708,570.749v5.134h5.133a2.563,2.563,0,0,1,2.565,2.565h0a2.562,2.562,0,0,1-2.562,2.569H836.7v5.134a2.56,2.56,0,0,1-2.562,2.565h0a2.56,2.56,0,0,1-2.568-2.557v-5.142h-5.119a2.566,2.566,0,0,1-2.569-2.561v-.007h0a2.566,2.566,0,0,1,2.569-2.565h5.13v-5.134a2.57,2.57,0,0,1,2.568-2.569h0A2.571,2.571,0,0,1,836.708,570.749Zm3.191-26.287a15.409,15.409,0,0,1,2.464,18.566,2.549,2.549,0,0,1-3.506.829,2.731,2.731,0,0,1-.488-.385h0a2.564,2.564,0,0,1-.393-3.083,10.275,10.275,0,0,0-15.8-12.69l-3.423,3.071-3.427-3.071a10.268,10.268,0,0,0-14.6,14.385l19.833,19.864a2.564,2.564,0,0,1,0,3.627h0a2.565,2.565,0,0,1-3.626.011l-.007-.011L796.981,565.6a15.4,15.4,0,0,1,21.761-21.72,15.4,15.4,0,0,1,21.157.585Z" transform="translate(-763.477 -501.959)" fill="#fff"/>
            <path id="Path_87265" data-name="Path 87265" d="M842.828,564.5v-14.7a2.385,2.385,0,0,0-2.4-2.363h-9.375v-.562a17.062,17.062,0,1,0-34.125,0v.562h-9.375a2.205,2.205,0,0,0-1.65.675,2.386,2.386,0,0,0-.713,1.688v35.25A14.148,14.148,0,0,0,799.328,599.2h14.7l.026.008a2.383,2.383,0,0,0,.015-4.766v0H799.328a9.379,9.379,0,0,1-9.375-9.374V552.171h6.975v6.449a2.385,2.385,0,0,0,2.4,2.363,2.353,2.353,0,0,0,2.363-2.363v-6.449h24.637v6.449a2.362,2.362,0,1,0,4.725,0v-6.449h7.013v12.314l0,.015a2.383,2.383,0,0,0,4.767.008h0Zm-16.5-17.059H801.69v-.562a12.319,12.319,0,1,1,24.637,0Z" transform="translate(-785.19 -529.82)" fill="#fff"/>
          </g>
        </g>
      </g>
    </g>
  </g>
</svg>
